<?xml version="1.0" encoding="UTF-8"?>
<!DOCTYPE svg PUBLIC "-//W3C//DTD SVG 1.1//EN" "http://www.w3.org/Graphics/SVG/1.1/DTD/svg11.dtd">
<!-- Creator: CorelDRAW X6 -->
<svg xmlns="http://www.w3.org/2000/svg" xml:space="preserve" width="43.3492mm" height="43.3492mm" version="1.1" style="shape-rendering:geometricPrecision; text-rendering:geometricPrecision; image-rendering:optimizeQuality; fill-rule:evenodd; clip-rule:evenodd"
viewBox="0 0 4335 4335"
 xmlns:xlink="http://www.w3.org/1999/xlink">
 <defs>
  <style type="text/css">
   <![CDATA[
    .fil1 {fill:#5B5A50}
    .fil3 {fill:#66C3D0}
    .fil2 {fill:#B51B6C}
    .fil0 {fill:#E5097F}
   ]]>
  </style>
 </defs>
 <g id="Layer_x0020_1">
  <metadata id="CorelCorpID_0Corel-Layer"/>
  <g id="_636530968">
   <path class="fil0" d="M2219 1587c1,-1 1,-2 2,-3 3,-4 5,-8 8,-11 5,-8 11,-15 16,-23 143,-190 359,-312 601,-312 430,0 779,383 779,856 0,62 -6,123 -18,182 -37,214 -160,459 -405,729 -362,399 -868,755 -1023,860l0 5 -4 -3 -4 3 0 -5c-155,-105 -662,-461 -1023,-860 -245,-271 -368,-516 -405,-729 -11,-59 -18,-119 -18,-182 0,-473 349,-856 779,-856 242,0 458,121 601,312 6,7 11,15 16,23 3,4 5,8 8,11 1,1 1,2 2,3 16,23 30,48 44,73 14,-25 28,-50 44,-73zm203 767c0,0 145,158 264,172 119,13 587,-198 587,-198 0,0 -620,-376 -851,26zm-465 0c0,0 -145,158 -264,172 -119,13 -587,-198 -587,-198 0,0 620,-376 851,26zm-152 746c0,0 165,152 396,152 231,0 343,-145 343,-145 0,0 -304,-178 -739,-7z"/>
   <path class="fil1" d="M3224 2012c-641,-1222 1545,-665 638,-1555 1184,757 -482,1204 -638,1555zm-2097 0c641,-1222 -1545,-665 -638,-1555 -1184,757 482,1204 638,1555z"/>
  </g>
  <path class="fil2" d="M3274 2327c0,0 -346,-61 -538,-61 -192,0 -339,88 -339,88 0,0 86,-149 226,-210 140,-61 140,-61 140,-61 0,0 262,-9 512,244z"/>
  <path class="fil2" d="M1079 2327c0,0 346,-61 538,-61 192,0 339,88 339,88 0,0 -86,-149 -226,-210 -140,-61 -140,-61 -140,-61 0,0 -262,-9 -512,244z"/>
  <path class="fil2" d="M2545 3107c0,0 -2,1 -6,3 4,-6 6,-10 6,-10 0,0 -47,28 -138,50 -60,13 -138,24 -231,25 -93,-1 -171,-12 -231,-25 -91,-22 -138,-50 -138,-50 0,0 2,4 6,10 -4,-2 -6,-3 -6,-3 212,261 244,169 370,165 126,4 157,96 370,-165z"/>
  <path class="fil3" d="M2851 2765l1 1 0 1 0 1 0 1 0 1 0 1 0 0 0 1 0 1 0 1 0 0 0 0 0 1 0 1 0 1 0 0 0 1 0 1 0 1 0 0 0 0 0 1 0 1 0 1 0 0 0 1 0 1 0 1 0 0 0 0 0 1 0 1 0 1 0 0 0 1 0 1 0 1 0 0 0 0 0 1 0 1 0 1 0 0 0 1 0 1 0 1 0 0 0 1 0 1 0 1 0 1 0 0 0 1 0 1 0 1 0 0 0 1 0 1 0 1 0 0 0 1 0 1 0 1 0 0 0 1 0 1 0 1 0 0 0 0 0 2 0 1 0 0 0 1 0 1 0 1 0 0 0 0 0 1 0 1 0 1c0,56 -45,102 -102,102 -56,0 -102,-45 -102,-102l0 -1 0 -1 0 -1 0 0 0 0 0 -1 0 -1 0 -1 0 0 0 -1 0 -2 0 0 0 0 0 -1 0 -1 0 -1 0 0 0 -1 0 -1 0 -1 0 0 0 -1 0 -1 0 -1 0 0 0 -1 0 -1 0 -1 0 0 0 -1 0 -1 0 -1 0 -1 0 0 0 -1 0 -1 0 -1 0 0 0 -1 0 -1 0 -1 0 0 0 0 0 -1 0 -1 0 -1 0 0 0 -1 0 -1 0 -1 0 0 0 0 0 -1 0 -1 0 -1 0 0 0 -1 0 -1 0 -1 0 0 0 0 0 -1 0 -1 0 -1 0 0 0 -1 0 -1 0 -1 0 0 0 0 0 -1 0 -1 0 -1 0 0 0 -1 0 -1 0 -1 0 -1 0 -1 1 -1 90 -182 90 182z"/>
  <path class="fil3" d="M1626 2690l0 1 0 0 0 0 0 0 0 0 0 0 0 0 0 0 0 0 0 0 0 0 0 0 0 0 0 0 0 0 0 0 0 0 0 0 0 0 0 0 0 0 0 0 0 0 0 0 0 0 0 0 0 0 0 0 0 0 0 0 0 0 0 0 0 0 0 0 0 1 0 0 0 1 0 0 0 0 0 0 0 1 0 0 0 0 0 1 0 1 0 1 0 0 0 0 0 1 0 1 0 0 0 0 0 1 0 1 0 1 0 0 0 0 0 1 0 0 0 0 0 1 0 1 0 1 0 0 0 0 0 1 0 1 0 0 0 0 0 1 0 1 0 0 0 0 0 1 0 1 0 0 0 0 0 1 0 1 0 1c0,40 -32,72 -72,72 -40,0 -72,-32 -72,-72l0 -1 0 -1 0 -1 0 0 0 0 0 -1 0 -1 0 0 0 0 0 -1 0 -1 0 0 0 0 0 -1 0 -1 0 0 0 0 0 -1 0 -1 0 -1 0 0 0 0 0 -1 0 0 0 0 0 -1 0 -1 0 -1 0 0 0 0 0 -1 0 -1 0 0 0 0 0 -1 0 -1 0 -1 0 0 0 0 0 -1 0 0 0 0 0 0 0 -1 0 0 0 -1 0 0 0 0 0 0 0 0 0 0 0 0 0 0 0 0 0 0 0 0 0 0 0 0 0 0 0 0 0 0 0 0 0 0 0 0 0 0 0 0 0 0 0 0 0 0 0 0 0 0 0 0 0 0 0 0 0 0 0 0 0 0 0 0 0 0 0 -1 64 -129 64 129z"/>
 </g>
</svg>
