<?xml version="1.0" encoding="UTF-8"?>
<!DOCTYPE svg PUBLIC "-//W3C//DTD SVG 1.1//EN" "http://www.w3.org/Graphics/SVG/1.1/DTD/svg11.dtd">
<!-- Creator: CorelDRAW X6 -->
<svg xmlns="http://www.w3.org/2000/svg" xml:space="preserve" width="43.3492mm" height="43.3492mm" version="1.1" style="shape-rendering:geometricPrecision; text-rendering:geometricPrecision; image-rendering:optimizeQuality; fill-rule:evenodd; clip-rule:evenodd"
viewBox="0 0 4335 4335"
 xmlns:xlink="http://www.w3.org/1999/xlink">
 <defs>
  <style type="text/css">
   <![CDATA[
    .fil0 {fill:#208040}
    .fil1 {fill:#8BD122}
    .fil2 {fill:yellow}
   ]]>
  </style>
 </defs>
 <g id="Layer_x0020_1">
  <metadata id="CorelCorpID_0Corel-Layer"/>
  <path class="fil0" d="M2148 150c1130,0 2046,916 2046,2046 0,1130 -916,2046 -2046,2046 -1130,0 -2046,-916 -2046,-2046 0,-1130 916,-2046 2046,-2046z"/>
  <path class="fil1" d="M3450 2327c0,779 -498,768 -538,1258l0 0 0 3c-4,55 -3,115 6,184 7,85 20,190 48,300 -250,109 -527,170 -817,170 -73,0 -145,-4 -215,-11 0,-2 0,-4 1,-6 0,-8 0,-17 0,-26l3 -48c0,-235 -219,-401 -219,-403 -14,0 -27,0 -41,0l-82 5 -172 45c-32,11 -33,8 -69,3 -28,-4 -51,-6 -73,-14 -122,-44 -26,-169 -74,-271 -20,-43 -69,-70 -69,-125 0,-23 22,-55 31,-71 -10,-7 -28,-21 -34,-32 -3,-5 -19,-46 -19,-49 0,-29 24,-99 15,-122 -6,-14 -8,-21 -12,-36 -16,-1 -29,-7 -45,-11 -16,-5 -30,-8 -46,-13 -9,-3 -41,-10 -45,-13 -7,-6 -14,-31 -14,-44 0,-23 10,-47 17,-64 9,-20 16,-36 25,-57 16,-39 35,-74 50,-114 8,-21 15,-37 24,-58 17,-39 43,-160 43,-202 0,-14 -2,-33 -4,-47 -3,-17 -7,-27 -9,-42 -67,-482 188,-825 551,-1004l0 -597c-3,0 -5,0 -8,0 -55,0 -100,-45 -100,-100 0,-55 45,-100 100,-100 55,0 100,45 100,100 0,29 -13,56 -33,74l279 321 214 -562c-39,-13 -67,-50 -67,-94 0,-55 45,-100 100,-100 55,0 100,45 100,100 0,44 -28,81 -67,94l214 562 -1 0 277 -319c-22,-18 -36,-46 -36,-76 0,-55 45,-100 100,-100 55,0 100,45 100,100 0,55 -45,100 -100,100 -1,0 -2,0 -4,0l0 555c352,149 618,462 618,960z"/>
  <path class="fil2" d="M1663 1410l0 -597c-3,0 -5,0 -8,0 -55,0 -100,-45 -100,-100 0,-55 45,-100 100,-100 55,0 100,45 100,100 0,29 -13,56 -33,74l279 321 214 -562c-39,-13 -67,-50 -67,-94 0,-55 45,-100 100,-100 55,0 100,45 100,100 0,44 -28,81 -67,94l214 562 -1 0 277 -319c-22,-18 -36,-46 -36,-76 0,-55 45,-100 100,-100 55,0 100,45 100,100 0,55 -45,100 -100,100 -1,0 -2,0 -4,0l0 555c0,0 60,114 -335,114 -395,0 -679,0 -679,0 0,0 -88,8 -155,-72z"/>
 </g>
</svg>
