<?xml version="1.0" encoding="UTF-8"?>
<!DOCTYPE svg PUBLIC "-//W3C//DTD SVG 1.1//EN" "http://www.w3.org/Graphics/SVG/1.1/DTD/svg11.dtd">
<!-- Creator: CorelDRAW X6 -->
<svg xmlns="http://www.w3.org/2000/svg" xml:space="preserve" width="43.3492mm" height="43.3492mm" version="1.1" style="shape-rendering:geometricPrecision; text-rendering:geometricPrecision; image-rendering:optimizeQuality; fill-rule:evenodd; clip-rule:evenodd"
viewBox="0 0 4335 4335"
 xmlns:xlink="http://www.w3.org/1999/xlink">
 <defs>
  <style type="text/css">
   <![CDATA[
    .fil1 {fill:#33405C}
    .fil0 {fill:#33CC66}
    .fil2 {fill:white;fill-rule:nonzero}
   ]]>
  </style>
 </defs>
 <g id="Layer_x0020_1">
  <metadata id="CorelCorpID_0Corel-Layer"/>
  <g id="_481892920">
   <circle class="fil0" transform="matrix(0.428327 1.03485 -1.03485 0.428327 2161.27 2168.95)" r="1819"/>
   <path class="fil1" d="M3784 2109c0,860 -550,847 -593,1388l0 0 0 3c-5,60 -3,127 6,203 5,59 12,126 25,199 -308,206 -678,326 -1076,326 -13,0 -25,0 -38,0 0,-11 2,-14 3,-25 0,-9 0,-19 0,-28l3 -53c0,-260 -242,-443 -242,-444 -15,0 -30,0 -45,0l-91 5 -190 50c-36,12 -36,9 -76,3 -31,-4 -56,-6 -80,-15 -134,-49 -29,-186 -81,-299 -22,-47 -76,-77 -76,-138 0,-26 24,-60 34,-79 -11,-8 -30,-23 -38,-36 -3,-5 -22,-51 -22,-54 0,-32 26,-110 16,-134 -6,-15 -9,-23 -13,-40 -18,-1 -32,-7 -49,-12 -18,-5 -33,-9 -51,-14 -10,-3 -45,-11 -50,-15 -8,-6 -16,-34 -16,-49 0,-26 11,-52 19,-71 10,-22 18,-40 27,-63 18,-43 39,-82 55,-125 9,-24 17,-41 27,-63 19,-43 47,-176 47,-223 0,-16 -2,-36 -4,-52 -3,-19 -7,-30 -10,-47 -216,-1548 2579,-1792 2579,-96z"/>
   <path class="fil2" d="M1983 1999c0,-55 18,-110 53,-167 35,-56 86,-103 154,-140 68,-37 146,-55 236,-55 84,0 157,15 221,46 64,31 113,73 148,126 35,53 52,111 52,173 0,49 -10,92 -30,129 -20,37 -43,69 -71,95 -27,27 -76,72 -147,135 -20,18 -35,33 -47,47 -12,14 -21,26 -26,37 -6,11 -10,22 -14,34 -3,11 -8,31 -14,59 -11,60 -45,90 -103,90 -30,0 -55,-10 -76,-29 -21,-20 -31,-49 -31,-87 0,-48 7,-90 22,-126 15,-35 35,-66 60,-93 25,-27 58,-59 100,-96 37,-32 64,-57 80,-73 17,-17 30,-35 42,-55 11,-20 17,-42 17,-66 0,-46 -17,-85 -51,-117 -35,-32 -79,-48 -133,-48 -63,0 -110,16 -140,48 -30,32 -55,79 -76,141 -20,65 -57,97 -112,97 -32,0 -60,-11 -82,-34 -22,-23 -33,-47 -33,-74zm422 947c-35,0 -66,-12 -92,-34 -26,-23 -39,-55 -39,-96 0,-36 13,-67 38,-91 25,-25 56,-37 93,-37 36,0 67,12 92,37 25,25 37,55 37,91 0,40 -13,72 -39,95 -26,23 -56,35 -90,35z"/>
  </g>
 </g>
</svg>
