<?xml version="1.0" encoding="UTF-8"?>
<!DOCTYPE svg PUBLIC "-//W3C//DTD SVG 1.1//EN" "http://www.w3.org/Graphics/SVG/1.1/DTD/svg11.dtd">
<!-- Creator: CorelDRAW X6 -->
<svg xmlns="http://www.w3.org/2000/svg" xml:space="preserve" width="43.3492mm" height="43.3492mm" version="1.1" style="shape-rendering:geometricPrecision; text-rendering:geometricPrecision; image-rendering:optimizeQuality; fill-rule:evenodd; clip-rule:evenodd"
viewBox="0 0 4335 4335"
 xmlns:xlink="http://www.w3.org/1999/xlink">
 <defs>
  <style type="text/css">
   <![CDATA[
    .fil3 {fill:#00CCFF}
    .fil1 {fill:#33405C}
    .fil2 {fill:#E6E6E6}
    .fil0 {fill:url(#id0)}
   ]]>
  </style>
  <linearGradient id="id0" gradientUnits="userSpaceOnUse" x1="2108.9" y1="170.43" x2="2331.1" y2="4169.81">
   <stop offset="0" style="stop-color:#6C9ED0"/>
   <stop offset="0.0117647" style="stop-color:#54CEE7"/>
   <stop offset="1" style="stop-color:#3BFFFF"/>
  </linearGradient>
 </defs>
 <g id="Layer_x0020_1">
  <metadata id="CorelCorpID_0Corel-Layer"/>
  <circle class="fil0" cx="2220" cy="2170" r="1979"/>
  <path class="fil1" d="M3629 2156c0,835 -534,823 -576,1348l0 0 0 3c-5,58 -3,124 6,197 6,70 16,155 34,244 -263,129 -559,202 -872,202 -73,0 -145,-4 -215,-12l2 -29c0,-252 -235,-430 -235,-432 -15,0 -29,0 -44,0l-88 5 -184 48c-35,11 -35,9 -74,3 -30,-4 -54,-6 -78,-15 -131,-47 -28,-181 -79,-290 -21,-46 -74,-75 -74,-134 0,-25 23,-59 33,-76 -11,-7 -30,-23 -37,-35 -3,-5 -21,-49 -21,-53 0,-31 25,-107 16,-130 -6,-15 -9,-22 -13,-39 -17,-1 -31,-7 -48,-12 -17,-5 -32,-8 -49,-13 -9,-3 -44,-11 -48,-14 -8,-6 -15,-33 -15,-47 0,-25 10,-50 18,-69 9,-21 17,-39 27,-61 17,-42 38,-80 53,-122 8,-23 16,-40 26,-62 18,-42 46,-171 46,-217 0,-15 -2,-35 -4,-50 -3,-18 -7,-29 -9,-45 -210,-1503 2505,-1741 2505,-93z"/>
  <path class="fil2" d="M2501 2239c-1,-24 -76,-80 -97,-95 5,-59 -3,-118 -23,-173 -19,-57 -50,-110 -92,-154 6,-24 27,-114 13,-135 -1,-5 -2,-9 -5,-12l-1 0c-42,-46 -91,-69 -153,-71 -23,-1 -81,75 -96,97 -123,-16 -247,27 -336,113 -17,-4 -121,-30 -140,-13l0 1c-46,42 -69,91 -71,153 0,3 1,7 4,11 1,22 62,69 89,90 -8,63 0,127 22,186 20,59 52,113 97,158 -7,27 -26,113 -13,133 1,5 2,9 5,12 42,46 91,69 153,71l0 0c24,1 84,-79 97,-98 125,14 250,-31 338,-122 12,3 122,31 141,13 46,-42 69,-91 71,-153l0 0c0,-3 -1,-7 -3,-11zm592 633c-1,-19 -60,-63 -76,-74 4,-46 -2,-92 -18,-135 -15,-45 -39,-86 -72,-120 5,-19 21,-89 10,-106 -1,-4 -2,-7 -4,-9l0 0c-33,-36 -71,-54 -120,-56 -18,-1 -63,59 -75,76 -96,-12 -194,21 -263,89 -13,-3 -95,-23 -109,-10l0 0c-36,33 -54,71 -56,120 0,3 1,6 3,9 1,17 48,54 70,70 -6,50 0,99 17,145 15,46 41,88 76,123 -5,21 -20,88 -10,104 1,4 2,7 4,9 33,36 71,54 120,56l0 0c19,1 65,-62 76,-77 98,11 196,-24 264,-95 9,2 96,24 110,10 36,-33 54,-71 56,-120l0 0c0,-2 -1,-5 -3,-9zm-159 -27l0 0c4,3 8,7 10,12 0,1 0,2 1,3l0 1 0 0 0 1 0 0 0 1 0 0c0,5 -1,10 -3,15 -4,8 -10,14 -18,17l-1 0 0 0 -1 0 0 0 -1 0c-8,2 -16,2 -24,-2 -7,-3 -12,-9 -15,-15 -1,-7 -1,-14 3,-21 4,-8 10,-14 18,-17l1 0 0 0 1 0 0 0 1 0c8,-2 16,-2 24,2 2,1 4,2 5,3zm-174 -196l-3 -1c-67,-31 -147,-2 -179,65 -15,32 -16,66 -6,97 12,32 36,59 69,74 32,15 66,16 97,6l3 -1 0 0 3 -1 0 0 3 -1c31,-12 58,-36 73,-68 15,-32 16,-66 6,-97 -11,-29 -32,-54 -60,-70l-1 -1 -2 -1 -1 -1 -1 -1 0 0zm33 164c12,-27 12,-56 2,-81 -8,-27 -27,-51 -55,-63 -51,-24 -112,-2 -136,50 -12,27 -12,56 -2,81 8,27 27,51 55,63 51,24 112,2 136,-50zm-163 155c-3,-6 -9,-12 -16,-15 -17,-8 -36,-1 -44,16 -3,7 -4,14 -3,21 3,6 8,12 15,15 17,8 36,1 44,-16l0 0c3,-7 4,-14 3,-21zm206 -432c-3,-6 -8,-12 -15,-15 -17,-8 -36,-1 -44,16 -3,7 -4,14 -3,21 3,6 8,12 15,15 17,8 36,1 44,-16 3,-7 4,-14 3,-21zm-318 119c-3,-6 -8,-12 -15,-15 -17,-8 -36,-1 -44,16 -3,7 -4,14 -3,21 3,6 8,12 15,15 17,8 36,1 44,-16 3,-7 4,-14 2,-21zm-222 -450l0 0c6,4 10,10 13,16 0,1 1,3 1,4l0 1 0 0 0 1 0 0 0 1 0 0c0,7 -1,13 -4,19 -5,10 -13,18 -23,21l-1 0 0 0 -1 0 0 0 -1 0c-10,3 -21,2 -31,-2 -9,-4 -16,-11 -20,-19 -2,-9 -1,-18 3,-27 5,-10 13,-18 23,-21l1 0 0 0 1 0 0 0 1 0c10,-3 21,-2 31,2 2,1 5,3 7,4zm-222 -250l-4 -2c-86,-40 -188,-3 -228,83 -19,40 -20,84 -8,124 15,40 46,75 88,95 40,19 84,20 124,8l4 -1 0 0 4 -1 0 0 4 -1c40,-16 74,-46 93,-87 19,-40 20,-84 8,-124 -14,-37 -40,-69 -77,-89l-2 -1 -2 -1 -2 -1 -2 -1 0 0zm43 210c16,-34 16,-71 3,-103 -10,-35 -35,-65 -70,-81 -66,-30 -144,-2 -174,64 -16,34 -16,71 -3,103 10,35 35,65 70,81 66,30 144,2 174,-64zm-208 198c-4,-8 -11,-15 -20,-19 -21,-10 -47,-1 -57,20 -4,9 -5,18 -3,27 4,8 11,15 20,19 21,10 47,1 57,-20l0 0c4,-9 5,-18 3,-27zm263 -552c-4,-8 -11,-15 -20,-19 -21,-10 -46,-1 -57,20 -4,9 -5,18 -3,27 4,8 11,15 20,19 21,10 47,1 57,-20 4,-9 5,-18 3,-27zm-406 151c-4,-8 -11,-15 -20,-20 -21,-10 -47,-1 -57,20 -4,9 -5,18 -3,27 4,8 11,15 20,20 21,10 47,1 57,-20 4,-9 5,-18 3,-27z"/>
  <path class="fil3" d="M2119 2164c16,-34 16,-71 3,-103 -10,-35 -35,-65 -70,-81 -66,-30 -144,-2 -174,64 -16,34 -16,71 -3,103 10,35 35,65 70,81 66,30 144,2 174,-64z"/>
  <path class="fil3" d="M2742 2669c-51,-24 -112,-2 -136,50 -12,27 -12,56 -2,81 8,27 27,51 55,63 51,24 112,2 136,-50 12,-27 12,-56 2,-81 -8,-27 -27,-51 -55,-63z"/>
 </g>
</svg>
