<?xml version="1.0" encoding="UTF-8"?>
<!DOCTYPE svg PUBLIC "-//W3C//DTD SVG 1.1//EN" "http://www.w3.org/Graphics/SVG/1.1/DTD/svg11.dtd">
<!-- Creator: CorelDRAW X7 -->
<svg xmlns="http://www.w3.org/2000/svg" xml:space="preserve" width="43.3492mm" height="43.3492mm" version="1.1" style="shape-rendering:geometricPrecision; text-rendering:geometricPrecision; image-rendering:optimizeQuality; fill-rule:evenodd; clip-rule:evenodd"
viewBox="0 0 4335 4335"
 xmlns:xlink="http://www.w3.org/1999/xlink">
 <defs>
  <style type="text/css">
   <![CDATA[
    .fil0 {fill:#434242}
    .fil15 {fill:black}
    .fil4 {fill:#020101}
    .fil18 {fill:#1A1A1A}
    .fil11 {fill:#1F2021}
    .fil20 {fill:#292929}
    .fil19 {fill:#2B2929}
    .fil22 {fill:#2B2B2B}
    .fil16 {fill:#333333}
    .fil26 {fill:#336699}
    .fil9 {fill:#361816}
    .fil31 {fill:#424242}
    .fil17 {fill:#4D4D4D}
    .fil28 {fill:#666666}
    .fil10 {fill:#7B4333}
    .fil27 {fill:#9C7759}
    .fil13 {fill:#A3414E}
    .fil14 {fill:#B54B59}
    .fil1 {fill:#C49D7D}
    .fil7 {fill:#CCA787}
    .fil12 {fill:#D15A6A}
    .fil3 {fill:#D6AD8B}
    .fil2 {fill:#DBB290}
    .fil5 {fill:#EECBBB}
    .fil8 {fill:#F1CDBE}
    .fil6 {fill:#FBEBD0}
    .fil25 {fill:white}
    .fil24 {fill:url(#id0)}
    .fil29 {fill:url(#id1)}
    .fil21 {fill:url(#id2)}
    .fil33 {fill:url(#id3)}
    .fil23 {fill:url(#id4)}
    .fil30 {fill:url(#id5)}
    .fil32 {fill:url(#id6)}
   ]]>
  </style>
  <linearGradient id="id0" gradientUnits="userSpaceOnUse" x1="1156.02" y1="3033.71" x2="1457" y2="1455.42">
   <stop offset="0" style="stop-opacity:1; stop-color:#666666"/>
   <stop offset="1" style="stop-opacity:1; stop-color:#333333"/>
  </linearGradient>
  <linearGradient id="id1" gradientUnits="userSpaceOnUse" xlink:href="#id0" x1="2459.77" y1="2193.31" x2="2548.85" y2="999.82">
  </linearGradient>
  <linearGradient id="id2" gradientUnits="userSpaceOnUse" x1="2136.54" y1="2266.31" x2="2196.22" y2="1457.31">
   <stop offset="0" style="stop-opacity:1; stop-color:#4D4D4D"/>
   <stop offset="1" style="stop-opacity:1; stop-color:#333333"/>
  </linearGradient>
  <linearGradient id="id3" gradientUnits="userSpaceOnUse" x1="2481.46" y1="2779.53" x2="2168.42" y2="2779.53">
   <stop offset="0" style="stop-opacity:1; stop-color:#1A1A1A"/>
   <stop offset="1" style="stop-opacity:1; stop-color:#4D4D4D"/>
  </linearGradient>
  <linearGradient id="id4" gradientUnits="userSpaceOnUse" xlink:href="#id0" x1="2885.49" y1="3033.71" x2="3186.48" y2="1455.42">
  </linearGradient>
  <linearGradient id="id5" gradientUnits="userSpaceOnUse" xlink:href="#id0" x1="1814.96" y1="2145.81" x2="1900.37" y2="1008.2">
  </linearGradient>
  <linearGradient id="id6" gradientUnits="userSpaceOnUse" xlink:href="#id3" x1="2163.76" y1="2779.53" x2="1850.7" y2="2779.53">
  </linearGradient>
 </defs>
 <g id="Слой_x0020_1">
  <metadata id="CorelCorpID_0Corel-Layer"/>
  <path class="fil0" d="M2167 30c1181,0 2138,957 2138,2137 0,1181 -957,2138 -2138,2138 -1180,0 -2137,-957 -2137,-2138 0,-1180 957,-2137 2137,-2137z"/>
  <g id="_913762736">
   <g id="_738005184">
    <path class="fil1" d="M2181 1629c490,0 887,547 887,1222 0,675 -397,1223 -887,1223 -491,0 -888,-547 -888,-1223 0,-674 397,-1222 888,-1222z"/>
    <g>
     <path class="fil2" d="M1683 3194l24 1c-71,25 -85,28 -130,72 -59,56 -49,109 -72,132l4 -25c-25,36 -11,195 14,230 30,24 46,68 105,52 35,-9 67,-51 79,-82 24,-58 -19,-140 138,-138l29 4c1,0 3,1 4,2 1,0 3,1 3,2 10,-4 54,-38 90,-56 83,-41 89,-11 107,-39 5,-8 3,-75 18,-104 1,35 -8,73 9,105 9,18 44,41 77,37 98,-10 66,-111 75,-142 7,28 11,98 16,108 17,11 79,19 109,35 32,17 59,36 88,54 20,-19 107,-1 130,11 60,33 -1,147 113,198 50,22 88,-11 104,-46 -3,8 -1,1 10,5 18,-65 33,-115 25,-184l-6 -28 -4 16c-14,-122 -92,-195 -202,-221l26 -1c-6,-4 0,-2 -13,-5l-42 -5c-203,-10 -280,21 -433,22 -126,0 -313,-39 -461,-21 -17,2 -20,2 -32,9l-2 2z"/>
     <path class="fil3" d="M1523 3605c9,41 29,78 46,114 17,32 44,72 54,100l12 18c6,6 11,15 16,23 3,5 7,9 11,12 13,12 2,4 14,11 -11,-32 -18,-53 -11,-88 9,-39 30,-43 35,-63l11 -8c141,-79 146,29 183,40 38,11 45,-21 65,-33 14,-12 25,-21 43,-32 29,-19 35,-7 56,-23 -16,-8 -6,-5 15,-12 63,-24 111,-27 176,-9 54,14 55,16 40,21l30 12c40,9 46,31 68,38l12 15c52,66 91,-15 98,-22 39,-41 91,-21 131,3l11 8c13,10 34,31 42,57 12,36 0,60 -5,93 22,-13 30,-35 46,-59 13,-20 25,-42 37,-64 26,-50 45,-89 66,-144 -11,-3 -13,4 -10,-4 -15,35 -54,68 -104,45 -114,-51 -52,-165 -113,-197 -22,-12 -111,-30 -130,-11 7,11 11,9 21,18 3,3 9,9 10,11 7,11 4,1 7,16 13,16 3,2 18,13 16,12 8,3 13,14 19,9 46,37 52,60 19,83 -183,69 -238,30 -2,-20 -2,-31 8,-46l20 -25 -50 -11 -20 -2c-9,9 8,3 -17,9l-118 7c-22,0 -43,-5 -64,-6 -21,-1 -59,7 -72,-11 -14,-1 -50,5 -77,4 5,10 2,3 7,12l17 21c12,18 12,17 11,40 -20,55 -369,69 -187,-86 7,-7 21,-19 30,-27 -2,-5 -3,0 4,-9 1,-2 10,-9 11,-10 13,-11 12,-7 26,-22 -1,-1 -3,-1 -4,-2 -1,0 -3,-1 -4,-2l-29 -4c-157,-2 -114,80 -138,138 -12,31 -43,72 -79,82 -59,16 -74,-28 -105,-52l2 -1z"/>
     <path class="fil4" d="M1508 3375c-5,-42 32,-109 50,-130 18,-19 80,-57 124,-50 11,-8 14,-7 33,-9 147,-18 334,21 460,21 154,0 229,-33 433,-22l42 4c12,4 7,2 13,6 56,-9 110,34 133,62 24,27 55,95 47,144l6 28c8,70 -7,120 -25,183 -20,55 -40,94 -66,144 -12,22 -24,45 -37,64 -16,24 -24,46 -46,59 -9,26 -146,132 -204,143 -17,12 -43,16 -63,21 -104,21 -469,29 -534,-21 -56,-11 -186,-112 -199,-139 -12,-6 -1,2 -14,-10 -4,-4 -7,-7 -11,-12 -5,-8 -10,-17 -15,-23l-14 4c-11,-19 -17,-15 -27,-41 14,2 13,-11 13,3 9,13 2,9 15,16 -11,-28 -38,-68 -54,-101 -17,-35 -37,-72 -46,-113 -25,-36 -40,-194 -14,-230l0 -1zm720 -188c-39,8 -92,7 -132,-4 -86,-9 -178,-26 -257,-52l4 -26c-6,-13 0,-8 -9,2l-23 53 -59 -1c-62,0 -128,-6 -179,20 -55,29 -55,48 -87,102 -33,81 -37,214 -11,299 13,42 35,84 54,117 18,31 59,81 65,103 -14,-5 -20,-20 -29,-31l-86 -96c-19,-21 -99,-123 -112,-132l0 43c11,8 3,1 12,12l178 207c122,126 217,243 415,270 104,15 241,16 347,7 121,-10 195,-34 272,-92 36,-26 70,-51 99,-83 36,-40 36,-31 90,-93l84 -97c30,-36 56,-62 84,-98 8,-9 12,-14 20,-23l112 -226 50 -67 -32 84c-9,20 -198,249 -223,276l-70 80c-22,20 -45,57 -70,73 21,-36 48,-67 73,-108 21,-34 43,-77 57,-119 46,-132 9,-211 -5,-312 -16,-19 -23,-42 -39,-59 -13,-13 -33,-32 -54,-42 -53,-23 -115,-18 -177,-17l-55 1 -36 -67 6 39c-90,23 -184,46 -278,54l1 3z"/>
     <path class="fil3" d="M1711 3744c-34,59 -3,129 33,158 21,17 36,33 58,49 17,13 53,33 66,48 8,-10 -5,-3 13,-14 -14,-40 -94,-71 -111,-140 22,19 28,34 78,73 76,59 15,61 135,89 34,9 19,21 49,26 34,7 104,-9 145,-9 37,0 114,16 143,9 28,-8 12,-20 50,-27 99,-18 59,-33 133,-90 19,-14 67,-52 73,-77 -67,41 -166,60 -235,9 -37,-27 -38,-40 -99,-50 -46,-8 -96,-8 -140,1 -106,21 -77,91 -222,77 -82,-7 -157,-57 -161,-141 5,12 3,2 -6,9l-2 0z"/>
     <path class="fil2" d="M1958 3730c-20,12 -27,44 -64,33 -38,-11 -43,-119 -184,-40l-11 9c18,-4 13,-7 11,12 9,-7 12,3 7,-9 2,83 78,133 160,141 145,14 116,-57 222,-77 44,-9 95,-10 140,-1 62,10 63,23 99,50 70,52 169,33 235,-9l7 -10c61,-64 28,-73 53,-90l3 -10 -11 -8c-40,-24 -92,-43 -130,-3 -8,7 -47,88 -98,22l-12 -15c-5,11 2,7 -19,-2 -217,-88 -404,7 -410,7l2 0z"/>
     <path class="fil1" d="M1868 3999c10,2 64,18 68,27l-62 -4c65,50 430,42 534,21 20,-5 47,-9 63,-21l-43 -7c5,-2 12,-4 17,-6 13,-4 22,-9 33,-14 -12,-12 -5,-1 -11,-16 15,-28 45,-38 68,-63 10,-12 50,-57 40,-78 -6,24 -54,62 -73,77 -74,57 -35,72 -133,90 -38,8 -22,20 -50,27 -29,7 -106,-9 -143,-9 -41,0 -111,16 -145,10 -30,-6 -14,-18 -49,-27 -120,-28 -58,-30 -135,-89 -50,-38 -55,-54 -78,-73 17,69 97,100 111,140 -18,11 -4,4 -13,14l1 1z"/>
     <path class="fil2" d="M2331 3524l50 11 -20 25c-10,15 -11,26 -8,46 54,39 256,53 237,-30 -5,-23 -32,-52 -51,-60 -40,23 -48,17 -96,12 -34,-3 -82,6 -111,-3l-1 -1z"/>
     <path class="fil2" d="M1962 3526c-34,0 -54,2 -86,6 -17,2 -25,3 -41,-3 -15,-4 -16,-8 -23,-15l-2 0c-182,155 166,141 187,86 1,-23 1,-22 -11,-40l-17 -21c-6,-9 -2,-1 -7,-12l0 -1z"/>
     <path class="fil5" d="M1881 3444c-14,16 -14,11 -27,22 -1,2 -9,9 -10,10 -7,10 -6,5 -4,10 16,-8 46,-34 66,-46 22,-15 52,-28 79,-38 140,-53 119,-4 186,-1 65,2 98,-65 269,37 15,9 58,39 68,50 -3,-15 0,-5 -7,-15 -1,-2 -7,-9 -10,-12 -10,-9 -14,-7 -21,-18 -29,-18 -56,-37 -88,-54 -30,-16 -93,-25 -109,-35 -5,-10 -8,-80 -16,-108 -8,30 23,132 -75,142 -33,3 -68,-19 -77,-38 -16,-31 -8,-69 -9,-104 -14,29 -13,96 -18,104 -18,27 -24,-3 -107,39 -36,18 -80,51 -90,56l0 -1z"/>
     <path class="fil6" d="M1676 3883c13,27 143,127 199,138l62 4c-4,-9 -58,-25 -68,-27 -14,-14 -49,-34 -66,-47 -22,-17 -37,-32 -58,-50 -35,-29 -66,-99 -33,-158 1,-19 5,-15 -11,-12 -5,19 -26,23 -35,62 -7,36 0,57 10,88l0 2z"/>
     <path class="fil6" d="M2479 3995c-11,4 -21,10 -33,14 -6,2 -12,4 -17,6l43 7c57,-11 195,-117 204,-143 5,-34 17,-58 5,-93 -9,-26 -29,-47 -42,-57l-3 10c13,23 16,67 10,96 -10,56 -118,137 -166,161l-1 -1z"/>
     <path class="fil7" d="M2575 3839c10,20 -30,66 -40,78 -22,24 -53,34 -68,63 7,15 -1,5 11,16 49,-24 156,-105 167,-161 5,-29 1,-73 -11,-96 -25,17 9,27 -53,90l-7 10 1 0z"/>
     <path class="fil6" d="M2058 3675c-21,15 -27,4 -57,23 -18,10 -29,20 -43,32 5,0 193,-95 410,-7 21,9 14,13 18,2 -22,-7 -28,-28 -68,-38l-30 -12c-121,-31 -118,-21 -230,0l0 0z"/>
     <path class="fil8" d="M2843 3400c8,-48 -24,-116 -47,-144 -23,-28 -77,-70 -133,-62l-26 1c110,26 188,98 202,221l4 -16z"/>
     <path class="fil9" d="M1799 3511c84,6 99,32 169,51 90,24 109,16 198,7 70,-7 116,23 200,1 61,-15 110,-44 167,-56 -6,7 2,4 -14,13 -42,24 -101,44 -149,54 -89,17 -127,-12 -208,-8 -124,9 -129,37 -281,-32l-82 -32 0 2z"/>
     <path class="fil8" d="M1508 3375l-4 25c24,-23 13,-77 72,-132 46,-45 60,-47 130,-72l-24 -1c-44,-7 -106,31 -124,50 -18,21 -56,88 -50,130z"/>
     <path class="fil10" d="M2058 3675c113,-21 110,-31 230,0 16,-5 14,-6 -39,-21 -66,-17 -114,-14 -177,9 -21,7 -31,4 -14,12z"/>
     <path class="fil11" d="M1635 3837l-12 -18c-12,-7 -6,-3 -15,-16 0,-14 1,-1 -13,-2 10,25 16,21 27,41l13 -5z"/>
     <path class="fil12" d="M2507 3512c0,0 -98,72 -169,65 -71,-8 -155,-10 -155,-10 0,0 -113,13 -134,12 -20,-1 -88,-10 -121,-31 -32,-21 -92,-39 -92,-39 0,0 55,-35 154,-35 100,0 204,20 204,20 0,0 26,-20 120,-15 94,5 193,31 193,31l0 2z"/>
     <path class="fil13" d="M2541 3516c0,0 -167,-38 -230,-35 -64,3 -111,17 -111,17 0,0 -199,-22 -219,-22 -20,0 -178,35 -178,35 0,0 168,-67 258,-56 92,10 257,-6 257,-6 0,0 160,12 224,66l-1 1z"/>
     <path class="fil14" d="M2495 3500c0,0 -157,-48 -192,-45 -36,3 -131,26 -131,26l-135 -22 -196 44c0,0 177,-133 236,-120 59,14 57,34 76,20 18,-14 86,-7 107,-25 20,-17 135,21 235,122z"/>
     <path class="fil14" d="M1828 3506c0,0 162,-50 200,-47 37,2 136,27 136,27l140 -24 203 47c0,0 -184,-139 -245,-125 -62,14 -59,35 -79,21 -19,-15 -89,-7 -111,-26 -20,-18 -139,22 -244,127z"/>
     <g>
      <g>
       <path class="fil15" d="M2718 1120c0,0 32,-162 6,-393 -26,-230 -37,-378 -37,-378 0,0 -2,-64 12,-100l60 0c16,18 36,46 59,90 141,262 314,1309 314,1309 0,0 20,420 42,518 20,100 42,152 36,340 -6,189 -36,236 -36,236 0,0 0,445 -42,560 -42,116 -142,267 -194,325 -52,58 -256,262 -256,262 0,0 99,-157 136,-293 36,-136 10,-288 -10,-330 -21,-42 -126,-79 -178,-79 -53,0 -220,0 -220,0l-158 21 -78 6 0 -3 -13 0 0 3 -78 -6 -158 -21c0,0 -167,0 -220,0 -52,0 -157,37 -178,79 -20,42 -47,194 -10,330 36,136 136,293 136,293 0,0 -204,-204 -256,-262 -52,-58 -152,-209 -194,-325 -42,-115 -42,-560 -42,-560 0,0 -31,-47 -36,-236 -6,-188 16,-241 36,-340 21,-99 42,-518 42,-518 0,0 173,-1047 314,-1309 23,-44 43,-72 59,-90l60 0c14,36 12,100 12,100 0,0 -11,147 -37,378 -26,230 6,393 6,393 188,-131 550,-136 550,-136l0 3 2 -3c0,0 362,6 550,136l-1 0zm-389 1389l43 9c0,0 74,74 174,100 99,26 178,26 209,-10 32,-36 37,-48 37,-48l-94 -83c0,0 -100,-37 -152,-27 -52,11 -174,68 -174,68 0,0 -18,-3 -43,-11l0 2zm-306 -8c-34,13 -62,17 -62,17 0,0 -121,-57 -173,-68 -52,-10 -152,27 -152,27l-94 83c0,0 6,11 37,48 31,36 110,36 209,10 100,-26 173,-100 173,-100l62 -13 0 -4z"/>
       <path class="fil16" d="M2782 1168c0,0 62,781 62,874 0,93 -82,119 -164,160 -82,41 -406,195 -406,195 0,0 -67,-5 -119,0 -51,6 -20,16 -175,-51 -154,-67 -390,-190 -390,-190 0,0 -154,-57 -123,-221 31,-164 149,-770 149,-770 0,0 503,-350 1166,5l0 -2z"/>
      </g>
      <path class="fil16" d="M1567 258c0,0 -22,594 -64,876 -42,283 -267,592 -267,592 0,0 36,-786 331,-1468z"/>
      <path class="fil16" d="M2774 258c0,0 21,594 63,876 42,283 268,592 268,592 0,0 -37,-786 -331,-1468z"/>
      <path class="fil16" d="M1177 2189c0,0 -80,374 0,563 80,189 331,312 351,368 21,56 37,6 220,6 185,0 195,-6 195,-6l26 -281c0,0 -456,-31 -527,-113 -72,-82 -87,-209 -87,-209 0,0 46,-287 66,-441 21,-154 107,-794 107,-794 0,0 -58,128 -167,302 -109,174 -109,174 -109,174 0,0 -16,343 -75,432l0 -1z"/>
      <path class="fil16" d="M3161 2189c0,0 80,374 0,563 -80,189 -331,312 -352,368 -20,56 -35,6 -219,6 -185,0 -195,-6 -195,-6l-25 -281c0,0 455,-31 527,-113 72,-82 87,-209 87,-209 0,0 -46,-287 -67,-441 -20,-154 -107,-794 -107,-794 0,0 59,128 168,302 109,174 109,174 109,174 0,0 15,343 75,432l-1 -1z"/>
      <path class="fil15" d="M2274 2396c0,0 83,136 130,314 48,178 78,314 78,314 0,0 -1,8 -5,21l5 17c0,0 -17,39 -71,77 -46,39 -120,73 -238,73 -6,0 -12,0 -18,0 -5,0 -12,0 -17,0 -119,0 -192,-34 -238,-73 -54,-38 -72,-77 -72,-77l6 -17c-5,-12 -6,-21 -6,-21 0,0 32,-136 79,-314 47,-178 130,-314 130,-314 34,-40 78,-46 118,-42 40,-5 85,2 119,42z"/>
      <path class="fil16" d="M2270 2418c0,0 81,128 127,294 45,167 76,295 76,295 0,0 -1,7 -6,18l6 15c0,0 -17,37 -69,73 -44,36 -115,68 -230,68 -6,0 -12,0 -18,0 -5,0 -11,0 -17,0 -115,0 -187,-32 -231,-68 -52,-36 -68,-73 -68,-73l5 -15c-5,-12 -5,-18 -5,-18 0,0 30,-128 76,-295 46,-166 127,-294 127,-294 31,-37 76,-44 114,-40 38,-5 82,2 115,40l-2 0z"/>
      <path class="fil17" d="M2214 2421l35 754 -191 0 63 -748c0,0 37,-109 94,-5l-1 -1z"/>
      <path class="fil18" d="M2363 2532c0,0 -11,89 222,109 233,21 275,-52 316,-109 42,-56 74,-12 74,-12 0,0 -26,217 -130,248 -105,32 -411,77 -411,77 0,0 -65,-229 -72,-313l1 0z"/>
      <path class="fil18" d="M1941 2532c0,0 10,83 -207,102 -217,19 -255,-48 -294,-102 -38,-53 -69,-11 -69,-11 0,0 24,202 121,230 97,30 382,72 382,72 0,0 61,-212 67,-291l0 0z"/>
      <path class="fil19" d="M2056 2378c0,0 -54,192 -181,102 -128,-89 -144,-112 -282,-134 -139,-21 -230,88 -230,88l100 -298c0,0 64,-19 593,241l0 1z"/>
      <path class="fil20" d="M2285 2378c0,0 53,191 180,102 126,-88 142,-112 280,-133 138,-21 228,87 228,87l-89 -298c0,0 -74,-17 -599,242l0 0z"/>
      <path class="fil21" d="M2631 1469c0,0 62,413 -11,540 -73,127 -204,204 -330,236 -51,13 -195,13 -246,0 -126,-32 -257,-109 -330,-236 -74,-127 -11,-540 -11,-540 121,-5 -23,235 142,404 164,168 42,162 146,230 123,80 230,80 352,0 104,-68 -20,-99 146,-230 166,-132 20,-408 142,-404l0 0z"/>
      <path class="fil16" d="M1204 2832c50,29 178,244 208,358 30,115 53,379 114,495 63,116 63,116 63,116 0,0 -477,-356 -385,-970l0 1z"/>
      <path class="fil16" d="M3144 2835c-50,30 -178,244 -208,359 -30,115 -53,379 -114,495 -63,115 -63,115 -63,115 0,0 477,-356 385,-970l0 1z"/>
      <path class="fil22" d="M1271 2908c0,0 136,236 157,358 20,121 36,209 36,209 0,0 2,-317 84,-329 83,-13 -117,-115 -278,-238l1 0z"/>
      <path class="fil22" d="M3083 2908c0,0 -136,236 -156,358 -21,121 -37,209 -37,209 0,0 -1,-317 -83,-329 -83,-13 116,-115 277,-238l-1 0z"/>
     </g>
    </g>
    <path class="fil1" d="M2247 4031c-24,-3 -48,-58 -72,-58 -23,0 -34,54 -73,58 -39,3 88,28 145,0z"/>
    <path class="fil1" d="M1584 3755c0,0 -80,-178 -91,-327 -11,-149 20,-254 51,-252 31,2 145,-16 234,-16 89,0 189,5 189,5l125 46c0,0 -42,14 -105,14 -64,0 -318,-27 -384,81 -66,108 -66,219 -19,451l0 -2zm1174 0c0,0 80,-178 91,-327 12,-149 -20,-254 -51,-252 -31,2 -144,-16 -234,-16 -89,0 -189,5 -189,5l-125 46c0,0 42,14 106,14 63,0 317,-27 384,81 66,108 66,219 18,451l0 -2z"/>
   </g>
   <path class="fil23" d="M3114 1781c2,26 5,369 44,527 39,157 63,418 -39,512 -103,95 -237,214 -237,214 0,0 19,-26 44,-72 46,-41 102,-91 151,-137 102,-95 79,-355 39,-512 -39,-158 -43,-502 -44,-528l-114 -188c-23,-79 -41,-140 -41,-140l197 324 0 0z"/>
   <path class="fil24" d="M1229 1781c-2,26 -4,369 -44,527 -39,157 -63,418 40,512 102,95 236,214 236,214 0,0 -18,-26 -44,-72 -45,-41 -102,-91 -150,-137 -103,-95 -80,-355 -40,-512 40,-158 43,-502 44,-528l115 -188c22,-79 41,-140 41,-140l-198 324 0 0z"/>
   <path class="fil17" d="M2172 2396c0,135 -80,864 81,789 45,-22 181,-63 239,-60 58,2 294,7 294,7 0,0 43,2 61,55 17,52 35,204 35,204 0,0 12,-175 -4,-222 -15,-48 23,-44 -59,-74 -82,-29 -281,7 -311,-21 -30,-28 -27,-37 -36,-67 -7,-31 -15,3 0,0 15,-4 -44,35 -178,75 -134,39 0,0 0,0 0,0 -49,-8 -55,-123 -5,-114 -40,-523 -40,-523 0,0 -3,-41 -27,-40l0 0zm-12 0c0,135 80,864 -81,789 -45,-22 -181,-63 -239,-60 -58,2 -294,7 -294,7 0,0 -43,2 -61,55 -17,52 -35,204 -35,204 0,0 -12,-175 4,-222 16,-48 -23,-44 59,-74 82,-29 281,7 312,-21 29,-28 27,-37 35,-67 7,-31 15,3 0,0 -15,-4 44,35 178,75 134,39 0,0 0,0 0,0 49,-8 55,-123 6,-114 40,-523 40,-523 0,0 3,-41 27,-40l0 0z"/>
   <path class="fil25" d="M1918 2554c0,0 -34,-33 -152,-40 -118,-8 -224,46 -224,46 0,0 25,47 53,61 29,15 135,26 210,-8 76,-35 113,-59 113,-59z"/>
   <path class="fil25" d="M2407 2554c0,0 33,-33 152,-40 118,-8 223,46 223,46 0,0 -25,47 -53,61 -29,15 -134,26 -209,-8 -76,-35 -113,-59 -113,-59z"/>
   <g id="_738003336">
    <path class="fil26" d="M1729 2513c38,2 69,33 69,72 0,13 -4,25 -10,35 -36,13 -77,17 -112,16 -14,-13 -22,-31 -22,-50 0,-37 26,-66 61,-71 4,0 9,-1 14,-1l0 -1z"/>
    <path class="fil18" d="M1725 2552c18,0 33,14 33,33 0,17 -14,32 -33,32 -18,0 -33,-14 -33,-32 0,-18 14,-33 33,-33z"/>
   </g>
   <g id="_738004152">
    <path class="fil26" d="M2592 2513c-38,2 -69,33 -69,72 0,13 4,25 10,35 36,13 77,17 112,16 13,-13 22,-31 22,-50 0,-37 -26,-66 -61,-71 -4,0 -9,-1 -14,-1l0 -1z"/>
    <path class="fil18" d="M2595 2552c-18,0 -32,14 -32,33 0,17 13,32 32,32 18,0 33,-14 33,-32 0,-18 -14,-33 -33,-33z"/>
   </g>
   <path class="fil27" d="M2783 2560c0,0 -76,-31 -153,-39 -78,-7 -161,6 -161,6l-61 27 -14 -17c0,0 50,-47 156,-47 107,0 154,7 233,69l0 1z"/>
   <path class="fil27" d="M1540 2560c0,0 76,-31 153,-39 78,-7 161,6 161,6l61 27 14 -17c0,0 -50,-47 -157,-47 -106,0 -153,7 -232,69l0 1z"/>
   <path class="fil28" d="M2776 307c0,0 159,372 238,749 80,376 91,671 91,671 0,0 -115,-453 -140,-594 -25,-141 -189,-826 -189,-826l0 0z"/>
   <path class="fil28" d="M1568 307c0,0 -159,372 -238,749 -79,376 -91,671 -91,671 0,0 115,-453 140,-594 25,-141 189,-826 189,-826l0 0z"/>
   <path class="fil29" d="M2782 1168c0,0 -194,-125 -406,-142 -211,-17 -211,-17 -211,-17 0,0 421,107 492,265 70,157 86,173 110,331 24,158 65,358 40,442 -25,84 -92,136 -92,136 0,0 132,-60 129,-142 -4,-81 -62,-873 -62,-873l0 0z"/>
   <path class="fil30" d="M1620 1168c0,0 194,-125 406,-142 211,-17 211,-17 211,-17 0,0 -421,107 -492,265 -70,157 -113,79 -137,236 -24,158 -116,413 -92,497 24,84 92,136 92,136 0,0 -132,-61 -129,-142 4,-81 141,-833 141,-833l0 0z"/>
   <path class="fil31" d="M2945 2342c0,0 -107,-65 -233,-57 -126,7 -158,95 -253,111 -95,15 -175,-17 -175,-17 0,0 167,-23 253,-78 87,-55 260,-110 408,42l0 -1z"/>
   <path class="fil31" d="M1401 2342c0,0 107,-65 234,-57 125,7 157,95 252,111 95,15 175,-17 175,-17 0,0 -167,-23 -253,-78 -87,-55 -260,-110 -407,42l-1 -1z"/>
   <path class="fil18" d="M2945 2342c0,0 -177,-94 -270,-52 -93,42 -168,94 -192,100 -23,6 -69,15 -111,8 -43,-6 -83,-8 -83,-8 0,0 106,126 228,53 123,-72 158,-154 428,-102l0 1z"/>
   <path class="fil18" d="M1401 2342c0,0 177,-94 270,-52 93,42 169,94 192,100 23,6 69,15 112,8 42,-6 83,-8 83,-8 0,0 -107,126 -229,53 -123,-72 -158,-154 -428,-102l0 1z"/>
   <path class="fil28" d="M2170 2377c0,0 44,46 46,89 2,43 -2,654 -2,654 0,0 -3,82 38,64 41,-18 232,-137 232,-137l-10 -42 -211 107c0,0 -16,-87 -16,-213 0,-126 0,-435 0,-435 0,0 -18,-71 -76,-89l-1 2z"/>
   <path class="fil32" d="M2165 2377c0,0 -44,46 -46,89 -2,43 2,654 2,654 0,0 3,82 -38,64 -41,-18 -231,-137 -231,-137l10 -42 148 -533c0,0 48,-117 156,-97l-1 2z"/>
   <path class="fil33" d="M2168 2377c0,0 44,46 46,89 2,43 -2,654 -2,654 0,0 -3,82 38,64 41,-18 232,-137 232,-137l-10 -42 -148 -533c0,0 -48,-117 -156,-97l0 2z"/>
  </g>
 </g>
</svg>
