<?xml version="1.0" encoding="UTF-8"?>
<!DOCTYPE svg PUBLIC "-//W3C//DTD SVG 1.1//EN" "http://www.w3.org/Graphics/SVG/1.1/DTD/svg11.dtd">
<!-- Creator: CorelDRAW X6 -->
<svg xmlns="http://www.w3.org/2000/svg" xml:space="preserve" width="43.3492mm" height="43.3492mm" version="1.1" style="shape-rendering:geometricPrecision; text-rendering:geometricPrecision; image-rendering:optimizeQuality; fill-rule:evenodd; clip-rule:evenodd"
viewBox="0 0 4335 4335"
 xmlns:xlink="http://www.w3.org/1999/xlink">
 <defs>
  <style type="text/css">
   <![CDATA[
    .fil2 {fill:#3C4C6E}
    .fil3 {fill:#A82D1C}
    .fil1 {fill:#C7301C}
    .fil0 {fill:#FFA100}
   ]]>
  </style>
 </defs>
 <g id="Layer_x0020_1">
  <metadata id="CorelCorpID_0Corel-Layer"/>
  <circle class="fil0" transform="matrix(0.413486 0.998996 -0.998996 0.413486 2116.85 2150.53)" r="1819"/>
  <path class="fil1" d="M3612 2409c0,768 -491,756 -530,1239l0 0 0 3c-4,54 -3,114 6,181 1,9 2,19 2,29 -71,40 -144,76 -221,108 -248,103 -505,151 -758,150 -42,-185 -206,-309 -206,-311 -13,0 -27,0 -40,0l-81 4 -169 44c-32,11 -32,8 -68,3 -28,-4 -50,-6 -72,-14 -120,-43 -26,-166 -72,-267 -19,-42 -68,-68 -68,-123 0,-23 21,-54 30,-70 -10,-7 -27,-21 -34,-32 -3,-5 -19,-45 -19,-49 0,-29 23,-98 15,-120 -5,-14 -8,-20 -12,-36 -16,-1 -28,-7 -44,-11 -16,-4 -30,-8 -45,-12 -9,-3 -40,-10 -45,-13 -7,-6 -14,-30 -14,-44 0,-23 9,-46 17,-63 9,-20 16,-36 24,-56 16,-38 35,-73 49,-112 8,-21 15,-37 24,-57 17,-38 42,-157 42,-199 0,-14 -2,-33 -4,-46 -3,-17 -7,-27 -9,-42 -17,-120 -13,-231 8,-334 -108,15 -212,33 -313,53 -63,-7 -58,-37 -58,-37l0 1c-19,-75 83,-86 83,-86 0,0 32,-69 45,-109 13,-41 128,-81 128,-81 0,0 166,-662 250,-795 83,-132 583,-403 1352,-282 769,121 872,1071 872,1071l90 17c0,0 45,69 26,179 -18,103 -140,124 -153,126 -14,-3 -29,-6 -43,-8 10,63 16,131 16,201z"/>
  <path class="fil2" d="M3612 2409c0,768 -491,756 -530,1239l0 0 0 3c-4,54 -3,114 6,181 1,9 2,19 2,29 -71,40 -144,76 -221,108 -248,103 -505,151 -758,150 -42,-185 -206,-309 -206,-311 -13,0 -27,0 -40,0l-81 4 -169 44c-32,11 -32,8 -68,3 -28,-4 -50,-6 -72,-14 -120,-43 -26,-166 -72,-267 -19,-42 -68,-68 -68,-123 0,-23 21,-54 30,-70 -10,-7 -27,-21 -34,-32 -3,-5 -19,-45 -19,-49 0,-29 23,-98 15,-120 -5,-14 -8,-20 -12,-36 -16,-1 -28,-7 -44,-11 -16,-4 -30,-8 -45,-12 -9,-3 -40,-10 -45,-13 -7,-6 -14,-30 -14,-44 0,-23 9,-46 17,-63 9,-20 16,-36 24,-56 16,-38 35,-73 49,-112 8,-21 15,-37 24,-57 17,-38 42,-157 42,-199 0,-14 -2,-33 -4,-46 -3,-17 -7,-27 -9,-42 -17,-119 -13,-229 7,-330 387,-75 780,-122 1062,-131 522,-18 1260,183 1260,183 -14,-3 -29,-6 -43,-8 10,63 16,131 16,201z"/>
  <path class="fil3" d="M3677 1894c0,0 -777,-147 -1264,-147 -486,0 -1209,154 -1209,154 0,0 103,-380 109,-403 7,-22 114,-340 114,-340 0,0 16,-84 133,-149 117,-65 258,-157 731,-211 473,-55 755,92 817,130 62,38 240,152 333,320 94,168 165,265 236,647z"/>
 </g>
</svg>
