<?xml version="1.0" encoding="UTF-8"?>
<!DOCTYPE svg PUBLIC "-//W3C//DTD SVG 1.1//EN" "http://www.w3.org/Graphics/SVG/1.1/DTD/svg11.dtd">
<!-- Creator: CorelDRAW X6 -->
<svg xmlns="http://www.w3.org/2000/svg" xml:space="preserve" width="512px" height="512px" version="1.1" style="shape-rendering:geometricPrecision; text-rendering:geometricPrecision; image-rendering:optimizeQuality; fill-rule:evenodd; clip-rule:evenodd"
viewBox="0 0 512 512"
 xmlns:xlink="http://www.w3.org/1999/xlink">
 <defs>
  <style type="text/css">
   <![CDATA[
    .fil0 {fill:#5E5971}
    .fil4 {fill:#AE4A84}
    .fil5 {fill:#CC6F3C}
    .fil2 {fill:#FCC204}
    .fil3 {fill:#FEFEFE}
    .fil1 {fill:#FFED00}
   ]]>
  </style>
 </defs>
 <g id="Layer_x0020_1">
  <metadata id="CorelCorpID_0Corel-Layer"/>
  <g id="_804350184">
   <g>
    <path class="fil0" d="M258 8c137,0 248,111 248,248 0,137 -111,248 -248,248 -137,0 -248,-111 -248,-248 0,-137 111,-248 248,-248z"/>
    <g>
     <g id="_229825096">
      <path class="fil1" d="M444 217c0,0 -3,-6 -18,6 -14,12 -34,7 -56,-4 -23,-11 -51,-10 -65,-6 -14,4 -31,-11 -18,-19 14,-7 22,-10 22,-10 0,0 6,-11 -6,-20 -11,-9 -29,10 -29,10 0,0 12,-13 4,-27 -7,-12 -18,-22 -19,-23l0 0c0,0 0,0 0,0 0,0 0,0 0,0l0 0c-2,2 -13,11 -19,23 -8,14 4,27 4,27 0,0 -18,-19 -29,-10 -11,9 -6,20 -6,20 0,0 8,3 22,10 14,7 -2,23 -18,19 -14,-4 -43,-6 -65,6 -23,11 -42,17 -56,4 -14,-12 -18,-6 -18,-6 -13,2 -19,33 17,99 35,65 116,48 142,35 10,-5 19,-6 27,-7 7,0 17,2 27,7 27,13 107,31 142,-35 35,-65 30,-96 17,-99l0 0zm-313 59c0,0 37,-25 67,-9 30,16 30,33 30,33 0,0 -68,40 -97,-24zm255 0c0,0 -37,-25 -67,-9 -30,16 -30,33 -30,33 0,0 68,40 97,-24z"/>
      <path class="fil1" d="M444 217c0,0 -3,-6 -18,6 -14,12 -34,7 -56,-4 -23,-11 -51,-10 -65,-6 -14,4 -31,-11 -18,-19 14,-7 22,-10 22,-10 0,0 6,-11 -6,-20 -11,-9 -29,10 -29,10 0,0 12,-13 4,-27 -7,-12 -18,-22 -19,-23l0 0c0,0 0,0 0,0 0,0 0,0 0,0l0 0c0,0 -1,1 -2,2l0 218c1,0 1,0 2,0 7,0 17,2 27,7 27,13 107,31 142,-35 35,-65 30,-96 17,-99l0 -1zm-58 59c0,0 -37,-25 -67,-9 -30,16 -30,33 -30,33 0,0 68,40 97,-24z"/>
     </g>
    </g>
   </g>
   <path class="fil2" d="M258 124c0,0 -2,42 -2,64 0,22 14,52 15,81 1,30 -15,74 -15,74 0,0 13,-2 28,8 15,10 64,22 107,1 42,-21 46,-57 50,-65 3,-8 -17,-28 -21,-43 -4,-15 -1,-17 -1,-17 0,0 -18,5 -39,-4 -21,-9 -15,-9 -42,-13 -27,-4 -38,5 -44,2 -7,-3 -8,-18 1,-22 9,-4 15,0 15,-12 0,-12 -5,-16 -11,-16 -6,0 -19,-2 -19,-2 0,0 7,-11 -22,-35z"/>
   <g>
    <path class="fil3" d="M390 274c0,0 -26,-18 -53,-15 -28,2 -50,28 -51,41 -1,14 80,33 104,-26z"/>
    <path class="fil4" d="M334 275c8,0 15,7 15,15 0,8 -7,15 -15,15 -8,0 -15,-7 -15,-15 0,-8 7,-15 15,-15z"/>
   </g>
   <g>
    <path class="fil3" d="M126 274c0,0 26,-18 53,-15 28,2 50,28 51,41 1,14 -80,33 -104,-26z"/>
    <path class="fil4" d="M181 275c-8,0 -15,7 -15,15 0,8 7,15 15,15 8,0 15,-7 15,-15 0,-8 -7,-15 -15,-15z"/>
   </g>
   <path class="fil5" d="M390 274c0,0 -38,-20 -73,0 -35,21 -31,26 -31,26 0,0 -2,-30 27,-41 30,-11 69,-2 77,15z"/>
   <path class="fil5" d="M126 274c0,0 38,-20 73,0 35,21 31,26 31,26 0,0 2,-30 -27,-41 -30,-11 -69,-2 -77,15z"/>
  </g>
 </g>
</svg>
