<?xml version="1.0" encoding="UTF-8"?>
<!DOCTYPE svg PUBLIC "-//W3C//DTD SVG 1.1//EN" "http://www.w3.org/Graphics/SVG/1.1/DTD/svg11.dtd">
<!-- Creator: CorelDRAW X7 -->
<svg xmlns="http://www.w3.org/2000/svg" xml:space="preserve" width="43.3492mm" height="43.3492mm" version="1.1" style="shape-rendering:geometricPrecision; text-rendering:geometricPrecision; image-rendering:optimizeQuality; fill-rule:evenodd; clip-rule:evenodd"
viewBox="0 0 4335 4335"
 xmlns:xlink="http://www.w3.org/1999/xlink">
 <defs>
  <style type="text/css">
   <![CDATA[
    .fil0 {fill:#93A0BB}
    .fil4 {fill:#1A1A1A}
    .fil13 {fill:#333333}
    .fil12 {fill:#336666}
    .fil9 {fill:#339966}
    .fil8 {fill:#33CC66}
    .fil1 {fill:#3F4C66}
    .fil2 {fill:#4D4D4D}
    .fil6 {fill:#666666}
    .fil3 {fill:gray}
    .fil5 {fill:#999999}
    .fil11 {fill:#B3B3B3}
    .fil10 {fill:#CCCCCC}
    .fil7 {fill:white}
   ]]>
  </style>
 </defs>
 <g id="Слой_x0020_1">
  <metadata id="CorelCorpID_0Corel-Layer"/>
  <path class="fil0" d="M2167 30c1181,0 2138,957 2138,2137 0,1181 -957,2138 -2138,2138 -1180,0 -2137,-957 -2137,-2138 0,-1180 957,-2137 2137,-2137z"/>
  <g id="_912369424">
   <g id="_686854560">
    <g>
     <g>
      <g>
       <path class="fil1" d="M1679 1701c0,0 -87,-366 -346,-525 -253,-160 -712,-173 -712,-173 0,0 -6,299 173,598 180,299 306,339 293,605 -14,266 592,-498 592,-498l0 -7zm964 0c0,0 86,-366 346,-525 252,-160 711,-173 711,-173 0,0 7,299 -173,598 -179,299 -305,339 -292,605 13,266 -592,-498 -592,-498l0 -7z"/>
       <g>
        <g>
         <path class="fil2" d="M3368 2433c0,0 -53,485 -319,665 -266,179 -486,292 -486,292 0,0 -226,180 -366,180 -6,0 -20,0 -26,-7 -7,0 -20,7 -27,7 -139,0 -366,-180 -366,-180 0,0 -226,-113 -485,-292 -266,-180 -319,-665 -319,-665 0,0 765,266 1197,465 432,-193 1197,-465 1197,-465z"/>
         <g>
          <g>
           <path class="fil3" d="M3222 2020c0,0 -94,-266 -546,-386 -445,-119 -1051,-6 -1051,-6 0,0 -379,146 -518,439 -133,292 40,658 40,658 0,0 0,240 239,359 239,120 479,240 479,240l618 -54c0,0 373,-126 459,-186 87,-60 353,-346 386,-512 33,-166 -113,-552 -113,-552l7 0z"/>
           <path class="fil4" d="M2709 1634c0,0 127,-305 539,-458 253,-100 373,-120 432,-127 7,67 -6,186 -133,366 -212,299 -352,565 -319,658 33,94 67,340 13,499 -53,160 -53,160 -53,160 0,0 226,-127 173,-366 -53,-233 -53,-352 -53,-352 0,0 120,-233 239,-413 120,-186 333,-598 113,-618 -126,-40 -438,13 -771,193 -332,179 -239,239 -479,239l0 0 0 0 0 0 0 0 0 0 0 0 0 0 0 0 0 0 0 0 0 0 -6 0 0 0 0 0 -7 0 -7 0 0 0 0 0 -6 0 -7 0 0 0 -7 0 -6 0 0 0 -7 0 -7 0 0 0 -6 0 0 0 -7 0 -7 0 0 0 -6 0 -7 0 0 0 -7 0 0 0 -6 0 -7 0 0 0 -7 0 0 0 -6 0 0 0 -7 0 -6 0 -7 0 -7 0 0 0 -6 0 0 0 -7 0 0 0 -7 0 0 0 -6 0 -7 0 -7 0 -6 0 -7 0 -7 0 -6 0 -7 0 -7 0 -6 0 -7 0 -7 0 -6 0 -7 0 -6 0 -7 0 -7 0 0 0 -6 0 0 0 -7 0 0 0 -7 0 0 0 -6 0 -7 0 -7 0 -6 0 0 0 -7 0 0 0 -7 0 0 0 -6 0 -7 0 0 0 -7 0 0 0 -6 0 -7 0 0 0 -7 0 -6 0 0 0 -7 0 0 0 -6 0 -7 0 0 0 -7 0 -6 0 0 0 -7 0 -7 0 0 0 0 0 -6 0 -7 0 0 0 0 0 -7 0 0 0 0 0 0 0 0 0 0 0 0 0 0 0 0 0 0 0 0 0 0 0c-239,0 -146,-60 -479,-239 -332,-180 -645,-233 -771,-193 -226,20 -7,432 113,618 120,186 240,413 240,413 0,0 0,119 -54,352 -53,233 173,366 173,366 0,0 0,0 -53,-160 -53,-159 -13,-405 13,-499 34,-93 -113,-359 -319,-658 -126,-173 -140,-293 -133,-366 60,7 180,27 432,127 413,159 539,458 539,458 180,20 239,533 299,739 60,206 240,239 240,239 0,0 179,-33 239,-239 60,-206 120,-719 299,-739l-20 0z"/>
           <path class="fil5" d="M2171 3184l13 -7 373 74c0,0 -153,219 -373,239l0 0c-7,0 -7,0 -13,0 -7,0 -7,0 -14,0l0 0c-219,-13 -418,-226 -418,-226l418 -87 14 7z"/>
          </g>
          <path class="fil3" d="M1852 1535c119,-27 246,-27 365,0 -106,13 -259,13 -365,0zm-193 399c0,0 272,-34 399,-20 126,20 -47,40 -399,20zm631 -14c120,-26 247,-26 366,0 -106,14 -259,14 -366,0zm-179 273c120,-26 246,-26 366,0 -107,13 -260,13 -366,0zm-386 -86c120,-27 246,-27 366,0 -106,13 -259,13 -366,0zm113 246c120,-27 246,-27 366,0 -106,13 -259,13 -366,0zm-206 -639c120,-26 246,-26 366,0 -107,14 -259,14 -366,0zm552 -26c120,-27 246,-27 366,0 -107,13 -260,13 -366,0z"/>
          <g>
           <path class="fil6" d="M3002 2300c0,0 -20,305 -186,452 -166,146 -279,73 -279,73 0,0 -80,-107 -133,-133 -54,-27 -153,-286 159,-379 313,-93 439,-7 439,-7l0 -6zm-1669 0c0,0 20,305 186,452 166,146 279,73 279,73 0,0 80,-107 133,-133 54,-27 153,-286 -159,-379 -313,-93 -439,-7 -439,-7l0 -6z"/>
           <g>
            <path class="fil7" d="M1705 2333c100,0 180,80 180,179 0,100 -80,180 -180,180 -99,0 -179,-80 -179,-180 0,-99 80,-179 179,-179z"/>
            <path class="fil8" d="M1705 2359c87,0 153,67 153,153 0,87 -66,153 -153,153 -86,0 -153,-66 -153,-153 0,-86 67,-153 153,-153z"/>
            <path class="fil9" d="M1705 2359c60,0 113,67 113,153 0,87 -53,153 -113,153 -60,0 -113,-66 -113,-153 0,-86 53,-153 113,-153z"/>
            <path class="fil4" d="M1705 2413c20,0 34,46 34,99 0,54 -14,100 -34,100 -20,0 -33,-46 -33,-100 0,-53 13,-99 33,-99z"/>
            <path class="fil10" d="M1705 2472c7,0 14,20 14,40 0,20 -7,40 -14,40 -6,0 -13,-20 -13,-40 0,-20 7,-40 13,-40z"/>
           </g>
           <g>
            <path class="fil7" d="M2623 2339c100,0 180,80 180,180 0,100 -80,180 -180,180 -100,0 -180,-80 -180,-180 0,-100 80,-180 180,-180z"/>
            <path class="fil8" d="M2623 2366c86,0 153,67 153,153 0,86 -67,153 -153,153 -86,0 -153,-67 -153,-153 0,-86 67,-153 153,-153z"/>
            <path class="fil9" d="M2623 2366c60,0 113,67 113,153 0,86 -53,153 -113,153 -60,0 -113,-67 -113,-153 0,-86 53,-153 113,-153z"/>
            <path class="fil4" d="M2623 2419c20,0 33,47 33,100 0,53 -13,100 -33,100 -20,0 -33,-47 -33,-100 0,-53 13,-100 33,-100z"/>
            <path class="fil10" d="M2623 2479c7,0 13,20 13,40 0,20 -6,40 -13,40 -7,0 -13,-20 -13,-40 0,-20 6,-40 13,-40z"/>
           </g>
           <path class="fil10" d="M2404 2798c0,-13 -34,-272 113,-379 146,-113 465,-66 465,-66 0,0 160,0 160,-133 0,-133 -73,-160 -233,-213 -166,-53 -619,226 -592,552 27,326 100,419 100,419l-13 -180 0 0zm-473 0c0,-13 34,-272 -113,-379 -146,-113 -465,-66 -465,-66 0,0 -160,0 -160,-133 0,-133 73,-160 233,-213 166,-53 618,226 592,552 -27,326 -100,419 -100,419l13 -180 0 0z"/>
          </g>
         </g>
        </g>
        <path class="fil11" d="M1672 2838c0,0 -186,173 -120,346 67,173 206,219 326,186 120,-33 279,-186 286,-193 7,7 166,167 286,193 120,33 266,-13 326,-186 66,-173 -120,-346 -120,-346 -119,27 -126,-46 -219,-106 -87,-60 -140,-213 -140,-213l-140 86 -139 -86c0,0 -47,153 -140,213 -86,60 -100,133 -219,106l13 0z"/>
        <path class="fil4" d="M2330 2419c0,0 0,60 -13,127 -20,106 -46,252 -20,299 47,73 133,159 100,233 -47,126 -412,126 -459,0 -27,-74 60,-160 100,-233 26,-47 0,-206 -14,-313 -13,-73 -19,-113 -19,-113 53,-60 113,-73 159,-66 47,-7 107,6 160,66l6 0z"/>
        <path class="fil6" d="M2384 2506c6,-20 133,-200 332,-226 206,-27 326,-27 326,-27 0,0 -33,-67 -266,-67 -233,0 -359,140 -392,320l0 0zm-426 0c-7,-20 -133,-200 -333,-226 -206,-27 -325,-27 -325,-27 0,0 33,-67 266,-67 232,0 359,140 392,320l0 0z"/>
       </g>
      </g>
      <path class="fil10" d="M1732 3084c0,0 -512,-26 -878,133 -366,160 -332,213 -332,213 0,0 498,-319 1210,-352l0 6zm871 0c0,0 512,-26 878,133 366,160 332,213 332,213 0,0 -498,-319 -1210,-352l0 6zm-106 107l0 6c645,60 1077,339 1077,339 0,0 40,-53 -333,-212 -252,-113 -571,-133 -751,-133l7 0zm0 79l0 27c505,93 838,306 838,306 0,0 39,-53 -333,-213 -160,-66 -346,-106 -505,-120l0 0zm-665 -79l0 6c-645,60 -1078,339 -1078,339 0,0 -40,-53 333,-212 253,-113 572,-133 751,-133l-6 0zm0 79l0 27c-506,93 -838,306 -838,306 0,0 -40,-53 332,-213 160,-66 346,-106 506,-120l0 0z"/>
     </g>
     <path class="fil12" d="M3135 1900c0,0 -80,-219 13,-379 93,-159 160,-166 160,-166l-499 333c0,0 0,0 326,212z"/>
     <path class="fil12" d="M1246 1900c0,0 80,-219 -13,-379 -93,-159 -160,-166 -160,-166l499 333c0,0 0,0 -326,212z"/>
    </g>
    <path class="fil13" d="M2995 1309c-325,246 -232,359 -232,359 0,0 -226,113 -339,-73 -107,-187 -54,-187 -193,-187 -147,0 -147,0 -147,0l406 0c67,0 333,-219 525,-306 586,-259 725,-113 725,-59 0,33 -419,20 -751,266l6 0z"/>
    <path class="fil13" d="M1340 1309c325,246 232,359 232,359 0,0 226,113 339,-73 107,-187 54,-187 193,-187 147,0 147,0 147,0l-406 0c-67,0 -333,-219 -525,-306 -586,-259 -725,-113 -725,-59 0,33 419,20 751,266l-6 0z"/>
   </g>
  </g>
 </g>
</svg>
