<?xml version="1.0" encoding="UTF-8"?>
<!DOCTYPE svg PUBLIC "-//W3C//DTD SVG 1.1//EN" "http://www.w3.org/Graphics/SVG/1.1/DTD/svg11.dtd">
<!-- Creator: CorelDRAW X6 -->
<svg xmlns="http://www.w3.org/2000/svg" xml:space="preserve" width="512px" height="512px" version="1.1" style="shape-rendering:geometricPrecision; text-rendering:geometricPrecision; image-rendering:optimizeQuality; fill-rule:evenodd; clip-rule:evenodd"
viewBox="0 0 512 512"
 xmlns:xlink="http://www.w3.org/1999/xlink">
 <defs>
  <style type="text/css">
   <![CDATA[
    .fil4 {fill:black}
    .fil5 {fill:#1A1A1A}
    .fil0 {fill:#336699}
    .fil1 {fill:#BA7D04}
    .fil2 {fill:#FFB015}
    .fil3 {fill:white}
   ]]>
  </style>
 </defs>
 <g id="Layer_x0020_1">
  <metadata id="CorelCorpID_0Corel-Layer"/>
  <g id="_687348400">
   <path class="fil0" d="M257 6c138,0 250,112 250,250 0,138 -112,250 -250,250 -138,0 -250,-112 -250,-250 0,-138 112,-250 250,-250z"/>
   <g>
    <g>
     <path class="fil1" d="M271 185l70 -55c0,0 13,-9 23,10 2,4 3,12 2,22 0,-3 -1,-5 -2,-7 -9,-16 -20,-8 -20,-8l-60 47c-26,47 44,50 62,51 -15,0 -108,-1 -76,-59z"/>
     <path class="fil2" d="M298 202l50 -39c0,0 9,-6 16,7 7,13 -10,74 -10,74 0,0 -81,3 -56,-42z"/>
    </g>
    <g>
     <path class="fil1" d="M243 185l-70 -55c0,0 -13,-9 -23,10 -2,4 -3,12 -2,22 0,-3 1,-5 2,-7 9,-16 20,-8 20,-8l60 47c26,47 -44,50 -62,51 15,0 108,-1 76,-59z"/>
     <path class="fil2" d="M216 202l-50 -39c0,0 -9,-6 -16,7 -7,13 10,74 10,74 0,0 81,3 56,-42z"/>
    </g>
    <path class="fil1" d="M180 205c8,0 14,6 14,13 0,7 -6,13 -14,13 -8,0 -14,-6 -14,-13 0,-7 6,-13 14,-13zm154 0c8,0 14,6 14,13 0,7 -6,13 -14,13 -8,0 -14,-6 -14,-13 0,-7 6,-13 14,-13z"/>
    <path class="fil2" d="M251 383l11 0 56 0c0,0 40,-1 40,-40 0,-39 0,-74 0,-74 0,0 0,-80 -94,-80l0 0 0 0 0 0 0 0 0 0 0 0 -1 0 -2 0 -2 0 -2 0 -2 0 -2 0 -3 0c-94,0 -94,80 -94,80 0,0 0,35 0,74 0,39 40,40 40,40l56 0zm-2 -194l0 0 0 0 0 0 0 0 0 0 0 0"/>
    <path class="fil3" d="M209 248c13,0 23,10 23,23 0,13 -10,23 -23,23 -13,0 -23,-10 -23,-23 0,-13 10,-23 23,-23z"/>
    <path class="fil4" d="M209 255c9,0 16,7 16,16 0,9 -7,16 -16,16 -9,0 -16,-7 -16,-16 0,-9 7,-16 16,-16z"/>
    <path class="fil3" d="M212 260c4,0 7,3 7,7 0,4 -3,7 -7,7 -4,0 -7,-3 -7,-7 0,-4 3,-7 7,-7z"/>
    <path class="fil3" d="M305 248c13,0 23,10 23,23 0,13 -10,23 -23,23 -13,0 -23,-10 -23,-23 0,-13 10,-23 23,-23z"/>
    <path class="fil4" d="M305 255c9,0 16,7 16,16 0,9 -7,16 -16,16 -9,0 -16,-7 -16,-16 0,-9 7,-16 16,-16z"/>
    <path class="fil3" d="M309 260c4,0 7,3 7,7 0,4 -3,7 -7,7 -4,0 -7,-3 -7,-7 0,-4 3,-7 7,-7z"/>
    <path class="fil4" d="M93 316l99 0c3,0 5,2 5,5l0 0c0,3 -2,5 -5,5l-99 0c-3,0 -5,-2 -5,-5l0 0c0,-3 2,-5 5,-5zm328 0l-101 0c-3,0 -5,2 -5,5l0 0c0,3 2,5 5,5l101 0c3,0 5,-2 5,-5l0 0c0,-3 -2,-5 -5,-5zm-29 22l-50 0c-3,0 -5,2 -5,5l0 0c0,3 2,5 5,5l50 0c3,0 5,-2 5,-5l0 0c0,-3 -2,-5 -5,-5zm0 -44l-50 0c-3,0 -5,2 -5,5l0 0c0,3 2,5 5,5l50 0c3,0 5,-2 5,-5l0 0c0,-3 -2,-5 -5,-5zm-270 44l50 0c3,0 5,2 5,5l0 0c0,3 -2,5 -5,5l-50 0c-3,0 -5,-2 -5,-5l0 0c0,-3 2,-5 5,-5zm0 -44l50 0c3,0 5,2 5,5l0 0c0,3 -2,5 -5,5l-50 0c-3,0 -5,-2 -5,-5l0 0c0,-3 2,-5 5,-5z"/>
    <path class="fil1" d="M220 383l74 0c0,0 -3,-36 -37,-36 -34,0 -37,36 -37,36z"/>
    <path class="fil5" d="M257 301c16,0 29,4 29,8 0,4 -29,19 -29,19 0,0 -29,-16 -29,-19 0,-4 13,-8 29,-8z"/>
   </g>
  </g>
 </g>
</svg>
