<?xml version="1.0" encoding="UTF-8"?>
<!DOCTYPE svg PUBLIC "-//W3C//DTD SVG 1.1//EN" "http://www.w3.org/Graphics/SVG/1.1/DTD/svg11.dtd">
<!-- Creator: CorelDRAW X6 -->
<svg xmlns="http://www.w3.org/2000/svg" xml:space="preserve" width="512px" height="512px" version="1.1" style="shape-rendering:geometricPrecision; text-rendering:geometricPrecision; image-rendering:optimizeQuality; fill-rule:evenodd; clip-rule:evenodd"
viewBox="0 0 512 512"
 xmlns:xlink="http://www.w3.org/1999/xlink">
 <defs>
  <style type="text/css">
   <![CDATA[
    .fil9 {fill:#009933}
    .fil7 {fill:#1A1A1A}
    .fil3 {fill:#333333}
    .fil2 {fill:#4D4D4D}
    .fil5 {fill:#666666}
    .fil0 {fill:#9900CC}
    .fil4 {fill:#B3B3B3}
    .fil1 {fill:#CCCCCC}
    .fil6 {fill:#E6E6E6}
    .fil8 {fill:white}
   ]]>
  </style>
 </defs>
 <g id="Layer_x0020_1">
  <metadata id="CorelCorpID_0Corel-Layer"/>
  <g id="_686851128">
   <path class="fil0" d="M256 8c136,0 246,110 246,246 0,136 -110,246 -246,246 -136,0 -246,-110 -246,-246 0,-136 110,-246 246,-246z"/>
   <g>
    <g>
     <path class="fil1" d="M310 180c29,6 54,16 74,30l-9 15c0,0 31,31 11,74 -20,43 -92,48 -103,87 -9,1 -17,1 -26,1 -9,0 -18,0 -27,-1 -12,-37 -82,-43 -103,-85 -20,-43 11,-74 11,-74l-9 -16c20,-14 45,-25 75,-31l11 13c0,0 9,-18 42,-18 34,0 42,18 42,18l11 -13z"/>
     <path class="fil2" d="M216 239c19,-1 34,11 34,11 0,0 3,3 6,3l1 0 1 0c3,-1 6,-3 6,-3 0,0 15,-11 34,-11 23,1 41,15 56,12 7,-2 11,9 11,9l0 11c0,0 -2,9 -27,25 -24,16 -53,13 -65,4 -8,-6 -13,-8 -16,-9 -3,1 -8,3 -16,9 -11,8 -40,12 -65,-4 -24,-16 -27,-25 -27,-25l0 -11c0,0 4,-11 11,-9 15,4 33,-11 56,-12zm121 32c0,0 -30,-18 -49,-13 -18,6 -17,14 -17,14 0,0 19,37 66,-2zm-160 0c0,0 30,-18 49,-13 18,6 17,14 17,14 0,0 -19,37 -66,-2z"/>
     <path class="fil3" d="M195 171c-35,-37 -82,-64 -93,-60 0,0 15,65 22,90 1,2 1,4 2,6l10 17c1,1 2,1 2,1 0,0 18,-31 76,-32l-19 -22zm121 1c36,-37 83,-66 94,-61 0,0 -15,65 -22,90l-14 24c0,0 -18,-31 -76,-32l17 -20z"/>
     <path class="fil3" d="M255 305c0,0 1,0 1,0 0,0 1,0 1,0 22,-1 36,18 12,18 -13,0 -4,12 -13,12 -10,0 1,-12 -13,-12 -25,0 -10,-18 12,-18z"/>
     <path class="fil4" d="M411 111c0,0 4,49 -4,77 -7,29 -24,52 -24,52 0,0 -14,-26 -34,-33 -20,-7 -20,-7 -20,-7 0,0 16,-46 81,-88zm-308 0c0,0 -4,49 4,77 7,29 24,52 24,52 0,0 14,-26 34,-33 20,-7 20,-7 20,-7 0,0 -16,-46 -81,-88z"/>
     <path class="fil5" d="M373 225c0,0 -14,-13 -21,-16 -7,-3 -7,-3 -7,-3l37 -36c0,0 -3,66 -8,55zm-233 0c0,0 14,-13 21,-16 7,-3 7,-3 7,-3l-37 -36c0,0 3,66 8,55z"/>
     <path class="fil5" d="M210 372c0,0 12,-16 44,-16 32,0 49,14 49,14 0,0 -44,58 -93,2z"/>
     <path class="fil6" d="M204 318c11,3 20,6 24,11 18,18 18,27 18,27 0,0 -50,59 -108,-38l66 0zm107 0l66 0c-58,97 -108,38 -108,38 0,0 0,-9 18,-27 5,-5 14,-8 24,-11z"/>
     <path class="fil7" d="M90 332l108 0c1,0 2,1 2,2l0 0c0,1 -1,2 -2,2l-108 0c-1,0 -2,-1 -2,-2l0 0c0,-1 1,-2 2,-2zm333 0l-108 0c-1,0 -2,1 -2,2l0 0c0,1 1,2 2,2l108 0c1,0 2,-1 2,-2l0 0c0,-1 -1,-2 -2,-2zm-10 23l-108 0c-1,0 -2,1 -2,2l0 0c0,1 1,2 2,2l108 0c1,0 2,-1 2,-2l0 0c0,-1 -1,-2 -2,-2zm-313 0l108 0c1,0 2,1 2,2l0 0c0,1 -1,2 -2,2l-108 0c-1,0 -2,-1 -2,-2l0 0c0,-1 1,-2 2,-2z"/>
    </g>
    <path class="fil8" d="M336 270c0,0 -22,-14 -40,-14 -18,0 -25,8 -26,15 -1,8 14,16 26,16 12,0 19,-2 40,-18z"/>
    <path class="fil8" d="M177 270c0,0 22,-14 40,-14 18,0 25,8 26,15 1,8 -14,16 -26,16 -12,0 -19,-2 -40,-18z"/>
    <g>
     <path class="fil9" d="M216 260c6,0 12,5 12,12 0,7 -5,12 -12,12 -7,0 -12,-5 -12,-12 0,-6 5,-12 12,-12z"/>
     <path class="fil7" d="M216 264c1,0 1,4 1,8 0,5 -1,8 -1,8 -1,0 -1,-4 -1,-8 0,-5 1,-8 1,-8z"/>
    </g>
    <g>
     <path class="fil9" d="M297 260c7,0 12,5 12,12 0,7 -5,12 -12,12 -6,0 -12,-5 -12,-12 0,-6 5,-12 12,-12z"/>
     <path class="fil7" d="M297 264c1,0 1,4 1,8 0,5 -1,8 -1,8 -1,0 -1,-4 -1,-8 0,-5 1,-8 1,-8z"/>
    </g>
   </g>
  </g>
 </g>
</svg>
