<?xml version="1.0" encoding="UTF-8"?>
<!DOCTYPE svg PUBLIC "-//W3C//DTD SVG 1.1//EN" "http://www.w3.org/Graphics/SVG/1.1/DTD/svg11.dtd">
<!-- Creator: CorelDRAW X6 -->
<svg xmlns="http://www.w3.org/2000/svg" xml:space="preserve" width="485px" height="485px" version="1.1" style="shape-rendering:geometricPrecision; text-rendering:geometricPrecision; image-rendering:optimizeQuality; fill-rule:evenodd; clip-rule:evenodd"
viewBox="0 0 486 486"
 xmlns:xlink="http://www.w3.org/1999/xlink">
 <defs>
  <style type="text/css">
   <![CDATA[
    .fil8 {fill:#008DD2}
    .fil7 {fill:#009846}
    .fil9 {fill:#2B2A29}
    .fil0 {fill:#393185}
    .fil2 {fill:#AE4A84}
    .fil10 {fill:#E31E24}
    .fil5 {fill:#E5097F}
    .fil3 {fill:#EF7F1A}
    .fil1 {fill:#F5B2B6}
    .fil12 {fill:#F7AA47}
    .fil4 {fill:#FEFEFE}
    .fil11 {fill:#FFED00}
    .fil6 {fill:#E5338A}
   ]]>
  </style>
 </defs>
 <g id="Layer_x0020_1">
  <metadata id="CorelCorpID_0Corel-Layer"/>
  <g id="_707292088">
   <path class="fil0" d="M243 0c134,0 243,109 243,243 0,134 -109,243 -243,243 -134,0 -243,-109 -243,-243 0,-134 109,-243 243,-243z"/>
   <g>
    <path class="fil1" d="M207 446c0,0 73,11 84,-12 11,-23 4,-50 49,-88 44,-38 8,-143 8,-143 0,0 -15,-38 -107,-45 -92,-6 -112,49 -113,71 0,22 8,123 14,119 6,-3 64,96 64,96z"/>
    <path class="fil2" d="M290 440c12,-21 19,-51 32,-65 6,-7 12,-14 18,-21 4,6 23,4 30,-5 7,-10 3,-12 13,-10 10,2 25,-11 30,-31 4,-20 -12,-19 -12,-19 0,0 34,-8 34,-42 0,-34 -32,-38 -32,-38 0,0 12,-34 -28,-36 -21,-1 -34,4 -41,10 -9,-9 -21,-18 -36,-23l-115 0 0 1c-15,6 -26,14 -35,23 -8,-6 -21,-11 -41,-10 -39,3 -28,36 -28,36 0,0 -32,4 -32,38 0,34 34,42 34,42 0,0 -17,-1 -12,19 4,20 19,33 30,31 10,-2 6,1 13,10 6,9 26,11 30,5 5,7 12,14 18,21 13,14 21,44 32,65 14,26 84,26 98,0zm-130 -171c0,0 9,10 27,10 18,-1 32,-8 32,-8 0,0 -27,-48 -58,-2zm161 0c0,0 -9,10 -27,10 -18,-1 -32,-8 -32,-8 0,0 27,-48 58,-2zm-81 11c16,0 29,13 29,29 0,16 -13,29 -29,29 -16,0 -29,-13 -29,-29 0,-16 13,-29 29,-29zm-59 69l0 0c-1,-1 0,-2 1,-1 6,3 33,3 58,3 25,0 52,-1 58,-3 1,0 1,0 1,1l0 0c0,0 -15,28 -33,55 -9,13 -18,17 -26,15 -8,2 -17,-2 -26,-15 -18,-27 -33,-55 -33,-55zm142 -156c0,0 0,0 1,-1 -25,-24 -67,-27 -82,-27l0 0c0,0 -1,0 -2,0 -2,0 -2,0 -2,0l0 0c-14,0 -56,2 -82,27 0,1 0,1 0,1 0,0 -1,0 -1,0 0,0 0,0 0,0 -35,35 -14,65 -3,104 0,0 -17,18 -6,40 11,22 31,46 41,67 28,57 79,57 107,0 10,-21 30,-45 41,-67 11,-22 -6,-40 -6,-40 11,-39 32,-69 -3,-104 0,0 0,0 0,0 0,0 -1,0 -1,0z"/>
    <path class="fil3" d="M298 160c-1,0 -1,0 -2,-1l24 -42c1,-2 9,-17 14,-29 1,0 2,1 4,1 8,0 15,-7 15,-15 0,-8 -7,-15 -15,-15 -8,0 -15,7 -15,15 0,2 1,5 2,7 -1,1 -1,1 -2,2 -10,11 -23,27 -28,25 -7,-4 -6,-26 -6,-41 7,-1 12,-7 12,-14 0,-8 -7,-15 -15,-15 -8,0 -15,7 -15,15 0,5 3,10 7,13 -5,15 -11,38 -25,34 -7,-2 -8,-24 -10,-39 5,-2 8,-7 8,-13 0,-8 -7,-15 -15,-15 -8,0 -15,7 -15,15 0,6 3,11 8,13 0,0 0,1 0,1 -2,15 -3,37 -10,39 -13,4 -20,-19 -25,-34l0 0c4,-3 7,-7 7,-13 0,-8 -7,-15 -15,-15 -8,0 -15,7 -15,15 0,7 5,13 12,14 0,15 1,37 -6,41 -5,3 -17,-13 -27,-24l0 0c2,-2 3,-5 3,-9 0,-8 -7,-15 -15,-15 -8,0 -15,7 -15,15 0,8 7,15 15,15l0 0c5,12 12,27 13,28l25 43 117 0z"/>
    <path class="fil4" d="M218 271c0,0 -7,14 -31,14 -24,0 -27,-16 -27,-16 0,0 -1,-13 20,-27 21,-14 43,22 39,29z"/>
    <path class="fil4" d="M264 271c0,0 7,14 31,14 24,0 27,-16 27,-16 0,0 1,-13 -20,-27 -21,-14 -43,22 -39,29z"/>
    <path class="fil5" d="M240 279c17,0 30,14 30,30 0,17 -14,30 -30,30 -17,0 -30,-14 -30,-30 0,-17 14,-30 30,-30z"/>
    <path class="fil6" d="M240 279c15,0 27,10 30,24l-60 0c3,-14 15,-24 30,-24z"/>
    <path class="fil7" d="M186 257c6,0 10,5 10,10 0,6 -5,10 -10,10 -6,0 -10,-5 -10,-10 0,-6 5,-10 10,-10z"/>
    <path class="fil8" d="M293 257c6,0 10,5 10,10 0,6 -5,10 -10,10 -6,0 -10,-5 -10,-10 0,-6 5,-10 10,-10z"/>
    <path class="fil8" d="M389 349c0,0 0,1 0,1 0,14 -11,25 -25,25 -14,0 -25,-11 -25,-25 0,-10 5,-18 13,-22 -2,-4 -3,-9 -3,-14 0,-10 4,-20 11,-26 -3,-5 -4,-12 -4,-18 0,-5 1,-11 3,-16 -1,-4 -2,-8 -2,-12 0,-4 1,-7 1,-11 -7,-7 -11,-17 -12,-27 -11,-5 -18,-16 -18,-29 0,-18 14,-32 32,-32 13,0 24,8 29,18 22,1 39,19 39,41 0,4 -1,7 -1,11 7,7 12,18 12,29 0,5 -1,11 -3,16 1,4 2,8 2,12 0,15 -8,28 -20,35 1,3 1,6 1,9 0,18 -14,33 -31,35zm-292 0c0,0 0,1 0,1 0,14 11,25 25,25 14,0 25,-11 25,-25 0,-10 -5,-18 -13,-22 2,-4 3,-9 3,-14 0,-10 -4,-20 -11,-26 3,-5 4,-12 4,-18 0,-5 -1,-11 -3,-16 1,-4 2,-8 2,-12 0,-4 -1,-7 -1,-11 7,-7 11,-17 12,-27 11,-5 18,-16 18,-29 0,-18 -14,-32 -32,-32 -13,0 -24,8 -29,18 -22,1 -39,19 -39,41 0,4 1,7 1,11 -7,7 -12,18 -12,29 0,5 1,11 3,16 -1,4 -2,8 -2,12 0,15 8,28 20,35 -1,3 -1,6 -1,9 0,18 14,33 31,35z"/>
    <path class="fil9" d="M299 348c0,0 -30,2 -59,2 -29,0 -58,0 -58,0l22 37 10 16c0,0 11,20 26,15 15,-4 14,5 30,-22 17,-27 29,-48 29,-48z"/>
    <path class="fil10" d="M298 347l-10 0 0 0 0 0 -107 0 0 0 -2 0c10,16 37,78 59,72 1,0 1,0 2,-1 1,0 1,0 2,1 22,6 49,-55 59,-72l-3 0 0 0zm-96 26c-3,-5 -5,-10 -6,-14 11,3 28,7 42,7 15,0 35,-4 47,-7 -1,4 -3,9 -6,14 -24,45 -53,45 -77,0z"/>
    <path class="fil11" d="M141 54c10,0 17,8 17,17 0,10 -8,17 -17,17 -10,0 -17,-8 -17,-17 0,-10 8,-17 17,-17z"/>
    <path class="fil11" d="M190 33c10,0 17,8 17,17 0,10 -8,17 -17,17 -10,0 -17,-8 -17,-17 0,-10 8,-17 17,-17z"/>
    <path class="fil11" d="M238 27c10,0 17,8 17,17 0,10 -8,17 -17,17 -10,0 -17,-8 -17,-17 0,-10 8,-17 17,-17z"/>
    <path class="fil11" d="M289 33c10,0 17,8 17,17 0,10 -8,17 -17,17 -10,0 -17,-8 -17,-17 0,-10 8,-17 17,-17z"/>
    <path class="fil11" d="M340 54c10,0 17,8 17,17 0,10 -8,17 -17,17 -10,0 -17,-8 -17,-17 0,-10 8,-17 17,-17z"/>
    <path class="fil12" d="M298 160l-117 0 -9 -16c0,0 19,-19 64,-19 45,0 71,18 71,18l-8 18z"/>
   </g>
   <path class="fil2" d="M258 248c0,0 11,-18 35,-20 24,-2 41,13 41,13 0,0 2,-13 -6,-17 -8,-4 -60,-26 -69,25zm-30 0c0,0 -11,-18 -35,-20 -24,-2 -41,13 -41,13 0,0 -2,-13 6,-17 8,-4 60,-26 69,25z"/>
  </g>
 </g>
</svg>
