<?xml version="1.0" encoding="UTF-8"?>
<!DOCTYPE svg PUBLIC "-//W3C//DTD SVG 1.1//EN" "http://www.w3.org/Graphics/SVG/1.1/DTD/svg11.dtd">
<!-- Creator: CorelDRAW X6 -->
<svg xmlns="http://www.w3.org/2000/svg" xml:space="preserve" width="43.3492mm" height="43.3492mm" version="1.1" style="shape-rendering:geometricPrecision; text-rendering:geometricPrecision; image-rendering:optimizeQuality; fill-rule:evenodd; clip-rule:evenodd"
viewBox="0 0 4335 4335"
 xmlns:xlink="http://www.w3.org/1999/xlink">
 <defs>
  <style type="text/css">
   <![CDATA[
    .fil0 {fill:#FF1E00}
    .fil1 {fill:#FFB300}
    .fil3 {fill:#FFC130}
    .fil2 {fill:yellow}
   ]]>
  </style>
 </defs>
 <g id="Layer_x0020_1">
  <metadata id="CorelCorpID_0Corel-Layer"/>
  <g id="_760122256">
   <path class="fil0" d="M2181 249c1064,0 1927,863 1927,1927 0,1064 -863,1927 -1927,1927 -1064,0 -1927,-863 -1927,-1927 0,-1064 863,-1927 1927,-1927z"/>
   <path class="fil1" d="M3568 2373c0,739 -472,728 -510,1192l0 0 0 2c-4,52 -3,109 5,174 3,42 9,90 16,141 -268,142 -574,222 -899,222 -16,0 -32,0 -48,-1l0 -4c0,-223 -208,-380 -208,-382 -13,0 -26,0 -39,0l-78 4 -163 43c-31,10 -31,8 -65,3 -27,-4 -48,-6 -69,-13 -115,-42 -25,-160 -70,-256 -19,-40 -65,-66 -65,-118 0,-22 21,-52 29,-68 -10,-6 -26,-20 -32,-31 -3,-5 -18,-43 -18,-47 0,-28 22,-94 14,-115 -5,-13 -8,-19 -12,-34 -15,-1 -27,-6 -42,-11 -15,-4 -28,-7 -44,-12 -8,-2 -39,-9 -43,-13 -7,-5 -14,-29 -14,-42 0,-22 9,-45 16,-61 8,-19 15,-34 23,-54 15,-37 33,-71 47,-108 7,-20 14,-35 23,-55 16,-37 40,-151 40,-192 0,-14 -2,-31 -4,-45 -3,-16 -6,-26 -8,-40 -55,-396 119,-692 390,-875l-89 -153c-10,-18 -80,-158 -126,-270l-4 0c-77,0 -139,-63 -139,-139 0,-77 63,-139 139,-139 77,0 139,63 139,139 0,32 -10,61 -28,84l1 2c97,100 211,250 256,224 69,-40 56,-246 56,-388 -66,-11 -115,-69 -115,-137 0,-77 63,-139 139,-139 77,0 139,63 139,139 0,52 -28,96 -70,121l2 1 -1 -1c47,144 108,362 236,327 64,-17 71,-223 95,-366 1,-3 1,-6 2,-9 -46,-23 -77,-70 -77,-125 0,-77 63,-139 139,-139 77,0 139,63 139,139 0,54 -32,102 -77,125 23,143 31,358 96,375 128,34 189,-183 236,-327 -42,-24 -70,-69 -70,-121 0,-77 63,-139 139,-139 77,0 139,63 139,139 0,69 -50,126 -115,137 -1,142 -13,348 56,388 46,27 166,-132 265,-233 5,-6 10,-10 15,-15 -10,-19 -15,-41 -15,-64 0,-77 63,-139 139,-139 77,0 139,63 139,139 0,77 -63,139 -139,139 -13,0 -24,-2 -36,-5 -46,113 -117,259 -129,277l-72 124c248,162 420,432 420,822z"/>
   <path class="fil2" d="M1743 1580l-89 -153c-10,-18 -80,-158 -126,-270l-4 0c-77,0 -139,-63 -139,-139 0,-77 63,-139 139,-139 77,0 139,63 139,139 0,32 -10,61 -28,84l1 2c97,100 211,250 256,224 69,-40 56,-246 56,-388 -66,-11 -115,-69 -115,-137 0,-77 63,-139 139,-139 77,0 139,63 139,139 0,52 -28,96 -70,121l2 1 -1 -1c47,144 108,362 236,327 64,-17 71,-223 95,-366 1,-3 1,-6 2,-9 -46,-23 -77,-70 -77,-125 0,-77 63,-139 139,-139 77,0 139,63 139,139 0,54 -32,102 -77,125 23,143 31,358 96,375 128,34 189,-183 236,-327 -42,-24 -70,-69 -70,-121 0,-77 63,-139 139,-139 77,0 139,63 139,139 0,69 -50,126 -115,137 -1,142 -13,348 56,388 46,27 166,-132 265,-233 5,-6 10,-10 15,-15 -10,-19 -15,-41 -15,-64 0,-77 63,-139 139,-139 77,0 139,63 139,139 0,77 -63,139 -139,139 -13,0 -24,-2 -36,-5 -46,113 -117,259 -129,277l-72 124c0,0 91,108 -449,99 -540,-9 -868,83 -956,-70z"/>
   <path class="fil3" d="M1491 919c35,0 64,29 64,64 0,35 -29,64 -64,64 -35,0 -64,-29 -64,-64 0,-35 29,-64 64,-64z"/>
   <path class="fil3" d="M1952 721c35,0 64,29 64,64 0,35 -29,64 -64,64 -35,0 -64,-29 -64,-64 0,-35 29,-64 64,-64z"/>
   <path class="fil3" d="M2411 667c35,0 64,29 64,64 0,35 -29,64 -64,64 -35,0 -64,-29 -64,-64 0,-35 29,-64 64,-64z"/>
   <path class="fil3" d="M2897 712c35,0 64,29 64,64 0,35 -29,64 -64,64 -35,0 -64,-29 -64,-64 0,-35 29,-64 64,-64z"/>
   <path class="fil3" d="M3366 919c35,0 64,29 64,64 0,35 -29,64 -64,64 -35,0 -64,-29 -64,-64 0,-35 29,-64 64,-64z"/>
  </g>
 </g>
</svg>
