<?xml version="1.0" encoding="UTF-8"?>
<!DOCTYPE svg PUBLIC "-//W3C//DTD SVG 1.1//EN" "http://www.w3.org/Graphics/SVG/1.1/DTD/svg11.dtd">
<!-- Creator: CorelDRAW X7 -->
<svg xmlns="http://www.w3.org/2000/svg" xml:space="preserve" width="43.3492mm" height="43.3492mm" version="1.1" style="shape-rendering:geometricPrecision; text-rendering:geometricPrecision; image-rendering:optimizeQuality; fill-rule:evenodd; clip-rule:evenodd"
viewBox="0 0 4335 4335"
 xmlns:xlink="http://www.w3.org/1999/xlink">
 <defs>
  <style type="text/css">
   <![CDATA[
    .fil0 {fill:#EBECEC}
    .fil1 {fill:#EF7F1A}
    .fil2 {fill:#F09E18}
   ]]>
  </style>
 </defs>
 <g id="Слой_x0020_1">
  <metadata id="CorelCorpID_0Corel-Layer"/>
  <path class="fil0" d="M2167 30c1181,0 2138,957 2138,2137 0,1181 -957,2138 -2138,2138 -1180,0 -2137,-957 -2137,-2138 0,-1180 957,-2137 2137,-2137z"/>
  <g id="_736696816">
   <g id="_516019320">
    <g>
     <path class="fil1" d="M3728 1746c46,72 97,231 -25,527 -141,341 -359,526 -447,590l-2177 0c-88,-64 -306,-249 -447,-590 -94,-228 -85,-374 -56,-462l2 -5 1 -2c34,-94 93,-100 132,-91 89,28 148,84 148,197 0,117 -6,172 45,284 3,5 5,10 7,15l35 -17c-21,-96 -60,-174 -15,-280 13,-29 31,-55 55,-75 46,-37 123,-63 199,-42 150,42 160,230 54,312 -13,-22 -14,-49 -40,-85 -40,-57 -124,-64 -168,-10 -42,53 -34,88 -23,148 24,-6 42,-26 68,-22 12,10 49,86 47,105 -14,10 -48,21 -60,34 37,79 155,63 155,-23 0,-40 -13,-43 -19,-68 159,19 185,186 86,249 -56,35 -124,23 -174,-9 -38,-25 -62,-51 -87,-86 -7,-10 -15,-23 -23,-34l-32 14c0,1 1,2 1,2 166,288 365,221 516,-140 -12,-15 -17,-8 -31,-35 -24,-47 7,-109 64,-114 78,-5 115,89 53,143 11,26 79,106 98,118 3,-38 17,-72 36,-97 18,-26 38,-54 70,-63 -24,183 208,173 201,26 -16,-1 -32,0 -48,-1 -6,0 -17,1 -23,0 -12,-2 -9,0 -15,-6 -7,-14 -7,-125 0,-141 11,-18 65,-10 83,-9 -8,-88 -84,-185 -182,-168 -46,8 -81,41 -97,79 -22,52 -15,95 -8,152 -52,-8 -112,-60 -134,-86 -36,-42 -57,-95 -45,-168 33,-209 338,-276 472,-74 52,78 65,149 80,257l50 1c1,-91 -4,-146 -37,-222 -24,-56 -64,-121 -82,-177 -41,-123 12,-194 88,-271 70,-73 98,-73 168,0 76,77 129,148 88,271 -18,56 -58,121 -82,177 -33,76 -38,131 -37,222l50 -1c15,-108 28,-179 80,-257 134,-202 439,-135 472,74 12,73 -9,126 -45,168 -22,26 -82,78 -134,86 7,-57 14,-100 -8,-152 -16,-38 -51,-71 -97,-79 -98,-17 -174,80 -182,168 18,-1 72,-9 83,9 7,16 7,127 0,141 -7,6 -3,4 -15,6 -6,1 -17,0 -23,0 -16,1 -32,0 -48,1 -7,147 225,157 201,-26 32,9 52,37 70,63 19,25 33,59 36,97 19,-12 87,-92 97,-118 -61,-54 -24,-148 54,-143 57,5 88,67 64,114 -14,27 -19,20 -31,35 151,361 350,428 516,140 0,0 1,-1 1,-2l-32 -14c-8,11 -16,24 -23,34 -25,35 -49,61 -88,86 -50,32 -117,44 -173,9 -99,-63 -73,-230 86,-249 -6,25 -19,28 -19,68 0,86 118,102 155,23 -12,-13 -46,-24 -60,-34 -2,-19 35,-95 47,-105 26,-4 43,16 68,22 11,-60 19,-95 -23,-148 -44,-54 -128,-47 -169,10 -25,36 -26,63 -40,85 -105,-82 -95,-270 55,-312 75,-21 153,5 199,42 24,20 42,46 55,75 45,106 6,184 -15,280l35 17c2,-5 4,-10 7,-15 51,-112 45,-167 44,-284 0,-100 47,-155 119,-186l0 2c0,0 84,-53 143,20l0 0zm-2636 1146l138 0 1875 0 138 0c47,0 86,39 86,86l0 0c0,47 -39,86 -86,86l-138 0 -1875 0 -138 0c-48,0 -86,-39 -86,-86l0 0c0,-47 38,-86 86,-86z"/>
     <path class="fil2" d="M2167 1349l0 0 1 0 0 1c18,6 170,67 139,193 -30,119 -116,198 -135,261l-4 0 -1 -246 -1 246 -3 0c-19,-63 -105,-142 -135,-261 -31,-126 121,-187 139,-193l0 -1 0 0z"/>
    </g>
    <path class="fil2" d="M2766 2273c0,0 5,17 16,44 10,-7 17,-5 23,11 10,30 125,167 228,286 166,82 363,-30 463,-157 108,-138 33,-552 33,-552 0,0 4,-162 155,-38 150,123 -127,633 -278,780 -150,148 -174,157 -174,157l-32 0 -2065 0 -32 0c0,0 -24,-9 -174,-157 -151,-147 -428,-657 -278,-780 151,-124 155,38 155,38 0,0 -75,414 33,552 100,127 297,239 463,157 103,-119 218,-256 228,-286 6,-16 13,-18 23,-11 11,-27 16,-44 16,-44 0,0 -1,37 19,78 25,24 61,53 116,68 104,27 290,-22 377,-117 14,-23 24,-46 33,-64 10,-22 19,-44 27,-64l24 -79c0,0 1,3 2,7 2,-4 3,-7 3,-7l24 79c8,20 17,42 27,64 9,18 19,41 33,64 87,95 273,144 377,117 55,-15 91,-44 116,-68 19,-41 19,-78 19,-78l0 0z"/>
   </g>
  </g>
 </g>
</svg>
