<?xml version="1.0" encoding="UTF-8"?>
<!DOCTYPE svg PUBLIC "-//W3C//DTD SVG 1.0//EN" "http://www.w3.org/TR/2001/REC-SVG-20010904/DTD/svg10.dtd">
<!-- Creator: CorelDRAW X6 -->
<svg xmlns="http://www.w3.org/2000/svg" xml:space="preserve" width="512px" height="512px" version="1.0" style="shape-rendering:geometricPrecision; text-rendering:geometricPrecision; image-rendering:optimizeQuality; fill-rule:evenodd; clip-rule:evenodd"
viewBox="0 0 512 512"
 xmlns:xlink="http://www.w3.org/1999/xlink">
 <defs>
  <style type="text/css">
   <![CDATA[
    .fil0 {fill:#336699}
    .fil2 {fill:#EBEB03}
    .fil4 {fill:#FF6600}
    .fil3 {fill:#FFC812}
    .fil1 {fill:yellow}
   ]]>
  </style>
 </defs>
 <g id="Layer_x0020_1">
  <metadata id="CorelCorpID_0Corel-Layer"/>
  <path class="fil0" d="M255 8c137,0 248,111 248,248 0,137 -111,248 -248,248 -137,0 -248,-111 -248,-248 0,-137 111,-248 248,-248z"/>
  <g id="_642160232">
   <g>
    <g>
     <g>
      <polygon class="fil1" points="102,190 102,319 255,319 114,178 102,166 "/>
      <polygon class="fil2" points="255,190 255,319 102,319 244,178 255,166 "/>
     </g>
     <g>
      <polygon class="fil1" points="407,190 407,319 254,319 395,178 407,166 "/>
      <polygon class="fil2" points="254,190 254,319 407,319 266,178 254,166 "/>
     </g>
    </g>
    <polygon class="fil3" points="102,319 407,319 407,346 102,346 "/>
   </g>
   <path class="fil1" d="M255 228c20,0 37,16 37,37 0,20 -16,37 -37,37 -20,0 -37,-16 -37,-37 0,-20 16,-37 37,-37z"/>
   <path class="fil4" d="M255 242c13,0 23,10 23,23 0,13 -10,23 -23,23 -13,0 -23,-10 -23,-23 0,-13 10,-23 23,-23z"/>
  </g>
 </g>
</svg>
