<?xml version="1.0" encoding="UTF-8"?>
<!DOCTYPE svg PUBLIC "-//W3C//DTD SVG 1.1//EN" "http://www.w3.org/Graphics/SVG/1.1/DTD/svg11.dtd">
<!-- Creator: CorelDRAW X6 -->
<svg xmlns="http://www.w3.org/2000/svg" xml:space="preserve" width="43.3492mm" height="43.3492mm" version="1.1" style="shape-rendering:geometricPrecision; text-rendering:geometricPrecision; image-rendering:optimizeQuality; fill-rule:evenodd; clip-rule:evenodd"
viewBox="0 0 4335 4335"
 xmlns:xlink="http://www.w3.org/1999/xlink">
 <defs>
  <style type="text/css">
   <![CDATA[
    .fil2 {fill:#9900CC}
    .fil1 {fill:#FF99CC}
    .fil4 {fill:#FFB300}
    .fil3 {fill:#FFCB30}
    .fil0 {fill:url(#id0)}
   ]]>
  </style>
  <linearGradient id="id0" gradientUnits="userSpaceOnUse" x1="1951.33" y1="136.79" x2="2369.69" y2="4236.71">
   <stop offset="0" style="stop-color:#FF54FF"/>
   <stop offset="1" style="stop-color:#9900CC"/>
  </linearGradient>
 </defs>
 <g id="Layer_x0020_1">
  <metadata id="CorelCorpID_0Corel-Layer"/>
  <path class="fil0" d="M2161 187c1104,0 1999,895 1999,1999 0,1104 -895,1999 -1999,1999 -1104,0 -1999,-895 -1999,-1999 0,-1104 895,-1999 1999,-1999z"/>
  <path class="fil1" d="M2925 2189l12 59c6,-4 2,-1 10,-9 16,-16 18,-36 58,-28 43,66 -81,122 -113,11 12,-20 29,-27 30,-31 1,-2 3,-2 2,-4l1 0zm138 626c0,567 -362,558 -391,914l0 0 0 2c-3,40 -2,84 4,134 7,94 -7,121 41,243l-145 36 -137 24 -110 12 -95 5 -101 1 -168 -10c0,-8 0,6 0,-1 0,-6 0,6 0,0l2 -35c0,-171 -159,-292 -159,-293 -10,0 -20,0 -30,0l-60 3 -125 33c-24,8 -24,6 -50,2 -20,-3 -37,-4 -53,-10 -89,-32 -19,-122 -53,-197 -14,-31 -50,-51 -50,-91 0,-17 16,-40 22,-52 -7,-5 -20,-15 -25,-23 -2,-4 -14,-33 -14,-36 0,-21 17,-72 11,-89 -4,-10 -6,-15 -9,-26 -12,-1 -21,-5 -33,-8 -12,-3 -22,-6 -33,-9 -6,-2 -30,-7 -33,-10 -5,-4 -10,-22 -10,-32 0,-17 7,-34 12,-47 6,-15 12,-26 18,-41 12,-28 25,-54 36,-83 6,-16 11,-27 17,-42 12,-28 31,-116 31,-147 0,-10 -1,-24 -3,-34 -2,-12 -5,-20 -6,-31 -13,-97 -9,-186 10,-267l-2 1c-27,25 -68,27 -80,-9 -14,-41 33,-52 53,-70 -16,-29 -28,-40 -53,-54 9,-23 23,-32 36,-48 -22,-11 -102,-31 -31,-89 1,-1 2,-1 4,-3 -54,-15 -57,-43 -83,-91 -36,8 -63,5 -79,-23 -23,-40 4,-60 16,-85 -41,-25 -74,-108 -131,-135 -11,16 -12,33 -31,42 -20,9 -41,3 -55,-13 -43,-48 22,-76 45,-93l-9 -37c-48,-7 -65,-29 -56,-81 -21,-17 -80,-43 -31,-112 -16,-18 -36,-31 -34,-75 2,-46 18,-47 44,-66 -41,-68 3,-126 80,-125 -1,-62 32,-95 97,-82 29,-45 33,-71 108,-43 13,-43 67,-52 98,-16 60,-39 53,-12 82,-7 23,4 16,-9 48,-5 23,3 20,11 38,20 68,-37 62,21 94,17 33,-11 7,-12 34,-33 25,-20 134,-38 184,-41 111,-4 169,58 234,59 5,-25 6,-8 9,-33 4,-46 -10,-112 78,-165 33,-20 30,-28 31,-71 -46,4 -87,7 -104,27 -4,-68 19,11 -3,-147 38,26 38,11 104,20 -9,-44 -38,-85 -42,-111 38,15 33,26 92,26 60,-1 63,-20 90,-25 -14,36 -36,64 -41,109l0 -1c58,-8 68,-3 102,-20 -10,90 -11,55 -1,146 -26,-13 -22,10 -46,-6 -18,-12 -36,-19 -59,-18 -1,87 24,40 81,114 14,18 26,48 28,72 6,61 -16,29 14,82 48,0 124,-63 225,-58 82,4 74,5 128,22 25,9 34,-1 58,18 21,17 13,26 39,36 43,-11 25,-51 94,-18 42,-41 51,-9 79,-13 31,-5 31,-37 81,5 48,-28 68,-38 108,13 52,-14 87,-11 99,47 68,-16 103,14 101,80 39,1 62,6 80,31 18,26 18,65 3,92 53,58 73,69 7,142 26,43 28,90 -28,108 4,33 1,58 -20,72 -48,33 -23,-15 -48,53 109,59 42,114 1,108 -29,-4 -31,-20 -38,-46 -65,23 -80,102 -135,134 10,24 38,48 18,85 -13,25 -44,37 -77,26 -18,21 -15,65 -85,93 0,1 67,44 8,77l-34 18c19,12 25,19 36,34 -5,8 -13,16 -22,24 39,92 60,198 60,320zm-1326 -653c9,-5 18,-10 27,-14 -12,0 -22,3 -27,14zm95 -44c3,-1 7,-3 10,-4 -7,-56 83,-91 111,-36 3,-1 6,-2 10,-2 -18,-14 -33,-33 -47,-46 19,-48 31,-37 55,-64 17,-19 12,-45 45,-74 45,23 54,73 100,87 -5,-21 -1,-10 -22,-27 -34,-29 -51,-64 -51,-117l24 -18c-23,-37 -38,-36 -71,-63 18,-48 42,-67 33,-137 -7,-50 -26,-77 -31,-144 -85,-48 -235,-82 -316,3 -28,30 -58,95 -42,155 16,63 55,95 85,129 -7,14 -15,26 -21,43 23,19 45,-4 45,43 0,30 -14,50 -18,75l-2 1c26,-9 54,-28 76,-33 6,17 11,21 16,41 10,37 -7,16 18,37 21,17 49,45 56,61 -14,9 -28,14 -41,27l-38 36c8,10 13,17 16,24zm541 -66c6,1 12,2 18,3 7,-2 15,-4 24,-4 16,0 30,6 40,15 6,1 12,3 18,4 -15,-14 -22,-25 -54,-39 11,-23 39,-50 54,-62 28,-23 10,7 20,-36 6,-24 6,-23 21,-41 9,4 50,21 60,27 36,20 12,41 44,46 -6,-23 -31,-36 -43,-77 -12,-42 -17,-86 37,-72 1,-23 -9,-36 -19,-54 27,-40 65,-58 82,-127 14,-56 -9,-125 -40,-157 -73,-75 -232,-63 -320,-9l-1 1c-1,79 -18,86 -28,148 -11,70 16,92 33,139 -39,31 -48,23 -72,63 8,9 50,12 9,91 -33,62 -41,35 -60,70 36,-5 70,-70 106,-86 31,29 27,53 45,73 18,21 33,15 53,63 -14,15 -17,12 -27,22zm349 120c13,8 26,16 38,25l0 -1c-11,-22 -26,-28 -38,-24zm60 41c9,7 18,14 27,21 5,-6 10,-13 17,-20 -9,-40 -34,-90 28,-105 48,-11 74,30 72,80 7,-12 12,-22 21,-36 -16,-9 -60,-61 -70,-78 17,-20 45,-45 86,-50 -2,-41 8,-50 25,-75 41,6 82,63 95,74 14,-46 -1,-58 -11,-99 39,9 78,46 111,48 26,-16 19,-26 64,-38 -7,-69 18,-55 36,-75 7,-8 4,-1 9,-16 7,-21 3,-38 38,-50 -11,-50 -7,-54 18,-87 -33,-48 -33,-36 -20,-106 -36,-23 -52,-48 -49,-98 -50,-1 -74,-28 -79,-72 -47,4 -66,-2 -76,-38 -45,14 -64,16 -87,-17 -57,27 -32,11 -80,5 -30,-4 -22,21 -79,-2l-24 21c6,31 73,119 60,206 -11,77 -77,112 -56,201 -55,4 -59,3 -91,41l0 1 56 6c-5,55 -32,73 -51,103 20,-14 31,-26 55,-33 25,38 9,54 16,79 9,28 26,25 28,80 -43,13 -32,32 -73,42 8,43 -4,61 -15,88zm-622 -881c34,0 63,28 63,63 0,34 -28,63 -63,63 -34,0 -63,-28 -63,-63 0,-34 28,-63 63,-63zm-787 916c4,-5 3,1 9,-16 2,-5 3,-9 4,-16 2,-14 1,-23 1,-37 11,23 21,26 34,43 -11,31 -26,63 -66,61 -42,-3 -66,-28 -52,-69 45,-17 46,7 70,33zm3 -83c0,0 -6,-8 -6,-8l6 8zm36 -50c-6,11 -1,5 -9,14 -13,14 1,1 -14,9 5,-15 9,-15 22,-22l1 -1zm1311 -127c12,-20 18,-21 41,-28l-17 17c-14,10 -7,6 -23,11zm-994 -65c-15,28 -6,36 -36,47 9,-26 1,-12 16,-28l19 -18 1 -1zm-530 -529c47,10 60,13 87,-18 65,23 50,1 80,3 38,3 16,23 76,-4 12,19 -3,6 21,17 -16,29 -35,58 -45,95 -8,28 -20,85 -15,115 13,89 73,102 57,205 52,-1 58,3 92,41 -75,-1 -67,15 -35,69 32,54 54,41 73,67 -28,-5 -60,-49 -105,-63 -4,15 -10,31 -11,48 -2,28 6,18 -2,36 -14,30 -15,9 -28,72 32,18 43,36 74,47 -6,44 -1,67 25,99 22,-28 17,-67 70,-45 23,66 -68,117 -120,32 4,-27 24,-51 1,-82 -18,-26 -43,-25 -77,-18l20 -38c-23,-24 -39,-43 -83,-48 4,-39 -7,-53 -29,-75 -44,17 -63,47 -92,75 -10,-57 4,-53 12,-100 -41,13 -72,41 -115,48 -24,-18 -16,-28 -59,-38 6,-49 -1,-59 -43,-75 1,-60 -15,-47 -38,-72 15,-38 3,-53 -18,-81 27,-31 36,-55 17,-107 38,-21 55,-41 51,-97 57,-4 69,-23 82,-74 40,11 60,-9 78,-34l1 -1z"/>
  <path class="fil2" d="M2159 1314c49,0 88,39 88,88 0,49 -39,88 -88,88 -49,0 -88,-39 -88,-88 0,-49 39,-88 88,-88z"/>
  <path class="fil2" d="M1459 2084c129,0 234,57 234,128 0,71 -105,128 -234,128 -129,0 -234,-57 -234,-128 0,-71 105,-128 234,-128z"/>
  <path class="fil2" d="M2845 2075c111,0 201,68 201,152 0,84 -90,152 -201,152 -111,0 -201,-68 -201,-152 0,-84 90,-152 201,-152z"/>
  <path class="fil2" d="M3034 1375c37,-34 379,50 386,193 7,142 -178,521 -367,561 -189,41 -923,135 -977,131 -54,-5 -719,86 -851,-52 -132,-138 -266,-431 -297,-534 -31,-103 103,-277 293,-329 190,-51 338,59 338,59 0,0 365,-18 414,-9 50,9 599,-45 599,-45l205 -19c0,0 254,-26 258,44z"/>
  <path class="fil3" d="M2925 2189l12 59c6,-4 2,-1 10,-9 16,-16 18,-36 58,-28 43,66 -81,122 -113,11 12,-20 29,-27 30,-31 1,-2 3,-2 2,-4l1 0zm-1558 452c2,-10 4,-20 6,-30l-2 1c-27,25 -68,27 -80,-9 -14,-41 33,-52 53,-70 -16,-29 -28,-40 -53,-54 9,-23 23,-32 36,-48 -22,-11 -102,-31 -31,-89 1,-1 2,-1 4,-3 -54,-15 -57,-43 -83,-91 -36,8 -63,5 -79,-23 -23,-40 4,-60 16,-85 -41,-25 -74,-108 -131,-135 -11,16 -12,33 -31,42 -20,9 -41,3 -55,-13 -43,-48 22,-76 45,-93l-9 -37c-48,-7 -65,-29 -56,-81 -21,-17 -80,-43 -31,-112 -16,-18 -36,-31 -34,-75 2,-46 18,-47 44,-66 -41,-68 3,-126 80,-125 -1,-62 32,-95 97,-82 29,-45 33,-71 108,-43 13,-43 67,-52 98,-16 60,-39 53,-12 82,-7 23,4 16,-9 48,-5 23,3 20,11 38,20 68,-37 62,21 94,17 33,-11 7,-12 34,-33 25,-20 134,-38 184,-41 111,-4 169,58 234,59 5,-25 6,-8 9,-33 4,-46 -10,-112 78,-165 33,-20 30,-28 31,-71 -46,4 -87,7 -104,27 -4,-68 19,11 -3,-147 38,26 38,11 104,20 -9,-44 -38,-85 -42,-111 38,15 33,26 92,26 60,-1 63,-20 90,-25 -14,36 -36,64 -41,109l0 -1c58,-8 68,-3 102,-20 -10,90 -11,55 -1,146 -26,-13 -22,10 -46,-6 -18,-12 -36,-19 -59,-18 -1,87 24,40 81,114 14,18 26,48 28,72 6,61 -16,29 14,82 48,0 124,-63 225,-58 82,4 74,5 128,22 25,9 34,-1 58,18 21,17 13,26 39,36 43,-11 25,-51 94,-18 42,-41 51,-9 79,-13 31,-5 31,-37 81,5 48,-28 68,-38 108,13 52,-14 87,-11 99,47 68,-16 103,14 101,80 39,1 62,6 80,31 18,26 18,65 3,92 53,58 73,69 7,142 26,43 28,90 -28,108 4,33 1,58 -20,72 -48,33 -23,-15 -48,53 109,59 42,114 1,108 -29,-4 -31,-20 -38,-46 -65,23 -80,102 -135,134 10,24 38,48 18,85 -13,25 -44,37 -77,26 -18,21 -15,65 -85,93 0,1 67,44 8,77l-34 18c19,12 25,19 36,34 -5,8 -13,16 -22,24 10,24 19,49 27,76 -222,-55 -462,-86 -714,-86 -343,0 -666,56 -949,156zm370 -479c9,-5 18,-10 27,-14 -12,0 -22,3 -27,14zm95 -44c3,-1 7,-3 10,-4 -7,-56 83,-91 111,-36 3,-1 6,-2 10,-2 -18,-14 -33,-33 -47,-46 19,-48 31,-37 55,-64 17,-19 12,-45 45,-74 45,23 54,73 100,87 -5,-21 -1,-10 -22,-27 -34,-29 -51,-64 -51,-117l24 -18c-23,-37 -38,-36 -71,-63 18,-48 42,-67 33,-137 -7,-50 -26,-77 -31,-144 -85,-48 -235,-82 -316,3 -28,30 -58,95 -42,155 16,63 55,95 85,129 -7,14 -15,26 -21,43 23,19 45,-4 45,43 0,30 -14,50 -18,75l-2 1c26,-9 54,-28 76,-33 6,17 11,21 16,41 10,37 -7,16 18,37 21,17 49,45 56,61 -14,9 -28,14 -41,27l-38 36c8,10 13,17 16,24zm541 -66c6,1 12,2 18,3 7,-2 15,-4 24,-4 16,0 30,6 40,15 6,1 12,3 18,4 -15,-14 -22,-25 -54,-39 11,-23 39,-50 54,-62 28,-23 10,7 20,-36 6,-24 6,-23 21,-41 9,4 50,21 60,27 36,20 12,41 44,46 -6,-23 -31,-36 -43,-77 -12,-42 -17,-86 37,-72 1,-23 -9,-36 -19,-54 27,-40 65,-58 82,-127 14,-56 -9,-125 -40,-157 -73,-75 -232,-63 -320,-9l-1 1c-1,79 -18,86 -28,148 -11,70 16,92 33,139 -39,31 -48,23 -72,63 8,9 50,12 9,91 -33,62 -41,35 -60,70 36,-5 70,-70 106,-86 31,29 27,53 45,73 18,21 33,15 53,63 -14,15 -17,12 -27,22zm349 120c13,8 26,16 38,25l0 -1c-11,-22 -26,-28 -38,-24zm60 41c9,7 18,14 27,21 5,-6 10,-13 17,-20 -9,-40 -34,-90 28,-105 48,-11 74,30 72,80 7,-12 12,-22 21,-36 -16,-9 -60,-61 -70,-78 17,-20 45,-45 86,-50 -2,-41 8,-50 25,-75 41,6 82,63 95,74 14,-46 -1,-58 -11,-99 39,9 78,46 111,48 26,-16 19,-26 64,-38 -7,-69 18,-55 36,-75 7,-8 4,-1 9,-16 7,-21 3,-38 38,-50 -11,-50 -7,-54 18,-87 -33,-48 -33,-36 -20,-106 -36,-23 -52,-48 -49,-98 -50,-1 -74,-28 -79,-72 -47,4 -66,-2 -76,-38 -45,14 -64,16 -87,-17 -57,27 -32,11 -80,5 -30,-4 -22,21 -79,-2l-24 21c6,31 73,119 60,206 -11,77 -77,112 -56,201 -55,4 -59,3 -91,41l0 1 56 6c-5,55 -32,73 -51,103 20,-14 31,-26 55,-33 25,38 9,54 16,79 9,28 26,25 28,80 -43,13 -32,32 -73,42 8,43 -4,61 -15,88zm-622 -881c34,0 63,28 63,63 0,34 -28,63 -63,63 -34,0 -63,-28 -63,-63 0,-34 28,-63 63,-63zm-787 916c4,-5 3,1 9,-16 2,-5 3,-9 4,-16 2,-14 1,-23 1,-37 11,23 21,26 34,43 -11,31 -26,63 -66,61 -42,-3 -66,-28 -52,-69 45,-17 46,7 70,33zm3 -83c0,0 -6,-8 -6,-8l6 8zm36 -50c-6,11 -1,5 -9,14 -13,14 1,1 -14,9 5,-15 9,-15 22,-22l1 -1zm1311 -127c12,-20 18,-21 41,-28l-17 17c-14,10 -7,6 -23,11zm-994 -65c-15,28 -6,36 -36,47 9,-26 1,-12 16,-28l19 -18 1 -1zm-530 -529c47,10 60,13 87,-18 65,23 50,1 80,3 38,3 16,23 76,-4 12,19 -3,6 21,17 -16,29 -35,58 -45,95 -8,28 -20,85 -15,115 13,89 73,102 57,205 52,-1 58,3 92,41 -75,-1 -67,15 -35,69 32,54 54,41 73,67 -28,-5 -60,-49 -105,-63 -4,15 -10,31 -11,48 -2,28 6,18 -2,36 -14,30 -15,9 -28,72 32,18 43,36 74,47 -6,44 -1,67 25,99 22,-28 17,-67 70,-45 23,66 -68,117 -120,32 4,-27 24,-51 1,-82 -18,-26 -43,-25 -77,-18l20 -38c-23,-24 -39,-43 -83,-48 4,-39 -7,-53 -29,-75 -44,17 -63,47 -92,75 -10,-57 4,-53 12,-100 -41,13 -72,41 -115,48 -24,-18 -16,-28 -59,-38 6,-49 -1,-59 -43,-75 1,-60 -15,-47 -38,-72 15,-38 3,-53 -18,-81 27,-31 36,-55 17,-107 38,-21 55,-41 51,-97 57,-4 69,-23 82,-74 40,11 60,-9 78,-34l1 -1z"/>
  <path class="fil4" d="M3030 2571c0,0 -287,-88 -859,-82 -572,6 -803,153 -803,153l-76 -37c0,0 267,-200 775,-209 509,-9 957,76 957,76l5 100z"/>
  <path class="fil4" d="M1302 2659c0,0 277,-117 846,-170 569,-53 815,70 815,70l71 -44c0,0 -286,-172 -793,-129 -507,43 -944,174 -944,174l5 100z"/>
 </g>
</svg>
