<?xml version="1.0" encoding="UTF-8"?>
<!DOCTYPE svg PUBLIC "-//W3C//DTD SVG 1.1//EN" "http://www.w3.org/Graphics/SVG/1.1/DTD/svg11.dtd">
<!-- Creator: CorelDRAW X7 -->
<svg xmlns="http://www.w3.org/2000/svg" xml:space="preserve" width="43.3492mm" height="43.3492mm" version="1.1" style="shape-rendering:geometricPrecision; text-rendering:geometricPrecision; image-rendering:optimizeQuality; fill-rule:evenodd; clip-rule:evenodd"
viewBox="0 0 4335 4335"
 xmlns:xlink="http://www.w3.org/1999/xlink">
 <defs>
  <style type="text/css">
   <![CDATA[
    .fil0 {fill:#803662}
    .fil3 {fill:#333333}
    .fil1 {fill:#FF9933}
    .fil4 {fill:#FFAA54}
    .fil2 {fill:#FFCC33}
   ]]>
  </style>
 </defs>
 <g id="Слой_x0020_1">
  <metadata id="CorelCorpID_0Corel-Layer"/>
  <path class="fil0" d="M2167 30c1181,0 2138,957 2138,2137 0,1181 -957,2138 -2138,2138 -1180,0 -2137,-957 -2137,-2138 0,-1180 957,-2137 2137,-2137z"/>
  <g id="_736707664">
   <g id="_409275864">
    <g>
     <g>
      <path class="fil1" d="M1379 813l1552 0 25 0c0,0 55,81 -31,149 -87,74 -180,420 -180,636 0,217 87,359 -49,445 -136,87 -328,81 -365,340 -37,260 -80,340 62,439 142,93 254,192 260,272 6,81 6,81 6,81l-260 0 -494 0 -260 0c0,0 0,0 6,-81 7,-80 118,-173 260,-272 142,-92 105,-173 62,-439 -37,-259 -229,-253 -365,-340 -136,-86 -49,-228 -49,-445 0,-216 -93,-562 -180,-636 -86,-74 -31,-149 -31,-149l25 0 6 0z"/>
      <path class="fil2" d="M2900 838c0,0 31,87 136,93 105,6 198,-87 179,173 -18,259 -148,519 -315,637 -167,117 -148,129 -161,191 -18,68 -6,192 105,192 112,0 136,-105 87,-136 -50,-31 -93,-111 37,-198 136,-87 402,-451 402,-711 0,-259 -359,-501 -476,-247l6 6zm-1465 0c0,0 -31,87 -136,93 -105,6 -198,-87 -179,173 18,259 148,519 315,637 167,117 148,129 161,191 18,68 6,192 -105,192 -112,0 -136,-105 -87,-136 50,-31 93,-111 -37,-198 -136,-87 -402,-451 -402,-711 0,-259 359,-501 476,-247l-6 6z"/>
      <path class="fil2" d="M1571 3150l31 0 1100 0 0 0 31 0 0 6c43,6 111,31 111,118 0,117 0,327 0,327l-278 0 -834 0 -278 0c0,0 0,-204 0,-327 0,-81 68,-106 111,-118l0 -6 6 0z"/>
     </g>
     <path class="fil3" d="M1454 3595l43 0 0 0 1341 0 0 0 43 0c0,0 -6,0 -6,0 44,6 118,25 142,68 19,37 37,68 44,93l-217 0 -1360 0 -216 0c6,-25 25,-56 43,-93 25,-49 99,-62 143,-68 0,0 -7,0 -7,0l7 0z"/>
    </g>
    <path class="fil4" d="M1466 869l1347 0c-129,303 -105,600 -92,921 -31,192 -408,408 -569,389 -167,-18 -538,-179 -538,-389 0,-439 -6,-495 -148,-921l0 0z"/>
    <g>
     <polygon class="fil2" points="1744,1135 2535,1135 2535,1580 1744,1580 "/>
     <polygon class="fil1" points="1781,1172 2498,1172 2498,1543 1781,1543 "/>
    </g>
    <polygon class="fil2" points="1812,1203 1812,1512 2473,1203 "/>
    <polygon class="fil1" points="1763,3329 2566,3329 2566,3471 1763,3471 "/>
   </g>
  </g>
 </g>
</svg>
