<?xml version="1.0" encoding="UTF-8"?>
<!DOCTYPE svg PUBLIC "-//W3C//DTD SVG 1.1//EN" "http://www.w3.org/Graphics/SVG/1.1/DTD/svg11.dtd">
<!-- Creator: CorelDRAW X6 -->
<svg xmlns="http://www.w3.org/2000/svg" xml:space="preserve" width="512px" height="512px" version="1.1" style="shape-rendering:geometricPrecision; text-rendering:geometricPrecision; image-rendering:optimizeQuality; fill-rule:evenodd; clip-rule:evenodd"
viewBox="0 0 512000 512000"
 xmlns:xlink="http://www.w3.org/1999/xlink">
 <defs>
  <style type="text/css">
   <![CDATA[
    .fil0 {fill:#5B5B5B}
    .fil6 {fill:#C5C6C6}
    .fil5 {fill:#EBECEC}
    .fil4 {fill:#25374B}
    .fil3 {fill:#33485D}
    .fil8 {fill:#DBA614}
    .fil7 {fill:#F4B304}
    .fil2 {fill:#F4C849}
    .fil1 {fill:#FFBA00}
   ]]>
  </style>
 </defs>
 <g id="Layer_x0020_1">
  <metadata id="CorelCorpID_0Corel-Layer"/>
  <g id="_500923616">
   <path class="fil0" d="M256000 6132c137998,0 249868,111870 249868,249868 0,137999 -111870,249868 -249868,249868 -137999,0 -249868,-111868 -249868,-249868 0,-137998 111868,-249868 249868,-249868z"/>
   <g>
    <g>
     <g>
      <g>
       <g>
        <polygon class="fil1" points="279059,415587 232940,415587 232940,361025 279059,361025 "/>
        <g>
         <path class="fil2" d="M149474 152682l213053 0 0 131881c0,57774 -47269,105043 -105043,105043l-2968 0c-57773,0 -105042,-47269 -105042,-105043l0 -131881z"/>
         <polygon class="fil1" points="136265,172771 375733,172771 375733,141413 136265,141413 "/>
        </g>
       </g>
       <polygon class="fil2" points="220924,407143 291075,407143 291075,440270 220924,440270 "/>
      </g>
      <path class="fil3" d="M338167 492026l0 -55004 -164336 0 0 55003c25735,8959 53379,13843 82168,13843 28787,0 56432,-4884 82167,-13841z"/>
      <path class="fil4" d="M220001 503276l71998 0c-11757,1697 -23773,2591 -35999,2591 -12227,0 -24242,-894 -35999,-2591z"/>
      <polygon class="fil5" points="191694,453911 320305,453911 320305,490284 191694,490284 "/>
      <polygon class="fil6" points="205334,466577 306664,466577 306664,477619 205334,477619 "/>
      <g>
       <path class="fil7" d="M151578 185719l-48378 0c0,0 -26140,-650 -26140,26140 0,26790 0,49524 0,49524 0,0 1457,31828 22243,42220 13761,6881 42033,14045 59577,18102l0 -42135 -7613 0c0,0 -16877,-2595 -19486,7146 -2610,9739 -2610,9739 -2610,9739 0,0 -36363,-1296 -36363,-35721 0,-34426 0,-42221 0,-42221 0,0 -3899,-19487 20135,-19487l45937 0 0 -13623c-2220,50 -4639,151 -7302,317z"/>
       <path class="fil7" d="M360422 185719l48377 0c0,0 26140,-650 26140,26140 0,26790 0,49524 0,49524 0,0 -1456,31828 -22243,42220 -13759,6881 -42034,14045 -59577,18102l0 -42135 7613 0c0,0 16877,-2595 19486,7146 2610,9739 2610,9739 2610,9739 0,0 36363,-1296 36363,-35721 0,-34426 0,-42221 0,-42221 0,0 3899,-19487 -20135,-19487l-45937 0 0 -13623c2220,50 4642,151 7303,317z"/>
      </g>
     </g>
     <path class="fil8" d="M256000 207693c29682,0 53745,24063 53745,53745 0,29684 -24063,53746 -53745,53746 -29684,0 -53746,-24063 -53746,-53746 0,-29682 24063,-53745 53746,-53745z"/>
     <path class="fil2" d="M256000 213569c26437,0 47869,21432 47869,47869 0,26437 -21432,47869 -47869,47869 -26438,0 -47870,-21432 -47870,-47869 0,-26437 21432,-47869 47870,-47869z"/>
    </g>
    <polygon class="fil8" points="256000,227590 264115,251251 289126,251658 269133,266689 276473,290601 256000,276230 235526,290601 242866,266689 222871,251658 247883,251251 "/>
   </g>
  </g>
 </g>
</svg>
