<?xml version="1.0" encoding="UTF-8"?>
<!DOCTYPE svg PUBLIC "-//W3C//DTD SVG 1.1//EN" "http://www.w3.org/Graphics/SVG/1.1/DTD/svg11.dtd">
<!-- Creator: CorelDRAW X7 -->
<svg xmlns="http://www.w3.org/2000/svg" xml:space="preserve" width="43.3492mm" height="43.3492mm" version="1.1" style="shape-rendering:geometricPrecision; text-rendering:geometricPrecision; image-rendering:optimizeQuality; fill-rule:evenodd; clip-rule:evenodd"
viewBox="0 0 4335 4335"
 xmlns:xlink="http://www.w3.org/1999/xlink">
 <defs>
  <style type="text/css">
   <![CDATA[
    .fil0 {fill:#D9DADA}
    .fil2 {fill:#111111}
    .fil9 {fill:#202D3A}
    .fil10 {fill:#272731}
    .fil3 {fill:#2B2B2B}
    .fil1 {fill:#2F3749}
    .fil19 {fill:#444444}
    .fil12 {fill:#48556F}
    .fil11 {fill:#5E5E5E}
    .fil13 {fill:#777777}
    .fil8 {fill:#AAAAAA}
    .fil20 {fill:url(#id0)}
    .fil6 {fill:url(#id1)}
    .fil4 {fill:url(#id2)}
    .fil15 {fill:url(#id3)}
    .fil7 {fill:url(#id4)}
    .fil17 {fill:url(#id5)}
    .fil18 {fill:url(#id6)}
    .fil5 {fill:url(#id7)}
    .fil21 {fill:url(#id8)}
    .fil14 {fill:url(#id9)}
    .fil16 {fill:url(#id10)}
   ]]>
  </style>
  <linearGradient id="id0" gradientUnits="userSpaceOnUse" x1="2650.06" y1="1758.18" x2="3445.62" y2="3330.5">
   <stop offset="0" style="stop-opacity:1; stop-color:#AAAAAA"/>
   <stop offset="1" style="stop-opacity:1; stop-color:#444444"/>
  </linearGradient>
  <linearGradient id="id1" gradientUnits="userSpaceOnUse" x1="1698.32" y1="2613.98" x2="1747.22" y2="2151.77">
   <stop offset="0" style="stop-opacity:1; stop-color:#111111"/>
   <stop offset="1" style="stop-opacity:1; stop-color:#114444"/>
  </linearGradient>
  <linearGradient id="id2" gradientUnits="userSpaceOnUse" x1="1049.69" y1="1415.31" x2="3321.83" y2="1415.31">
   <stop offset="0" style="stop-opacity:1; stop-color:#444444"/>
   <stop offset="1" style="stop-opacity:1; stop-color:#2B2B2B"/>
  </linearGradient>
  <linearGradient id="id3" gradientUnits="userSpaceOnUse" x1="2609.86" y1="2612.33" x2="2652.65" y2="2208.3">
   <stop offset="0" style="stop-opacity:1; stop-color:#222222"/>
   <stop offset="1" style="stop-opacity:1; stop-color:#225555"/>
  </linearGradient>
  <linearGradient id="id4" gradientUnits="userSpaceOnUse" xlink:href="#id1" x1="2606.8" y1="2613.98" x2="2655.71" y2="2151.77">
  </linearGradient>
  <linearGradient id="id5" gradientUnits="userSpaceOnUse" xlink:href="#id2" x1="1788.02" y1="2730.57" x2="1744.46" y2="3287.95">
  </linearGradient>
  <linearGradient id="id6" gradientUnits="userSpaceOnUse" xlink:href="#id2" x1="2591.98" y1="2730.57" x2="2549.19" y2="3287.95">
  </linearGradient>
  <linearGradient id="id7" gradientUnits="userSpaceOnUse" x1="1288.18" y1="1415.86" x2="3321.51" y2="1415.86">
   <stop offset="0" style="stop-opacity:1; stop-color:#5E5E5E"/>
   <stop offset="1" style="stop-opacity:1; stop-color:#2B2B2B"/>
  </linearGradient>
  <linearGradient id="id8" gradientUnits="userSpaceOnUse" xlink:href="#id0" x1="888.54" y1="1758.18" x2="1684.1" y2="3330.5">
  </linearGradient>
  <linearGradient id="id9" gradientUnits="userSpaceOnUse" x1="1990.56" y1="1365.29" x2="2155.6" y2="1365.29">
   <stop offset="0" style="stop-opacity:1; stop-color:#2F3749"/>
   <stop offset="1" style="stop-opacity:1; stop-color:#4D6291"/>
  </linearGradient>
  <linearGradient id="id10" gradientUnits="userSpaceOnUse" xlink:href="#id3" x1="2508.89" y1="2612.33" x2="2551.69" y2="2208.3">
  </linearGradient>
 </defs>
 <g id="Слой_x0020_1">
  <metadata id="CorelCorpID_0Corel-Layer"/>
  <path class="fil0" d="M2167 30c1181,0 2138,957 2138,2137 0,1181 -957,2138 -2138,2138 -1180,0 -2137,-957 -2137,-2138 0,-1180 957,-2137 2137,-2137z"/>
  <g id="_978264000">
   <g id="_465400568">
    <g>
     <g>
      <path class="fil1" d="M2156 593c97,0 177,20 177,44 0,24 -80,44 -177,44 -98,0 -178,-20 -178,-44 0,-24 80,-44 178,-44z"/>
      <path class="fil2" d="M672 3312c0,0 223,-94 348,-98 125,-4 284,-19 284,-19l271 -199 -92 -1264c0,0 -340,224 -465,389 -123,165 -391,1046 -347,1191l1 0z"/>
      <path class="fil2" d="M3655 3312c0,0 -223,-94 -348,-98 -126,-4 -285,-19 -285,-19l-270 -199 91 -1264c0,0 341,224 465,389 124,165 391,1046 348,1191l-1 0z"/>
      <path class="fil2" d="M3007 2087c0,0 141,211 151,378 11,167 -162,724 -162,724l-216 286 -1210 0c0,0 -220,-234 -280,-324 -61,-90 -113,-750 -113,-750 0,0 133,-472 282,-487 150,-15 1430,-177 1549,173l-1 0z"/>
      <path class="fil3" d="M2823 2115c0,0 194,50 165,306 -30,256 -249,1031 -249,1031 0,0 -466,3 -596,3 -130,0 -548,0 -548,0l-181 -662 -68 -384c0,0 51,-278 227,-324 177,-46 1251,30 1251,30l-1 0z"/>
      <path class="fil4" d="M3319 2030c0,0 21,-428 -49,-671 -70,-243 -243,-562 -535,-632 -292,-70 -621,-65 -718,-65 -98,0 -526,25 -752,361 -226,336 -215,950 -215,950 0,0 1028,401 2269,56l0 1z"/>
      <path class="fil5" d="M3320 1965c0,0 19,-383 -44,-600 -63,-218 -218,-503 -478,-566 -261,-63 -556,-58 -643,-58 -87,0 -471,22 -673,322 -201,301 -193,850 -193,850 0,0 920,359 2031,51l0 1z"/>
      <path class="fil2" d="M1877 2166c-152,-7 -291,-17 -291,-17 0,0 -182,23 -216,205 -34,183 154,257 302,262 148,6 279,-16 341,-57 127,-80 71,-384 -136,-394l0 1z"/>
      <path class="fil6" d="M1868 2177c-143,-6 -275,-16 -275,-16 0,0 -173,21 -205,194 -33,173 146,243 286,248 141,6 265,-16 324,-54 120,-76 67,-364 -130,-373l0 1z"/>
      <path class="fil2" d="M2477 2166c152,-7 291,-17 291,-17 0,0 182,23 216,205 34,183 -154,257 -302,262 -148,6 -279,-16 -341,-57 -127,-80 -71,-384 136,-394l0 1z"/>
      <path class="fil7" d="M2486 2177c143,-6 275,-16 275,-16 0,0 173,21 205,194 33,173 -146,243 -286,248 -141,6 -265,-16 -324,-54 -120,-76 -67,-364 130,-373l0 1z"/>
      <path class="fil8" d="M672 3306l324 -1037c0,0 194,-243 426,-243 232,0 495,126 495,126l267 -142 -216 -37c0,0 -379,-222 -594,-189 -216,32 -373,167 -492,535 -118,368 -280,934 -280,934l70 54 0 -1z"/>
      <path class="fil3" d="M683 3325l324 -1037c0,0 194,-243 426,-243 233,0 496,126 496,126l266 -142 -216 -38c0,0 -378,-221 -594,-189 -216,33 -373,168 -491,535 -119,368 -281,934 -281,934l71 55 -1 -1z"/>
      <path class="fil8" d="M3663 3316l-324 -1037c0,0 -194,-243 -426,-243 -232,0 -495,126 -495,126l-267 -143 216 -37c0,0 379,-222 594,-189 216,32 373,168 492,535 118,368 280,934 280,934l-70 54 0 0z"/>
      <path class="fil3" d="M3659 3325l-324 -1037c0,0 -194,-243 -427,-243 -232,0 -495,126 -495,126l-267 -142 217 -38c0,0 378,-221 594,-189 216,33 372,168 491,535 118,368 280,934 280,934l-70 55 1 -1z"/>
      <path class="fil9" d="M3663 3316c0,0 -236,-104 -409,-104 -173,0 -233,-16 -233,-16 0,0 130,-319 136,-502 5,-184 -15,-574 -15,-574 0,0 140,24 193,168 53,145 328,1028 328,1028l0 0z"/>
      <path class="fil9" d="M688 3316c0,0 236,-104 409,-104 173,0 232,-16 232,-16 0,0 -129,-319 -135,-502 -5,-184 15,-574 15,-574 0,0 -140,24 -193,168 -53,145 -328,1028 -328,1028l0 0z"/>
      <path class="fil10" d="M2704 3392c0,0 91,-110 153,-355 63,-244 63,-244 63,-244 0,0 -108,-70 -340,-70 -233,0 -356,81 -356,81 0,0 345,707 480,588l0 0z"/>
      <circle class="fil11" cx="2704" cy="3468" r="76"/>
      <circle class="fil11" cx="1624" cy="3468" r="76"/>
      <rect class="fil12" x="2116" y="2964" width="87.1232" height="434.08"/>
      <polygon class="fil12" points="2262,3393 2348,3393 2348,3116 2262,3024 "/>
      <polygon class="fil12" points="2416,3397 2503,3397 2503,3284 2416,3193 "/>
      <polygon class="fil12" points="2057,3393 1970,3393 1970,3116 2057,3024 "/>
      <polygon class="fil12" points="2348,3397 2262,3397 2262,3284 2348,3193 "/>
      <polygon class="fil12" points="1908,3397 1821,3397 1821,3284 1908,3193 "/>
      <polygon class="fil10" points="2074,2501 2250,2501 2250,2843 2074,2843 "/>
      <path class="fil13" d="M2116 2360l92 0c12,0 21,10 21,22l0 0c0,12 -10,21 -21,21l-92 0c-12,0 -22,-10 -22,-21l0 0c0,-13 10,-22 22,-22z"/>
      <path class="fil13" d="M2116 2287l92 0c12,0 21,10 21,21l0 0c0,13 -10,22 -21,22l-92 0c-12,0 -22,-10 -22,-22l0 0c0,-12 10,-21 22,-21z"/>
      <path class="fil13" d="M2116 2214l92 0c12,0 21,10 21,21l0 0c0,12 -10,21 -21,21l-92 0c-12,0 -22,-10 -22,-21l0 0c0,-12 10,-21 22,-21z"/>
      <polygon class="fil1" points="1979,631 1979,2055 2155,2139 2333,2042 2333,631 "/>
      <polygon class="fil14" points="2155,2139 2156,593 2079,597 2020,609 1991,631 1991,2042 "/>
      <path class="fil15" d="M2504 2230c126,-5 241,-14 241,-14 0,0 151,19 179,170 29,152 -127,213 -250,217 -123,5 -232,-14 -284,-47 -104,-67 -58,-319 113,-326l1 0z"/>
      <path class="fil16" d="M1595 2230c127,-5 241,-14 241,-14 0,0 151,19 180,170 28,152 -128,213 -251,217 -123,5 -231,-14 -283,-47 -105,-67 -59,-319 113,-326l0 0z"/>
      <path class="fil17" d="M1577 3341c0,0 -70,-112 -99,-343 -29,-231 -29,-231 -29,-231 0,0 107,-52 319,-25 213,28 317,117 317,117 0,0 -399,607 -508,483l0 -1z"/>
      <path class="fil18" d="M2761 3341c0,0 70,-112 99,-343 29,-231 29,-231 29,-231 0,0 -107,-52 -319,-25 -213,28 -317,117 -317,117 0,0 399,607 508,483l0 -1z"/>
      <path class="fil2" d="M2311 2987l0 -196c0,0 -25,-101 -145,-101 -120,0 -152,101 -152,101l0 190 297 6 0 0z"/>
      <path class="fil2" d="M2265 2942l0 -136c0,0 -18,-70 -101,-70 -83,0 -105,70 -105,70l0 131 206 5z"/>
      <path class="fil11" d="M2289 2966l0 -168c0,0 -22,-86 -125,-86 -102,0 -130,86 -130,86l0 162 254 6 1 0z"/>
      <path class="fil19" d="M2250 2927l0 -117c0,0 -15,-59 -86,-59 -71,0 -90,59 -90,59l0 113 176 4 0 0z"/>
     </g>
     <path class="fil20" d="M3658 3298c0,0 -273,-1123 -413,-1248 -140,-125 -162,-208 -412,-188 -249,20 -470,129 -470,129 0,0 299,-173 475,-195 177,-21 421,34 530,321 109,287 365,1144 365,1144l-76 36 1 1z"/>
     <path class="fil21" d="M677 3298c0,0 273,-1123 413,-1248 140,-125 162,-208 411,-188 250,20 471,129 471,129 0,0 -299,-173 -475,-195 -177,-21 -421,34 -530,321 -109,287 -365,1144 -365,1144l76 36 -1 1z"/>
    </g>
    <path class="fil19" d="M1625 3421c28,0 50,22 50,50 0,27 -22,49 -50,49 -27,0 -49,-22 -49,-49 0,-28 22,-50 49,-50z"/>
    <path class="fil19" d="M2704 3421c27,0 49,22 49,50 0,27 -22,49 -49,49 -28,0 -50,-22 -50,-49 0,-28 22,-50 50,-50z"/>
   </g>
  </g>
 </g>
</svg>
