<?xml version="1.0" encoding="UTF-8"?>
<!DOCTYPE svg PUBLIC "-//W3C//DTD SVG 1.1//EN" "http://www.w3.org/Graphics/SVG/1.1/DTD/svg11.dtd">
<!-- Creator: CorelDRAW X7 -->
<svg xmlns="http://www.w3.org/2000/svg" xml:space="preserve" width="43.3492mm" height="43.3492mm" version="1.1" style="shape-rendering:geometricPrecision; text-rendering:geometricPrecision; image-rendering:optimizeQuality; fill-rule:evenodd; clip-rule:evenodd"
viewBox="0 0 4335 4335"
 xmlns:xlink="http://www.w3.org/1999/xlink">
 <defs>
  <style type="text/css">
   <![CDATA[
    .fil0 {fill:#EBECEC}
    .fil2 {fill:#2B2A29}
    .fil5 {fill:#434242}
    .fil4 {fill:#DA7C2A}
    .fil1 {fill:#EBECEC}
    .fil3 {fill:#EF7F1A}
   ]]>
  </style>
 </defs>
 <g id="Слой_x0020_1">
  <metadata id="CorelCorpID_0Corel-Layer"/>
  <path class="fil0" d="M2167 30c1181,0 2138,957 2138,2137 0,1181 -957,2138 -2138,2138 -1180,0 -2137,-957 -2137,-2138 0,-1180 957,-2137 2137,-2137z"/>
  <g id="_736694608">
   <g id="_538529088">
    <g>
     <path class="fil1" d="M2174 1609c243,0 443,75 443,162 0,69 -112,125 -275,150 7,19 13,38 13,56 0,63 -38,113 -100,144 156,12 275,69 275,131 0,75 -157,131 -344,131 -193,0 -343,-62 -343,-131 0,-62 106,-112 250,-131 -63,-25 -107,-81 -107,-144 0,-18 7,-37 13,-56 -156,-25 -262,-81 -262,-150 0,-87 199,-162 443,-162l-6 0z"/>
     <g>
      <g>
       <path class="fil2" d="M2180 2564l-6 0 -88 0c-37,0 -50,-6 -100,-50 -50,-50 -124,-81 -162,-106 -44,-25 -50,-69 -50,-87 0,-19 13,-19 13,-63 0,-50 -13,-206 -13,-206 0,0 0,0 38,13 37,12 87,37 87,37 0,0 0,0 -50,-44 -50,-43 -119,-37 -162,-99 -50,-69 -19,-163 0,-188 12,-31 6,-93 -25,-156 -19,-43 -44,-168 -13,-249 50,-144 269,-250 531,-250l0 0 0 0 0 0 0 0 0 0 0 0 0 0 0 0 0 0c262,0 481,106 531,250 37,81 12,206 -13,249 -31,63 -37,125 -25,156 13,32 44,125 0,188 -50,68 -118,62 -162,99 -50,44 -50,44 -50,44 0,0 50,-25 87,-37 38,-13 38,-13 38,-13 0,0 -13,156 -13,206 0,50 13,50 13,63 0,18 -13,62 -50,87 -44,25 -119,56 -163,106 -49,50 -56,50 -99,50l-88 0 -6 0zm0 -512c6,0 6,6 12,6 0,0 0,0 0,0 0,0 0,0 0,0 0,0 7,0 7,0 0,0 0,0 0,0 0,0 0,0 6,0 0,0 0,0 0,0 19,0 37,-18 37,-37 0,0 0,0 0,0 0,-44 -56,-75 -68,-87l0 0 0 0 0 0 0 0c-13,12 -69,43 -69,87 0,0 0,0 0,0 0,19 19,37 37,37 0,0 0,0 0,0 0,0 0,0 7,0 0,0 0,0 0,0 0,0 6,0 6,0 0,0 0,0 0,0 0,0 0,0 0,0 6,0 12,-6 12,-6l0 0 13 0zm-225 -318c25,0 50,19 50,50 0,25 -19,50 -50,50 -25,0 -50,-19 -50,-50 0,-25 19,-50 50,-50zm443 0c25,0 50,19 50,50 0,25 -18,50 -50,50 -25,0 -49,-19 -49,-50 0,-25 18,-50 49,-50zm-418 487c-87,-25 -87,-31 -87,-31 0,0 37,106 181,149 87,25 125,25 212,0 144,-37 181,-149 181,-149 0,0 -6,6 -87,31 -75,25 -319,25 -394,0l-6 0zm406 -550c-94,0 -119,13 -119,82 0,68 25,131 119,131 94,0 169,-56 169,-131 0,-69 -75,-82 -169,-82zm-418 0c93,0 118,13 118,82 0,68 -25,131 -118,131 -94,0 -169,-56 -169,-131 0,-69 75,-82 169,-82z"/>
       <path class="fil3" d="M2623 1247l262 -456c0,0 -25,-37 -50,-19 -25,19 -174,94 -268,119 -94,25 -175,-31 -250,-112 -37,-38 -68,-100 -93,-119 -7,-12 -25,-31 -50,-25 -25,0 -44,19 -50,25 -19,19 -56,81 -94,119 -75,81 -156,137 -250,112 -93,-25 -243,-100 -268,-119 -25,-18 -50,19 -50,19l262 456c194,-81 706,-81 899,0l0 0z"/>
      </g>
      <path class="fil4" d="M2174 866c75,0 131,63 131,131 0,75 -63,131 -131,131 -75,0 -131,-62 -131,-131 0,-75 62,-131 131,-131z"/>
     </g>
    </g>
    <path class="fil5" d="M2261 2858l6 -7 7 0 12 -6 6 0 13 -6 6 -6 6 -7 13 -6 0 0 19 -12 0 0 12 -7 0 0 12 -6 7 0 12 -6 6 0 13 -6 0 0 12 -7 0 0 19 -12 0 0 13 -6 6 -7 6 -6 13 -6 6 0 12 -6 7 0 12 -7 13 -6 0 0 12 -6 6 -6 0 0 7 -6 6 -7 0 0 6 -6 6 -6 7 0 6 0 0 0 0 0 0 0 0 0 518 -306c94,-56 87,-262 144,-269 56,-6 106,32 106,94 6,187 -7,169 156,262 56,31 62,94 31,138 -31,43 -225,-82 -318,-25l-519 306 0 0 0 0 0 0 0 0 -6 0 -6 0 -6 6 -7 6 0 0 -6 6 -6 7 0 0 -6 6 -13 6 0 0 -12 6 -13 6 -6 0 -13 7 -6 0 -12 6 -6 6 -7 6 -12 7 0 0 -19 12 0 0 -12 6 0 0 -13 7 -6 0 -13 6 -6 0 -12 6 -225 -137 6 -6zm281 268l144 87c93,57 274,-50 306,-6 31,44 24,106 -32,138 -162,93 -150,74 -156,262 0,62 -56,100 -106,93 -56,-6 -37,-237 -131,-293l-312 -187 -525 -319 -6 7 -6 -7 -6 0 -13 -6 -12 -6 0 0 -13 -6 -6 -7 0 0 -6 -6 -6 -6 0 0 -7 -6 -6 -7 -6 0 -6 0 0 0 0 0 0 0 0 0 -519 -306c-93,-56 -287,69 -318,25 -31,-43 -25,-106 31,-137 163,-94 150,-75 156,-262 0,-63 56,-100 106,-94 57,6 50,212 144,269l518 306 0 0 0 0 0 0 0 0 6 0 7 0 6 6 6 6 0 0 6 6 7 7 0 0 6 6 12 6 0 0 13 6 12 7 7 0 12 6 6 0 13 6 6 6 6 6 13 7 0 0 19 12 0 0 6 6 6 7 0 0 12 6 7 0 12 6 6 0 13 6 0 0 12 7 0 0 19 12 0 0 13 6 6 7 6 6 13 6 6 0 12 6 7 0 12 7 13 6 0 0 12 6 6 6 0 0 7 7 6 6 0 0 6 6 6 6 7 0 6 0 0 0 0 0 0 0 0 0 6 7 368 218 0 0 19 25zm-456 100l-306 181c-93,56 -75,287 -131,293 -56,7 -106,-31 -106,-93 -6,-188 6,-169 -156,-262 -56,-32 -62,-94 -31,-138 31,-44 212,63 306,6l200 -118 224 137 0 -6z"/>
   </g>
  </g>
 </g>
</svg>
