<?xml version="1.0" encoding="UTF-8"?>
<!DOCTYPE svg PUBLIC "-//W3C//DTD SVG 1.1//EN" "http://www.w3.org/Graphics/SVG/1.1/DTD/svg11.dtd">
<!-- Creator: CorelDRAW X7 -->
<svg xmlns="http://www.w3.org/2000/svg" xml:space="preserve" width="43.3492mm" height="43.3492mm" version="1.1" style="shape-rendering:geometricPrecision; text-rendering:geometricPrecision; image-rendering:optimizeQuality; fill-rule:evenodd; clip-rule:evenodd"
viewBox="0 0 4335 4335"
 xmlns:xlink="http://www.w3.org/1999/xlink">
 <defs>
  <style type="text/css">
   <![CDATA[
    .fil0 {fill:#393185}
    .fil14 {fill:black}
    .fil19 {fill:#333333}
    .fil16 {fill:#4D4D4D}
    .fil18 {fill:#666666}
    .fil11 {fill:#E6E6E6}
    .fil3 {fill:url(#id0)}
    .fil13 {fill:url(#id1)}
    .fil4 {fill:url(#id2)}
    .fil8 {fill:url(#id3)}
    .fil7 {fill:url(#id4)}
    .fil2 {fill:url(#id5)}
    .fil15 {fill:url(#id6)}
    .fil9 {fill:url(#id7)}
    .fil1 {fill:url(#id8)}
    .fil6 {fill:url(#id9)}
    .fil5 {fill:url(#id10)}
    .fil17 {fill:url(#id11)}
    .fil10 {fill:url(#id12)}
    .fil12 {fill:url(#id13)}
   ]]>
  </style>
  <linearGradient id="id0" gradientUnits="userSpaceOnUse" x1="2192.43" y1="3768.99" x2="2192.43" y2="2757.9">
   <stop offset="0" style="stop-opacity:1; stop-color:#1A1A1A"/>
   <stop offset="1" style="stop-opacity:1; stop-color:#CCCCCC"/>
  </linearGradient>
  <linearGradient id="id1" gradientUnits="userSpaceOnUse" x1="2424.51" y1="2770.14" x2="1958.75" y2="3688.45">
   <stop offset="0" style="stop-opacity:1; stop-color:#CCCCCC"/>
   <stop offset="1" style="stop-opacity:1; stop-color:#FEFEFE"/>
  </linearGradient>
  <linearGradient id="id2" gradientUnits="userSpaceOnUse" xlink:href="#id0" x1="2161.82" y1="3827.36" x2="2161.82" y2="1691.15">
  </linearGradient>
  <linearGradient id="id3" gradientUnits="userSpaceOnUse" xlink:href="#id0" x1="2161.82" y1="3590.24" x2="2161.82" y2="3347.72">
  </linearGradient>
  <linearGradient id="id4" gradientUnits="userSpaceOnUse" xlink:href="#id0" x1="2311.88" y1="1669.23" x2="2311.88" y2="513.79">
  </linearGradient>
  <linearGradient id="id5" gradientUnits="userSpaceOnUse" xlink:href="#id0" x1="2162.43" y1="2763.57" x2="2162.43" y2="1596.9">
  </linearGradient>
  <linearGradient id="id6" gradientUnits="userSpaceOnUse" x1="2148.13" y1="2111.75" x2="2174.7" y2="1765.34">
   <stop offset="0" style="stop-opacity:1; stop-color:black"/>
   <stop offset="1" style="stop-opacity:1; stop-color:#4D4D4D"/>
  </linearGradient>
  <linearGradient id="id7" gradientUnits="userSpaceOnUse" xlink:href="#id0" x1="2159.41" y1="3781.19" x2="2159.41" y2="3221.22">
  </linearGradient>
  <linearGradient id="id8" gradientUnits="userSpaceOnUse" xlink:href="#id0" x1="2165.84" y1="3827.59" x2="2165.84" y2="507.55">
  </linearGradient>
  <linearGradient id="id9" gradientUnits="objectBoundingBox" xlink:href="#id0" x1="49.9364%" y1="99.7617%" x2="49.9364%" y2="0.000956591%">
  </linearGradient>
  <linearGradient id="id10" gradientUnits="userSpaceOnUse" xlink:href="#id0" x1="2161.82" y1="2090.07" x2="2161.82" y2="1770.93">
  </linearGradient>
  <linearGradient id="id11" gradientUnits="userSpaceOnUse" x1="1408.58" y1="1124.52" x2="3205.52" y2="1124.52">
   <stop offset="0" style="stop-opacity:1; stop-color:white"/>
   <stop offset="1" style="stop-opacity:1; stop-color:#CCCCCC"/>
  </linearGradient>
  <linearGradient id="id12" gradientUnits="userSpaceOnUse" xlink:href="#id0" x1="2159.41" y1="3645.84" x2="2159.41" y2="3356.59">
  </linearGradient>
  <radialGradient id="id13" gradientUnits="userSpaceOnUse" gradientTransform="matrix(1.72508 -0 -0 1.78317 -1568 -1708)" cx="2162.81" cy="2180.64" r="1484.97" fx="2162.81" fy="2180.64">
   <stop offset="0" style="stop-opacity:1; stop-color:#CCCCCC"/>
   <stop offset="1" style="stop-opacity:1; stop-color:white"/>
  </radialGradient>
 </defs>
 <g id="Слой_x0020_1">
  <metadata id="CorelCorpID_0Corel-Layer"/>
  <path class="fil0" d="M2167 30c1181,0 2138,957 2138,2137 0,1181 -957,2138 -2138,2138 -1180,0 -2137,-957 -2137,-2138 0,-1180 957,-2137 2137,-2137z"/>
  <g id="_912365872">
   <g id="_462614136">
    <g>
     <path class="fil1" d="M3571 2906l0 0c-9,11 -18,21 -27,31 -45,52 -133,164 -170,267 -50,140 -74,322 -120,398 -47,76 -282,157 -393,199 -111,41 -181,29 -258,5 -76,-23 -422,-170 -422,-170l-8 -5 -8 5c0,0 -346,147 -422,170 -77,24 -147,36 -258,-5 -111,-42 -346,-124 -392,-199 -47,-77 -70,-258 -121,-398 -30,-83 -92,-171 -139,-229 -100,-74 -166,-204 -166,-352 0,-178 96,-329 231,-389 -9,-49 -14,-100 -14,-153 0,-193 68,-368 176,-492 0,-1 -2,-2 -3,-3 0,0 -36,-329 128,-625 165,-296 505,-454 945,-454 8,0 17,1 25,1 9,0 18,-1 26,-1 439,0 779,158 944,454 150,268 134,563 129,616 115,125 187,304 187,503 0,52 -5,101 -13,149 139,57 240,211 240,394 0,109 -37,208 -95,282l0 0 -2 1z"/>
     <path class="fil2" d="M3386 2229c0,0 -37,166 -312,351 -276,184 -276,184 -276,184l-571 -327 -130 0 -545 321c0,0 -365,-193 -377,-256 -12,-64 -237,-269 -237,-269 0,0 -37,-263 28,-402 66,-137 125,-225 125,-225 0,0 105,110 221,112 116,1 673,26 673,26l301 2 761 -32 172 -117c0,0 236,201 168,632l-1 0z"/>
     <path class="fil3" d="M3211 3573c0,0 60,-176 4,-352 -57,-175 -322,-328 -475,-385 -147,-54 -291,-88 -548,-76 -256,-12 -401,22 -547,76 -153,57 -419,210 -475,385 -56,176 4,352 4,352 0,0 179,115 328,174 149,59 222,-10 347,-67 105,-47 281,-11 335,2l2 4c0,0 2,-1 7,-1 5,0 7,1 7,1l2 -4c54,-13 231,-49 335,-2 125,57 198,126 348,67 149,-58 327,-174 327,-174l-1 0z"/>
     <path class="fil4" d="M2032 1804l260 0c0,0 23,82 187,158 165,76 317,117 317,117 0,0 42,13 93,12 79,1 187,-28 191,-194 4,-182 23,-202 -8,-199 -133,-25 -768,34 -910,35 -142,-1 -778,-60 -911,-35 -29,-3 -11,17 -7,199 4,166 111,195 191,194 51,1 93,-12 93,-12 0,0 152,-41 316,-117 165,-77 188,-158 188,-158l0 0zm730 972l0 0c32,9 31,5 23,-3l8 3 0 0c61,17 0,0 0,0l-563 -331 0 0 -31 0 -74 0 -31 0 0 0 -563 331c0,0 -61,17 0,0l0 0 8 -3c-8,7 -9,12 23,3l0 0c214,-78 420,-107 600,-111 179,4 385,33 600,111zm474 214l36 -29 0 0 0 0 0 0 0 0 0 -1 0 0 0 -1 0 0 0 0 0 0 -1 -2 0 0 -1 -2 0 0 0 -1 0 0 -1 -2 0 0 -1 -1 0 0 -1 -3 0 0 -1 -2 0 0 0 -3 0 0 -1 -2 0 0 -1 -3 0 0 -2 -3 0 0 -1 -3 0 0 -2 -3 0 0 -1 -3 0 0 -2 -4 0 0 -2 -3 0 0 -1 -4 0 0 -2 -4 0 0 -1 -4 0 0 -2 -4 0 0 -2 -4 0 0 -3 -4 0 0 -2 -4 0 0 -3 -4 0 0 -2 -4 0 0 -3 -5 0 0 -2 -5 0 0 -2 -5 0 0 -3 -5 0 0 -2 -4 0 0 -3 -5 0 0 -3 -5 0 0 -3 -5 0 0 -3 -5 0 0 -4 -5 0 0 -3 -4 0 0c-1,-2 -2,-4 -3,-5l0 0 -3 -5 0 0c-1,-2 -3,-3 -3,-5l0 0 -4 -5 0 0 -3 -5 0 0c-1,-1 -2,-3 -3,-4l0 0c-1,-2 -3,-4 -3,-5l0 0c-2,-2 -3,-3 -4,-4l0 0 -4 -4 0 0c-2,-2 -3,-3 -4,-4l0 0c-2,-2 -3,-4 -4,-4l0 0c-2,-2 -3,-3 -4,-4l0 0c-2,-2 -3,-3 -5,-4l0 0c-1,-2 -2,-3 -4,-4l0 0c-1,-2 -2,-3 -4,-4l0 0c-1,-2 -2,-3 -4,-4l0 0c-1,-2 -2,-3 -4,-4l0 0c-1,-1 -3,-3 -4,-4l0 0c-1,-1 -3,-2 -4,-3l0 0c-1,-1 -3,-2 -4,-3l0 0c-1,-1 -3,-3 -5,-3l0 0c-1,-1 -3,-3 -4,-4l0 0c-2,0 -4,-1 -5,-3l0 0 -43 31 0 0 0 0 0 0 0 0 0 0 0 0 0 0 0 0 1 0 0 0 1 1 0 0 1 0 0 0 0 1 0 0 1 1 0 0 1 1 0 0 1 1 0 0 1 0 0 0 0 1 0 0 1 1 0 0 2 1 0 0 1 1 0 0 2 0 0 0 2 2 0 0 1 2 0 0 2 1 0 0 1 2 0 0 2 2 0 0 2 1 0 0 1 2 0 0 2 1 0 0 1 2 0 0 2 2 0 0 2 1 0 0 1 2 0 0 2 1 0 0 2 2 0 0 1 2 0 0 3 1 0 0 2 3 0 0 2 2 0 0 3 3 0 0 2 2 0 0 3 2 0 0 2 3 0 0 2 2 0 0 3 3 0 0 2 2 0 0 3 2 0 0 2 3 0 0 3 2 0 0 2 3 0 0 2 2 0 0 3 3 0 0 2 2 0 0 3 2 0 0 2 3 0 0 2 2 0 0 3 3 0 0 2 2 0 0 2 2 0 0 2 3 0 0 1 2 0 0 2 3 0 0 1 2 0 0 2 3 0 0 2 2 0 0 1 2 0 0 2 3 0 0 1 2 0 0 2 3 0 0 2 2 0 0 1 2 0 0 2 3 0 0 2 2 0 0 1 3 0 0 2 2 0 0 1 3 0 0 2 2 0 0 2 2 0 0 1 3 0 0 2 2 0 0 1 3 0 0 2 2 0 0 2 2 0 0 1 3 0 0 2 2 0 0 1 3 0 0 2 2 0 0 2 3 0 0 1 2 0 0 2 2 0 0 1 3 0 0 1 2 0 0 0 3 0 0 1 2 0 0 1 2 0 0 1 3 0 0 1 2 0 0 0 2 0 0 1 2 0 0 1 1 0 0 1 2 0 0 1 1 0 0 0 2 0 0 1 2 0 0 1 1 0 0 1 2 0 0 1 1 0 0 0 2 0 0 1 2 0 0 1 1 0 0 1 2 0 0 1 1 0 0 0 2 0 0 1 2 0 0 1 0 0 0 1 1 0 0 1 1 0 0 0 1 0 0 1 1 0 0 1 1 0 0 0 0 0 0 0 1 0 0 0 1 0 0 0 1 0 0 0 1 0 0 0 0 0 0 0 0 0 0 0 0 0 0 0 0 0 0 0 0 0 0 0 0 0 0 0 0 0 0 -3 6zm36 -29l0 0 0 0zm-2021 -192l0 0 0 0 0 0 0 0 0 0 0 0 0 0 0 0 0 0 0 0 -1 0 0 0 -1 1 0 0 -1 1 0 0 -1 1 0 0 0 0 0 0 -1 1 0 0 -1 1 0 0 -1 1 0 0 -1 1 0 0 -1 0 0 0 -1 1 0 0 -2 1 0 0 -1 1 0 0 -2 2 0 0 -2 1 0 0 -1 2 0 0 -2 1 0 0 -1 2 0 0 -2 2 0 0 -2 1 0 0 -1 2 0 0 -2 1 0 0 -1 2 0 0 -2 2 0 0 -2 1 0 0 -1 2 0 0 -2 1 0 0 -2 2 0 0 -2 2 0 0 -2 2 0 0 -3 3 0 0 -2 2 0 0 -3 2 0 0 -2 3 0 0 -2 2 0 0 -3 3 0 0 -2 2 0 0 -3 2 0 0 -2 3 0 0 -3 2 0 0 -2 3 0 0 -2 2 0 0 -3 3 0 0 -2 2 0 0 -3 2 0 0 -2 3 0 0 -2 2 0 0 -3 3 0 0 -2 2 0 0 -3 2 0 0 -1 3 0 0 -2 2 0 0 -2 3 0 0 -1 2 0 0 -2 3 0 0 -1 2 0 0 -2 2 0 0 -2 3 0 0 -1 2 0 0 -2 3 0 0 -1 2 0 0 -2 2 0 0 -2 3 0 0 -1 2 0 0 -2 3 0 0 -1 2 0 0 -2 3 0 0 -2 2 0 0 -1 2 0 0 -2 3 0 0 -2 2 0 0 -1 3 0 0 -2 2 0 0 -1 2 0 0 -2 3 0 0 -2 2 0 0 -1 3 0 0 -2 2 0 0 -1 3 0 0 -2 2 0 0 -2 2 0 0 -1 3 0 0 -1 2 0 0 -1 3 0 0 -1 2 0 0 0 2 0 0 -1 3 0 0 -1 2 0 0 -1 3 0 0 -1 1 0 0 -1 2 0 0 0 2 0 0 -1 1 0 0 -1 2 0 0 -1 1 0 0 -1 2 0 0 0 2 0 0 -1 1 0 0 -1 2 0 0 -1 1 0 0 -1 2 0 0 0 2 0 0 -1 1 0 0 -1 2 0 0 -1 1 0 0 -1 2 0 0 0 1 0 0 -1 1 0 0 -1 1 0 0 -1 0 0 0 -1 1 0 0 0 1 0 0 0 1 0 0 0 1 0 0 0 0 0 0 0 1 0 0 0 1 0 0 0 1 0 0 0 0 0 0 0 0 0 0 0 0 0 0 0 0 0 0 0 0 0 0 0 0 0 0 -37 -29 0 0 0 0 0 0 0 0 0 -1 0 0 0 -1 0 0 0 -1 0 0 1 -1 0 0 1 -2 0 0 1 -1 0 0 1 -2 0 0 0 -2 0 0 1 -2 0 0 1 -3 0 0 1 -2 0 0 1 -2 0 0 0 -3 0 0 2 -3 0 0 2 -3 0 0 1 -3 0 0 2 -4 0 0 1 -3 0 0 2 -3 0 0 2 -4 0 0 1 -4 0 0 2 -4 0 0 1 -4 0 0 3 -4 0 0 2 -4 0 0 3 -4 0 0 2 -4 0 0 3 -4 0 0 2 -5 0 0 2 -5 0 0 3 -5 0 0 2 -5 0 0 3 -5 0 0 2 -4 0 0 3 -5 0 0 4 -5 0 0 3 -5 0 0 3 -5 0 0 3 -5 0 0c1,-1 3,-3 3,-4l0 0 4 -5 0 0c0,-2 2,-3 3,-5l0 0 3 -5 0 0 3 -5 0 0 4 -5 0 0c0,-1 2,-3 3,-4l0 0c1,-2 2,-4 4,-4l0 0 4 -4 0 0c1,-2 2,-4 4,-4l0 0c1,-2 2,-4 4,-5l0 0c1,-1 2,-2 4,-4l0 0c2,-1 2,-2 4,-4l0 0c2,-1 2,-2 4,-4l0 0c2,-1 2,-2 4,-4l0 0c2,-1 2,-2 4,-4l0 0c2,-1 2,-2 4,-4l0 0c2,0 3,-2 4,-3l0 0c2,-1 3,-2 4,-3l0 0c2,-1 3,-3 4,-3l0 0c2,-1 3,-3 5,-4l0 0c2,0 3,-2 5,-3l0 0c1,-1 3,-1 5,-3l0 0 42 31 4 5zm-294 -291l0 0 0 0 0 0 0 0 0 0 0 0 0 0 0 0 0 0 0 0 0 0 0 0 0 0 -1 0 0 0 0 0 0 0 -1 0 0 0 -1 1 0 0 -1 1 0 0 -1 1 0 0 0 1 0 0 -1 0 0 0 -1 1 0 0 -1 1 0 0 -1 1 0 0 0 1 0 0 -1 0 0 0 -1 1 0 0 -1 1 0 0 -1 1 0 0 -2 1 0 0 -2 0 0 0 -1 1 0 0 -2 1 0 0 -1 1 0 0 -2 1 0 0 -2 0 0 0 -1 2 0 0 -2 2 0 0 -2 1 0 0 -1 2 0 0 -2 2 0 0 -1 1 0 0 -2 2 0 0 -2 1 0 0 -1 2 0 0 -2 2 0 0 -1 1 0 0 -2 2 0 0 -2 1 0 0 -1 2 0 0 -2 2 0 0 -1 1 0 0 -2 2 0 0 -2 1 0 0 -1 2 0 0 -2 2 0 0 -2 1 0 0 -1 2 0 0 -2 2 0 0 -1 1 0 0 -2 2 0 0 -2 1 0 0 -1 2 0 0 -2 2 0 0 -1 1 0 0 -2 2 0 0 -2 1 0 0 -1 2 0 0 -2 2 0 0 -1 1 0 0 -2 2 0 0 -2 1 0 0 -1 2 0 0 -2 2 0 0 -2 1 0 0 -1 2 0 0 -1 2 0 0 -1 1 0 0 -1 2 0 0 0 1 0 0 -1 2 0 0 -1 2 0 0 -1 1 0 0 -1 2 0 0 0 1 0 0 -1 2 0 0 -1 2 0 0 -1 1 0 0 -1 2 0 0 0 1 0 0 -1 2 0 0 -1 2 0 0 -1 1 0 0 -1 2 0 0 0 2 0 0 -1 1 0 0 -1 2 0 0 -1 1 0 0 -1 2 0 0 -1 2 0 0 0 1 0 0 -1 2 0 0 -1 1 0 0 -1 2 0 0 -1 2 0 0 0 1 0 0 -1 2 0 0 0 1 0 0 0 2 0 0 0 1 0 0 0 1 0 0 0 1 0 0 0 0 0 0 0 1 0 0 0 1 0 0 0 1 0 0 0 1 0 0 0 0 0 0 0 1 0 0 0 1 0 0 0 1 0 0 0 1 0 0 0 0 0 0 0 1 0 0 0 1 0 0 0 1 0 0 0 1 0 0 0 0 0 0 0 0 0 0 0 0 0 0 0 0 0 0 0 0 0 0 0 0 0 0 0 0 0 0 0 0 0 0 -19 -42 0 0 0 0 0 0 0 0 0 0 0 0 0 0 0 0 0 0 0 0 0 0 0 0 0 0 0 0 0 0 0 0 0 0 0 0 0 0 0 0 0 0 0 0 0 0 0 0 0 -1 0 0 0 -1 0 0 0 -1 0 0 0 -1 0 0 0 0 0 0 0 -1 0 0 0 -1 0 0 0 -1 0 0 0 -1 0 0 0 0 0 0 0 -1 0 0 0 -1 0 0 0 -1 0 0 0 -1 0 0 0 0 0 0 0 -1 0 0 0 -1 0 0 1 -1 0 0 1 -1 0 0 1 0 0 0 1 -2 0 0 0 -2 0 0 1 -1 0 0 1 -2 0 0 1 -1 0 0 1 -2 0 0 0 -2 0 0 1 -1 0 0 1 -2 0 0 1 -2 0 0 1 -1 0 0 0 -2 0 0 1 -1 0 0 1 -2 0 0 1 -2 0 0 1 -1 0 0 0 -2 0 0 1 -2 0 0 1 -3 0 0 2 -2 0 0 1 -2 0 0 2 -3 0 0 1 -2 0 0 2 -3 0 0 2 -2 0 0 1 -3 0 0 2 -2 0 0 2 -2 0 0 1 -3 0 0 2 -2 0 0 1 -3 0 0 2 -2 0 0 2 -2 0 0 1 -3 0 0 2 -2 0 0 1 -3 0 0 2 -2 0 0 2 -3 0 0 1 -2 0 0 2 -2 0 0 2 -3 0 0 1 -2 0 0 2 -3 0 0 1 -1 0 0 2 -2 0 0 2 -1 0 0 1 -2 0 0 2 -2 0 0 1 -1 0 0 2 -2 0 0 2 -2 0 0 1 -1 0 0 2 -2 0 0 1 -1 0 0 2 -2 0 0 2 -2 0 0 1 -1 0 0 2 -1 0 0 2 -1 0 0 1 -1 0 0 2 0 0 0 1 -1 0 0 2 -1 0 0 2 -1 0 0 1 -1 0 0 2 0 0 0 1 -1 0 0 2 -1 0 0 2 -1 0 0 1 -1 0 0 2 0 0 0 1 -1 0 0 1 -1 0 0 1 -1 0 0 1 -1 0 0 1 -1 0 0 0 0 0 0 1 0 0 0 1 0 0 0 1 0 0 0 1 0 0 0 1 0 0 0 0 0 0 0 1 0 0 0 1 0 0 0 1 0 0 0 1 0 0 0 0 0 0 0 1 0 0 0 0 0 0 0 0 0 0 0 0 0 0 0 0 0 0 0 0 0 0 0 0 0 0 0 0 0 0 0 11 34 0 0 5 4zm49 92l0 0 0 0 0 0 0 0 0 0 0 0 0 0 0 0 0 0 0 0 0 0 -1 1 0 0 -1 1 0 0 -1 1 0 0 -1 0 0 0 0 1 0 0 -1 1 0 0 -1 1 0 0 -1 1 0 0 -1 0 0 0 0 1 0 0 -1 1 0 0 -1 1 0 0 -1 1 0 0 -1 0 0 0 -2 2 0 0 -2 2 0 0 -1 1 0 0 -2 2 0 0 -2 2 0 0 -1 1 0 0 -2 2 0 0 -1 1 0 0 -2 2 0 0 -2 2 0 0 -1 1 0 0 -2 2 0 0 -1 1 0 0 -2 2 0 0 -2 2 0 0 -1 1 0 0 -2 2 0 0 -1 1 0 0 -2 2 0 0 -2 2 0 0 -1 1 0 0 -2 2 0 0 -2 2 0 0 -1 1 0 0 -2 2 0 0 -1 1 0 0 -2 2 0 0 -2 2 0 0 -1 1 0 0 -2 2 0 0 -1 1 0 0 -2 2 0 0 -2 2 0 0 -1 1 0 0 -2 2 0 0 -1 2 0 0 -2 1 0 0 -2 2 0 0 -1 1 0 0 -2 2 0 0 -2 2 0 0 -1 1 0 0 -2 2 0 0 -1 1 0 0 -1 2 0 0 -1 2 0 0 -1 1 0 0 -1 2 0 0 0 1 0 0 -1 2 0 0 -1 2 0 0 -1 1 0 0 -1 2 0 0 0 2 0 0 -1 1 0 0 -1 2 0 0 -1 1 0 0 -1 2 0 0 0 2 0 0 -1 1 0 0 -1 2 0 0 -1 1 0 0 -1 2 0 0 0 2 0 0 -1 1 0 0 -1 2 0 0 -1 1 0 0 -1 2 0 0 -1 2 0 0 0 1 0 0 -1 2 0 0 -1 2 0 0 -1 1 0 0 -1 2 0 0 0 1 0 0 -1 2 0 0 -1 2 0 0 -1 1 0 0 -1 2 0 0 0 1 0 0 -1 2 0 0 -1 2 0 0 -1 1 0 0 -1 2 0 0 0 1 0 0 -1 2 0 0 -1 2 0 0 -1 0 0 0 -1 1 0 0 0 1 0 0 -1 1 0 0 -1 1 0 0 -1 1 0 0 -1 0 0 0 0 1 0 0 -1 1 0 0 0 1 0 0 0 1 0 0 0 0 0 0 0 1 0 0 0 1 0 0 0 1 0 0 0 1 0 0 0 0 0 0 0 0 0 0 0 0 0 0 0 0 0 0 0 0 0 0 0 0 0 0 -27 -54 0 0 0 0 0 0 0 0 0 0 0 0 0 0 0 0 0 0 0 0 0 0 0 0 0 0 0 0 0 0 0 0 0 0 0 0 0 -1 0 0 0 -1 0 0 0 -1 0 0 0 -1 0 0 0 0 0 0 0 -1 0 0 0 -1 0 0 0 -1 0 0 0 -1 0 0 0 0 0 0 0 -1 0 0 0 -1 0 0 0 -1 0 0 1 -1 0 0 1 0 0 0 1 -1 0 0 0 -1 0 0 1 -1 0 0 1 -1 0 0 1 -1 0 0 1 -2 0 0 0 -2 0 0 1 -1 0 0 1 -2 0 0 1 -1 0 0 1 -2 0 0 0 -2 0 0 1 -1 0 0 1 -2 0 0 1 -1 0 0 1 -2 0 0 0 -2 0 0 1 -1 0 0 1 -2 0 0 1 -1 0 0 1 -2 0 0 0 -2 0 0 1 -1 0 0 1 -2 0 0 1 -2 0 0 1 -1 0 0 1 -2 0 0 0 -1 0 0 2 -2 0 0 2 -2 0 0 1 -3 0 0 2 -2 0 0 1 -3 0 0 2 -2 0 0 2 -3 0 0 1 -2 0 0 2 -2 0 0 1 -3 0 0 2 -2 0 0 2 -3 0 0 1 -2 0 0 2 -2 0 0 1 -3 0 0 2 -2 0 0 2 -3 0 0 1 -2 0 0 2 -3 0 0 2 -2 0 0 1 -2 0 0 2 -3 0 0 1 -2 0 0 2 -2 0 0 2 -1 0 0 1 -2 0 0 2 -2 0 0 1 -1 0 0 2 -2 0 0 2 -1 0 0 1 -2 0 0 2 -2 0 0 1 -1 0 0 2 -2 0 0 2 -2 0 0 1 -1 0 0 2 -2 0 0 2 -1 0 0 1 -2 0 0 2 -2 0 0 1 -1 0 0 2 -2 0 0 2 -1 0 0 1 -2 0 0 2 -2 0 0 1 -1 0 0 2 -2 0 0 2 -1 0 0 1 -1 0 0 2 -1 0 0 1 -1 0 0 2 -1 0 0 2 0 0 0 1 -1 0 0 2 -1 0 0 2 -1 0 0 1 -1 0 0 1 -1 0 0 1 0 0 0 1 -1 0 0 0 -1 0 0 1 -1 0 0 1 -1 0 0 1 0 0 0 1 -1 0 0 0 -1 0 0 1 -1 0 0 1 0 0 0 1 0 0 0 1 0 0 0 0 0 0 0 0 0 0 0 0 0 0 0 0 0 0 0 0 0 0 0 0 0 0 0 27 41 0 0 -2 13zm62 78l0 0 0 0 0 0 0 0 0 0 0 0 0 0 0 0 0 0 0 0 0 0 0 0 0 0 0 0 0 0 0 0 0 0 0 0 0 0 0 0 0 0 -1 0 0 0 -1 -1 0 0 -1 -1 0 0 -1 -1 0 0 0 -1 0 0 -1 0 0 0 -1 -1 0 0 -1 -1 0 0 -1 -1 0 0 0 -1 0 0 -1 0 0 0 -1 -1 0 0 -1 -1 0 0 -1 -1 0 0 0 -1 0 0 -1 -1 0 0 -1 0 0 0 -1 -1 0 0 -1 -1 0 0 0 -1 0 0 -1 -1 0 0 -1 0 0 0 -1 -1 0 0 -1 -1 0 0 0 -1 0 0 -1 -1 0 0 -1 0 0 0 -1 -1 0 0 -1 -1 0 0 -1 -1 0 0 0 -1 0 0 -1 0 0 0 -1 -1 0 0 -1 -1 0 0 -1 -1 0 0 0 -1 0 0 -1 0 0 0 -1 -1 0 0 -1 -1 0 0 -1 -1 0 0 0 -1 0 0 -1 0 0 0 -1 -1 0 0 0 -1 0 0 0 0 0 0 0 0 0 0 0 0 0 0 0 0 0 0 0 0 0 0 0 0 0 0 0 0 0 0 0 0 0 0 0 0 0 0 0 0 0 0 0 0 0 0 0 0 0 0 0 0 0 0 0 0 0 0 0 0 0 0 0 0 0 0 -1 0 0 0 -1 1 0 0 0 1 0 0 -1 0 0 0 -1 1 0 0 -1 1 0 0 -1 1 0 0 0 1 0 0 -1 0 0 0 -1 1 0 0 -1 1 0 0 -1 1 0 0 0 1 0 0 -1 0 0 0 -1 1 0 0 -2 1 0 0 -1 1 0 0 -2 1 0 0 -2 0 0 0 -1 2 0 0 -2 2 0 0 -1 1 0 0 -2 2 0 0 -2 1 0 0 -1 2 0 0 -2 2 0 0 -1 1 0 0 -2 2 0 0 -2 2 0 0 -1 1 0 0 -2 2 0 0 -1 1 0 0 -2 2 0 0 -2 2 0 0 -1 1 0 0 -2 2 0 0 -2 1 0 0 -1 2 0 0 -2 2 0 0 -1 1 0 0 -2 2 0 0 -2 1 0 0 -1 2 0 0 -2 3 0 0 -1 2 0 0 -2 2 0 0 -2 3 0 0 -1 2 0 0 -2 3 0 0 -1 2 0 0 -2 2 0 0 -2 3 0 0 -1 2 0 0 -2 3 0 0 -2 2 0 0 -1 3 0 0 -2 2 0 0 -1 2 0 0 -2 3 0 0 -2 2 0 0 -1 3 0 0 -2 2 0 0 -1 2 0 0 -2 3 0 0 -2 2 0 0 -1 3 0 0 -2 2 0 0 -1 3 0 0 -2 2 0 0 -2 2 0 0 -1 3 0 0 -2 2 0 0 -2 3 0 0 -1 2 0 0 -2 2 0 0 -1 3 0 0 -1 2 0 0 -1 3 0 0 -1 2 0 0 -1 3 0 0 0 2 0 0 -1 2 0 0 -1 3 0 0 -1 2 0 0 -1 3 0 0 0 2 0 0 -1 2 0 0 -1 3 0 0 -1 2 0 0 -1 3 0 0 0 1 0 0 -1 2 0 0 -1 2 0 0 -1 1 0 0 -1 2 0 0 0 1 0 0 -1 2 0 0 -1 2 0 0 -1 1 0 0 -1 2 0 0 -1 1 0 0 0 2 0 0 -1 2 0 0 -1 1 0 0 -1 2 0 0 -1 1 0 0 0 1 0 0 -1 1 0 0 -1 1 0 0 -1 1 0 0 -1 1 0 0 0 0 0 0 0 1 0 0 0 1 0 0 0 1 0 0 0 1 0 0 0 0 0 0 0 0 0 0 0 0 0 0 0 0 0 0 0 0 0 0 0 0 29 38 0 0 0 0 0 0 0 0 0 0 0 0 0 0 0 0 0 0 0 -1 0 0 0 0 0 0 0 -1 0 0 0 -1 0 0 0 -1 0 0 1 -1 0 0 1 0 0 0 1 -1 0 0 1 -1 0 0 0 -1 0 0 1 -1 0 0 1 -2 0 0 1 -2 0 0 1 -1 0 0 0 -2 0 0 1 -2 0 0 1 -1 0 0 1 -2 0 0 1 -1 0 0 1 -2 0 0 0 -2 0 0 1 -1 0 0 1 -2 0 0 1 -1 0 0 1 -2 0 0 0 -2 0 0 1 -3 0 0 1 -2 0 0 1 -3 0 0 1 -2 0 0 0 -3 0 0 1 -2 0 0 1 -2 0 0 1 -3 0 0 1 -2 0 0 0 -3 0 0 1 -2 0 0 1 -2 0 0 1 -3 0 0 1 -2 0 0 0 -3 0 0 2 -2 0 0 2 -3 0 0 1 -2 0 0 2 -2 0 0 1 -3 0 0 2 -2 0 0 2 -3 0 0 1 -2 0 0 2 -2 0 0 2 -3 0 0 1 -2 0 0 2 -3 0 0 1 -2 0 0 1 -3 0 0 1 -2 0 0 1 -2 0 0 1 -3 0 0 0 -1 0 0 1 -2 0 0 1 -2 0 0 2 -1 0 0 1 -2 0 0 2 -1 0 0 1 -2 0 0 2 -2 0 0 2 -2 0 0 1 -3 0 0 2 -2 0 0 2 -2 0 0 1 -3 0 0 2 -2 0 0 1 -3 0 0 2 -2 0 0 2 -2 0 0 1 -3 0 0 2 -2 0 0 1 -3 0 0 2 -2 0 0 2 -2 0 0 1 -1 0 0 2 -2 0 0 1 -2 0 0 2 -1 0 0 2 -2 0 0 1 -1 0 0 2 -2 0 0 2 -2 0 0 1 -1 0 0 2 -2 0 0 1 -1 0 0 2 -2 0 0 2 -2 0 0 1 -1 0 0 2 -2 0 0 1 -1 0 0 2 -2 0 0 2 -2 0 0 1 -1 0 0 2 -2 0 0 1 -2 0 0 2 -1 0 0 2 -2 0 0 1 -1 0 0 2 -2 0 0 1 -2 0 0 1 0 0 0 0 -1 0 0 1 -1 0 0 1 -1 0 0 1 -1 0 0 1 0 0 0 0 -1 0 0 1 -1 0 0 1 -1 0 0 1 -1 0 0 1 0 0 0 0 -1 0 0 1 -1 0 0 0 0 0 0 0 0 0 0 0 0 0 0 0 0 0 0 0 0 0 0 7 6zm90 68l0 0 0 0 0 0 0 0 0 0 0 0 0 0 0 0 0 0 -1 1 0 0 -1 1 0 0 -1 0 0 0 0 1 0 0 -1 1 0 0 -1 1 0 0 -1 1 0 0 -1 0 0 0 0 1 0 0 -1 1 0 0 -2 2 0 0 -1 1 0 0 -2 2 0 0 -2 2 0 0 -1 1 0 0 -2 2 0 0 -1 1 0 0 -2 2 0 0 -2 2 0 0 -1 1 0 0 -2 2 0 0 -2 1 0 0 -1 2 0 0 -2 2 0 0 -1 1 0 0 -2 2 0 0 -2 2 0 0 -1 1 0 0 -3 2 0 0 -2 1 0 0 -2 3 0 0 -3 2 0 0 -2 3 0 0 -3 2 0 0 -2 2 0 0 -3 3 0 0 -2 2 0 0 -2 3 0 0 -2 2 0 0 -2 3 0 0 -1 2 0 0 -2 2 0 0 -1 2 0 0 -2 2 0 0 -2 1 0 0 -1 2 0 0 -2 1 0 0 -1 2 0 0 -2 2 0 0 -2 1 0 0 -1 2 0 0 -2 1 0 0 -2 2 0 0 -1 2 0 0 -2 1 0 0 -1 2 0 0 -2 2 0 0 -2 1 0 0 0 2 0 0 -1 1 0 0 -1 2 0 0 -1 2 0 0 -1 1 0 0 0 2 0 0 -1 1 0 0 -1 2 0 0 -1 2 0 0 -1 1 0 0 -2 2 0 0 -2 1 0 0 -1 2 0 0 -2 2 0 0 -1 1 0 0 -2 3 0 0 -2 2 0 0 -1 3 0 0 -2 2 0 0 -2 2 0 0 -1 3 0 0 -2 2 0 0 -1 3 0 0 -2 2 0 0 -2 2 0 0 -1 3 0 0 -2 2 0 0 -1 3 0 0 -2 2 0 0 -2 3 0 0 -1 2 0 0 -2 2 0 0 -2 3 0 0 -1 2 0 0 -2 3 0 0 -1 2 0 0 -1 2 0 0 -1 3 0 0 -1 2 0 0 -1 3 0 0 0 1 0 0 -1 2 0 0 -1 2 0 0 -1 1 0 0 -1 2 0 0 0 1 0 0 -1 2 0 0 -1 2 0 0 -1 1 0 0 -1 2 0 0 0 1 0 0 -1 2 0 0 -1 2 0 0 -1 1 0 0 -1 1 0 0 0 1 0 0 -1 1 0 0 -1 1 0 0 -1 0 0 0 0 1 0 0 0 1 0 0 0 1 0 0 0 0 0 0 0 0 0 0 0 0 0 0 0 0 0 0 -29 -27 0 0 0 0 0 0 0 0 0 0 0 0 0 0 0 0 0 -1 0 0 0 0 0 0 0 -1 0 0 0 -1 0 0 0 -1 0 0 1 -1 0 0 1 0 0 0 1 -1 0 0 0 -1 0 0 1 -1 0 0 1 -2 0 0 1 -1 0 0 1 -2 0 0 0 -1 0 0 1 -2 0 0 1 -2 0 0 1 -1 0 0 1 -2 0 0 0 -1 0 0 1 -2 0 0 1 -2 0 0 1 -1 0 0 1 -2 0 0 0 -1 0 0 1 -3 0 0 1 -2 0 0 1 -3 0 0 1 -2 0 0 0 -3 0 0 1 -2 0 0 2 -2 0 0 1 -3 0 0 2 -2 0 0 2 -3 0 0 1 -2 0 0 2 -2 0 0 2 -3 0 0 1 -2 0 0 2 -3 0 0 1 -2 0 0 2 -3 0 0 2 -2 0 0 1 -2 0 0 2 -3 0 0 1 -2 0 0 2 -3 0 0 2 -2 0 0 1 -2 0 0 2 -3 0 0 1 -2 0 0 2 -3 0 0 2 -2 0 0 1 -3 0 0 2 -2 0 0 2 -2 0 0 1 -3 0 0 2 -2 0 0 1 -3 0 0 2 -2 0 0 2 -2 0 0 1 -3 0 0 2 -2 0 0 1 -3 0 0 2 -2 0 0 2 -3 0 0 1 -2 0 0 2 -2 0 0 2 -3 0 0 1 -2 0 0 2 -3 0 0 1 -2 0 0 2 -2 0 0 2 -2 0 0 1 -2 0 0 2 -1 0 0 1 -2 0 0 2 -2 0 0 2 -1 0 0 1 -2 0 0 2 -1 0 0 1 -2 0 0 2 -2 0 0 2 -1 0 0 1 -2 0 0 2 -1 0 0 2 -2 0 0 1 -2 0 0 2 -1 0 0 1 -2 0 0 2 -2 0 0 2 -1 0 0 1 -2 0 0 2 -1 0 0 1 -2 0 0 2 -2 0 0 2 0 0 0 1 -1 0 0 2 -1 0 0 1 -1 0 0 2 -1 0 0 2 0 0 0 1 -1 0 0 2 -1 0 0 2 -1 0 0 1 -1 0 0 1 0 0 0 1 -1 0 0 1 -1 0 0 0 -1 0 0 1 -1 0 0 1 0 0 0 1 -1 0 0 1 -1 0 0 0 -1 0 0 1 -1 0 0 1 0 0 0 1 0 0 0 1 0 0 0 0 0 0 0 0 0 0 0 0 0 0 0 0 0 0 0 0 0 0 0 0 0 0 0 30 21 0 0 10 -3zm2324 -81l19 -42 0 0 0 0 0 0 0 0 0 0 0 0 0 0 0 0 0 0 0 0 0 0 0 0 0 0 0 0 0 0 0 0 0 0 0 0 0 0 0 0 0 0 0 0 0 0 0 0 0 -1 0 0 0 -1 0 0 0 -1 0 0 0 0 0 0 0 -1 0 0 0 -1 0 0 0 -1 0 0 0 -1 0 0 0 0 0 0 0 -1 0 0 0 -1 0 0 0 -1 0 0 0 -1 0 0 0 -1 0 0 0 0 0 0 0 -1 0 0 0 -1 0 0 -1 -1 0 0 -1 -1 0 0 0 0 0 0 -1 -2 0 0 -1 -2 0 0 -1 -1 0 0 -1 -2 0 0 -1 -1 0 0 0 -2 0 0 -1 -2 0 0 -1 -1 0 0 -1 -2 0 0 -1 -1 0 0 0 -2 0 0 -1 -2 0 0 -1 -1 0 0 -1 -2 0 0 -1 -2 0 0 0 -1 0 0 -1 -2 0 0 -1 -2 0 0 -1 -3 0 0 -1 -2 0 0 -2 -2 0 0 -2 -3 0 0 -1 -2 0 0 -2 -3 0 0 -1 -2 0 0 -2 -2 0 0 -2 -3 0 0 -1 -2 0 0 -2 -3 0 0 -2 -2 0 0 -1 -3 0 0 -2 -2 0 0 -1 -2 0 0 -2 -3 0 0 -2 -2 0 0 -1 -3 0 0 -2 -2 0 0 -1 -3 0 0 -2 -2 0 0 -2 -2 0 0 -1 -3 0 0 -2 -2 0 0 -1 -3 0 0 -2 -1 0 0 -2 -2 0 0 -1 -1 0 0 -2 -2 0 0 -2 -2 0 0 -1 -1 0 0 -2 -2 0 0 -1 -1 0 0 -2 -2 0 0 -2 -2 0 0 -1 -1 0 0 -2 -2 0 0 -1 -2 0 0 -2 -1 0 0 -2 -1 0 0 -1 -1 0 0 -2 -1 0 0 -1 0 0 0 -2 -1 0 0 -2 -1 0 0 -1 -1 0 0 -2 -1 0 0 -2 0 0 0 -1 -1 0 0 -2 -1 0 0 -1 -1 0 0 -2 -1 0 0 -2 0 0 0 -1 -1 0 0 -2 -1 0 0 -1 -1 0 0 0 -1 0 0 -1 0 0 0 -1 -1 0 0 -1 0 0 0 -1 0 0 0 0 0 0 0 -1 0 0 0 -1 0 0 0 -1 0 0 0 -1 0 0 0 0 0 0 0 -1 0 0 0 -1 0 0 0 -1 0 0 0 -1 0 0 0 0 0 0 0 0 0 0 0 0 0 0 0 0 0 0 0 0 0 0 0 0 0 0 0 0 0 0 0 -10 34 0 0 0 0 0 0 0 0 0 0 0 0 0 0 0 0 0 0 0 0 0 0 0 0 0 0 0 0 1 0 0 0 0 0 0 0 1 0 0 0 1 1 0 0 1 1 0 0 1 1 0 0 0 1 0 0 1 0 0 0 1 1 0 0 1 1 0 0 1 1 0 0 0 1 0 0 1 0 0 0 1 1 0 0 1 1 0 0 2 1 0 0 1 1 0 0 2 0 0 0 1 1 0 0 2 1 0 0 2 1 0 0 1 1 0 0 2 0 0 0 1 2 0 0 2 2 0 0 2 1 0 0 1 2 0 0 2 2 0 0 1 1 0 0 2 2 0 0 2 1 0 0 1 2 0 0 2 2 0 0 2 1 0 0 1 2 0 0 2 1 0 0 1 2 0 0 2 2 0 0 2 1 0 0 1 2 0 0 2 2 0 0 1 1 0 0 2 2 0 0 2 1 0 0 1 2 0 0 2 2 0 0 1 1 0 0 2 2 0 0 2 1 0 0 1 2 0 0 2 2 0 0 2 1 0 0 1 2 0 0 2 1 0 0 1 2 0 0 2 2 0 0 2 1 0 0 1 2 0 0 2 2 0 0 1 1 0 0 2 2 0 0 2 1 0 0 1 2 0 0 1 2 0 0 1 1 0 0 1 2 0 0 0 1 0 0 1 2 0 0 1 2 0 0 1 1 0 0 1 2 0 0 1 1 0 0 0 2 0 0 1 2 0 0 1 1 0 0 1 2 0 0 1 2 0 0 0 1 0 0 1 2 0 0 1 1 0 0 1 2 0 0 1 2 0 0 0 1 0 0 1 2 0 0 1 1 0 0 1 2 0 0 1 2 0 0 0 1 0 0 1 2 0 0 1 1 0 0 1 2 0 0 1 2 0 0 0 1 0 0 1 2 0 0 0 2 0 0 0 1 0 0 0 1 0 0 0 1 0 0 0 1 0 0 0 0 0 0 0 1 0 0 0 1 0 0 0 1 0 0 0 1 0 0 0 0 0 0 0 1 0 0 0 1 0 0 0 1 0 0 0 1 0 0 0 0 0 0 0 1 0 0 0 1 0 0 0 1 0 0 0 1 0 0 0 0 0 0 0 0 0 0 0 0 0 0 0 0 0 0 0 0 0 0 0 0 0 0 0 0 0 0 0 0 0 0 -5 4zm-31 110l27 -54 0 0 0 0 0 0 0 0 0 0 0 0 0 0 0 0 0 0 0 0 0 0 0 0 0 0 0 0 0 0 0 0 0 0 0 0 0 -1 0 0 0 -1 0 0 0 0 0 0 0 -1 0 0 0 -1 0 0 0 -1 0 0 0 -1 0 0 0 0 0 0 0 -1 0 0 0 -1 0 0 0 -1 0 0 0 -1 0 0 -1 0 0 0 -1 -1 0 0 -1 -1 0 0 -1 -1 0 0 0 -1 0 0 -1 0 0 0 -1 -1 0 0 -1 -2 0 0 -1 -1 0 0 0 -2 0 0 -1 -2 0 0 -1 -1 0 0 -1 -2 0 0 -1 -2 0 0 -1 -1 0 0 0 -2 0 0 -1 -1 0 0 -1 -2 0 0 -1 -2 0 0 -1 -1 0 0 0 -2 0 0 -1 -1 0 0 -1 -2 0 0 -1 -2 0 0 -1 -1 0 0 0 -2 0 0 -1 -1 0 0 -1 -2 0 0 -1 -2 0 0 -1 -1 0 0 0 -2 0 0 -1 -2 0 0 -2 -2 0 0 -1 -2 0 0 -2 -3 0 0 -2 -2 0 0 -1 -3 0 0 -2 -2 0 0 -2 -2 0 0 -1 -3 0 0 -2 -2 0 0 -1 -3 0 0 -2 -2 0 0 -2 -3 0 0 -1 -2 0 0 -2 -2 0 0 -1 -3 0 0 -2 -2 0 0 -2 -3 0 0 -1 -2 0 0 -2 -2 0 0 -1 -3 0 0 -2 -2 0 0 -2 -3 0 0 -1 -1 0 0 -2 -2 0 0 -2 -2 0 0 -1 -1 0 0 -2 -2 0 0 -1 -1 0 0 -2 -2 0 0 -2 -2 0 0 -1 -1 0 0 -2 -2 0 0 -1 -1 0 0 -2 -2 0 0 -2 -2 0 0 -1 -1 0 0 -2 -2 0 0 -1 -1 0 0 -2 -2 0 0 -2 -2 0 0 -1 -1 0 0 -2 -2 0 0 -2 -2 0 0 -1 -1 0 0 -2 -2 0 0 -1 -1 0 0 -2 -2 0 0 -2 -1 0 0 -1 -1 0 0 -2 0 0 0 -1 -1 0 0 -2 -1 0 0 -2 -1 0 0 -1 -1 0 0 -2 0 0 0 -1 -1 0 0 -1 -1 0 0 -1 -1 0 0 -1 -1 0 0 -1 0 0 0 0 -1 0 0 -1 -1 0 0 -1 -1 0 0 -1 -1 0 0 -1 0 0 0 -1 -1 0 0 0 0 0 0 -1 0 0 0 -1 0 0 0 -1 0 0 0 0 0 0 0 0 0 0 0 0 0 0 0 0 0 0 0 0 0 0 0 -26 41 0 0 0 0 0 0 0 0 0 0 0 0 0 0 0 0 0 0 0 0 0 0 0 0 0 1 0 0 1 0 0 0 1 1 0 0 1 1 0 0 1 1 0 0 1 1 0 0 0 0 0 0 1 1 0 0 1 1 0 0 1 1 0 0 1 1 0 0 0 0 0 0 1 1 0 0 2 1 0 0 1 2 0 0 2 1 0 0 2 2 0 0 1 2 0 0 2 1 0 0 1 2 0 0 2 1 0 0 2 2 0 0 1 2 0 0 2 1 0 0 1 2 0 0 2 1 0 0 2 2 0 0 1 2 0 0 2 1 0 0 2 2 0 0 1 1 0 0 2 2 0 0 1 2 0 0 2 1 0 0 2 2 0 0 1 2 0 0 2 1 0 0 1 2 0 0 2 1 0 0 2 2 0 0 1 2 0 0 2 1 0 0 1 2 0 0 2 1 0 0 2 2 0 0 1 2 0 0 2 1 0 0 2 2 0 0 1 1 0 0 2 2 0 0 1 2 0 0 2 1 0 0 2 2 0 0 1 2 0 0 2 1 0 0 1 2 0 0 2 1 0 0 2 2 0 0 0 2 0 0 1 1 0 0 1 2 0 0 1 1 0 0 1 2 0 0 0 2 0 0 1 1 0 0 1 2 0 0 1 1 0 0 1 2 0 0 1 2 0 0 0 1 0 0 1 2 0 0 1 2 0 0 1 1 0 0 1 2 0 0 0 1 0 0 1 2 0 0 1 2 0 0 1 1 0 0 1 2 0 0 0 1 0 0 1 2 0 0 1 2 0 0 1 1 0 0 1 2 0 0 0 1 0 0 1 2 0 0 1 2 0 0 1 1 0 0 1 2 0 0 0 2 0 0 1 1 0 0 1 2 0 0 1 1 0 0 1 2 0 0 0 2 0 0 1 1 0 0 1 2 0 0 1 1 0 0 1 2 0 0 0 2 0 0 1 1 0 0 1 1 0 0 1 1 0 0 1 1 0 0 1 0 0 0 0 1 0 0 1 1 0 0 1 1 0 0 1 1 0 0 1 1 0 0 0 0 0 0 0 1 0 0 0 1 0 0 0 1 0 0 0 1 0 0 0 0 0 0 0 1 0 0 0 0 0 0 0 0 0 0 0 0 0 0 0 0 0 0 0 0 0 0 0 0 0 0 2 13zm27 -54l0 0 0 0zm-84 163l29 -38 0 0 0 0 0 0 0 0 0 0 0 0 0 0 0 0 0 0 0 0 0 -1 0 0 0 -1 0 0 0 0 0 0 0 -1 0 0 0 -1 0 0 0 -1 0 0 -1 -1 0 0 -1 0 0 0 -1 -1 0 0 0 -1 0 0 -1 -1 0 0 -1 -2 0 0 -1 -1 0 0 -1 -2 0 0 0 -1 0 0 -1 -2 0 0 -1 -2 0 0 -1 -1 0 0 -1 -2 0 0 -1 -1 0 0 0 -2 0 0 -1 -2 0 0 -1 -1 0 0 -1 -2 0 0 -1 -1 0 0 0 -2 0 0 -1 -2 0 0 -1 -2 0 0 -1 -3 0 0 -1 -2 0 0 0 -2 0 0 -1 -3 0 0 -1 -2 0 0 -1 -3 0 0 -1 -2 0 0 0 -2 0 0 -1 -3 0 0 -1 -2 0 0 -1 -3 0 0 -1 -2 0 0 0 -3 0 0 -2 -2 0 0 -2 -2 0 0 -1 -3 0 0 -2 -2 0 0 -1 -3 0 0 -2 -2 0 0 -2 -2 0 0 -1 -3 0 0 -2 -2 0 0 -2 -3 0 0 -1 -2 0 0 -2 -3 0 0 -1 -2 0 0 -2 -2 0 0 -2 -3 0 0 -1 -2 0 0 -2 -3 0 0 -1 -2 0 0 -2 -2 0 0 -2 -3 0 0 -1 -2 0 0 -2 -3 0 0 -1 -2 0 0 -2 -3 0 0 -2 -2 0 0 -1 -2 0 0 -2 -3 0 0 -2 -2 0 0 -1 -3 0 0 -2 -2 0 0 -1 -2 0 0 -2 -3 0 0 -2 -2 0 0 -1 -2 0 0 -2 -2 0 0 -1 -1 0 0 -2 -2 0 0 -2 -1 0 0 -1 -2 0 0 -2 -2 0 0 -1 -1 0 0 -2 -2 0 0 -2 -1 0 0 -1 -2 0 0 -2 -2 0 0 -2 -1 0 0 -1 -2 0 0 -2 -1 0 0 -1 -2 0 0 -2 -2 0 0 -2 -1 0 0 -1 -2 0 0 -2 -2 0 0 -1 -1 0 0 -2 -2 0 0 -2 -1 0 0 -1 -2 0 0 -2 -1 0 0 -2 -1 0 0 -1 0 0 0 -2 -1 0 0 -1 -1 0 0 0 -1 0 0 -1 -1 0 0 -1 0 0 0 -1 -1 0 0 -1 -1 0 0 0 -1 0 0 -1 -1 0 0 -1 0 0 0 -1 -1 0 0 -1 -1 0 0 0 -1 0 0 -1 -1 0 0 -1 0 0 0 -1 0 0 0 0 0 0 0 0 0 0 0 0 0 0 0 0 0 0 0 0 0 0 0 0 0 0 0 0 0 0 0 0 0 0 0 0 0 0 0 0 0 0 0 0 0 0 0 0 0 0 0 0 0 0 0 0 0 0 0 0 0 0 0 0 0 0 0 0 0 0 0 -1 1 0 0 0 1 0 0 -1 1 0 0 -1 1 0 0 -1 0 0 0 -1 1 0 0 0 1 0 0 -1 1 0 0 -1 1 0 0 -1 0 0 0 -1 1 0 0 0 1 0 0 -1 1 0 0 -1 1 0 0 -1 0 0 0 -1 1 0 0 -1 1 0 0 0 1 0 0 -1 1 0 0 -1 0 0 0 -1 1 0 0 -1 1 0 0 0 1 0 0 -1 1 0 0 -1 0 0 0 -1 1 0 0 -1 1 0 0 0 1 0 0 -1 1 0 0 -1 0 0 0 -1 1 0 0 -1 1 0 0 0 1 0 0 -1 1 0 0 -1 1 0 0 -1 0 0 0 -1 1 0 0 0 1 0 0 -1 1 0 0 -1 1 0 0 -1 0 0 0 -1 1 0 0 0 0 0 0 -1 0 0 0 0 0 0 0 0 0 0 0 0 0 0 0 0 0 0 0 0 0 0 0 0 0 0 0 0 0 0 0 0 0 0 0 0 0 0 0 0 0 0 0 0 0 0 0 0 0 0 0 0 0 0 0 0 0 1 1 0 0 0 1 0 0 1 1 0 0 1 0 0 0 1 1 0 0 1 1 0 0 0 1 0 0 1 1 0 0 1 0 0 0 1 1 0 0 1 1 0 0 0 1 0 0 1 1 0 0 1 1 0 0 2 2 0 0 1 1 0 0 2 2 0 0 1 2 0 0 2 1 0 0 2 2 0 0 1 2 0 0 2 1 0 0 2 2 0 0 1 1 0 0 2 2 0 0 1 2 0 0 2 1 0 0 2 2 0 0 1 1 0 0 2 2 0 0 1 2 0 0 2 1 0 0 2 2 0 0 1 1 0 0 2 2 0 0 1 2 0 0 2 1 0 0 2 2 0 0 1 2 0 0 2 1 0 0 2 3 0 0 1 2 0 0 2 2 0 0 1 3 0 0 2 2 0 0 2 3 0 0 1 2 0 0 2 2 0 0 1 3 0 0 2 2 0 0 2 3 0 0 1 2 0 0 2 3 0 0 1 1 0 0 2 2 0 0 2 1 0 0 1 2 0 0 2 2 0 0 1 1 0 0 1 2 0 0 0 1 0 0 1 3 0 0 1 2 0 0 1 3 0 0 1 2 0 0 2 3 0 0 2 2 0 0 1 2 0 0 2 3 0 0 1 2 0 0 2 3 0 0 2 2 0 0 1 2 0 0 2 3 0 0 1 2 0 0 2 3 0 0 2 2 0 0 1 3 0 0 0 2 0 0 1 2 0 0 1 3 0 0 1 2 0 0 1 3 0 0 0 2 0 0 1 2 0 0 1 3 0 0 1 2 0 0 1 3 0 0 0 2 0 0 1 3 0 0 1 2 0 0 1 2 0 0 1 3 0 0 0 2 0 0 1 2 0 0 1 1 0 0 1 2 0 0 1 2 0 0 0 1 0 0 1 2 0 0 1 2 0 0 1 1 0 0 1 2 0 0 0 1 0 0 1 2 0 0 1 2 0 0 1 1 0 0 1 2 0 0 0 1 0 0 1 1 0 0 1 1 0 0 1 1 0 0 1 1 0 0 1 0 0 0 0 1 0 0 0 1 0 0 0 1 0 0 0 1 0 0 0 0 0 0 0 0 0 0 0 0 0 0 0 0 0 0 0 0 0 0 7 -5zm29 -38l0 0 0 0zm-97 106l29 -27 0 0 0 0 0 0 0 0 0 0 0 0 0 0 0 0 0 -1 0 0 0 -1 0 0 0 -1 0 0 0 0 0 0 0 -1 0 0 0 -1 0 0 -1 -1 0 0 -1 -1 0 0 0 0 0 0 -1 -1 0 0 -1 -2 0 0 -1 -1 0 0 -1 -2 0 0 0 -2 0 0 -1 -1 0 0 -1 -2 0 0 -1 -1 0 0 -1 -2 0 0 0 -2 0 0 -1 -1 0 0 -1 -2 0 0 -1 -1 0 0 -1 -2 0 0 0 -2 0 0 -1 -2 0 0 -1 -3 0 0 -1 -2 0 0 -1 -2 0 0 0 -3 0 0 -2 -2 0 0 -2 -3 0 0 -1 -2 0 0 -2 -2 0 0 -1 -3 0 0 -2 -2 0 0 -2 -3 0 0 -1 -2 0 0 -2 -3 0 0 -2 -2 0 0 -1 -2 0 0 -2 -3 0 0 -1 -2 0 0 -2 -3 0 0 -2 -2 0 0 -1 -2 0 0 -2 -3 0 0 -1 -2 0 0 -2 -3 0 0 -2 -2 0 0 -1 -3 0 0 -2 -2 0 0 -2 -2 0 0 -1 -3 0 0 -2 -2 0 0 -1 -3 0 0 -2 -2 0 0 -2 -2 0 0 -1 -3 0 0 -2 -2 0 0 -1 -3 0 0 -2 -2 0 0 -2 -3 0 0 -1 -2 0 0 -2 -2 0 0 -1 -3 0 0 -2 -2 0 0 -2 -3 0 0 -1 -2 0 0 -2 -2 0 0 -2 -3 0 0 -1 -2 0 0 -2 -3 0 0 -1 -1 0 0 -2 -2 0 0 -2 -2 0 0 -1 -1 0 0 -2 -2 0 0 -1 -1 0 0 -2 -2 0 0 -2 -2 0 0 -1 -1 0 0 -2 -2 0 0 -1 -1 0 0 -2 -2 0 0 -2 -2 0 0 -1 -1 0 0 -2 -2 0 0 -2 -2 0 0 -1 -1 0 0 -2 -2 0 0 -1 -1 0 0 -2 -2 0 0 -2 -2 0 0 -1 -1 0 0 -2 -2 0 0 -1 -1 0 0 -2 0 0 0 -2 -1 0 0 -1 -1 0 0 -2 -1 0 0 -1 -1 0 0 -2 0 0 0 -2 -1 0 0 -1 -1 0 0 -2 -1 0 0 -1 -1 0 0 -1 0 0 0 0 -1 0 0 -1 -1 0 0 -1 -1 0 0 -1 -1 0 0 -1 0 0 0 0 -1 0 0 -1 -1 0 0 -1 -1 0 0 -1 0 0 0 -1 0 0 0 0 0 0 0 -1 0 0 0 0 0 0 0 0 0 0 0 0 0 0 0 0 0 0 0 0 0 0 0 -30 21 0 0 0 0 0 0 0 0 0 0 0 0 0 0 0 0 0 0 0 0 1 1 0 0 1 1 0 0 0 0 0 0 1 1 0 0 1 1 0 0 1 1 0 0 1 1 0 0 0 0 0 0 1 1 0 0 2 1 0 0 1 2 0 0 2 1 0 0 2 2 0 0 1 2 0 0 2 1 0 0 2 2 0 0 1 1 0 0 2 2 0 0 1 2 0 0 2 1 0 0 2 2 0 0 1 1 0 0 2 2 0 0 1 2 0 0 2 1 0 0 2 2 0 0 1 1 0 0 2 2 0 0 2 2 0 0 3 1 0 0 2 3 0 0 3 2 0 0 2 3 0 0 2 2 0 0 3 2 0 0 2 3 0 0 3 2 0 0 2 3 0 0 2 2 0 0 2 2 0 0 2 3 0 0 1 2 0 0 2 2 0 0 2 2 0 0 1 1 0 0 2 2 0 0 1 1 0 0 2 2 0 0 2 2 0 0 1 1 0 0 2 2 0 0 1 1 0 0 2 2 0 0 2 2 0 0 1 1 0 0 2 2 0 0 1 2 0 0 1 1 0 0 1 2 0 0 1 1 0 0 1 2 0 0 0 2 0 0 1 1 0 0 1 2 0 0 1 1 0 0 1 2 0 0 1 2 0 0 0 1 0 0 2 2 0 0 2 1 0 0 1 2 0 0 2 2 0 0 1 1 0 0 2 3 0 0 2 2 0 0 1 3 0 0 2 2 0 0 1 2 0 0 2 3 0 0 2 2 0 0 1 3 0 0 2 2 0 0 1 2 0 0 2 3 0 0 2 2 0 0 1 3 0 0 2 2 0 0 2 3 0 0 1 2 0 0 2 2 0 0 1 3 0 0 2 2 0 0 2 3 0 0 1 2 0 0 1 2 0 0 1 3 0 0 1 2 0 0 0 3 0 0 1 1 0 0 1 2 0 0 1 2 0 0 1 1 0 0 0 2 0 0 1 1 0 0 1 2 0 0 1 2 0 0 1 1 0 0 1 2 0 0 0 1 0 0 1 2 0 0 1 2 0 0 1 1 0 0 1 1 0 0 0 1 0 0 1 1 0 0 1 1 0 0 1 0 0 0 0 1 0 0 0 1 0 0 0 1 0 0 0 0 0 0 0 0 0 0 0 0 0 0 0 0 0 0 -10 -3zm29 -27l0 0 0 0zm-1105 932l-6 0c-10,1 -19,1 -26,1 -14,0 -26,-1 -26,-1l0 0 -62 0 0 0c-1,0 -12,2 -26,1 -7,0 -16,0 -26,-1l-6 0 0 -1c-21,-2 -44,-9 -54,-25 -17,-25 -59,-29 -86,-29 -7,0 -11,0 -11,0 0,0 -1,0 -2,0 -5,0 -8,0 -8,0 0,0 -81,-21 -81,-127 0,-106 0,-135 0,-135 0,0 -9,-29 29,-52 26,-16 53,-18 68,-17 4,0 8,0 12,0 -21,-35 -44,-88 17,-109 35,-12 35,-12 35,-12l0 -79c0,0 3,-50 44,-64 41,-15 68,-23 68,-23 0,0 3,-33 52,-33l1 0 1 0c2,0 2,0 4,0 2,0 2,0 4,0l1 0 1 0c50,0 52,33 52,33 0,0 27,8 68,23 41,14 44,64 44,64l0 79c0,0 0,0 35,12 61,21 38,74 17,109 4,0 8,0 12,0 15,-1 42,1 68,17 38,23 29,52 29,52 0,0 0,29 0,135 0,106 -81,127 -81,127 0,0 -3,0 -8,0 -1,0 -2,0 -2,0 0,0 -4,0 -11,0 -26,0 -69,4 -86,29 -10,16 -33,23 -54,25l0 1zm593 -198c-55,-5 -112,-29 -144,-69 -50,-61 -38,-102 -38,-102 0,0 -12,-88 38,-111 50,-23 229,-111 229,-111 0,0 9,-3 21,-3l2 0 0 0 1 0 0 0 2 0 0 0 1 0 0 0 2 0 0 0 2 0 0 0 1 0 0 0 2 0 0 0 2 0 0 0 1 0 0 0 2 0 0 0 1 0c19,1 37,9 40,33l0 231c0,0 -15,96 -82,123 -14,6 -29,9 -46,10 -2,0 -3,0 -4,0l0 0 -4 0 0 0 -4 0 0 0 -4 0 0 0 -4 0 0 0 -4 0 0 0 -4 0 0 0 -5 0 0 0 -4 0 0 0 -4 0 4 -1zm-1531 -364l0 231c0,0 14,97 82,123 14,6 29,9 46,10l4 0 0 0 4 0 0 0 4 0 0 0 4 0 0 0 4 0 0 0 4 0 0 0 4 0 0 0 4 0 0 0 4 0 0 0 4 0c55,-5 112,-29 144,-69 50,-61 37,-102 37,-102 0,0 13,-88 -37,-111 -50,-23 -229,-111 -229,-111 0,0 -9,-3 -21,-3l-2 0 0 0 -1 0 0 0 -2 0 0 0 -2 0 0 0 -1 0 0 0 -2 0 0 0 -1 0 0 0 -2 0 0 0 -2 0 0 0 -1 0 0 0 -2 0 0 0 -2 0c-18,1 -37,9 -39,33l-3 -1zm-262 -304l0 0 0 0zm2021 -192l0 0 0 0zm182 -121l0 0 0 0zm-2409 44l0 0 0 0zm54 125l0 0 0 0zm68 79l0 0 0 0z"/>
     <path class="fil5" d="M2032 1804l260 0c0,0 23,82 187,158 165,76 317,117 317,117 0,0 42,13 93,12 79,1 187,-28 191,-194 1,-55 4,-96 6,-125l-1848 0c3,29 5,70 7,125 4,166 111,195 191,194 51,1 93,-12 93,-12 0,0 152,-41 316,-117 165,-77 188,-158 188,-158l-1 0z"/>
     <polygon class="fil6" points="2789,2775 2227,2436 2094,2445 1532,2776 2101,2495 2221,2495 "/>
     <polygon class="fil6" points="1532,2775 2093,2436 2225,2445 2789,2776 2219,2495 2099,2495 "/>
     <path class="fil7" d="M3237 1512c46,1 -506,199 -1243,149 -737,-50 -659,-386 -511,-700 147,-315 336,-437 742,-446 407,-9 1023,211 1011,998l1 -1z"/>
     <path class="fil8" d="M1498 3348c67,0 122,55 122,121 0,67 -55,122 -122,122 -67,0 -122,-55 -122,-122 0,-66 55,-121 122,-121zm1327 0c67,0 122,55 122,121 0,67 -55,122 -122,122 -67,0 -122,-55 -122,-122 0,-66 55,-121 122,-121zm0 35c47,0 86,39 86,86 0,48 -39,87 -86,87 -48,0 -86,-39 -86,-87 0,-47 38,-86 86,-86zm-1327 0c47,0 86,39 86,86 0,48 -39,87 -86,87 -48,0 -86,-39 -86,-87 0,-47 38,-86 86,-86z"/>
     <path class="fil9" d="M2159 3222l0 0c55,0 100,45 100,100l0 410c0,27 -22,50 -50,50l-100 0c-27,0 -50,-23 -50,-50l0 -410c0,-55 46,-100 100,-100zm0 49l0 0c37,0 66,30 66,66l0 362c0,19 -14,33 -33,33l-66 0c-18,0 -33,-14 -33,-33l0 -362c0,-36 30,-66 66,-66z"/>
     <path class="fil10" d="M2159 3357l0 0c23,0 41,19 41,41l0 228c0,11 -9,21 -20,21l-42 0c-11,0 -20,-10 -20,-21l0 -228c0,-22 18,-41 41,-41l0 0z"/>
    </g>
    <g>
     <path class="fil11" d="M3528 2884l0 0c-9,10 -17,20 -26,29 -44,50 -130,158 -165,258 -50,136 -72,312 -117,386 -45,74 -273,153 -381,194 -108,39 -175,28 -249,5 -74,-22 -409,-164 -409,-164l-8 -6 -8 6c0,0 -335,142 -408,164 -75,23 -142,34 -250,-5 -108,-40 -335,-120 -381,-194 -45,-74 -68,-250 -116,-386 -29,-79 -90,-164 -135,-221 -97,-72 -161,-198 -161,-341 0,-173 93,-320 224,-377 -9,-48 -14,-98 -14,-148 0,-188 65,-357 171,-477 -1,-1 -2,-2 -3,-3 0,0 -36,-318 124,-605 159,-287 489,-440 914,-440 9,0 17,1 25,2 8,-1 17,-2 25,-2 426,0 755,153 915,440 144,259 129,545 125,596 111,121 181,295 181,489 0,50 -5,98 -14,144 136,55 232,204 232,381 0,105 -35,202 -92,274l0 0 1 1z"/>
     <path class="fil12" d="M3348 2227c0,0 -35,161 -302,340 -267,179 -267,179 -267,179l-554 -318 -126 0 -528 311c0,0 -353,-187 -366,-249 -12,-62 -228,-260 -228,-260 0,0 -37,-255 27,-389 64,-134 121,-218 121,-218 0,0 101,106 213,108 112,2 653,26 653,26l291 2 737 -31 166 -113c0,0 229,195 162,613l1 -1z"/>
     <path class="fil13" d="M3179 3529c0,0 58,-171 4,-341 -55,-170 -313,-318 -461,-373 -142,-52 -282,-85 -530,-73 -249,-12 -389,21 -531,73 -148,55 -406,203 -460,373 -55,170 4,341 4,341 0,0 173,111 317,168 144,58 215,-9 336,-65 102,-46 272,-10 325,2l1 4c0,0 3,-1 8,-2 4,1 7,2 7,2l1 -4c53,-12 224,-48 325,-2 121,55 192,123 336,65 144,-57 318,-168 318,-168l0 0z"/>
     <path class="fil14" d="M2036 1815l252 0c0,0 22,80 181,153 159,74 307,114 307,114 0,0 40,12 90,11 77,1 181,-27 185,-188 4,-177 23,-195 -6,-192 -130,-25 -745,33 -882,34 -137,-1 -754,-59 -883,-34 -29,-3 -10,16 -6,192 3,161 108,189 185,188 49,1 90,-11 90,-11 0,0 148,-40 307,-114 159,-74 182,-153 182,-153l-2 0zm708 943l0 0c29,8 29,4 21,-2l8 2 0 0c60,16 0,0 0,0l-545 -321 0 0 -30 0 -72 0 -29 0 0 0 -546 321c0,0 -60,16 0,0l0 0 8 -2c-8,6 -8,11 22,2l0 0c208,-76 407,-104 581,-108 174,3 374,31 581,108l1 0zm459 206l35 -28 0 0 0 0 0 0 0 0 0 -1 0 0 0 -1 0 0 0 0 0 0 -1 -1 0 0 0 -2 0 0 -1 -1 0 0 -1 -2 0 0 -1 -2 0 0 -1 -2 0 0 0 -2 0 0 -1 -3 0 0 -1 -2 0 0 -1 -3 0 0 -1 -3 0 0 -2 -3 0 0 -2 -3 0 0 -1 -4 0 0 -2 -3 0 0 -1 -3 0 0 -2 -3 0 0 -2 -4 0 0 -1 -4 0 0 -2 -4 0 0 -2 -4 0 0 -2 -4 0 0 -2 -4 0 0 -3 -5 0 0 -2 -4 0 0 -3 -4 0 0 -2 -4 0 0 -2 -4 0 0 -3 -4 0 0 -2 -5 0 0 -3 -5 0 0 -2 -5 0 0 -3 -5 0 0 -4 -5 0 0 -3 -4 0 0 -3 -5 0 0c-1,-2 -2,-4 -3,-5l0 0 -3 -5 0 0c-1,-2 -3,-3 -4,-5l0 0 -3 -5 0 0 -3 -4 0 0c-1,-1 -3,-3 -3,-4l0 0c-1,-1 -3,-3 -4,-4l0 0c0,-1 -2,-3 -3,-4l0 0 -3 -4 0 0c-2,-1 -2,-2 -4,-4l0 0c-2,-1 -2,-2 -4,-4l0 0c-2,-1 -2,-2 -4,-4l0 0c-2,-1 -3,-2 -4,-4l0 0c-2,-2 -3,-2 -4,-4l0 0c-2,-2 -3,-2 -4,-4l0 0c-2,-2 -3,-2 -4,-4l0 0c-2,-1 -3,-2 -4,-3l0 0c-2,-1 -3,-3 -4,-3l0 0c-2,-1 -3,-3 -4,-4l0 0c-2,0 -4,-2 -4,-3l0 0c-2,-1 -4,-2 -4,-3l0 0c-2,-1 -4,-2 -4,-3l0 0c-2,-1 -4,-2 -5,-3l0 0 -41 30 0 0 0 0 0 0 0 0 0 0 0 0 0 0 0 0 1 0 0 0 0 1 0 0 1 1 0 0 1 0 0 0 1 1 0 0 1 1 0 0 0 1 0 0 1 1 0 0 1 1 0 0 1 0 0 0 1 1 0 0 1 1 0 0 2 1 0 0 1 1 0 0 2 2 0 0 2 2 0 0 1 1 0 0 2 2 0 0 1 1 0 0 2 2 0 0 2 2 0 0 1 1 0 0 2 2 0 0 2 1 0 0 1 2 0 0 2 2 0 0 1 1 0 0 2 2 0 0 2 2 0 0 1 1 0 0 2 3 0 0 2 2 0 0 3 2 0 0 2 3 0 0 2 2 0 0 3 3 0 0 2 2 0 0 3 2 0 0 2 3 0 0 3 2 0 0 2 3 0 0 2 2 0 0 3 3 0 0 2 2 0 0 3 2 0 0 2 3 0 0 2 2 0 0 3 3 0 0 1 2 0 0 2 2 0 0 2 3 0 0 1 2 0 0 2 3 0 0 2 2 0 0 1 3 0 0 2 2 0 0 1 2 0 0 2 3 0 0 2 2 0 0 1 3 0 0 2 2 0 0 1 2 0 0 2 3 0 0 2 2 0 0 1 3 0 0 2 2 0 0 1 3 0 0 2 2 0 0 2 2 0 0 1 3 0 0 2 2 0 0 2 3 0 0 1 2 0 0 2 2 0 0 1 3 0 0 2 2 0 0 2 3 0 0 1 2 0 0 2 3 0 0 1 2 0 0 1 2 0 0 1 3 0 0 1 2 0 0 1 3 0 0 0 2 0 0 1 3 0 0 1 2 0 0 1 2 0 0 1 1 0 0 1 2 0 0 0 1 0 0 1 2 0 0 1 2 0 0 1 1 0 0 1 2 0 0 0 1 0 0 1 2 0 0 1 2 0 0 1 1 0 0 1 2 0 0 0 1 0 0 1 2 0 0 1 2 0 0 1 1 0 0 1 2 0 0 0 1 0 0 1 1 0 0 1 0 0 0 1 1 0 0 1 1 0 0 0 1 0 0 0 1 0 0 0 0 0 0 0 1 0 0 0 1 0 0 0 1 0 0 0 1 0 0 0 0 0 0 0 0 0 0 0 0 0 0 0 0 0 0 0 0 0 0 0 0 0 0 0 0 0 0 -1 1zm35 -28l0 0 0 0zm-1958 -186l0 0 0 0 0 0 0 0 0 0 0 0 0 0 0 0 0 0 0 0 -1 0 0 0 -1 1 0 0 -1 1 0 0 -1 0 0 0 0 1 0 0 -1 1 0 0 -1 1 0 0 -1 1 0 0 -1 0 0 0 -1 1 0 0 0 1 0 0 -2 1 0 0 -2 1 0 0 -1 1 0 0 -2 2 0 0 -1 1 0 0 -2 2 0 0 -2 2 0 0 -1 1 0 0 -2 2 0 0 -1 1 0 0 -2 2 0 0 -2 2 0 0 -1 1 0 0 -2 2 0 0 -1 2 0 0 -2 1 0 0 -2 2 0 0 -1 1 0 0 -2 2 0 0 -2 2 0 0 -3 3 0 0 -2 2 0 0 -3 3 0 0 -2 2 0 0 -2 2 0 0 -3 3 0 0 -2 2 0 0 -3 3 0 0 -2 2 0 0 -3 3 0 0 -2 2 0 0 -2 2 0 0 -3 3 0 0 -2 2 0 0 -3 3 0 0 -2 2 0 0 -2 2 0 0 -2 3 0 0 -2 2 0 0 -1 3 0 0 -2 2 0 0 -1 3 0 0 -2 2 0 0 -2 2 0 0 -1 3 0 0 -2 2 0 0 -2 3 0 0 -1 2 0 0 -2 2 0 0 -1 3 0 0 -2 2 0 0 -2 3 0 0 -1 2 0 0 -2 3 0 0 -1 2 0 0 -2 2 0 0 -2 3 0 0 -1 2 0 0 -2 3 0 0 -1 2 0 0 -2 2 0 0 -2 3 0 0 -1 2 0 0 -2 3 0 0 -2 2 0 0 -1 3 0 0 -2 2 0 0 -1 2 0 0 -2 3 0 0 -1 2 0 0 -1 3 0 0 0 2 0 0 -1 2 0 0 -1 3 0 0 -1 2 0 0 -1 3 0 0 0 1 0 0 -1 2 0 0 -1 2 0 0 -1 1 0 0 -1 2 0 0 0 1 0 0 -1 2 0 0 -1 2 0 0 -1 1 0 0 -1 2 0 0 -1 1 0 0 0 2 0 0 -1 2 0 0 -1 1 0 0 -1 2 0 0 -1 2 0 0 0 1 0 0 -1 2 0 0 -1 1 0 0 -1 0 0 0 -1 1 0 0 0 1 0 0 -1 1 0 0 -1 1 0 0 0 0 0 0 0 1 0 0 0 1 0 0 0 1 0 0 0 1 0 0 0 0 0 0 0 1 0 0 0 0 0 0 0 0 0 0 0 0 0 0 0 0 0 0 0 0 0 0 0 0 0 0 -35 -28 0 0 0 0 0 0 0 0 0 -1 0 0 0 -1 0 0 0 0 0 0 0 -1 0 0 1 -2 0 0 1 -1 0 0 1 -2 0 0 1 -2 0 0 0 -2 0 0 1 -2 0 0 1 -3 0 0 1 -2 0 0 1 -3 0 0 1 -3 0 0 2 -3 0 0 1 -3 0 0 2 -4 0 0 2 -3 0 0 1 -3 0 0 2 -3 0 0 2 -4 0 0 1 -4 0 0 2 -4 0 0 1 -4 0 0 3 -4 0 0 2 -4 0 0 3 -5 0 0 2 -4 0 0 2 -4 0 0 3 -4 0 0 2 -4 0 0 3 -4 0 0 2 -5 0 0 3 -5 0 0 2 -5 0 0 3 -5 0 0 3 -5 0 0 4 -4 0 0 3 -5 0 0c1,-2 2,-4 3,-5l0 0 3 -5 0 0c1,-2 3,-3 4,-5l0 0 3 -5 0 0 3 -4 0 0 3 -4 0 0c1,-1 3,-3 3,-4l0 0c1,-1 3,-3 4,-4l0 0 3 -4 0 0c1,-1 2,-2 4,-4l0 0c1,-1 2,-2 4,-4l0 0c2,-1 2,-2 4,-4l0 0c2,-1 2,-2 4,-4l0 0c2,-1 2,-2 4,-4l0 0c2,-2 2,-2 4,-4l0 0c2,-2 2,-2 4,-4l0 0c2,-1 2,-2 4,-3l0 0c2,-1 2,-3 4,-3l0 0c2,-1 3,-3 4,-4l0 0c2,0 3,-2 4,-3l0 0c2,-1 3,-2 4,-3l0 0c2,-1 3,-2 4,-3l0 0c2,-1 3,-2 4,-3l0 0 41 30 4 1zm-284 -283l0 0 0 0 0 0 0 0 0 0 0 0 0 0 0 0 0 0 0 0 0 0 0 0 0 0 -1 0 0 0 -1 0 0 0 0 0 0 0 -1 1 0 0 -1 1 0 0 -1 0 0 0 -1 1 0 0 -1 1 0 0 0 1 0 0 -1 1 0 0 -1 1 0 0 -1 0 0 0 -1 1 0 0 0 1 0 0 -1 1 0 0 -1 1 0 0 -2 0 0 0 -1 1 0 0 -2 1 0 0 -1 1 0 0 -2 1 0 0 -2 0 0 0 -1 1 0 0 -2 1 0 0 -1 1 0 0 -2 1 0 0 -2 2 0 0 -1 2 0 0 -2 1 0 0 -2 2 0 0 -1 1 0 0 -2 2 0 0 -1 2 0 0 -2 1 0 0 -2 2 0 0 -1 2 0 0 -2 1 0 0 -1 2 0 0 -2 1 0 0 -2 2 0 0 -1 2 0 0 -2 1 0 0 -1 2 0 0 -2 1 0 0 -2 2 0 0 -1 2 0 0 -2 1 0 0 -2 2 0 0 -1 1 0 0 -2 2 0 0 -1 2 0 0 -2 1 0 0 -2 2 0 0 -1 2 0 0 -2 1 0 0 -1 2 0 0 -2 1 0 0 -2 2 0 0 -1 2 0 0 -2 1 0 0 -1 2 0 0 -2 1 0 0 -1 2 0 0 -1 2 0 0 0 1 0 0 -1 2 0 0 -1 1 0 0 -1 2 0 0 -1 2 0 0 -1 1 0 0 0 2 0 0 -1 2 0 0 -1 1 0 0 -1 2 0 0 -1 1 0 0 0 2 0 0 -1 2 0 0 -1 1 0 0 -1 2 0 0 -1 1 0 0 0 2 0 0 -1 2 0 0 -1 1 0 0 -1 2 0 0 -1 1 0 0 0 2 0 0 -1 2 0 0 -1 1 0 0 -1 2 0 0 -1 2 0 0 0 1 0 0 -1 2 0 0 -1 1 0 0 0 2 0 0 0 2 0 0 0 1 0 0 0 1 0 0 0 1 0 0 0 1 0 0 0 0 0 0 0 1 0 0 0 1 0 0 0 1 0 0 0 1 0 0 0 0 0 0 0 1 0 0 0 1 0 0 0 1 0 0 0 1 0 0 0 0 0 0 0 1 0 0 0 1 0 0 0 1 0 0 0 1 0 0 0 1 0 0 0 0 0 0 0 0 0 0 0 0 0 0 0 0 0 0 0 0 0 0 0 0 0 0 0 0 0 0 -19 -42 0 0 0 0 0 0 0 0 0 0 0 0 0 0 0 0 0 0 0 0 0 0 0 0 0 0 0 0 0 0 0 0 0 0 0 0 0 0 0 0 0 0 0 0 0 0 0 0 0 0 0 0 0 -1 0 0 0 -1 0 0 0 -1 0 0 0 -1 0 0 0 0 0 0 0 -1 0 0 0 -1 0 0 0 -1 0 0 0 -1 0 0 0 0 0 0 0 -1 0 0 0 -1 0 0 0 -1 0 0 0 -1 0 0 0 0 0 0 0 -1 0 0 1 -1 0 0 1 -1 0 0 1 -1 0 0 1 0 0 0 0 -2 0 0 1 -2 0 0 1 -1 0 0 1 -2 0 0 1 -2 0 0 0 -1 0 0 1 -2 0 0 1 -1 0 0 1 -2 0 0 1 -2 0 0 1 -1 0 0 0 -2 0 0 1 -1 0 0 1 -2 0 0 1 -2 0 0 1 -1 0 0 0 -2 0 0 1 -2 0 0 1 -3 0 0 2 -2 0 0 1 -3 0 0 2 -2 0 0 1 -2 0 0 2 -3 0 0 2 -2 0 0 1 -3 0 0 2 -2 0 0 1 -2 0 0 2 -3 0 0 2 -2 0 0 1 -3 0 0 2 -2 0 0 2 -3 0 0 1 -2 0 0 2 -2 0 0 1 -3 0 0 2 -2 0 0 2 -3 0 0 1 -2 0 0 2 -2 0 0 1 -3 0 0 2 -2 0 0 2 -1 0 0 1 -2 0 0 2 -1 0 0 1 -2 0 0 2 -2 0 0 2 -1 0 0 1 -2 0 0 2 -1 0 0 2 -2 0 0 1 -2 0 0 2 -1 0 0 1 -2 0 0 2 -1 0 0 2 -1 0 0 1 -1 0 0 2 -1 0 0 1 -1 0 0 2 0 0 0 2 -1 0 0 1 -1 0 0 2 -1 0 0 1 -1 0 0 2 -1 0 0 2 0 0 0 1 -1 0 0 2 -1 0 0 2 -1 0 0 1 -1 0 0 2 0 0 0 1 -1 0 0 0 -1 0 0 1 -1 0 0 1 -1 0 0 1 0 0 0 1 0 0 0 0 0 0 0 1 0 0 0 1 0 0 0 1 0 0 0 1 0 0 0 0 0 0 0 1 0 0 0 1 0 0 0 1 0 0 0 1 0 0 0 0 0 0 0 0 0 0 0 0 0 0 0 0 0 0 0 0 0 0 0 0 0 0 0 0 0 0 0 0 0 0 0 10 33 0 0 5 2zm47 90l0 0 0 0 0 0 0 0 0 0 0 0 0 0 0 0 0 0 0 0 0 0 -1 0 0 0 -1 0 0 0 -1 1 0 0 -1 1 0 0 0 1 0 0 -1 1 0 0 -1 0 0 0 -1 1 0 0 -1 1 0 0 0 1 0 0 -1 1 0 0 -1 0 0 0 -1 1 0 0 -1 1 0 0 -2 1 0 0 -2 1 0 0 -1 2 0 0 -2 2 0 0 -1 1 0 0 -2 2 0 0 -2 1 0 0 -1 2 0 0 -2 2 0 0 -2 1 0 0 -1 2 0 0 -2 2 0 0 -1 1 0 0 -2 2 0 0 -2 1 0 0 -1 2 0 0 -2 2 0 0 -1 1 0 0 -2 2 0 0 -2 1 0 0 -1 2 0 0 -2 2 0 0 -1 1 0 0 -2 2 0 0 -2 1 0 0 -1 2 0 0 -2 2 0 0 -2 1 0 0 -1 2 0 0 -2 2 0 0 -1 1 0 0 -2 2 0 0 -2 1 0 0 -1 2 0 0 -2 2 0 0 -1 1 0 0 -2 2 0 0 -2 1 0 0 -1 2 0 0 -2 2 0 0 -1 1 0 0 -2 2 0 0 -2 1 0 0 -1 2 0 0 0 2 0 0 -1 1 0 0 -1 2 0 0 -1 2 0 0 -1 1 0 0 0 2 0 0 -1 1 0 0 -1 2 0 0 -1 2 0 0 -1 1 0 0 0 2 0 0 -1 1 0 0 -1 2 0 0 -1 2 0 0 -1 1 0 0 0 2 0 0 -1 1 0 0 -1 2 0 0 -1 2 0 0 -1 1 0 0 0 2 0 0 -1 2 0 0 -1 1 0 0 -1 2 0 0 -1 1 0 0 0 2 0 0 -1 2 0 0 -1 1 0 0 -1 2 0 0 -1 1 0 0 0 2 0 0 -1 2 0 0 -1 1 0 0 -1 2 0 0 -1 1 0 0 -1 2 0 0 0 2 0 0 -1 1 0 0 -1 2 0 0 -1 2 0 0 -1 1 0 0 0 2 0 0 -1 1 0 0 -1 0 0 0 -1 1 0 0 -1 1 0 0 0 1 0 0 -1 1 0 0 -1 0 0 0 -1 1 0 0 -1 1 0 0 0 1 0 0 0 1 0 0 0 0 0 0 0 1 0 0 0 1 0 0 0 1 0 0 0 1 0 0 0 0 0 0 0 0 0 0 0 0 0 0 0 0 0 0 0 0 0 0 0 0 0 0 0 0 0 0 -25 -52 0 0 0 0 0 0 0 0 0 0 0 0 0 0 0 0 0 0 0 0 0 0 0 0 0 0 0 0 0 0 0 0 0 0 0 0 0 -1 0 0 0 -1 0 0 0 0 0 0 0 -1 0 0 0 -1 0 0 0 -1 0 0 0 -1 0 0 0 0 0 0 0 -1 0 0 0 -1 0 0 0 -1 0 0 0 -1 0 0 0 0 0 0 0 -1 0 0 1 -1 0 0 1 -1 0 0 1 -1 0 0 1 0 0 0 0 -1 0 0 1 -1 0 0 1 -2 0 0 1 -1 0 0 1 -2 0 0 0 -1 0 0 1 -2 0 0 1 -2 0 0 1 -1 0 0 1 -2 0 0 1 -2 0 0 0 -1 0 0 1 -2 0 0 1 -1 0 0 1 -2 0 0 1 -2 0 0 0 -1 0 0 1 -2 0 0 1 -1 0 0 1 -2 0 0 1 -2 0 0 0 -1 0 0 1 -2 0 0 1 -1 0 0 1 -2 0 0 1 -2 0 0 0 -1 0 0 2 -2 0 0 2 -2 0 0 1 -2 0 0 2 -2 0 0 1 -3 0 0 2 -2 0 0 2 -3 0 0 1 -2 0 0 2 -2 0 0 2 -3 0 0 1 -2 0 0 2 -3 0 0 1 -2 0 0 2 -3 0 0 2 -2 0 0 1 -2 0 0 2 -3 0 0 1 -2 0 0 2 -2 0 0 2 -1 0 0 1 -2 0 0 2 -2 0 0 1 -1 0 0 2 -2 0 0 2 -1 0 0 1 -2 0 0 2 -2 0 0 2 -1 0 0 1 -2 0 0 2 -2 0 0 1 -1 0 0 2 -2 0 0 2 -1 0 0 1 -2 0 0 2 -2 0 0 1 -1 0 0 2 -2 0 0 2 -1 0 0 1 -2 0 0 2 -2 0 0 1 -1 0 0 2 -2 0 0 2 -1 0 0 1 -2 0 0 2 -2 0 0 2 -1 0 0 1 0 0 0 2 -1 0 0 1 -1 0 0 2 -1 0 0 2 -1 0 0 1 0 0 0 2 -1 0 0 1 -1 0 0 1 -1 0 0 1 -1 0 0 1 0 0 0 1 -1 0 0 0 -1 0 0 1 -1 0 0 1 -1 0 0 1 0 0 0 1 -1 0 0 0 -1 0 0 1 -1 0 0 1 0 0 0 1 0 0 0 1 0 0 0 0 0 0 0 0 0 0 0 0 0 0 0 0 0 0 0 0 0 0 0 0 0 0 0 25 40 0 0 0 9zm61 74l0 0 0 0 0 0 0 0 0 0 0 0 0 0 0 0 0 0 0 0 0 0 0 0 0 0 0 0 0 0 0 0 0 0 0 0 0 0 0 0 0 0 -1 0 0 0 -1 0 0 0 -1 0 0 0 0 -1 0 0 -1 -1 0 0 -1 -1 0 0 -1 -1 0 0 -1 0 0 0 0 -1 0 0 -1 -1 0 0 -1 -1 0 0 -1 -1 0 0 -1 0 0 0 0 -1 0 0 -1 -1 0 0 -1 -1 0 0 -1 -1 0 0 -1 0 0 0 0 -1 0 0 -1 -1 0 0 -1 -1 0 0 -1 -1 0 0 -1 0 0 0 0 -1 0 0 -1 -1 0 0 -1 -1 0 0 -1 -1 0 0 -1 -1 0 0 0 0 0 0 -1 -1 0 0 -1 -1 0 0 -1 -1 0 0 -1 -1 0 0 0 0 0 0 -1 -1 0 0 -1 -1 0 0 -1 -1 0 0 -1 -1 0 0 -1 0 0 0 0 -1 0 0 -1 -1 0 0 -1 -1 0 0 -1 -1 0 0 0 0 0 0 0 0 0 0 0 0 0 0 0 0 0 0 0 0 0 0 0 0 0 0 0 0 0 0 0 0 0 0 0 0 0 0 0 0 0 0 0 0 0 0 0 0 0 0 0 0 0 0 0 0 0 0 0 0 0 0 0 0 0 0 0 0 0 0 -1 0 0 0 0 0 0 0 -1 1 0 0 -1 1 0 0 -1 1 0 0 -1 1 0 0 0 0 0 0 -1 1 0 0 -1 1 0 0 -1 1 0 0 -1 1 0 0 0 0 0 0 -1 1 0 0 -1 1 0 0 -1 1 0 0 -1 1 0 0 -1 0 0 0 -2 1 0 0 -1 1 0 0 -2 1 0 0 -2 2 0 0 -1 1 0 0 -2 2 0 0 -2 1 0 0 -1 2 0 0 -2 2 0 0 -1 1 0 0 -2 2 0 0 -2 1 0 0 -1 2 0 0 -2 2 0 0 -1 1 0 0 -2 2 0 0 -2 1 0 0 -1 2 0 0 -2 2 0 0 -1 1 0 0 -2 2 0 0 -2 2 0 0 -1 1 0 0 -2 2 0 0 -2 1 0 0 -1 2 0 0 -2 2 0 0 -1 1 0 0 -2 3 0 0 -2 2 0 0 -1 2 0 0 -2 3 0 0 -1 2 0 0 -2 3 0 0 -2 2 0 0 -1 3 0 0 -2 2 0 0 -1 2 0 0 -2 3 0 0 -2 2 0 0 -1 3 0 0 -2 2 0 0 -2 2 0 0 -1 3 0 0 -2 2 0 0 -1 3 0 0 -2 2 0 0 -2 3 0 0 -1 2 0 0 -2 2 0 0 -1 3 0 0 -2 2 0 0 -2 3 0 0 -1 2 0 0 -2 2 0 0 -1 3 0 0 -1 2 0 0 -1 3 0 0 -1 2 0 0 -1 3 0 0 -1 2 0 0 0 2 0 0 -1 3 0 0 -1 2 0 0 -1 3 0 0 -1 2 0 0 0 2 0 0 -1 3 0 0 -1 2 0 0 -1 3 0 0 -1 2 0 0 0 3 0 0 -1 1 0 0 -1 2 0 0 -1 1 0 0 -1 2 0 0 0 2 0 0 -1 1 0 0 -1 2 0 0 -1 1 0 0 -1 2 0 0 0 2 0 0 -1 1 0 0 -1 2 0 0 -1 2 0 0 -1 1 0 0 0 2 0 0 -1 1 0 0 -1 2 0 0 -1 1 0 0 -1 1 0 0 0 0 0 0 -1 1 0 0 0 1 0 0 0 1 0 0 0 1 0 0 0 0 0 0 0 1 0 0 0 1 0 0 0 1 0 0 0 0 0 0 0 0 0 0 0 0 0 0 0 0 0 0 0 0 28 37 0 0 0 0 0 0 0 0 0 0 0 0 0 0 0 0 0 0 0 -1 0 0 0 -1 0 0 0 -1 0 0 0 0 0 0 0 -1 0 0 0 -1 0 0 1 -1 0 0 1 -1 0 0 0 0 0 0 1 -1 0 0 1 -2 0 0 1 -1 0 0 1 -2 0 0 0 -2 0 0 1 -1 0 0 1 -2 0 0 1 -1 0 0 1 -2 0 0 0 -2 0 0 1 -1 0 0 1 -2 0 0 1 -2 0 0 1 -1 0 0 0 -2 0 0 1 -1 0 0 1 -2 0 0 1 -2 0 0 1 -3 0 0 0 -2 0 0 1 -3 0 0 1 -2 0 0 1 -2 0 0 1 -3 0 0 0 -2 0 0 1 -3 0 0 1 -2 0 0 1 -3 0 0 1 -2 0 0 0 -2 0 0 1 -3 0 0 1 -2 0 0 1 -3 0 0 1 -2 0 0 1 -2 0 0 0 -3 0 0 1 -2 0 0 1 -3 0 0 1 -2 0 0 1 -3 0 0 0 -2 0 0 1 -2 0 0 1 -3 0 0 1 -2 0 0 1 -3 0 0 0 -2 0 0 1 -2 0 0 1 -2 0 0 1 -2 0 0 1 -1 0 0 0 -2 0 0 1 -2 0 0 1 -1 0 0 2 -2 0 0 1 -1 0 0 2 -2 0 0 1 -2 0 0 2 -1 0 0 2 -2 0 0 1 -1 0 0 2 -2 0 0 2 -2 0 0 1 -1 0 0 2 -2 0 0 1 -1 0 0 2 -2 0 0 2 -2 0 0 1 -1 0 0 2 -2 0 0 1 -2 0 0 2 -1 0 0 2 -2 0 0 1 -1 0 0 2 -2 0 0 1 -2 0 0 2 -1 0 0 2 -2 0 0 1 -1 0 0 2 -2 0 0 2 -2 0 0 1 -1 0 0 2 -2 0 0 1 -1 0 0 2 -2 0 0 2 -2 0 0 1 -1 0 0 2 -2 0 0 1 -2 0 0 2 -1 0 0 2 -2 0 0 1 -1 0 0 2 -2 0 0 1 -2 0 0 2 -1 0 0 2 -2 0 0 1 -1 0 0 0 -1 0 0 1 -1 0 0 1 -1 0 0 1 -1 0 0 1 0 0 0 0 -1 0 0 1 -1 0 0 1 -1 0 0 1 -1 0 0 1 0 0 0 0 -1 0 0 1 -1 0 0 1 -1 0 0 1 -1 0 0 0 0 0 0 0 0 0 0 0 0 0 0 0 0 0 0 0 0 0 0 16 -5zm86 67l0 0 0 0 0 0 0 0 0 0 0 0 0 0 0 0 0 0 -1 1 0 0 0 1 0 0 -1 1 0 0 -1 1 0 0 -1 0 0 0 -1 1 0 0 -1 1 0 0 0 1 0 0 -1 1 0 0 -1 0 0 0 -2 1 0 0 -1 2 0 0 -2 1 0 0 -1 2 0 0 -2 2 0 0 -2 1 0 0 -1 2 0 0 -2 1 0 0 -1 2 0 0 -2 2 0 0 -2 1 0 0 -1 2 0 0 -2 2 0 0 -1 1 0 0 -2 2 0 0 -2 1 0 0 -1 2 0 0 -2 2 0 0 -2 1 0 0 -1 2 0 0 -2 1 0 0 -1 2 0 0 -2 2 0 0 -2 1 0 0 -1 2 0 0 -2 1 0 0 -1 2 0 0 -2 2 0 0 -2 1 0 0 -1 2 0 0 -2 2 0 0 -2 1 0 0 -1 2 0 0 -2 1 0 0 -1 2 0 0 -2 2 0 0 -2 1 0 0 -1 2 0 0 -2 1 0 0 -1 2 0 0 -2 2 0 0 -2 1 0 0 -1 2 0 0 -2 1 0 0 -1 2 0 0 -2 2 0 0 -2 1 0 0 0 2 0 0 -1 2 0 0 -1 1 0 0 -1 2 0 0 -1 1 0 0 -1 2 0 0 0 2 0 0 -1 1 0 0 -1 2 0 0 -1 1 0 0 -1 2 0 0 0 2 0 0 -1 1 0 0 -2 2 0 0 -1 1 0 0 -2 2 0 0 -2 2 0 0 -1 2 0 0 -2 3 0 0 -1 2 0 0 -2 2 0 0 -2 3 0 0 -1 2 0 0 -2 3 0 0 -1 2 0 0 -2 2 0 0 -2 3 0 0 -1 2 0 0 -2 3 0 0 -2 2 0 0 -1 3 0 0 -2 2 0 0 -1 2 0 0 -2 3 0 0 -2 2 0 0 0 3 0 0 -1 2 0 0 -1 2 0 0 -1 3 0 0 -1 1 0 0 0 2 0 0 -1 2 0 0 -1 1 0 0 -1 2 0 0 -1 2 0 0 0 1 0 0 -1 2 0 0 -1 1 0 0 -1 2 0 0 -1 2 0 0 0 1 0 0 -1 2 0 0 -1 1 0 0 -1 2 0 0 -1 1 0 0 -1 1 0 0 0 0 0 0 -1 1 0 0 -1 1 0 0 -1 1 0 0 0 1 0 0 0 1 0 0 0 0 0 0 0 0 0 0 0 0 0 0 0 0 0 0 0 0 0 0 -28 -25 0 0 0 0 0 0 0 0 0 0 0 0 0 0 0 0 0 -1 0 0 0 -1 0 0 0 -1 0 0 0 -1 0 0 0 -1 0 0 0 0 0 0 1 -1 0 0 1 -1 0 0 0 -1 0 0 1 -1 0 0 1 0 0 0 1 -2 0 0 1 -2 0 0 0 -1 0 0 1 -2 0 0 1 -1 0 0 1 -2 0 0 1 -2 0 0 1 -1 0 0 0 -2 0 0 1 -1 0 0 1 -2 0 0 1 -2 0 0 1 -1 0 0 0 -2 0 0 1 -2 0 0 1 -3 0 0 1 -2 0 0 1 -3 0 0 0 -2 0 0 1 -2 0 0 2 -3 0 0 1 -2 0 0 2 -3 0 0 2 -2 0 0 1 -2 0 0 2 -3 0 0 1 -2 0 0 2 -3 0 0 2 -2 0 0 1 -3 0 0 2 -2 0 0 2 -2 0 0 1 -3 0 0 2 -2 0 0 1 -3 0 0 2 -2 0 0 2 -2 0 0 1 -3 0 0 2 -2 0 0 1 -3 0 0 2 -2 0 0 2 -3 0 0 1 -2 0 0 2 -2 0 0 1 -3 0 0 2 -2 0 0 2 -3 0 0 1 -2 0 0 2 -2 0 0 2 -3 0 0 1 -2 0 0 2 -3 0 0 1 -2 0 0 2 -3 0 0 2 -2 0 0 1 -2 0 0 2 -3 0 0 1 -2 0 0 2 -3 0 0 2 -1 0 0 1 -2 0 0 2 -2 0 0 1 -1 0 0 2 -2 0 0 2 -1 0 0 1 -2 0 0 2 -2 0 0 2 -1 0 0 1 -2 0 0 2 -1 0 0 1 -2 0 0 2 -2 0 0 2 -1 0 0 1 -2 0 0 2 -1 0 0 1 -2 0 0 2 -2 0 0 2 -1 0 0 1 -2 0 0 2 -2 0 0 1 -1 0 0 2 -2 0 0 2 -1 0 0 1 0 0 0 2 -1 0 0 2 -1 0 0 1 -1 0 0 2 -1 0 0 1 0 0 0 2 -1 0 0 2 -1 0 0 1 -1 0 0 2 -1 0 0 1 0 0 0 0 -1 0 0 1 -1 0 0 1 -1 0 0 1 -1 0 0 1 0 0 0 0 -1 0 0 1 -1 0 0 1 -1 0 0 1 -1 0 0 1 0 0 0 1 0 0 0 0 0 0 0 1 0 0 0 0 0 0 0 0 0 0 0 0 0 0 0 0 0 0 0 0 0 0 0 0 0 0 0 29 20 0 0 0 5zm2251 -78l19 -41 0 0 0 0 0 0 0 0 0 0 0 0 0 0 0 0 0 0 0 0 0 0 0 0 0 0 0 0 0 0 0 0 0 0 0 0 0 0 0 0 0 0 0 0 0 0 0 0 0 -1 0 0 0 -1 0 0 0 0 0 0 0 -1 0 0 0 -1 0 0 0 -1 0 0 0 -1 0 0 0 0 0 0 0 -1 0 0 0 -1 0 0 0 -1 0 0 0 -1 0 0 0 0 0 0 0 -1 0 0 0 -1 0 0 0 -1 0 0 0 -1 0 0 -1 0 0 0 -1 -1 0 0 -1 -1 0 0 0 -1 0 0 -1 -1 0 0 -1 -2 0 0 -1 -2 0 0 -1 -1 0 0 0 -2 0 0 -1 -2 0 0 -1 -1 0 0 -1 -2 0 0 -1 -1 0 0 0 -2 0 0 -1 -2 0 0 -1 -1 0 0 -1 -2 0 0 -1 -1 0 0 0 -2 0 0 -1 -2 0 0 -1 -1 0 0 -1 -3 0 0 -1 -2 0 0 -1 -2 0 0 -2 -3 0 0 -2 -2 0 0 -1 -3 0 0 -2 -2 0 0 -1 -3 0 0 -2 -2 0 0 -2 -2 0 0 -1 -3 0 0 -2 -2 0 0 -1 -3 0 0 -2 -2 0 0 -2 -3 0 0 -1 -2 0 0 -2 -2 0 0 -1 -3 0 0 -2 -2 0 0 -2 -3 0 0 -1 -2 0 0 -2 -2 0 0 -2 -3 0 0 -1 -2 0 0 -2 -2 0 0 -1 -1 0 0 -2 -2 0 0 -2 -2 0 0 -1 -1 0 0 -2 -2 0 0 -1 -2 0 0 -2 -1 0 0 -2 -2 0 0 -1 -1 0 0 -2 -2 0 0 -1 -2 0 0 -2 -1 0 0 -2 -2 0 0 -1 -1 0 0 -2 0 0 0 -2 -1 0 0 -1 -1 0 0 -2 -1 0 0 -1 -1 0 0 -2 0 0 0 -2 -1 0 0 -1 -1 0 0 -2 -1 0 0 -1 -1 0 0 -2 0 0 0 -2 -1 0 0 -1 -1 0 0 -2 -1 0 0 -1 -1 0 0 0 -1 0 0 -1 0 0 0 -1 -1 0 0 -1 -1 0 0 -1 0 0 0 -1 0 0 0 0 0 0 0 -1 0 0 0 -1 0 0 0 -1 0 0 0 -1 0 0 0 0 0 0 0 -1 0 0 0 -1 0 0 0 -1 0 0 0 -1 0 0 0 0 0 0 0 0 0 0 0 0 0 0 0 0 0 0 0 0 0 0 0 0 0 0 0 0 0 0 0 0 0 0 0 -10 33 0 0 0 0 0 0 0 0 0 0 0 0 0 0 0 0 0 0 0 0 0 0 0 0 0 0 0 0 1 0 0 0 1 0 0 0 0 0 0 0 1 1 0 0 1 1 0 0 1 1 0 0 1 0 0 0 0 1 0 0 1 1 0 0 1 1 0 0 1 1 0 0 1 0 0 0 0 1 0 0 1 1 0 0 1 1 0 0 1 1 0 0 1 0 0 0 2 1 0 0 2 1 0 0 1 1 0 0 2 1 0 0 2 0 0 0 1 1 0 0 2 1 0 0 1 1 0 0 2 1 0 0 2 2 0 0 1 2 0 0 2 1 0 0 1 2 0 0 2 1 0 0 2 2 0 0 1 2 0 0 2 1 0 0 1 2 0 0 2 2 0 0 2 1 0 0 1 2 0 0 2 1 0 0 2 2 0 0 1 2 0 0 2 1 0 0 1 2 0 0 2 1 0 0 2 2 0 0 1 2 0 0 2 1 0 0 1 2 0 0 2 2 0 0 2 1 0 0 1 2 0 0 2 1 0 0 1 2 0 0 2 2 0 0 2 1 0 0 1 2 0 0 2 1 0 0 2 2 0 0 1 2 0 0 2 1 0 0 1 2 0 0 2 1 0 0 1 2 0 0 1 2 0 0 0 1 0 0 1 2 0 0 1 2 0 0 1 1 0 0 1 2 0 0 0 1 0 0 1 2 0 0 1 2 0 0 1 1 0 0 1 2 0 0 0 1 0 0 1 2 0 0 1 2 0 0 1 1 0 0 1 2 0 0 0 1 0 0 1 2 0 0 1 2 0 0 1 1 0 0 1 2 0 0 0 2 0 0 1 1 0 0 1 2 0 0 1 1 0 0 1 2 0 0 1 2 0 0 0 1 0 0 1 2 0 0 1 1 0 0 0 2 0 0 0 2 0 0 0 1 0 0 0 1 0 0 0 1 0 0 0 1 0 0 0 0 0 0 0 1 0 0 0 1 0 0 0 1 0 0 0 1 0 0 0 0 0 0 0 1 0 0 0 1 0 0 0 1 0 0 0 1 0 0 0 1 0 0 0 0 0 0 0 1 0 0 0 1 0 0 0 1 0 0 0 1 0 0 0 0 0 0 0 0 0 0 0 0 0 0 0 0 0 0 0 0 0 0 0 0 0 0 0 0 0 0 -6 1zm-30 107l26 -53 0 0 0 0 0 0 0 0 0 0 0 0 0 0 0 0 0 0 0 0 0 0 0 0 0 0 0 0 0 0 0 0 0 0 0 0 0 -1 0 0 0 0 0 0 0 -1 0 0 0 -1 0 0 0 -1 0 0 0 -1 0 0 0 0 0 0 0 -1 0 0 0 -1 0 0 0 -1 0 0 0 -1 0 0 0 -1 0 0 0 0 0 0 -1 -1 0 0 0 -1 0 0 -1 -1 0 0 -1 -1 0 0 -1 0 0 0 -1 -1 0 0 0 -1 0 0 -1 -2 0 0 -1 -1 0 0 -1 -2 0 0 -1 -1 0 0 0 -2 0 0 -1 -2 0 0 -1 -1 0 0 -1 -2 0 0 -1 -1 0 0 0 -2 0 0 -1 -2 0 0 -1 -1 0 0 -1 -2 0 0 -1 -2 0 0 0 -1 0 0 -1 -2 0 0 -1 -1 0 0 -1 -2 0 0 -1 -2 0 0 0 -1 0 0 -1 -2 0 0 -1 -1 0 0 -1 -2 0 0 -1 -2 0 0 -1 -1 0 0 -1 -2 0 0 -2 -1 0 0 -1 -3 0 0 -2 -2 0 0 -2 -3 0 0 -1 -2 0 0 -2 -3 0 0 -1 -2 0 0 -2 -2 0 0 -2 -3 0 0 -1 -2 0 0 -2 -3 0 0 -1 -2 0 0 -2 -2 0 0 -2 -3 0 0 -1 -2 0 0 -2 -3 0 0 -2 -2 0 0 -1 -2 0 0 -2 -1 0 0 -1 -2 0 0 -2 -2 0 0 -2 -1 0 0 -1 -2 0 0 -2 -1 0 0 -1 -2 0 0 -2 -2 0 0 -2 -1 0 0 -1 -2 0 0 -2 -1 0 0 -1 -2 0 0 -2 -2 0 0 -2 -1 0 0 -1 -2 0 0 -2 -2 0 0 -2 -1 0 0 -1 -2 0 0 -2 -1 0 0 -1 -2 0 0 -2 -2 0 0 -2 -1 0 0 -1 -2 0 0 -2 -1 0 0 -1 -2 0 0 -2 -2 0 0 -2 0 0 0 -1 -1 0 0 -2 -1 0 0 -1 -1 0 0 -2 -1 0 0 -2 0 0 0 -1 -1 0 0 -2 -1 0 0 -2 -1 0 0 0 -1 0 0 -1 -1 0 0 -1 0 0 0 -1 -1 0 0 -1 -1 0 0 0 -1 0 0 -1 -1 0 0 -1 0 0 0 -1 -1 0 0 -1 -1 0 0 0 -1 0 0 -1 0 0 0 -1 0 0 0 -1 0 0 0 0 0 0 0 0 0 0 0 0 0 0 0 0 0 0 0 0 0 0 0 0 0 0 0 -26 40 0 0 0 0 0 0 0 0 0 0 0 0 0 0 0 0 0 0 0 0 0 0 0 0 1 0 0 0 1 1 0 0 1 0 0 0 1 1 0 0 0 1 0 0 1 1 0 0 1 1 0 0 1 0 0 0 1 1 0 0 0 1 0 0 1 1 0 0 1 1 0 0 1 0 0 0 1 1 0 0 2 1 0 0 2 2 0 0 1 1 0 0 2 2 0 0 2 1 0 0 1 2 0 0 2 2 0 0 1 1 0 0 2 2 0 0 2 1 0 0 1 2 0 0 2 2 0 0 1 1 0 0 2 2 0 0 2 2 0 0 1 1 0 0 2 2 0 0 2 1 0 0 1 2 0 0 2 2 0 0 1 1 0 0 2 2 0 0 2 1 0 0 1 2 0 0 2 2 0 0 1 1 0 0 2 2 0 0 2 1 0 0 1 2 0 0 2 2 0 0 1 1 0 0 2 2 0 0 2 2 0 0 1 1 0 0 2 2 0 0 2 1 0 0 1 2 0 0 2 2 0 0 1 1 0 0 2 2 0 0 2 1 0 0 1 2 0 0 2 2 0 0 1 1 0 0 0 2 0 0 1 2 0 0 1 1 0 0 1 2 0 0 1 1 0 0 0 2 0 0 1 2 0 0 1 1 0 0 1 2 0 0 1 1 0 0 0 2 0 0 1 2 0 0 1 1 0 0 1 2 0 0 1 1 0 0 0 2 0 0 1 2 0 0 1 1 0 0 1 2 0 0 1 2 0 0 1 1 0 0 0 2 0 0 1 1 0 0 1 2 0 0 1 2 0 0 1 1 0 0 0 2 0 0 1 1 0 0 1 2 0 0 1 2 0 0 1 1 0 0 0 2 0 0 1 1 0 0 1 2 0 0 1 2 0 0 1 1 0 0 0 2 0 0 1 2 0 0 1 1 0 0 1 2 0 0 1 1 0 0 0 2 0 0 1 1 0 0 1 1 0 0 1 0 0 0 1 1 0 0 0 1 0 0 1 1 0 0 1 1 0 0 1 0 0 0 1 1 0 0 0 1 0 0 0 1 0 0 0 1 0 0 0 0 0 0 0 1 0 0 0 1 0 0 0 1 0 0 0 1 0 0 0 0 0 0 0 0 0 0 0 0 0 0 0 0 0 0 0 0 0 0 0 0 0 0 0 9zm26 -53l0 0 0 0zm-80 158l28 -37 0 0 0 0 0 0 0 0 0 0 0 0 0 0 0 0 0 0 0 0 0 -1 0 0 0 -1 0 0 0 0 0 0 0 -1 0 0 0 -1 0 0 0 -1 0 0 0 -1 0 0 -1 0 0 0 -1 -1 0 0 -1 -1 0 0 0 -1 0 0 -1 -1 0 0 -1 -2 0 0 -1 -2 0 0 -1 -1 0 0 0 -2 0 0 -1 -2 0 0 -1 -1 0 0 -1 -2 0 0 -1 -1 0 0 0 -2 0 0 -1 -2 0 0 -1 -1 0 0 -1 -2 0 0 -1 -1 0 0 0 -2 0 0 -1 -2 0 0 -1 -1 0 0 -1 -3 0 0 -1 -2 0 0 0 -3 0 0 -1 -2 0 0 -1 -2 0 0 -1 -3 0 0 -1 -2 0 0 0 -3 0 0 -1 -2 0 0 -1 -2 0 0 -1 -3 0 0 -1 -2 0 0 0 -3 0 0 -1 -2 0 0 -1 -3 0 0 -1 -2 0 0 -2 -2 0 0 -1 -3 0 0 -2 -2 0 0 -1 -3 0 0 -2 -2 0 0 -2 -2 0 0 -1 -3 0 0 -2 -2 0 0 -1 -3 0 0 -2 -2 0 0 -2 -3 0 0 -1 -2 0 0 -2 -2 0 0 -1 -3 0 0 -2 -2 0 0 -2 -3 0 0 -1 -2 0 0 -2 -2 0 0 -2 -3 0 0 -1 -2 0 0 -2 -3 0 0 -1 -2 0 0 -2 -3 0 0 -2 -2 0 0 -1 -2 0 0 -2 -3 0 0 -1 -2 0 0 -2 -3 0 0 -2 -1 0 0 -1 -2 0 0 -2 -1 0 0 -1 -2 0 0 -2 -2 0 0 -2 -1 0 0 -1 -2 0 0 -2 -2 0 0 -2 -1 0 0 -1 -2 0 0 -2 -1 0 0 -1 -2 0 0 -2 -2 0 0 -2 -1 0 0 -1 -2 0 0 -2 -1 0 0 -1 -2 0 0 -2 -2 0 0 -2 -1 0 0 -1 -2 0 0 -2 -1 0 0 -1 -2 0 0 -2 -2 0 0 -2 -1 0 0 -1 -2 0 0 -2 -1 0 0 -2 -1 0 0 -1 0 0 0 -2 -1 0 0 -1 -1 0 0 0 -1 0 0 -1 -1 0 0 -1 0 0 0 -1 -1 0 0 -1 -1 0 0 0 -1 0 0 -1 -1 0 0 -1 0 0 0 -1 -1 0 0 -1 -1 0 0 0 -1 0 0 -1 -1 0 0 -1 0 0 0 -1 0 0 0 -1 0 0 0 0 0 0 0 0 0 0 0 0 0 0 0 0 0 0 0 0 0 0 0 0 0 0 0 0 0 0 0 0 0 0 0 0 0 0 0 0 0 0 0 0 0 0 0 0 0 0 0 0 0 0 0 0 0 0 0 0 0 0 0 0 0 0 0 0 0 0 0 0 0 0 0 -1 1 0 0 -1 1 0 0 -1 1 0 0 -1 1 0 0 0 0 0 0 -1 1 0 0 -1 1 0 0 -1 1 0 0 -1 1 0 0 -1 0 0 0 0 1 0 0 -1 1 0 0 -1 1 0 0 -1 1 0 0 -1 0 0 0 0 1 0 0 -1 1 0 0 -1 1 0 0 -1 1 0 0 -1 1 0 0 0 0 0 0 -1 1 0 0 -1 1 0 0 -1 1 0 0 -1 1 0 0 0 0 0 0 -1 1 0 0 -1 1 0 0 -1 1 0 0 -1 1 0 0 0 0 0 0 -1 1 0 0 -1 1 0 0 -1 1 0 0 -1 1 0 0 0 0 0 0 -1 1 0 0 -1 1 0 0 -1 1 0 0 -1 1 0 0 0 0 0 0 -1 0 0 0 0 0 0 0 0 0 0 0 0 0 0 0 0 0 0 0 0 0 0 0 0 0 0 0 0 0 0 0 0 0 0 0 0 0 0 0 0 0 0 0 0 0 0 0 0 0 0 0 0 0 0 0 0 0 0 0 0 0 1 0 0 0 0 1 0 0 1 1 0 0 1 1 0 0 1 1 0 0 1 0 0 0 0 1 0 0 1 1 0 0 1 1 0 0 1 1 0 0 1 0 0 0 0 1 0 0 1 1 0 0 1 1 0 0 1 2 0 0 1 1 0 0 2 2 0 0 2 1 0 0 1 2 0 0 2 2 0 0 1 1 0 0 2 2 0 0 2 1 0 0 1 2 0 0 2 2 0 0 2 1 0 0 1 2 0 0 2 1 0 0 1 2 0 0 2 2 0 0 2 1 0 0 1 2 0 0 2 2 0 0 1 1 0 0 2 2 0 0 2 1 0 0 1 2 0 0 2 2 0 0 1 1 0 0 2 2 0 0 2 1 0 0 1 2 0 0 2 2 0 0 2 1 0 0 1 2 0 0 2 1 0 0 1 2 0 0 2 2 0 0 2 1 0 0 1 2 0 0 2 2 0 0 1 1 0 0 2 2 0 0 2 1 0 0 1 2 0 0 2 2 0 0 1 1 0 0 1 2 0 0 1 1 0 0 1 2 0 0 1 2 0 0 0 1 0 0 1 2 0 0 1 2 0 0 1 3 0 0 1 2 0 0 1 3 0 0 0 2 0 0 1 2 0 0 1 3 0 0 1 2 0 0 1 3 0 0 0 2 0 0 1 2 0 0 1 3 0 0 1 2 0 0 1 3 0 0 0 2 0 0 1 3 0 0 1 2 0 0 1 2 0 0 1 3 0 0 0 2 0 0 1 3 0 0 1 2 0 0 1 2 0 0 1 3 0 0 0 2 0 0 1 3 0 0 1 2 0 0 1 3 0 0 1 2 0 0 0 2 0 0 1 2 0 0 1 2 0 0 1 1 0 0 1 2 0 0 1 1 0 0 0 2 0 0 1 2 0 0 1 1 0 0 1 2 0 0 1 2 0 0 0 1 0 0 1 2 0 0 1 1 0 0 1 2 0 0 1 2 0 0 0 1 0 0 1 1 0 0 1 1 0 0 1 1 0 0 1 0 0 0 0 1 0 0 0 1 0 0 0 1 0 0 0 1 0 0 0 0 0 0 0 1 0 0 0 0 0 0 0 0 0 0 0 0 0 0 0 0 0 0 16 5zm28 -37l0 0 0 0zm-94 102l29 -25 0 0 0 0 0 0 0 0 0 0 0 0 0 0 0 0 0 -1 0 0 0 -1 0 0 0 -1 0 0 0 -1 0 0 0 0 0 0 0 -1 0 0 -1 -1 0 0 -1 -1 0 0 -1 -1 0 0 -1 -1 0 0 0 0 0 0 -1 -2 0 0 -1 -2 0 0 -1 -1 0 0 -1 -2 0 0 0 -1 0 0 -1 -2 0 0 -1 -2 0 0 -1 -1 0 0 -1 -2 0 0 0 -1 0 0 -1 -2 0 0 -1 -2 0 0 -1 -1 0 0 -1 -2 0 0 0 -2 0 0 -1 -3 0 0 -1 -2 0 0 -1 -3 0 0 -1 -2 0 0 -1 -2 0 0 -1 -3 0 0 -2 -2 0 0 -1 -3 0 0 -2 -2 0 0 -2 -2 0 0 -1 -3 0 0 -2 -2 0 0 -1 -3 0 0 -2 -2 0 0 -2 -3 0 0 -1 -2 0 0 -2 -2 0 0 -1 -3 0 0 -2 -2 0 0 -2 -3 0 0 -1 -2 0 0 -2 -2 0 0 -2 -3 0 0 -1 -2 0 0 -2 -3 0 0 -1 -2 0 0 -2 -3 0 0 -2 -2 0 0 -1 -2 0 0 -2 -3 0 0 -1 -2 0 0 -2 -3 0 0 -2 -2 0 0 -1 -2 0 0 -2 -3 0 0 -1 -2 0 0 -2 -3 0 0 -2 -2 0 0 -1 -3 0 0 -2 -2 0 0 -2 -2 0 0 -1 -3 0 0 -2 -2 0 0 -1 -3 0 0 -2 -1 0 0 -2 -2 0 0 -1 -1 0 0 -2 -2 0 0 -1 -2 0 0 -2 -1 0 0 -2 -2 0 0 -1 -2 0 0 -2 -1 0 0 -1 -2 0 0 -2 -1 0 0 -2 -2 0 0 -1 -2 0 0 -2 -1 0 0 -2 -2 0 0 -1 -1 0 0 -2 -2 0 0 -1 -2 0 0 -2 -1 0 0 -2 -2 0 0 -1 -1 0 0 -2 -2 0 0 -1 -2 0 0 -2 -1 0 0 -2 0 0 0 -1 -1 0 0 -2 -1 0 0 -1 -1 0 0 -2 -1 0 0 -2 0 0 0 -1 -1 0 0 -2 -1 0 0 -2 -1 0 0 -1 -1 0 0 -1 0 0 0 -1 -1 0 0 -1 -1 0 0 0 -1 0 0 -1 -1 0 0 -1 0 0 0 -1 -1 0 0 -1 -1 0 0 0 -1 0 0 -1 -1 0 0 -1 0 0 0 -1 0 0 0 -1 0 0 0 0 0 0 0 0 0 0 0 0 0 0 0 0 0 0 0 0 0 0 0 0 0 0 0 0 0 0 0 -29 21 0 0 0 0 0 0 0 0 0 0 0 0 0 0 0 0 0 0 0 0 0 0 0 0 1 1 0 0 1 1 0 0 1 1 0 0 1 1 0 0 0 0 0 0 1 1 0 0 1 1 0 0 1 1 0 0 1 1 0 0 1 0 0 0 2 2 0 0 1 2 0 0 2 1 0 0 2 2 0 0 1 1 0 0 2 2 0 0 2 2 0 0 1 1 0 0 2 2 0 0 1 1 0 0 2 2 0 0 2 2 0 0 1 1 0 0 2 2 0 0 1 2 0 0 2 1 0 0 2 2 0 0 1 1 0 0 2 2 0 0 1 2 0 0 2 1 0 0 2 2 0 0 1 1 0 0 2 2 0 0 2 2 0 0 1 1 0 0 2 2 0 0 1 1 0 0 2 2 0 0 2 2 0 0 1 1 0 0 2 2 0 0 1 2 0 0 2 1 0 0 2 2 0 0 1 1 0 0 2 2 0 0 1 2 0 0 2 1 0 0 2 2 0 0 1 1 0 0 2 2 0 0 2 2 0 0 1 1 0 0 2 2 0 0 1 1 0 0 1 2 0 0 1 2 0 0 1 1 0 0 1 2 0 0 0 2 0 0 1 1 0 0 1 2 0 0 1 1 0 0 1 2 0 0 0 2 0 0 1 1 0 0 1 2 0 0 2 1 0 0 1 2 0 0 2 2 0 0 1 1 0 0 2 2 0 0 2 2 0 0 1 3 0 0 2 2 0 0 2 3 0 0 1 2 0 0 2 2 0 0 1 3 0 0 2 2 0 0 2 3 0 0 1 2 0 0 2 2 0 0 1 3 0 0 2 2 0 0 2 3 0 0 1 2 0 0 2 3 0 0 1 2 0 0 2 2 0 0 1 3 0 0 1 2 0 0 1 3 0 0 0 2 0 0 1 2 0 0 1 1 0 0 1 2 0 0 1 2 0 0 0 1 0 0 1 2 0 0 1 1 0 0 1 2 0 0 1 2 0 0 0 1 0 0 1 2 0 0 1 1 0 0 1 2 0 0 1 2 0 0 0 1 0 0 1 1 0 0 1 1 0 0 1 1 0 0 1 0 0 0 0 1 0 0 1 1 0 0 0 1 0 0 0 1 0 0 0 0 0 0 0 0 0 0 0 0 0 0 0 0 0 0 0 0 0 0 -1 5zm29 -25l0 0 0 0zm-1071 903l-5 0c-10,1 -18,1 -25,1 -14,0 -25,-1 -25,-1l0 0 -61 0 0 0c-1,0 -11,1 -25,1 -7,0 -16,0 -25,-1l-5 0 0 -1c-21,-2 -43,-9 -53,-25 -15,-23 -57,-27 -82,-28 -7,0 -12,1 -12,1 0,0 0,0 -1,0 -5,0 -8,0 -8,0 0,0 -79,-21 -79,-124 0,-102 0,-130 0,-130 0,0 -9,-28 28,-51 25,-15 52,-17 66,-16 4,0 8,0 10,0 -20,-35 -41,-86 17,-106 34,-11 34,-11 34,-11l0 -76c0,0 3,-49 43,-63 39,-15 65,-23 65,-23 0,0 3,-31 51,-31l1 0 1 0c1,0 2,0 4,0 0,0 2,0 4,0l0 0 1 0c49,0 51,31 51,31 0,0 26,9 65,23 40,14 43,63 43,63l0 76c0,0 0,0 34,11 59,20 36,71 17,106 3,0 6,0 10,0 15,-1 41,1 66,16 37,23 29,51 29,51 0,0 0,28 0,130 0,103 -79,124 -79,124 0,0 -4,0 -9,0 0,0 -1,0 -1,0 0,0 -4,0 -11,-1 -25,1 -67,5 -83,28 -10,16 -32,23 -53,25l0 1 2 0zm574 -193c-53,-5 -108,-28 -139,-66 -48,-59 -37,-99 -37,-99 0,0 -11,-85 37,-108 48,-23 221,-108 221,-108 0,0 9,-2 21,-3l1 0 0 0 2 0 0 0 1 0 0 0 2 0 0 0 2 0 0 0 1 0 0 0 2 0 0 0 2 0 0 0 1 0 0 0 2 0 0 0 1 0 0 0 2 0c18,1 35,10 39,32l0 224c0,0 -15,94 -80,119 -13,5 -28,8 -44,10 -2,0 -3,0 -4,0l0 0 -4 0 0 0 -5 0 0 0 -4 0 0 0 -4 0 0 0 -4 0 0 0 -4 0 0 0 -4 0 0 0 -4 0 0 0 -4 0 4 -1zm-1483 -353l0 224c0,0 14,94 80,120 13,4 28,8 44,9l4 0 0 0 4 0 0 0 4 0 0 0 4 0 0 0 4 0 0 0 4 0 0 0 4 0 0 0 4 0 0 0 4 0 0 0 4 0c54,-5 109,-28 140,-66 48,-59 37,-99 37,-99 0,0 11,-85 -37,-108 -49,-23 -222,-108 -222,-108 0,0 -9,-2 -20,-3l-2 0 0 0 -1 0 0 0 -2 0 0 0 -1 0 0 0 -2 0 0 0 -2 0 0 0 -1 0 0 0 -2 0 0 0 -1 0 0 0 -2 0 0 0 -2 0 0 0 -1 0c-18,1 -36,10 -39,32l-4 -1zm-254 -295l0 0 0 0zm1959 -186l0 0 0 0zm176 -117l0 0 0 0zm-2334 42l0 0 0 0zm53 121l0 0 0 0zm65 77l0 0 0 0z"/>
     <path class="fil15" d="M2036 1815l252 0c0,0 22,80 181,153 159,74 307,114 307,114 0,0 40,12 90,11 77,1 181,-27 185,-188 1,-53 4,-93 6,-121l-1790 0c2,28 4,68 5,121 4,161 108,189 186,188 49,1 90,-11 90,-11 0,0 147,-40 307,-114 159,-74 181,-153 181,-153l0 0z"/>
     <polygon class="fil16" points="2769,2756 2225,2428 2097,2436 1551,2757 2103,2485 2220,2485 "/>
     <polygon class="fil16" points="1551,2756 2095,2428 2224,2436 2769,2757 2217,2485 2101,2485 "/>
     <path class="fil17" d="M3204 1532c45,1 -490,193 -1204,145 -714,-49 -638,-374 -496,-679 143,-304 326,-424 721,-432 394,-8 991,203 979,966l0 0z"/>
     <path class="fil18" d="M1519 3311c65,0 117,52 117,117 0,66 -52,118 -117,118 -65,0 -118,-52 -118,-118 0,-65 53,-117 118,-117zm1286 0c65,0 117,52 117,117 0,66 -52,118 -117,118 -65,0 -118,-52 -118,-118 0,-65 53,-117 118,-117zm0 34c46,0 83,37 83,83 0,46 -37,83 -83,83 -46,0 -83,-37 -83,-83 0,-46 37,-83 83,-83zm-1286 0c46,0 83,37 83,83 0,46 -37,83 -83,83 -46,0 -83,-37 -83,-83 0,-46 37,-83 83,-83z"/>
     <path class="fil16" d="M2160 3189l0 0c53,0 97,44 97,97l0 397c0,27 -22,48 -48,48l-97 0c-27,0 -48,-21 -48,-48l0 -397c0,-53 43,-97 96,-97zm0 48l0 0c36,0 64,29 64,63l0 351c0,17 -15,32 -32,32l-64 0c-18,0 -32,-15 -32,-32l0 -351c0,-35 29,-63 63,-63l1 0z"/>
     <path class="fil19" d="M2160 3320l0 0c22,0 40,18 40,41l0 220c0,11 -8,20 -20,20l-40 0c-11,0 -20,-9 -20,-20l0 -220c0,-22 18,-41 40,-41z"/>
    </g>
   </g>
  </g>
 </g>
</svg>
