<?xml version="1.0" encoding="UTF-8"?>
<!DOCTYPE svg PUBLIC "-//W3C//DTD SVG 1.1//EN" "http://www.w3.org/Graphics/SVG/1.1/DTD/svg11.dtd">
<!-- Creator: CorelDRAW X6 -->
<svg xmlns="http://www.w3.org/2000/svg" xml:space="preserve" width="512px" height="512px" version="1.1" style="shape-rendering:geometricPrecision; text-rendering:geometricPrecision; image-rendering:optimizeQuality; fill-rule:evenodd; clip-rule:evenodd"
viewBox="0 0 512 512"
 xmlns:xlink="http://www.w3.org/1999/xlink">
 <defs>
  <style type="text/css">
   <![CDATA[
    .str0 {stroke:black;stroke-width:2.36221}
    .fil2 {fill:black}
    .fil3 {fill:#1A1A1A}
    .fil4 {fill:#333333}
    .fil6 {fill:#663333}
    .fil8 {fill:#690A0D}
    .fil9 {fill:#7A1A1D}
    .fil0 {fill:#AB2B2B}
    .fil7 {fill:#D9B377}
    .fil10 {fill:#E8B8A2}
    .fil1 {fill:#F7C8B2}
    .fil11 {fill:#FF6600}
    .fil5 {fill:white}
   ]]>
  </style>
 </defs>
 <g id="Layer_x0020_1">
  <metadata id="CorelCorpID_0Corel-Layer"/>
  <g id="_487798392">
   <g>
    <path class="fil0" d="M260 12c136,0 246,110 246,246 0,136 -110,246 -246,246 -136,0 -246,-110 -246,-246 0,-136 110,-246 246,-246z"/>
    <g>
     <g>
      <path class="fil1" d="M378 264c0,0 -18,50 -20,74 -2,25 -11,45 -20,62 -9,16 -35,34 -44,42 -7,7 -27,4 -34,3 -8,1 -27,3 -34,-3 -9,-8 -35,-25 -44,-42 -9,-16 -18,-37 -20,-62 -2,-25 -20,-74 -20,-74l60 -126 -1 -4 3 -1 13 -27 43 12 43 -12 13 27 3 1 -1 4 60 126z"/>
      <g>
       <path class="fil2 str0" d="M259 175c0,0 15,11 33,8 19,-3 16,18 43,33 27,15 33,26 31,48 -2,22 3,36 3,36 0,0 8,0 11,-24 3,-24 2,-21 19,-32 16,-11 19,-4 23,-27 5,-23 -2,-40 8,-51 3,-6 2,-35 -7,-44 -8,-9 -30,-19 -53,-28 -24,-9 25,-21 -61,-24 -86,-3 -50,106 -50,106z"/>
       <path class="fil3 str0" d="M262 175c0,0 -15,11 -33,8 -19,-3 -16,18 -43,33 -27,15 -33,26 -31,48 2,22 -3,36 -3,36 0,0 -8,0 -11,-24 -3,-24 -2,-21 -19,-32 -16,-11 -19,-4 -23,-27 -5,-23 2,-40 -8,-51 -3,-6 -2,-35 7,-44 8,-9 30,-19 53,-28 24,-9 -25,-21 61,-24 86,-3 50,106 50,106z"/>
      </g>
     </g>
     <g>
      <g>
       <path class="fil4" d="M273 284c0,0 17,-11 41,-15 25,-4 38,-2 41,-7 3,-6 3,-6 3,-6 0,0 -63,-15 -86,28z"/>
       <path class="fil3" d="M356 259c0,0 -2,5 -22,8 -19,2 -34,4 -46,9 -12,5 -16,8 -16,8l5 -7c0,0 18,-15 79,-18z"/>
      </g>
      <g>
       <path class="fil4" d="M248 284c0,0 -17,-11 -41,-15 -25,-4 -38,-2 -41,-7 -3,-6 -3,-6 -3,-6 0,0 63,-15 86,28z"/>
       <path class="fil3" d="M164 259c0,0 2,5 22,8 19,2 34,4 46,9 12,5 16,8 16,8l-5 -7c0,0 -18,-15 -79,-18z"/>
      </g>
     </g>
     <g>
      <g>
       <path class="fil5" d="M288 298c0,0 11,-17 22,-19 12,-2 31,5 31,5 0,0 -6,28 -53,14z"/>
       <path class="fil6" d="M316 279c6,0 11,5 11,11 0,6 -5,11 -11,11 -6,0 -11,-5 -11,-11 0,-6 5,-11 11,-11z"/>
       <path class="fil3" d="M316 287c2,0 4,2 4,4 0,2 -2,4 -4,4 -2,0 -4,-2 -4,-4 0,-2 2,-4 4,-4z"/>
       <path class="fil7" d="M283 297l5 1c0,0 10,-15 25,-17 15,-1 28,3 28,3l10 -5c0,0 -16,-11 -41,-4 -25,7 -28,22 -28,22z"/>
      </g>
      <g>
       <path class="fil5" d="M232 298c0,0 -11,-17 -22,-19 -12,-2 -31,5 -31,5 0,0 6,28 53,14z"/>
       <path class="fil6" d="M204 279c-6,0 -11,5 -11,11 0,6 5,11 11,11 6,0 11,-5 11,-11 0,-6 -5,-11 -11,-11z"/>
       <path class="fil3" d="M204 287c-2,0 -4,2 -4,4 0,2 2,4 4,4 2,0 4,-2 4,-4 0,-2 -2,-4 -4,-4z"/>
       <path class="fil7" d="M238 297l-5 1c0,0 -10,-15 -25,-17 -15,-1 -28,3 -28,3l-10 -5c0,0 16,-11 41,-4 25,7 28,22 28,22z"/>
      </g>
     </g>
     <g>
      <path class="fil8" d="M303 395c0,0 -10,5 -19,9 -9,4 -28,7 -40,3 -12,-3 -26,-13 -26,-13 0,0 26,-1 85,0z"/>
      <path class="fil8" d="M218 395c0,0 10,5 19,9 9,4 28,7 40,3 12,-3 26,-13 26,-13 0,0 -26,-1 -85,0z"/>
      <path class="fil9" d="M291 393c-5,-2 -13,-4 -18,-3 -3,0 -5,1 -6,2 -3,1 -5,1 -7,2 -2,0 -4,-1 -7,-2 -2,-1 -4,-2 -6,-2 -4,-1 -13,1 -18,3 -6,1 -12,3 -12,3l20 2c8,2 16,2 23,2 6,0 15,0 23,-2l20 -2c0,0 -6,-1 -12,-3z"/>
     </g>
     <path class="fil10" d="M247 283c9,30 6,31 3,60 -4,0 -8,-1 -11,-3 -7,-4 -9,6 -9,12 0,6 4,6 9,4 5,-2 10,8 16,12 2,1 4,2 6,1 2,0 5,0 6,-1 6,-4 11,-14 16,-12 5,2 9,2 9,-4 0,-6 -2,-17 -9,-12 -4,2 -8,3 -11,3 -3,-29 -4,-29 3,-60 1,-6 -7,0 -13,0 -7,0 -14,-7 -14,0z"/>
    </g>
   </g>
   <path class="fil11" d="M372 297c6,0 11,5 11,11 0,6 -5,11 -11,11 -6,0 -11,-5 -11,-11 0,-6 5,-11 11,-11z"/>
   <path class="fil11" d="M148 297c6,0 11,5 11,11 0,6 -5,11 -11,11 -6,0 -11,-5 -11,-11 0,-6 5,-11 11,-11z"/>
  </g>
 </g>
</svg>
