<?xml version="1.0" encoding="UTF-8"?>
<!DOCTYPE svg PUBLIC "-//W3C//DTD SVG 1.1//EN" "http://www.w3.org/Graphics/SVG/1.1/DTD/svg11.dtd">
<!-- Creator: CorelDRAW X6 -->
<svg xmlns="http://www.w3.org/2000/svg" xml:space="preserve" width="43.3492mm" height="43.3492mm" version="1.1" style="shape-rendering:geometricPrecision; text-rendering:geometricPrecision; image-rendering:optimizeQuality; fill-rule:evenodd; clip-rule:evenodd"
viewBox="0 0 4335 4335"
 xmlns:xlink="http://www.w3.org/1999/xlink">
 <defs>
  <style type="text/css">
   <![CDATA[
    .fil5 {fill:#27A350}
    .fil1 {fill:gray}
    .fil6 {fill:#91FAFA}
    .fil0 {fill:#999999}
    .fil2 {fill:#ADADAD}
    .fil7 {fill:#B3B3B3}
    .fil9 {fill:#C7C5C5}
    .fil8 {fill:#CCCCCC}
    .fil3 {fill:#D4D4D4}
    .fil4 {fill:#E6E6E6}
   ]]>
  </style>
 </defs>
 <g id="Layer_x0020_1">
  <metadata id="CorelCorpID_0Corel-Layer"/>
  <g id="_698906672">
   <path class="fil0" d="M2141 67c1151,0 2084,933 2084,2084 0,1151 -933,2084 -2084,2084 -1151,0 -2084,-933 -2084,-2084 0,-1151 933,-2084 2084,-2084z"/>
   <path class="fil1" d="M2141 309c1017,0 1842,824 1842,1842 0,1017 -824,1842 -1842,1842 -1017,0 -1842,-824 -1842,-1842 0,-1017 824,-1842 1842,-1842z"/>
   <g>
    <g>
     <g>
      <g>
       <g>
        <path class="fil2" d="M2971 2129c0,0 73,-331 61,-557 -12,-226 -128,-740 -868,-740 -8,0 -16,0 -23,1 -7,0 -15,-1 -23,-1 -740,0 -856,514 -868,740 -12,226 61,557 61,557 0,0 -12,-57 -147,-30 -136,27 -104,147 -67,416 37,269 245,245 245,245 0,0 61,165 214,422 153,257 471,288 471,288l3 0 223 0 3 0c0,0 318,-30 471,-288 153,-257 214,-422 214,-422 0,0 208,25 245,-245 37,-269 68,-390 -67,-416 -136,-27 -147,30 -147,30l-2 0z"/>
        <path class="fil2" d="M3031 1573c-12,-226 -128,-740 -868,-740 -8,0 -16,0 -23,1 -7,0 -15,-1 -23,-1 -740,0 -856,514 -868,740 -2,33 -2,68 0,103 0,0 189,-154 359,-224 388,-163 1104,-112 1425,121l-2 0z"/>
        <path class="fil2" d="M2940 2759c0,0 208,25 245,-245 37,-269 68,-390 -67,-416 -91,-17 -125,2 -139,17 -6,115 -24,519 -38,644l0 -1z"/>
        <path class="fil2" d="M1341 2759c0,0 -208,25 -245,-245 -37,-269 -68,-390 67,-416 91,-17 125,2 139,17 6,115 24,519 38,644l0 -1z"/>
       </g>
       <g>
        <path class="fil3" d="M2931 2130c0,0 70,-315 58,-530 -11,-215 -122,-705 -827,-705 -8,0 -15,0 -22,1 -7,0 -14,-1 -22,-1 -705,0 -816,489 -827,705 -11,215 58,530 58,530 0,0 -11,-54 -140,-29 -129,25 -99,140 -64,396 35,256 233,233 233,233 0,0 58,157 204,402 146,245 448,274 448,274l3 0 213 0 3 0c0,0 303,-29 448,-274 146,-245 204,-402 204,-402 0,0 198,24 233,-233 35,-256 65,-372 -64,-396 -129,-25 -140,29 -140,29l-2 0z"/>
        <path class="fil4" d="M2989 1601c-11,-215 -122,-705 -827,-705 -8,0 -15,0 -22,1 -7,0 -14,-1 -22,-1 -705,0 -816,489 -827,705 -2,31 -2,65 0,99 0,0 180,-147 342,-214 370,-155 1052,-106 1357,115l-2 0z"/>
        <path class="fil4" d="M2902 2730c0,0 198,24 233,-233 35,-256 65,-372 -64,-396 -86,-17 -120,2 -133,17 -5,110 -23,495 -37,613l0 -1z"/>
        <path class="fil4" d="M1379 2730c0,0 -198,24 -233,-233 -35,-256 -65,-372 64,-396 86,-17 119,2 133,17 5,110 23,495 37,613l0 -1z"/>
       </g>
       <path class="fil5" d="M2786 2116c0,0 -139,-61 -315,-61 -176,0 -200,67 -200,97 0,30 55,121 515,-36zm-1290 0c0,0 139,-61 315,-61 176,0 200,67 200,97 0,30 -55,121 -515,-36z"/>
       <path class="fil6" d="M2429 2105c15,0 27,12 27,27 0,15 -12,27 -27,27 -15,0 -27,-12 -27,-27 0,-15 12,-27 27,-27zm-575 0c15,0 27,12 27,27 0,15 -12,27 -27,27 -15,0 -27,-12 -27,-27 0,-15 12,-27 27,-27z"/>
       <path class="fil7" d="M2944 2100c0,0 -13,390 -150,489 -136,99 -279,341 -323,496 -43,155 -75,285 -75,285 0,0 214,-50 347,-307 133,-257 189,-265 201,-963z"/>
       <path class="fil7" d="M1336 2100c0,0 13,390 150,489 136,99 279,341 323,496 43,155 75,285 75,285 0,0 -214,-50 -347,-307 -133,-257 -189,-265 -201,-963z"/>
       <path class="fil7" d="M1919 2868l430 0c0,0 -164,-109 -430,0z"/>
       <path class="fil0" d="M1919 2898l430 0c0,0 -164,109 -430,0z"/>
       <path class="fil7" d="M2958 1991c0,0 -263,-173 -772,-173 -509,0 -861,174 -861,174 0,0 358,-278 861,-268 503,9 772,267 772,267z"/>
      </g>
      <path class="fil8" d="M2131 2190l0 458 228 0c0,0 -123,-72 -209,-458l-19 0z"/>
      <path class="fil9" d="M2151 2190l0 458 -228 0c0,0 123,-72 209,-458l19 0z"/>
      <path class="fil0" d="M2359 2647l-436 0c0,0 242,-69 436,0z"/>
     </g>
     <path class="fil7" d="M2901 1266c0,0 -88,314 -7,457 82,143 44,395 44,395 0,0 186,-613 -38,-852zm-1519 0c0,0 88,314 7,457 -82,143 -44,395 -44,395 0,0 -186,-613 38,-852z"/>
     <path class="fil8" d="M1628 1009c0,0 4,6 13,17 -9,7 -13,11 -13,11 0,0 16,9 43,23 61,59 189,149 405,149 29,0 58,-1 87,-4 29,3 58,4 87,4 216,0 344,-90 405,-149 28,-14 43,-23 43,-23 0,0 -4,-4 -13,-11 9,-11 13,-17 13,-17 0,0 -94,-112 -512,-112 -8,0 -15,0 -23,0 -7,0 -15,0 -23,0 -418,0 -512,112 -512,112z"/>
    </g>
    <path class="fil7" d="M3008 2178c0,0 2,183 -13,304 -14,121 -20,179 -20,179 0,0 194,-292 33,-483zm-1733 0c0,0 -2,183 13,304 14,121 20,179 20,179 0,0 -194,-292 -33,-483z"/>
   </g>
  </g>
 </g>
</svg>
