<?xml version="1.0" encoding="UTF-8"?>
<!DOCTYPE svg PUBLIC "-//W3C//DTD SVG 1.1//EN" "http://www.w3.org/Graphics/SVG/1.1/DTD/svg11.dtd">
<!-- Creator: CorelDRAW X6 -->
<svg xmlns="http://www.w3.org/2000/svg" xml:space="preserve" width="43.3492mm" height="43.3492mm" version="1.1" style="shape-rendering:geometricPrecision; text-rendering:geometricPrecision; image-rendering:optimizeQuality; fill-rule:evenodd; clip-rule:evenodd"
viewBox="0 0 4335 4335"
 xmlns:xlink="http://www.w3.org/1999/xlink">
 <defs>
  <style type="text/css">
   <![CDATA[
    .fil6 {fill:#434343}
    .fil1 {fill:#4D4D4D}
    .fil0 {fill:#71C8DE}
    .fil2 {fill:#797979}
    .fil5 {fill:#939393}
    .fil3 {fill:#AEAEAE}
    .fil4 {fill:#C9C9C9}
    .fil7 {fill:white}
   ]]>
  </style>
 </defs>
 <g id="Layer_x0020_1">
  <metadata id="CorelCorpID_0Corel-Layer"/>
  <g id="_594233808">
   <path class="fil0" d="M2173 156c1075,0 1947,872 1947,1947 0,1075 -872,1947 -1947,1947 -1075,0 -1947,-872 -1947,-1947 0,-1075 872,-1947 1947,-1947z"/>
   <g>
    <path class="fil1" d="M3170 3078l0 142c0,0 29,558 -464,587 -341,20 -570,232 -651,418l53 0c89,-188 392,-347 582,-363 306,-25 467,-196 527,-467 25,-112 30,-228 28,-326l-72 0 -2 8z"/>
    <g>
     <g>
      <path class="fil2" d="M2173 653c703,0 1272,570 1272,1272 0,35 -1,69 -4,102l-227 0c3,-34 5,-68 5,-102 0,-578 -469,-1046 -1046,-1046 -578,0 -1046,469 -1046,1046 0,35 2,69 5,102l-227 0c-3,-34 -4,-68 -4,-102 0,-703 570,-1272 1272,-1272z"/>
      <path class="fil3" d="M2173 678c689,0 1247,558 1247,1247 0,35 -1,69 -4,102l-201 0c3,-34 5,-68 5,-102 0,-578 -469,-1046 -1046,-1046 -578,0 -1046,469 -1046,1046 0,35 2,69 5,102l-201 0c-3,-34 -4,-68 -4,-102 0,-689 558,-1247 1247,-1247z"/>
      <path class="fil4" d="M2173 817c612,0 1108,496 1108,1108 0,35 -2,69 -5,102l-62 0c3,-34 5,-68 5,-102 0,-578 -469,-1046 -1046,-1046 -578,0 -1046,469 -1046,1046 0,35 2,69 5,102l-62 0c-3,-34 -5,-68 -5,-102 0,-612 496,-1108 1108,-1108z"/>
      <path class="fil5" d="M2173 848c595,0 1077,482 1077,1077 0,35 -2,69 -5,102l-31 0c3,-34 5,-68 5,-102 0,-578 -469,-1046 -1046,-1046 -578,0 -1046,469 -1046,1046 0,35 2,69 5,102l-31 0c-3,-34 -5,-68 -5,-102 0,-595 482,-1077 1077,-1077z"/>
     </g>
     <g>
      <g>
       <path class="fil3" d="M1124 1931l0 0c128,0 237,84 276,199 -18,112 -27,235 -27,364 0,145 12,282 34,406 -27,102 -121,178 -231,178l0 0c-229,0 -416,-187 -416,-416l0 -366c0,-200 164,-364 364,-364z"/>
       <path class="fil6" d="M1251 1961c70,34 124,95 149,169 -18,112 -27,235 -27,364 0,145 12,282 34,406 -21,78 -80,140 -156,165l0 -1104z"/>
      </g>
      <g>
       <path class="fil3" d="M3222 1931l0 0c-122,0 -227,76 -270,183 17,112 27,235 27,363 0,154 -14,299 -39,429 29,99 121,172 229,172l0 0c229,0 416,-187 416,-416l0 -366c0,-200 -164,-364 -364,-364z"/>
       <path class="fil6" d="M3095 1961c-64,32 -116,86 -143,153 17,112 27,235 27,363 0,154 -14,299 -39,429 22,75 80,135 154,160l0 -1104z"/>
      </g>
     </g>
     <path class="fil5" d="M3582 2245c0,0 12,-112 -116,-217 -131,-108 -235,-105 -372,-67l0 110c0,0 325,-146 488,173z"/>
     <path class="fil5" d="M760 2245c0,0 -12,-112 116,-217 131,-108 235,-105 372,-67l0 110c0,0 -325,-146 -488,173z"/>
     <path class="fil4" d="M760 2634c0,0 -12,162 116,313 131,155 235,151 372,97l0 -159c0,0 -325,212 -488,-250z"/>
     <path class="fil4" d="M3586 2634c0,0 12,162 -115,313 -131,155 -235,151 -372,97l0 -159c0,0 325,212 488,-250z"/>
    </g>
   </g>
   <path class="fil7" d="M1818 2363c10,0 19,1 29,2l0 0c92,0 78,-73 78,-73l0 -472 0 -118c0,0 0,-71 106,-106 106,-35 710,-142 710,-142l0 248 0 -56 0 842c0,108 -95,195 -213,195 -118,0 -213,-87 -213,-195 0,-108 95,-195 213,-195 10,0 19,1 29,2l0 0c92,0 78,-73 78,-73l0 -557 -532 96c0,0 -71,15 -71,99l0 699c0,108 -95,195 -213,195 -118,0 -213,-87 -213,-195 0,-108 95,-195 213,-195z"/>
  </g>
 </g>
</svg>
