<?xml version="1.0" encoding="UTF-8"?>
<!DOCTYPE svg PUBLIC "-//W3C//DTD SVG 1.1//EN" "http://www.w3.org/Graphics/SVG/1.1/DTD/svg11.dtd">
<!-- Creator: CorelDRAW X6 -->
<svg xmlns="http://www.w3.org/2000/svg" xml:space="preserve" width="512px" height="512px" version="1.1" style="shape-rendering:geometricPrecision; text-rendering:geometricPrecision; image-rendering:optimizeQuality; fill-rule:evenodd; clip-rule:evenodd"
viewBox="0 0 512 512"
 xmlns:xlink="http://www.w3.org/1999/xlink">
 <defs>
  <style type="text/css">
   <![CDATA[
    .fil0 {fill:#393185}
    .fil5 {fill:#83241F}
    .fil1 {fill:#E31E24}
    .fil3 {fill:#FFED00}
    .fil2 {fill:#D32024}
    .fil4 {fill:#DACE21}
   ]]>
  </style>
 </defs>
 <g id="Layer_x0020_1">
  <metadata id="CorelCorpID_0Corel-Layer"/>
  <g id="_547072704">
   <g>
    <path class="fil0" d="M256 7c137,0 248,111 248,248 0,137 -111,248 -248,248 -137,0 -248,-111 -248,-248 0,-137 111,-248 248,-248z"/>
    <g>
     <g>
      <path class="fil1" d="M255 190c0,0 15,-37 64,-37 49,0 75,36 75,74 0,37 -20,73 -59,110 -38,37 -80,74 -80,74l-1 -221z"/>
      <path class="fil2" d="M257 190c0,0 -15,-37 -64,-37 -49,0 -75,36 -75,74 0,37 20,73 59,110 38,37 80,74 80,74l1 -221z"/>
     </g>
     <g>
      <g>
       <path class="fil3" d="M379 98c2,6 0,83 -36,101 0,0 -1,17 19,32 1,1 2,1 3,1l10 6 0 0 0 0c0,0 55,-51 4,-140z"/>
       <path class="fil4" d="M379 98c0,0 16,48 12,75 -4,27 -28,58 -28,58l12 7c0,0 18,-14 25,-52 6,-38 -21,-88 -21,-88z"/>
      </g>
      <g>
       <path class="fil3" d="M132 98c-2,6 0,83 36,101 0,0 1,17 -19,32 -1,1 -2,1 -3,1l-10 6 0 0 0 0c0,0 -55,-51 -4,-140z"/>
       <path class="fil4" d="M132 98c0,0 -16,48 -12,75 4,27 28,58 28,58l-12 7c0,0 -18,-14 -25,-52 -6,-38 21,-88 21,-88z"/>
      </g>
     </g>
    </g>
    <path class="fil5" d="M193 353c0,0 -30,26 -27,53 3,27 101,58 169,17 68,-41 73,-107 73,-107l15 1c0,0 -6,74 -76,110 -70,36 -124,21 -158,11 -34,-10 -39,-33 -26,-67 13,-34 17,-30 17,-30l13 12z"/>
   </g>
   <path class="fil1" d="M408 316c0,0 -9,-24 3,-40 12,-16 12,-16 12,-16 0,0 13,30 9,46 -4,16 -10,11 -10,11l-14 -1z"/>
  </g>
 </g>
</svg>
