<?xml version="1.0" encoding="UTF-8"?>
<!DOCTYPE svg PUBLIC "-//W3C//DTD SVG 1.1//EN" "http://www.w3.org/Graphics/SVG/1.1/DTD/svg11.dtd">
<!-- Creator: CorelDRAW X6 -->
<svg xmlns="http://www.w3.org/2000/svg" xml:space="preserve" width="512px" height="512px" version="1.1" style="shape-rendering:geometricPrecision; text-rendering:geometricPrecision; image-rendering:optimizeQuality; fill-rule:evenodd; clip-rule:evenodd"
viewBox="0 0 512 512"
 xmlns:xlink="http://www.w3.org/1999/xlink">
 <defs>
  <style type="text/css">
   <![CDATA[
    .fil5 {fill:#434242}
    .fil7 {fill:#56698F}
    .fil0 {fill:#5B5B5B}
    .fil8 {fill:#7688A1}
    .fil6 {fill:#7690C9}
    .fil4 {fill:#E31E24}
    .fil3 {fill:#FFED00}
    .fil2 {fill:#7690C9}
    .fil1 {fill:#A2D9F7}
   ]]>
  </style>
 </defs>
 <g id="Layer_x0020_1">
  <metadata id="CorelCorpID_0Corel-Layer"/>
  <g id="_806296904">
   <path class="fil0" d="M258 5c137,0 248,111 248,248 0,137 -111,248 -248,248 -137,0 -248,-111 -248,-248 0,-137 111,-248 248,-248z"/>
   <g>
    <g id="_659292472">
     <path class="fil1" d="M366 93c0,0 1,59 -13,91 -13,32 -13,57 -13,57 0,0 9,22 15,37 6,14 10,17 0,24 -10,7 -24,13 -32,38 -7,23 -9,30 -9,30 0,0 -14,13 -27,23 -13,10 -10,13 -17,17 -9,5 -16,5 -26,0 -7,-4 -5,-7 -17,-17 -13,-10 -27,-23 -27,-23 0,0 -1,-7 -9,-30 -7,-23 -21,-31 -32,-38 -10,-7 -6,-10 0,-24 6,-14 15,-37 15,-37 0,0 0,-25 -13,-57 -13,-32 -13,-91 -13,-91 37,43 57,81 61,89 2,-1 4,-3 7,-5 7,-5 19,-12 40,-13 1,0 1,0 1,0 1,0 1,0 1,0 21,0 34,7 40,13 3,1 5,3 7,5 4,-8 23,-46 61,-89l-1 0zm-125 195l-8 -10 -48 -1c0,0 29,21 56,11l0 0zm32 0l8 -10 48 -1c0,0 -29,21 -56,11l0 0zm4 78c0,0 7,-3 -7,-7l-24 0c-15,5 -7,7 -7,7l39 0z"/>
     <path class="fil2" d="M366 93c0,0 1,59 -13,91 -13,32 -13,57 -13,57 0,0 9,22 15,37 6,14 10,17 0,24 -10,7 -24,13 -32,38 -7,23 -9,30 -9,30 0,0 -14,13 -27,23 -13,10 -10,13 -17,17 -5,3 -10,4 -15,4l0 -50 21 0c0,0 7,-3 -7,-7l-14 0 0 -193 1 0c1,0 1,0 1,0 1,0 1,0 1,0 21,0 34,7 40,13 3,1 5,3 7,5 4,-8 23,-46 61,-89l-1 0zm-93 195l8 -10 48 -1c0,0 -29,21 -56,11l0 0z"/>
    </g>
   </g>
   <path class="fil3" d="M329 277l-48 1 -8 10c0,0 27,12 56,-11z"/>
   <path class="fil3" d="M184 277l50 1 8 10c0,0 -28,12 -58,-11z"/>
   <circle class="fil4" cx="220" cy="284" r="5"/>
   <circle class="fil4" cx="293" cy="284" r="5"/>
   <path class="fil5" d="M286 365c0,0 -8,-14 -30,-14 -22,0 -26,15 -26,15 0,0 24,7 56,-1z"/>
   <path class="fil5" d="M229 365c0,0 8,-14 30,-14 22,0 26,15 26,15 0,0 -24,7 -56,-1z"/>
   <path class="fil4" d="M275 367c-7,-9 -28,-12 -36,0 0,0 23,4 36,0z"/>
   <path class="fil6" d="M307 182c0,0 -25,-10 -51,-10 -26,0 -46,10 -46,10 0,0 15,-17 48,-17 33,0 42,13 49,17z"/>
   <path class="fil7" d="M168 154c3,1 31,46 31,46l-17 35c0,0 -10,-47 -14,-82z"/>
   <path class="fil7" d="M335 229c6,1 -19,-37 -19,-37l39 -55c0,0 -18,72 -20,91z"/>
   <path class="fil8" d="M201 370c0,0 -9,-40 -18,-49 -9,-10 -22,-18 -22,-18 0,0 29,2 38,19 9,17 2,49 2,49z"/>
   <path class="fil8" d="M315 370c0,0 9,-40 18,-49 9,-10 22,-18 22,-18 0,0 -29,2 -38,19 -9,17 -2,49 -2,49z"/>
   <polygon class="fil7" points="328,267 284,267 263,277 285,254 "/>
   <polygon class="fil7" points="187,267 232,267 253,277 230,254 "/>
  </g>
 </g>
</svg>
