<?xml version="1.0" encoding="UTF-8"?>
<!DOCTYPE svg PUBLIC "-//W3C//DTD SVG 1.1//EN" "http://www.w3.org/Graphics/SVG/1.1/DTD/svg11.dtd">
<!-- Creator: CorelDRAW X6 -->
<svg xmlns="http://www.w3.org/2000/svg" xml:space="preserve" width="512px" height="512px" version="1.1" style="shape-rendering:geometricPrecision; text-rendering:geometricPrecision; image-rendering:optimizeQuality; fill-rule:evenodd; clip-rule:evenodd"
viewBox="0 0 512 512"
 xmlns:xlink="http://www.w3.org/1999/xlink">
 <defs>
  <style type="text/css">
   <![CDATA[
    .fil0 {fill:#393185}
    .fil1 {fill:black}
    .fil2 {fill:#B3B3B3}
    .fil6 {fill:#C7C7C7}
    .fil5 {fill:#D4D4D4}
    .fil4 {fill:#D9D9D9}
    .fil3 {fill:#E6E6E6}
   ]]>
  </style>
 </defs>
 <g id="Layer_x0020_1">
  <metadata id="CorelCorpID_0Corel-Layer"/>
  <g id="_809741400">
   <path class="fil0" d="M255 6c137,0 248,111 248,248 0,137 -111,248 -248,248 -137,0 -248,-111 -248,-248 0,-137 111,-248 248,-248z"/>
   <g id="_232736728">
    <g>
     <path class="fil1" d="M403 223l0 -22c0,0 1,-23 -15,-57 -17,-34 -54,-89 -129,-89 -1,0 -2,0 -3,0 -1,0 -2,0 -3,0 -75,0 -113,54 -129,89 -17,34 -15,57 -15,57l0 22c0,46 34,122 34,122 0,0 27,63 41,82 4,5 8,9 14,12l0 1c0,0 24,14 54,14 2,0 3,0 5,0 2,0 3,0 5,0 30,0 54,-14 54,-14l0 -1c5,-3 10,-7 14,-12 15,-19 41,-82 41,-82 0,0 34,-76 34,-122l0 0z"/>
     <path class="fil2" d="M398 224l0 -21c0,0 1,-22 -15,-56 -16,-33 -53,-86 -126,-86 -1,0 -2,0 -3,0 -1,0 -2,0 -3,0 -73,0 -109,53 -126,86 -16,33 -15,56 -15,56l0 21c0,45 33,119 33,119 0,0 26,61 40,79 4,4 8,8 13,12l0 1c0,0 23,14 52,14 2,0 3,0 5,0 2,0 3,0 5,0 29,0 52,-14 52,-14l0 -1c5,-3 10,-7 13,-12 14,-18 40,-79 40,-79 0,0 33,-73 33,-119l0 0z"/>
     <path class="fil3" d="M393 224l0 -21c0,0 1,-22 -14,-55 -16,-33 -51,-85 -121,-85 -1,0 -2,0 -3,0 -1,0 -2,0 -3,0 -70,0 -105,52 -121,85 -16,33 -14,55 -14,55l0 21c0,44 32,116 32,116 0,0 25,60 38,78 3,4 8,8 13,11l0 1c0,0 22,13 50,13 1,0 3,0 4,0 1,0 3,0 4,0 28,0 50,-13 50,-13l0 -1c5,-3 10,-7 13,-11 14,-18 38,-78 38,-78 0,0 32,-72 32,-116l0 0z"/>
    </g>
    <path class="fil4" d="M233 66c0,0 -42,45 -57,92 -15,47 -16,80 -12,101 4,22 39,117 39,117 0,0 15,41 32,54 17,12 32,12 32,12 0,0 -41,0 -62,-11 -20,-11 -28,-31 -33,-39 -4,-8 -35,-79 -35,-79 0,0 -16,-36 -21,-79 -5,-44 4,-71 17,-92 12,-20 41,-71 99,-77l0 0z"/>
    <path class="fil5" d="M139 203c0,0 15,-11 50,-10 35,1 54,13 53,32 -1,20 -15,36 -42,36 -27,0 -38,-8 -48,-15 -10,-7 -16,-11 -16,-11 0,0 -15,-19 3,-32l0 0zm233 0c0,0 -15,-11 -50,-10 -35,1 -54,13 -53,32 1,20 15,36 42,36 27,0 38,-8 48,-15 10,-7 16,-11 16,-11 0,0 15,-19 -3,-32l0 0z"/>
    <path class="fil1" d="M126 201c1,-4 5,-7 8,-6 3,1 5,5 4,9 -1,4 -5,7 -8,6 -3,-1 -5,-5 -4,-9zm158 48c0,0 -9,-14 -7,-25 2,-11 6,-13 15,-15 9,-2 38,-3 38,-3 0,0 15,0 16,16 1,16 -9,20 -19,28 -10,7 -39,14 -44,-1l0 0zm-60 0c0,0 9,-14 7,-25 -2,-11 -6,-13 -15,-15 -9,-2 -38,-3 -38,-3 0,0 -15,0 -16,16 -1,16 9,20 19,28 10,7 39,14 44,-1l0 0zm159 -48c-1,-4 -5,-7 -8,-6 -3,1 -5,5 -4,9 1,4 5,7 8,6 3,-1 5,-5 4,-9zm-111 218c-4,0 -7,3 -7,6 0,3 3,6 7,6 4,0 7,-3 7,-6 0,-3 -3,-6 -7,-6zm5 -29c-4,0 -7,3 -7,7 0,4 3,7 7,7 4,0 7,-3 7,-7 0,-4 -3,-7 -7,-7zm2 -33c-5,0 -8,4 -8,8 0,5 4,8 8,8 5,0 8,-4 8,-8 0,-5 -4,-8 -8,-8zm32 17c1,-4 -1,-8 -5,-9 -3,-1 -7,2 -8,6 -1,4 1,8 5,9 3,1 7,-2 8,-6zm24 7c1,-4 -1,-8 -5,-9 -3,-1 -7,2 -8,6 -1,4 1,8 5,9 3,1 7,-2 8,-6zm15 -59c1,-4 -1,-8 -5,-9 -3,-1 -7,2 -8,6 -1,4 1,8 5,9 3,1 7,-2 8,-6zm-12 -19c1,-5 -2,-10 -5,-10 -4,-1 -8,3 -9,8 -1,5 2,10 5,10 4,1 8,-3 9,-8zm21 -11c1,-4 -1,-8 -5,-9 -3,-1 -7,2 -8,6 -1,4 1,8 5,9 3,1 7,-2 8,-6zm-79 -113c-5,0 -8,4 -8,8 0,5 4,8 8,8 5,0 8,-4 8,-8 0,-5 -4,-8 -8,-8zm39 -12c-5,0 -8,4 -8,8 0,5 4,8 8,8 5,0 8,-4 8,-8 0,-5 -4,-8 -8,-8zm0 -35c-4,0 -8,3 -8,7 0,4 3,7 8,7 4,0 8,-3 8,-7 0,-4 -3,-7 -8,-7zm-2 -31c-4,0 -7,3 -7,6 0,3 3,6 7,6 4,0 7,-3 7,-6 0,-3 -3,-6 -7,-6zm34 84c-5,0 -8,4 -8,8 0,5 4,8 8,8 5,0 8,-4 8,-8 0,-5 -4,-8 -8,-8zm19 -14c-1,-4 -5,-7 -8,-6 -3,1 -5,5 -4,9 1,4 5,7 8,6 3,-1 5,-5 4,-9zm-135 247c4,0 7,3 7,6 0,3 -3,6 -7,6 -4,0 -7,-3 -7,-6 0,-3 3,-6 7,-6zm-5 -29c4,0 7,3 7,7 0,4 -3,7 -7,7 -4,0 -7,-3 -7,-7 0,-4 3,-7 7,-7zm-2 -33c5,0 8,4 8,8 0,5 -4,8 -8,8 -5,0 -8,-4 -8,-8 0,-5 4,-8 8,-8zm-32 17c-1,-4 1,-8 5,-9 3,-1 7,2 8,6 1,4 -1,8 -5,9 -3,1 -7,-2 -8,-6zm-24 7c-1,-4 1,-8 5,-9 3,-1 7,2 8,6 1,4 -1,8 -5,9 -3,1 -7,-2 -8,-6zm-15 -59c-1,-4 1,-8 5,-9 3,-1 7,2 8,6 1,4 -1,8 -5,9 -3,1 -7,-2 -8,-6zm12 -19c-1,-5 2,-10 5,-10 4,-1 8,3 9,8 1,5 -2,10 -5,10 -4,1 -8,-3 -9,-8zm-21 -11c-1,-4 1,-8 5,-9 3,-1 7,2 8,6 1,4 -1,8 -5,9 -3,1 -7,-2 -8,-6zm79 -113c5,0 8,4 8,8 0,5 -4,8 -8,8 -5,0 -8,-4 -8,-8 0,-5 4,-8 8,-8zm-39 -12c5,0 8,4 8,8 0,5 -4,8 -8,8 -5,0 -8,-4 -8,-8 0,-5 4,-8 8,-8zm0 -35c4,0 8,3 8,7 0,4 -3,7 -8,7 -4,0 -8,-3 -8,-7 0,-4 3,-7 8,-7zm2 -31c4,0 7,3 7,6 0,3 -3,6 -7,6 -4,0 -7,-3 -7,-6 0,-3 3,-6 7,-6zm-34 84c5,0 8,4 8,8 0,5 -4,8 -8,8 -5,0 -8,-4 -8,-8 0,-5 4,-8 8,-8zm-19 -14c1,-4 5,-7 8,-6 3,1 5,5 4,9 -1,4 -5,7 -8,6 -3,-1 -5,-5 -4,-9z"/>
    <path class="fil4" d="M255 311l0 0 0 0 0 0c0,0 -1,0 -2,0 -13,1 -17,-5 -16,-16 1,-10 5,-51 5,-59 1,-7 -5,-23 -5,-23 0,0 -13,49 -15,62 -2,13 -10,41 5,50 6,4 16,5 27,5 11,0 21,-1 27,-5 15,-9 8,-37 5,-50 -2,-13 -15,-62 -15,-62 0,0 -5,16 -5,23 1,7 4,49 5,59 1,10 -4,17 -16,16 0,0 -1,0 -2,0l0 0 0 0z"/>
    <path class="fil1" d="M255 318c12,0 12,12 0,12 -12,0 -12,-12 0,-12z"/>
    <path class="fil6" d="M255 311l0 0 0 0 0 0c0,0 -1,0 -2,0 -13,1 -17,-5 -16,-16 1,-10 5,-51 5,-59 0,-1 0,-1 0,-2l-2 0c0,1 0,2 0,3 -1,8 -5,51 -6,62 -1,11 4,18 19,17 1,0 1,0 2,0l0 0 0 0 0 0 0 0c1,0 1,0 2,0 15,1 20,-6 19,-17 -1,-11 -6,-55 -6,-62 0,-1 0,-2 0,-3l-2 0c0,1 0,1 0,2 1,7 4,49 5,59 1,10 -4,17 -16,16 0,0 -1,0 -2,0l0 0 0 0z"/>
   </g>
  </g>
 </g>
</svg>
