<?xml version="1.0" encoding="UTF-8"?>
<!DOCTYPE svg PUBLIC "-//W3C//DTD SVG 1.1//EN" "http://www.w3.org/Graphics/SVG/1.1/DTD/svg11.dtd">
<!-- Creator: CorelDRAW X6 -->
<svg xmlns="http://www.w3.org/2000/svg" xml:space="preserve" width="43.3492mm" height="43.3492mm" version="1.1" style="shape-rendering:geometricPrecision; text-rendering:geometricPrecision; image-rendering:optimizeQuality; fill-rule:evenodd; clip-rule:evenodd"
viewBox="0 0 4335 4335"
 xmlns:xlink="http://www.w3.org/1999/xlink">
 <defs>
  <style type="text/css">
   <![CDATA[
    .fil1 {fill:#E31E24}
    .fil0 {fill:#AE2422}
    .fil2 {fill:#FEFEFE;fill-rule:nonzero}
   ]]>
  </style>
 </defs>
 <g id="Layer_x0020_1">
  <metadata id="CorelCorpID_0Corel-Layer"/>
  <path class="fil0" d="M2166 582c226,-200 523,-322 848,-322 706,0 1279,573 1279,1279 0,13 0,26 -1,39 2,18 1,46 -5,85 -120,1240 -1147,1885 -2112,2457l0 11 -9 -6 -9 6 0 -11c-965,-571 -1992,-1216 -2112,-2457 -6,-40 -7,-67 -5,-85 0,-13 -1,-26 -1,-39 0,-706 573,-1279 1279,-1279 326,0 623,122 848,322z"/>
  <path class="fil1" d="M2071 614c216,-192 501,-309 813,-309 677,0 1226,549 1226,1226 0,13 0,25 -1,38 1,18 1,44 -5,82 -115,1189 -1099,1807 -2024,2355l0 11 -9 -5 -9 5 0 -11c-925,-548 -1909,-1166 -2024,-2355 -6,-38 -7,-64 -5,-82 0,-13 -1,-25 -1,-38 0,-677 549,-1226 1226,-1226 312,0 597,117 813,309z"/>
  <path class="fil2" d="M598 2239l214 -1000 233 -31 -111 525c77,-7 142,-51 195,-132 53,-81 80,-168 80,-263 0,-94 -36,-157 -107,-189 -24,-11 -54,-17 -88,-17 -128,0 -228,34 -299,101 -72,67 -107,161 -107,282 0,42 6,75 18,96 3,4 4,8 4,11 -84,0 -137,-27 -158,-81 -7,-19 -11,-43 -11,-72 0,-53 16,-104 50,-153 33,-49 76,-92 128,-130 119,-84 242,-126 368,-126 126,0 220,30 283,89 63,59 95,133 95,220 0,50 -10,100 -31,150 -21,50 -51,95 -90,136 -88,90 -199,135 -333,135l-8 0 -96 448 -226 0zm1646 -282c-67,194 -172,291 -315,291 -92,0 -144,-48 -154,-144 -68,96 -149,144 -240,144 -91,0 -154,-45 -186,-134 -12,-32 -18,-69 -18,-110 0,-41 4,-82 11,-124 7,-41 18,-82 33,-123 33,-90 80,-165 140,-223 61,-59 134,-88 220,-88 45,0 78,7 97,23 20,15 30,34 30,57l0 12 17 -84 226 0 -113 534c-4,18 -7,35 -7,51 0,45 22,68 64,68 56,0 98,-49 127,-148l66 0zm-396 -355c0,-10 -5,-22 -14,-37 -9,-15 -28,-23 -57,-23 -29,0 -58,15 -85,47 -67,75 -108,183 -125,324 -3,22 -4,44 -4,68 0,46 10,79 29,97 11,11 25,17 42,17 31,0 60,-12 85,-37 26,-25 43,-59 53,-102l75 -355zm270 636l166 -786 227 0 -20 97c26,-23 55,-45 86,-66 31,-21 66,-31 102,-31 36,0 64,12 82,36 19,24 28,47 28,69 0,38 -10,69 -30,92 -20,24 -45,35 -73,35 -29,0 -48,-7 -57,-20 -9,-13 -15,-26 -17,-40 -2,-14 -5,-24 -8,-32 -3,-8 -10,-12 -21,-12 -22,0 -40,5 -57,15 -16,10 -35,25 -56,45l-126 597 -226 0zm1039 -995c0,35 -12,64 -37,88 -25,24 -54,36 -89,36 -35,0 -64,-12 -88,-36 -24,-24 -36,-53 -36,-88 0,-34 12,-64 36,-89 24,-25 53,-37 88,-37 35,0 65,12 89,37 25,25 37,54 37,89zm97 713c-67,194 -180,291 -338,291 -42,0 -79,-15 -111,-45 -32,-30 -49,-78 -49,-144 0,-30 4,-64 12,-103l107 -504 227 0 -113 534c-4,19 -6,38 -6,56 0,35 21,53 64,53 31,0 59,-13 85,-40 26,-27 45,-60 57,-99l66 0zm393 -553c4,98 8,181 12,247l19 249c2,25 3,52 3,82 0,30 -5,59 -14,86 -9,27 -23,50 -39,70 -30,38 -69,66 -117,83 -47,18 -94,26 -138,26 -78,0 -137,-20 -177,-60 -40,-40 -60,-83 -60,-128 0,-45 9,-80 26,-106 18,-25 37,-43 58,-53 74,-132 138,-287 193,-466l233 -31zm-344 719c100,0 150,-49 150,-146 0,-27 -2,-59 -6,-96l-9 -90c-6,-57 -10,-119 -15,-187 -26,86 -69,185 -127,297 24,11 36,28 36,50 0,22 -6,41 -19,57 -13,16 -29,24 -51,24 -21,0 -35,-7 -42,-21 0,73 28,110 82,110z"/>
 </g>
</svg>
