<?xml version="1.0" encoding="UTF-8"?>
<!DOCTYPE svg PUBLIC "-//W3C//DTD SVG 1.1//EN" "http://www.w3.org/Graphics/SVG/1.1/DTD/svg11.dtd">
<!-- Creator: CorelDRAW X6 -->
<svg xmlns="http://www.w3.org/2000/svg" xml:space="preserve" width="43.3492mm" height="43.3492mm" version="1.1" style="shape-rendering:geometricPrecision; text-rendering:geometricPrecision; image-rendering:optimizeQuality; fill-rule:evenodd; clip-rule:evenodd"
viewBox="0 0 4335 4335"
 xmlns:xlink="http://www.w3.org/1999/xlink">
 <defs>
  <style type="text/css">
   <![CDATA[
    .fil0 {fill:#898989}
    .fil11 {fill:#003399}
    .fil9 {fill:#1A1A1A}
    .fil2 {fill:#333333}
    .fil6 {fill:#666666}
    .fil10 {fill:gray}
    .fil5 {fill:#C27877}
    .fil4 {fill:#D4AC9C}
    .fil14 {fill:#D6B0A0}
    .fil13 {fill:#D6B4A7}
    .fil15 {fill:#E6C2B3}
    .fil3 {fill:#E8C1B3}
    .fil1 {fill:#EFC8B9}
    .fil7 {fill:white}
    .fil8 {fill:url(#id0)}
    .fil12 {fill:url(#id1)}
   ]]>
  </style>
  <linearGradient id="id0" gradientUnits="userSpaceOnUse" x1="1696.48" y1="1987.37" x2="1858.44" y2="1987.37">
   <stop offset="0" style="stop-color:#003399"/>
   <stop offset="1" style="stop-color:#00CCFF"/>
  </linearGradient>
  <linearGradient id="id1" gradientUnits="userSpaceOnUse" xlink:href="#id0" x1="2460.14" y1="1987.37" x2="2622.1" y2="1987.37">
  </linearGradient>
 </defs>
 <g id="Layer_x0020_1">
  <metadata id="CorelCorpID_0Corel-Layer"/>
  <path class="fil0" d="M2154 96c1127,0 2040,913 2040,2040 0,1127 -913,2040 -2040,2040 -1127,0 -2040,-913 -2040,-2040 0,-1127 913,-2040 2040,-2040z"/>
  <g id="_476444000">
   <g>
    <path class="fil1" d="M3014 1314c0,0 71,297 38,828 -32,531 -121,812 -121,812 -82,247 -197,400 -527,547 -12,5 -472,6 -484,0 -381,-191 -444,-300 -527,-547 0,0 -88,-281 -121,-812 -32,-531 38,-828 38,-828 165,-377 501,-528 736,-546 34,-6 69,-9 103,-7l11 1 11 -1c34,-2 69,1 103,7 235,18 571,169 736,546z"/>
    <path class="fil2" d="M1914 1778c0,0 153,87 108,90 -45,3 -31,-23 -204,-29 -173,-6 -259,-3 -259,-3 0,0 -21,-14 -3,-29 17,-14 66,-52 124,-55 59,-3 140,-1 234,25z"/>
    <path class="fil3" d="M1273 1955l44 357 48 332c0,0 -60,40 -141,-131 -80,-171 -113,-452 -113,-522 0,-70 72,-191 161,-35z"/>
    <path class="fil4" d="M1286 2111l22 197 24 183c0,0 -31,22 -71,-72 -41,-94 -57,-250 -57,-289 0,-39 37,-106 82,-19z"/>
    <path class="fil3" d="M3036 1955l-44 357 -48 332c0,0 60,40 141,-131 80,-171 113,-452 113,-522 0,-70 -72,-191 -161,-35z"/>
    <path class="fil4" d="M3023 2111l-22 197 -24 183c0,0 31,22 71,-72 41,-94 57,-250 57,-289 0,-39 -37,-106 -82,-19z"/>
    <path class="fil5" d="M2472 2954c0,0 -98,-38 -169,-53l-69 -24 -57 22 -6 0 0 0 0 0 0 0 -1 0 0 0 0 0 -4 0 0 0 0 0 0 0 0 0 0 0 0 0 0 0 0 0 0 0 0 0 0 0 0 0 0 0 0 0 0 0 0 0 0 0 0 0 0 0 0 0 0 0 -4 0 0 0 0 0 -1 0 0 0 0 0 0 0 -6 0 -57 -22 -69 24c-71,15 -169,53 -169,53l13 0 -13 4 243 0 65 -1 65 1 243 0 -13 -4 13 0zm-302 14l0 0 -7 0 -7 0 0 0 -302 2c0,0 138,53 203,68 65,15 89,1 106,-7 17,8 41,22 106,7 65,-15 203,-68 203,-68l-302 -2z"/>
    <path class="fil6" d="M1985 1970c0,0 -85,150 -235,126 -150,-24 -225,-132 -225,-132 0,0 211,-210 460,6z"/>
    <path class="fil7" d="M1985 1975c0,0 -85,117 -235,99 -150,-19 -225,-103 -225,-103 0,0 211,-164 460,5z"/>
    <path class="fil8" d="M1777 1906c45,0 81,36 81,81 0,45 -36,81 -81,81 -45,0 -81,-36 -81,-81 0,-45 36,-81 81,-81z"/>
    <path class="fil9" d="M1766 1956c17,-6 36,3 42,20 6,17 -3,36 -20,42 -17,6 -36,-3 -42,-20 -6,-17 3,-36 20,-42z"/>
    <path class="fil10" d="M1769 1962c14,-5 29,2 33,16 2,5 2,9 1,14 0,-1 -1,-3 -1,-4 -5,-14 -20,-21 -33,-16 -9,3 -15,11 -17,20 -2,-12 4,-25 17,-30z"/>
    <path class="fil11" d="M1750 1911c41,-15 87,6 102,48 4,10 5,21 5,31 0,-8 -2,-16 -5,-24 -15,-41 -61,-63 -102,-48 -31,11 -51,40 -52,71 -2,-34 19,-67 52,-79z"/>
    <path class="fil6" d="M2333 1970c0,0 85,150 235,126 150,-24 225,-132 225,-132 0,0 -211,-210 -460,6z"/>
    <path class="fil7" d="M2333 1975c0,0 85,117 235,99 150,-19 225,-103 225,-103 0,0 -211,-164 -460,5z"/>
    <path class="fil12" d="M2541 1906c-45,0 -81,36 -81,81 0,45 36,81 81,81 45,0 81,-36 81,-81 0,-45 -36,-81 -81,-81z"/>
    <path class="fil9" d="M2552 1956c-17,-6 -36,3 -42,20 -6,17 3,36 20,42 17,6 36,-3 42,-20 6,-17 -3,-36 -20,-42z"/>
    <path class="fil10" d="M2550 1962c-14,-5 -29,2 -33,16 -2,5 -2,9 -1,14 0,-1 1,-3 1,-4 5,-14 20,-21 33,-16 9,3 15,11 17,20 2,-12 -4,-25 -17,-30z"/>
    <path class="fil11" d="M2568 1911c-41,-15 -87,6 -102,48 -4,10 -5,21 -5,31 0,-8 2,-16 5,-24 15,-41 61,-63 102,-48 31,11 51,40 53,71 2,-34 -19,-67 -53,-79z"/>
    <path class="fil13" d="M2021 1898c0,0 67,194 56,291 -11,97 -127,327 -127,327 -55,92 133,119 179,117 77,-4 237,-16 234,-72 -3,-56 -14,-72 -14,-72 0,0 52,72 45,105 -7,32 -91,80 -269,80 -178,0 -227,-52 -227,-96 0,-44 80,-215 129,-301 50,-87 34,-235 -7,-378z"/>
    <path class="fil14" d="M2294 2596c-40,29 -109,38 -133,37 -49,-3 -137,-10 -178,-37l-48 0c10,32 82,77 230,77 131,0 180,-38 192,-77l-62 0z"/>
    <path class="fil2" d="M2424 1778c0,0 -153,87 -108,90 45,3 31,-23 204,-29 173,-6 259,-3 259,-3 0,0 21,-14 3,-29 -17,-14 -66,-52 -124,-55 -59,-3 -140,-1 -234,25z"/>
    <path class="fil13" d="M2166 3330c53,-4 43,-127 11,-159 -32,-32 -83,32 -11,159z"/>
    <path class="fil13" d="M1701 1444c0,0 243,109 415,103 172,-6 461,-90 461,-90 0,0 -425,88 -876,-13z"/>
    <path class="fil13" d="M1750 1556c0,0 243,109 415,103 172,-6 461,-90 461,-90 0,0 -425,88 -876,-13z"/>
    <path class="fil13" d="M1736 1322c0,0 243,109 415,103 172,-6 461,-90 461,-90 0,0 -425,88 -876,-13z"/>
    <path class="fil13" d="M2363 2137c0,0 32,32 115,38 83,6 308,-64 308,-64 0,0 -359,199 -423,26z"/>
    <path class="fil13" d="M1953 2137c0,0 -32,32 -115,38 -83,6 -308,-64 -308,-64 0,0 359,199 423,26z"/>
   </g>
   <path class="fil13" d="M2943 2643c0,0 -33,380 -152,476 -119,96 -164,183 -263,253 -79,56 -182,77 -253,95l0 -4 -248 0c-70,-17 -164,-39 -236,-91 -99,-71 -144,-157 -263,-253 -119,-96 -152,-476 -152,-476 -26,3 -57,-12 -57,-12 0,0 24,135 57,282 33,146 99,240 207,378 108,138 293,193 346,211 21,7 68,9 115,9l230 0c48,0 94,-1 115,-9 53,-18 238,-73 346,-211 108,-138 174,-231 207,-378 33,-146 57,-282 57,-282 0,0 -31,15 -57,12z"/>
   <path class="fil15" d="M3013 2133c0,0 -145,-108 -148,-329 -3,-221 55,-314 45,-475 -10,-160 -41,-251 -41,-251 0,0 136,126 158,300 21,174 60,454 35,515 -25,61 -38,217 -48,239z"/>
   <path class="fil15" d="M1318 2133c0,0 145,-108 148,-329 3,-221 -55,-314 -45,-475 10,-160 41,-251 41,-251 0,0 -136,126 -158,300 -21,174 -60,454 -35,515 25,61 38,217 48,239z"/>
  </g>
 </g>
</svg>
