<?xml version="1.0" encoding="UTF-8"?>
<!DOCTYPE svg PUBLIC "-//W3C//DTD SVG 1.1//EN" "http://www.w3.org/Graphics/SVG/1.1/DTD/svg11.dtd">
<!-- Creator: CorelDRAW X6 -->
<svg xmlns="http://www.w3.org/2000/svg" xml:space="preserve" width="43.3492mm" height="43.3492mm" version="1.1" style="shape-rendering:geometricPrecision; text-rendering:geometricPrecision; image-rendering:optimizeQuality; fill-rule:evenodd; clip-rule:evenodd"
viewBox="0 0 4335 4335"
 xmlns:xlink="http://www.w3.org/1999/xlink">
 <defs>
  <style type="text/css">
   <![CDATA[
    .fil0 {fill:#E51A4B}
   ]]>
  </style>
 </defs>
 <g id="Layer_x0020_1">
  <metadata id="CorelCorpID_0Corel-Layer"/>
  <path class="fil0" d="M3632 3632c-604,676 -2300,676 -2904,0 -690,-617 -662,-2313 0,-2904 604,-676 2300,-676 2904,0 662,592 690,2287 0,2904zm-1171 -2020c135,-253 521,-297 713,-116 -89,117 -225,211 -346,268 42,111 12,60 42,111l0 0c13,-3 68,-34 85,-43 85,-43 201,-112 274,-169 11,-9 23,-19 35,-31 41,117 31,277 -68,481l-2 0c-207,347 -671,693 -728,708l-1 0 -4 0 -1 0c-38,-9 -246,-159 -444,-357 50,-58 95,-119 132,-181l2 0c274,-563 -221,-745 -506,-580 60,-398 646,-417 820,-92l0 0zm-922 250c174,-325 872,-212 577,394l-1 0c-163,273 -527,545 -572,556l-1 0 -4 0 -1 0c-46,-11 -410,-283 -572,-556l-1 0c-51,-104 -72,-193 -72,-268 21,1 46,-4 73,-16 16,-6 32,-14 45,-22 68,-46 109,-108 122,-169 7,-34 5,-56 -5,-87 152,-36 336,21 415,168l-1 0zm570 1767c-4,-6 -8,-14 -15,-21 -7,-8 -17,-16 -27,-22 -151,-109 -351,58 -204,149 10,7 21,14 31,17 55,21 108,19 149,2 30,-12 41,-26 62,-57 124,-188 12,-18 345,-519l3 -4 51 -77c-1,-1 -1,-1 -3,-1l-509 -228 -41 61 -275 413c-4,-6 -8,-14 -15,-21 -7,-8 -17,-16 -27,-22 -151,-109 -351,58 -204,149 10,7 21,14 31,17 55,21 108,19 149,2 30,-12 41,-26 62,-57 115,-172 29,-43 272,-410l453 198 -287 432 0 -1 -2 0zm-1368 -2700l0 0 0 0 0 0 1 1 64 163 208 530c-9,-1 -18,-2 -30,0 -12,1 -26,6 -38,11 -201,71 -176,368 6,290 14,-5 26,-11 36,-18 55,-38 89,-89 100,-139 6,-31 4,-48 -6,-78l-219 -557c38,-6 178,-22 247,93 34,56 47,169 49,162 0,-1 -1,7 -1,3 0,-11 0,0 0,0l26 -6c0,0 -9,48 0,0 9,-48 9,-112 -25,-179 -65,-131 -184,-144 -249,-163 -65,-18 -86,-46 -108,-76 -21,-31 -35,-50 -60,-38l0 0 -1 -1zm2161 186c-9,3 -5,3 -14,-1l9 11c11,-8 4,-1 4,-10l0 -1 0 1zm0 708c11,-3 61,-31 77,-39 77,-39 183,-101 250,-154 91,-72 195,-216 194,-343 -1,-38 -9,-82 -23,-112 -39,-87 -150,-153 -261,-143 -199,18 -279,194 -201,278 50,54 149,48 182,-16 20,-39 6,-73 -18,-97 -40,-39 -84,-16 -103,-14 -21,3 -36,-14 -27,-34 58,-122 395,-122 294,235 -49,175 -233,316 -391,391l28 46 0 0 -1 1zm654 -724c34,0 62,28 62,62 0,34 -28,62 -62,62 -34,0 -62,-28 -62,-62 0,-34 28,-62 62,-62zm0 224c34,0 62,28 62,62 0,34 -28,62 -62,62 -34,0 -62,-28 -62,-62 0,-34 28,-62 62,-62z"/>
 </g>
</svg>
