<?xml version="1.0" encoding="UTF-8"?>
<!DOCTYPE svg PUBLIC "-//W3C//DTD SVG 1.1//EN" "http://www.w3.org/Graphics/SVG/1.1/DTD/svg11.dtd">
<!-- Creator: CorelDRAW X6 -->
<svg xmlns="http://www.w3.org/2000/svg" xml:space="preserve" width="43.3492mm" height="43.3492mm" version="1.1" style="shape-rendering:geometricPrecision; text-rendering:geometricPrecision; image-rendering:optimizeQuality; fill-rule:evenodd; clip-rule:evenodd"
viewBox="0 0 4335 4335"
 xmlns:xlink="http://www.w3.org/1999/xlink">
 <defs>
  <style type="text/css">
   <![CDATA[
    .fil0 {fill:#E31E24}
    .fil1 {fill:#FEFEFE;fill-rule:nonzero}
   ]]>
  </style>
 </defs>
 <g id="Layer_x0020_1">
  <metadata id="CorelCorpID_0Corel-Layer"/>
  <path class="fil0" d="M1313 235c341,33 639,214 830,477 196,-271 506,-454 859,-480 41,-6 87,-7 139,-2l1 0c266,12 508,114 698,275 503,408 636,1219 -30,2161 -184,261 -1276,1224 -1640,1216 -9,2 -18,4 -28,4 -10,0 -21,-1 -31,-4 -428,-81 -1393,-890 -1622,-1215 -323,-458 -458,-884 -454,-1249l0 -1c0,-8 0,-16 0,-25 0,-634 506,-1149 1136,-1164 54,-4 101,-2 142,5z"/>
  <path class="fil1" d="M632 2098l0 -468 142 0 84 319 83 -319 142 0 0 468 -87 0 0 -368 -92 368 -91 0 -92 -368 0 368 -87 0zm526 -231c0,-48 7,-88 21,-120 11,-24 25,-45 44,-64 18,-19 39,-33 60,-42 29,-12 63,-19 101,-19 69,0 124,21 166,64 41,43 62,102 62,179 0,76 -21,135 -62,178 -41,43 -96,64 -165,64 -70,0 -125,-21 -166,-64 -41,-42 -62,-101 -62,-176zm97 -3c0,53 12,93 37,121 24,27 56,41 93,41 38,0 69,-14 93,-41 24,-27 36,-68 36,-122 0,-54 -12,-94 -35,-120 -24,-26 -55,-40 -94,-40 -39,0 -70,13 -94,40 -24,27 -36,67 -36,121zm405 83l92 -9c6,31 17,53 34,68 17,14 40,22 68,22 30,0 53,-6 68,-19 15,-13 23,-28 23,-45 0,-11 -3,-20 -10,-28 -6,-8 -18,-14 -34,-20 -11,-4 -36,-11 -75,-20 -50,-13 -86,-28 -106,-46 -29,-26 -43,-57 -43,-94 0,-24 7,-46 20,-67 13,-21 33,-37 58,-47 25,-11 56,-16 92,-16 58,0 103,13 132,39 30,26 45,61 47,104l-95 3c-4,-24 -13,-41 -26,-52 -13,-11 -33,-16 -59,-16 -27,0 -49,6 -64,17 -10,7 -15,17 -15,29 0,11 5,21 14,28 12,10 41,21 87,31 46,11 80,22 102,34 22,12 39,27 52,48 12,20 19,45 19,74 0,27 -7,52 -22,75 -15,23 -36,41 -63,52 -27,11 -61,17 -102,17 -59,0 -104,-14 -136,-41 -32,-27 -51,-67 -57,-119zm759 -21l91 28c-14,51 -37,90 -70,115 -33,25 -74,37 -124,37 -62,0 -113,-21 -153,-64 -40,-42 -60,-100 -60,-174 0,-78 20,-138 60,-181 40,-43 93,-65 159,-65 57,0 104,17 139,51 21,20 37,49 48,86l-93 22c-6,-24 -17,-43 -35,-57 -18,-14 -39,-21 -64,-21 -35,0 -63,12 -84,37 -22,25 -32,65 -32,121 0,59 11,101 32,126 21,25 49,38 83,38 25,0 47,-8 65,-24 18,-16 31,-41 39,-75zm153 -59c0,-48 7,-88 21,-120 11,-24 25,-45 44,-64 18,-19 39,-33 60,-42 29,-12 63,-19 101,-19 69,0 124,21 166,64 41,43 62,102 62,179 0,76 -21,135 -62,178 -41,43 -96,64 -165,64 -70,0 -125,-21 -166,-64 -41,-42 -62,-101 -62,-176zm97 -3c0,53 12,93 37,121 24,27 56,41 93,41 38,0 69,-14 93,-41 24,-27 36,-68 36,-122 0,-54 -12,-94 -35,-120 -24,-26 -55,-40 -94,-40 -39,0 -70,13 -94,40 -24,27 -36,67 -36,121zm494 234l-110 -468 97 0 70 321 85 -321 113 0 82 327 71 -327 95 0 -113 468 -101 0 -92 -350 -93 350 -104 0z"/>
 </g>
</svg>
