<?xml version="1.0" encoding="UTF-8"?>
<!DOCTYPE svg PUBLIC "-//W3C//DTD SVG 1.1//EN" "http://www.w3.org/Graphics/SVG/1.1/DTD/svg11.dtd">
<!-- Creator: CorelDRAW X6 -->
<svg xmlns="http://www.w3.org/2000/svg" xml:space="preserve" width="43.3492mm" height="43.3492mm" version="1.1" style="shape-rendering:geometricPrecision; text-rendering:geometricPrecision; image-rendering:optimizeQuality; fill-rule:evenodd; clip-rule:evenodd"
viewBox="0 0 4335 4335"
 xmlns:xlink="http://www.w3.org/1999/xlink">
 <defs>
  <style type="text/css">
   <![CDATA[
    .fil7 {fill:#1A1A1A}
    .fil0 {fill:#401A1A}
    .fil2 {fill:#572B2B}
    .fil1 {fill:#663333}
    .fil8 {fill:#999999}
    .fil9 {fill:#CCCCCC}
    .fil4 {fill:#E6E6E6}
    .fil5 {fill:#FF4800}
    .fil6 {fill:#FFD000}
    .fil3 {fill:white}
   ]]>
  </style>
 </defs>
 <g id="Layer_x0020_1">
  <metadata id="CorelCorpID_0Corel-Layer"/>
  <g id="_528633672">
   <path class="fil0" d="M2165 214c1084,0 1963,879 1963,1963 0,1084 -879,1963 -1963,1963 -1084,0 -1963,-879 -1963,-1963 0,-1084 879,-1963 1963,-1963z"/>
   <path class="fil1" d="M2165 285c1045,0 1892,847 1892,1892 0,1045 -847,1892 -1892,1892 -1045,0 -1892,-847 -1892,-1892 0,-1045 847,-1892 1892,-1892z"/>
   <path class="fil2" d="M2165 285l5 0 0 3784 -5 0c-1045,0 -1892,-847 -1892,-1892 0,-1045 847,-1892 1892,-1892z"/>
   <path class="fil1" d="M2164 1928l0 1 1 -1 1 1 0 -1c33,-22 510,-339 566,-583 15,-37 23,-77 23,-119 0,-177 -143,-320 -320,-320 -113,0 -212,58 -269,146 -57,-88 -156,-146 -269,-146 -177,0 -320,143 -320,320 0,42 8,82 23,119 56,244 533,561 566,583zm-992 68l628 0c0,0 345,42 345,178 0,136 0,1151 0,1151 0,0 -79,-95 -354,-95 -274,0 -630,0 -630,0l10 -1234zm2037 55c0,0 89,0 89,89 0,89 0,1214 0,1214 0,0 16,94 -162,94 -178,0 -900,0 -900,0l-27 0 -88 0 -27 0c0,0 -722,0 -900,0 -178,0 -162,-94 -162,-94 0,0 0,-1125 0,-1214 0,-89 89,-89 89,-89l5 1225c0,0 555,0 712,0 157,0 235,89 235,89 0,0 41,20 92,21l0 0c51,-1 92,-21 92,-21 0,0 79,-89 235,-89 157,0 712,0 712,0l5 -1225zm-48 -55l-628 0c0,0 -345,42 -345,178 0,136 0,1151 0,1151 0,0 79,-95 354,-95 274,0 630,0 630,0l-10 -1234z"/>
   <path class="fil3" d="M1173 3230l0 -1234 628 0c0,0 345,42 345,178 0,136 0,1151 0,1151 0,0 -79,-95 -354,-95l-620 0zm1989 -1234l-628 0c0,0 -345,42 -345,178 0,136 0,1151 0,1151 0,0 79,-95 354,-95 274,0 630,0 630,0l-10 -1234z"/>
   <path class="fil4" d="M1977 2035c85,28 169,72 169,139 0,136 0,1151 0,1151 0,0 -42,-50 -169,-77l0 -1213zm361 7l0 1211c-112,28 -149,73 -149,73 0,0 0,-1015 0,-1151 0,-62 71,-104 149,-132z"/>
   <path class="fil0" d="M2199 1906c116,-80 484,-348 533,-560 15,-37 23,-77 23,-119 0,-177 -143,-320 -320,-320 -113,0 -212,58 -269,146 -57,-88 -156,-146 -269,-146 -177,0 -320,143 -320,320 0,42 8,82 23,119 49,213 417,481 533,560l68 0zm1055 156c22,11 44,33 44,78 0,89 0,1214 0,1214 0,0 16,94 -162,94 -178,0 -900,0 -900,0l-27 0 -88 0 -27 0c0,0 -722,0 -900,0 -178,0 -162,-94 -162,-94 0,0 0,-1125 0,-1214 0,-44 22,-67 44,-78l0 1303c0,9 7,16 16,16l1036 0c11,2 23,3 36,4l0 0c13,0 25,-2 36,-4l1036 0c9,0 16,-7 16,-16l0 -1303z"/>
   <path class="fil5" d="M2199 1906c116,-80 484,-348 533,-560 15,-37 23,-77 23,-119 0,-177 -143,-320 -320,-320 -113,0 -212,58 -269,146 -57,-88 -156,-146 -269,-146 -177,0 -320,143 -320,320 0,42 8,82 23,119 49,213 417,481 533,560l68 0z"/>
   <path class="fil6" d="M2196 1906c105,-72 439,-315 483,-508 13,-33 21,-70 21,-108 0,-160 -130,-290 -290,-290 -102,0 -192,53 -244,133 -52,-80 -142,-133 -244,-133 -160,0 -290,130 -290,290 0,38 7,74 21,108 44,193 378,435 483,508l62 0z"/>
   <g>
    <path class="fil7" d="M3254 2062l-92 0 0 1168 -686 0c0,0 -83,5 -139,22 -56,17 -149,73 -149,73l-42 0 16 61 1090 0c0,0 2,-1324 2,-1324z"/>
    <path class="fil8" d="M3206 2062l-44 0 0 1168 -686 0c0,0 -83,5 -139,22 -21,6 -56,17 -81,28 -47,20 -68,45 -68,45l-42 0 1 3 1059 0 0 -1266z"/>
   </g>
   <g>
    <path class="fil7" d="M1076 2062l92 0 0 1168 686 0c0,0 83,5 139,22 56,17 149,73 149,73l42 0 -16 61 -1090 0c0,0 -2,-1324 -2,-1324z"/>
    <path class="fil8" d="M1124 2062l44 0 0 1168 686 0c0,0 83,5 139,22 21,6 56,17 81,28 47,20 68,45 68,45l42 0 -1 3 -1059 0 0 -1266z"/>
   </g>
   <polygon class="fil9" points="2133,2130 2165,2177 2184,3327 2146,3327 "/>
   <polygon class="fil9" points="2201,2130 2157,2188 2151,3327 2188,3327 "/>
  </g>
 </g>
</svg>
