<?xml version="1.0" encoding="UTF-8"?>
<!DOCTYPE svg PUBLIC "-//W3C//DTD SVG 1.1//EN" "http://www.w3.org/Graphics/SVG/1.1/DTD/svg11.dtd">
<!-- Creator: CorelDRAW X6 -->
<svg xmlns="http://www.w3.org/2000/svg" xml:space="preserve" width="43.3492mm" height="43.3492mm" version="1.1" style="shape-rendering:geometricPrecision; text-rendering:geometricPrecision; image-rendering:optimizeQuality; fill-rule:evenodd; clip-rule:evenodd"
viewBox="0 0 4335 4335"
 xmlns:xlink="http://www.w3.org/1999/xlink">
 <defs>
  <style type="text/css">
   <![CDATA[
    .fil0 {fill:#393185}
    .fil16 {fill:#00CCFF}
    .fil6 {fill:#1A1A1A}
    .fil7 {fill:#333333}
    .fil13 {fill:#3A75B0}
    .fil12 {fill:#47607A}
    .fil11 {fill:#4D4D4D}
    .fil17 {fill:#5A7899}
    .fil15 {fill:#6699FF}
    .fil1 {fill:#77787B}
    .fil9 {fill:#7B95C7}
    .fil10 {fill:#83A0D6}
    .fil3 {fill:#999999}
    .fil14 {fill:#B1CCE8}
    .fil8 {fill:#B3B3B3}
    .fil5 {fill:#CCCCCC}
    .fil2 {fill:url(#id0)}
    .fil4 {fill:url(#id1)}
   ]]>
  </style>
  <linearGradient id="id0" gradientUnits="userSpaceOnUse" x1="2069.04" y1="3077.97" x2="2069.04" y2="2933.8">
   <stop offset="0" style="stop-color:#353334"/>
   <stop offset="1" style="stop-color:#797A7D"/>
  </linearGradient>
  <linearGradient id="id1" gradientUnits="userSpaceOnUse" x1="2070.65" y1="3245.19" x2="2070.65" y2="3136.27">
   <stop offset="0" style="stop-color:#B3B3B3"/>
   <stop offset="1" style="stop-color:#77787B"/>
  </linearGradient>
 </defs>
 <g id="Layer_x0020_1">
  <metadata id="CorelCorpID_0Corel-Layer"/>
  <path class="fil0" d="M2100 993c1,-1 2,-2 2,-4 3,-5 7,-10 10,-15 7,-10 14,-20 21,-29 183,-244 461,-400 771,-400 552,0 999,492 999,1098 0,80 -8,158 -23,233 -48,274 -205,589 -520,936 -464,512 -1114,969 -1313,1103l0 7 -5 -3 -5 3 0 -7c-198,-134 -849,-591 -1313,-1103 -314,-347 -472,-662 -520,-936 -15,-75 -23,-153 -23,-233 0,-607 447,-1098 999,-1098 310,0 588,156 771,400 7,9 14,19 21,29 3,5 7,10 10,15 1,1 2,2 2,4 20,30 39,61 56,94 17,-32 36,-64 56,-94z"/>
  <g id="_641039416">
   <g>
    <path class="fil1" d="M1841 2934l457 0 0 128 0 0 0 8c0,0 -2,51 24,79 21,22 51,53 63,64 3,4 7,12 7,24 0,14 2,31 -10,40 -6,3 -13,6 -22,6l-81 0 0 0 0 0 -1 0 -2 0 -3 0 -3 0 -1 0 -3 0 -4 0 -3 0 -2 0 -5 0 -2 0 -3 0 -6 0 0 0 -6 0 -4 0 -3 0 -7 0 -1 0 -8 0 -2 0 -6 0 -4 0 -4 0 -6 0 -2 0 -9 0 -1 0 -10 0 -1 0 -8 0 -3 0 -8 0 -4 0 -6 0 -5 0 -6 0 -6 0 -5 0 -6 0 -4 0 -7 0 -4 0 -8 0 -4 0 -8 0 -3 0 -8 0 -3 0 -8 0 -4 0 -8 0 -4 0 -7 0 -4 0 -6 0 -5 0 -6 0 -6 0 -5 0 -6 0 -4 0 -8 0 -3 0 -8 0 -1 0 -10 0 -1 0 -9 0 -2 0 -6 0 -4 0 -4 0 -6 0 -2 0 -8 0 -1 0 -7 0 -3 0 -4 0 -6 0 0 0 -6 0 -3 0 -2 0 -5 0 -2 0 -3 0 -4 0 -3 0 -1 0 -3 0 -3 0 -2 0 -1 0 0 0 0 0 -81 0c-10,0 -19,-3 -25,-7 -9,-9 -8,-24 -8,-37 0,-20 12,-29 12,-29l20 -21c13,-13 28,-28 39,-40 26,-28 24,-79 24,-79l0 -21 0 -84 0 -31 2 0z"/>
    <polygon class="fil2" points="1841,2934 2297,2934 2297,3078 1841,3078 "/>
    <path class="fil3" d="M2385 3214c1,1 3,12 -1,20 -4,8 -23,12 -44,12l-134 0 0 0 -1 0 -1 0 -1 0 -1 0 -3 0 -3 0 -3 0 0 0 -4 0 -4 0 -1 0 -4 0 -5 0 -1 0 -4 0 -4 0 -1 0 -6 0 -2 0 -4 0 -4 0 -2 0 -7 0 -1 0 -7 0 -3 0 -5 0 -4 0 -4 0 -6 0 -3 0 -7 0 -1 0 -8 0 -1 0 -8 0 0 0 -9 0 0 0 -9 0 0 0 -9 0 0 0 -8 0 -1 0 -8 0 -1 0 -7 0 -3 0 -6 0 -4 0 -4 0 -5 0 -3 0 -7 0 -1 0 -7 0 -2 0 -4 0 -4 0 -2 0 -6 0 -1 0 -4 0 -4 0 -1 0 -5 0 -4 0 -1 0 -4 0 -4 0 0 0 -3 0 -3 0 -3 0 -1 0 -1 0 -1 0 -1 0 0 0 -134 0c-21,0 -40,-3 -44,-12 -3,-6 -2,-14 -1,-17 -3,4 -6,12 -6,22 0,13 -1,28 6,37 1,1 2,1 3,2 8,6 22,6 22,6l155 0 270 0 155 0 0 0 0 0c2,0 4,0 6,0 4,-1 11,-2 15,-4l0 0 0 0 0 0c12,-8 10,-26 10,-40 0,-12 -4,-19 -7,-24l2 -1z"/>
    <path class="fil4" d="M2315 3141l45 47 21 22 0 0 3 3c2,3 4,6 6,12 -1,8 -8,21 -43,21 -185,0 -369,0 -553,0 -41,0 -44,-19 -43,-25 1,-1 1,-3 2,-4l73 -76 3 -4 122 0 238 0 122 0 3 4 0 1z"/>
    <path class="fil5" d="M2385 3214c0,0 4,8 6,12 1,4 -6,20 -40,20l-110 0 -1 0 -5 0 -5 0 -5 0 -5 0 -5 0 -5 0 -5 0 -5 0 -5 0 -5 0 -5 0 -4 0 -4 0 -4 0 -4 0 -4 0 -4 0 -4 0 -4 0 -4 0 -4 0 -3 0 -3 0 -3 0 -3 0 -3 0 -3 0 -2 0 -2 0 -2 0 -1 0 -1 0 -1 0 -1 0 -1 0 0 0 -88 0 0 0 -1 0 -1 0 -1 0 -1 0 -1 0 -2 0 -2 0 -2 0 -3 0 -3 0 -3 0 -3 0 -3 0 -3 0 -4 0 -4 0 -4 0 -4 0 -4 0 -4 0 -4 0 -4 0 -4 0 -4 0 -5 0 -5 0 -5 0 -5 0 -5 0 -4 0 -138 0c-34,0 -40,-16 -40,-20 1,-4 6,-12 6,-12 -7,21 33,19 33,19l139 0 97 0 95 0 124 0 112 0c0,0 40,2 33,-19l-1 0z"/>
    <path class="fil6" d="M996 2931l2146 0c35,0 65,-29 65,-65l0 -1447c0,-35 -29,-65 -65,-65l-2146 0c-35,0 -65,29 -65,65l0 1447c0,35 29,65 65,65z"/>
    <path class="fil7" d="M1001 2927l2135 0c35,0 64,-29 64,-64l0 -1440c0,-35 -29,-64 -64,-64l-2135 0c-35,0 -64,29 -64,64l0 1440c0,35 29,64 64,64z"/>
    <path class="fil8" d="M996 2931l2146 0c35,0 65,-29 65,-65l0 -183 -2275 0 0 183c0,35 29,65 65,65l0 0z"/>
    <polygon class="fil6" points="931,2684 3207,2684 3207,2665 931,2665 "/>
    <path class="fil9" d="M1042 1450l2055 0c18,0 32,15 32,32l0 1089c0,18 -15,32 -32,32l-2055 0c-18,0 -32,-15 -32,-32l0 -1089c0,-18 15,-32 32,-32z"/>
    <path class="fil10" d="M1483 1450l1614 0c18,0 32,15 32,32l0 1089c0,18 -15,32 -32,32l-1074 0 -540 -1154 0 1z"/>
   </g>
   <g>
    <polygon class="fil6" points="630,2382 1124,2382 1124,3195 630,3195 "/>
    <path class="fil3" d="M630 2382l495 0 0 0c0,-49 -40,-88 -88,-88l-319 0c-49,0 -88,40 -88,88l0 0z"/>
    <path class="fil3" d="M630 3195l495 0 0 0c0,49 -40,88 -88,88l-319 0c-49,0 -88,-40 -88,-88l0 0z"/>
    <path class="fil11" d="M768 2324l218 0c8,0 13,6 13,13l0 0c0,8 -6,13 -13,13l-218 0c-8,0 -13,-6 -13,-13l0 0c0,-8 6,-13 13,-13z"/>
    <path class="fil12" d="M655 2481l445 0 0 677c0,6 -5,11 -11,11l-424 0c-6,0 -11,-5 -11,-11l0 -677z"/>
    <path class="fil13" d="M1100 2469l0 -51c0,-6 -5,-11 -11,-11l-424 0c-6,0 -11,5 -11,11l0 51 445 0z"/>
    <path class="fil14" d="M750 2428l256 0c3,0 5,3 5,5l0 12c0,3 -3,5 -5,5l-256 0c-3,0 -5,-3 -5,-5l0 -12c0,-3 3,-5 5,-5z"/>
    <circle class="fil14" cx="1065" cy="2437" r="12"/>
    <path class="fil11" d="M877 3213c13,0 24,10 24,24 0,13 -10,24 -24,24 -13,0 -24,-10 -24,-24 0,-13 10,-24 24,-24z"/>
    <path class="fil15" d="M1057 2328c6,0 12,5 12,12 0,6 -5,12 -12,12 -6,0 -12,-5 -12,-12 0,-6 5,-12 12,-12z"/>
    <path class="fil16" d="M1057 2332c4,0 8,4 8,8 0,4 -4,8 -8,8 -4,0 -8,-4 -8,-8 0,-4 4,-8 8,-8z"/>
    <polygon class="fil17" points="1100,2481 1100,3159 655,2537 655,2481 "/>
   </g>
  </g>
 </g>
</svg>
