<?xml version="1.0" encoding="UTF-8"?>
<!DOCTYPE svg PUBLIC "-//W3C//DTD SVG 1.1//EN" "http://www.w3.org/Graphics/SVG/1.1/DTD/svg11.dtd">
<!-- Creator: CorelDRAW X6 -->
<svg xmlns="http://www.w3.org/2000/svg" xml:space="preserve" width="43.3492mm" height="43.3492mm" version="1.1" style="shape-rendering:geometricPrecision; text-rendering:geometricPrecision; image-rendering:optimizeQuality; fill-rule:evenodd; clip-rule:evenodd"
viewBox="0 0 4335 4335"
 xmlns:xlink="http://www.w3.org/1999/xlink">
 <defs>
  <style type="text/css">
   <![CDATA[
    .fil4 {fill:#2B2A29}
    .fil5 {fill:#434242}
    .fil0 {fill:#E31E24}
    .fil3 {fill:#FAE6CC}
    .fil2 {fill:#FAF9FC}
    .fil1 {fill:#FEFEFE}
   ]]>
  </style>
 </defs>
 <g id="Layer_x0020_1">
  <metadata id="CorelCorpID_0Corel-Layer"/>
  <path class="fil0" d="M2179 885c182,-344 562,-580 1002,-580l-5 3c860,0 1120,490 1126,1096 5,441 -330,956 -735,1407 -44,49 -332,345 -250,265 -27,27 -55,53 -82,81 -474,457 -947,794 -1048,828l0 11 0 0 0 -9c-2,1 -5,1 -9,1 -4,1 -7,1 -9,-1l0 9 0 0 0 -11c-100,-34 -573,-370 -1048,-828 -27,-27 -55,-53 -82,-81 82,81 -205,-216 -250,-265 -405,-452 -740,-966 -735,-1407 6,-606 266,-1096 1126,-1096l-5 -3c440,0 820,236 1002,580z"/>
  <path class="fil1" d="M2170 1903c43,2 91,14 143,39 139,67 235,234 249,430 -69,104 -324,198 -364,88 -2,-6 -27,-87 -4,-237 71,-34 118,-23 136,-88 24,-84 -67,-137 -161,-141l0 542c197,-9 149,62 373,-71 30,71 -27,213 -85,265 -64,59 -163,94 -285,98l-3 0 0 321c611,-12 1215,-407 1148,-1061 -24,-238 -116,-342 -223,-498 26,-33 206,-212 32,-360 -140,-119 -278,-17 -328,116 -226,-68 -316,-148 -625,-150l-4 0 0 706zm337 -4c33,0 60,16 61,37l11 5c-38,-115 -132,-65 -143,1 4,-2 7,-3 11,-5 0,-21 28,-38 61,-38z"/>
  <ellipse class="fil1" cx="2941" cy="1453" rx="291" ry="282"/>
  <path class="fil2" d="M2170 2008c86,3 170,53 148,130 -17,60 -60,50 -126,81 -21,139 2,213 4,219 37,102 273,14 336,-82 -13,-181 -102,-335 -231,-397 -48,-23 -92,-34 -132,-36l0 85zm0 772l0 -271c182,-8 138,57 345,-65 28,65 -25,197 -78,245 -59,55 -150,87 -264,91l-3 0z"/>
  <path class="fil3" d="M2415 1959c81,-37 47,-37 133,-1 -35,-106 -122,-60 -133,1z"/>
  <path class="fil4" d="M2975 1584l-167 -143c0,0 245,-141 167,143z"/>
  <ellipse class="fil4" cx="2481" cy="1955" rx="56" ry="35"/>
  <path class="fil1" d="M2188 1903c-43,2 -91,14 -143,39 -139,67 -235,234 -249,430 69,104 324,198 364,88 2,-6 27,-87 4,-237 -71,-34 -118,-23 -136,-88 -24,-84 67,-137 161,-141l0 542c-197,-9 -149,62 -373,-71 -30,71 27,213 85,265 64,59 163,94 285,98l3 0 0 321c-611,-12 -1215,-407 -1148,-1061 24,-238 116,-342 223,-498 -26,-33 -206,-212 -32,-360 140,-119 278,-17 328,116 226,-68 316,-148 625,-150l4 0 0 706zm-337 -4c-33,0 -60,16 -61,37l-11 5c38,-115 132,-65 143,1 -4,-2 -7,-3 -11,-5 0,-21 -28,-38 -61,-38z"/>
  <ellipse class="fil1" cx="1417" cy="1453" rx="291" ry="282"/>
  <path class="fil2" d="M2188 2008c-86,3 -170,53 -148,130 17,60 60,50 126,81 21,139 -2,213 -4,219 -37,102 -273,14 -336,-82 13,-181 102,-335 231,-397 48,-23 92,-34 132,-36l0 85zm0 772l0 -271c-182,-8 -138,57 -345,-65 -28,65 25,197 78,245 59,55 150,87 264,91l3 0z"/>
  <path class="fil3" d="M1943 1959c-81,-37 -47,-37 -133,-1 35,-106 122,-60 133,1z"/>
  <path class="fil5" d="M2179 1923c-38,3 -78,14 -123,36 -129,62 -218,217 -231,397 64,96 300,184 336,82 1,-2 5,-16 8,-40l0 -145c-1,-11 -3,-23 -4,-35 -66,-31 -109,-21 -126,-81 -20,-72 51,-120 130,-129l0 -1c3,0 6,0 9,0 3,0 6,0 9,0l0 1c79,9 151,57 130,129 -17,60 -60,50 -126,81 -2,12 -3,24 -4,35l0 145c3,24 7,38 8,40 37,102 273,14 336,-82 -13,-181 -102,-335 -231,-397 -44,-21 -85,-33 -123,-36zm9 584l0 1 -9 0 -9 0 0 -1c-161,-3 -127,53 -327,-65 -28,65 25,197 78,245 58,54 147,86 258,91 110,-4 199,-37 258,-91 53,-49 106,-180 78,-245 -200,118 -166,61 -327,65zm0 568l0 1 -9 0 -9 0 0 -1c-558,-18 -1104,-382 -1043,-981 23,-220 107,-316 206,-461 -24,-31 -191,-196 -30,-333 130,-110 258,-16 303,107 205,-61 289,-135 563,-139l0 0 3 0 6 0 6 0 3 0 0 0c274,4 358,77 563,139 46,-123 174,-217 303,-107 161,136 -6,302 -30,333 99,145 183,241 206,461 61,599 -485,963 -1043,981zm227 -1117c10,-61 98,-108 133,-1 -86,-36 -51,-35 -133,1zm-471 0c-10,-61 -98,-108 -133,-1 86,-36 51,-35 133,1z"/>
  <path class="fil4" d="M1382 1584l167 -143c0,0 -245,-141 -167,143z"/>
  <ellipse class="fil4" cx="1877" cy="1955" rx="56" ry="35"/>
  <path class="fil4" d="M2977 1584l-167 -143c0,0 245,-141 167,143zm-495 335c31,0 56,16 56,35 0,20 -25,35 -56,35 -31,0 -56,-16 -56,-35 0,-20 25,-35 56,-35z"/>
 </g>
</svg>
