<?xml version="1.0" encoding="UTF-8"?>
<!DOCTYPE svg PUBLIC "-//W3C//DTD SVG 1.1//EN" "http://www.w3.org/Graphics/SVG/1.1/DTD/svg11.dtd">
<!-- Creator: CorelDRAW X6 -->
<svg xmlns="http://www.w3.org/2000/svg" xml:space="preserve" width="43.3492mm" height="43.3492mm" version="1.1" style="shape-rendering:geometricPrecision; text-rendering:geometricPrecision; image-rendering:optimizeQuality; fill-rule:evenodd; clip-rule:evenodd"
viewBox="0 0 4335 4335"
 xmlns:xlink="http://www.w3.org/1999/xlink">
 <defs>
  <style type="text/css">
   <![CDATA[
    .fil0 {fill:#86755D}
    .fil1 {fill:#96A7B1}
    .fil2 {fill:#B7CBD8}
    .fil3 {fill:#FECC00;fill-rule:nonzero}
   ]]>
  </style>
 </defs>
 <g id="Layer_x0020_1">
  <metadata id="CorelCorpID_0Corel-Layer"/>
  <path class="fil0" d="M2289 2347c1,-1 1,-2 2,-2 2,-3 4,-6 6,-9 4,-6 9,-13 13,-19 117,-156 295,-256 494,-256 354,0 640,315 640,704 0,51 -5,101 -14,149 -30,176 -132,377 -333,600 -297,328 -714,621 -841,707l0 4 -3 -2 -3 2 0 -4c-127,-86 -544,-379 -841,-707 -201,-222 -303,-424 -333,-600 -9,-48 -14,-98 -14,-149 0,-389 287,-704 640,-704 199,0 377,100 494,256 5,6 9,12 13,19 2,3 4,6 6,9 1,1 1,2 2,2 13,19 25,39 36,60 11,-21 23,-41 36,-60z"/>
  <path class="fil1" d="M2244 2187c0,0 -400,-142 -425,-500 -25,-358 567,-700 525,-1067 -42,-367 -409,-534 -409,-534 0,0 725,208 750,917 25,709 -442,559 -442,1184z"/>
  <path class="fil2" d="M2242 2187c0,0 315,-112 335,-394 20,-283 -447,-552 -414,-841 33,-289 322,-421 322,-421 0,0 -572,164 -591,723 -20,559 348,440 348,933z"/>
  <path class="fil3" d="M1738 2977c-21,8 -37,19 -48,33 -11,15 -16,33 -16,54 0,24 7,44 21,58 14,15 33,22 56,22 4,0 8,0 10,0 3,0 5,0 8,-1 5,-1 12,-3 18,-5 7,-3 19,-8 35,-15 2,-1 3,-1 5,-2 2,-1 3,-1 4,-2 3,-1 6,-1 8,-1 3,0 4,-1 7,-1 7,0 12,2 16,6 4,4 6,10 6,17 0,9 -4,18 -11,28 -7,10 -19,21 -33,35 -15,13 -30,24 -46,32 -15,9 -31,15 -47,20 -9,3 -19,5 -28,6 -10,1 -19,2 -28,2 -44,0 -81,-14 -111,-42 -29,-28 -45,-62 -45,-103 0,-54 22,-102 65,-144 44,-42 94,-62 152,-62 35,0 63,8 85,25 22,17 33,38 33,65 0,20 -6,36 -20,49 -13,13 -29,20 -49,20 -18,0 -33,-5 -44,-16 -12,-11 -17,-24 -17,-40 0,-3 0,-4 1,-6 0,-2 1,-4 1,-6 1,-3 3,-6 4,-10 2,-4 4,-9 8,-15l-1 1zm679 345l-104 0 67 -313 -19 0c-7,0 -12,-3 -17,-7 -4,-4 -6,-11 -6,-18 0,0 0,0 0,-1 0,-1 0,-1 0,-2 0,0 0,0 1,-1 0,-1 1,-1 1,-1l4 -22c3,-9 6,-16 10,-21 4,-4 10,-8 18,-10 1,-1 3,-1 4,-1 1,0 3,-1 3,-1 6,-2 10,-4 13,-6 3,-3 6,-6 9,-12 2,-3 3,-8 5,-13 2,-6 4,-12 7,-21 15,-48 44,-87 84,-118 40,-31 84,-46 131,-46 33,0 60,7 79,22 19,15 29,34 29,59 0,21 -7,38 -21,53 -14,15 -30,22 -49,22 -17,0 -31,-5 -42,-15 -12,-10 -17,-22 -17,-38 0,-2 0,-4 1,-6 0,-2 1,-4 1,-6 1,-3 3,-6 4,-10 1,-3 3,-8 6,-12 -20,4 -34,12 -42,22 -8,10 -16,29 -22,58l-15 67 68 0c9,0 16,2 21,6 4,4 7,9 7,16 0,1 0,1 -1,3 0,1 -1,3 -1,4 0,1 0,1 -1,2 0,1 -1,1 -1,2l-4 22c-3,9 -6,17 -13,22 -6,5 -13,8 -22,8l-73 0 -57 258c-4,18 -12,32 -22,42 -6,6 -14,10 -22,13l-1 -1zm-142 -354l-32 144c-2,8 -3,13 -4,19 -1,5 -1,9 -1,12 -1,6 2,11 7,16 5,5 12,7 18,7 3,0 4,0 6,-1 2,0 4,-1 6,-1 1,0 2,0 3,-1 1,0 2,-1 3,-1 4,-2 9,-3 12,-4 3,-1 6,-1 9,-1 3,0 6,1 10,4 3,3 4,7 4,11 0,4 -1,10 -4,15 -3,6 -7,11 -13,16 -2,2 -3,3 -4,4 -1,1 -3,3 -4,4 -11,10 -23,18 -36,25 -13,7 -26,12 -40,15 -7,2 -14,3 -21,4 -7,1 -14,2 -21,2 -21,0 -38,-6 -51,-19 -13,-13 -20,-29 -20,-50 0,-3 0,-6 0,-9 0,-3 0,-7 1,-11 -10,13 -18,22 -24,29 -5,6 -10,12 -15,17 -1,1 -1,1 -2,2 -1,1 -1,1 -2,2 -1,2 -3,3 -3,4 -1,1 -3,3 -4,3 -6,6 -13,12 -21,17 -8,4 -15,8 -24,12 -6,2 -12,3 -17,4 -5,1 -10,2 -15,2 -26,0 -47,-10 -63,-31 -17,-21 -25,-49 -25,-82 0,-58 20,-111 60,-159 40,-47 83,-72 131,-72 17,0 32,3 46,9 14,6 27,15 38,28 15,-11 28,-19 37,-24 9,-5 17,-8 26,-10 3,-1 5,-1 8,-1 3,0 6,-1 9,-1 12,0 21,3 28,9 7,6 10,14 10,24 0,2 0,4 -1,7 0,3 -1,6 -2,10l-2 1zm-176 39c-12,-1 -23,5 -33,17 -10,12 -15,25 -15,40 0,10 3,18 7,24 5,6 12,9 21,9 12,0 22,-6 31,-19 10,-12 15,-26 15,-40 0,-1 0,-1 0,-1 0,0 0,-1 0,-1 0,-8 -3,-15 -7,-19 -4,-4 -12,-7 -20,-8l1 -1zm689 120l0 4c0,11 4,20 13,27 8,6 19,10 31,10 7,0 15,-1 24,-3 9,-2 19,-5 28,-9 3,-1 7,-3 10,-4 3,-1 7,-3 10,-4 1,-1 2,-1 3,-1 1,0 1,-1 2,-1 1,-1 4,-2 8,-4 4,-2 13,-8 29,-18 3,-1 4,-2 7,-3 3,-1 4,-1 7,-2 1,-1 3,-1 3,-1 1,0 3,0 3,0 6,0 10,2 14,5 4,3 6,8 6,15 0,9 -4,19 -12,30 -8,11 -20,22 -35,35 -26,20 -51,35 -78,45 -26,10 -53,15 -79,15 -44,0 -80,-13 -108,-39 -28,-26 -42,-60 -42,-103 0,-55 23,-103 69,-144 46,-41 99,-62 161,-62 33,0 60,8 81,25 21,17 31,38 31,65 0,33 -17,61 -53,84 -35,23 -80,36 -135,38l0 -1zm9 -78c24,-3 41,-8 53,-15 12,-6 17,-15 17,-24 0,-6 -2,-10 -5,-14 -3,-4 -8,-6 -13,-6 -11,0 -21,5 -30,15 -9,10 -16,25 -21,44l-1 0zm25 -218l86 -56c3,-3 6,-4 7,-4 1,-1 3,-1 3,-2 1,0 1,0 2,0 1,0 2,0 3,0 3,0 6,1 10,2 3,1 5,3 7,4l15 24c3,3 4,6 4,7 1,1 1,3 2,3 0,1 0,1 0,2 0,1 0,1 0,2 0,3 -1,6 -3,10 -2,3 -5,6 -10,9l-89 53c-3,1 -4,2 -6,3 -2,1 -4,1 -6,1 -1,0 -3,0 -4,-1 -1,0 -3,-1 -4,-2 -3,-1 -4,-2 -6,-3 -2,-2 -3,-3 -5,-5l-12 -17c-1,-1 -1,-1 -2,-2 -1,-1 -1,-1 -1,-2 -1,-2 -2,-3 -2,-4 0,-1 -1,-3 -1,-4 0,-1 0,-2 1,-3 0,-1 1,-1 1,-2 1,-2 2,-4 3,-6 2,-2 4,-4 6,-4l1 -3z"/>
 </g>
</svg>
