<?xml version="1.0" encoding="UTF-8"?>
<!DOCTYPE svg PUBLIC "-//W3C//DTD SVG 1.1//EN" "http://www.w3.org/Graphics/SVG/1.1/DTD/svg11.dtd">
<!-- Creator: CorelDRAW X6 -->
<svg xmlns="http://www.w3.org/2000/svg" xml:space="preserve" width="43.3492mm" height="43.3492mm" version="1.1" style="shape-rendering:geometricPrecision; text-rendering:geometricPrecision; image-rendering:optimizeQuality; fill-rule:evenodd; clip-rule:evenodd"
viewBox="0 0 4335 4335"
 xmlns:xlink="http://www.w3.org/1999/xlink">
 <defs>
  <style type="text/css">
   <![CDATA[
    .fil1 {fill:#4F4FCC}
    .fil0 {fill:#ADADFA}
   ]]>
  </style>
 </defs>
 <g id="Layer_x0020_1">
  <metadata id="CorelCorpID_0Corel-Layer"/>
  <g id="_610833576">
   <path class="fil0" d="M2162 184c1114,0 2017,903 2017,2017 0,1114 -903,2017 -2017,2017 -1114,0 -2017,-903 -2017,-2017 0,-1114 903,-2017 2017,-2017z"/>
   <path class="fil1" d="M3852 2044c0,903 -578,890 -623,1458l0 0 0 3c-5,63 -3,134 7,213 5,60 13,129 25,203 -318,177 -684,278 -1073,278 -31,0 -62,-1 -92,-2l2 -40c0,-273 -254,-465 -254,-467 -16,0 -32,0 -47,0l-95 5 -199 52c-38,12 -38,9 -80,4 -33,-4 -59,-7 -84,-16 -141,-51 -30,-195 -85,-314 -23,-49 -80,-81 -80,-145 0,-27 25,-64 35,-83 -12,-8 -32,-24 -39,-37 -3,-6 -23,-53 -23,-57 0,-34 27,-115 17,-141 -6,-16 -10,-24 -14,-42 -19,-2 -33,-8 -52,-13 -19,-5 -35,-9 -53,-15 -10,-3 -47,-11 -52,-16 -8,-7 -17,-36 -17,-51 0,-27 11,-55 20,-75 10,-23 19,-42 29,-66 19,-45 41,-86 57,-132 9,-25 18,-43 28,-67 20,-45 49,-185 49,-234 0,-17 -2,-38 -5,-55 -3,-20 -8,-31 -10,-49 -227,-1626 2709,-1883 2709,-100z"/>
  </g>
 </g>
</svg>
