<?xml version="1.0" encoding="UTF-8"?>
<!DOCTYPE svg PUBLIC "-//W3C//DTD SVG 1.1//EN" "http://www.w3.org/Graphics/SVG/1.1/DTD/svg11.dtd">
<!-- Creator: CorelDRAW X6 -->
<svg xmlns="http://www.w3.org/2000/svg" xml:space="preserve" width="512px" height="512px" version="1.1" style="shape-rendering:geometricPrecision; text-rendering:geometricPrecision; image-rendering:optimizeQuality; fill-rule:evenodd; clip-rule:evenodd"
viewBox="0 0 512 512"
 xmlns:xlink="http://www.w3.org/1999/xlink">
 <defs>
  <style type="text/css">
   <![CDATA[
    .fil8 {fill:#434242}
    .fil7 {fill:#4D897C}
    .fil6 {fill:#A75F4A}
    .fil9 {fill:#D9DADA}
    .fil2 {fill:#ECC493}
    .fil3 {fill:#EEC898}
    .fil0 {fill:#F08143}
    .fil1 {fill:#FCD5A6}
    .fil4 {fill:#FEFEFE}
    .fil5 {fill:#434242}
   ]]>
  </style>
 </defs>
 <g id="Layer_x0020_1">
  <metadata id="CorelCorpID_0Corel-Layer"/>
  <g id="_518457296">
   <path class="fil0" d="M257 7c136,0 246,110 246,246 0,136 -110,246 -246,246 -136,0 -246,-110 -246,-246 0,-136 110,-246 246,-246z"/>
   <path class="fil1" d="M270 97c0,0 91,3 103,72 2,14 -5,32 -6,48 10,4 25,14 25,14 0,0 0,28 -9,60 -5,18 -14,20 -20,20 -7,29 -16,53 -23,65 -17,29 -50,52 -70,56 0,0 -1,1 -1,1 -1,0 -1,0 -2,0 -1,0 -1,0 -2,0 -1,0 -1,0 -1,-1 -1,0 -2,-1 -4,-1 -1,0 -2,1 -4,1 0,0 -1,1 -1,1 -1,0 -1,0 -2,0 -1,0 -1,0 -2,0 -1,0 -1,0 -1,-1 -20,-4 -53,-27 -70,-56 -7,-12 -16,-36 -23,-65 -7,1 -15,-1 -20,-20 -9,-31 -9,-60 -9,-60 0,0 15,-11 26,-16 0,-16 -9,-33 -7,-47 12,-69 103,-72 103,-72l0 0c1,0 3,0 4,0 1,0 3,0 4,0l0 0 2 0 2 0 0 0c1,0 3,0 4,0 1,0 3,0 4,0l0 0 3 0z"/>
   <path class="fil2" d="M362 311c0,0 4,-28 2,-47 -2,-19 -2,-30 -1,-42 1,-11 11,-11 15,-11 4,0 16,6 14,28 -2,22 -6,48 -11,57 -5,9 -5,16 -19,15z"/>
   <path class="fil2" d="M153 311c0,0 -4,-28 -2,-47 2,-19 2,-30 1,-42 -1,-11 -11,-11 -15,-11 -4,0 -16,6 -14,28 2,22 6,48 11,57 5,9 5,16 19,15z"/>
   <path class="fil3" d="M274 159c0,0 -12,9 -14,30 -2,20 -2,42 -2,42 0,0 18,32 22,47 4,14 6,34 -12,34 -18,0 -10,22 -10,19l0 44c0,0 10,6 14,18 4,12 -8,40 -8,40 0,0 10,-2 14,-4 38,-17 89,-106 86,-147 -2,-24 -6,-31 -6,-49 0,-18 5,-23 5,-51 0,-28 11,-51 -21,-59 -32,-8 -40,-22 -50,-6 -10,16 -19,43 -19,43z"/>
   <path class="fil4" d="M335 242c0,0 -14,2 -24,7 -10,5 -27,-4 -27,-4 0,0 3,-12 18,-12 15,-1 33,9 33,9l0 -1zm-152 0c0,0 14,2 24,7 10,5 27,-4 27,-4 0,0 -3,-12 -18,-12 -15,-1 -33,9 -33,9l0 -1z"/>
   <path class="fil5" d="M367 253c0,0 -9,-6 -9,-36 0,-30 0,-53 0,-53 0,0 0,-33 -28,-30 -28,3 -38,28 -65,28 -2,0 -4,0 -5,0 -1,0 -4,0 -5,0 -28,0 -38,-25 -65,-28 -28,-3 -28,30 -28,30 0,0 0,23 0,53 0,30 -9,36 -9,36 0,0 9,-30 3,-30 -6,0 -12,-30 -15,-56 -3,-25 15,-41 15,-41 0,0 3,-6 25,-28 29,-30 131,-29 160,0 22,23 25,28 25,28 0,0 19,17 15,41 -3,25 -9,55 -15,56 -6,0 3,30 3,30l1 0z"/>
   <path class="fil5" d="M343 219c0,0 -19,-8 -44,0 -25,8 -28,8 -28,8 0,0 34,-50 72,-8zm-168 0c0,0 19,-8 44,0 25,8 28,8 28,8 0,0 -34,-50 -72,-8z"/>
   <path class="fil5" d="M259 331c6,-4 17,-8 30,0 19,11 34,11 44,6 9,-6 7,11 -28,14 -25,2 -40,-8 -46,-13 -7,6 -21,15 -46,13 -34,-3 -38,-20 -28,-14 9,6 25,6 44,-6 13,-8 25,-3 30,0l1 0z"/>
   <path class="fil6" d="M281 362l-44 0c0,0 19,-16 44,0z"/>
   <g>
    <g>
     <path class="fil7" d="M304 236c4,0 8,3 8,8 0,4 -3,8 -8,8 -4,0 -8,-3 -8,-8 0,-4 3,-8 8,-8z"/>
     <path class="fil8" d="M304 239c2,0 4,2 4,4 0,2 -2,4 -4,4 -2,0 -4,-2 -4,-4 0,-2 2,-4 4,-4z"/>
    </g>
    <path class="fil9" d="M306 239c1,0 1,1 1,1 0,1 -1,1 -1,1 -1,0 -1,-1 -1,-1 0,-1 1,-1 1,-1z"/>
   </g>
   <g>
    <g>
     <path class="fil7" d="M215 236c4,0 8,3 8,8 0,4 -3,8 -8,8 -4,0 -8,-3 -8,-8 0,-4 3,-8 8,-8z"/>
     <path class="fil8" d="M215 239c2,0 4,2 4,4 0,2 -2,4 -4,4 -2,0 -4,-2 -4,-4 0,-2 2,-4 4,-4z"/>
    </g>
    <path class="fil9" d="M217 239c1,0 1,1 1,1 0,1 -1,1 -1,1 -1,0 -1,-1 -1,-1 0,-1 1,-1 1,-1z"/>
   </g>
  </g>
 </g>
</svg>
