<?xml version="1.0" encoding="UTF-8"?>
<!DOCTYPE svg PUBLIC "-//W3C//DTD SVG 1.1//EN" "http://www.w3.org/Graphics/SVG/1.1/DTD/svg11.dtd">
<!-- Creator: CorelDRAW X6 -->
<svg xmlns="http://www.w3.org/2000/svg" xml:space="preserve" width="43.3492mm" height="43.3492mm" version="1.1" style="shape-rendering:geometricPrecision; text-rendering:geometricPrecision; image-rendering:optimizeQuality; fill-rule:evenodd; clip-rule:evenodd"
viewBox="0 0 4335 4335"
 xmlns:xlink="http://www.w3.org/1999/xlink">
 <defs>
  <style type="text/css">
   <![CDATA[
    .fil3 {fill:#1F2738}
    .fil4 {fill:#33405C}
    .fil0 {fill:#33CC66}
    .fil2 {fill:#3C4C6E}
    .fil1 {fill:#48659E}
   ]]>
  </style>
 </defs>
 <g id="Layer_x0020_1">
  <metadata id="CorelCorpID_0Corel-Layer"/>
  <g id="_610834488">
   <circle class="fil0" transform="matrix(0.41968 1.01396 -1.01396 0.41968 2206.66 2149.43)" r="1819"/>
   <path class="fil1" d="M4201 2280c-124,552 -543,613 -581,1085l0 0 0 3c-5,58 -3,123 5,195 -181,181 -401,330 -654,433 -133,55 -269,94 -406,118l-69 0c0,-12 2,-15 3,-26 1,-9 0,-20 0,-29l3 -55c0,-267 -251,-454 -251,-456 -16,0 -31,0 -47,0l-94 5 -197 51c-37,12 -38,9 -79,4 -32,-4 -58,-7 -83,-16 -140,-50 -30,-191 -84,-306 -23,-48 -79,-79 -79,-141 0,-26 25,-62 35,-81 -12,-8 -32,-24 -39,-37 -3,-6 -22,-52 -22,-56 0,-33 27,-113 17,-138 -6,-16 -10,-23 -14,-41 -18,-2 -33,-8 -51,-13 -18,-5 -34,-9 -53,-14 -10,-3 -47,-11 -52,-15 -8,-6 -16,-35 -16,-50 0,-26 11,-53 20,-73 10,-23 19,-41 28,-64 19,-44 40,-84 57,-129 9,-24 17,-42 28,-65 19,-44 49,-181 49,-229 0,-16 -2,-37 -4,-53 -3,-19 -8,-31 -10,-48 -172,-1224 1510,-1653 2291,-990 79,113 147,236 202,367 118,283 165,577 149,863z"/>
   <polygon class="fil2" points="1530,1752 1576,1614 2416,792 2918,723 3303,1865 "/>
   <path class="fil3" d="M1129 3375c0,0 0,-69 33,-233 32,-163 108,-258 108,-258 0,0 255,165 342,155 87,-10 570,-196 686,-273 116,-77 127,-165 102,-326 -26,-160 -47,-260 -47,-260 0,0 -33,-124 -186,-153 -153,-29 -611,-143 -611,-143 0,0 -79,-27 -42,-96 7,-13 17,-40 30,-77l1258 -94c120,-19 -69,-645 -172,-863 98,-13 196,-23 288,-32 312,-28 820,259 969,348 23,36 45,73 66,111l63 228c0,0 26,13 58,34 51,135 87,273 107,411 4,145 14,313 19,402 -15,274 -87,542 -208,785 -93,72 -365,256 -943,450 -742,250 -1334,554 -1334,554 0,0 -228,-73 -326,-158 -98,-85 -139,-172 -139,-172 0,0 66,-109 55,-195 -11,-85 -177,-146 -177,-146l1 0zm255 -1746c-485,-51 -651,-166 -651,-166 -21,-101 96,-71 96,-71 0,0 357,-48 794,-252 82,-39 169,-76 255,-111 4,-5 9,-9 13,-13 132,-128 372,-200 626,-242 180,94 250,740 250,740 -1382,117 0,0 -1382,117l1 -1zm1130 -413c35,-7 70,20 79,62 9,41 -13,81 -48,88 -35,7 -70,-20 -79,-62 -9,-41 13,-81 48,-88z"/>
   <polygon class="fil4" points="4154,2589 1250,3716 1305,3522 4178,2469 "/>
  </g>
 </g>
</svg>
