<?xml version="1.0" encoding="UTF-8"?>
<!DOCTYPE svg PUBLIC "-//W3C//DTD SVG 1.1//EN" "http://www.w3.org/Graphics/SVG/1.1/DTD/svg11.dtd">
<!-- Creator: CorelDRAW X7 -->
<svg xmlns="http://www.w3.org/2000/svg" xml:space="preserve" width="43.3492mm" height="43.3492mm" version="1.1" style="shape-rendering:geometricPrecision; text-rendering:geometricPrecision; image-rendering:optimizeQuality; fill-rule:evenodd; clip-rule:evenodd"
viewBox="0 0 4335 4335"
 xmlns:xlink="http://www.w3.org/1999/xlink">
 <defs>
  <style type="text/css">
   <![CDATA[
    .fil0 {fill:#56698F}
    .fil4 {fill:black}
    .fil9 {fill:#040404}
    .fil1 {fill:#1A1A1A}
    .fil8 {fill:#1C1C1C}
    .fil3 {fill:#333333}
    .fil18 {fill:#336699}
    .fil10 {fill:#363636}
    .fil19 {fill:#395673}
    .fil5 {fill:#4D4D4D}
    .fil17 {fill:#543131}
    .fil16 {fill:#663333}
    .fil14 {fill:#6887C4}
    .fil12 {fill:#7494D4}
    .fil20 {fill:#859CB3}
    .fil11 {fill:#8D0808}
    .fil13 {fill:#91B4D6}
    .fil6 {fill:#A61E1E}
    .fil15 {fill:#ACC0E8}
    .fil7 {fill:#CBCBCB}
    .fil2 {fill:#E6E6E6}
    .fil21 {fill:red}
    .fil22 {fill:#FF8F8F}
   ]]>
  </style>
 </defs>
 <g id="Слой_x0020_1">
  <metadata id="CorelCorpID_0Corel-Layer"/>
  <path class="fil0" d="M2167 30c1181,0 2138,957 2138,2137 0,1181 -957,2138 -2138,2138 -1180,0 -2137,-957 -2137,-2138 0,-1180 957,-2137 2137,-2137z"/>
  <g id="_979515648">
   <g id="_380675584">
    <g>
     <path class="fil1" d="M3266 2607c0,0 146,-17 197,-212 51,-196 34,-470 34,-470 0,0 -154,-150 -162,-229 -9,-79 0,-245 0,-245 0,0 -39,-308 -304,-490 -127,-88 -267,-151 -400,-195l0 -5c0,0 -24,-5 -61,-14 -122,-35 -235,-52 -318,-52 -11,0 -22,0 -33,1 -12,0 -22,-1 -34,-1 -82,0 -195,17 -318,52 -38,9 -61,14 -61,14l0 5c-133,44 -273,108 -399,195 -265,183 -304,490 -304,490 0,0 8,166 0,245 -9,79 -163,229 -163,229 0,0 -17,274 34,470 52,196 197,212 197,212 0,0 68,129 111,196 43,66 51,229 51,229 0,0 22,50 188,211 168,163 231,537 231,537l2 1 0 8c0,0 180,157 449,141 5,0 10,-1 15,-1 4,0 9,1 14,1 270,17 449,-141 449,-141l0 -8 2 -1c0,0 65,-374 231,-537 167,-162 188,-211 188,-211 0,0 9,-163 51,-229 43,-67 111,-196 111,-196l2 0z"/>
     <path class="fil2" d="M3216 2601c0,0 139,-16 187,-208 50,-192 32,-460 32,-460 0,0 -146,-147 -154,-225 -9,-78 0,-240 0,-240 0,0 -37,-302 -290,-481 -121,-85 -255,-148 -381,-191l0 -4c0,0 -22,-6 -58,-15 -117,-34 -224,-51 -303,-51 -10,0 -21,0 -31,1 -11,0 -21,-1 -32,-1 -78,0 -186,16 -303,51 -36,9 -58,15 -58,15l0 4c-126,43 -260,107 -380,191 -253,180 -290,481 -290,481 0,0 8,163 0,240 -9,78 -155,225 -155,225 0,0 -16,268 32,460 50,192 187,208 187,208 0,0 66,127 107,192 41,66 48,224 48,224 0,0 20,49 180,208 158,159 220,527 220,527l2 0 0 8c0,0 171,155 428,139 5,0 10,-1 14,-1 4,0 8,1 13,1 257,16 428,-139 428,-139l0 -8 2 0c0,0 61,-367 221,-527 158,-158 179,-208 179,-208 0,0 9,-158 49,-224 41,-65 106,-192 106,-192l0 0z"/>
     <path class="fil3" d="M1066 1982c0,0 -4,85 8,199 12,114 41,171 41,171l-57 -8 -37 -32 -102 0 -16 -200c0,0 0,-32 29,-37 28,-4 77,-9 77,-9 0,0 17,-122 57,-85l0 1zm2306 0c0,0 4,85 -9,199 -12,114 -41,171 -41,171l57 -8 37 -32 102 0 16 -200c0,0 0,-32 -28,-37 -29,-4 -78,-9 -78,-9 0,0 -16,-122 -57,-85l1 1z"/>
     <path class="fil4" d="M2042 1968c0,0 -55,236 -222,334 -167,98 -369,25 -422,-51 -53,-75 -61,-283 32,-386 94,-102 351,-114 489,-65 139,49 132,132 123,167l0 1z"/>
     <path class="fil5" d="M2016 1975c0,0 -51,219 -205,309 -155,90 -341,23 -390,-48 -50,-69 -57,-262 30,-356 87,-94 324,-105 452,-61 129,46 123,123 113,155l0 1z"/>
     <path class="fil3" d="M1396 2181c-24,-88 -15,-226 54,-301 87,-94 324,-105 452,-61 129,46 123,123 113,155 0,0 -107,-29 -255,-15 -140,13 -320,107 -364,221l0 1z"/>
     <path class="fil4" d="M2396 1968c0,0 55,236 223,334 167,98 368,25 421,-51 53,-75 61,-283 -32,-386 -94,-102 -351,-114 -489,-65 -139,49 -132,132 -123,167l0 1z"/>
     <path class="fil5" d="M2422 1975c0,0 51,219 205,309 155,90 341,23 390,-48 50,-69 57,-262 -30,-356 -86,-94 -324,-105 -452,-61 -128,46 -123,123 -113,155l0 1z"/>
     <path class="fil3" d="M3042 2181c24,-88 15,-226 -54,-301 -86,-94 -324,-105 -452,-61 -128,46 -123,123 -113,155 0,0 107,-29 255,-15 140,13 320,107 364,221l0 1z"/>
     <path class="fil6" d="M2902 1685c0,0 -143,-11 -270,-8 -127,4 -309,59 -309,59 0,0 -61,40 -92,43 -4,1 -9,1 -12,1 -4,0 -8,0 -13,-1 -31,-4 -92,-43 -92,-43 0,0 -181,-56 -309,-59 -127,-4 -269,8 -269,8 0,-27 219,-38 401,-38 181,0 166,42 191,58 19,10 65,17 90,20 24,-2 71,-10 89,-20 26,-15 11,-58 192,-58 181,0 401,10 401,38l2 0z"/>
     <path class="fil6" d="M2220 1734c24,-3 77,-13 99,-24 22,-11 27,-52 181,-52 155,0 275,5 350,16l12 4c0,0 -233,-17 -372,5 -138,22 -247,77 -264,78l-5 0c1,0 1,0 -2,0 -3,0 -3,0 -2,0l-6 0c-17,-1 -125,-56 -264,-78 -139,-22 -371,-5 -371,-5l11 -4c75,-11 197,-16 351,-16 154,0 158,41 180,52 22,12 75,21 100,24l2 0z"/>
     <path class="fil1" d="M2212 906l8 0 7 0c93,0 169,23 169,53 0,29 -76,53 -169,53l-7 0 -8 0c-93,0 -169,-24 -169,-53 0,-30 76,-53 169,-53zm151 2533c0,0 61,185 75,187 14,2 27,14 80,-53 53,-68 23,-108 -14,-146 -37,-39 -162,-75 -141,12zm108 -312c0,0 33,132 59,186 27,53 64,32 98,-13 34,-44 20,-94 -18,-144 -39,-51 -146,-78 -139,-29zm192 -195c0,0 23,135 43,179 20,45 59,18 85,-12 27,-30 45,-64 23,-132 -23,-69 -140,-82 -140,-82 0,0 -27,13 -11,47zm-416 -408l0 114c0,0 18,66 53,109 35,42 109,55 102,-27 -6,-82 -34,-118 -59,-163 -25,-45 -80,-90 -96,-33zm202 -1160c-61,28 -107,74 -101,102 6,29 61,29 123,1 62,-27 108,-73 102,-102 -6,-28 -61,-28 -124,-1zm691 89c-32,-96 -81,-164 -108,-154 -28,11 -24,98 9,194 33,96 81,164 109,154 27,-12 23,-98 -10,-194zm-388 -373c-87,-37 -166,-44 -177,-18 -12,27 49,78 135,115 86,36 165,44 176,17 12,-26 -49,-77 -134,-114zm-637 2646c-1,7 -4,57 50,63 2,0 4,0 6,0l0 0 0 0 0 0 1 0 0 0 1 0 1 0 0 0 1 0 1 0 0 0 1 0 1 0 1 0 0 0 1 0 0 0 2 0 2 0 0 0 1 0 0 0 2 0 2 0 0 0 2 0 2 0 0 0 2 0 2 0 2 0 0 0 2 0 0 0 2 0 0 0 1 0 0 0 2 0 0 0 2 0 0 0 2 0 2 0 0 0 2 0 0 0 2 0 0 0 2 0 2 0 0 0 2 0 0 0 1 0 0 0 2 0 2 0 0 0 2 0 0 0 2 0 0 0 2 0 0 0 2 0 0 0 2 0 0 0 2 0 2 0 1 0 0 0 2 0 2 0 0 0 2 0 2 0 0 0 2 0 0 0 2 0 2 0 0 0 1 0 0 0 1 0 1 0 1 0 0 0 0 0 1 0 0 0 1 0 1 0 0 0 1 0 0 0 0 0 0 0c2,0 5,0 7,0 53,-6 49,-56 49,-63 2,-25 -6,-58 -30,-105 -39,-76 -61,-104 -74,-102 -13,-2 -36,26 -74,102 -24,48 -33,81 -31,105l4 0zm-39 -286c0,0 -61,185 -75,187 -14,2 -26,14 -80,-53 -53,-68 -22,-108 15,-146 37,-39 161,-75 140,12zm-108 -312c0,0 -32,132 -59,186 -27,53 -64,32 -98,-13 -34,-44 -20,-94 18,-144 39,-51 146,-78 139,-29zm-192 -195c0,0 -23,135 -43,179 -20,45 -59,18 -85,-12 -27,-31 -45,-64 -23,-132 23,-69 141,-82 141,-82 0,0 26,13 10,47zm416 -408l0 114c0,0 -18,66 -53,108 -34,43 -108,56 -102,-26 6,-82 34,-118 59,-163 25,-45 80,-90 96,-33zm-202 -1160c61,28 107,74 101,102 -5,29 -60,29 -123,1 -62,-28 -107,-73 -102,-102 6,-28 61,-28 124,-1zm-691 89c32,-96 81,-165 108,-154 28,11 24,98 -9,194 -32,96 -81,164 -108,154 -28,-12 -24,-98 9,-194zm389 -374c86,-36 165,-43 176,-17 12,27 -49,78 -135,115 -86,36 -165,44 -176,17 -12,-26 49,-77 135,-115z"/>
     <path class="fil1" d="M2013 2437c0,0 -154,139 -313,171 -159,32 -471,26 -536,-29 -64,-54 -64,-54 -64,-54l-55 5c0,0 53,123 386,143 335,20 514,-126 583,-236l-1 0z"/>
     <path class="fil1" d="M2418 2437c0,0 156,139 316,171 161,32 474,26 540,-29 65,-54 65,-54 65,-54l57 5c0,0 -54,123 -390,143 -336,20 -517,-126 -587,-236l-1 0z"/>
     <path class="fil1" d="M3248 2001c0,0 57,265 -73,420 -130,155 -268,136 -268,136 0,0 357,-71 341,-556z"/>
     <path class="fil1" d="M1179 2001c0,0 -57,265 73,420 130,155 268,136 268,136 0,0 -358,-71 -341,-556z"/>
     <path class="fil1" d="M2183 2026c-2,67 -10,171 -33,244 -37,117 -89,130 -89,130 0,0 85,-158 115,-375l7 0 0 1zm72 0l6 0c30,217 115,375 115,375 0,0 -53,-13 -89,-130 -23,-73 -29,-177 -32,-244l0 -1z"/>
     <path class="fil1" d="M2441 835l-445 0c0,0 20,-37 82,-37 61,0 302,0 302,0 0,0 61,-3 61,37z"/>
     <path class="fil3" d="M2368 835c0,-37 -20,-175 -20,-175l-257 0 -24 175 302 0 -1 0z"/>
     <path class="fil6" d="M2520 2627c0,0 192,130 306,144 114,14 -190,55 -306,-144zm-601 0c0,0 -191,130 -305,144 -114,14 190,55 305,-144z"/>
    </g>
    <path class="fil7" d="M3216 2601c0,0 139,-16 187,-208 49,-192 32,-460 32,-460 0,0 -146,-147 -154,-225 -9,-78 0,-240 0,-240 0,0 -37,-302 -290,-481 -121,-85 -255,-148 -381,-191l0 -4c0,0 -22,-6 -58,-15 -117,-34 -224,-51 -303,-51 -10,0 -21,0 -31,1 -11,0 -21,-1 -32,-1 -78,0 -186,16 -303,51l0 0c-49,142 -76,293 -76,449 0,737 591,1348 1363,1459 25,-46 45,-85 45,-85l1 1z"/>
    <path class="fil8" d="M3373 1982c0,0 4,85 -9,199 -12,114 -41,171 -41,171l57 -8 37 -32 102 0 16 -200c0,0 0,-32 -28,-37 -29,-4 -78,-9 -78,-9 0,0 -16,-122 -57,-85l1 1z"/>
    <path class="fil9" d="M2042 1969c0,0 -1,5 -5,16 -37,-56 -70,-115 -99,-176 119,49 113,126 103,160l1 0z"/>
    <path class="fil10" d="M1957 1846c59,36 67,82 63,111 -23,-36 -44,-73 -63,-111z"/>
    <path class="fil8" d="M1957 1846c59,36 67,82 63,111 -23,-36 -44,-73 -63,-111z"/>
    <path class="fil9" d="M2396 1969c0,0 55,236 223,334 167,98 368,25 421,-51 53,-75 61,-283 -32,-386 -94,-102 -351,-114 -489,-66 -139,50 -132,133 -123,168l0 1z"/>
    <path class="fil10" d="M2422 1975c0,0 51,219 205,309 155,90 341,23 390,-48 50,-69 57,-262 -30,-356 -86,-94 -324,-105 -452,-61 -128,46 -123,123 -113,155l0 1z"/>
    <path class="fil8" d="M3042 2181c24,-88 15,-226 -54,-301 -86,-94 -324,-105 -452,-61 -128,46 -123,123 -113,155 0,0 107,-29 255,-15 140,13 320,107 364,221l0 1z"/>
    <path class="fil11" d="M2902 1685c0,0 -143,-11 -270,-8 -127,4 -309,59 -309,59 0,0 -61,40 -92,43 -4,1 -9,1 -12,1 -4,0 -8,0 -13,-1 -31,-4 -92,-43 -92,-43 0,0 -116,-35 -227,-51 -5,-13 -8,-25 -13,-38 21,0 42,0 63,0 181,0 166,42 191,58 19,10 65,17 90,20 24,-2 71,-10 89,-20 26,-15 11,-58 192,-58 181,0 401,10 401,38l2 0z"/>
    <path class="fil11" d="M2220 1734c24,-3 77,-13 99,-24 22,-11 27,-52 181,-52 155,0 275,5 350,16l12 4c0,0 -233,-17 -372,5 -138,22 -247,77 -264,78l-5 0c1,0 1,0 -2,0 -3,0 -3,0 -2,0l-6 0c-17,-1 -125,-56 -264,-78 -20,-3 -41,-6 -64,-7 -2,-6 -3,-11 -5,-17 19,0 39,0 60,0 154,0 158,41 180,52 22,12 75,21 100,24l2 -1z"/>
    <path class="fil9" d="M2212 906l8 0 7 0c93,0 169,23 169,53 0,29 -76,53 -169,53l-7 0 -8 0c-93,0 -169,-24 -169,-53 0,-30 76,-53 169,-53zm-401 227c2,-30 5,-58 9,-87 23,0 40,5 44,16 8,18 -14,44 -53,71zm638 231c-62,28 -108,74 -102,102 6,29 61,29 123,1 62,-27 108,-73 102,-102 -6,-28 -61,-28 -123,-1zm690 89c-32,-96 -81,-164 -108,-154 -28,11 -24,98 9,194 33,96 81,164 109,154 27,-12 23,-98 -10,-194zm-388 -373c-87,-37 -166,-44 -177,-18 -11,27 49,78 135,115 86,36 165,44 176,17 12,-26 -49,-77 -134,-114zm-761 284c61,28 107,74 101,102 -5,29 -60,29 -123,1 -62,-27 -107,-73 -102,-102 6,-28 61,-28 124,-1z"/>
    <path class="fil9" d="M2909 2627c151,6 319,-9 365,-48 65,-54 65,-54 65,-54l57 5c0,0 -47,106 -325,138 -55,-12 -109,-25 -162,-41z"/>
    <path class="fil9" d="M3248 2001c0,0 57,265 -73,420 -130,155 -268,136 -268,136 0,0 357,-71 341,-556z"/>
    <path class="fil9" d="M2183 2026c-1,38 -4,86 -11,134 -6,-6 -12,-13 -18,-19 9,-37 16,-75 22,-115l7 0zm158 297c-17,-14 -35,-30 -51,-45 -1,-3 -2,-5 -3,-7 -23,-73 -29,-177 -32,-244l6 0c17,125 53,229 80,297l0 -1z"/>
    <path class="fil9" d="M2441 835l-445 0c0,0 20,-37 82,-37 61,0 302,0 302,0 0,0 61,-3 61,37z"/>
    <path class="fil8" d="M2368 835c0,-37 -20,-175 -20,-175l-257 0 -24 175 302 0 -1 0z"/>
    <path class="fil12" d="M2980 805l-523 417 -239 190c0,0 204,191 373,203 2,0 3,0 5,1 144,-112 287,-223 430,-338l3 -2 3 -2 2 -2 2 -2 1 0 1 -1 1 -1 1 -1 1 -1 0 0 0 0 89 15 76 -61 -42 -52 64 -51 -249 -312 1 0z"/>
    <path class="fil13" d="M3042 1267c0,0 -214,-126 -349,-18l-339 269c70,47 157,93 237,98 248,-194 450,-349 450,-349l1 0z"/>
    <path class="fil14" d="M3229 1118l-64 51c0,0 -169,-179 -205,-199 -35,-20 -120,-52 -163,-19 -43,35 -43,35 -43,35l225 -180 249 312 1 0z"/>
    <polygon class="fil15" points="3131,1282 3127,1245 3188,1196 3207,1221 "/>
    <path class="fil16" d="M3869 95l-87 69 -708 563 262 329 666 -531c144,-115 168,-328 53,-472 -50,-36 -128,1 -187,42l1 0z"/>
    <path class="fil17" d="M3869 95l-87 69 -708 563 132 164 665 -530c130,-103 200,-237 172,-315 -49,-23 -119,12 -174,49l0 0z"/>
    <path class="fil18" d="M3334 1042l-245 -308c-14,-17 -38,-19 -54,-6l-52 41c-17,13 -19,38 -5,54l245 308c13,17 38,19 54,6l51 -41c17,-14 19,-38 6,-54z"/>
    <path class="fil19" d="M3335 1041l-245 -308c-14,-17 -29,-27 -35,-23l-16 13c-5,4 1,21 15,38l245 308c13,17 28,27 34,23l16 -13c6,-4 -1,-21 -14,-38z"/>
    <path class="fil19" d="M3258 1101l-245 -307c-14,-17 -29,-27 -34,-23l-17 13c-5,4 1,21 15,38l245 308c13,17 28,26 34,23l16 -14c6,-3 -1,-21 -14,-38z"/>
    <path class="fil20" d="M3317 1055l-245 -308c-14,-17 -27,-28 -29,-27l-8 7c-3,2 5,17 19,34l245 308c13,17 26,29 28,27l9 -7c3,-2 -6,-17 -19,-34z"/>
    <path class="fil3" d="M2597 1616c0,0 -104,-5 -207,-76 -104,-71 -171,-128 -171,-128 0,0 62,230 378,204l0 0z"/>
    <g>
     <g>
      <path class="fil6" d="M2294 1460c0,0 68,103 62,156 -9,82 -116,82 -126,0 -6,-53 63,-156 63,-156l0 1 0 -1 1 0z"/>
      <path class="fil21" d="M2294 1481c0,0 60,91 55,137 -9,72 -103,72 -110,0 -6,-46 55,-137 55,-137l0 1 0 -1z"/>
      <path class="fil22" d="M2340 1609c0,3 1,8 0,11 -6,62 -87,62 -95,0 0,-4 0,-8 0,-11 8,60 88,60 95,0z"/>
     </g>
     <g>
      <path class="fil6" d="M2575 1442c0,0 61,93 56,139 -9,73 -105,73 -112,0 -6,-47 56,-139 56,-139l0 1 0 -1z"/>
      <path class="fil21" d="M2575 1461c0,0 53,81 49,123 -7,64 -91,64 -99,0 -4,-42 50,-123 50,-123l0 1 0 -1z"/>
      <path class="fil22" d="M2617 1574c0,4 0,8 0,11 -7,55 -78,55 -85,0 0,-3 0,-7 0,-11 7,55 78,55 85,0z"/>
     </g>
     <g>
      <path class="fil6" d="M2774 1349c0,0 46,70 42,105 -7,55 -78,55 -84,0 -4,-35 41,-105 41,-105l0 1 0 -1 1 0z"/>
      <path class="fil21" d="M2774 1364c0,0 40,60 37,92 -5,48 -68,48 -74,0 -4,-32 37,-92 37,-92l0 0 0 0z"/>
      <path class="fil22" d="M2806 1449c0,3 0,6 0,8 -5,40 -59,40 -64,0 0,-3 0,-5 0,-8 5,41 58,41 64,0z"/>
     </g>
     <g>
      <path class="fil6" d="M2455 1640c0,0 44,65 40,100 -6,52 -74,52 -80,0 -4,-35 40,-100 40,-100l0 1 0 -1z"/>
      <path class="fil21" d="M2455 1653c0,0 38,58 35,88 -4,45 -65,45 -70,0 -4,-30 35,-88 35,-88l0 1 0 -1z"/>
      <path class="fil22" d="M2486 1735c0,3 0,5 0,8 -5,38 -56,38 -60,0 0,-2 0,-5 0,-8 4,39 55,39 60,0z"/>
     </g>
     <g>
      <path class="fil6" d="M2704 1580c0,0 42,64 38,96 -6,50 -71,50 -77,0 -4,-32 38,-96 38,-96l0 1 0 -1 1 0z"/>
      <path class="fil21" d="M2704 1593c0,0 37,56 33,84 -4,44 -62,44 -67,0 -3,-28 33,-84 33,-84l0 1 0 -1 1 0z"/>
      <path class="fil22" d="M2733 1671c0,3 0,5 0,8 -3,38 -54,38 -57,0 0,-2 0,-5 0,-8 4,37 53,37 57,0z"/>
     </g>
     <g>
      <path class="fil6" d="M2427 1460c0,0 31,47 28,71 -4,37 -53,37 -57,0 -3,-24 29,-71 29,-71l0 1 0 -1z"/>
      <path class="fil21" d="M2427 1470c0,0 27,41 24,62 -3,32 -46,32 -50,0 -3,-21 25,-62 25,-62l0 1 0 -1 1 0z"/>
      <path class="fil22" d="M2448 1528c0,2 0,4 0,6 -3,27 -40,27 -43,0 0,-2 0,-4 0,-6 4,27 39,27 43,0z"/>
     </g>
    </g>
    <g>
     <g>
      <path class="fil6" d="M2647 1857c0,0 -48,73 -45,111 7,58 83,58 90,0 3,-38 -45,-111 -45,-111l0 0 0 0z"/>
      <path class="fil21" d="M2647 1872c0,0 -43,64 -39,97 6,51 72,51 79,0 4,-34 -39,-97 -39,-97l0 1 0 -1 -1 0z"/>
      <path class="fil22" d="M2614 1962c0,3 0,6 0,9 5,43 62,43 67,0 0,-3 0,-6 0,-9 -5,43 -62,43 -67,0z"/>
     </g>
     <g>
      <path class="fil6" d="M2447 1844c0,0 -44,66 -40,99 5,51 74,51 80,0 3,-33 -40,-99 -40,-99l0 1 0 -1z"/>
      <path class="fil21" d="M2447 1857c0,0 -38,57 -36,87 5,46 65,46 71,0 3,-30 -35,-87 -35,-87l0 1 0 -1z"/>
      <path class="fil22" d="M2417 1938c0,3 0,5 0,8 5,39 55,39 60,0 0,-2 0,-5 0,-8 -5,38 -55,38 -60,0z"/>
     </g>
     <g>
      <path class="fil6" d="M2306 1779c0,0 -32,48 -29,74 4,39 55,39 59,0 3,-25 -29,-74 -29,-74l0 1 0 -1 -1 0z"/>
      <path class="fil21" d="M2306 1788c0,0 -28,43 -26,65 4,34 49,34 53,0 2,-22 -26,-65 -26,-65l0 1 0 -1 -1 0z"/>
      <path class="fil22" d="M2283 1849c0,2 0,4 0,6 3,29 42,29 45,0 0,-2 0,-4 0,-6 -4,28 -42,28 -45,0z"/>
     </g>
     <g>
      <path class="fil6" d="M2532 1984c0,0 -31,46 -28,70 3,37 52,37 57,0 2,-24 -29,-70 -29,-70l0 1 0 -1z"/>
      <path class="fil21" d="M2532 1994c0,0 -27,41 -25,62 4,32 47,32 51,0 2,-21 -25,-62 -25,-62l0 1 0 -1 -1 0z"/>
      <path class="fil22" d="M2510 2051c0,2 0,4 0,6 3,27 40,27 43,0 0,-2 0,-4 0,-6 -4,28 -39,28 -43,0z"/>
     </g>
     <g>
      <path class="fil6" d="M2355 1942c0,0 -29,45 -27,67 4,36 50,36 55,0 3,-22 -28,-67 -28,-67l0 1 0 -1z"/>
      <path class="fil21" d="M2355 1952c0,0 -26,38 -23,59 3,32 44,32 48,0 2,-20 -24,-59 -24,-59l0 0 0 0 -1 0z"/>
      <path class="fil22" d="M2335 2007c0,1 0,3 0,4 2,27 38,27 40,0 0,-2 0,-3 0,-4 -2,26 -38,26 -40,0z"/>
     </g>
     <g>
      <path class="fil6" d="M2552 1857c0,0 -22,33 -20,50 3,26 37,26 41,0 2,-17 -20,-50 -20,-50l0 0 0 0 -1 0z"/>
      <path class="fil21" d="M2552 1864c0,0 -19,30 -18,44 3,23 33,23 35,0 2,-15 -18,-44 -18,-44l0 0 0 0 1 0z"/>
      <path class="fil22" d="M2537 1905c0,1 0,3 0,4 2,20 28,20 30,0 0,-1 0,-3 0,-4 -3,19 -27,19 -30,0z"/>
     </g>
    </g>
   </g>
  </g>
 </g>
</svg>
