<?xml version="1.0" encoding="UTF-8"?>
<!DOCTYPE svg PUBLIC "-//W3C//DTD SVG 1.1//EN" "http://www.w3.org/Graphics/SVG/1.1/DTD/svg11.dtd">
<!-- Creator: CorelDRAW X6 -->
<svg xmlns="http://www.w3.org/2000/svg" xml:space="preserve" width="512px" height="512px" version="1.1" style="shape-rendering:geometricPrecision; text-rendering:geometricPrecision; image-rendering:optimizeQuality; fill-rule:evenodd; clip-rule:evenodd"
viewBox="0 0 512 512"
 xmlns:xlink="http://www.w3.org/1999/xlink">
 <defs>
  <style type="text/css">
   <![CDATA[
    .fil4 {fill:#1A1A1A}
    .fil0 {fill:#336699}
    .fil3 {fill:#663333}
    .fil2 {fill:#DB9E93}
    .fil1 {fill:#F3B3A7}
   ]]>
  </style>
 </defs>
 <g id="Layer_x0020_1">
  <metadata id="CorelCorpID_0Corel-Layer"/>
  <g id="_488309184">
   <path class="fil0" d="M258 8c134,0 243,109 243,243 0,134 -109,243 -243,243 -134,0 -243,-109 -243,-243 0,-134 109,-243 243,-243z"/>
   <g>
    <path class="fil1" d="M311 187l31 24c0,0 11,8 4,17 -6,9 -43,21 -43,21 0,0 -11,-21 -19,-23 -7,-2 3,46 7,43 4,-3 7,2 7,2 0,0 51,-19 64,-25 13,-6 29,-13 26,-22 -4,-9 -50,-54 -50,-54l-28 16z"/>
    <path class="fil1" d="M285 142c0,0 -14,1 -15,-11 -1,-12 -1,-16 -1,-16l-24 -1c0,0 -2,28 -14,28 -12,0 -17,50 14,47 31,-3 53,1 54,-6 1,-7 -14,-41 -14,-41z"/>
    <path class="fil2" d="M285 88c0,0 2,10 -1,13 -3,3 -7,4 -7,4 0,0 -9,20 -20,20 -11,0 -17,-6 -21,-13 -4,-7 -3,-9 -3,-9 0,0 -7,-23 -1,-33 6,-9 25,-17 34,-14 9,3 18,22 19,32z"/>
    <path class="fil3" d="M253 65c0,0 -6,17 -14,21 -8,5 -7,8 -7,8 0,0 3,15 7,20 4,5 5,6 5,6 0,0 -1,10 -4,15 -4,5 -3,7 -8,7 -5,0 -12,0 -12,0 0,0 -4,-7 -3,-20 1,-13 6,-19 4,-28 -2,-9 -2,-21 8,-33 11,-12 22,-14 28,-12 1,0 2,1 3,2 8,0 21,2 27,9 9,12 6,39 5,42 -1,3 -2,6 2,16 4,10 0,23 0,23 0,0 -9,0 -12,0 -3,0 -6,-3 -10,-7 -4,-4 -2,-17 -2,-17l4 -4c0,0 6,-6 5,-9 0,-3 4,-9 3,-14 -1,-5 -7,-2 -7,-2 0,0 0,-5 -1,-15 0,-7 -8,-13 -12,-16 -1,3 -3,6 -9,7z"/>
    <path class="fil1" d="M200 300c0,0 -10,32 -6,56 4,24 16,51 16,63 0,12 -6,24 0,48 2,9 5,17 7,25 10,2 20,3 30,3 1,-9 2,-20 1,-31 -3,-23 -7,-24 -7,-34 0,-11 9,-30 9,-42 0,-12 4,-32 4,-32l-1 -15 -52 -41zm95 192c-10,2 -20,2 -30,3 -1,-9 -2,-20 -1,-31 3,-23 7,-24 7,-34 0,-11 -9,-30 -9,-42 0,-12 -4,-32 -4,-32l1 -15 52 -41c0,0 10,32 6,56 -4,24 -16,51 -16,63 0,12 6,24 0,48 -2,9 -5,18 -7,25z"/>
    <path class="fil1" d="M203 189l-30 24c0,0 -10,8 -4,17 6,9 43,21 43,21 0,0 11,-21 18,-23 7,-2 -3,46 -7,43 -4,-3 -7,2 -7,2 0,0 -51,-19 -63,-25 -13,-6 -29,-13 -25,-21 4,-9 49,-54 49,-54l27 16z"/>
    <path class="fil4" d="M250 160c2,0 4,1 6,1 2,0 4,0 6,-1 1,0 2,-1 4,-2 10,-6 15,-16 15,-16l24 -1c0,0 11,7 20,17 9,10 17,15 14,16 -3,1 -19,22 -19,22l-9 -8c0,0 -4,-5 -13,7 -9,12 -21,40 -9,62 12,21 24,32 25,42 1,11 -1,12 -1,12 0,0 -30,12 -42,25 -8,9 -12,11 -14,11l0 0c0,0 0,0 -1,0 0,0 -1,0 -1,0l0 0c-2,0 -6,-2 -14,-11 -12,-13 -42,-25 -42,-25 0,0 -2,-1 -1,-12 1,-11 13,-21 25,-42 12,-21 -1,-49 -9,-62 -9,-12 -11,-7 -11,-7l-9 7c0,0 -18,-22 -21,-22 -3,-1 4,-6 14,-16 9,-10 20,-17 20,-17l24 1c0,0 6,10 15,16 1,1 2,1 4,2z"/>
   </g>
  </g>
 </g>
</svg>
