<?xml version="1.0" encoding="UTF-8"?>
<!DOCTYPE svg PUBLIC "-//W3C//DTD SVG 1.1//EN" "http://www.w3.org/Graphics/SVG/1.1/DTD/svg11.dtd">
<!-- Creator: CorelDRAW X6 -->
<svg xmlns="http://www.w3.org/2000/svg" xml:space="preserve" width="512px" height="512px" version="1.1" style="shape-rendering:geometricPrecision; text-rendering:geometricPrecision; image-rendering:optimizeQuality; fill-rule:evenodd; clip-rule:evenodd"
viewBox="0 0 512 512"
 xmlns:xlink="http://www.w3.org/1999/xlink">
 <defs>
  <style type="text/css">
   <![CDATA[
    .fil7 {fill:#434242}
    .fil0 {fill:#4D897C}
    .fil6 {fill:#D19563}
    .fil8 {fill:#D9DADA}
    .fil2 {fill:#ECC493}
    .fil3 {fill:#EEC898}
    .fil1 {fill:#FCD5A6}
    .fil4 {fill:#434242}
    .fil5 {fill:white}
   ]]>
  </style>
 </defs>
 <g id="Layer_x0020_1">
  <metadata id="CorelCorpID_0Corel-Layer"/>
  <path class="fil0" d="M256 2c138,0 250,112 250,250 0,138 -112,250 -250,250 -138,0 -250,-112 -250,-250 0,-138 112,-250 250,-250z"/>
  <path class="fil1" d="M266 131c0,0 88,3 101,70 1,18 -5,60 3,44 10,4 15,17 15,17 0,0 0,27 -9,57 -5,18 -14,20 -19,19 -7,28 -16,52 -23,63 -17,28 -49,51 -68,54 0,0 -1,1 -1,1 -1,0 -1,0 -2,0 -1,0 -1,0 -2,0 0,0 -1,0 -1,-1 -1,0 -3,-1 -3,-1 -1,0 -3,1 -3,1 0,0 -1,1 -1,1 -1,0 -1,0 -2,0 -1,0 -1,0 -2,0 0,0 -1,0 -1,-1 -19,-3 -52,-26 -68,-54 -8,-12 -16,-35 -23,-63 -6,1 -14,-1 -19,-19 -9,-30 -9,-57 -9,-57 0,0 9,-9 19,-13 0,-15 -3,-34 -1,-47 12,-67 101,-70 101,-70l0 0c2,0 3,0 4,0 2,0 3,0 4,0l0 0 3 0 3 0 0 0c2,0 3,0 4,0 2,0 3,0 4,0l0 0 -2 0z"/>
  <path class="fil2" d="M355 338l-2 -73c0,0 2,-21 21,-17 19,4 12,13 8,35 -4,23 -9,40 -9,40 0,0 -4,13 -18,15z"/>
  <path class="fil2" d="M156 338l2 -73c0,0 -2,-21 -21,-17 -19,4 -12,13 -8,35 4,23 9,40 9,40 0,0 4,13 18,15z"/>
  <path class="fil3" d="M262 195l0 41 -6 45c0,0 8,11 10,19 2,8 2,14 2,14l12 35c0,0 -6,14 -12,14 -6,0 -12,2 -12,2l0 24 2 24c0,0 16,10 16,16 0,6 -14,28 -14,28 0,0 31,-4 52,-29 21,-26 44,-53 44,-89 -1,-36 -2,-73 -2,-73 0,0 15,-13 15,-20 0,-7 0,-48 -8,-62 -8,-14 -99,11 -99,11z"/>
  <path class="fil4" d="M256 350c6,-4 15,-10 24,-8 15,5 18,12 65,-8 47,-19 86,-31 86,-31 0,0 -98,56 -128,57 -22,2 -40,-3 -48,-6 -8,3 -27,8 -48,6 -30,-3 -128,-57 -128,-57 0,0 39,12 86,31 47,19 51,12 65,8 9,-3 19,3 24,8l0 0zm98 -84l0 -57c0,0 -9,-26 -18,-29 -15,-4 -50,14 -80,11 -30,3 -65,-14 -80,-11 -9,3 -18,29 -18,29l0 57 -12 -17c0,0 -3,-19 -15,-46 -12,-26 6,-43 9,-56 3,-12 33,-29 33,-29l0 -17c0,0 27,-9 41,-22 15,-12 12,-31 12,-31 0,0 15,7 30,19 14,-12 30,-19 30,-19 0,0 -3,19 12,31 15,12 41,22 41,22l0 17c0,0 30,17 33,29 3,12 21,29 9,56 -12,26 -15,46 -15,46l-12 17zm-18 -9c0,0 -9,-9 -27,-9 -18,0 -39,14 -39,14 0,0 -6,-8 6,-19 12,-12 51,-14 59,14l1 0zm-160 0c0,0 9,-9 27,-9 18,0 39,14 39,14 0,0 6,-8 -6,-19 -12,-12 -51,-14 -59,14l-1 0z"/>
  <path class="fil5" d="M279 285c0,0 8,9 24,5 15,-5 24,-11 24,-11 0,0 -12,-11 -27,-8 -14,3 -20,14 -20,14l0 0zm-46 0c0,0 -8,9 -24,5 -15,-5 -24,-11 -24,-11 0,0 12,-11 27,-8 14,3 20,14 20,14l0 0z"/>
  <path class="fil6" d="M277 389l-42 0c0,0 19,-15 42,0z"/>
  <g id="_518458784">
   <g>
    <path class="fil0" d="M300 271c5,0 10,4 10,10 0,5 -4,10 -10,10 -5,0 -10,-4 -10,-10 0,-5 4,-10 10,-10z"/>
    <path class="fil7" d="M300 276c3,0 5,2 5,5 0,3 -2,5 -5,5 -3,0 -5,-2 -5,-5 0,-3 2,-5 5,-5z"/>
   </g>
   <path class="fil8" d="M301 276c1,0 2,1 2,2 0,1 -1,2 -2,2 -1,0 -2,-1 -2,-2 0,-1 1,-2 2,-2z"/>
  </g>
  <g id="_518458856">
   <g>
    <path class="fil0" d="M212 271c5,0 10,4 10,10 0,5 -4,10 -10,10 -5,0 -10,-4 -10,-10 0,-5 4,-10 10,-10z"/>
    <path class="fil7" d="M212 276c3,0 5,2 5,5 0,3 -2,5 -5,5 -3,0 -5,-2 -5,-5 0,-3 2,-5 5,-5z"/>
   </g>
   <path class="fil8" d="M213 276c1,0 2,1 2,2 0,1 -1,2 -2,2 -1,0 -2,-1 -2,-2 0,-1 1,-2 2,-2z"/>
  </g>
 </g>
</svg>
