<?xml version="1.0" encoding="UTF-8"?>
<!DOCTYPE svg PUBLIC "-//W3C//DTD SVG 1.1//EN" "http://www.w3.org/Graphics/SVG/1.1/DTD/svg11.dtd">
<!-- Creator: CorelDRAW X6 -->
<svg xmlns="http://www.w3.org/2000/svg" xml:space="preserve" width="43.3492mm" height="43.3492mm" version="1.1" style="shape-rendering:geometricPrecision; text-rendering:geometricPrecision; image-rendering:optimizeQuality; fill-rule:evenodd; clip-rule:evenodd"
viewBox="0 0 4335 4335"
 xmlns:xlink="http://www.w3.org/1999/xlink">
 <defs>
  <style type="text/css">
   <![CDATA[
    .fil1 {fill:#333333}
    .fil2 {fill:#3C4C6E}
    .fil0 {fill:#FFC130}
   ]]>
  </style>
 </defs>
 <g id="Layer_x0020_1">
  <metadata id="CorelCorpID_0Corel-Layer"/>
  <g id="_760385080">
   <circle class="fil0" transform="matrix(0.413486 0.998996 -0.998996 0.413486 2162.07 2184.11)" r="1819"/>
   <path class="fil1" d="M3656 2714c-23,77 -52,141 -86,199 -117,146 -241,338 -313,454 -6,-3 -13,-5 -19,-8 -34,65 -57,139 -65,230l0 0 0 3c-4,54 -3,114 6,181 2,28 5,58 9,89 -86,53 -178,99 -274,139 -230,95 -468,143 -703,149l0 -5c0,-232 -216,-395 -216,-397 -13,0 -27,0 -40,0l-81 4 -169 44c-32,11 -32,8 -68,3 -28,-4 -50,-6 -72,-14 -120,-43 -26,-166 -72,-267 -19,-42 -68,-68 -68,-123 0,-23 21,-54 30,-70 -10,-7 -27,-21 -34,-32 -3,-5 -19,-45 -19,-49 0,-29 23,-98 15,-120 -5,-14 -8,-20 -12,-36 -16,-1 -28,-7 -44,-11 -16,-4 -30,-8 -45,-12 -9,-3 -40,-10 -45,-13 -7,-6 -14,-30 -14,-44 0,-23 9,-46 17,-63 9,-20 16,-36 24,-56 16,-38 35,-73 49,-112 8,-21 15,-37 24,-57 17,-38 42,-157 42,-199 0,-14 -2,-33 -4,-46 -3,-17 -7,-27 -9,-42 -45,-323 57,-582 239,-771 -71,-68 -478,-458 -460,-432 0,0 419,-469 1249,-496 830,-26 1306,504 1522,964 95,202 148,395 177,548 -4,117 -18,232 -43,345l-430 120z"/>
   <path class="fil2" d="M3656 2714c-23,77 -52,141 -86,199 -117,146 -241,338 -313,454 -6,-3 -13,-5 -19,-8 -34,65 -57,139 -65,230l0 0 0 3c-4,54 -3,114 6,181 2,28 5,58 9,89 -86,53 -178,99 -274,139 -230,95 -468,143 -703,149l0 -5c0,-232 -216,-395 -216,-397 -13,0 -27,0 -40,0l-81 4 -169 44c-32,11 -32,8 -68,3 -28,-4 -50,-6 -72,-14 -120,-43 -26,-166 -72,-267 -19,-42 -68,-68 -68,-123 0,-23 21,-54 30,-70 -10,-7 -27,-21 -34,-32 -3,-5 -19,-45 -19,-49 0,-29 23,-98 15,-120 -5,-14 -8,-20 -12,-36 -16,-1 -28,-7 -44,-11 -16,-4 -30,-8 -45,-12 -9,-3 -40,-10 -45,-13 -7,-6 -14,-30 -14,-44 0,-23 9,-46 17,-63 9,-20 16,-36 24,-56 16,-38 35,-73 49,-112 8,-21 15,-37 24,-57 17,-38 42,-157 42,-199 0,-14 -2,-33 -4,-46 -3,-17 -7,-27 -9,-42 -45,-323 57,-582 239,-771 0,0 771,-207 1329,90 558,297 687,959 687,959z"/>
  </g>
 </g>
</svg>
