<?xml version="1.0" encoding="UTF-8"?>
<!DOCTYPE svg PUBLIC "-//W3C//DTD SVG 1.1//EN" "http://www.w3.org/Graphics/SVG/1.1/DTD/svg11.dtd">
<!-- Creator: CorelDRAW X6 -->
<svg xmlns="http://www.w3.org/2000/svg" xml:space="preserve" width="512px" height="512px" version="1.1" style="shape-rendering:geometricPrecision; text-rendering:geometricPrecision; image-rendering:optimizeQuality; fill-rule:evenodd; clip-rule:evenodd"
viewBox="0 0 512 512"
 xmlns:xlink="http://www.w3.org/1999/xlink">
 <defs>
  <style type="text/css">
   <![CDATA[
    .fil4 {fill:#434242}
    .fil0 {fill:#C5C6C6}
    .fil3 {fill:#EBECEC}
    .fil2 {fill:#A61C21}
    .fil1 {fill:#B42327}
    .fil5 {fill:#BF3136}
   ]]>
  </style>
 </defs>
 <g id="Layer_x0020_1">
  <metadata id="CorelCorpID_0Corel-Layer"/>
  <g id="_806285888">
   <path class="fil0" d="M256 5c138,0 250,112 250,250 0,138 -112,250 -250,250 -138,0 -250,-112 -250,-250 0,-138 112,-250 250,-250z"/>
   <g>
    <g id="_526848736">
     <path class="fil1" d="M165 232c0,-7 0,-9 1,-17l2 -11c2,1 8,11 16,18 1,1 2,2 3,3 6,6 16,12 22,17 1,1 2,1 3,2 5,4 18,15 17,22 0,2 -2,6 -3,8 -6,9 -19,17 -29,17 -6,0 -6,0 -10,-4 -2,-2 -4,-4 -5,-6 -11,-14 -17,-32 -17,-50l0 0zm152 59c-12,0 -24,-6 -31,-16 -1,-2 -4,-8 -4,-11 0,-4 14,-17 19,-21 1,-1 1,-1 2,-2 7,-5 13,-9 19,-15l13 -13c1,-1 2,-3 3,-4 1,-1 2,-3 3,-4 3,2 4,19 4,25 0,13 -4,29 -8,37 -1,3 -2,5 -4,7 -3,5 -6,9 -10,13 -2,2 -4,4 -8,4l0 0zm-175 -57c0,6 1,12 1,17 0,5 3,29 3,34 1,10 2,14 4,23 1,6 4,17 6,23l4 10c1,1 1,2 2,3 5,9 11,16 18,24l11 13c2,2 3,3 4,5 5,5 9,9 14,14l5 4c21,16 47,19 71,7 5,-2 7,-4 11,-7 4,-3 7,-5 10,-8l24 -27c1,-1 1,-2 2,-3l4 -5c1,-2 3,-3 4,-5 11,-14 18,-33 22,-52 2,-8 3,-16 3,-24l3 -43c0,-29 -2,-62 -15,-88 -1,-2 -1,-3 -3,-5l-3 -5c-7,-13 -18,-24 -31,-32 -3,-2 -7,-4 -10,-5 -2,-1 -4,-1 -6,-2 -2,-1 -4,-1 -6,-2 -31,-10 -65,-8 -94,4 -10,4 -16,9 -24,16 -3,2 -4,4 -6,6 -9,10 -14,20 -19,33 -8,21 -12,54 -12,76l0 0z"/>
     <path class="fil2" d="M165 232c0,-7 0,-9 1,-17l2 -11c2,1 8,11 16,18 1,1 2,2 3,3 6,6 16,12 22,17 1,1 2,1 3,2 5,4 18,15 17,22 0,2 -2,6 -3,8 -6,9 -19,17 -29,17 -6,0 -6,0 -10,-4 -2,-2 -4,-4 -5,-6 -11,-14 -17,-32 -17,-50l0 0zm91 -139l0 326c-15,0 -29,-5 -42,-14l-5 -4c-5,-5 -9,-9 -14,-14 -2,-2 -3,-3 -4,-5l-11 -13c-6,-8 -13,-15 -18,-24 -1,-1 -1,-2 -2,-3l-4 -10c-2,-5 -5,-16 -6,-23 -2,-9 -2,-13 -4,-23 -1,-5 -3,-29 -3,-34 0,-6 -1,-11 -1,-17 0,-23 4,-55 12,-76 5,-13 10,-23 19,-33 2,-2 3,-4 6,-6 8,-6 14,-11 24,-16 17,-7 35,-11 53,-11l0 0z"/>
    </g>
   </g>
   <path class="fil3" d="M346 242c0,0 -24,-5 -32,8 -8,13 -31,20 -31,20 0,0 4,11 16,17 13,6 20,7 32,-6 12,-13 15,-39 15,-39z"/>
   <path class="fil3" d="M165 241c0,0 24,-5 32,8 8,13 31,20 31,20 0,0 -4,11 -16,17 -13,6 -20,8 -32,-6 -12,-13 -15,-40 -15,-40z"/>
   <path class="fil4" d="M277 366c0,0 -11,-3 -20,-3 -9,0 -22,4 -22,4 0,0 22,14 42,-1z"/>
   <g>
    <path class="fil4" d="M199 266c5,0 8,4 8,8 0,5 -4,8 -8,8 -5,0 -8,-4 -8,-8 0,-5 4,-8 8,-8z"/>
    <path class="fil4" d="M313 266c5,0 8,4 8,8 0,5 -4,8 -8,8 -5,0 -8,-4 -8,-8 0,-5 4,-8 8,-8z"/>
   </g>
   <path class="fil5" d="M283 105c0,0 34,12 49,36 15,24 13,42 13,42l-62 59c0,0 38,-51 40,-69 2,-18 -6,-36 -40,-68z"/>
   <path class="fil1" d="M230 105c0,0 -34,12 -49,36 -15,24 -13,42 -13,42l62 59c0,0 -38,-51 -40,-69 -2,-18 6,-36 40,-68z"/>
  </g>
 </g>
</svg>
