<?xml version="1.0" encoding="UTF-8"?>
<!DOCTYPE svg PUBLIC "-//W3C//DTD SVG 1.1//EN" "http://www.w3.org/Graphics/SVG/1.1/DTD/svg11.dtd">
<!-- Creator: CorelDRAW X6 -->
<svg xmlns="http://www.w3.org/2000/svg" xml:space="preserve" width="43.3492mm" height="43.3492mm" version="1.1" style="shape-rendering:geometricPrecision; text-rendering:geometricPrecision; image-rendering:optimizeQuality; fill-rule:evenodd; clip-rule:evenodd"
viewBox="0 0 4335 4335"
 xmlns:xlink="http://www.w3.org/1999/xlink">
 <defs>
  <style type="text/css">
   <![CDATA[
    .fil7 {fill:#457396}
    .fil0 {fill:#4E83AB}
    .fil8 {fill:#4F7C9E}
    .fil5 {fill:#5EA8A8}
    .fil1 {fill:#6FA3A3}
    .fil3 {fill:#9BCCCC}
    .fil2 {fill:#ABD1D1}
    .fil4 {fill:#BAE3E3}
    .fil6 {fill:white}
   ]]>
  </style>
 </defs>
 <g id="Layer_x0020_1">
  <metadata id="CorelCorpID_0Corel-Layer"/>
  <g id="_697456432">
   <path class="fil0" d="M810 674c809,-761 2081,-723 2842,86 761,809 723,2081 -86,2842 -809,761 -2081,723 -2842,-86 -761,-809 -723,-2081 86,-2842z"/>
   <g>
    <g>
     <path class="fil1" d="M1320 874c0,0 -447,199 -483,379 -36,180 -7,410 122,727 130,317 345,496 468,568 122,72 345,130 453,223 108,94 403,194 439,194 36,0 324,-1108 324,-1144 0,-36 -1323,-947 -1323,-947z"/>
     <path class="fil2" d="M2111 3030l0 -187c0,0 29,-137 72,-216 43,-79 72,-252 29,-403 -43,-151 -101,-266 -223,-331 -122,-65 -381,-245 -511,-482 -130,-237 -173,-460 -173,-460 0,0 -7,-86 65,-137 72,-50 -29,-158 705,-144 734,14 1043,317 1180,504 137,187 252,669 252,669 0,0 7,65 -58,151 -65,86 14,273 50,389 36,115 115,295 -29,295 -144,0 -180,7 -158,65 22,58 65,94 29,130 -36,36 -50,94 -50,94 0,0 65,72 43,115 -22,43 -72,79 -72,137 0,58 72,367 -130,389 -201,22 -360,-173 -590,-230 -230,-58 -468,-194 -432,-345z"/>
    </g>
    <path class="fil1" d="M1320 874c0,0 -447,199 -483,379 -36,180 -7,410 122,727 130,317 345,496 468,568 122,72 345,130 453,223 83,72 275,148 377,179 37,-82 89,-169 156,-252 25,-85 52,-182 79,-280 -5,-136 -50,-280 -82,-399 -33,-121 -223,-407 -394,-661 -342,-240 -696,-484 -696,-484z"/>
    <path class="fil3" d="M2111 3030l0 -187c0,0 29,-137 72,-216 43,-79 72,-252 29,-403 -43,-151 -101,-266 -223,-331 -122,-65 -381,-245 -511,-482 -130,-237 -173,-460 -173,-460 0,0 -7,-86 65,-137 59,-41 2,-121 385,-141 -1,1 -100,88 -14,260 86,173 612,878 669,1086 58,209 152,494 4,679 -148,185 -226,390 -219,514 -63,-55 -99,-117 -83,-182z"/>
    <path class="fil4" d="M3507 1843c0,0 7,65 -58,151 -65,86 14,273 50,389 36,115 115,295 -29,295 -144,0 -180,7 -158,65 22,58 65,94 29,130 -36,36 -50,94 -50,94 0,0 65,72 43,115 -22,43 -72,79 -72,137 0,58 72,367 -130,389 -34,4 -67,1 -99,-6 -68,-72 -112,-154 -142,-206 -65,-115 -86,-353 -14,-460 72,-108 86,-381 72,-511 -14,-130 -144,-259 -137,-345 7,-86 115,-230 317,-216 201,14 378,-18 378,-18z"/>
    <path class="fil1" d="M3254 2076c0,0 -54,-29 -115,-25 -61,4 -137,11 -137,11l165 83c0,0 68,43 86,-68zm25 586c0,0 65,-25 115,-25 50,0 61,29 61,29 0,0 -54,36 -176,-4zm7 281c0,0 -50,22 -130,22 -79,0 -91,-26 -80,3 11,29 142,33 142,33l67 -25 2 -32z"/>
   </g>
   <path class="fil5" d="M1817 1038c338,0 612,274 612,612 0,338 -274,612 -612,612 -338,0 -612,-274 -612,-612 0,-338 274,-612 612,-612z"/>
   <path class="fil6" d="M1817 1074c318,0 576,258 576,576 0,318 -258,576 -576,576 -318,0 -576,-258 -576,-576 0,-318 258,-576 576,-576z"/>
   <path class="fil5" d="M1981 1938c20,4 23,27 23,35l0 0c0,2 0,3 0,3l0 0 0 40 0 0c0,0 0,1 0,3l0 0c0,8 -3,30 -23,35 -129,27 -150,73 -81,182 -27,4 -54,6 -82,6 -240,0 -446,-143 -538,-348 26,-30 15,-74 -28,-141 -11,-17 2,-35 8,-41l0 0c1,-1 2,-2 2,-2l0 0 28 -28 0 0c0,0 1,-1 2,-2l0 0c6,-5 24,-19 41,-8 113,73 159,54 187,-78 4,-20 27,-23 35,-23l0 0c2,0 3,0 3,0l0 0 40 0 0 0c0,0 1,0 3,0l0 0c8,0 30,3 35,23 28,131 74,151 187,78 17,-11 35,2 41,8l0 0c1,1 2,2 2,2l0 0 28 28 0 0c0,0 1,1 2,2l0 0c5,6 19,24 8,41 -73,113 -54,159 78,187zm-164 -877c240,0 446,143 538,348 -26,30 -15,74 28,141 11,17 -3,35 -8,41l0 0c-1,1 -2,2 -2,2l0 0 -28 28 0 0c0,0 -1,1 -2,2l0 0c-6,5 -24,19 -41,8 -113,-73 -159,-54 -187,78 -4,20 -27,23 -35,23l0 0c-2,0 -3,0 -3,0l0 0 -40 0 0 0c0,0 -1,0 -3,0l0 0c-8,0 -30,-3 -35,-23 -28,-131 -74,-151 -187,-78 -17,11 -35,-3 -41,-8l0 0c-1,-1 -2,-2 -2,-2l0 0 -28 -28 0 0c0,0 -1,-1 -2,-2l0 0c-5,-6 -19,-24 -8,-41 73,-113 54,-159 -78,-187 -20,-4 -23,-27 -23,-35l0 0c0,-2 0,-3 0,-3l0 0 0 -40 0 0c0,0 0,-1 0,-3l0 0c0,-8 3,-30 23,-35 129,-27 150,-73 81,-182 27,-4 54,-6 82,-6zm241 89c86,0 157,70 157,157 0,86 -70,157 -157,157 -86,0 -157,-70 -157,-157 0,-86 70,-157 157,-157zm-480 690c86,0 157,70 157,157 0,86 -70,157 -157,157 -86,0 -157,-70 -157,-157 0,-86 70,-157 157,-157z"/>
   <path class="fil7" d="M3537 3630c-810,732 -2061,685 -2812,-114 -752,-799 -723,-2050 57,-2814l8 8c-550,737 -481,1818 208,2549 689,732 1763,866 2532,362l8 8z"/>
   <path class="fil8" d="M3596 3574c780,-764 809,-2015 57,-2814 -752,-799 -2003,-846 -2812,-114l8 8c769,-504 1843,-370 2532,362 689,732 758,1812 208,2549l8 8z"/>
  </g>
 </g>
</svg>
