<?xml version="1.0" encoding="UTF-8"?>
<!DOCTYPE svg PUBLIC "-//W3C//DTD SVG 1.1//EN" "http://www.w3.org/Graphics/SVG/1.1/DTD/svg11.dtd">
<!-- Creator: CorelDRAW X6 -->
<svg xmlns="http://www.w3.org/2000/svg" xml:space="preserve" width="43.3492mm" height="43.3492mm" version="1.1" style="shape-rendering:geometricPrecision; text-rendering:geometricPrecision; image-rendering:optimizeQuality; fill-rule:evenodd; clip-rule:evenodd"
viewBox="0 0 4335 4335"
 xmlns:xlink="http://www.w3.org/1999/xlink">
 <defs>
  <style type="text/css">
   <![CDATA[
    .fil2 {fill:#B2B3B3}
    .fil1 {fill:#C5C6C6}
    .fil0 {fill:#E31E24}
   ]]>
  </style>
 </defs>
 <g id="Layer_x0020_1">
  <metadata id="CorelCorpID_0Corel-Layer"/>
  <g id="_550485920">
   <path class="fil0" d="M1296 485l1 0 1 0 15 0c368,5 692,195 882,481 191,-286 514,-476 882,-481l15 0 1 0 1 0c596,0 1078,483 1078,1078 0,11 0,23 -1,34 5,190 -149,566 -819,1323 -670,757 -873,902 -1063,1048 -1,-19 33,-62 -96,70 -137,-133 -103,-79 -96,-70 -190,-146 -393,-291 -1063,-1048 -670,-757 -824,-1133 -819,-1323 0,-11 -1,-23 -1,-34 0,-596 483,-1078 1078,-1078z"/>
   <path class="fil1" d="M1691 1877c0,0 40,0 35,-105 -5,-105 5,-157 115,-152 110,5 52,-100 -73,-115 -126,-16 -183,42 -293,16 -310,-74 -749,-194 -901,215l-68 -42 68 42 -47 47 -21 -89 -21 131 10 73 -73 5 47 68c-13,45 -18,123 -14,208 126,194 312,437 582,742 102,115 193,216 275,305l26 0c0,-6 -1,-7 -1,-12 0,-4 0,-9 0,-14l-2 -26c0,-126 118,-215 118,-216 7,0 15,0 22,0l44 2 92 24c17,6 17,4 37,2 15,-2 27,-3 39,-8 66,-24 14,-91 39,-145 11,-23 37,-37 37,-67 0,-12 -12,-29 -16,-38 6,-4 15,-11 18,-17 2,-3 10,-25 10,-27 0,-16 -13,-53 -8,-65 3,-8 4,-11 6,-19 9,-1 16,-4 24,-6 9,-2 16,-4 25,-7 5,-1 22,-5 24,-7 4,-3 8,-17 8,-24 0,-13 -5,-25 -9,-35 -5,-11 -9,-19 -13,-31 -9,-21 -19,-40 -27,-61 -4,-12 -8,-20 -13,-31 -9,-21 -23,-86 -23,-108 0,-8 1,-18 2,-25 2,-9 4,-14 5,-23 21,-147 -15,-270 -85,-366l0 0z"/>
   <path class="fil2" d="M3886 2255c-50,-150 -85,-191 -95,-366 -11,-182 -274,-295 -386,-290 -113,5 -75,5 -145,-118 -70,-123 -322,-27 -360,43 -38,70 -107,-5 -81,-43 27,-38 0,-129 -129,-70 -129,59 -140,247 -70,376 21,38 27,66 26,85 -12,15 -24,31 -35,47 -7,2 -13,3 -13,3 4,0 7,0 11,0 -60,95 -90,212 -70,350 1,9 3,14 5,23 1,8 2,18 2,26 0,23 -14,90 -24,111 -5,11 -9,20 -13,32 -8,21 -18,41 -27,62 -4,11 -9,20 -13,31 -4,9 -9,22 -9,35 0,7 4,21 8,24 2,2 20,6 25,7 9,2 16,4 25,7 9,2 16,5 25,6 2,9 4,12 7,20 5,12 -8,50 -8,67 0,2 9,24 11,27 4,7 13,14 19,18 -5,9 -17,26 -17,39 0,31 27,46 38,69 26,56 -27,124 40,149 12,4 24,6 40,8 20,3 20,4 38,-2l94 -25 45 -2c7,0 15,0 22,0 0,1 120,92 120,221l-2 26c0,5 0,10 0,14 0,5 -1,7 -1,13l41 0c94,-102 202,-220 325,-359 236,-266 407,-485 531,-666z"/>
  </g>
 </g>
</svg>
