<?xml version="1.0" encoding="UTF-8"?>
<!DOCTYPE svg PUBLIC "-//W3C//DTD SVG 1.1//EN" "http://www.w3.org/Graphics/SVG/1.1/DTD/svg11.dtd">
<!-- Creator: CorelDRAW X6 -->
<svg xmlns="http://www.w3.org/2000/svg" xml:space="preserve" width="43.3492mm" height="43.3492mm" version="1.1" style="shape-rendering:geometricPrecision; text-rendering:geometricPrecision; image-rendering:optimizeQuality; fill-rule:evenodd; clip-rule:evenodd"
viewBox="0 0 4335 4335"
 xmlns:xlink="http://www.w3.org/1999/xlink">
 <defs>
  <style type="text/css">
   <![CDATA[
    .fil3 {fill:#00CCFF}
    .fil1 {fill:#33405C}
    .fil0 {fill:#FFCC00}
    .fil2 {fill:white}
   ]]>
  </style>
 </defs>
 <g id="Layer_x0020_1">
  <metadata id="CorelCorpID_0Corel-Layer"/>
  <circle class="fil0" transform="matrix(0.816971 0.778755 -0.778755 0.816971 2188.34 2202.1)" r="1819"/>
  <path class="fil1" d="M3569 2141c0,866 -554,854 -598,1398l0 0 0 3c-5,61 -3,128 6,204 7,93 22,208 52,329 -256,115 -541,179 -840,179 -104,0 -206,-8 -306,-23 0,-4 0,-8 0,-11l3 -54c0,-262 -244,-446 -244,-448 -15,0 -30,0 -45,0l-91 5 -191 50c-36,12 -37,9 -76,3 -31,-4 -56,-6 -81,-15 -135,-49 -29,-187 -82,-301 -22,-47 -77,-77 -77,-139 0,-26 24,-61 34,-79 -11,-8 -31,-23 -38,-36 -3,-5 -22,-51 -22,-55 0,-33 26,-111 16,-135 -6,-15 -9,-23 -14,-40 -18,-1 -32,-8 -50,-13 -18,-5 -33,-9 -51,-14 -10,-3 -45,-11 -50,-15 -8,-6 -16,-34 -16,-49 0,-26 11,-52 19,-72 10,-22 18,-40 28,-63 18,-43 39,-83 55,-126 9,-24 17,-41 27,-64 19,-43 47,-178 47,-225 0,-16 -2,-37 -4,-52 -3,-19 -7,-30 -10,-47 -217,-1560 2599,-1806 2599,-96z"/>
  <path class="fil2" d="M2311 1546l-106 428c0,0 -30,101 30,101 60,0 96,0 96,0l-80 377c0,0 -15,65 25,65 40,0 80,-86 156,-282 75,-196 111,-297 40,-297 -70,0 -116,0 -116,0l151 -372c0,0 30,-75 -35,-75 -65,0 -80,0 -80,0 0,0 -75,-10 -80,55z"/>
  <path class="fil3" d="M2926 1812l-214 324c0,0 -55,75 -5,93 50,18 79,28 79,28l-178 290c0,0 -32,50 2,62 33,12 92,-47 213,-188 121,-141 180,-214 121,-235 -59,-21 -96,-34 -96,-34l235 -265c0,0 47,-54 -7,-73 -54,-19 -67,-24 -67,-24 0,0 -60,-31 -83,22z"/>
  <path class="fil3" d="M1613 1643l76 381c0,0 14,92 62,69 48,-23 76,-36 76,-36l77 332c0,0 12,58 45,43 32,-15 32,-98 19,-284 -13,-185 -23,-279 -79,-252 -56,26 -92,43 -92,43l-19 -354c0,0 -4,-72 -56,-47 -52,24 -64,30 -64,30 0,0 -64,20 -44,74z"/>
 </g>
</svg>
