<?xml version="1.0" encoding="UTF-8"?>
<!DOCTYPE svg PUBLIC "-//W3C//DTD SVG 1.1//EN" "http://www.w3.org/Graphics/SVG/1.1/DTD/svg11.dtd">
<!-- Creator: CorelDRAW X6 -->
<svg xmlns="http://www.w3.org/2000/svg" xml:space="preserve" width="491px" height="491px" version="1.1" style="shape-rendering:geometricPrecision; text-rendering:geometricPrecision; image-rendering:optimizeQuality; fill-rule:evenodd; clip-rule:evenodd"
viewBox="0 0 497 497"
 xmlns:xlink="http://www.w3.org/1999/xlink">
 <defs>
  <style type="text/css">
   <![CDATA[
    .fil0 {fill:#009846}
    .fil2 {fill:#434242}
    .fil5 {fill:#E31E24}
    .fil4 {fill:#E5097F}
    .fil3 {fill:#EF7F1A}
    .fil1 {fill:#FFED00}
   ]]>
  </style>
 </defs>
 <g id="Layer_x0020_1">
  <metadata id="CorelCorpID_0Corel-Layer"/>
  <g id="_707341496">
   <g>
    <path class="fil0" d="M248 0c137,0 248,111 248,248 0,137 -111,248 -248,248 -137,0 -248,-111 -248,-248 0,-137 111,-248 248,-248z"/>
    <g>
     <path class="fil1" d="M248 130c78,0 141,63 141,141 0,78 -63,141 -141,141 -78,0 -141,-63 -141,-141 0,-78 63,-141 141,-141z"/>
     <path class="fil2" d="M131 150l30 0c-39,27 -65,73 -65,125 0,84 68,152 152,152 84,0 152,-68 152,-152 0,-52 -26,-97 -65,-125l30 0 2 0c0,0 6,-14 -7,-14 -13,0 -26,0 -26,0 0,0 -22,-1 -22,-23 0,-22 0,-52 0,-52 0,0 6,-19 -20,-19 -30,0 -56,0 -87,0 -26,0 -20,19 -20,19 0,0 0,29 0,52 0,22 -22,23 -22,23 0,0 -13,0 -26,0 -13,0 -7,14 -7,14l2 0zm56 0l121 0c46,23 78,70 78,125 0,77 -62,139 -139,139 -77,0 -139,-62 -139,-139 0,-55 32,-102 78,-125zm-39 89c7,0 13,6 13,13 0,5 -3,9 -7,11 10,16 38,48 92,48 53,0 83,-32 94,-49 -3,-2 -6,-6 -6,-11 0,-7 6,-13 13,-13 7,0 13,6 13,13 0,7 -5,12 -12,13 34,154 -241,144 -203,0 -6,-1 -11,-6 -11,-13 0,-7 6,-13 13,-13zm56 -36c7,0 13,6 13,13 0,7 -6,13 -13,13 -7,0 -13,-6 -13,-13 0,-7 6,-13 13,-13zm89 0c7,0 13,6 13,13 0,7 -6,13 -13,13 -7,0 -13,-6 -13,-13 0,-7 6,-13 13,-13zm0 -15c15,0 28,13 28,28 0,15 -13,28 -28,28 -15,0 -28,-13 -28,-28 0,-15 13,-28 28,-28zm-89 0c15,0 28,13 28,28 0,15 -13,28 -28,28 -15,0 -28,-13 -28,-28 0,-15 13,-28 28,-28z"/>
    </g>
   </g>
   <polygon class="fil3" points="184,117 312,117 312,97 184,97 "/>
   <path class="fil1" d="M248 83c13,0 24,11 24,24 0,13 -11,24 -24,24 -13,0 -24,-11 -24,-24 0,-13 11,-24 24,-24z"/>
   <path class="fil3" d="M248 90c9,0 17,7 17,17 0,9 -7,17 -17,17 -9,0 -17,-7 -17,-17 0,-9 7,-17 17,-17z"/>
   <path class="fil4" d="M204 203c8,0 15,7 15,15 0,8 -7,15 -15,15 -8,0 -15,-7 -15,-15 0,-8 7,-15 15,-15z"/>
   <path class="fil3" d="M293 203c8,0 15,7 15,15 0,8 -7,15 -15,15 -8,0 -15,-7 -15,-15 0,-8 7,-15 15,-15z"/>
   <path class="fil5" d="M205 370c0,0 18,7 43,7 25,0 42,-6 47,-8 5,-2 -46,-42 -90,1z"/>
  </g>
 </g>
</svg>
