<?xml version="1.0" encoding="UTF-8"?>
<!DOCTYPE svg PUBLIC "-//W3C//DTD SVG 1.1//EN" "http://www.w3.org/Graphics/SVG/1.1/DTD/svg11.dtd">
<!-- Creator: CorelDRAW X6 -->
<svg xmlns="http://www.w3.org/2000/svg" xml:space="preserve" width="512px" height="512px" version="1.1" style="shape-rendering:geometricPrecision; text-rendering:geometricPrecision; image-rendering:optimizeQuality; fill-rule:evenodd; clip-rule:evenodd"
viewBox="0 0 512000 512000"
 xmlns:xlink="http://www.w3.org/1999/xlink">
 <defs>
  <style type="text/css">
   <![CDATA[
    .fil0 {fill:#434242}
    .fil2 {fill:#56698F}
    .fil1 {fill:#EBECEC}
    .fil6 {fill:#2B396D}
    .fil7 {fill:#C99608}
    .fil3 {fill:#F5B400}
    .fil8 {fill:#FFBA00}
    .fil4 {fill:#FFC524}
    .fil5 {fill:#FFCC40}
   ]]>
  </style>
 </defs>
 <g id="Layer_x0020_1">
  <metadata id="CorelCorpID_0Corel-Layer"/>
  <g id="_501103752">
   <path class="fil0" d="M255999 6130c137999,0 249870,111870 249870,249869 0,137999 -111871,249870 -249870,249870 -137999,0 -249869,-111871 -249869,-249870 0,-137999 111870,-249869 249869,-249869z"/>
   <g>
    <g>
     <polygon class="fil1" points="201562,124857 310644,124857 310644,284511 201562,284511 "/>
     <polygon class="fil2" points="248789,288689 271149,266330 271149,124857 240431,124857 240431,279495 "/>
     <polygon class="fil2" points="310227,288689 332586,266330 332586,124857 301868,124857 301868,279495 "/>
     <polygon class="fil2" points="201771,288689 179411,266330 179411,124857 210129,124857 210129,279495 "/>
     <path class="fil3" d="M255790 249404c38662,0 70005,31342 70005,70005 0,38662 -31343,70004 -70005,70004 -38662,0 -70005,-31342 -70005,-70004 0,-38664 31343,-70005 70005,-70005z"/>
     <path class="fil4" d="M255790 264554c30295,0 54854,24560 54854,54855 0,30295 -24559,54854 -54854,54854 -30295,0 -54854,-24559 -54854,-54854 0,-30295 24559,-54855 54854,-54855z"/>
     <path class="fil5" d="M255790 273330c25448,0 46078,20630 46078,46078 0,25448 -20630,46077 -46078,46077 -25448,0 -46078,-20629 -46078,-46077 0,-25448 20630,-46078 46078,-46078z"/>
     <polygon class="fil6" points="179411,124857 332586,124857 332586,135723 179411,135723 "/>
     <polygon class="fil7" points="255999,289662 264419,309138 285544,311128 269624,325155 274259,345862 255999,335054 237738,345862 242374,325155 226452,311128 247578,309138 "/>
    </g>
    <path id="laurel-bride-ring-rich-diamond.svg" class="fil8" d="M398797 117731l-2673 -3563c-7126,-8016 -19596,-10689 -30286,-9798 1782,3563 8908,8017 13362,9798 6235,2673 12471,3563 20487,3563l-891 0zm-285596 0l2673 -3563c7127,-8016 19596,-10689 30286,-9798 -1781,3563 -8908,8017 -13362,9798 -6235,2673 -12471,3563 -20487,3563l891 0zm29395 -18706c1782,-2672 3563,-3562 6236,-5345 9798,-6235 17815,-6235 29395,-6235 -1782,4454 -9800,8017 -14252,8908 -8017,2672 -13362,2672 -21378,2672l-1 0zm-45429 34740l0 0 2673 -1781c7126,-4454 18705,-8908 24940,-7127 -8016,8017 -19596,17816 -35630,19597 3563,-7126 6236,-7126 7127,-10689l891 0zm64135 -62353c0,0 0,0 -892,891l-891 891c-8016,9798 -10689,19597 -30285,24941 1781,-5345 4453,-8907 6234,-13361 2674,-1782 3563,-4455 10690,-8909 4454,-2672 8908,-4453 14251,-6235 892,892 0,0 892,1782zm-66807 54337c1781,-3563 1781,-8017 3562,-11581 3563,-7126 7127,-12470 12471,-17815 1782,-1782 7126,-5346 8016,-6236l5346 -1781c-2673,8017 -7127,15143 -11580,21378 -1782,2673 -5346,5345 -8017,8017 -1782,1781 -2673,2673 -4454,3563 -2673,2672 -1782,2672 -5345,3562l0 892zm-24051 55226c891,-7126 8016,-16924 11580,-21378 5345,-5345 12471,-10689 20487,-12471 -5345,14252 -20487,25832 -32067,33849zm-13362 82842c-891,-9798 892,-18706 4454,-26723 2673,-5346 10689,-15143 14252,-16925 -4454,32067 -9798,27614 -18706,43648l0 0zm31176 86404c-3562,-2673 -9798,-15143 -11580,-20487 -2673,-7126 -4454,-21378 -891,-28505l9798 21379c1781,6235 2672,21378 2672,27613zm-27613 -122926c-3563,-16924 8017,-34739 22269,-43647 892,5345 -7126,19597 -8907,23160 -3563,7126 -9798,12470 -13362,19596l0 891zm6235 81951c-10689,-12471 -7127,-39194 2673,-48992 891,19597 3563,15143 -891,36521l-1782 12471zm22269 -183497l-891 891c0,0 0,0 0,891l-891 3563c-3562,13361 -8016,20486 -15143,31176l-891 -13362c891,-8017 3563,-13362 6235,-18706 2673,-4454 8017,-8907 11580,-13362l0 8908 0 1zm29395 257430c-10689,-5346 -26723,-24941 -23160,-43648 2673,2672 11581,15143 14252,19597 3563,7126 6236,16924 8908,24051l0 0zm49883 -308205c1782,0 892,0 1782,-891 7126,-4454 6235,-6235 17816,-8908 6234,-891 12470,-1781 18705,-891 -10689,11580 -26723,16925 -42756,16034 1781,-2672 2672,-2672 4453,-6235l0 891zm-114909 103329c892,-5345 8909,-23160 11581,-24941 4454,16034 -2672,37412 -8017,49883 -3563,-5345 -3563,-17816 -3563,-24941l0 0zm23160 180825c-1781,-1782 -5345,-3563 -8016,-5345 -14252,-10690 -14252,-19597 -17816,-24051l-891 -3563c13361,6235 34739,25832 40974,38303 -4453,0 -8907,-3563 -13361,-4454l-891 -891zm79278 48991c-21379,-6235 -30286,-24940 -35630,-43647l10689 8907c16924,14252 12470,13362 24941,34740zm-105110 -92639c-1782,-3563 -2673,-2673 -4454,-5345 -1781,-1782 -2672,-4454 -3563,-6235 -2672,-4454 -2672,-10689 -3562,-16035l-891 -4453c8908,5345 27613,29395 32067,44537 -5345,-1781 -13362,-9797 -18706,-12470l-891 0zm73042 98874c-6235,-891 -11580,-2672 -16034,-6235 -3562,-2672 -9798,-8907 -12471,-9797 1782,-1782 -1781,-1782 3563,-892l27614 5345c7126,1782 21378,8017 25832,12471l-28505 -1782 0 891zm-79277 -209329c891,-1781 1781,-3562 1781,-5345l1782 -3562c891,-1782 0,-892 891,-1782 8908,30286 5345,23160 2673,53446 -2673,-3563 -8017,-11580 -9798,-17816 -1782,-8908 0,-16034 1781,-24051l891 -891zm54337 185279c-1782,-892 -6236,-2673 -8908,-4454 -3563,-1782 -4454,-2673 -7127,-5345 -4454,-3563 -8016,-8908 -11580,-14252 7126,0 23160,8017 28505,10689 8016,4454 16924,11581 22269,17816l-24051 -5345 892 891zm-56119 -110455l-5343 -8017c-2673,-22269 -892,-16034 -1782,-34740 9798,10689 18706,34740 16924,55227 -3562,-3562 -7126,-8907 -10689,-11580l891 -891zm154102 148757c-16924,-2672 -41865,-24941 -45429,-39194 20487,8908 25832,11581 36521,27614 3563,4454 6235,8016 8908,11580l0 0zm-49883 8908c-4454,-1781 -19597,-11580 -23160,-11580 2673,-1782 13362,-1782 16925,-1782 10689,-891 38302,2673 45429,8017 -14252,1782 -22270,8908 -39194,5345zm59681 19597c-8017,-891 -13362,-2673 -20487,-5345 -4454,-1782 -15143,-6235 -19597,-6235 1781,-3563 -891,-891 2673,-2673 8908,-3563 30286,-7127 40975,-6235 3563,0 11580,3563 13361,2672 -891,-4453 -10689,-6235 -18705,-15143 -5345,-5345 -11581,-11580 -15143,-19596 8016,2672 26723,8907 31176,13361 7127,6236 14252,18706 21378,22270 -5345,9798 -21378,16924 -35630,16034l0 891zm162670 -358087c-1781,-2672 -3563,-3562 -6236,-5345 -9797,-6235 -17815,-6235 -29395,-6235 1782,4454 9800,8017 14252,8908 8017,2672 13362,2672 21378,2672l1 0zm45429 34740l0 0 -2673 -1781c-7126,-4454 -18705,-8908 -24940,-7127 8016,8017 19596,17816 35630,19597 -3563,-7126 -6236,-7126 -7127,-10689l-891 0zm-64134 -62353c0,0 0,0 891,891l891 891c8016,9798 10689,19597 30286,24941 -1782,-5345 -4454,-8907 -6235,-13361 -2674,-1782 -3563,-4455 -10690,-8909 -4453,-2672 -8908,-4453 -14251,-6235 -891,892 0,0 -891,1782zm66806 54337c-1781,-3563 -1781,-8017 -3562,-11581 -3563,-7126 -7127,-12470 -12471,-17815 -1781,-1782 -7126,-5346 -8016,-6236l-5346 -1781c2673,8017 7127,15143 11581,21378 1781,2673 5345,5345 8017,8017 1781,1781 2672,2673 4453,3563 2673,2672 1782,2672 5345,3562l0 892zm24051 55226c-891,-7126 -8016,-16924 -11580,-21378 -5345,-5345 -12471,-10689 -20487,-12471 5345,14252 20487,25832 32067,33849zm13362 82842c891,-9798 -891,-18706 -4454,-26723 -2673,-5346 -10689,-15143 -14252,-16925 4454,32067 9798,27614 18706,43648l0 0zm-31176 86404c3562,-2673 9798,-15143 11580,-20487 2673,-7126 4454,-21378 891,-28505l-9797 21379c-1782,6235 -2673,21378 -2673,27613zm27613 -122926c3563,-16924 -8016,-34739 -22269,-43647 -892,5345 7126,19597 8907,23160 3563,7126 9798,12470 13362,19596l0 891zm-6235 81951c10689,-12471 7127,-39194 -2673,-48992 -891,19597 -3563,15143 892,36521l1781 12471zm-22269 -183497l891 891c0,0 0,0 0,891l891 3563c3562,13361 8017,20486 15143,31176l891 -13362c-891,-8017 -3562,-13362 -6235,-18706 -2673,-4454 -8017,-8907 -11580,-13362l0 8908 0 1zm-29395 257430c10689,-5346 26723,-24941 23160,-43648 -2673,2672 -11581,15143 -14252,19597 -3563,7126 -6236,16924 -8908,24051l0 0zm-49883 -308205c-1782,0 -891,0 -1782,-891 -7126,-4454 -6235,-6235 -17815,-8908 -6235,-891 -12471,-1781 -18706,-891 10689,11580 26723,16925 42756,16034 -1781,-2672 -2672,-2672 -4453,-6235l0 891zm114909 103329c-892,-5345 -8908,-23160 -11581,-24941 -4454,16034 2673,37412 8017,49883 3563,-5345 3563,-17816 3563,-24941l0 0zm-23160 180825c1782,-1782 5345,-3563 8017,-5345 14251,-10690 14251,-19597 17815,-24051l892 -3563c-13362,6235 -34740,25832 -40975,38303 4453,0 8907,-3563 13361,-4454l891 -891zm-79278 48991c21379,-6235 30287,-24940 35630,-43647l-10689 8907c-16924,14252 -12470,13362 -24941,34740zm105110 -92639c1782,-3563 2673,-2673 4454,-5345 1781,-1782 2672,-4454 3563,-6235 2672,-4454 2672,-10689 3562,-16035l891 -4453c-8907,5345 -27613,29395 -32067,44537 5345,-1781 13362,-9797 18706,-12470l891 0zm-73042 98874c6235,-891 11580,-2672 16034,-6235 3563,-2672 9798,-8907 12471,-9797 -1782,-1782 1781,-1782 -3563,-892l-27614 5345c-7126,1782 -21378,8017 -25832,12471l28505 -1782 0 891zm79277 -209329c-891,-1781 -1781,-3562 -1781,-5345l-1782 -3562c-891,-1782 0,-892 -891,-1782 -8907,30286 -5345,23160 -2672,53446 2672,-3563 8016,-11580 9797,-17816 1782,-8908 0,-16034 -1781,-24051l-891 -891zm-54337 185279c1782,-892 6236,-2673 8908,-4454 3563,-1782 4454,-2673 7127,-5345 4454,-3563 8017,-8908 11580,-14252 -7126,0 -23160,8017 -28505,10689 -8016,4454 -16924,11581 -22269,17816l24051 -5345 -892 891zm56119 -110455l5343 -8017c2673,-22269 892,-16034 1782,-34740 -9798,10689 -18706,34740 -16924,55227 3562,-3562 7126,-8907 10689,-11580l-891 -891zm-154102 148757c16925,-2672 41865,-24941 45429,-39194 -20487,8908 -25832,11581 -36521,27614 -3563,4454 -6235,8016 -8907,11580l-1 0zm49883 8908c4454,-1781 19597,-11580 23160,-11580 -2673,-1782 -13362,-1782 -16925,-1782 -10689,-891 -38302,2673 -45429,8017 14252,1782 22270,8908 39194,5345zm-59681 19597c8017,-891 13362,-2673 20487,-5345 4454,-1782 15143,-6235 19597,-6235 -1781,-3563 891,-891 -2672,-2673 -8909,-3563 -30287,-7127 -40976,-6235 -3563,0 -11580,3563 -13361,2672 891,-4453 10689,-6235 18706,-15143 5343,-5345 11580,-11580 15142,-19596 -8016,2672 -26723,8907 -31176,13361 -7126,6236 -14252,18706 -21378,22270 5345,9798 21378,16924 35630,16034l0 891z"/>
   </g>
   <polygon class="fil2" points="179411,124857 332586,124857 312186,111500 197721,111500 "/>
   <path class="fil4" d="M255999 242019c42255,0 76509,34253 76509,76507 0,42254 -34253,76507 -76509,76507 -42254,0 -76507,-34253 -76507,-76507 0,-42254 34253,-76507 76507,-76507zm0 7789c37952,0 68718,30765 68718,68718 0,37952 -30765,68718 -68718,68718 -37952,0 -68718,-30765 -68718,-68718 0,-37952 30765,-68718 68718,-68718z"/>
  </g>
 </g>
</svg>
