<?xml version="1.0" encoding="UTF-8"?>
<!DOCTYPE svg PUBLIC "-//W3C//DTD SVG 1.1//EN" "http://www.w3.org/Graphics/SVG/1.1/DTD/svg11.dtd">
<!-- Creator: CorelDRAW X6 -->
<svg xmlns="http://www.w3.org/2000/svg" xml:space="preserve" width="43.3492mm" height="43.3492mm" version="1.1" style="shape-rendering:geometricPrecision; text-rendering:geometricPrecision; image-rendering:optimizeQuality; fill-rule:evenodd; clip-rule:evenodd"
viewBox="0 0 4335 4335"
 xmlns:xlink="http://www.w3.org/1999/xlink">
 <defs>
  <style type="text/css">
   <![CDATA[
    .fil4 {fill:#B2B3B3}
    .fil1 {fill:#D9DADA}
    .fil3 {fill:#EBECEC}
    .fil0 {fill:#FFED00}
    .fil6 {fill:#434242}
    .fil5 {fill:#5C4033}
    .fil2 {fill:#6E4F3F}
   ]]>
  </style>
 </defs>
 <g id="Layer_x0020_1">
  <metadata id="CorelCorpID_0Corel-Layer"/>
  <path class="fil0" d="M2163 76c1153,0 2087,934 2087,2087 0,1153 -934,2087 -2087,2087 -1153,0 -2087,-934 -2087,-2087 0,-1153 934,-2087 2087,-2087z"/>
  <g id="_644213976">
   <g>
    <path class="fil1" d="M1581 3317l1164 0 0 252c0,83 -68,151 -151,151l-862 0c-83,0 -151,-68 -151,-151l0 -252z"/>
    <path class="fil2" d="M1154 1343l389 2051c28,145 32,250 205,271l0 1 16 0 2 0 3 0 3 0 2 0 5 0 2 0 6 0 1 0 8 0 0 0 9 0 0 0 9 0 1 0 10 0 1 0 10 0 2 0 10 0 2 0 10 0 3 0 10 0 3 0 10 0 3 0 11 0 4 0 11 0 4 0 11 0 4 0 11 0 5 0 11 0 5 0 11 0 5 0 11 0 5 0 11 0 6 0 11 0 6 0 11 0 6 0 12 0 6 0 12 0 6 0 12 0 6 0 12 0 6 0 12 0 6 0 12 0 6 0 12 0 6 0 12 0 6 0 12 0 6 0 12 0 6 0 12 0 6 0 12 0 6 0 12 0 6 0 11 0 6 0 11 0 6 0 11 0 5 0 11 0 5 0 11 0 5 0 11 0 5 0 11 0 4 0 11 0 4 0 11 0 4 0 11 0 3 0 10 0 3 0 10 0 3 0 10 0 2 0 10 0 2 0 10 0 1 0 10 0 1 0 9 0 0 0 9 0 0 0 8 0 1 0 6 0 2 0 5 0 2 0 3 0 3 0 2 0 16 0 0 -1c183,-22 181,-143 209,-292l385 -2030 0 -73 -594 0 -830 0 -594 0 0 73z"/>
    <circle class="fil3" cx="2163" cy="2196" r="467"/>
    <path class="fil3" d="M2163 1615c321,0 581,260 581,581 0,321 -260,581 -581,581 -321,0 -581,-260 -581,-581 0,-321 260,-581 581,-581zm0 68c283,0 513,230 513,513 0,283 -230,513 -513,513 -283,0 -513,-230 -513,-513 0,-283 230,-513 513,-513z"/>
    <path class="fil3" d="M1150 1269l9 0 2009 0 9 0 -3 -6c20,-21 85,-93 78,-150 -8,-68 -85,-137 -136,-151 -26,-7 -498,-7 -953,-5 -455,-2 -927,-2 -953,5 -51,14 -128,83 -136,151 -6,57 58,129 78,150l-3 6z"/>
    <path class="fil4" d="M1150 1269l9 0 2009 0 9 0 -3 -6c9,-9 27,-28 43,-52l-2107 0c16,23 34,43 43,52l-3 6z"/>
    <path class="fil4" d="M1243 957l8 0 1824 0 8 0 -3 1c8,1 24,3 39,5l-1913 0c15,-2 31,-4 39,-5l-3 -1z"/>
   </g>
   <path class="fil5" d="M1451 1269c0,0 -226,-30 -204,144 23,173 399,2087 399,2087 0,0 149,165 226,165 77,0 77,0 77,0l-181 0c0,0 -161,-8 -188,-109 -27,-101 -321,-1650 -321,-1650l-98 -516 -4 -121 293 0z"/>
   <g>
    <path class="fil6" d="M2047 1914c70,13 128,72 152,153 -26,27 -48,61 -63,101 -23,63 -24,127 -6,180 -31,28 -70,45 -111,45 -106,0 -192,-108 -192,-241 0,-121 71,-220 163,-238 1,0 29,-2 24,28 -5,31 4,94 19,153 15,58 1,102 1,102 0,0 0,0 16,-48 16,-48 17,-65 0,-108 -17,-42 -4,-127 -4,-128l0 0z"/>
    <path class="fil6" d="M2416 2039c74,44 104,152 66,256 -42,114 -150,179 -240,146 -91,-34 -131,-153 -89,-267 38,-103 130,-167 215,-152 1,0 25,7 12,32 -14,25 -26,82 -32,137 -6,55 -31,88 -31,88 0,0 0,0 29,-36 29,-36 35,-50 34,-92 -1,-42 37,-110 37,-111z"/>
   </g>
  </g>
 </g>
</svg>
