<svg xmlns="http://www.w3.org/2000/svg"  width="48px" height="48px" version="1.1" style="shape-rendering:geometricPrecision; text-rendering:geometricPrecision; image-rendering:optimizeQuality; fill-rule:evenodd; clip-rule:evenodd"
viewBox="0 0 4403 4403"
 xmlns:xlink="http://www.w3.org/1999/xlink">
 <defs>
  <style type="text/css">
   <![CDATA[
    .fil1 {fill:#FEFEFE}
    .fil0 {fill:url(#id0)}
   ]]>
  </style>
  <linearGradient id="id0" gradientUnits="userSpaceOnUse" x1="2201" y1="0" x2="2201" y2="4403">
   <stop offset="0" style="stop-opacity:1; stop-color:#456F9E"/>
   <stop offset="1" style="stop-opacity:1; stop-color:#355E8C"/>
  </linearGradient>
 </defs>
 <g id="Слой_x0020_1">
  <metadata id="CorelCorpID_0Corel-Layer"/>
  <polygon class="fil0" points="0,0 0,4403 4403,4403 4403,0 "/>
  <path class="fil1" d="M1357 1086l0 2231 1030 0c0,0 672,18 657,-674 -12,-540 -430,-584 -430,-584 0,0 321,-67 321,-495 0,-345 -239,-478 -543,-478l-1036 0zm506 378l0 482 268 0c0,0 226,-13 226,-254 0,-241 -253,-228 -253,-228l-241 0zm0 870l0 562 284 0c0,0 309,14 309,-294 0,-308 -335,-268 -335,-268l-258 0z"/>
 </g>
</svg>
