<svg xmlns="http://www.w3.org/2000/svg" xml:space="preserve" width="48px" height="48px" version="1.1" style="shape-rendering:geometricPrecision; text-rendering:geometricPrecision; image-rendering:optimizeQuality; fill-rule:evenodd; clip-rule:evenodd"
viewBox="0 0 4403 4403"
 xmlns:xlink="http://www.w3.org/1999/xlink"
 enable-background="new 0 0 512 512">
 <defs>
  <style type="text/css">
   <![CDATA[
    .fil5 {fill:#B1392F}
    .fil4 {fill:#B6B5AC}
    .fil6 {fill:#BEBDB3}
    .fil9 {fill:#C2C0B6}
    .fil8 {fill:#C4C2B8}
    .fil7 {fill:#C7C5BB}
    .fil0 {fill:#C8C9C9}
    .fil1 {fill:#E65A4D}
    .fil3 {fill:#E6E3D6}
    .fil2 {fill:#F6F4EC}
   ]]>
  </style>
 </defs>
 <g id="Слой_x0020_1">
  <metadata id="CorelCorpID_0Corel-Layer"/>
  <polygon class="fil0" points="0,0 0,4403 4403,4403 4403,0 "/>
  <g id="_995004288">
   <g>
    <path class="fil1" d="M3389 1168c26,-16 53,-7 79,0 100,27 170,119 172,223 1,26 -1,53 -1,78 -8,0 -12,5 -18,9 -73,52 -148,105 -221,158 -30,22 -62,39 -87,66 -11,0 -18,7 -26,12 -242,167 -485,334 -726,501 -120,83 -240,166 -360,250 -4,0 -7,0 -10,0 -5,-4 -10,-9 -15,-13 -295,-206 -591,-411 -886,-617 -61,-42 -121,-85 -182,-126 -7,-5 -13,-15 -22,-9 -8,5 -3,16 -4,24 -1,3 0,6 0,9 0,486 0,973 0,1459 0,11 1,22 1,32 0,6 -1,11 -1,17 -111,13 -211,-2 -281,-102 -25,-37 -40,-77 -40,-123 0,-543 -1,-1086 1,-1630 0,-111 90,-209 200,-224 18,-2 35,-5 50,7 4,4 6,7 11,10 385,285 770,571 1155,857 15,11 25,11 40,-1 308,-227 616,-454 923,-680 82,-62 165,-125 248,-186z"/>
    <path class="fil2" d="M3389 1168c-83,62 -166,124 -249,186 -307,227 -616,453 -923,680 -15,11 -24,12 -40,1 -384,-286 -769,-571 -1154,-857 -4,-3 -7,-6 -11,-10 7,-12 19,-8 29,-8 773,0 1546,0 2319,0 10,0 21,-4 29,8z"/>
    <path class="fil3" d="M1082 3222c-1,-11 -1,-22 -1,-32 0,-486 0,-973 0,-1459 0,-3 -1,-6 0,-9 1,-8 -4,-19 4,-25 9,-5 16,5 22,9 61,42 121,84 182,126 295,206 590,411 886,617 5,4 11,9 15,13 -2,2 -5,4 -8,6 -2,2 -4,4 -6,6 -5,0 -9,1 -12,6 -2,2 -4,4 -6,6 -1,1 -2,2 -2,3 1,-1 2,-2 3,-2 2,-2 4,-4 6,-6 5,0 9,-1 12,-6 2,-2 4,-4 6,-6 6,0 12,-1 18,-1 81,57 163,113 243,169 241,167 482,334 723,502 43,30 90,57 129,93 -11,10 -23,4 -35,5 1,-13 -11,-17 -20,-23 -44,-31 -90,-61 -133,-93 -72,-53 -146,-104 -219,-155 -61,-43 -122,-87 -185,-127 -55,-35 -105,-77 -160,-112 -62,-40 -120,-84 -181,-124 -51,-33 -100,-69 -150,-104 -10,-7 -19,-10 -29,-3 -21,15 -48,25 -65,41 -50,46 -111,76 -164,118 -67,53 -139,100 -211,147 -119,79 -234,164 -352,243 -70,47 -140,95 -208,147 -19,14 -44,20 -55,44 -12,-1 -25,4 -36,-4 209,-146 417,-291 625,-436 27,-19 58,-34 81,-60 4,-1 9,-2 9,-8 0,-1 -1,-2 -2,-2 -6,-1 -7,4 -8,8 -21,1 -34,18 -50,28 -222,153 -444,305 -666,457zm1002 -681c2,-2 4,-4 6,-6 5,0 9,-1 12,-6 2,-2 4,-4 6,-6 5,0 9,-1 12,-6 1,-1 2,-2 2,-3 -1,1 -2,2 -3,2 -5,0 -9,1 -12,6 -2,2 -4,4 -6,6 -5,0 -9,1 -12,6 -2,2 -3,4 -5,6 -1,1 -2,1 -3,2 1,-1 2,-1 3,-2zm-76 52c-5,0 -9,1 -12,6 -4,1 -8,1 -9,6 0,1 2,4 4,4 5,-1 5,-5 6,-8 5,-1 9,-1 11,-7 2,-1 5,-4 6,-5 5,0 9,-1 12,-6 2,-2 4,-4 6,-6 5,0 9,-1 12,-6 1,-1 2,-2 2,-3 -1,1 -2,2 -3,2 -5,0 -9,1 -12,6 -2,2 -4,4 -6,6 -5,0 -9,1 -12,6 -2,2 -4,4 -6,6zm-76 53c-5,0 -9,1 -12,6 -5,1 -9,1 -9,8 0,1 1,2 2,2 7,1 7,-4 8,-9 5,-1 9,-2 11,-6 2,-1 4,-4 7,-5 5,0 9,-1 12,-6 2,-2 4,-4 6,-6 5,0 9,-1 12,-6 1,-1 2,-2 2,-3 -1,1 -2,2 -3,2 -5,0 -9,1 -12,6 -2,2 -4,4 -6,6 -5,0 -9,1 -12,6 -2,2 -4,4 -6,6zm-58 41c5,-1 9,-1 9,-8 0,-1 -1,-2 -2,-2 -7,-1 -7,4 -8,9 -5,0 -9,1 -12,6 -8,1 -14,5 -17,12 -4,1 -9,1 -9,8 0,1 1,2 2,2 6,1 7,-4 8,-9 8,0 16,-1 17,-12 5,-1 9,-2 12,-6zm191 -138c-1,2 -2,4 -2,5 2,1 4,2 5,2 1,-1 2,-3 2,-5 -2,-1 -4,-1 -5,-2zm-164 121c-1,-2 -1,-4 -2,-4 -1,-1 -4,1 -5,2 -2,2 -1,5 2,5 2,0 3,-2 5,-3zm242 -166c1,-2 1,-4 2,-5 -2,-1 -4,-2 -5,-2 -1,1 -2,3 -2,5 1,1 3,1 5,2zm-318 218c-1,-2 -2,-4 -3,-4 -1,0 -4,1 -4,2 -1,3 1,5 4,5 1,0 2,-2 3,-3z"/>
    <path class="fil4" d="M3295 3234c-39,-37 -85,-63 -129,-93 -241,-168 -482,-335 -723,-502 -81,-57 -163,-112 -243,-169 0,-2 -1,-4 -1,-6 120,-83 240,-167 360,-250 242,-167 485,-334 726,-501 8,-5 15,-12 26,-12 0,512 0,1025 0,1538 -5,-2 -11,-4 -16,-5z"/>
    <path class="fil3" d="M1129 3239c11,-23 37,-30 55,-44 68,-51 137,-100 208,-147 118,-80 234,-164 352,-243 72,-47 144,-94 211,-147 53,-42 114,-72 164,-118 18,-16 44,-26 65,-41 10,-8 19,-5 29,3 50,35 99,70 150,104 61,40 119,85 181,124 55,35 105,77 160,112 63,40 124,85 185,127 73,51 147,102 219,155 44,32 89,62 133,93 8,6 20,9 20,23 -711,-1 -1421,-1 -2132,-1z"/>
    <path class="fil5" d="M3313 3239c0,-513 0,-1025 0,-1538 25,-27 58,-44 87,-66 73,-54 147,-105 221,-158 5,-4 11,-9 18,-9 1,10 1,19 1,29 0,496 0,992 1,1487 0,34 -1,68 -9,101 -15,62 -52,105 -113,127 -67,23 -136,30 -206,26z"/>
    <path class="fil6" d="M1799 2739c-23,26 -54,41 -81,60 -208,146 -416,291 -625,436 -4,1 -8,2 -12,4 0,-6 1,-11 1,-17 223,-152 444,-304 667,-456 16,-11 28,-27 50,-28l1 1z"/>
    <path class="fil7" d="M2200 2464c0,2 0,4 1,6 -6,0 -12,1 -17,1 0,0 0,0 0,0 2,-2 5,-4 8,-6 2,0 6,0 9,0z"/>
    <path class="fil6" d="M1844 2703c4,-7 9,-11 17,-12l1 1c-1,11 -9,12 -17,12l-1 -1z"/>
    <path class="fil8" d="M2065 2548c2,1 4,1 5,2 -1,2 -1,4 -2,5 -1,1 -3,-1 -5,-2 1,-1 1,-3 2,-5z"/>
    <path class="fil6" d="M1873 2685c1,-5 2,-9 8,-9 1,0 2,1 2,2 0,7 -5,7 -9,8 0,1 -1,-1 -1,-1z"/>
    <path class="fil6" d="M1901 2669c-1,1 -3,3 -4,2 -3,0 -4,-3 -2,-5 1,-1 4,-2 5,-2 1,1 1,4 2,5z"/>
    <path class="fil7" d="M2144 2503c-2,-1 -4,-1 -5,-2 1,-2 1,-4 2,-5 1,-1 3,1 5,2 -1,2 -2,3 -2,5z"/>
    <path class="fil6" d="M1921 2651c-1,5 -2,9 -8,9 -1,0 -2,-1 -2,-2 0,-7 5,-7 9,-8 0,0 1,1 1,1z"/>
    <path class="fil9" d="M1997 2599c-1,4 -1,8 -6,8 -1,0 -4,-2 -4,-4 1,-5 5,-5 9,-6 0,1 1,1 1,1z"/>
    <path class="fil6" d="M1845 2704c-1,5 -2,9 -8,9 -1,0 -2,-1 -2,-2 -1,-6 5,-6 9,-8 -1,-1 1,1 1,1z"/>
    <path class="fil6" d="M1826 2721c-1,1 -2,3 -4,3 -4,1 -5,-2 -4,-5 1,-1 3,-2 4,-2 1,1 2,3 3,4z"/>
    <path class="fil6" d="M1798 2738c1,-5 2,-9 8,-8 1,0 2,1 2,2 1,6 -5,6 -9,8 0,0 -1,-1 -1,-1z"/>
    <path class="fil8" d="M2101 2529c-2,5 -7,6 -12,6 0,0 -1,-1 -1,-1 3,-4 7,-5 12,-5l0 0z"/>
    <path class="fil6" d="M1862 2691c2,-5 7,-6 12,-6 0,0 1,1 1,1 -2,5 -7,6 -12,6 0,1 -1,-1 -1,-1z"/>
    <path class="fil9" d="M2031 2575c2,-5 7,-6 12,-6l1 1c-3,4 -7,5 -12,5l0 0z"/>
    <path class="fil9" d="M2025 2581c-2,5 -7,6 -12,6l0 0c2,-5 7,-6 12,-6 0,0 0,0 0,0z"/>
    <path class="fil6" d="M1956 2628c2,-5 7,-6 12,-6l1 1c-3,4 -7,5 -12,5 0,0 0,0 0,0z"/>
    <path class="fil6" d="M1950 2633c-2,5 -7,6 -12,6l0 0c2,-5 6,-6 12,-6l0 0z"/>
    <path class="fil6" d="M1932 2645c-2,5 -7,6 -12,6 0,0 -1,-1 -1,-1 3,-4 7,-5 12,-5 0,0 0,0 0,0z"/>
    <path class="fil7" d="M2177 2476c-2,5 -7,6 -12,6 0,0 -1,-1 -1,-1 3,-4 7,-5 12,-5 0,0 0,0 0,0z"/>
    <path class="fil8" d="M2107 2523c2,-5 7,-6 12,-6l0 0c-2,5 -6,6 -12,6 0,0 0,0 0,0z"/>
    <path class="fil9" d="M2008 2593c-2,5 -7,6 -12,6 0,0 -1,-1 -1,-1 3,-4 7,-5 12,-5 0,-1 0,0 0,0z"/>
    <path class="fil6" d="M1950 2633c2,-2 4,-4 6,-6 0,0 1,1 1,1 -2,2 -4,4 -6,5 0,0 0,0 0,0z"/>
    <path class="fil9" d="M2014 2587c-2,2 -4,4 -6,6 0,0 -1,-1 -1,-1 2,-2 4,-3 6,-5 0,0 0,0 0,0z"/>
    <path class="fil8" d="M2084 2540c2,-2 4,-4 6,-6 0,0 1,1 1,1 -2,2 -4,4 -7,5l0 0z"/>
    <path class="fil9" d="M2043 2569c1,-1 2,-2 3,-2 -1,1 -2,2 -3,2 0,0 0,0 0,0z"/>
    <path class="fil8" d="M2119 2517c1,-1 2,-2 3,-2 -1,1 -2,2 -3,2 0,0 0,0 0,0z"/>
    <path class="fil7" d="M2159 2488c-1,1 -2,2 -3,2 1,-1 2,-2 3,-2 0,0 0,0 0,0z"/>
    <path class="fil7" d="M2159 2488c2,-2 4,-4 6,-6 0,0 1,1 1,1 -2,2 -4,4 -7,5 0,0 0,0 0,0z"/>
    <path class="fil8" d="M2101 2529c2,-2 4,-4 6,-6 0,0 1,1 1,1 -2,2 -4,4 -6,5 0,0 0,0 0,0z"/>
    <path class="fil7" d="M2183 2470c-2,2 -4,4 -6,6 0,0 -1,-1 -1,-1 2,-2 4,-4 6,-5 0,0 0,0 0,0z"/>
    <path class="fil8" d="M2084 2540c-1,1 -2,2 -3,2 1,-1 2,-2 3,-2 0,0 0,0 0,0z"/>
    <path class="fil6" d="M1967 2622c1,-1 2,-2 3,-2 -1,1 -2,2 -3,2 0,0 0,0 0,0z"/>
    <path class="fil9" d="M2031 2575c-2,2 -4,4 -6,6 0,0 -1,-1 -1,-1 2,-2 4,-4 6,-5 0,0 0,0 0,0z"/>
    <path class="fil6" d="M1938 2639c-2,2 -4,4 -6,6 0,0 -1,-1 -1,-1 2,-2 4,-4 7,-5 0,0 0,0 0,0z"/>
   </g>
  </g>
 </g>
</svg>
