<svg xmlns="http://www.w3.org/2000/svg" xml:space="preserve" width="48px" height="48px" version="1.1" style="shape-rendering:geometricPrecision; text-rendering:geometricPrecision; image-rendering:optimizeQuality; fill-rule:evenodd; clip-rule:evenodd"
viewBox="0 0 4403 4403"
 xmlns:xlink="http://www.w3.org/1999/xlink"
 enable-background="new 0 0 512 512">
 <defs>
  <style type="text/css">
   <![CDATA[
    .fil0 {fill:#3688C8}
    .fil1 {fill:#FAA832}
   ]]>
  </style>
 </defs>
 <g id="Слой_x0020_1">
  <metadata id="CorelCorpID_0Corel-Layer"/>
  <polygon class="fil0" points="0,0 0,4403 4403,4403 4403,0 "/>
  <path class="fil1" d="M2154 1434c209,0 406,92 550,237l0 1c0,-70 47,-122 112,-122l16 0c102,0 122,96 122,127l1 1080c-7,71 73,107 117,62 173,-178 381,-916 -108,-1344 -456,-399 -1067,-333 -1392,-109 -346,238 -566,766 -352,1261 234,540 904,701 1302,541 202,-81 295,191 85,280 -316,135 -1197,121 -1608,-591 -278,-481 -263,-1328 474,-1766 564,-336 1307,-243 1756,226 469,489 441,1406 -16,1762 -207,162 -515,4 -513,-232l-2 -77c-144,143 -336,227 -545,227 -413,0 -776,-364 -776,-776 0,-417 363,-785 776,-785l0 0 0 0 0 0zm520 755c-16,-303 -240,-484 -511,-484l-10 0c-313,0 -486,246 -486,525 0,313 210,511 485,511 307,0 509,-225 523,-491l-1 -61z"/>
 </g>
</svg>
