<svg xmlns="http://www.w3.org/2000/svg" width="48px" height="48px" viewBox="0 0 4403 4403" xmlns:xlink="http://www.w3.org/1999/xlink">
  <style type="text/css">
    .fil1 {fill:#FEFEFE}
    .fil0 {fill:#E4204D}
  </style>
  <polygon class="fil0" points="0,0 4403,0 4403,4403 0,4403 "/>
  <path class="fil1" d="M2206 1273c308,-333 914,-355 1216,9 283,342 202,1021 -223,1454 -263,270 -517,434 -706,531 -164,85 -223,125 -291,119 -68,5 -128,-34 -291,-119 -189,-97 -444,-261 -707,-531 -428,-438 -507,-1127 -214,-1465 311,-359 912,-318 1207,1l4 -4 0 -3 1 1 1 -1 0 3 3 4 0 0zm993 641c4,202 -63,426 -238,605 -202,206 -397,332 -540,406 -228,117 -193,121 -411,13 -146,-72 -353,-200 -566,-419 -182,-185 -248,-415 -241,-621 17,-580 554,-722 945,-377 -136,153 -207,342 -198,490 21,346 507,346 528,0 9,-149 -62,-337 -198,-490 401,-354 909,-183 920,393zm-2025 -474c-232,288 -163,852 191,1213 220,225 434,364 592,446 136,71 186,104 244,100l0 0 1 0 1 0 0 0c56,4 106,-29 242,-100 159,-81 372,-220 594,-446 341,-349 418,-887 214,-1183 -232,-338 -759,-272 -1039,-17 -273,-248 -794,-321 -1040,-13l0 0zm878 578c-12,-72 3,-168 68,-291 28,-54 60,-100 94,-139 33,39 66,85 93,138 67,126 80,223 67,296 -43,232 -283,227 -322,-4l0 0z"/>
</svg>
