<svg xmlns="http://www.w3.org/2000/svg" xml:space="preserve" width="48px" height="48px" version="1.1" style="shape-rendering:geometricPrecision; text-rendering:geometricPrecision; image-rendering:optimizeQuality; fill-rule:evenodd; clip-rule:evenodd"
viewBox="0 0 4403 4403"
 xmlns:xlink="http://www.w3.org/1999/xlink">
 <defs>
  <style type="text/css">
   <![CDATA[
    .fil1 {fill:#FEFEFE}
    .fil0 {fill:#456099}
   ]]>
  </style>
 </defs>
 <g id="Слой_x0020_1">
  <metadata id="CorelCorpID_0Corel-Layer"/>
  <polygon class="fil0" points="0,0 0,4403 4403,4403 4403,0 "/>
  <path class="fil1" d="M1874 3387l501 0 0 -1176 328 0 58 -385 -386 0 0 -289c0,0 19,-96 116,-96 96,0 270,0 270,0l0 -424 -424 0c0,0 -443,19 -443,386 0,366 0,405 0,405l-251 0 0 405 251 0 -19 1176z"/>
 </g>
</svg>
