<?xml version="1.0" encoding="UTF-8"?>
<!DOCTYPE svg PUBLIC "-//W3C//DTD SVG 1.1//EN" "http://www.w3.org/Graphics/SVG/1.1/DTD/svg11.dtd">
<!-- Creator: CorelDRAW X8 -->
<svg xmlns="http://www.w3.org/2000/svg" xml:space="preserve" width="104px" height="74px" version="1.1" style="shape-rendering:geometricPrecision; text-rendering:geometricPrecision; image-rendering:optimizeQuality; fill-rule:evenodd; clip-rule:evenodd"
viewBox="0 0 104 74"
 xmlns:xlink="http://www.w3.org/1999/xlink">
 <defs>
  <style type="text/css">
   <![CDATA[
    .fil1 {fill:#B2B3B3}
    .fil2 {fill:#727271}
    .fil0 {fill:#A7A7A7}
   ]]>
  </style>
 </defs>
 <g id="Слой_x0020_1">
  <metadata id="CorelCorpID_0Corel-Layer"/>
  <polygon class="fil0" points="10,24 4,15 16,15 "/>
  <polygon class="fil0" points="46,14 40,23 52,23 "/>
  <polygon class="fil1" points="86,3 89,0 95,6 100,0 104,3 98,9 104,15 100,18 95,12 89,18 86,15 91,9 "/>
  <polygon class="fil2" points="86,25 89,22 95,27 100,22 104,25 98,31 104,36 100,40 95,34 89,40 86,36 91,31 "/>
  <path class="fil0" d="M78 50c4,0 8,4 8,9 0,1 0,3 -1,4l7 7c1,1 1,2 0,3l0 0c-1,1 -2,1 -3,0l-7 -7c-1,1 -3,1 -4,1 -5,0 -9,-3 -9,-8 0,-5 4,-9 9,-9zm0 3c3,0 5,2 5,6 0,3 -2,5 -5,5 -4,0 -6,-2 -6,-5 0,-4 2,-6 6,-6z"/>
 </g>
</svg>
