<?xml version="1.0" encoding="UTF-8"?>
<!DOCTYPE svg PUBLIC "-//W3C//DTD SVG 1.1//EN" "http://www.w3.org/Graphics/SVG/1.1/DTD/svg11.dtd">
<!-- Creator: CorelDRAW X8 -->
<svg xmlns="http://www.w3.org/2000/svg" xml:space="preserve" width="52px" height="37px" version="1.1" style="shape-rendering:geometricPrecision; text-rendering:geometricPrecision; image-rendering:optimizeQuality; fill-rule:evenodd; clip-rule:evenodd"
viewBox="0 0 52 37"
 xmlns:xlink="http://www.w3.org/1999/xlink">
 <defs>
  <style type="text/css">
   <![CDATA[
    .fil1 {fill:#B2B3B3}
    .fil2 {fill:#727271}
    .fil0 {fill:#A7A7A7}
   ]]>
  </style>
 </defs>
 <g id="Слой_x0020_1">
  <metadata id="CorelCorpID_0Corel-Layer"/>
  <g id="_507136776">
   <polygon class="fil0" points="7,12 4,8 10,8 "/>
   <polygon class="fil0" points="24,7 21,11 27,11 "/>
   <polygon class="fil1" points="43,2 45,0 47,3 50,0 52,2 49,5 52,7 50,9 47,6 45,9 43,7 46,5 "/>
   <polygon class="fil2" points="43,12 45,11 47,14 50,11 52,12 49,15 52,18 50,19 47,17 45,19 43,18 46,15 "/>
   <path class="fil0" d="M39 24c2,0 4,2 4,4 0,1 0,2 0,3l3 3c1,0 1,1 0,1l0 0c0,1 -1,1 -1,0l-4 -3c0,0 -1,1 -2,1 -2,0 -4,-2 -4,-5 0,-2 2,-4 4,-4zm0 2c2,0 3,1 3,2 0,2 -1,3 -3,3 -1,0 -3,-1 -3,-3 0,-1 2,-2 3,-2z"/>
  </g>
 </g>
</svg>
