<svg xmlns="http://www.w3.org/2000/svg" width="30" height="30" clip-rule="evenodd" image-rendering="optimizeQuality" shape-rendering="geometricPrecision" text-rendering="geometricPrecision" version="1" viewBox="0 0 30000 30000">
    <path fill="#b2b3b3" d="M14228 28750h7999v-1h3c2997-1 3497-2999 3497-2999V15749s-483-2890-3338-2995l2-4V7749s498-6501-7002-6501l-390 4-389-4c-7500 0-7003 6501-7003 6501v5001l3 4c-2854 106-3337 2995-3337 2995v10001s500 2998 3497 2999h3v1h6455zm771-12083a1684 1684 0 0 1 808 3164l942 3836h-3499l942-3836a1687 1687 0 0 1 807-3164zm4390-3918h-8779V7749c0-4999 4000-4000 4000-4000l389-137 390 137s4000-999 4000 4000v5000z"/>
</svg>
