<svg xmlns="http://www.w3.org/2000/svg" width="30" height="30" fill-rule="evenodd" clip-rule="evenodd" image-rendering="optimizeQuality" shape-rendering="geometricPrecision" text-rendering="geometricPrecision" version="1" viewBox="0 0 30000 30000">
    <path fill="#b2b3b3" d="M6405 501h17189c3248 0 5905 2657 5905 5905v10190c0 3248-2657 5905-5905 5905h-95v6999l-8499-6999H6405c-3248 0-5905-2657-5905-5905V6406c0-3248 2657-5905 5905-5905zm365 8227a2772 2772 0 1 1 2 5544 2772 2772 0 0 1-2-5544zm8197 0a2773 2773 0 1 1 1 5545 2773 2773 0 0 1-1-5545zm8262 0a2773 2773 0 1 1-4 5546 2773 2773 0 0 1 4-5546z"/>
</svg>
