<svg xmlns="http://www.w3.org/2000/svg" width="30" height="30" clip-rule="evenodd" image-rendering="optimizeQuality" shape-rendering="geometricPrecision" text-rendering="geometricPrecision" version="1" viewBox="0 0 30000 30000">
    <path fill="#b2b3b3" d="M6974 3915h19001s999-1 999 1000v17000s2001-500 2001-2000V4915s0-3000-3000-3000H8974s-1500 0-2000 2000zm0 8000v10000h12000L6974 11915zM5026 24084h15948V9915H5026v14169zm19948-169v169s2 4000-4999 4000H6025c-5001 0-5000-4000-5000-4000V9915s-1-4000 5000-4000h13950c5001 0 4999 4000 4999 4000v14000z"/>
</svg>
