<svg xmlns="http://www.w3.org/2000/svg" width="30" height="30" fill-rule="evenodd" clip-rule="evenodd" image-rendering="optimizeQuality" shape-rendering="geometricPrecision" text-rendering="geometricPrecision" version="1" viewBox="0 0 30000 30000">
    <path fill="#b2b3b3" d="M12657 1813h16514c0 6265 1055 12309-8904 13381l-2-1c-739 726-1666 1307-2832 1579v3334h4497v2080h-1290v3781h1171v2219H8190v-2219h1171v-3781H8072v-2080h4496v-3334c-1166-272-2093-853-2832-1579l-1 1C-226 14124 830 8079 830 1813h11827zm10370 2008c-62 2643-129 5876-858 8579 0 0 4875-779 4875-4679V3821h-4017zm-16053 0c63 2643 130 5876 859 8579 0 0-4876-779-4876-4679V3821h4017z"/>
</svg>
