<svg xmlns="http://www.w3.org/2000/svg" width="30" height="30" clip-rule="evenodd" image-rendering="optimizeQuality" shape-rendering="geometricPrecision" text-rendering="geometricPrecision" version="1" viewBox="0 0 30000 30000">
    <path fill="#b2b3b3" d="M13361 6566v1l10 122c58 386 415 1555 2609 1555h2152a3643 3643 0 0 1 3632 3632v1785c33 96 51 217 51 367 0 2628 1677 2620 1677 2620l7 4c461 30 973-3 1485-160a2839 2839 0 0 1 1609-496l1-2a2858 2858 0 0 1 0 5716l-1-1c-598 0-1151-183-1609-496a4093 4093 0 0 0-1396-166l-96 78s-1677-8-1677 2620c0 150-18 270-51 367v1716a3642 3642 0 0 1-3632 3632H4180a3643 3643 0 0 1-3632-3632v-4785c359 4 739 53 1120 170a2841 2841 0 0 0 1608 496l2 1a2858 2858 0 0 0 0-5716l-2 2c-596 0-1150 183-1608 496a3999 3999 0 0 1-1120 170v-4786a3643 3643 0 0 1 3632-3632h2083c2628 0 2620-1678 2620-1678l74-90c28-457-7-963-161-1467a2842 2842 0 0 1-496-1609v-1h-2a2859 2859 0 0 1 5716 0h-1v1c0 597-183 1151-496 1609a4189 4189 0 0 0-156 1557z"/>
</svg>
