<?xml version="1.0" encoding="UTF-8"?>
<!DOCTYPE svg PUBLIC "-//W3C//DTD SVG 1.1//EN" "http://www.w3.org/Graphics/SVG/1.1/DTD/svg11.dtd">
<!-- Creator: CorelDRAW X6 -->
<svg xmlns="http://www.w3.org/2000/svg" xml:space="preserve" width="2.499mm" height="1.9304mm" version="1.1" style="shape-rendering:geometricPrecision; text-rendering:geometricPrecision; image-rendering:optimizeQuality; fill-rule:evenodd; clip-rule:evenodd"
viewBox="0 0 250 193"
 xmlns:xlink="http://www.w3.org/1999/xlink">
 <defs>
  <style type="text/css">
   <![CDATA[
    .fil0 {fill:#2B2A29}
   ]]>
  </style>
 </defs>
 <g id="Слой_x0020_1">
  <metadata id="CorelCorpID_0Corel-Layer"/>
  <path class="fil0" d="M38 23l31 0c4,-13 17,-23 31,-23l50 0c14,0 27,10 31,23l30 0c22,0 39,18 39,39l0 93c0,21 -17,38 -39,38l-173 0c-21,0 -38,-17 -38,-38l0 -93c0,-21 17,-39 38,-39zm60 3l54 0c3,0 5,-2 5,-5l0 0c0,-4 -2,-6 -5,-6l-54 0c-3,0 -6,2 -6,6l0 0c0,3 3,5 6,5zm111 20l-10 0c-3,0 -6,3 -6,6l0 10c0,3 3,6 6,6l10 0c4,0 6,-3 6,-6l0 -10c0,-3 -2,-6 -6,-6zm-84 28c21,0 38,17 38,38 0,21 -17,38 -38,38 -21,0 -38,-17 -38,-38 0,-21 17,-38 38,-38zm0 -17c30,0 55,25 55,55 0,31 -25,55 -55,55 -30,0 -55,-24 -55,-55 0,-30 25,-55 55,-55z"/>
 </g>
</svg>
