<?xml version="1.0" encoding="UTF-8"?>
<!DOCTYPE svg PUBLIC "-//W3C//DTD SVG 1.1//EN" "http://www.w3.org/Graphics/SVG/1.1/DTD/svg11.dtd">
<!-- Creator: CorelDRAW X6 -->
<svg xmlns="http://www.w3.org/2000/svg" xml:space="preserve" width="2.54mm" height="2.54mm" version="1.1" style="shape-rendering:geometricPrecision; text-rendering:geometricPrecision; image-rendering:optimizeQuality; fill-rule:evenodd; clip-rule:evenodd"
viewBox="0 0 25400 25400"
 xmlns:xlink="http://www.w3.org/1999/xlink">
 <defs>
  <style type="text/css">
   <![CDATA[
    .fil0 {fill:#CACACA}
   ]]>
  </style>
 </defs>
 <g id="Слой_x0020_1">
  <metadata id="CorelCorpID_0Corel-Layer"/>
  <path class="fil0" d="M19579 13341c2929,0 5305,2376 5305,5306 0,2929 -2376,5305 -5305,5305 -2929,0 -5305,-2376 -5305,-5305 0,-2930 2376,-5306 5305,-5306zm-10088 -11892l-38 2 -79 0 -39 -2c-2514,0 -4553,2039 -4553,4551 0,2513 2039,4552 4553,4552l39 -2 79 0 38 2c2515,0 4553,-2039 4553,-4552 0,-2512 -2038,-4551 -4553,-4551zm-2049 19626l3620 0 3143 0c-334,-741 -521,-1564 -521,-2428 0,-1917 915,-3619 2332,-4696 -1584,-1324 -3773,-1894 -5107,-1894 -572,0 -1143,52 -1656,302 -515,-250 -1085,-302 -1658,-302 -2080,0 -6242,1388 -6936,4856 -694,3468 1388,4162 1388,4162l5395 0zm11442 -5897l1388 0 0 2358 2579 0 0 414 195 0 0 1388 -195 0 -2579 0 0 2556 0 220 -1388 0 0 -220 0 -2556 -2773 0 -24 0 0 -1802 2797 0 0 -2358z"/>
 </g>
</svg>
