<?xml version="1.0" encoding="UTF-8"?>
<!DOCTYPE svg PUBLIC "-//W3C//DTD SVG 1.1//EN" "http://www.w3.org/Graphics/SVG/1.1/DTD/svg11.dtd">
<!-- Creator: CorelDRAW X6 -->
<svg xmlns="http://www.w3.org/2000/svg" xml:space="preserve" width="2.54mm" height="2.54mm" version="1.1" style="shape-rendering:geometricPrecision; text-rendering:geometricPrecision; image-rendering:optimizeQuality; fill-rule:evenodd; clip-rule:evenodd"
viewBox="0 0 254 254"
 xmlns:xlink="http://www.w3.org/1999/xlink">
 <defs>
  <style type="text/css">
   <![CDATA[
    .fil0 {fill:#2B2A29}
   ]]>
  </style>
 </defs>
 <g id="Слой_x0020_1">
  <metadata id="CorelCorpID_0Corel-Layer"/>
  <path class="fil0" d="M3 187l0 -66 0 -11 0 -54 0 0c0,0 0,-1 0,-2l0 -14c0,-5 4,-10 10,-10l67 0 0 1 12 0c0,0 9,-2 15,3 3,2 18,24 19,26l0 0 24 0 1 0 4 0 4 0 4 0 4 0 4 0 3 0 4 0 3 0 4 0 3 0 4 0 3 0 3 0 3 0 2 0 3 0 3 0 2 0 2 0 2 0 2 0 2 0 1 0 2 0 1 0 1 0 1 0 0 0 1 0 0 0 15 0c6,0 10,5 10,10l0 26c0,1 1,3 0,4l0 87c0,1 0,2 0,3l0 2c0,0 1,3 0,8l0 14c0,5 -4,10 -10,10l-15 0 0 0 -1 0 0 0 -1 0 -1 0 -1 0 -2 0 0 0 -1 0 -2 0 -2 0 -2 0 -2 0 -2 0 -3 0 -3 0 -2 0 -3 0 -3 0 -3 0 -4 0 -3 0 -4 0 -3 0 -4 0 -3 0 -4 0 -4 0 -4 0 -4 0 -4 0 -1 0 -24 0 -22 0 -1 0 -4 0 -4 0 -4 0 -4 0 -4 0 -3 0 -4 0 -3 0 -4 0 -3 0 -4 0 -3 0 -3 0 -3 0 -2 0 -3 0 -3 0 -2 0 -2 0 -2 0 -2 0 -2 0 -1 0 -2 0 -1 0 -1 0 -1 0 0 0 -1 0 0 0 -15 0c-6,0 -10,-5 -10,-10l0 -23c0,-2 -1,-3 0,-4zm124 -90l0 0c4,0 8,4 8,8l0 46 27 0 -35 42 -35 -42 27 0 0 -46c0,-4 4,-8 8,-8z"/>
 </g>
</svg>
