<?xml version="1.0" encoding="UTF-8"?>
<!DOCTYPE svg PUBLIC "-//W3C//DTD SVG 1.1//EN" "http://www.w3.org/Graphics/SVG/1.1/DTD/svg11.dtd">
<!-- Creator: CorelDRAW X6 -->
<svg xmlns="http://www.w3.org/2000/svg" xml:space="preserve" width="2.54mm" height="2.54mm" version="1.1" style="shape-rendering:geometricPrecision; text-rendering:geometricPrecision; image-rendering:optimizeQuality; fill-rule:evenodd; clip-rule:evenodd"
viewBox="0 0 254 254"
 xmlns:xlink="http://www.w3.org/1999/xlink">
 <defs>
  <style type="text/css">
   <![CDATA[
    .fil0 {fill:#2B2A29}
   ]]>
  </style>
 </defs>
 <g id="Слой_x0020_1">
  <metadata id="CorelCorpID_0Corel-Layer"/>
  <path class="fil0" d="M57 31l23 0 0 -14c0,-8 7,-14 14,-14l33 0 0 0 33 0c7,0 14,6 14,14l0 14 23 0 15 0c7,0 14,6 14,14l0 15 -99 0 0 0 -99 0 0 -15c0,-8 7,-14 14,-14l15 0zm70 68l0 0 0 0 0 0 0 0 1 0 0 0c6,0 11,5 11,11l0 98c0,6 -5,11 -11,11l0 0 -1 0 0 0 0 0 0 0 0 0 -1 0 0 0c-6,0 -11,-5 -11,-11l0 -98c0,-6 5,-11 11,-11l0 0 1 0zm0 152l64 0c10,0 19,-9 19,-19l0 -159 -83 0 0 0 -83 0 0 159c0,10 9,19 19,19l64 0 0 0zm40 -138l0 1 0 75 0 18 0 0 0 2c0,4 4,8 8,8l0 0c4,0 7,-4 7,-8l0 -1c0,-1 0,-1 0,-1l0 -93c0,-1 0,-1 0,-1l0 -3c0,-4 -3,-7 -7,-7l0 0c-4,0 -8,3 -8,7l0 3zm59 -53l0 0zm-139 53l0 1 0 75 0 18 0 0 0 2c0,4 -4,8 -8,8l0 0c-4,0 -7,-4 -7,-8l0 -1c0,-1 0,-1 0,-1l0 -93c0,-1 0,-1 0,-1l0 -3c0,-4 3,-7 7,-7l0 0c4,0 8,3 8,7l0 3zm-59 -53l0 0z"/>
 </g>
</svg>
