<?xml version="1.0" encoding="UTF-8"?>
<!DOCTYPE svg PUBLIC "-//W3C//DTD SVG 1.1//EN" "http://www.w3.org/Graphics/SVG/1.1/DTD/svg11.dtd">
<!-- Creator: CorelDRAW X6 -->
<svg xmlns="http://www.w3.org/2000/svg" xml:space="preserve" width="40px" height="30px" version="1.1" style="shape-rendering:geometricPrecision; text-rendering:geometricPrecision; image-rendering:optimizeQuality; fill-rule:evenodd; clip-rule:evenodd"
viewBox="0 0 40000 30001"
 xmlns:xlink="http://www.w3.org/1999/xlink">
 <defs>
  <style type="text/css">
   <![CDATA[
    .fil0 {fill:#B2B3B3}
   ]]>
  </style>
 </defs>
 <g id="Слой_x0020_1">
  <metadata id="CorelCorpID_0Corel-Layer"/>
  <path class="fil0" d="M29930 8127l3919 0 0 5875 5875 0 0 3917 -5875 0 0 5875 -3919 0 0 -5875 -5875 0 0 -3917 5875 0 0 -5875zm-20029 9322l2283 0 1633 0c0,0 2937,979 5875,3916 2938,2938 1959,5875 1959,5875 0,0 -1962,1960 -9794,1960 -290,0 -558,-17 -813,-49 -254,32 -525,49 -817,49 -7832,0 -9794,-1960 -9794,-1960 0,0 -977,-2937 1960,-5875 2937,-2937 5875,-3916 5875,-3916l1633 0zm1469 -16649c4054,0 7344,3289 7344,7344 0,4055 -3290,7344 -7344,7344 -4055,0 -7345,-3289 -7345,-7344 0,-4055 3290,-7344 7345,-7344z"/>
 </g>
</svg>
