<?xml version="1.0" encoding="UTF-8"?>
<!DOCTYPE svg PUBLIC "-//W3C//DTD SVG 1.1//EN" "http://www.w3.org/Graphics/SVG/1.1/DTD/svg11.dtd">
<!-- Creator: CorelDRAW X6 -->
<svg xmlns="http://www.w3.org/2000/svg" xml:space="preserve" width="42mm" height="42mm" version="1.1" style="shape-rendering:geometricPrecision; text-rendering:geometricPrecision; image-rendering:optimizeQuality; fill-rule:evenodd; clip-rule:evenodd"
viewBox="0 0 4200 4200"
 xmlns:xlink="http://www.w3.org/1999/xlink">
 <defs>
  <style type="text/css">
   <![CDATA[
    .fil0 {fill:#b3b3b3}
   ]]>
  </style>
 </defs>
 <g id="Layer_x0020_1">
  <metadata id="CorelCorpID_0Corel-Layer"/>
  <path class="fil0" d="M2084 36c1138,0 2061,922 2061,2061 0,1138 -922,2061 -2061,2061 -1138,0 -2061,-922 -2061,-2061 0,-1138 922,-2061 2061,-2061zm0 832l0 0c56,0 101,45 101,101l0 1026 1026 0c56,0 101,45 101,101l0 0c0,56 -45,101 -101,101l-1026 0 0 1026c0,56 -45,101 -101,101l0 0c-56,0 -101,-45 -101,-101l0 -1026 -1026 0c-56,0 -101,-45 -101,-101l0 0c0,-56 45,-101 101,-101l1026 0 0 -1026c0,-56 45,-101 101,-101zm0 -633c1027,0 1861,833 1861,1861 0,1027 -833,1861 -1861,1861 -1027,0 -1861,-833 -1861,-1861 0,-1027 833,-1861 1861,-1861z"/>
 </g>
</svg>
