<?xml version="1.0" encoding="UTF-8"?>
<!DOCTYPE svg PUBLIC "-//W3C//DTD SVG 1.1//EN" "http://www.w3.org/Graphics/SVG/1.1/DTD/svg11.dtd">
<!-- Creator: CorelDRAW X6 -->
<svg xmlns="http://www.w3.org/2000/svg" xml:space="preserve" width="30px" height="30px" version="1.1" style="shape-rendering:geometricPrecision; text-rendering:geometricPrecision; image-rendering:optimizeQuality; fill-rule:evenodd; clip-rule:evenodd"
viewBox="0 0 30000 30000"
 xmlns:xlink="http://www.w3.org/1999/xlink"
 enable-background="new 0 0 500 500">
 <defs>
  <style type="text/css">
   <![CDATA[
    .fil0 {fill:#AFAFAF}
   ]]>
  </style>
 </defs>
 <g id="Слой_x0020_1">
  <metadata id="CorelCorpID_0Corel-Layer"/>
  <path class="fil0" d="M7838 1993l32 0 133 2 33 0 131 6c2958,119 5805,1999 6833,4621l0 0c1029,-2622 3875,-4501 6834,-4621l131 -6 32 0 133 -2 33 0 283 7 26 0 67 3 184 11c2266,151 3943,1157 5054,2621 1048,1261 1675,2882 1675,4647l-8 349c76,2029 -428,4136 -1487,5870 -1326,-1029 -2990,-1641 -4799,-1641 -4325,0 -7834,3507 -7834,7834 0,1771 589,3407 1581,4719 -752,618 -1399,1153 -1890,1576l0 0 -29 0 -620 0c-2622,-2275 -9258,-7726 -12203,-12299 -1140,-1770 -1685,-3957 -1606,-6059l-9 -349c0,-1765 630,-3386 1675,-4647 1112,-1461 2788,-2472 5054,-2621l185 -11 68 -3 26 0 282 -7 0 0zm15047 13426c3478,0 6295,2818 6295,6294 0,3478 -2817,6296 -6295,6296 -3475,0 -6295,-2818 -6295,-6296 0,-3476 2820,-6294 6295,-6294zm-371 1992l397 0 344 0c342,0 621,280 621,621l0 2657 2657 0c343,0 622,278 622,620l0 810c0,341 -280,618 -622,618l-2657 0 0 2658c0,342 -279,621 -621,621l-398 0 -343 0c-341,0 -619,-279 -619,-621l0 -2658 -2658 0c-342,0 -622,-277 -622,-618l0 -810c0,-342 280,-620 622,-620l2658 0 0 -2657c0,-341 278,-621 619,-621z"/>
 </g>
</svg>
