<?xml version="1.0" encoding="UTF-8"?>
<!DOCTYPE svg PUBLIC "-//W3C//DTD SVG 1.1//EN" "http://www.w3.org/Graphics/SVG/1.1/DTD/svg11.dtd">
<!-- Creator: CorelDRAW X8 -->
<svg xmlns="http://www.w3.org/2000/svg" xml:space="preserve" width="2.5398mm" height="2.5398mm" version="1.1" style="shape-rendering:geometricPrecision; text-rendering:geometricPrecision; image-rendering:optimizeQuality; fill-rule:evenodd; clip-rule:evenodd"
viewBox="0 0 254 254"
 xmlns:xlink="http://www.w3.org/1999/xlink">
 <defs>
  <style type="text/css">
   <![CDATA[
    .fil0 {fill:#B2B3B3}
   ]]>
  </style>
 </defs>
 <g id="Слой_x0020_1">
  <metadata id="CorelCorpID_0Corel-Layer"/>
  <path class="fil0" d="M127 2c69,0 125,56 125,125 0,69 -56,125 -125,125 -69,0 -125,-56 -125,-125 0,-69 56,-125 125,-125zm0 169c7,0 12,6 12,12 0,7 -5,13 -12,13 -7,0 -12,-6 -12,-13 0,-6 5,-12 12,-12zm0 -118l0 0c7,0 12,5 12,12l0 6 0 1 0 67 0 0 0 6c0,7 -5,12 -12,12l0 0c-7,0 -12,-5 -12,-12l0 -6 0 0 0 -67 0 -1 0 -6c0,-7 5,-12 12,-12zm0 -27c56,0 101,45 101,101 0,56 -45,101 -101,101 -56,0 -101,-45 -101,-101 0,-56 45,-101 101,-101z"/>
 </g>
</svg>
