<?xml version="1.0" encoding="UTF-8"?>
<!DOCTYPE svg PUBLIC "-//W3C//DTD SVG 1.1//EN" "http://www.w3.org/Graphics/SVG/1.1/DTD/svg11.dtd">
<!-- Creator: CorelDRAW X6 -->
<svg xmlns="http://www.w3.org/2000/svg" xml:space="preserve" width="13px" height="12px" version="1.1" style="shape-rendering:geometricPrecision; text-rendering:geometricPrecision; image-rendering:optimizeQuality; fill-rule:evenodd; clip-rule:evenodd"
viewBox="0 0 13000 12000"
 xmlns:xlink="http://www.w3.org/1999/xlink">
 <defs>
  <style type="text/css">
   <![CDATA[
    .fil1 {fill:#FEFEFE}
    .fil0 {fill:#CC244C}
   ]]>
  </style>
 </defs>
 <g id="Слой_x0020_1">
  <metadata id="CorelCorpID_0Corel-Layer"/>
  <g id="_607006056">
   <path class="fil0" d="M6500 719c3503,0 6343,2100 6343,4691 0,781 -259,1517 -716,2165l1 0c0,0 -598,874 -598,1636 0,763 0,1610 0,1610 0,0 -64,614 -509,423 -444,-190 -2660,-1231 -3649,-1187l-2 0c-285,28 -575,44 -870,44 -3503,0 -6343,-2101 -6343,-4691 0,-2591 2840,-4691 6343,-4691z"/>
   <path class="fil1" d="M3165 3793l6584 0c48,0 86,39 86,86l0 1014c0,47 -38,86 -86,86l-6584 0 0 -1186zm0 2217l3249 0c47,0 86,39 86,86l0 1014c0,48 -39,86 -86,86l-3249 0 0 -1186z"/>
  </g>
 </g>
</svg>
