<?xml version="1.0" encoding="UTF-8"?>
<!DOCTYPE svg PUBLIC "-//W3C//DTD SVG 1.1//EN" "http://www.w3.org/Graphics/SVG/1.1/DTD/svg11.dtd">
<!-- Creator: CorelDRAW X6 -->
<svg xmlns="http://www.w3.org/2000/svg" xml:space="preserve" width="30px" height="30px" version="1.1" style="shape-rendering:geometricPrecision; text-rendering:geometricPrecision; image-rendering:optimizeQuality; fill-rule:evenodd; clip-rule:evenodd"
viewBox="0 0 30000 30000"
 xmlns:xlink="http://www.w3.org/1999/xlink">
 <defs>
  <style type="text/css">
   <![CDATA[
    .fil0 {fill:#2B2A29}
   ]]>
  </style>
 </defs>
 <g id="Слой_x0020_1">
  <metadata id="CorelCorpID_0Corel-Layer"/>
  <path class="fil0" d="M27242 19541l0 -15671 -24484 0 0 20535 4363 -4864 1601 0 891 0 17629 0zm-25149 8903l-1651 0 0 -1779 0 -22795 0 -2316 2316 0 24484 0 2316 0 0 2316 0 15671 0 2316 -2316 0 -19127 0c0,0 -6022,6587 -6022,6587zm4938 -15672l8993 0 0 2317 -8993 0 0 -2317zm0 -4451l15761 0 0 2316 -15761 0 0 -2316z"/>
 </g>
</svg>
