<?xml version="1.0" encoding="UTF-8"?>
<!DOCTYPE svg PUBLIC "-//W3C//DTD SVG 1.1//EN" "http://www.w3.org/Graphics/SVG/1.1/DTD/svg11.dtd">
<!-- Creator: CorelDRAW X6 -->
<svg xmlns="http://www.w3.org/2000/svg" xml:space="preserve" width="30px" height="30px" version="1.1" style="shape-rendering:geometricPrecision; text-rendering:geometricPrecision; image-rendering:optimizeQuality; fill-rule:evenodd; clip-rule:evenodd"
viewBox="0 0 30000 30000"
 xmlns:xlink="http://www.w3.org/1999/xlink">
 <defs>
  <style type="text/css">
   <![CDATA[
    .fil0 {fill:#C5C6C6}
   ]]>
  </style>
 </defs>
 <g id="Слой_x0020_1">
  <metadata id="CorelCorpID_0Corel-Layer"/>
  <path class="fil0" d="M5634 13351l0 0 18880 153 0 0 0 4774 0 459 -410 0 -4925 0 0 6157 -411 0 -4514 0 -8620 0 0 -11543zm15783 13246l-17425 0 0 -14837 22837 51 127 7338 36 0 0 2047 -5575 0 0 5401zm-19887 760l0 -760 0 -15658 0 -1230 0 -5337 1641 0 2314 0 0 -3283 2417 0 46 8209 2462 0 0 -4926 9179 0 0 -3231 2511 -141 -49 8298 2463 0 0 -4926 3955 0 0 3780 0 1146 0 1641 0 9645 0 1847 0 821 0 0 0 0 -4776 5748 0 0 0 0 -821 0 -1455 0 -17425 0 -821 0 -1641 0 0 -1643zm26939 -16418l0 0z"/>
 </g>
</svg>
