<?xml version="1.0" encoding="UTF-8"?>
<!DOCTYPE svg PUBLIC "-//W3C//DTD SVG 1.1//EN" "http://www.w3.org/Graphics/SVG/1.1/DTD/svg11.dtd">
<!-- Creator: CorelDRAW X6 -->
<svg xmlns="http://www.w3.org/2000/svg" xml:space="preserve" width="30px" height="30px" version="1.1" style="shape-rendering:geometricPrecision; text-rendering:geometricPrecision; image-rendering:optimizeQuality; fill-rule:evenodd; clip-rule:evenodd"
viewBox="0 0 30000 30000"
 xmlns:xlink="http://www.w3.org/1999/xlink">
 <defs>
  <style type="text/css">
   <![CDATA[
    .fil1 {fill:#898989}
    .fil0 {fill:#FEFEFE}
   ]]>
  </style>
 </defs>
 <g id="Layer_x0020_1">
  <metadata id="CorelCorpID_0Corel-Layer"/>
  <path class="fil0" d="M-2063544 56601l37546 0 0 4222 -37546 0 0 -4222zm0 16662l20884 0 0 4222 -20884 0 0 -4222zm0 -8331l37546 0 0 4222 -37546 0 0 -4222z"/>
  <path class="fil1" d="M7661 15000l6413 0 0 8163 -6413 0 0 -8163zm-61 -14666l-3229 0 0 3523c-3268,885 -3236,3833 -3236,3833l0 18700c0,0 -364,3143 3083,3270l0 4 200 0 15 0 94 0 89 0 43 0 152 0 7 0 167 0 56 0 138 0 100 0 113 0 144 0 87 0 187 0 64 0 227 0 40 0 266 0 17 0 300 0 4 0 311 0 24 0 305 0 44 0 298 0 63 0 293 0 79 0 288 0 94 0 283 0 110 0 279 0 124 0 275 0 137 0 270 0 149 0 268 0 161 0 263 0 170 0 262 0 178 0 259 0 187 0 257 0 193 0 255 0 198 0 254 0 204 0 252 0 208 0 250 0 210 0 250 0 211 0 250 0 211 0 252 0 210 0 252 0 209 0 252 0 207 0 253 0 203 0 254 0 198 0 255 0 194 0 256 0 187 0 259 0 180 0 261 0 170 0 265 0 159 0 268 0 149 0 272 0 137 0 274 0 124 0 279 0 111 0 283 0 94 0 288 0 79 0 293 0 61 0 299 0 44 0 304 0 25 0 309 0 5 0 299 0 17 0 267 0 39 0 228 0 63 0 187 0 87 0 145 0 112 0 100 0 139 0 54 0 167 0 7 0 152 0 44 0 89 0 93 0 15 0 200 0 1 -4c3445,-128 3083,-3270 3083,-3270l11 0 0 -18700c0,0 31,-2954 -3247,-3835l0 -3521 -3229 0 0 3274 -56 0 -96 0 -9 0 -99 0 -122 0 -67 0 -67 0 -145 0 -83 0 -76 0 -170 0 -54 0 -125 0 -181 0 -11 0 -202 0 -97 0 -115 0 -200 0 -21 0 -230 0 -67 0 -171 0 -150 0 -97 0 -228 0 -27 0 -263 0 -38 0 -231 0 -99 0 -177 0 -155 0 -130 0 -204 0 -85 0 -250 0 -45 0 -292 0 -9 0 -306 0 -22 0 -288 0 -48 0 -267 0 -71 0 -248 0 -89 0 -234 0 -102 0 -223 0 -111 0 -217 0 -116 0 -215 0 -116 0 -217 0 -110 0 -224 0 -102 0 -234 0 -89 0 -248 0 -71 0 -266 0 -48 0 -289 0 -21 0 -306 0 -9 0 -292 0 -45 0 -250 0 -85 0 -206 0 -129 0 -155 0 -178 0 -98 0 -231 0 -39 0 -263 0 -26 0 -229 0 -96 0 -151 0 -171 0 -67 0 -230 0 -20 0 -201 0 -113 0 -98 0 -201 0 -12 0 -180 0 -125 0 -56 0 -169 0 -77 0 -81 0 -146 0 -66 0 -69 0 -122 0 -99 0 -9 0 -94 0 -66 0 0 -3274zm-3191 11481l21193 0 0 14575 -21193 0 0 -14575zm11438 3184l6412 0 0 8163 -6412 0 0 -8163z"/>
 </g>
</svg>
