<?xml version="1.0" encoding="UTF-8"?>
<!DOCTYPE svg PUBLIC "-//W3C//DTD SVG 1.1//EN" "http://www.w3.org/Graphics/SVG/1.1/DTD/svg11.dtd">
<!-- Creator: CorelDRAW X6 -->
<svg xmlns="http://www.w3.org/2000/svg" xml:space="preserve" width="40px" height="30px" version="1.1" style="shape-rendering:geometricPrecision; text-rendering:geometricPrecision; image-rendering:optimizeQuality; fill-rule:evenodd; clip-rule:evenodd"
viewBox="0 0 40000 30001"
 xmlns:xlink="http://www.w3.org/1999/xlink">
 <defs>
  <style type="text/css">
   <![CDATA[
    .fil1 {fill:#EBECEC}
    .fil0 {fill:#D43558}
   ]]>
  </style>
 </defs>
 <g id="Слой_x0020_1">
  <metadata id="CorelCorpID_0Corel-Layer"/>
  <g id="_339327824">
   <polygon class="fil0" points="24860,20125 32756,8232 35241,9882 27345,21775 "/>
   <polygon class="fil0" points="4543,20628 12336,11594 14594,13542 6801,22577 "/>
   <polygon class="fil0" points="25382,19926 16090,12441 14220,14763 23511,22249 "/>
   <g>
    <path class="fil0" d="M5019 18062c2465,165 4330,2297 4164,4763 -165,2465 -2298,4330 -4763,4165 -2466,-165 -4330,-2299 -4165,-4764 165,-2466 2297,-4331 4764,-4164z"/>
    <path class="fil1" d="M4876 20187c1292,87 2269,1203 2181,2495 -86,1292 -1203,2268 -2495,2182 -1291,-86 -2268,-1204 -2182,-2496 87,-1291 1204,-2268 2496,-2181z"/>
   </g>
   <g>
    <path class="fil0" d="M13824 7761c2465,166 4330,2299 4165,4764 -166,2466 -2299,4330 -4765,4164 -2465,-165 -4330,-2297 -4165,-4763 166,-2465 2299,-4330 4765,-4165z"/>
    <path class="fil1" d="M13681 9887c1291,86 2268,1204 2182,2496 -87,1291 -1204,2268 -2496,2181 -1291,-87 -2268,-1203 -2182,-2495 86,-1292 1204,-2268 2496,-2182z"/>
   </g>
   <g>
    <path class="fil0" d="M26265 17185c2466,166 4330,2298 4164,4764 -165,2465 -2297,4330 -4763,4165 -2465,-166 -4330,-2299 -4165,-4764 166,-2466 2299,-4331 4764,-4165z"/>
    <path class="fil1" d="M26122 19310c1292,88 2269,1204 2182,2496 -87,1291 -1204,2268 -2495,2181 -1292,-86 -2269,-1203 -2182,-2495 86,-1291 1204,-2268 2495,-2182z"/>
   </g>
   <g>
    <path class="fil0" d="M35579 3011c2466,165 4331,2297 4166,4763 -167,2465 -2299,4330 -4765,4165 -2465,-166 -4330,-2299 -4164,-4764 165,-2466 2298,-4330 4763,-4164z"/>
    <path class="fil1" d="M35437 5136c1291,87 2268,1204 2182,2495 -88,1292 -1204,2269 -2496,2182 -1291,-86 -2268,-1204 -2181,-2495 86,-1292 1203,-2269 2495,-2182z"/>
   </g>
  </g>
 </g>
</svg>
