<?xml version="1.0" encoding="UTF-8"?>
<!DOCTYPE svg PUBLIC "-//W3C//DTD SVG 1.1//EN" "http://www.w3.org/Graphics/SVG/1.1/DTD/svg11.dtd">
<!-- Creator: CorelDRAW X6 -->
<svg xmlns="http://www.w3.org/2000/svg" xml:space="preserve" width="30px" height="30px" version="1.1" style="shape-rendering:geometricPrecision; text-rendering:geometricPrecision; image-rendering:optimizeQuality; fill-rule:evenodd; clip-rule:evenodd"
viewBox="0 0 30000 30000"
 xmlns:xlink="http://www.w3.org/1999/xlink">
 <defs>
  <style type="text/css">
   <![CDATA[
    .fil1 {fill:#B2B3B3}
    .fil0 {fill:#FEFEFE}
   ]]>
  </style>
 </defs>
 <g id="Layer_x0020_1">
  <metadata id="CorelCorpID_0Corel-Layer"/>
  <path class="fil0" d="M-2063544 56601l37546 0 0 4222 -37546 0 0 -4222zm0 16662l20884 0 0 4222 -20884 0 0 -4222zm0 -8331l37546 0 0 4222 -37546 0 0 -4222z"/>
  <path class="fil1" d="M7852 227l14296 0c4194,0 7625,3431 7625,7625l0 14296c0,4194 -3431,7625 -7625,7625l-14296 0c-4194,0 -7625,-3431 -7625,-7625l0 -14296c0,-4194 3431,-7625 7625,-7625zm8438 13483l5452 0 0 2580 -5452 0 -2580 0 0 -2580 0 -8031 2580 0 0 8031zm-7439 -11420l12298 0c3609,0 6561,2952 6561,6561l0 12298c0,3609 -2952,6561 -6561,6561l-12298 0c-3609,0 -6561,-2952 -6561,-6561l0 -12298c0,-3609 2952,-6561 6561,-6561z"/>
 </g>
</svg>
