<svg id="Livello_1" data-name="Livello 1" xmlns="http://www.w3.org/2000/svg" viewBox="0 0 6.77 6.77"><defs><style>.cls-1{fill:#b8193f;}</style></defs><title>clock-red</title><g id="Слой_1"><path class="cls-1" d="M6.47,1.92A3.3,3.3,0,0,0,5.24.69,3.26,3.26,0,0,0,3.54.23a3.24,3.24,0,0,0-1.7.46A3.3,3.3,0,0,0,.61,1.92a3.24,3.24,0,0,0-.46,1.7,3.26,3.26,0,0,0,.46,1.7A3.3,3.3,0,0,0,1.84,6.55a3.37,3.37,0,0,0,3.4,0A3.3,3.3,0,0,0,6.47,5.32a3.35,3.35,0,0,0,.45-1.7A3.33,3.33,0,0,0,6.47,1.92Zm-.86,2.9a2.37,2.37,0,0,1-.87.88,2.43,2.43,0,0,1-2.41,0,2.53,2.53,0,0,1-.87-.88,2.37,2.37,0,0,1-.32-1.2,2.4,2.4,0,0,1,.32-1.21,2.59,2.59,0,0,1,.87-.87,2.4,2.4,0,0,1,3.28.87,2.32,2.32,0,0,1,.33,1.21A2.28,2.28,0,0,1,5.61,4.82Z" transform="translate(-0.15 -0.23)"/><polygon class="cls-1" points="3.66 3.85 4.76 3.85 4.76 3.33 3.66 3.33 3.66 1.69 3.1 1.69 3.1 3.85 3.38 3.85 3.66 3.85"/></g></svg>