<?xml version="1.0" encoding="UTF-8"?>
<!DOCTYPE svg PUBLIC "-//W3C//DTD SVG 1.1//EN" "http://www.w3.org/Graphics/SVG/1.1/DTD/svg11.dtd">
<!-- Creator: CorelDRAW X6 -->
<svg xmlns="http://www.w3.org/2000/svg" xml:space="preserve" width="3.3866mm" height="3.3866mm" version="1.1" style="shape-rendering:geometricPrecision; text-rendering:geometricPrecision; image-rendering:optimizeQuality; fill-rule:evenodd; clip-rule:evenodd"
viewBox="0 0 339 339"
 xmlns:xlink="http://www.w3.org/1999/xlink">
 <defs>
  <style type="text/css">
   <![CDATA[
    .fil0 {fill:#434242}
   ]]>
  </style>
 </defs>
 <g id="Слой_x0020_1">
  <metadata id="CorelCorpID_0Corel-Layer"/>
  <path class="fil0" d="M240 135c12,0 21,9 21,21 0,12 -10,21 -21,21 -12,0 -21,-10 -21,-21 0,-12 9,-21 21,-21zm-70 -132c91,0 164,69 164,153 0,27 -7,52 -20,74l0 0c0,0 -19,31 -19,54 0,23 0,35 0,35 0,0 1,16 -15,17 -16,1 -61,-27 -104,-27l0 0c-2,0 -4,0 -6,0 -91,0 -164,-69 -164,-153 0,-85 74,-153 164,-153zm71 299c22,11 38,17 38,-2 0,-5 0,-10 1,-16l0 0c0,-1 4,-37 15,-59 1,-1 2,-3 2,-4 12,-19 18,-42 18,-66 0,-75 -65,-136 -146,-136 -80,0 -146,61 -146,136 0,75 65,136 146,136 1,0 3,0 4,0l0 0c0,0 45,1 67,11zm-141 -167c12,0 21,9 21,21 0,12 -9,21 -21,21 -12,0 -21,-10 -21,-21 0,-12 10,-21 21,-21zm70 0c12,0 21,9 21,21 0,12 -10,21 -21,21 -12,0 -21,-10 -21,-21 0,-12 9,-21 21,-21z"/>
 </g>
</svg>
