<?xml version="1.0" encoding="UTF-8"?>
<!DOCTYPE svg PUBLIC "-//W3C//DTD SVG 1.1//EN" "http://www.w3.org/Graphics/SVG/1.1/DTD/svg11.dtd">
<!-- Creator: CorelDRAW X6 -->
<svg xmlns="http://www.w3.org/2000/svg" xml:space="preserve" width="3.3866mm" height="3.3866mm" version="1.1" style="shape-rendering:geometricPrecision; text-rendering:geometricPrecision; image-rendering:optimizeQuality; fill-rule:evenodd; clip-rule:evenodd"
viewBox="0 0 339 339"
 xmlns:xlink="http://www.w3.org/1999/xlink">
 <defs>
  <style type="text/css">
   <![CDATA[
    .fil1 {fill:#C5C6C6}
    .fil0 {fill:#FEFEFE}
   ]]>
  </style>
 </defs>
 <g id="Слой_x0020_1">
  <metadata id="CorelCorpID_0Corel-Layer"/>
  <g id="_458116432">
   <path class="fil0" d="M169 206c20,0 37,15 37,32 0,18 -17,33 -37,33 -21,0 -37,-15 -37,-33 0,-17 16,-32 37,-32zm-81 24c9,0 17,8 17,17 0,10 -8,17 -17,17 -9,0 -17,-7 -17,-17 0,-9 8,-17 17,-17zm161 0c10,0 17,8 17,17 0,10 -7,17 -17,17 -9,0 -17,-7 -17,-17 0,-9 8,-17 17,-17z"/>
   <path class="fil1" d="M248 285c0,0 0,0 1,0l1 0 0 0c4,0 12,-3 17,-16 8,-18 33,-84 33,-84 2,-8 2,-16 -7,-7 -9,10 -28,34 -44,33 -11,-1 -18,-9 -22,-15 -5,-9 -1,-13 -11,0 -6,8 -16,10 -26,-2 -9,-13 -17,-38 -17,-38 -3,-5 -4,-5 -7,0 0,0 -8,25 -17,38 -10,12 -20,10 -26,2 -10,-13 -6,-9 -12,0 -3,6 -10,14 -21,15 -16,1 -34,-21 -43,-31 -8,-9 -11,-7 -8,5 0,0 25,66 33,84 6,14 14,16 18,16l0 0 0 0c0,0 1,0 1,0l157 0zm-78 -193l0 0c1,0 4,-2 6,-13 2,-15 3,-27 3,-27 0,0 1,-16 -9,-16 0,0 0,0 -1,0 0,0 0,0 0,0 -11,0 -9,16 -9,16 0,0 1,12 3,27 2,11 5,13 6,13l0 0c0,0 0,0 0,0 0,0 0,0 1,0zm128 65c-1,-1 -1,-3 6,-8 10,-7 18,-13 18,-13 0,0 11,-6 14,2 4,7 -7,12 -7,12 0,0 -9,3 -20,7 -9,3 -11,1 -11,0zm-59 22c0,0 -1,-2 3,-6 5,-6 10,-10 10,-10 0,0 5,-6 9,-2 4,4 -3,9 -3,9 0,0 -5,3 -12,7 -5,4 -6,3 -7,2zm41 -55c-1,-1 -2,-2 4,-8 6,-8 12,-13 12,-13 0,0 7,-8 11,-2 5,5 -3,11 -3,11 0,0 -7,5 -15,10 -7,4 -9,3 -9,2zm-111 18c0,0 -2,0 -3,-6 -1,-6 -2,-12 -2,-12 0,0 0,-7 5,-7 6,0 5,7 5,7 0,0 0,6 -1,12 -1,6 -3,6 -3,6 -1,0 -1,0 -1,0 0,0 0,0 0,0zm48 14c0,-1 -2,-2 1,-7 2,-8 5,-13 5,-13 0,0 3,-8 8,-5 5,3 0,9 0,9 0,0 -4,6 -8,12 -4,4 -5,4 -6,4zm-13 -50c-1,-1 -3,-2 -2,-11 1,-12 2,-21 2,-21 0,0 2,-13 10,-10 9,1 5,13 5,13 0,0 -4,9 -8,20 -3,9 -6,9 -7,9zm37 10c-2,-1 -4,-3 1,-15 6,-15 11,-27 11,-27 0,0 8,-16 18,-10 10,6 0,20 0,20 0,0 -8,11 -18,23 -8,10 -11,10 -12,9zm-200 41c0,-1 1,-3 -7,-8 -9,-7 -17,-13 -17,-13 0,0 -11,-6 -14,2 -5,7 7,12 7,12 0,0 9,3 20,7 9,3 11,1 11,0zm58 22c1,0 1,-2 -3,-6 -5,-6 -9,-10 -9,-10 0,0 -6,-6 -9,-2 -4,4 3,9 3,9 0,0 5,3 11,7 6,4 7,3 7,2zm-40 -55c0,-1 1,-2 -4,-8 -6,-8 -12,-13 -12,-13 0,0 -7,-8 -12,-2 -5,5 4,11 4,11 0,0 7,5 15,10 7,4 8,3 9,2zm63 32c0,-1 1,-2 -1,-7 -3,-8 -5,-13 -5,-13 0,0 -3,-8 -8,-5 -5,3 0,9 0,9 0,0 3,6 8,12 3,4 5,4 6,4zm13 -50c0,-1 3,-2 2,-11 -1,-12 -2,-21 -2,-21 0,0 -2,-13 -11,-10 -8,1 -4,13 -4,13 0,0 3,9 8,20 3,9 6,9 7,9zm-37 10c1,-1 4,-3 -1,-15 -6,-15 -12,-27 -12,-27 0,0 -7,-16 -17,-10 -11,6 0,20 0,20 0,0 8,11 18,23 8,10 11,10 12,9zm-3 174l149 0 6 0c6,3 6,10 0,13l-6 0 -149 0 -6 0c-6,-3 -6,-10 0,-13l6 0zm74 -72l0 0 0 0 0 0 1 0 0 0 0 0c0,-1 1,-1 2,-2l0 0c3,-2 8,-5 14,-2 8,3 16,14 11,27 -3,10 -17,24 -28,27 -10,-3 -24,-17 -28,-27 -4,-13 4,-24 12,-27 6,-3 11,0 14,2l0 0c1,1 2,1 2,2zm1 42l0 0c0,-1 1,-1 2,-1l0 0c7,-3 15,-12 17,-18 3,-10 -2,-17 -8,-20 -6,-2 -10,2 -12,3 -1,-1 -6,-5 -11,-3 -6,3 -12,10 -8,20 2,6 10,15 17,18l0 0c1,0 2,0 2,1l0 0 0 0 0 0 0 0 0 0 0 0 0 0 1 0 0 0zm-82 -20c-3,0 -5,3 -5,6 0,2 2,5 5,5 3,0 5,-3 5,-5 0,-3 -2,-6 -5,-6zm0 -6c-6,0 -12,5 -12,12 0,6 6,11 12,11 6,0 11,-5 11,-11 0,-7 -5,-12 -11,-12zm163 6c3,0 5,3 5,6 0,2 -2,5 -5,5 -3,0 -5,-3 -5,-5 0,-3 2,-6 5,-6zm0 -6c6,0 11,5 11,12 0,6 -5,11 -11,11 -7,0 -12,-5 -12,-11 0,-7 5,-12 12,-12z"/>
  </g>
 </g>
</svg>
