<?xml version="1.0" encoding="UTF-8"?>
<!DOCTYPE svg PUBLIC "-//W3C//DTD SVG 1.1//EN" "http://www.w3.org/Graphics/SVG/1.1/DTD/svg11.dtd">
<!-- Creator: CorelDRAW X6 -->
<svg xmlns="http://www.w3.org/2000/svg" xml:space="preserve" width="30px" height="30px" version="1.1" style="shape-rendering:geometricPrecision; text-rendering:geometricPrecision; image-rendering:optimizeQuality; fill-rule:evenodd; clip-rule:evenodd"
viewBox="0 0 30000 30000"
 xmlns:xlink="http://www.w3.org/1999/xlink">
 <defs>
  <style type="text/css">
   <![CDATA[
    .fil0 {fill:#f2c35e}
   ]]>
  </style>
 </defs>
 <g id="Layer_x0020_1">
  <metadata id="CorelCorpID_0Corel-Layer"/>
  <path class="fil0" d="M5954 28657l18092 0 249 0 0 -2542c0,0 -1395,-2094 -4237,-2842 -2841,-748 -3190,-1694 -3190,-3189 0,-4915 5213,-3350 9268,-5588 1795,-991 3592,-2461 3592,-4382 0,-3837 0,-5133 0,-5133 0,0 50,-1845 -1893,-1845 -1944,0 -5334,0 -5334,0l0 -1794 -5781 0 -3439 0 -5781 0 0 1794c0,0 -3390,0 -5334,0 -1943,0 -1893,1845 -1893,1845 0,0 0,1296 0,5133 0,1920 1795,3391 3591,4382 4056,2238 9268,673 9268,5588 0,1495 -348,2441 -3189,3189 -2842,748 -4237,2842 -4237,2842l0 2542 249 0zm1594 -16548l0 -3139 0 -2593c0,0 -50,-1446 -1147,-1446 -1096,0 -3139,0 -3139,0 0,0 -1046,-198 -1046,997 0,741 0,1824 0,2543 0,1740 973,3580 2940,3580 2393,0 2393,58 2393,58zm14903 0l0 -3139 0 -2593c0,0 50,-1446 1147,-1446 1096,0 3139,0 3139,0 0,0 1046,-198 1046,997 0,741 0,1824 0,2543 0,1740 -973,3580 -2940,3580 -2393,0 -2393,58 -2393,58z"/>
 </g>
</svg>
