<?xml version="1.0" encoding="UTF-8"?>
<!DOCTYPE svg PUBLIC "-//W3C//DTD SVG 1.1//EN" "http://www.w3.org/Graphics/SVG/1.1/DTD/svg11.dtd">
<!-- Creator: CorelDRAW X6 -->
<svg xmlns="http://www.w3.org/2000/svg" xml:space="preserve" width="30px" height="30px" version="1.1" style="shape-rendering:geometricPrecision; text-rendering:geometricPrecision; image-rendering:optimizeQuality; fill-rule:evenodd; clip-rule:evenodd"
viewBox="0 0 30000 30000"
 xmlns:xlink="http://www.w3.org/1999/xlink">
 <defs>
  <style type="text/css">
   <![CDATA[
    .fil0 {fill:#FEFEFE}
    .fil1 {fill:#898989;fill-rule:nonzero}
   ]]>
  </style>
 </defs>
 <g id="Layer_x0020_1">
  <metadata id="CorelCorpID_0Corel-Layer"/>
  <path class="fil0" d="M-2063544 56601l37546 0 0 4222 -37546 0 0 -4222zm0 16662l20884 0 0 4222 -20884 0 0 -4222zm0 -8331l37546 0 0 4222 -37546 0 0 -4222z"/>
  <path class="fil1" d="M26192 22612l3178 0c-992,2029 -2517,3615 -4577,4765 -2349,1317 -5223,1980 -8609,1980 -3280,0 -6107,-555 -8492,-1664 -2386,-1114 -4160,-2751 -5320,-4912 -1165,-2166 -1744,-4521 -1744,-7072 0,-2798 661,-5401 1984,-7817 1317,-2411 3128,-4221 5420,-5431 2294,-1211 4917,-1817 7867,-1817 2502,0 4729,489 6671,1460 1949,977 3438,2360 4466,4155 1026,1795 1540,3752 1540,5878 0,2537 -777,4826 -2340,6875 -1952,2583 -4459,3875 -7515,3875 -823,0 -1443,-143 -1861,-428 -416,-289 -691,-706 -834,-1260 -1169,1123 -2522,1688 -4048,1688 -1648,0 -3015,-569 -4103,-1704 -1089,-1139 -1632,-2649 -1632,-4535 0,-2335 656,-4460 1963,-6387 1591,-2343 3625,-3514 6106,-3514 1766,0 3072,677 3911,2029l372 -1663 3931 0 -2254 10669c-137,677 -208,1114 -208,1312 0,243 56,432 172,554 112,128 249,189 406,189 480,0 1094,-291 1852,-866 1012,-752 1831,-1769 2456,-3035 626,-1271 941,-2588 941,-3951 0,-2441 -885,-4486 -2649,-6128 -1770,-1643 -4235,-2467 -7404,-2467 -2689,0 -4972,549 -6844,1648 -1871,1104 -3280,2650 -4226,4649 -951,1994 -1423,4072 -1423,6234 0,2100 528,4007 1586,5732 1057,1723 2543,2979 4455,3772 1906,788 4093,1186 6559,1186 2370,0 4414,-337 6118,-1003 1709,-666 3087,-1662 4129,-2995zm-16074 -6123c0,1261 254,2192 762,2787 514,595 1144,894 1897,894 565,0 1094,-137 1587,-416 376,-198 746,-514 1113,-941 529,-605 983,-1485 1363,-2649 381,-1160 569,-2243 569,-3249 0,-1119 -259,-1983 -777,-2583 -524,-601 -1180,-901 -1969,-901 -854,0 -1642,331 -2365,992 -722,661 -1265,1602 -1631,2823 -366,1220 -549,2303 -549,3243z"/>
 </g>
</svg>
