<?xml version="1.0" encoding="UTF-8"?>
<!DOCTYPE svg PUBLIC "-//W3C//DTD SVG 1.1//EN" "http://www.w3.org/Graphics/SVG/1.1/DTD/svg11.dtd">
<!-- Creator: CorelDRAW X6 -->
<svg xmlns="http://www.w3.org/2000/svg" xml:space="preserve" width="30px" height="30px" version="1.1" style="shape-rendering:geometricPrecision; text-rendering:geometricPrecision; image-rendering:optimizeQuality; fill-rule:evenodd; clip-rule:evenodd"
viewBox="0 0 30000 30000"
 xmlns:xlink="http://www.w3.org/1999/xlink"
 enable-background="new 0 0 500 500">
 <defs>
  <style type="text/css">
   <![CDATA[
    .fil0 {fill:#2B2A29}
   ]]>
  </style>
 </defs>
 <g id="Слой_x0020_1">
  <metadata id="CorelCorpID_0Corel-Layer"/>
  <path class="fil0" d="M9524 18125l2 0 -1225 7710 6629 -4470 14 9 15 -9 6629 4470 -1225 -7710 2 0 4964 -4925 -6997 -471 -3386 -7576 -3389 7576 -6997 471 4964 4925zm5435 -17382l0 -59 4922 10333 9455 607 -7012 7133 1545 10699 -2 -2 0 2 -8923 -5748 -8922 5748 0 -2 -2 2 1545 -10699 -7012 -7133 9454 -607 4923 -10333 29 59z"/>
 </g>
</svg>
