<?xml version="1.0" encoding="UTF-8"?>
<!DOCTYPE svg PUBLIC "-//W3C//DTD SVG 1.1//EN" "http://www.w3.org/Graphics/SVG/1.1/DTD/svg11.dtd">
<!-- Creator: CorelDRAW X6 -->
<svg xmlns="http://www.w3.org/2000/svg" xml:space="preserve" width="2.7092mm" height="2.7092mm" version="1.1" style="shape-rendering:geometricPrecision; text-rendering:geometricPrecision; image-rendering:optimizeQuality; fill-rule:evenodd; clip-rule:evenodd"
viewBox="0 0 271 271"
 xmlns:xlink="http://www.w3.org/1999/xlink">
 <defs>
  <style type="text/css">
   <![CDATA[
    .fil0 {fill:#B2B3B3}
   ]]>
  </style>
 </defs>
 <g id="Слой_x0020_1">
  <metadata id="CorelCorpID_0Corel-Layer"/>
  <path class="fil0" d="M222 31l28 0c8,0 14,6 14,14l0 99 0 1 0 1 0 29c0,8 -6,14 -14,14l-74 0 -55 0 0 1 -1 0 0 16c0,2 0,4 0,6l0 2 0 11 0 0 0 5c0,6 -5,10 -10,10l0 0c-1,0 -1,0 -2,0 0,0 0,0 -1,0l0 0c-1,0 -2,0 -3,0l-87 -63c-5,-5 -9,-10 -10,-13l0 0c0,-1 0,-2 0,-3l0 0 0 0 0 -1 0 0 0 0c0,-1 0,-2 0,-3l0 0c1,-3 5,-8 10,-12l87 -63c1,0 2,0 3,0l0 0c1,0 1,0 1,0 1,0 1,0 2,0l0 0c5,0 10,4 10,10l0 5 0 0 0 11 0 2c0,2 0,4 0,6l0 16 88 0 0 -87c0,-8 6,-14 14,-14l0 0z"/>
 </g>
</svg>
