<svg xmlns="http://www.w3.org/2000/svg" width="20" height="20" class="profile-feed-post-hideContent-icon" viewBox="0 0 32 32">
    <path fill="#cf3459" fill-rule="evenodd" d="M8.1 20.9C4.63 18.82 3 16 3 16s4-7 13-7c1.3 0 2.5.15 3.6.4l-.85.85A15.1 15.1 0 0016 10c-8 0-11.8 6-11.8 6s1.51 2.4 4.64 4.16l-.73.73zm4.3 1.7c1.1.25 2.3.4 3.6.4 9 0 13-7 13-7s-1.62-2.83-5.1-4.9l-.75.75C26.3 13.6 27.8 16 27.8 16S24 22 16 22c-.98 0-1.9-.09-2.75-.25l-.85.85zm7.5-7.5a4 4 0 01-4.8 4.8l.9-.9a2.99 2.99 0 002.12-.88A2.99 2.99 0 0019 16l.9-.9zm-3-3a4 4 0 00-4.8 4.8l.9-.9c0-.77.3-1.54.88-2.12A2.99 2.99 0 0116 13l.9-.9zM24 7L7 24l1 1L25 8l-1-1z"/>
</svg>
