<?xml version="1.0" encoding="UTF-8"?>
<!DOCTYPE svg PUBLIC "-//W3C//DTD SVG 1.1//EN" "http://www.w3.org/Graphics/SVG/1.1/DTD/svg11.dtd">
<!-- Creator: CorelDRAW X6 -->
<svg xmlns="http://www.w3.org/2000/svg" xml:space="preserve" width="30px" height="30px" version="1.1" style="shape-rendering:geometricPrecision; text-rendering:geometricPrecision; image-rendering:optimizeQuality; fill-rule:evenodd; clip-rule:evenodd"
viewBox="0 0 30000 30000"
 xmlns:xlink="http://www.w3.org/1999/xlink">
 <defs>
  <style type="text/css">
   <![CDATA[
    .fil1 {fill:#B2B3B3}
    .fil0 {fill:#FEFEFE}
   ]]>
  </style>
 </defs>
 <g id="Layer_x0020_1">
  <metadata id="CorelCorpID_0Corel-Layer"/>
  <path class="fil0" d="M-2063544 56601l37546 0 0 4222 -37546 0 0 -4222zm0 16662l20884 0 0 4222 -20884 0 0 -4222zm0 -8331l37546 0 0 4222 -37546 0 0 -4222z"/>
  <path class="fil1" d="M29591 15139c-1049,1333 -6804,8153 -14678,8153 -7861,0 -13470,-6801 -14505,-8147l0 -291c1035,-1346 6644,-8147 14505,-8147 7873,0 13629,6820 14678,8153l0 279zm-14591 -3679c344,0 674,48 989,139 -614,346 -1029,1004 -1029,1759 0,1114 904,2017 2017,2017 621,0 1176,-280 1546,-722 12,115 17,229 17,346 0,1955 -1585,3540 -3540,3540 -1955,0 -3540,-1585 -3540,-3540 0,-1955 1585,-3540 3540,-3540zm0 -2383c3272,0 5923,2653 5923,5923 0,3270 -2652,5923 -5923,5923 -3272,0 -5923,-2653 -5923,-5923 0,-3270 2652,-5923 5923,-5923z"/>
 </g>
</svg>
