<?xml version="1.0" encoding="UTF-8"?>
<!DOCTYPE svg PUBLIC "-//W3C//DTD SVG 1.1//EN" "http://www.w3.org/Graphics/SVG/1.1/DTD/svg11.dtd">
<!-- Creator: CorelDRAW X6 -->
<svg xmlns="http://www.w3.org/2000/svg" xml:space="preserve" width="32px" height="32px" version="1.1" style="shape-rendering:geometricPrecision; text-rendering:geometricPrecision; image-rendering:optimizeQuality; fill-rule:evenodd; clip-rule:evenodd"
viewBox="0 0 30000 30000"
 xmlns:xlink="http://www.w3.org/1999/xlink">
 <defs>
  <style type="text/css">
   <![CDATA[
    .fil1 {fill:#2B2A29}
    .fil0 {fill:#FEFEFE}
   ]]>
  </style>
 </defs>
 <g id="Layer_x0020_1">
  <metadata id="CorelCorpID_0Corel-Layer"/>
  <path class="fil0" d="M-2063544 56601l37546 0 0 4222 -37546 0 0 -4222zm0 16662l20884 0 0 4222 -20884 0 0 -4222zm0 -8331l37546 0 0 4222 -37546 0 0 -4222z"/>
  <path class="fil1" d="M4187 272l21626 0c2154,0 3915,1761 3915,3915l0 21626c0,2154 -1761,3915 -3915,3915l-21626 0c-2154,0 -3915,-1761 -3915,-3915l0 -21626c0,-2154 1761,-3915 3915,-3915zm8996 22093l2623 0 0 -7415 2876 0 0 -2673 -2825 0 0 -2724 2774 0 0 -2825 -3430 0c0,0 -2068,-151 -2068,2170 0,2320 0,3379 0,3379l-1817 0 0 2724 1866 0 0 7364zm-8256 -21084l20145 0c2007,0 3647,1641 3647,3647l0 20145c0,2007 -1641,3647 -3647,3647l-20145 0c-2007,0 -3647,-1641 -3647,-3647l0 -20145c0,-2007 1641,-3647 3647,-3647z"/>
 </g>
</svg>
