<?xml version="1.0" encoding="UTF-8"?>
<!DOCTYPE svg PUBLIC "-//W3C//DTD SVG 1.1//EN" "http://www.w3.org/Graphics/SVG/1.1/DTD/svg11.dtd">
<!-- Creator: CorelDRAW X6 -->
<svg xmlns="http://www.w3.org/2000/svg" xml:space="preserve" width="30px" height="30px" version="1.1" style="shape-rendering:geometricPrecision; text-rendering:geometricPrecision; image-rendering:optimizeQuality; fill-rule:evenodd; clip-rule:evenodd"
viewBox="0 0 30000 30000"
 xmlns:xlink="http://www.w3.org/1999/xlink">
 <defs>
  <style type="text/css">
   <![CDATA[
    .fil1 {fill:#4c4c4c}
    .fil0 {fill:#4c4c4c}
   ]]>
  </style>
 </defs>
 <g id="Layer_x0020_1">
  <metadata id="CorelCorpID_0Corel-Layer"/>
  <path class="fil0" d="M-2063544 56601l37546 0 0 4222 -37546 0 0 -4222zm0 16662l20884 0 0 4222 -20884 0 0 -4222zm0 -8331l37546 0 0 4222 -37546 0 0 -4222z"/>
  <path class="fil1" d="M3761 241l22479 0c1936,0 3520,1584 3520,3520l0 22479c0,1936 -1584,3520 -3520,3520l-22479 0c-1936,0 -3520,-1584 -3520,-3520l0 -22479c0,-1936 1584,-3520 3520,-3520zm7499 12276l2499 0 0 -2517c-51,-2210 1922,-2448 1922,-2448l3060 0 0 2448 -2533 0 0 2517 2499 0 0 2448 -2499 0 0 7482 -2448 0 0 -7482 -2499 0 0 -2448zm-6852 -11426l21184 0c1824,0 3317,1492 3317,3317l0 21184c0,1824 -1493,3317 -3317,3317l-21184 0c-1825,0 -3317,-1493 -3317,-3317l0 -21184c0,-1825 1492,-3317 3317,-3317z"/>
 </g>
</svg>
