<svg xmlns="http://www.w3.org/2000/svg" xml:space="preserve" width="20px" height="20px" version="1.1" style="shape-rendering:geometricPrecision; text-rendering:geometricPrecision; image-rendering:optimizeQuality; fill-rule:evenodd; clip-rule:evenodd"
viewBox="0 0 30000 30000"
 xmlns:xlink="http://www.w3.org/1999/xlink">
 <g>
  <path class="fil1" d="M15000 12504c1380,0 2497,1119 2497,2497 0,1380 -1117,2497 -2497,2497 -1380,0 -2497,-1117 -2497,-2497 0,-1378 1117,-2497 2497,-2497zm-1880 6759c0,0 -3121,1872 -2497,5618 623,3747 4327,2460 4037,2166 -141,-140 78,-1670 341,-3215 265,1545 481,3075 342,3215 -291,294 3412,1581 4035,-2166 625,-3746 -2497,-5618 -2497,-5618l-1880 940 -1881 -940zm0 -8526c0,0 -3121,-1872 -2497,-5618 623,-3747 4327,-2460 4037,-2166 -141,140 78,1670 341,3215 265,-1545 481,-3075 342,-3215 -291,-294 3412,-1581 4035,2166 625,3746 -2497,5618 -2497,5618l-1880 -940 -1881 940zm-2383 2383c0,0 -1872,-3121 -5618,-2497 -3747,623 -2460,4327 -2166,4037 140,-141 1670,78 3215,341 -1545,265 -3075,481 -3215,342 -294,-291 -1581,3412 2166,4035 3746,625 5618,-2497 5618,-2497l-940 -1880 940 -1881zm8526 0c0,0 1872,-3121 5618,-2497 3747,623 2460,4327 2166,4037 -140,-141 -1670,78 -3215,341 1545,265 3075,481 3215,342 294,-291 1581,3412 -2166,4035 -3746,625 -5618,-2497 -5618,-2497l940 -1880 -940 -1881z" fill="#FFE56D"/>
 </g>
</svg>
