<?xml version="1.0" encoding="UTF-8"?>
<!DOCTYPE svg PUBLIC "-//W3C//DTD SVG 1.1//EN" "http://www.w3.org/Graphics/SVG/1.1/DTD/svg11.dtd">
<!-- Creator: CorelDRAW X6 -->
<svg xmlns="http://www.w3.org/2000/svg" xml:space="preserve" width="30px" height="30px" version="1.1" style="shape-rendering:geometricPrecision; text-rendering:geometricPrecision; image-rendering:optimizeQuality; fill-rule:evenodd; clip-rule:evenodd"
viewBox="0 0 30000 30000"
 xmlns:xlink="http://www.w3.org/1999/xlink">
 <defs>
  <style type="text/css">
   <![CDATA[
    .fil0 {fill:#56698F}
    .fil1 {fill:#FFE56D}
   ]]>
  </style>
 </defs>
 <g id="Слой_x0020_1">
  <metadata id="CorelCorpID_0Corel-Layer"/>
  <path class="fil0" d="M15000 500c381,0 752,50 1110,150 368,-43 742,-37 1119,22 2792,435 4620,3591 4084,7048 -70,444 -175,870 -312,1278 408,-137 835,-240 1279,-310 3459,-537 6613,1290 7048,4083 59,377 65,751 22,1119 100,358 150,729 150,1110 0,381 -50,752 -150,1110 43,368 37,742 -22,1119 -435,2792 -3591,4620 -7048,4084 -444,-70 -870,-175 -1278,-312 137,408 240,835 310,1279 537,3459 -1290,6613 -4083,7048 -377,59 -751,65 -1119,22 -358,100 -729,150 -1110,150 -381,0 -752,-50 -1110,-150 -368,43 -742,37 -1119,-22 -2792,-435 -4620,-3591 -4084,-7048 70,-444 175,-870 312,-1278 -408,137 -835,240 -1279,310 -3459,537 -6613,-1290 -7048,-4083 -59,-377 -65,-751 -22,-1119 -100,-358 -150,-729 -150,-1110 0,-381 50,-752 150,-1110 -43,-368 -37,-742 22,-1119 435,-2792 3591,-4620 7048,-4084 444,70 870,175 1278,312 -137,-408 -240,-835 -310,-1279 -537,-3459 1290,-6613 4083,-7048 377,-59 751,-65 1119,-22 358,-100 729,-150 1110,-150z"/>
  <path class="fil1" d="M15000 12504c1380,0 2497,1119 2497,2497 0,1380 -1117,2497 -2497,2497 -1380,0 -2497,-1117 -2497,-2497 0,-1378 1117,-2497 2497,-2497zm-1880 6759c0,0 -3121,1872 -2497,5618 623,3747 4327,2460 4037,2166 -141,-140 78,-1670 341,-3215 265,1545 481,3075 342,3215 -291,294 3412,1581 4035,-2166 625,-3746 -2497,-5618 -2497,-5618l-1880 940 -1881 -940zm0 -8526c0,0 -3121,-1872 -2497,-5618 623,-3747 4327,-2460 4037,-2166 -141,140 78,1670 341,3215 265,-1545 481,-3075 342,-3215 -291,-294 3412,-1581 4035,2166 625,3746 -2497,5618 -2497,5618l-1880 -940 -1881 940zm-2383 2383c0,0 -1872,-3121 -5618,-2497 -3747,623 -2460,4327 -2166,4037 140,-141 1670,78 3215,341 -1545,265 -3075,481 -3215,342 -294,-291 -1581,3412 2166,4035 3746,625 5618,-2497 5618,-2497l-940 -1880 940 -1881zm8526 0c0,0 1872,-3121 5618,-2497 3747,623 2460,4327 2166,4037 -140,-141 -1670,78 -3215,341 1545,265 3075,481 3215,342 294,-291 1581,3412 -2166,4035 -3746,625 -5618,-2497 -5618,-2497l940 -1880 -940 -1881z"/>
 </g>
</svg>
