<svg xmlns="http://www.w3.org/2000/svg" width="24" height="24" viewBox="0 0 30000 30000" shape-rendering="geometricPrecision" text-rendering="geometricPrecision" image-rendering="optimizeQuality" fill-rule="evenodd" clip-rule="evenodd"><script xmlns="" id="tinyhippos-injected"/><path d="M4187 272h21626c2154 0 3915 1761 3915 3915v21626c0 2154-1761 3915-3915 3915H4187c-2154 0-3915-1761-3915-3915V4187c0-2154 1761-3915 3915-3915zm8996 22093h2623v-7415h2876v-2673h-2825V9553h2774V6728h-3430s-2068-151-2068 2170v3379h-1817v2724h1866v7364zM4927 1281h20145c2007 0 3647 1641 3647 3647v20145c0 2007-1641 3647-3647 3647H4927c-2007 0-3647-1641-3647-3647V4928c0-2007 1641-3647 3647-3647z" fill="#6c6c6c"/></svg>