<?xml version="1.0" encoding="UTF-8"?>
<!DOCTYPE svg PUBLIC "-//W3C//DTD SVG 1.1//EN" "http://www.w3.org/Graphics/SVG/1.1/DTD/svg11.dtd">
<!-- Creator: CorelDRAW X6 -->
<svg xmlns="http://www.w3.org/2000/svg" xml:space="preserve" width="43.3492mm" height="43.3492mm" version="1.1" style="shape-rendering:geometricPrecision; text-rendering:geometricPrecision; image-rendering:optimizeQuality; fill-rule:evenodd; clip-rule:evenodd"
viewBox="0 0 4335 4335"
 xmlns:xlink="http://www.w3.org/1999/xlink">
 <defs>
  <style type="text/css">
   <![CDATA[
    .fil0 {fill:#1E96C8}
    .fil1 {fill:#239DD1}
    .fil2 {fill:#3DACDB}
   ]]>
  </style>
 </defs>
 <g id="Layer_x0020_1">
  <metadata id="CorelCorpID_0Corel-Layer"/>
  <g id="_397588032">
   <path class="fil0" d="M251 2034c-109,-36 -188,-139 -188,-260 0,-119 76,-221 183,-258l0 0c1077,-379 2177,-732 3229,-1165 32,-13 67,-21 104,-21 151,0 274,123 274,274 0,32 -5,62 -15,91l0 0 -1161 3304 -1 3 0 0c-37,107 -139,183 -258,183 -108,0 -201,-63 -246,-154l0 0 -664 -1356 -1256 -641 0 0z"/>
   <path class="fil1" d="M251 2034c-109,-36 -188,-139 -188,-260 0,-119 76,-221 183,-258l0 0c1077,-379 2177,-732 3229,-1165 32,-13 67,-21 104,-21 151,0 274,123 274,274 0,32 -5,62 -15,91l0 0 -1161 3304 -1 3 0 0c-37,107 -139,183 -258,183 -108,0 -201,-63 -246,-154l0 0 -664 -1356 -1256 -641 0 0z"/>
   <path class="fil2" d="M251 2034c-109,-36 -188,-139 -188,-260 0,-119 76,-221 183,-258l0 0c1077,-379 2177,-732 3229,-1165 32,-13 67,-21 104,-21 77,0 146,32 196,83l-2310 2241 -1214 -620 0 0z"/>
  </g>
 </g>
</svg>
