<?xml version="1.0" encoding="UTF-8"?>
<!DOCTYPE svg PUBLIC "-//W3C//DTD SVG 1.1//EN" "http://www.w3.org/Graphics/SVG/1.1/DTD/svg11.dtd">
<!-- Creator: CorelDRAW X6 -->
<svg xmlns="http://www.w3.org/2000/svg" xml:space="preserve" width="40px" height="40px" version="1.1" style="shape-rendering:geometricPrecision; text-rendering:geometricPrecision; image-rendering:optimizeQuality; fill-rule:evenodd; clip-rule:evenodd"
viewBox="0 0 40000 40000"
 xmlns:xlink="http://www.w3.org/1999/xlink">
 <defs>
  <style type="text/css">
   <![CDATA[
    .fil3 {fill:#898989}
    .fil2 {fill:#9D9E9E}
    .fil0 {fill:#FEFEFE}
    .fil1 {fill:#EFEFEF}
   ]]>
  </style>
 </defs>
 <g id="Слой_x0020_1">
  <metadata id="CorelCorpID_0Corel-Layer"/>
  <g id="_436120368">
   <path class="fil0" d="M20000 497c10771,0 19503,8732 19503,19503 0,10771 -8732,19503 -19503,19503 -10771,0 -19503,-8732 -19503,-19503 0,-10771 8732,-19503 19503,-19503z"/>
   <path class="fil1" d="M20000 2198c9832,0 17802,7970 17802,17802 0,9832 -7970,17802 -17802,17802 -9832,0 -17802,-7970 -17802,-17802 0,-9832 7970,-17802 17802,-17802z"/>
   <path class="fil2" d="M20000 477c10784,0 19523,8739 19523,19523 0,10784 -8739,19523 -19523,19523 -10784,0 -19523,-8739 -19523,-19523 0,-10784 8739,-19523 19523,-19523zm0 718c10387,0 18805,8418 18805,18805 0,10387 -8418,18805 -18805,18805 -10387,0 -18805,-8418 -18805,-18805 0,-10387 8418,-18805 18805,-18805z"/>
   <polygon class="fil3" points="11775,24761 20001,17205 28225,24761 29655,23333 20008,14276 20008,14262 20001,14269 19992,14262 19992,14276 10345,23333 "/>
  </g>
 </g>
</svg>
