<?xml version="1.0" encoding="UTF-8"?>
<!DOCTYPE svg PUBLIC "-//W3C//DTD SVG 1.1//EN" "http://www.w3.org/Graphics/SVG/1.1/DTD/svg11.dtd">
<!-- Creator: CorelDRAW X6 -->
<svg xmlns="http://www.w3.org/2000/svg" xml:space="preserve" width="30px" height="30px" version="1.1" style="shape-rendering:geometricPrecision; text-rendering:geometricPrecision; image-rendering:optimizeQuality; fill-rule:evenodd; clip-rule:evenodd"
viewBox="0 0 30000 30000"
 xmlns:xlink="http://www.w3.org/1999/xlink">
 <defs>
  <style type="text/css">
   <![CDATA[
    .fil1 {fill:#9D9E9E}
    .fil0 {fill:#FEFEFE}
   ]]>
  </style>
 </defs>
 <g id="Layer_x0020_1">
  <metadata id="CorelCorpID_0Corel-Layer"/>
  <path class="fil0" d="M-2063544 56601l37546 0 0 4222 -37546 0 0 -4222zm0 16662l20884 0 0 4222 -20884 0 0 -4222zm0 -8331l37546 0 0 4222 -37546 0 0 -4222z"/>
  <path class="fil1" d="M4760 29812l20480 0 0 -11023 -10209 -9457 -31 30 -31 -30 -10209 9457 0 11023zm23298 -11211l-13058 -11995 -13058 11995 -1691 0 0 -4572 14718 -13782 0 -59 32 30 32 -30 0 59 14718 13782 0 4572 -1691 0z"/>
 </g>
</svg>
