<?xml version="1.0" encoding="UTF-8"?>
<!DOCTYPE svg PUBLIC "-//W3C//DTD SVG 1.1//EN" "http://www.w3.org/Graphics/SVG/1.1/DTD/svg11.dtd">
<!-- Creator: CorelDRAW X6 -->
<svg xmlns="http://www.w3.org/2000/svg" xml:space="preserve" width="2.54mm" height="2.54mm" version="1.1" style="shape-rendering:geometricPrecision; text-rendering:geometricPrecision; image-rendering:optimizeQuality; fill-rule:evenodd; clip-rule:evenodd"
viewBox="0 0 254 254"
 xmlns:xlink="http://www.w3.org/1999/xlink">
 <defs>
  <style type="text/css">
   <![CDATA[
    .fil0 {fill:#CC244C}
   ]]>
  </style>
 </defs>
 <g id="Слой_x0020_1">
  <metadata id="CorelCorpID_0Corel-Layer"/>
  <path class="fil0" d="M166 118c11,-20 18,-28 12,-55l2 0 1 0 0 0 0 0c3,4 6,8 9,12 7,12 18,33 22,63 7,49 -27,107 -86,108 -32,0 -54,-16 -67,-33 -21,-26 -23,-58 -6,-87 13,-22 32,-28 44,-53 9,-21 9,-45 2,-64l0 0c34,-6 81,43 67,109zm-46 8c0,25 -9,31 -15,37 -10,9 -11,23 -4,35 5,8 14,14 25,14 7,0 14,-3 19,-7 12,-11 14,-31 9,-46 -6,-21 -27,-30 -34,-33z"/>
 </g>
</svg>
