<?xml version="1.0" encoding="UTF-8"?>
<!DOCTYPE svg PUBLIC "-//W3C//DTD SVG 1.1//EN" "http://www.w3.org/Graphics/SVG/1.1/DTD/svg11.dtd">
<!-- Creator: CorelDRAW X8 -->
<svg xmlns="http://www.w3.org/2000/svg" xml:space="preserve" width="2.5398mm" height="2.5398mm" version="1.1" style="shape-rendering:geometricPrecision; text-rendering:geometricPrecision; image-rendering:optimizeQuality; fill-rule:evenodd; clip-rule:evenodd"
viewBox="0 0 254 254"
 xmlns:xlink="http://www.w3.org/1999/xlink">
 <defs>
  <style type="text/css">
   <![CDATA[
    .fil0 {fill:#B9193D}
   ]]>
  </style>
 </defs>
 <g id="Слой_x0020_1">
  <metadata id="CorelCorpID_0Corel-Layer"/>
  <path class="fil0" d="M94 140l8 8 0 0c6,5 14,5 19,0l0 0c5,-5 5,-13 0,-18 -10,-10 -17,-17 -17,-30 -1,-9 3,-17 10,-24l8 -8 20 -20 8 -8c14,-14 37,-14 51,0l13 13c14,14 14,37 0,51l-8 8 -3 3 0 0 -3 2 -9 10c-5,4 -5,12 0,16l0 0c5,5 12,5 17,0l9 -9 3 -3 14 -14c21,-21 21,-56 0,-77l-20 -20c-21,-21 -56,-21 -77,0l-43 43c-21,21 -21,56 0,77zm66 -26l-8 -8 0 0c-6,-5 -14,-5 -19,0l0 0c-5,5 -5,13 0,18 10,10 17,17 17,30 1,9 -3,17 -10,24l-8 8 -20 20 -8 8c-14,14 -37,14 -51,0l-13 -13c-14,-14 -14,-37 0,-51l8 -8 3 -3 0 0 3 -2 9 -10c5,-4 5,-12 0,-16l0 0c-5,-5 -12,-5 -17,0l-9 9 -3 3 -14 14c-21,21 -21,56 0,77l20 20c21,21 56,21 77,0l43 -43c21,-21 21,-56 0,-77z"/>
 </g>
</svg>
