<?xml version="1.0" encoding="UTF-8"?>
<!DOCTYPE svg PUBLIC "-//W3C//DTD SVG 1.1//EN" "http://www.w3.org/Graphics/SVG/1.1/DTD/svg11.dtd">
<!-- Creator: CorelDRAW X6 -->
<svg xmlns="http://www.w3.org/2000/svg" xml:space="preserve" width="30px" height="30px" version="1.1" style="shape-rendering:geometricPrecision; text-rendering:geometricPrecision; image-rendering:optimizeQuality; fill-rule:evenodd; clip-rule:evenodd"
viewBox="0 0 30000 30000"
 xmlns:xlink="http://www.w3.org/1999/xlink">
 <defs>
  <style type="text/css">
   <![CDATA[
    .fil0 {fill:#B2B3B3}
   ]]>
  </style>
 </defs>
 <g id="Слой_x0020_1">
  <metadata id="CorelCorpID_0Corel-Layer"/>
  <path class="fil0" d="M6974 3915l19001 0c0,0 999,-1 999,1000 0,1000 0,17000 0,17000 0,0 2001,-500 2001,-2000 0,-1500 0,-15000 0,-15000 0,0 0,-3000 -3000,-3000 -3000,0 -17001,0 -17001,0 0,0 -1500,0 -2000,2000zm0 8000l0 10000 12000 0 -12000 -10000zm-1948 12169l15948 0 0 -169 0 -13831 0 -169 -15948 0 0 169 0 13831 0 169zm19948 -169l0 169c0,0 2,4000 -4999,4000l-950 0 -6 0 -14 0 -3 0 -29 0 -39 0 -51 0 -60 0 -69 0 -2 0 -80 0 -91 0 -83 0 -17 0 -109 0 -118 0 -13 0 -113 0 -136 0 -12 0 -131 0 -131 0 -20 0 -160 0 -85 0 -81 0 -174 0 -12 0 -169 0 -99 0 -88 0 -181 0 -13 0 -200 0 -59 0 -146 0 -125 0 -87 0 -185 0 -32 0 -222 0 -19 0 -208 0 -65 0 -168 0 -105 0 -131 0 -140 0 -100 0 -172 0 -72 0 -198 0 -50 0 -220 0 -30 0 -238 0 -18 0 -249 0 -8 0 -256 0 -4 0 -259 0 -3 0 -256 0 -9 0 -249 0 -18 0 -237 0 -31 0 -219 0 -50 0 -198 0 -72 0 -173 0 -99 0 -141 0 -131 0 -105 0 -168 0 -65 0 -207 0 -19 0 -222 0 -32 0 -186 0 -86 0 -125 0 -147 0 -59 0 -199 0 -13 0 -181 0 -89 0 -99 0 -169 0 -11 0 -174 0 -82 0 -85 0 -159 0 -20 0 -131 0 -131 0 -12 0 -136 0 -113 0 -13 0 -118 0 -109 0 -18 0 -82 0 -91 0 -81 0 -1 0 -70 0 -60 0 -51 0 -39 0 -28 0 -4 0 -14 0 -6 0 -949 0c-5001,0 -5000,-4000 -5000,-4000l0 -169 0 -13831 0 -169c0,0 -1,-4000 5000,-4000l949 0 6 0 14 0 4 0 28 0 39 0 51 0 60 0 70 0 1 0 81 0 91 0 82 0 18 0 109 0 118 0 13 0 113 0 136 0 12 0 131 0 131 0 20 0 159 0 85 0 82 0 174 0 11 0 169 0 99 0 89 0 181 0 13 0 199 0 59 0 147 0 125 0 86 0 186 0 32 0 222 0 19 0 207 0 65 0 168 0 105 0 131 0 141 0 99 0 173 0 72 0 198 0 50 0 219 0 31 0 237 0 18 0 249 0 9 0 256 0 3 0 259 0 4 0 256 0 8 0 249 0 18 0 238 0 30 0 220 0 50 0 198 0 72 0 172 0 100 0 140 0 131 0 105 0 168 0 65 0 208 0 19 0 222 0 32 0 185 0 87 0 125 0 146 0 59 0 200 0 13 0 181 0 88 0 99 0 169 0 12 0 174 0 81 0 85 0 160 0 20 0 131 0 131 0 12 0 136 0 113 0 13 0 118 0 109 0 17 0 83 0 91 0 80 0 2 0 69 0 60 0 51 0 39 0 29 0 3 0 14 0 6 0 950 0c5001,0 4999,4000 4999,4000l0 169 0 13831z"/>
 </g>
</svg>
