<?xml version="1.0" encoding="UTF-8"?>
<!DOCTYPE svg PUBLIC "-//W3C//DTD SVG 1.1//EN" "http://www.w3.org/Graphics/SVG/1.1/DTD/svg11.dtd">
<!-- Creator: CorelDRAW X6 -->
<svg xmlns="http://www.w3.org/2000/svg" xml:space="preserve" width="48px" height="48px" version="1.1" style="shape-rendering:geometricPrecision; text-rendering:geometricPrecision; image-rendering:optimizeQuality; fill-rule:evenodd; clip-rule:evenodd"
viewBox="0 0 48000 48000"
 xmlns:xlink="http://www.w3.org/1999/xlink">
 <defs>
  <style type="text/css">
   <![CDATA[
    .fil0 {fill:#356396}
    .fil1 {fill:#FEFEFE;fill-rule:nonzero}
   ]]>
  </style>
 </defs>
 <g id="Слой_x0020_1">
  <metadata id="CorelCorpID_0Corel-Layer"/>
  <g id="vkontakte.svg">
   <g id="Layer_x0020_1">
    <g id="_680639056">
     <path class="fil0" d="M8209 500l31582 0c4238,0 7709,3471 7709,7709l0 31582c0,4238 -3471,7709 -7709,7709l-31582 0c-4238,0 -7709,-3471 -7709,-7709l0 -31582c0,-4238 3471,-7709 7709,-7709z"/>
     <path class="fil1" d="M32563 28140c0,1062 -196,1992 -602,2803 -405,799 -942,1468 -1621,1993 -810,624 -1697,1084 -2650,1347 -963,274 -2190,405 -3679,405l-8575 0 0 -21398 7567 0c1577,0 2771,55 3571,186 810,121 1576,372 2289,756 766,416 1335,964 1718,1654 384,690 569,1489 569,2387 0,1040 -262,1971 -787,2781 -515,811 -1249,1413 -2169,1797l0 120c1325,285 2376,844 3164,1698 800,853 1194,2014 1194,3471l11 0zm-6888 -8805c0,-339 -88,-701 -262,-1062 -175,-362 -449,-625 -833,-789 -350,-154 -767,-241 -1259,-252 -482,-10 -1205,-22 -2169,-22l-372 0 0 4534 679 0c921,0 1555,-11 1928,-33 372,-21 744,-120 1139,-307 427,-196 722,-470 887,-832 164,-350 241,-766 241,-1237l21 0zm1358 8716c0,-667 -131,-1171 -405,-1554 -274,-372 -669,-658 -1205,-843 -328,-132 -777,-198 -1346,-208 -570,-12 -1336,-23 -2300,-23l-986 0 0 5355 285 0c1402,0 2365,-10 2902,-33 537,-21 1084,-141 1642,-382 482,-209 844,-515 1074,-931 229,-406 339,-866 339,-1381l0 0z"/>
    </g>
   </g>
  </g>
 </g>
</svg>
