<?xml version="1.0" encoding="UTF-8"?>
<!DOCTYPE svg PUBLIC "-//W3C//DTD SVG 1.1//EN" "http://www.w3.org/Graphics/SVG/1.1/DTD/svg11.dtd">
<!-- Creator: CorelDRAW X6 -->
<svg xmlns="http://www.w3.org/2000/svg" xml:space="preserve" width="48px" height="48px" version="1.1" style="shape-rendering:geometricPrecision; text-rendering:geometricPrecision; image-rendering:optimizeQuality; fill-rule:evenodd; clip-rule:evenodd"
viewBox="0 0 48000 48000"
 xmlns:xlink="http://www.w3.org/1999/xlink"
 enable-background="new 0 0 512 512">
 <defs>
  <style type="text/css">
   <![CDATA[
    .fil1 {fill:#FEFEFE}
    .fil0 {fill:#D42450}
   ]]>
  </style>
 </defs>
 <g id="Слой_x0020_1">
  <metadata id="CorelCorpID_0Corel-Layer"/>
  <path class="fil0" d="M8209 500l31582 0c4238,0 7709,3471 7709,7709l0 31582c0,4238 -3471,7709 -7709,7709l-31582 0c-4238,0 -7709,-3471 -7709,-7709l0 -31582c0,-4238 3471,-7709 7709,-7709z"/>
  <path class="fil1" d="M24050 14603c3114,-3371 9252,-3599 12304,91 2863,3461 2039,10330 -2256,14719 -2668,2726 -5247,4394 -7155,5378 -1651,851 -2257,1252 -2943,1204 -687,48 -1293,-353 -2944,-1204 -1908,-984 -4487,-2652 -7154,-5378 -4340,-4435 -5136,-11400 -2168,-14824 3150,-3634 9227,-3220 12216,14l35 -36 0 -32 15 16 14 -16 0 32 36 36zm10043 6484c36,2041 -632,4306 -2415,6127 -2038,2083 -4009,3356 -5467,4109 -2301,1187 -1945,1227 -4155,134 -1479,-729 -3569,-2030 -5734,-4243 -1833,-1873 -2508,-4210 -2443,-6291 184,-5866 5612,-7310 9564,-3818 -1378,1556 -2097,3457 -2005,4960 212,3500 5143,3499 5354,-2 91,-1502 -627,-3402 -2002,-4958 4049,-3573 9201,-1853 9303,3982zm-20507 -4802c-2342,2919 -1637,8624 1940,12280 2237,2285 4399,3683 5998,4508 1379,711 1888,1047 2461,1010l0 -1 15 0 14 0 0 1c573,37 1083,-299 2462,-1010 1599,-825 3761,-2223 5997,-4508 3455,-3530 4231,-8973 2170,-11971 -2356,-3427 -7682,-2767 -10527,-173 -2755,-2515 -8028,-3253 -10530,-136zm8897 5852c-125,-732 22,-1699 683,-2952 284,-538 606,-1000 950,-1399 343,398 665,860 948,1396 672,1272 813,2253 677,2988 -432,2350 -2861,2298 -3258,-33z"/>
 </g>
</svg>
