<?xml version="1.0" encoding="UTF-8"?>
<!DOCTYPE svg PUBLIC "-//W3C//DTD SVG 1.1//EN" "http://www.w3.org/Graphics/SVG/1.1/DTD/svg11.dtd">
<!-- Creator: CorelDRAW X6 -->
<svg xmlns="http://www.w3.org/2000/svg" xml:space="preserve" width="30px" height="30px" version="1.1" style="shape-rendering:geometricPrecision; text-rendering:geometricPrecision; image-rendering:optimizeQuality; fill-rule:evenodd; clip-rule:evenodd"
viewBox="0 0 30000 30000"
 xmlns:xlink="http://www.w3.org/1999/xlink">
 <defs>
  <style type="text/css">
   <![CDATA[
    .fil0 {fill:#B2B3B3}
   ]]>
  </style>
 </defs>
 <g id="Слой_x0020_1">
  <metadata id="CorelCorpID_0Corel-Layer"/>
  <path class="fil0" d="M12657 1813l1615 0 1457 0 1615 0 3357 0 2326 0 197 0 5947 0c0,6265 1055,12309 -8904,13381l-2 -1c-739,726 -1666,1307 -2832,1579l0 3334 4497 0 0 2080 -1290 0 0 3781 1171 0 0 2219 -4378 0 -89 0 -1615 0 -1457 0 -1615 0 -89 0 -4378 0 0 -2219 1171 0 0 -3781 -1289 0 0 -2080 4496 0 0 -3334c-1166,-272 -2093,-853 -2832,-1579l-1 1c-9961,-1070 -8905,-7115 -8905,-13381l5947 0 197 0 2326 0 3357 0zm10370 2008c-62,2643 -129,5876 -858,8579l0 0c0,0 4875,-779 4875,-4679 0,-3900 0,-3900 0,-3900l-4017 0zm-16053 0c63,2643 130,5876 859,8579l0 0c0,0 -4876,-779 -4876,-4679 0,-3900 0,-3900 0,-3900l4017 0z"/>
 </g>
</svg>
