<?xml version="1.0" encoding="UTF-8"?>
<!DOCTYPE svg PUBLIC "-//W3C//DTD SVG 1.1//EN" "http://www.w3.org/Graphics/SVG/1.1/DTD/svg11.dtd">
<!-- Creator: CorelDRAW X6 -->
<svg xmlns="http://www.w3.org/2000/svg" xml:space="preserve" width="48px" height="48px" version="1.1" style="shape-rendering:geometricPrecision; text-rendering:geometricPrecision; image-rendering:optimizeQuality; fill-rule:evenodd; clip-rule:evenodd"
viewBox="0 0 48000 48000"
 xmlns:xlink="http://www.w3.org/1999/xlink"
 enable-background="new 0 0 512 512">
 <defs>
  <style type="text/css">
   <![CDATA[
    .fil0 {fill:#3688C8}
    .fil1 {fill:#FAA832}
   ]]>
  </style>
 </defs>
 <g id="Слой_x0020_1">
  <metadata id="CorelCorpID_0Corel-Layer"/>
  <path class="fil0" d="M8209 500l31582 0c4238,0 7709,3471 7709,7709l0 31582c0,4238 -3471,7709 -7709,7709l-31582 0c-4238,0 -7709,-3471 -7709,-7709l0 -31582c0,-4238 3471,-7709 7709,-7709z"/>
  <g id="Logo">
   <g id="yellow">
    <path class="fil1" d="M23529 16398c2071,0 4018,915 5448,2348l0 6c0,-688 463,-1207 1107,-1207l162 -1c1006,0 1211,952 1211,1253l6 10700c-72,700 722,1060 1163,613 1718,-1766 3773,-9077 -1068,-13314 -4512,-3948 -10566,-3297 -13786,-1078 -3423,2360 -5613,7584 -3485,12491 2318,5353 8955,6949 12900,5358 1997,-807 2919,1893 845,2776 -3134,1335 -11858,1201 -15933,-5859 -2753,-4767 -2606,-13154 4695,-17499 5587,-3324 12951,-2404 17393,2235 4642,4848 4371,13928 -157,17460 -2052,1603 -5099,41 -5079,-2296l-21 -764c-1429,1418 -3330,2245 -5401,2245 -4092,0 -7693,-3601 -7693,-7691 0,-4134 3601,-7776 7693,-7776l0 0 0 0 0 0zm5151 7479c-155,-2996 -2379,-4799 -5065,-4799l-102 0c-3099,0 -4817,2438 -4817,5207 0,3100 2080,5058 4806,5058 3040,0 5039,-2227 5183,-4861l-5 -605z"/>
   </g>
  </g>
 </g>
</svg>
