<?xml version="1.0" encoding="UTF-8"?>
<!DOCTYPE svg PUBLIC "-//W3C//DTD SVG 1.1//EN" "http://www.w3.org/Graphics/SVG/1.1/DTD/svg11.dtd">
<!-- Creator: CorelDRAW X6 -->
<svg xmlns="http://www.w3.org/2000/svg" xml:space="preserve" width="30px" height="30px" version="1.1" style="shape-rendering:geometricPrecision; text-rendering:geometricPrecision; image-rendering:optimizeQuality; fill-rule:evenodd; clip-rule:evenodd"
viewBox="0 0 30000 30000"
 xmlns:xlink="http://www.w3.org/1999/xlink">
 <defs>
  <style type="text/css">
   <![CDATA[
    .fil0 {fill:#B2B3B3}
   ]]>
  </style>
 </defs>
 <g id="Слой_x0020_1">
  <metadata id="CorelCorpID_0Corel-Layer"/>
  <path class="fil0" d="M15001 1c2192,0 3970,2423 3971,5412 2114,-2113 5084,-2570 6634,-1018 1552,1551 1095,4520 -1018,6634 2990,1 5412,1779 5412,3972 0,2192 -2422,3970 -5412,3971 2113,2114 2570,5084 1018,6634 -1550,1552 -4520,1095 -6634,-1018 -1,2990 -1779,5412 -3971,5412 -2193,0 -3971,-2422 -3972,-5412 -2114,2113 -5083,2570 -6634,1018 -1552,-1550 -1095,-4520 1018,-6634 -2989,-1 -5412,-1779 -5412,-3971 0,-2193 2423,-3971 5412,-3972 -2113,-2114 -2570,-5083 -1018,-6634 1551,-1552 4520,-1095 6634,1018 1,-2989 1779,-5412 3972,-5412zm0 10406c2536,0 4595,2057 4595,4594 0,2536 -2059,4595 -4595,4595 -2537,0 -4594,-2059 -4594,-4595 0,-2537 2057,-4594 4594,-4594zm0 -1904c3588,0 6497,2910 6497,6498 0,3588 -2909,6497 -6497,6497 -3588,0 -6498,-2909 -6498,-6497 0,-3588 2910,-6498 6498,-6498z"/>
 </g>
</svg>
