<?xml version="1.0" encoding="UTF-8"?>
<!DOCTYPE svg PUBLIC "-//W3C//DTD SVG 1.1//EN" "http://www.w3.org/Graphics/SVG/1.1/DTD/svg11.dtd">
<!-- Creator: CorelDRAW X6 -->
<svg xmlns="http://www.w3.org/2000/svg" xml:space="preserve" width="48px" height="48px" version="1.1" style="shape-rendering:geometricPrecision; text-rendering:geometricPrecision; image-rendering:optimizeQuality; fill-rule:evenodd; clip-rule:evenodd"
viewBox="0 0 48000 48000"
 xmlns:xlink="http://www.w3.org/1999/xlink"
 enable-background="new 0 0 32 32">
 <defs>
  <style type="text/css">
   <![CDATA[
    .fil0 {fill:#3B5998}
    .fil1 {fill:white}
   ]]>
  </style>
 </defs>
 <g id="Слой_x0020_1">
  <metadata id="CorelCorpID_0Corel-Layer"/>
  <path class="fil0" d="M8209 500l31582 0c4238,0 7709,3471 7709,7709l0 31582c0,4238 -3471,7709 -7709,7709l-31582 0c-4238,0 -7709,-3471 -7709,-7709l0 -31582c0,-4238 3471,-7709 7709,-7709z"/>
  <path id="f" class="fil1" d="M30309 46970l0 -16653 5552 0 1387 -6939 -6939 0 0 -2776c0,-2776 1392,-4163 4165,-4163l2774 0 0 -6939c-1387,0 -3108,0 -5550,0 -5100,0 -8326,3999 -8326,9714l0 4164 -5553 0 0 6939 5553 0 0 16653 6937 0z"/>
 </g>
</svg>
