<?xml version="1.0" encoding="UTF-8"?>
<!DOCTYPE svg PUBLIC "-//W3C//DTD SVG 1.1//EN" "http://www.w3.org/Graphics/SVG/1.1/DTD/svg11.dtd">
<!-- Creator: CorelDRAW X6 -->
<svg xmlns="http://www.w3.org/2000/svg" xml:space="preserve" width="30px" height="30px" version="1.1" style="shape-rendering:geometricPrecision; text-rendering:geometricPrecision; image-rendering:optimizeQuality; fill-rule:evenodd; clip-rule:evenodd"
viewBox="0 0 30000 30000"
 xmlns:xlink="http://www.w3.org/1999/xlink">
 <defs>
  <style type="text/css">
   <![CDATA[
    .fil0 {fill:#B2B3B3}
   ]]>
  </style>
 </defs>
 <g id="Слой_x0020_1">
  <metadata id="CorelCorpID_0Corel-Layer"/>
  <path class="fil0" d="M8001 21997c-19,-142 -574,-4664 0,-4664m15699 -15701l11 -10m-8711 -622l-9334 0 -4666 0 0 4666 0 18667 0 4667 4666 0 18667 0 4667 0 0 -4667 0 -9333 -4667 0 0 9333 -18667 0 0 -18667 9334 0 0 -4666zm8533 9958l-10802 10418 -648 623 -4082 0 0 -2 0 -4664 15666 -15665 33 -36 13 -9 -2 -1 623 -622 4666 4667 -437 437 -146 146c-1739,1739 -3368,3306 -4884,4708z"/>
 </g>
</svg>
