<?xml version="1.0" encoding="UTF-8"?>
<!DOCTYPE svg PUBLIC "-//W3C//DTD SVG 1.1//EN" "http://www.w3.org/Graphics/SVG/1.1/DTD/svg11.dtd">
<!-- Creator: CorelDRAW X6 -->
<svg xmlns="http://www.w3.org/2000/svg" xml:space="preserve" width="30px" height="30px" version="1.1" style="shape-rendering:geometricPrecision; text-rendering:geometricPrecision; image-rendering:optimizeQuality; fill-rule:evenodd; clip-rule:evenodd"
viewBox="0 0 30000 30000"
 xmlns:xlink="http://www.w3.org/1999/xlink">
 <defs>
  <style type="text/css">
   <![CDATA[
    .fil0 {fill:#B2B3B3}
   ]]>
  </style>
 </defs>
 <g id="Слой_x0020_1">
  <metadata id="CorelCorpID_0Corel-Layer"/>
  <path class="fil0" d="M6405 501l17189 0c3248,0 5905,2657 5905,5905l0 10190c0,3248 -2657,5905 -5905,5905l-95 0 0 6999 -8499 -6999 -8595 0c-3248,0 -5905,-2657 -5905,-5905l0 -10190c0,-3248 2657,-5905 5905,-5905zm365 8227c1533,0 2773,1241 2773,2774 0,1529 -1240,2770 -2773,2770 -1529,0 -2771,-1241 -2771,-2770 0,-1533 1242,-2774 2771,-2774zm8197 0c1532,0 2773,1241 2773,2774 0,1529 -1241,2770 -2773,2770 -1531,0 -2772,-1241 -2772,-2770 0,-1533 1241,-2774 2772,-2774zm8262 0c1529,0 2771,1241 2771,2774 0,1529 -1242,2770 -2771,2770 -1533,0 -2773,-1241 -2773,-2770 0,-1533 1240,-2774 2773,-2774z"/>
 </g>
</svg>
