<?xml version="1.0" encoding="UTF-8"?>
<!DOCTYPE svg PUBLIC "-//W3C//DTD SVG 1.1//EN" "http://www.w3.org/Graphics/SVG/1.1/DTD/svg11.dtd">
<!-- Creator: CorelDRAW X6 -->
<svg xmlns="http://www.w3.org/2000/svg" xml:space="preserve" width="30px" height="30px" version="1.1" style="shape-rendering:geometricPrecision; text-rendering:geometricPrecision; image-rendering:optimizeQuality; fill-rule:evenodd; clip-rule:evenodd"
viewBox="0 0 30000 30000"
 xmlns:xlink="http://www.w3.org/1999/xlink">
 <defs>
  <style type="text/css">
   <![CDATA[
    .fil0 {fill:#B2B3B3}
   ]]>
  </style>
 </defs>
 <g id="Слой_x0020_1">
  <metadata id="CorelCorpID_0Corel-Layer"/>
  <path class="fil0" d="M13361 6566l0 1 10 122c58,386 415,1555 2609,1555l2152 0c1998,0 3632,1635 3632,3632l0 1785c33,96 51,217 51,367 0,2628 1677,2620 1677,2620l7 4c461,30 973,-3 1485,-160l0 0c458,-313 1011,-496 1609,-496l0 0 1 -2 0 0c1578,0 2857,1280 2857,2858 0,1578 -1279,2858 -2857,2858l0 0 -1 -1 0 0c-598,0 -1151,-183 -1609,-496l0 0c-478,-148 -959,-186 -1396,-166l-96 78c0,0 -1677,-8 -1677,2620 0,150 -18,270 -51,367l0 1716c0,1998 -1634,3632 -3632,3632l-2152 0 -9648 0 -2152 0c-1997,0 -3632,-1634 -3632,-3632l0 -2152 0 -2633c359,4 739,53 1120,170l0 0c458,313 1012,496 1608,496l0 0 2 1 0 0c1578,0 2857,-1280 2857,-2858 0,-1578 -1279,-2858 -2857,-2858l0 0 -2 2 0 0c-596,0 -1150,183 -1608,496l0 0c-381,117 -761,165 -1120,170l0 -4786c0,-1997 1635,-3632 3632,-3632l2083 0c2628,0 2620,-1678 2620,-1678l74 -90c28,-457 -7,-963 -161,-1467l0 0c-313,-458 -496,-1012 -496,-1609l0 -1 -2 0 0 0c0,-1579 1281,-2858 2859,-2858 1578,0 2857,1279 2857,2858l0 0 -1 0 0 1c0,597 -183,1151 -496,1609l0 0c-166,537 -193,1077 -156,1557z"/>
 </g>
</svg>
