<?xml version="1.0" encoding="UTF-8"?>
<!DOCTYPE svg PUBLIC "-//W3C//DTD SVG 1.1//EN" "http://www.w3.org/Graphics/SVG/1.1/DTD/svg11.dtd">
<!-- Creator: CorelDRAW X6 -->
<svg xmlns="http://www.w3.org/2000/svg" xml:space="preserve" width="30px" height="30px" version="1.1" style="shape-rendering:geometricPrecision; text-rendering:geometricPrecision; image-rendering:optimizeQuality; fill-rule:evenodd; clip-rule:evenodd"
viewBox="0 0 30000 30000"
 xmlns:xlink="http://www.w3.org/1999/xlink">
 <defs>
  <style type="text/css">
   <![CDATA[
    .fil0 {fill:#B2B3B3}
   ]]>
  </style>
 </defs>
 <g id="Слой_x0020_1">
  <metadata id="CorelCorpID_0Corel-Layer"/>
  <path class="fil0" d="M8235 2861l-5278 0 0 1583 0 1583 0 20056 0 3167 3167 0 17753 0 3167 0 0 -3167 0 -20056 0 -1583 0 -1583 -5277 0 1 3166 2109 0 0 20056 -17753 0 0 -20056 2109 0 2 -3166zm1056 5806l11420 0 0 3166 -11420 0 0 -3166zm0 10307l7197 0 0 3167 -7197 0 0 -3167zm0 -5030l11420 0 0 3167 -11420 0 0 -3167zm3166 -13194l5087 0 0 2111 3167 0 0 3166 -11420 0 0 -3166 3166 0 0 -2111z"/>
 </g>
</svg>
