<?xml version="1.0" encoding="UTF-8"?>
<!DOCTYPE svg PUBLIC "-//W3C//DTD SVG 1.1//EN" "http://www.w3.org/Graphics/SVG/1.1/DTD/svg11.dtd">
<!-- Creator: CorelDRAW X6 -->
<svg xmlns="http://www.w3.org/2000/svg" xml:space="preserve" width="30px" height="30px" version="1.1" style="shape-rendering:geometricPrecision; text-rendering:geometricPrecision; image-rendering:optimizeQuality; fill-rule:evenodd; clip-rule:evenodd"
viewBox="0 0 30000 30000"
 xmlns:xlink="http://www.w3.org/1999/xlink">
 <defs>
  <style type="text/css">
   <![CDATA[
    .fil0 {fill:#B2B3B3}
   ]]>
  </style>
 </defs>
 <g id="Слой_x0020_1">
  <metadata id="CorelCorpID_0Corel-Layer"/>
  <path class="fil0" d="M14228 28750l3 0 11 0 17 0 25 0 32 0 38 0 44 0 7 0 43 0 57 0 17 0 45 0 67 0 1 0 73 0 33 0 46 0 58 0 27 0 72 0 17 0 78 0 17 0 72 0 27 0 58 0 46 0 33 0 73 0 1 0 67 0 45 0 17 0 57 0 43 0 7 0 44 0 38 0 32 0 25 0 17 0 11 0 3 0 6455 0 0 -1 3 0c2997,-1 3497,-2999 3497,-2999l0 -1922 0 -80 0 -47 0 -130 0 -33 0 -100 0 -109 0 -27 0 -139 0 -41 0 -102 0 -103 0 -44 0 -149 0 -10 0 -142 0 -60 0 -95 0 -106 0 -52 0 -146 0 -15 0 -163 0 -18 0 -148 0 -47 0 -122 0 -71 0 -100 0 -90 0 -84 0 -104 0 -73 0 -113 0 -65 0 -119 0 -63 0 -118 0 -65 0 -114 0 -73 0 -104 0 -84 0 -90 0 -100 0 -71 0 -121 0 -48 0 -147 0 -19 0 -163 0 -14 0 -147 0 -52 0 -106 0 -95 0 -60 0 -142 0 -10 0 -149 0 -44 0 -102 0 -103 0 -40 0 -140 0 -27 0 -109 0 -100 0 -33 0 -130 0 -47 0 -79 0 -1923c0,0 -483,-2890 -3338,-2995l2 -4 0 -5001c0,0 498,-6501 -7002,-6501l-390 4 -389 -4c-7500,0 -7003,6501 -7003,6501l0 5001 3 4c-2854,106 -3337,2995 -3337,2995l0 1923 0 79 0 47 0 130 0 33 0 100 0 109 0 27 0 140 0 40 0 103 0 102 0 44 0 149 0 10 0 142 0 60 0 95 0 106 0 52 0 147 0 14 0 163 0 19 0 147 0 48 0 121 0 71 0 100 0 90 0 84 0 104 0 73 0 114 0 65 0 118 0 63 0 119 0 65 0 113 0 73 0 104 0 84 0 90 0 100 0 71 0 122 0 47 0 148 0 18 0 163 0 15 0 146 0 52 0 106 0 95 0 60 0 142 0 10 0 149 0 44 0 103 0 102 0 41 0 139 0 27 0 109 0 100 0 33 0 130 0 47 0 80 0 1922c0,0 500,2998 3497,2999l3 0 0 1 6455 0zm771 -12083c931,0 1685,754 1685,1685 0,637 -355,1193 -877,1479l942 3836 -1685 0 -129 0 -1685 0 942 -3836c-522,-286 -877,-842 -877,-1479 0,-931 754,-1685 1684,-1685zm4390 -3918l-3617 0 -3 0 -11 0 -17 0 -25 0 -32 0 -38 0 -44 0 -7 0 -43 0 -57 0 -17 0 -45 0 -67 0 -1 0 -73 0 -33 0 -46 0 -58 0 -27 0 -72 0 -17 0 -78 0 -17 0 -72 0 -27 0 -58 0 -46 0 -33 0 -73 0 -1 0 -67 0 -45 0 -17 0 -57 0 -43 0 -7 0 -44 0 -38 0 -32 0 -25 0 -17 0 -11 0 -3 0 -3618 0 0 -5000c0,-4999 4000,-4000 4000,-4000l389 -137 390 137c0,0 4000,-999 4000,4000l0 5000z"/>
 </g>
</svg>
