<?xml version="1.0" encoding="UTF-8"?>
<!DOCTYPE svg PUBLIC "-//W3C//DTD SVG 1.1//EN" "http://www.w3.org/Graphics/SVG/1.1/DTD/svg11.dtd">
<!-- Creator: CorelDRAW X6 -->
<svg xmlns="http://www.w3.org/2000/svg" xml:space="preserve" width="32px" height="32px" version="1.1" style="shape-rendering:geometricPrecision; text-rendering:geometricPrecision; image-rendering:optimizeQuality; fill-rule:evenodd; clip-rule:evenodd"
viewBox="0 0 30000 30000"
 xmlns:xlink="http://www.w3.org/1999/xlink">
 <defs>
  <style type="text/css">
   <![CDATA[
    .fil1 {fill:#2B2A29}
    .fil0 {fill:#FEFEFE}
   ]]>
  </style>
 </defs>
 <g id="Layer_x0020_1">
  <metadata id="CorelCorpID_0Corel-Layer"/>
  <path class="fil0" d="M-2063544 56601l37546 0 0 4222 -37546 0 0 -4222zm0 16662l20884 0 0 4222 -20884 0 0 -4222zm0 -8331l37546 0 0 4222 -37546 0 0 -4222z"/>
  <path class="fil1" d="M4187 272l21626 0c2154,0 3915,1761 3915,3915l0 21626c0,2154 -1761,3915 -3915,3915l-21626 0c-2154,0 -3915,-1761 -3915,-3915l0 -21626c0,-2154 1761,-3915 3915,-3915zm17858 9855c-190,-488 -443,-901 -856,-1316 -415,-413 -828,-666 -1316,-856 -471,-183 -1018,-309 -1805,-344 -794,-35 -1045,-46 -3069,-46 -2023,0 -2275,5 -3069,46 -793,34 -1333,161 -1805,344 -488,190 -901,443 -1316,856 -413,415 -666,828 -856,1316 -183,471 -309,1018 -344,1805 -35,794 -46,1045 -46,3069 0,2023 5,2275 46,3069 34,793 161,1333 344,1805 190,488 443,901 856,1316 415,413 828,666 1316,856 471,183 1018,309 1805,344 794,35 1045,46 3069,46 2023,0 2275,-5 3069,-46 793,-34 1333,-161 1805,-344 488,-190 901,-443 1316,-856 413,-415 666,-828 856,-1316 183,-471 309,-1018 344,-1805 35,-794 46,-1045 46,-3069 0,-2023 -5,-2275 -46,-3069 -34,-793 -161,-1333 -344,-1805zm-994 7878c-34,724 -155,1121 -259,1380 -132,345 -299,598 -557,856 -259,259 -506,419 -856,557 -265,103 -654,224 -1378,259 -788,34 -1017,46 -3006,46 -1988,0 -2224,-6 -3005,-46 -724,-34 -1121,-156 -1380,-259 -345,-132 -598,-299 -856,-557 -259,-259 -419,-506 -557,-856 -103,-265 -224,-656 -259,-1380 -34,-787 -45,-1022 -45,-3005 0,-1983 5,-2224 45,-3005 34,-724 156,-1121 259,-1380 132,-345 299,-598 557,-856 259,-259 506,-419 856,-557 265,-103 656,-224 1380,-259 787,-34 1023,-46 3005,-46 1983,0 2224,6 3006,46 724,34 1120,156 1378,259 345,132 598,299 856,557 259,259 419,506 557,856 104,265 224,656 259,1380 34,787 46,1022 46,3005 0,1983 -12,2224 -46,3005zm-6057 -6826c-2108,0 -3821,1713 -3821,3821 0,2108 1713,3821 3821,3821 2109,0 3821,-1713 3821,-3821 0,-2108 -1711,-3821 -3821,-3821zm0 6304c-1368,0 -2483,-1109 -2483,-2483 0,-1368 1109,-2483 2483,-2483 1374,0 2483,1109 2483,2483 0,1368 -1115,2483 -2483,2483zm4861 -6454c0,-491 -399,-891 -891,-891 -493,0 -891,399 -891,891 0,493 398,891 891,891 491,0 891,-398 891,-891zm-14928 -9749l20145 0c2007,0 3647,1641 3647,3647l0 20145c0,2007 -1641,3647 -3647,3647l-20145 0c-2007,0 -3647,-1641 -3647,-3647l0 -20145c0,-2007 1641,-3647 3647,-3647z"/>
 </g>
</svg>
