<?xml version="1.0" encoding="UTF-8"?>
<!DOCTYPE svg PUBLIC "-//W3C//DTD SVG 1.1//EN" "http://www.w3.org/Graphics/SVG/1.1/DTD/svg11.dtd">
<!-- Creator: CorelDRAW X6 -->
<svg xmlns="http://www.w3.org/2000/svg" xml:space="preserve" width="30px" height="30px" version="1.1" style="shape-rendering:geometricPrecision; text-rendering:geometricPrecision; image-rendering:optimizeQuality; fill-rule:evenodd; clip-rule:evenodd"
viewBox="0 0 30000 30000"
 xmlns:xlink="http://www.w3.org/1999/xlink">
 <defs>
  <style type="text/css">
   <![CDATA[
    .fil0 {fill:#6d6d6d}
   ]]>
  </style>
 </defs>
 <g id="Layer_x0020_1">
  <metadata id="CorelCorpID_0Corel-Layer"/>
  <path class="fil0" d="M6587 256c2743,0 5076,1741 5960,4176l4906 0c883,-2435 3217,-4176 5960,-4176 3500,0 6338,2837 6338,6338 0,2741 -1741,5076 -4178,5960l0 4892c2437,883 4178,3219 4178,5960 0,3501 -2838,6338 -6338,6338 -3501,0 -6339,-2837 -6339,-6338 0,-2741 1741,-5076 4178,-5960l0 -4892c-1762,-639 -3159,-2037 -3800,-3800l-4905 0c-643,1772 -2052,3176 -3827,3810l0 4871c2451,876 4206,3219 4206,5970 0,3501 -2838,6338 -6339,6338 -3500,0 -6338,-2837 -6338,-6338 0,-2731 1727,-5059 4149,-5949l0 -4913c-2422,-891 -4149,-3219 -4149,-5949 0,-3501 2838,-6338 6338,-6338zm16826 3630c1495,0 2708,1213 2708,2708 0,1495 -1213,2708 -2708,2708 -1496,0 -2708,-1213 -2708,-2708 0,-1495 1212,-2708 2708,-2708zm0 16812c1495,0 2708,1213 2708,2708 0,1495 -1213,2708 -2708,2708 -1496,0 -2708,-1213 -2708,-2708 0,-1495 1212,-2708 2708,-2708zm-16826 0c1496,0 2708,1213 2708,2708 0,1495 -1212,2708 -2708,2708 -1495,0 -2708,-1213 -2708,-2708 0,-1495 1213,-2708 2708,-2708z"/>
 </g>
</svg>
