<svg id="svg" version="1.1" xmlns="http://www.w3.org/2000/svg" xmlns:xlink="http://www.w3.org/1999/xlink" width="400" height="400" viewBox="0, 0, 400,400"><g id="svgg"><path id="path0" d="M55.386 16.499 C 55.283 16.775,55.153 39.680,55.099 67.400 C 55.016 109.689,54.912 117.781,54.455 117.685 C 54.155 117.622,53.675 117.892,53.387 118.285 C 53.100 118.678,52.670 119.022,52.432 119.050 C 52.195 119.078,51.730 119.123,51.400 119.150 C 51.070 119.178,50.845 119.425,50.900 119.700 C 50.955 119.975,50.640 120.200,50.200 120.200 C 49.760 120.200,49.181 120.380,48.914 120.600 C 48.647 120.820,48.193 121.194,47.905 121.430 C 47.618 121.667,47.117 121.778,46.791 121.676 C 46.466 121.574,46.332 121.632,46.494 121.806 C 46.806 122.141,45.060 123.200,44.197 123.200 C 43.916 123.200,43.578 123.481,43.446 123.825 C 43.314 124.169,43.024 124.339,42.803 124.202 C 42.581 124.065,42.400 124.143,42.400 124.376 C 42.400 124.609,42.130 124.800,41.800 124.800 C 41.470 124.800,41.200 124.980,41.200 125.200 C 41.200 125.420,40.942 125.600,40.627 125.600 C 40.034 125.600,36.206 127.816,35.271 128.700 C 34.981 128.975,34.385 129.200,33.948 129.200 C 33.449 129.200,33.259 129.372,33.438 129.662 C 33.607 129.935,33.549 130.016,33.296 129.859 C 33.060 129.714,32.276 130.091,31.552 130.697 C 30.828 131.304,30.397 131.530,30.595 131.200 C 30.994 130.533,30.401 130.912,28.435 132.581 C 27.905 133.031,27.617 133.149,27.795 132.842 C 28.253 132.053,25.620 133.613,25.088 134.446 C 24.855 134.811,24.354 135.008,23.937 134.900 C 23.532 134.793,23.200 134.908,23.200 135.153 C 23.200 135.399,22.924 135.600,22.587 135.600 C 22.251 135.600,21.876 135.859,21.754 136.175 C 21.633 136.491,21.279 136.652,20.967 136.532 C 20.655 136.412,20.400 136.514,20.400 136.757 C 20.400 137.001,20.029 137.200,19.576 137.200 C 19.123 137.200,18.864 137.380,19.000 137.600 C 19.136 137.820,18.986 138.000,18.666 138.000 C 18.347 138.000,17.983 138.267,17.858 138.593 C 17.728 138.931,17.365 139.085,17.015 138.950 C 16.677 138.821,16.400 138.914,16.400 139.157 C 16.400 139.401,16.164 139.600,15.875 139.600 C 15.587 139.600,14.964 139.960,14.492 140.400 C 14.020 140.840,13.356 141.200,13.017 141.200 C 12.678 141.200,12.400 141.380,12.400 141.600 C 12.400 141.820,12.119 142.000,11.776 142.000 C 11.433 142.000,11.245 142.150,11.359 142.333 C 11.558 142.655,11.026 142.793,9.455 142.827 C 9.045 142.836,8.811 142.945,8.936 143.069 C 9.332 143.465,8.090 144.402,7.055 144.487 C 6.507 144.533,6.132 144.691,6.224 144.838 C 6.315 144.986,5.854 145.329,5.200 145.600 C 4.546 145.871,4.085 146.215,4.177 146.363 C 4.269 146.512,3.955 146.663,3.478 146.699 C 3.002 146.735,2.549 146.952,2.473 147.182 C 2.396 147.412,2.068 147.600,1.743 147.600 C 1.418 147.600,1.258 147.771,1.387 147.979 C 1.516 148.188,1.257 148.288,0.811 148.202 L -0.000 148.046 -0.000 270.223 L 0.000 392.400 200.000 392.400 L 400.000 392.400 400.000 270.387 L 400.000 148.374 399.100 148.012 C 398.605 147.813,398.369 147.639,398.576 147.625 C 399.170 147.585,397.470 146.427,396.796 146.413 C 396.464 146.406,395.968 146.040,395.693 145.600 C 395.418 145.160,394.844 144.800,394.417 144.800 C 393.990 144.800,393.137 144.353,392.521 143.806 C 390.623 142.123,390.448 142.000,389.963 142.000 C 389.705 142.000,389.046 141.505,388.500 140.900 C 387.953 140.295,387.628 140.025,387.777 140.300 C 388.267 141.207,387.327 140.820,386.561 139.800 C 386.148 139.250,385.506 138.800,385.134 138.800 C 384.762 138.800,384.104 138.350,383.671 137.800 C 383.239 137.250,382.590 136.800,382.230 136.800 C 381.870 136.800,381.472 136.531,381.346 136.202 C 381.219 135.874,380.969 135.695,380.790 135.806 C 380.611 135.917,380.101 135.547,379.658 134.983 C 379.215 134.420,378.751 133.968,378.626 133.979 C 377.619 134.071,377.191 133.939,377.400 133.600 C 377.536 133.380,377.389 133.200,377.073 133.200 C 376.757 133.200,376.270 132.926,375.992 132.590 C 375.714 132.255,375.401 132.065,375.298 132.169 C 375.195 132.272,374.545 131.827,373.855 131.180 C 373.165 130.533,372.452 130.003,372.271 130.002 C 372.091 130.001,371.671 129.728,371.339 129.396 C 371.007 129.064,370.589 128.883,370.410 128.994 C 370.230 129.105,369.981 128.926,369.854 128.598 C 369.728 128.269,369.371 128.000,369.062 128.000 C 368.752 128.000,368.276 127.732,368.004 127.404 C 367.732 127.077,367.345 126.911,367.144 127.035 C 366.942 127.159,366.261 126.707,365.628 126.030 C 364.996 125.354,364.211 124.800,363.882 124.800 C 363.554 124.800,363.178 124.519,363.046 124.175 C 362.914 123.831,362.637 123.654,362.430 123.781 C 362.224 123.909,361.940 123.827,361.800 123.600 C 361.503 123.119,355.667 119.131,355.496 119.292 C 355.433 119.351,354.947 118.995,354.415 118.500 C 353.884 118.005,353.292 117.600,353.101 117.600 C 352.909 117.600,352.863 117.422,352.997 117.205 C 353.137 116.978,352.977 116.911,352.621 117.047 C 352.279 117.178,352.000 117.120,352.000 116.917 C 352.000 116.714,351.360 116.243,350.579 115.870 C 349.797 115.498,349.254 115.036,349.372 114.845 C 349.490 114.654,349.095 114.398,348.494 114.277 C 347.892 114.156,346.816 113.533,346.102 112.894 L 344.803 111.732 344.702 63.966 L 344.600 16.200 200.088 16.099 C 84.687 16.019,55.537 16.100,55.386 16.499 M310.701 110.500 C 310.789 162.845,310.726 170.800,310.225 170.800 C 309.907 170.800,309.537 170.978,309.403 171.195 C 309.257 171.431,309.449 171.486,309.879 171.332 C 310.276 171.189,310.481 171.205,310.337 171.366 C 310.192 171.528,309.832 171.708,309.537 171.767 C 307.689 172.137,306.449 172.641,305.362 173.463 C 304.681 173.979,303.916 174.400,303.662 174.400 C 303.408 174.400,303.200 174.570,303.200 174.777 C 303.200 174.984,302.835 175.084,302.389 174.998 C 301.943 174.912,301.668 174.986,301.776 175.162 C 301.885 175.337,301.286 175.687,300.444 175.939 C 299.603 176.191,298.298 176.816,297.544 177.328 C 296.791 177.839,295.955 178.185,295.687 178.096 C 295.419 178.006,295.200 178.106,295.200 178.318 C 295.200 178.724,292.813 179.858,292.300 179.695 C 292.135 179.643,292.000 179.810,292.000 180.067 C 292.000 180.323,291.880 180.413,291.732 180.266 C 291.585 180.119,291.116 180.314,290.690 180.699 C 290.265 181.085,289.800 181.400,289.658 181.400 C 289.516 181.400,289.443 181.529,289.495 181.686 C 289.548 181.843,289.341 181.875,289.036 181.758 C 288.731 181.641,288.362 181.738,288.217 181.973 C 288.072 182.208,287.603 182.400,287.176 182.400 C 286.749 182.400,286.400 182.568,286.400 182.774 C 286.400 182.980,285.770 183.376,285.000 183.654 C 284.230 183.933,283.600 184.315,283.600 184.504 C 283.600 184.693,283.420 184.736,283.200 184.600 C 282.980 184.464,282.800 184.554,282.800 184.800 C 282.800 185.046,282.620 185.136,282.400 185.000 C 282.180 184.864,282.000 184.905,282.000 185.091 C 282.000 185.277,281.640 185.463,281.200 185.505 C 279.506 185.666,279.207 185.740,279.414 185.947 C 279.532 186.065,278.677 186.641,277.514 187.227 C 276.351 187.812,275.436 188.469,275.480 188.686 C 275.524 188.904,275.164 189.007,274.680 188.915 C 274.190 188.822,273.439 189.070,272.984 189.474 C 272.536 189.873,271.907 190.259,271.588 190.332 C 271.269 190.405,270.916 190.585,270.804 190.732 C 270.359 191.316,268.703 192.081,269.030 191.551 C 269.203 191.271,268.789 191.438,268.110 191.921 C 267.432 192.405,266.589 192.800,266.238 192.800 C 265.887 192.800,265.600 192.980,265.600 193.200 C 265.600 193.420,265.317 193.600,264.971 193.600 C 264.626 193.600,264.073 193.870,263.743 194.199 C 263.414 194.529,262.662 194.919,262.072 195.066 C 261.482 195.214,260.141 195.862,259.092 196.507 C 258.042 197.151,256.932 197.583,256.625 197.465 C 256.317 197.347,255.967 197.509,255.846 197.825 C 255.724 198.141,255.339 198.400,254.989 198.400 C 254.639 198.400,254.463 198.578,254.597 198.795 C 254.739 199.025,254.573 199.088,254.202 198.945 C 253.820 198.799,253.332 199.003,252.994 199.450 C 252.681 199.862,252.420 200.037,252.413 199.838 C 252.406 199.639,252.047 199.796,251.615 200.187 C 251.182 200.578,250.544 200.787,250.194 200.653 C 249.826 200.512,249.661 200.576,249.803 200.805 C 249.937 201.022,249.677 201.200,249.224 201.200 C 248.771 201.200,248.400 201.380,248.400 201.600 C 248.400 201.820,248.034 202.000,247.587 202.000 C 247.141 202.000,246.676 202.259,246.554 202.576 C 246.433 202.892,245.808 203.266,245.167 203.407 C 244.525 203.548,244.000 203.829,244.000 204.032 C 244.000 204.234,243.640 204.400,243.200 204.400 C 242.760 204.400,242.400 204.541,242.400 204.712 C 242.400 204.884,241.815 205.269,241.100 205.567 C 240.385 205.865,239.710 206.154,239.600 206.209 C 239.490 206.263,238.995 206.439,238.500 206.600 C 238.005 206.762,237.600 207.052,237.600 207.247 C 237.600 207.441,237.251 207.600,236.824 207.600 C 236.397 207.600,235.936 207.780,235.800 208.000 C 235.664 208.220,235.225 208.400,234.825 208.400 C 234.425 208.400,233.797 208.805,233.430 209.300 C 233.063 209.795,232.862 209.992,232.982 209.737 C 233.103 209.482,232.187 209.793,230.947 210.427 C 229.707 211.062,228.508 211.467,228.284 211.328 C 228.051 211.184,227.998 211.274,228.162 211.538 C 228.319 211.792,228.257 212.023,228.024 212.050 C 226.538 212.225,223.204 214.081,223.497 214.570 C 223.638 214.807,223.465 214.766,223.112 214.481 C 222.674 214.125,222.388 214.096,222.208 214.387 C 222.063 214.621,221.749 214.692,221.511 214.545 C 221.266 214.393,221.190 214.461,221.338 214.699 C 221.570 215.075,219.671 216.094,218.600 216.168 C 218.380 216.183,217.802 216.604,217.315 217.103 C 216.828 217.602,216.288 217.988,216.115 217.962 C 215.504 217.868,214.000 218.498,214.000 218.847 C 214.000 219.041,213.680 219.200,213.289 219.200 C 212.898 219.200,212.134 219.511,211.592 219.891 C 211.049 220.271,210.342 220.620,210.020 220.668 C 209.160 220.794,207.528 221.698,206.712 222.500 C 206.320 222.885,205.685 223.206,205.300 223.213 C 204.915 223.220,204.258 223.484,203.841 223.800 C 203.424 224.116,202.929 224.280,202.741 224.164 C 202.553 224.048,202.400 224.143,202.400 224.376 C 202.400 224.609,202.130 224.800,201.800 224.800 C 201.470 224.800,201.200 224.980,201.200 225.200 C 201.200 225.917,198.973 225.621,198.075 224.784 C 197.594 224.336,197.200 224.066,197.200 224.185 C 197.200 224.304,196.528 224.041,195.706 223.601 C 194.884 223.160,193.993 222.800,193.726 222.800 C 193.458 222.800,193.096 222.575,192.920 222.299 C 192.541 221.706,190.885 220.813,189.783 220.607 C 189.352 220.527,188.955 220.447,188.900 220.431 C 188.845 220.414,188.704 220.406,188.586 220.414 C 188.468 220.422,188.095 220.152,187.757 219.814 C 187.419 219.476,186.886 219.200,186.571 219.200 C 186.257 219.200,186.000 219.041,186.000 218.847 C 186.000 218.498,184.496 217.868,183.885 217.962 C 183.712 217.988,183.172 217.602,182.685 217.103 C 182.198 216.604,181.620 216.183,181.400 216.168 C 180.329 216.094,178.430 215.075,178.662 214.699 C 178.810 214.461,178.734 214.393,178.489 214.545 C 178.251 214.692,177.937 214.621,177.792 214.387 C 177.612 214.096,177.326 214.125,176.888 214.481 C 176.530 214.770,176.367 214.799,176.518 214.546 C 176.682 214.273,176.276 213.890,175.495 213.581 C 174.783 213.299,173.866 212.783,173.458 212.434 C 173.050 212.085,172.645 211.845,172.558 211.900 C 172.098 212.191,171.592 211.937,171.838 211.538 C 172.002 211.274,171.949 211.184,171.716 211.328 C 171.492 211.467,170.293 211.062,169.053 210.427 C 167.813 209.793,166.897 209.482,167.018 209.737 C 167.138 209.992,166.937 209.795,166.570 209.300 C 166.203 208.805,165.575 208.400,165.175 208.400 C 164.775 208.400,164.336 208.220,164.200 208.000 C 164.064 207.780,163.603 207.600,163.176 207.600 C 162.749 207.600,162.400 207.420,162.400 207.200 C 162.400 206.980,162.195 206.800,161.944 206.800 C 161.337 206.800,157.836 205.081,157.667 204.700 C 157.593 204.535,157.188 204.400,156.767 204.400 C 156.345 204.400,156.000 204.234,156.000 204.032 C 156.000 203.829,155.475 203.548,154.833 203.407 C 154.192 203.266,153.567 202.892,153.446 202.576 C 153.324 202.259,152.859 202.000,152.413 202.000 C 151.966 202.000,151.600 201.820,151.600 201.600 C 151.600 201.380,151.229 201.200,150.776 201.200 C 150.323 201.200,150.063 201.022,150.197 200.805 C 150.339 200.576,150.174 200.512,149.806 200.653 C 149.456 200.787,148.818 200.578,148.385 200.187 C 147.953 199.796,147.594 199.639,147.587 199.838 C 147.580 200.037,147.319 199.862,147.006 199.450 C 146.668 199.003,146.180 198.799,145.798 198.945 C 145.427 199.088,145.261 199.025,145.403 198.795 C 145.537 198.578,145.361 198.400,145.011 198.400 C 144.661 198.400,144.276 198.141,144.154 197.825 C 144.033 197.509,143.683 197.347,143.375 197.465 C 143.068 197.583,141.958 197.151,140.908 196.507 C 139.859 195.862,138.518 195.214,137.928 195.066 C 137.338 194.919,136.586 194.529,136.257 194.199 C 135.927 193.870,135.374 193.600,135.029 193.600 C 134.683 193.600,134.400 193.420,134.400 193.200 C 134.400 192.980,134.113 192.800,133.762 192.800 C 133.411 192.800,132.568 192.405,131.890 191.921 C 131.211 191.438,130.797 191.271,130.970 191.551 C 131.297 192.081,129.641 191.316,129.196 190.732 C 129.084 190.585,128.731 190.405,128.412 190.332 C 128.093 190.259,127.494 189.903,127.082 189.539 C 126.670 189.175,125.906 188.925,125.385 188.982 C 124.864 189.039,124.474 188.902,124.519 188.678 C 124.564 188.454,123.655 187.789,122.501 187.201 C 121.347 186.612,120.537 185.983,120.701 185.801 C 120.865 185.620,120.767 185.606,120.482 185.770 C 120.198 185.935,119.711 185.858,119.400 185.600 C 119.089 185.342,118.647 185.247,118.418 185.389 C 118.188 185.531,118.000 185.446,118.000 185.200 C 118.000 184.954,117.820 184.864,117.600 185.000 C 117.380 185.136,117.200 185.046,117.200 184.800 C 117.200 184.554,117.020 184.464,116.800 184.600 C 116.580 184.736,116.400 184.693,116.400 184.504 C 116.400 184.315,115.770 183.933,115.000 183.654 C 114.230 183.376,113.600 182.980,113.600 182.774 C 113.600 182.568,113.465 182.438,113.300 182.485 C 113.135 182.532,112.591 182.343,112.092 182.066 C 111.592 181.790,111.003 181.675,110.782 181.811 C 110.561 181.948,110.430 181.911,110.490 181.730 C 110.551 181.548,110.484 181.400,110.342 181.400 C 110.200 181.400,109.735 181.085,109.310 180.699 C 108.884 180.314,108.415 180.119,108.268 180.266 C 108.120 180.413,108.000 180.313,108.000 180.043 C 108.000 179.773,107.825 179.661,107.611 179.793 C 107.397 179.926,106.920 179.682,106.552 179.252 C 106.184 178.822,105.639 178.564,105.341 178.678 C 105.044 178.792,104.800 178.667,104.800 178.400 C 104.800 178.133,104.543 178.013,104.229 178.133 C 103.915 178.254,103.451 178.102,103.197 177.796 C 102.943 177.491,101.683 176.832,100.398 176.334 C 99.112 175.835,98.164 175.258,98.292 175.051 C 98.425 174.836,98.153 174.771,97.663 174.900 C 97.188 175.024,96.800 174.962,96.800 174.763 C 96.800 174.563,96.592 174.400,96.338 174.400 C 96.084 174.400,95.319 173.979,94.638 173.463 C 93.551 172.641,92.311 172.137,90.463 171.767 C 90.168 171.708,89.808 171.528,89.663 171.366 C 89.519 171.205,89.724 171.189,90.121 171.332 C 90.551 171.486,90.743 171.431,90.597 171.195 C 90.463 170.978,90.093 170.800,89.776 170.800 C 89.165 170.800,88.858 50.875,89.467 50.266 C 89.614 50.119,139.429 50.044,200.167 50.099 L 310.600 50.200 310.701 110.500 M161.721 82.839 C 161.480 83.080,160.557 83.318,159.670 83.366 C 158.783 83.414,157.775 83.689,157.429 83.976 C 157.083 84.263,156.800 84.381,156.800 84.239 C 156.800 84.096,156.262 84.258,155.604 84.598 C 154.946 84.938,154.271 85.220,154.104 85.226 C 153.207 85.253,152.000 85.736,152.000 86.067 C 152.000 86.276,151.820 86.336,151.600 86.200 C 151.380 86.064,151.200 86.133,151.200 86.353 C 151.200 86.574,150.862 86.689,150.450 86.610 C 150.037 86.530,149.722 86.675,149.750 86.933 C 149.777 87.190,149.620 87.463,149.400 87.539 C 147.976 88.036,147.504 88.494,148.046 88.855 C 148.414 89.101,148.198 89.142,147.400 88.980 C 146.486 88.794,146.343 88.837,146.800 89.162 C 147.329 89.537,147.325 89.588,146.772 89.594 C 146.010 89.601,144.358 91.412,144.732 91.830 C 144.880 91.994,144.791 92.009,144.535 91.862 C 144.276 91.714,143.482 92.234,142.735 93.041 C 142.001 93.836,140.815 95.094,140.100 95.836 C 139.385 96.578,138.800 97.380,138.800 97.617 C 138.800 97.853,138.616 97.933,138.390 97.794 C 138.165 97.655,138.006 97.689,138.037 97.870 C 138.165 98.602,137.962 99.090,137.184 99.925 C 136.736 100.406,136.470 100.800,136.594 100.800 C 136.717 100.800,136.525 101.249,136.165 101.797 C 135.806 102.345,135.620 103.075,135.751 103.418 C 135.889 103.776,135.823 103.938,135.595 103.797 C 135.220 103.565,135.133 103.739,135.040 104.900 C 135.018 105.175,134.765 105.648,134.478 105.951 C 134.191 106.253,134.009 106.973,134.074 107.551 C 134.138 108.128,134.011 108.569,133.791 108.532 C 133.570 108.494,133.358 109.034,133.320 109.732 C 133.141 112.962,133.063 113.562,132.840 113.424 C 132.708 113.343,132.600 113.692,132.600 114.200 C 132.600 114.708,132.735 115.040,132.900 114.938 C 133.065 114.836,133.200 114.933,133.200 115.153 C 133.200 115.373,133.050 115.646,132.866 115.759 C 132.479 115.999,132.520 117.453,132.925 117.859 C 133.398 118.332,133.225 118.862,132.700 118.547 C 132.323 118.320,132.306 118.388,132.632 118.823 C 132.869 119.140,133.100 120.079,133.145 120.908 C 133.190 121.738,133.400 122.875,133.613 123.434 C 133.826 123.994,134.000 125.070,134.000 125.826 C 134.000 126.582,134.191 127.200,134.424 127.200 C 134.657 127.200,134.736 127.380,134.600 127.600 C 134.464 127.820,134.565 128.000,134.825 128.000 C 135.187 128.000,135.188 128.133,134.830 128.564 C 134.532 128.923,134.505 129.218,134.756 129.373 C 134.973 129.507,135.083 129.969,135.000 130.400 C 134.917 130.831,135.046 131.305,135.286 131.453 C 135.567 131.627,135.608 131.536,135.400 131.200 C 135.178 130.840,135.232 130.773,135.573 130.983 C 135.846 131.152,135.981 131.630,135.872 132.045 C 135.764 132.460,135.838 132.800,136.037 132.800 C 136.237 132.800,136.400 133.070,136.400 133.400 C 136.400 133.730,136.599 134.000,136.843 134.000 C 137.086 134.000,137.184 134.264,137.060 134.587 C 136.936 134.910,137.019 135.288,137.245 135.428 C 137.470 135.567,137.561 135.924,137.448 136.220 C 137.318 136.557,137.447 136.680,137.791 136.548 C 138.185 136.397,138.280 136.573,138.124 137.168 C 138.000 137.644,138.098 138.000,138.353 138.000 C 138.599 138.000,138.800 138.168,138.800 138.373 C 138.800 138.850,141.301 142.956,141.700 143.133 C 141.865 143.207,142.000 143.520,142.000 143.830 C 142.000 144.140,142.342 144.607,142.760 144.868 C 143.178 145.129,143.429 145.581,143.317 145.871 C 143.206 146.162,143.324 146.400,143.581 146.400 C 143.837 146.400,143.944 146.568,143.817 146.772 C 143.582 147.153,144.282 147.768,145.000 147.812 C 145.220 147.825,145.347 148.076,145.283 148.369 C 145.219 148.662,145.537 149.161,145.990 149.478 C 146.443 149.795,146.731 150.188,146.630 150.351 C 146.529 150.514,146.976 151.085,147.623 151.619 C 148.271 152.154,148.800 152.817,148.800 153.092 C 148.800 153.368,149.160 153.818,149.600 154.093 C 150.040 154.368,150.400 154.721,150.400 154.878 C 150.400 155.296,152.373 157.200,152.806 157.200 C 153.009 157.200,153.071 157.470,152.945 157.800 C 152.797 158.185,152.953 158.400,153.381 158.400 C 153.747 158.400,153.935 158.581,153.798 158.803 C 153.661 159.024,153.824 159.311,154.159 159.440 C 154.495 159.569,154.883 160.030,155.021 160.466 C 155.175 160.951,155.499 161.171,155.857 161.034 C 156.178 160.910,156.357 160.946,156.254 161.113 C 155.916 161.659,158.736 164.486,159.288 164.154 C 159.637 163.944,159.619 164.069,159.232 164.546 C 158.920 164.930,158.842 165.190,159.059 165.123 C 159.579 164.961,162.496 167.520,162.249 167.921 C 162.144 168.091,162.585 168.464,163.229 168.749 C 163.873 169.034,164.400 169.445,164.400 169.662 C 164.400 170.102,165.399 171.200,165.800 171.200 C 166.225 171.200,167.200 172.310,167.200 172.795 C 167.200 173.044,167.380 173.136,167.600 173.000 C 167.820 172.864,168.000 172.943,168.000 173.176 C 168.000 173.409,168.258 173.600,168.573 173.600 C 168.888 173.600,169.260 173.960,169.400 174.400 C 169.540 174.840,169.912 175.200,170.227 175.200 C 170.542 175.200,170.800 175.391,170.800 175.624 C 170.800 175.857,170.964 175.946,171.164 175.823 C 171.363 175.699,171.993 176.152,172.564 176.830 C 173.134 177.507,173.600 177.956,173.600 177.827 C 173.600 177.698,174.185 178.153,174.900 178.838 C 176.450 180.323,178.400 181.754,178.400 181.407 C 178.400 181.270,178.805 181.579,179.300 182.093 C 180.297 183.127,182.400 184.549,182.400 184.189 C 182.400 184.062,182.872 184.463,183.448 185.079 C 184.025 185.696,184.674 186.149,184.890 186.086 C 185.107 186.023,185.490 186.135,185.742 186.335 C 185.994 186.534,186.503 186.648,186.872 186.588 C 187.283 186.521,187.468 186.680,187.347 186.995 C 187.232 187.294,187.662 187.738,188.374 188.053 C 189.048 188.351,189.600 188.731,189.600 188.898 C 189.600 189.064,189.960 189.200,190.400 189.200 C 190.840 189.200,191.200 189.348,191.200 189.529 C 191.200 189.948,194.830 191.600,195.752 191.600 C 196.134 191.600,196.336 191.780,196.200 192.000 C 196.064 192.220,196.313 192.400,196.753 192.400 C 197.193 192.400,197.664 192.580,197.800 192.800 C 198.123 193.322,202.400 193.322,202.400 192.800 C 202.400 192.580,202.625 192.400,202.900 192.401 C 203.530 192.403,206.954 190.703,207.133 190.300 C 207.207 190.135,207.601 190.000,208.010 190.000 C 208.418 190.000,208.866 189.817,209.004 189.593 C 209.142 189.370,209.424 189.291,209.630 189.419 C 209.837 189.546,210.112 189.375,210.241 189.037 C 210.370 188.700,211.089 188.203,211.838 187.932 C 212.587 187.661,213.200 187.295,213.200 187.120 C 213.200 186.944,213.517 186.800,213.904 186.800 C 214.291 186.800,215.056 186.386,215.604 185.879 C 216.152 185.373,216.915 184.839,217.300 184.692 C 217.685 184.545,218.000 184.229,218.000 183.989 C 218.000 183.749,218.158 183.651,218.351 183.770 C 218.903 184.111,220.870 182.951,222.356 181.408 C 223.102 180.634,223.912 179.997,224.156 179.993 C 224.400 179.989,225.024 179.539,225.542 178.993 C 226.060 178.447,226.697 178.000,226.957 178.000 C 227.217 178.000,228.287 177.190,229.335 176.200 C 230.383 175.210,231.422 174.400,231.644 174.400 C 231.866 174.400,231.936 174.220,231.800 174.000 C 231.664 173.780,231.833 173.600,232.176 173.600 C 232.519 173.600,232.800 173.420,232.800 173.200 C 232.800 172.980,233.038 172.800,233.328 172.800 C 233.892 172.800,235.797 170.827,235.297 170.760 C 235.134 170.738,235.450 170.587,236.000 170.425 C 236.550 170.262,236.957 169.927,236.905 169.679 C 236.852 169.431,237.076 169.331,237.405 169.457 C 237.780 169.601,238.000 169.448,238.000 169.043 C 238.000 168.689,238.191 168.400,238.424 168.400 C 238.657 168.400,238.736 168.220,238.600 168.000 C 238.464 167.780,238.614 167.600,238.934 167.600 C 239.253 167.600,239.622 167.319,239.754 166.975 C 239.886 166.631,240.176 166.461,240.397 166.598 C 240.619 166.735,240.800 166.632,240.800 166.369 C 240.800 165.773,242.669 164.003,242.975 164.309 C 243.099 164.432,243.200 164.113,243.200 163.600 C 243.200 163.087,243.305 162.771,243.433 162.899 C 243.804 163.270,247.600 159.351,247.600 158.597 C 247.600 158.174,247.815 157.997,248.163 158.131 C 248.523 158.269,248.815 157.996,248.971 157.373 C 249.105 156.838,249.482 156.400,249.808 156.400 C 250.133 156.400,250.401 156.265,250.402 156.100 C 250.403 155.935,250.988 155.153,251.702 154.363 C 254.370 151.409,255.202 150.396,255.168 150.146 C 255.148 150.005,255.372 149.741,255.666 149.559 C 255.960 149.378,256.200 149.067,256.200 148.868 C 256.200 148.670,256.740 147.987,257.400 147.351 C 258.652 146.144,260.254 143.600,259.761 143.600 C 259.605 143.600,259.865 143.264,260.339 142.853 C 260.812 142.442,261.200 141.840,261.200 141.515 C 261.200 141.190,261.560 140.598,262.000 140.200 C 262.440 139.802,262.800 139.333,262.800 139.158 C 262.800 138.983,263.340 138.040,264.000 137.062 C 264.660 136.084,265.200 134.837,265.200 134.291 C 265.200 133.745,265.478 133.067,265.818 132.785 C 266.158 132.503,266.340 132.021,266.223 131.715 C 266.096 131.385,266.184 131.267,266.439 131.424 C 266.710 131.591,266.824 131.340,266.747 130.745 C 266.680 130.225,266.759 129.585,266.922 129.322 C 267.642 128.166,268.325 125.642,267.951 125.517 C 267.733 125.444,267.669 125.085,267.810 124.718 C 267.951 124.351,268.276 124.131,268.533 124.230 C 269.106 124.449,269.205 112.519,268.638 111.638 C 268.374 111.228,268.417 111.163,268.800 111.400 C 269.181 111.635,269.228 111.570,268.972 111.162 C 268.779 110.853,268.521 109.790,268.399 108.800 C 268.253 107.619,267.999 107.038,267.659 107.110 C 267.374 107.170,267.259 107.027,267.405 106.792 C 267.550 106.557,267.440 106.089,267.160 105.752 C 266.745 105.252,266.757 105.072,267.226 104.776 C 267.542 104.576,267.604 104.409,267.364 104.406 C 267.125 104.403,266.723 103.950,266.473 103.400 C 266.204 102.810,266.175 102.400,266.402 102.400 C 266.613 102.400,266.149 101.745,265.372 100.944 C 264.594 100.143,264.051 99.243,264.166 98.944 C 264.281 98.645,264.192 98.400,263.968 98.400 C 263.744 98.400,263.329 97.848,263.045 97.173 C 262.762 96.498,262.365 95.958,262.165 95.973 C 261.964 95.988,261.800 95.780,261.800 95.512 C 261.800 95.243,261.350 94.796,260.800 94.518 C 260.250 94.239,259.919 94.009,260.064 94.006 C 260.210 94.003,259.573 93.235,258.650 92.300 C 256.935 90.564,253.055 87.648,252.932 88.003 C 252.895 88.111,252.398 87.795,251.829 87.300 C 251.260 86.805,250.615 86.400,250.397 86.400 C 250.179 86.400,250.000 86.243,250.000 86.050 C 250.000 85.858,249.595 85.696,249.100 85.690 C 248.605 85.685,247.330 85.302,246.267 84.840 C 245.204 84.378,244.068 84.000,243.743 84.000 C 243.418 84.000,243.244 83.853,243.355 83.672 C 243.467 83.492,243.051 83.419,242.432 83.510 C 241.813 83.601,240.752 83.389,240.076 83.039 C 239.261 82.618,238.758 82.544,238.587 82.821 C 238.426 83.081,238.154 83.100,237.864 82.869 C 236.933 82.128,223.200 82.774,223.200 83.559 C 223.200 83.708,222.618 83.874,221.907 83.928 C 221.195 83.983,220.439 84.201,220.227 84.413 C 220.014 84.626,219.441 84.800,218.953 84.800 C 218.466 84.800,218.003 84.990,217.926 85.222 C 217.849 85.454,217.519 85.696,217.193 85.759 C 215.559 86.078,214.424 86.514,214.578 86.764 C 214.673 86.917,213.953 87.393,212.979 87.821 C 212.005 88.250,211.206 88.825,211.204 89.100 C 211.202 89.375,210.996 89.600,210.747 89.600 C 210.497 89.600,209.867 90.095,209.347 90.700 C 208.827 91.305,208.401 91.666,208.400 91.503 C 208.400 91.339,207.956 91.591,207.414 92.063 C 206.871 92.535,206.510 93.055,206.611 93.218 C 206.713 93.382,206.526 93.619,206.198 93.746 C 205.869 93.872,205.600 94.281,205.600 94.654 C 205.600 95.028,205.495 95.228,205.367 95.100 C 205.000 94.733,203.718 96.143,203.912 96.700 C 204.007 96.975,203.796 97.200,203.443 97.200 C 203.089 97.200,202.800 97.481,202.800 97.824 C 202.800 98.167,202.622 98.337,202.405 98.203 C 202.176 98.061,202.112 98.226,202.253 98.594 C 202.387 98.944,202.192 99.567,201.818 99.980 C 201.445 100.392,201.090 100.971,201.029 101.265 C 200.677 102.974,200.086 103.816,199.811 103.000 C 199.663 102.560,199.372 101.930,199.163 101.600 C 198.955 101.270,198.518 100.423,198.194 99.717 C 197.869 99.012,197.198 98.040,196.702 97.558 C 196.206 97.077,196.023 96.808,196.295 96.962 C 196.628 97.150,196.712 97.037,196.553 96.621 C 196.422 96.279,196.154 96.000,195.957 96.000 C 195.761 96.000,195.600 95.773,195.600 95.496 C 195.600 95.219,195.240 94.768,194.800 94.493 C 194.360 94.218,194.000 93.807,194.000 93.578 C 194.000 93.035,192.326 91.436,191.582 91.270 C 191.262 91.198,190.937 90.963,190.859 90.748 C 190.631 90.111,189.103 88.813,188.801 88.999 C 188.649 89.093,187.844 88.547,187.012 87.785 C 186.180 87.023,185.252 86.400,184.950 86.400 C 184.647 86.400,184.400 86.241,184.400 86.047 C 184.400 85.736,182.994 85.163,182.652 85.335 C 182.581 85.371,182.238 85.163,181.890 84.874 C 181.541 84.585,180.672 84.275,179.958 84.185 C 179.244 84.094,178.543 83.832,178.401 83.602 C 178.259 83.372,177.714 83.249,177.191 83.328 C 176.668 83.408,175.511 83.257,174.620 82.993 C 172.506 82.365,163.200 82.327,162.423 82.942 C 161.979 83.295,161.916 83.285,162.147 82.900 C 162.518 82.283,162.307 82.253,161.721 82.839 M366.400 268.000 L 366.400 358.400 200.000 358.400 L 33.600 358.400 33.600 270.467 C 33.600 222.103,33.710 182.424,33.844 182.289 C 33.978 182.155,34.768 182.475,35.600 183.000 C 36.432 183.525,37.224 183.843,37.360 183.706 C 37.497 183.570,37.871 183.805,38.191 184.229 C 38.512 184.653,38.780 184.861,38.787 184.692 C 38.794 184.522,39.520 184.751,40.400 185.200 C 41.280 185.649,42.005 185.878,42.012 185.708 C 42.019 185.539,42.210 185.719,42.437 186.108 C 42.664 186.498,43.018 186.712,43.225 186.585 C 43.431 186.457,43.600 186.554,43.600 186.800 C 43.600 187.046,43.780 187.136,44.000 187.000 C 44.220 186.864,44.400 186.927,44.400 187.141 C 44.400 187.355,44.715 187.482,45.100 187.425 C 46.004 187.291,47.219 188.045,46.909 188.548 C 46.772 188.768,46.944 188.830,47.305 188.692 C 47.655 188.557,48.148 188.696,48.400 189.000 C 48.652 189.304,49.145 189.443,49.495 189.308 C 49.933 189.140,50.036 189.218,49.825 189.559 C 49.636 189.865,49.725 190.025,50.060 189.979 C 51.107 189.836,51.644 190.004,51.400 190.400 C 51.264 190.620,51.523 190.800,51.976 190.800 C 52.429 190.800,52.800 190.951,52.800 191.136 C 52.800 191.320,53.332 191.440,53.983 191.401 C 54.634 191.362,55.066 191.493,54.943 191.692 C 54.820 191.891,55.096 192.152,55.555 192.272 C 56.015 192.393,56.292 192.650,56.172 192.845 C 56.051 193.040,56.413 193.200,56.976 193.200 C 57.539 193.200,58.360 193.560,58.800 194.000 C 59.645 194.845,60.216 195.074,59.800 194.400 C 59.664 194.180,59.743 194.000,59.976 194.000 C 60.209 194.000,60.400 194.180,60.400 194.400 C 60.400 194.620,60.790 194.800,61.267 194.800 C 61.743 194.800,62.016 194.917,61.873 195.061 C 61.540 195.393,63.457 196.400,64.422 196.400 C 64.824 196.400,65.272 196.592,65.417 196.827 C 65.562 197.062,65.918 197.164,66.207 197.053 C 66.497 196.941,66.837 197.121,66.964 197.451 C 67.091 197.781,67.376 197.939,67.597 197.802 C 67.819 197.665,68.000 197.833,68.000 198.176 C 68.000 198.519,68.135 198.779,68.300 198.753 C 69.291 198.596,70.410 198.860,70.200 199.200 C 69.978 199.560,70.503 199.773,71.300 199.647 C 71.465 199.621,71.600 199.757,71.600 199.950 C 71.600 200.274,73.486 200.887,74.738 200.970 C 75.033 200.989,75.577 201.378,75.946 201.833 C 76.314 202.289,76.821 202.593,77.072 202.509 C 77.323 202.426,77.764 202.610,78.052 202.918 C 78.341 203.227,78.927 203.387,79.356 203.275 C 79.929 203.125,80.074 203.231,79.904 203.673 C 79.728 204.132,79.902 204.231,80.637 204.091 C 81.213 203.981,81.600 204.096,81.600 204.377 C 81.600 204.636,81.768 204.744,81.972 204.617 C 82.177 204.491,82.460 204.573,82.600 204.800 C 82.740 205.027,83.027 205.107,83.238 204.977 C 83.448 204.847,83.570 204.979,83.510 205.270 C 83.449 205.562,83.612 205.759,83.872 205.709 C 84.132 205.659,84.839 205.875,85.443 206.189 C 86.048 206.502,86.721 206.649,86.939 206.514 C 87.165 206.374,87.236 206.529,87.104 206.872 C 86.926 207.338,87.115 207.437,87.937 207.306 C 88.773 207.173,88.872 207.228,88.400 207.563 C 87.914 207.907,88.003 207.989,88.867 207.994 C 89.453 207.997,89.993 208.164,90.067 208.363 C 90.140 208.563,90.560 208.788,91.000 208.863 C 91.440 208.939,92.038 209.225,92.329 209.500 C 92.619 209.775,93.191 210.000,93.600 210.000 C 94.009 210.000,94.624 210.281,94.967 210.625 C 95.311 210.968,95.954 211.276,96.396 211.310 C 96.838 211.343,97.200 211.523,97.200 211.709 C 97.200 211.895,97.365 211.945,97.568 211.820 C 97.770 211.695,98.207 211.864,98.539 212.196 C 98.871 212.528,99.336 212.800,99.571 212.800 C 99.807 212.800,100.000 212.942,100.000 213.115 C 100.000 213.288,100.389 213.459,100.864 213.495 C 101.339 213.531,101.851 213.758,102.001 214.001 C 102.151 214.244,102.437 214.411,102.637 214.374 C 103.464 214.218,104.031 214.426,103.800 214.800 C 103.664 215.020,103.934 215.200,104.400 215.200 C 104.866 215.200,105.159 215.343,105.051 215.517 C 104.863 215.821,105.617 216.016,107.462 216.142 C 107.936 216.174,108.241 216.334,108.139 216.498 C 108.038 216.662,108.415 217.006,108.977 217.263 C 109.540 217.519,110.000 217.874,110.000 218.052 C 110.000 218.229,110.268 218.272,110.597 218.146 C 110.925 218.020,111.289 218.167,111.406 218.472 C 111.523 218.777,112.110 219.068,112.710 219.117 C 113.309 219.166,113.860 219.385,113.933 219.603 C 114.007 219.822,114.412 220.000,114.833 220.000 C 115.255 220.000,115.600 220.191,115.600 220.424 C 115.600 220.657,115.780 220.736,116.000 220.600 C 116.220 220.464,116.400 220.543,116.400 220.776 C 116.400 221.009,116.672 221.200,117.005 221.200 C 117.338 221.200,117.923 221.365,118.305 221.566 C 118.687 221.768,119.675 222.226,120.500 222.585 C 121.325 222.944,122.000 223.420,122.000 223.642 C 122.000 223.865,122.200 223.924,122.445 223.772 C 122.689 223.621,123.047 223.746,123.239 224.049 C 123.488 224.442,123.590 224.458,123.594 224.104 C 123.598 223.773,123.871 223.840,124.413 224.304 C 124.860 224.687,125.355 225.016,125.513 225.035 C 126.299 225.133,128.387 226.288,128.207 226.527 C 128.093 226.677,128.115 226.715,128.256 226.611 C 128.397 226.506,128.982 226.664,129.556 226.962 C 132.151 228.306,135.763 229.729,136.340 229.635 C 136.637 229.586,136.762 229.739,136.617 229.973 C 136.471 230.208,136.439 230.400,136.544 230.400 C 136.649 230.400,137.049 230.521,137.433 230.668 C 137.947 230.865,138.045 230.796,137.804 230.406 C 137.584 230.051,137.631 229.972,137.945 230.166 C 138.202 230.325,138.321 230.604,138.209 230.786 C 137.956 231.195,139.138 231.686,139.636 231.378 C 139.836 231.254,140.000 231.300,140.000 231.480 C 140.000 231.660,140.379 232.044,140.842 232.333 C 141.398 232.680,141.585 232.700,141.395 232.391 C 141.236 232.134,142.162 232.505,143.453 233.217 C 144.744 233.929,146.589 234.946,147.554 235.477 C 148.518 236.009,149.563 236.346,149.875 236.227 C 150.188 236.106,150.332 236.186,150.197 236.405 C 150.061 236.625,150.399 236.800,150.964 236.800 C 151.656 236.800,151.909 236.973,151.764 237.349 C 151.607 237.758,151.829 237.845,152.636 237.691 C 153.386 237.548,153.632 237.625,153.436 237.942 C 153.260 238.227,153.453 238.400,153.948 238.400 C 154.385 238.400,155.013 238.670,155.343 239.000 C 156.071 239.728,156.557 239.788,156.155 239.100 C 155.994 238.825,156.233 238.925,156.686 239.321 C 157.140 239.718,157.883 240.071,158.338 240.105 C 158.793 240.140,159.087 240.246,158.991 240.342 C 158.728 240.605,162.056 242.210,164.137 242.825 C 165.144 243.122,165.889 243.444,165.793 243.540 C 165.697 243.636,166.919 244.330,168.509 245.082 C 170.099 245.835,171.722 246.625,172.116 246.839 C 172.510 247.052,173.005 247.120,173.216 246.990 C 173.427 246.860,173.600 246.938,173.600 247.165 C 173.600 247.391,174.324 247.908,175.208 248.314 C 176.092 248.719,176.698 249.169,176.554 249.313 C 176.410 249.457,176.701 249.496,177.201 249.400 C 177.736 249.297,178.624 249.590,179.355 250.112 C 180.040 250.600,180.720 250.999,180.867 250.999 C 181.013 251.000,181.268 251.135,181.433 251.300 C 181.598 251.465,182.041 251.600,182.418 251.600 C 182.794 251.600,183.324 251.868,183.596 252.196 C 183.868 252.523,184.262 252.686,184.471 252.556 C 184.679 252.427,185.154 252.595,185.525 252.930 C 185.896 253.264,186.694 253.661,187.297 253.812 C 187.901 253.962,188.318 254.209,188.225 254.360 C 188.132 254.511,188.628 254.675,189.328 254.725 C 190.027 254.775,191.088 255.172,191.684 255.608 C 192.280 256.044,192.955 256.400,193.184 256.400 C 193.413 256.400,193.600 256.580,193.600 256.800 C 193.600 257.020,193.949 257.200,194.376 257.200 C 194.803 257.200,195.264 257.380,195.400 257.600 C 195.536 257.820,196.007 258.000,196.447 258.000 C 196.887 258.000,197.150 258.157,197.031 258.350 C 196.912 258.543,197.282 258.700,197.853 258.700 C 198.424 258.700,199.014 258.899,199.165 259.143 C 199.489 259.668,201.224 259.408,201.615 258.775 C 201.766 258.531,202.005 258.349,202.147 258.370 C 202.288 258.392,203.055 258.137,203.851 257.805 C 204.647 257.472,205.466 257.200,205.672 257.200 C 205.879 257.200,205.936 257.020,205.800 256.800 C 205.664 256.580,205.918 256.400,206.364 256.400 C 207.378 256.400,212.000 254.082,212.000 253.574 C 212.000 253.368,212.135 253.221,212.300 253.247 C 213.282 253.402,214.015 253.147,213.762 252.738 C 213.584 252.451,213.652 252.385,213.941 252.563 C 214.196 252.721,214.927 252.479,215.564 252.025 C 216.202 251.571,216.833 251.200,216.966 251.200 C 217.192 251.200,219.855 250.063,221.886 249.100 C 222.374 248.869,222.661 248.499,222.525 248.278 C 222.387 248.056,222.476 247.999,222.722 248.152 C 223.169 248.428,224.499 247.832,225.513 246.900 C 225.812 246.625,226.372 246.400,226.758 246.400 C 227.542 246.400,232.125 244.034,232.335 243.521 C 232.409 243.339,232.836 242.995,233.283 242.756 C 233.873 242.440,234.022 242.441,233.825 242.760 C 233.409 243.432,234.233 243.284,234.815 242.582 C 235.097 242.242,235.609 242.071,235.952 242.203 C 236.295 242.335,236.443 242.309,236.280 242.147 C 235.980 241.846,239.371 240.065,240.324 240.023 C 240.612 240.010,240.736 239.820,240.600 239.600 C 240.460 239.373,240.796 239.200,241.376 239.200 C 241.939 239.200,242.400 239.001,242.400 238.757 C 242.400 238.514,242.690 238.426,243.045 238.562 C 243.496 238.735,243.623 238.636,243.468 238.232 C 243.314 237.832,243.475 237.699,243.991 237.798 C 244.401 237.877,244.840 237.674,244.966 237.346 C 245.091 237.018,245.371 236.858,245.586 236.991 C 245.801 237.124,246.432 236.935,246.989 236.571 C 247.545 236.206,248.000 236.026,248.000 236.170 C 248.000 236.313,248.387 236.070,248.861 235.629 C 249.334 235.188,249.853 234.909,250.015 235.009 C 250.177 235.109,250.524 234.932,250.787 234.616 C 251.049 234.300,251.925 233.829,252.732 233.571 C 253.539 233.312,254.794 232.657,255.520 232.115 C 256.245 231.573,257.100 231.230,257.420 231.352 C 257.739 231.475,258.000 231.431,258.000 231.256 C 258.000 231.080,258.945 230.503,260.100 229.973 C 261.255 229.442,262.290 228.916,262.400 228.804 C 262.510 228.691,263.140 228.353,263.800 228.053 C 264.460 227.753,265.270 227.357,265.600 227.173 C 265.930 226.990,267.010 226.438,268.000 225.947 C 268.990 225.457,269.890 224.939,270.000 224.797 C 270.110 224.655,271.227 224.118,272.483 223.603 C 273.738 223.088,274.698 222.559,274.617 222.427 C 274.535 222.295,274.888 221.989,275.401 221.747 C 276.192 221.374,276.304 221.405,276.134 221.953 C 275.966 222.497,276.026 222.489,276.511 221.900 C 276.829 221.515,277.361 221.200,277.695 221.200 C 278.029 221.200,278.549 220.895,278.851 220.523 C 279.319 219.947,279.317 219.897,278.838 220.185 C 278.461 220.412,278.368 220.375,278.556 220.072 C 278.709 219.823,279.365 219.681,280.013 219.757 C 280.668 219.833,281.388 219.655,281.637 219.355 C 282.170 218.713,284.515 217.490,284.183 218.027 C 284.056 218.232,284.143 218.400,284.376 218.400 C 284.609 218.400,284.800 218.224,284.800 218.010 C 284.800 217.462,288.433 215.828,289.400 215.942 C 290.062 216.020,290.097 215.965,289.600 215.624 C 289.010 215.219,289.176 215.151,290.608 215.208 C 290.722 215.213,291.199 214.859,291.668 214.422 C 292.137 213.985,292.661 213.714,292.833 213.820 C 293.004 213.926,293.260 213.827,293.400 213.600 C 293.540 213.373,293.823 213.291,294.028 213.417 C 294.232 213.544,294.400 213.356,294.400 213.000 C 294.400 212.644,294.578 212.463,294.795 212.597 C 295.012 212.731,295.582 212.475,296.063 212.028 C 296.721 211.414,297.066 211.323,297.468 211.656 C 297.857 211.979,298.000 211.977,298.000 211.649 C 298.000 211.402,298.248 211.200,298.551 211.200 C 298.854 211.200,299.339 210.915,299.628 210.566 C 300.291 209.768,304.840 207.578,305.276 207.847 C 305.454 207.957,305.600 207.857,305.600 207.624 C 305.600 207.391,305.870 207.200,306.200 207.200 C 306.530 207.200,306.800 207.049,306.800 206.864 C 306.800 206.679,307.514 206.292,308.387 206.004 C 309.259 205.716,309.861 205.299,309.724 205.077 C 309.572 204.831,309.811 204.762,310.337 204.900 C 311.002 205.073,311.200 204.947,311.200 204.348 C 311.200 203.703,311.331 203.642,311.979 203.989 C 312.548 204.293,312.844 204.270,313.079 203.903 C 313.552 203.162,315.173 202.336,315.616 202.610 C 315.827 202.740,316.000 202.588,316.000 202.270 C 316.000 201.953,316.405 201.601,316.900 201.487 C 318.434 201.136,320.574 200.225,321.152 199.677 C 321.455 199.389,321.959 199.252,322.272 199.372 C 322.585 199.493,322.749 199.440,322.635 199.257 C 322.521 199.073,323.457 198.446,324.714 197.864 C 325.971 197.282,327.766 196.357,328.703 195.808 C 329.639 195.258,330.494 194.807,330.603 194.805 C 330.711 194.802,331.081 194.800,331.424 194.800 C 331.767 194.800,331.936 194.620,331.800 194.400 C 331.664 194.180,331.698 193.986,331.876 193.969 C 333.015 193.862,333.757 193.582,334.367 193.030 C 334.750 192.684,335.240 192.400,335.456 192.400 C 335.673 192.400,336.595 192.040,337.506 191.600 C 338.416 191.160,339.361 190.800,339.604 190.800 C 339.848 190.800,339.917 190.589,339.758 190.332 C 339.565 190.019,339.685 189.947,340.123 190.115 C 340.483 190.253,341.031 190.112,341.341 189.802 C 341.651 189.492,341.991 189.324,342.095 189.429 C 342.200 189.534,342.514 189.345,342.792 189.010 C 343.070 188.674,343.546 188.400,343.849 188.400 C 344.152 188.400,344.400 188.220,344.400 188.000 C 344.400 187.780,344.701 187.600,345.069 187.600 C 345.436 187.600,346.041 187.325,346.413 186.988 C 346.785 186.652,347.639 186.337,348.310 186.288 C 348.982 186.240,349.502 186.020,349.466 185.800 C 349.430 185.580,349.630 185.447,349.911 185.504 C 350.192 185.561,350.527 185.336,350.654 185.004 C 350.781 184.672,351.237 184.400,351.666 184.400 C 352.155 184.400,352.340 184.227,352.162 183.938 C 351.991 183.662,352.051 183.585,352.311 183.745 C 352.827 184.064,357.200 182.145,357.200 181.601 C 357.200 181.394,357.470 181.329,357.800 181.455 C 358.130 181.582,358.400 181.486,358.400 181.243 C 358.400 180.999,358.670 180.800,359.000 180.800 C 359.330 180.800,359.600 180.547,359.600 180.237 C 359.600 179.869,359.880 179.748,360.413 179.888 C 360.871 180.007,361.541 179.816,361.946 179.449 C 362.341 179.091,362.781 178.914,362.923 179.056 C 363.065 179.198,363.290 179.030,363.424 178.683 C 363.557 178.335,363.903 178.141,364.193 178.253 C 364.482 178.364,364.838 178.262,364.983 178.027 C 366.422 175.699,366.400 174.316,366.400 268.000 " stroke="none" fill="#fcd464" fill-rule="evenodd"></path><path id="path1" d="M144.700 50.300 C 175.115 50.357,224.885 50.357,255.300 50.300 C 285.715 50.243,260.830 50.197,200.000 50.197 C 139.170 50.197,114.285 50.243,144.700 50.300 M160.220 82.768 C 160.092 82.975,160.198 83.275,160.455 83.434 C 160.766 83.626,160.816 83.549,160.602 83.204 C 160.360 82.811,160.543 82.734,161.350 82.888 C 161.938 83.001,162.492 82.974,162.582 82.829 C 162.671 82.684,162.229 82.527,161.599 82.479 C 160.968 82.431,160.348 82.561,160.220 82.768 M174.720 82.880 C 175.093 83.253,175.307 83.253,175.680 82.880 C 176.053 82.507,175.947 82.400,175.200 82.400 C 174.453 82.400,174.347 82.507,174.720 82.880 M247.200 85.086 C 247.530 85.208,248.111 85.468,248.491 85.663 C 249.025 85.938,249.129 85.880,248.948 85.409 C 248.815 85.063,248.258 84.814,247.657 84.832 C 247.037 84.850,246.848 84.955,247.200 85.086 M184.566 86.055 C 184.401 86.322,184.448 86.417,184.678 86.276 C 184.898 86.139,185.459 86.381,185.923 86.814 C 186.387 87.246,187.089 87.586,187.483 87.568 C 188.043 87.544,188.069 87.488,187.600 87.311 C 187.270 87.187,186.518 86.748,185.928 86.336 C 185.151 85.792,184.776 85.714,184.566 86.055 M187.823 88.567 C 188.661 89.180,189.040 89.113,188.616 88.427 C 188.471 88.192,188.059 88.000,187.700 88.000 C 187.154 88.000,187.174 88.093,187.823 88.567 M209.099 90.177 C 208.715 90.458,208.400 90.927,208.400 91.220 C 208.400 91.544,208.728 91.399,209.240 90.849 C 210.208 89.811,210.127 89.426,209.099 90.177 M144.500 90.265 C 143.804 90.546,143.873 91.200,144.600 91.200 C 144.930 91.200,145.200 90.930,145.200 90.600 C 145.200 90.270,145.155 90.014,145.100 90.032 C 145.045 90.049,144.775 90.154,144.500 90.265 M140.989 93.715 C 140.763 93.982,140.136 94.828,139.595 95.595 L 138.611 96.989 139.905 96.067 C 140.617 95.560,141.200 94.888,141.200 94.573 C 141.200 94.258,141.380 94.000,141.600 94.000 C 141.820 94.000,142.000 93.820,142.000 93.600 C 142.000 93.062,141.494 93.120,140.989 93.715 M196.246 96.726 C 196.114 96.939,196.455 97.406,197.003 97.765 C 198.189 98.542,198.292 98.280,197.242 97.153 C 196.823 96.703,196.378 96.512,196.246 96.726 M202.800 96.800 C 202.800 97.020,203.070 97.200,203.400 97.200 C 203.730 97.200,204.000 97.020,204.000 96.800 C 204.000 96.580,203.730 96.400,203.400 96.400 C 203.070 96.400,202.800 96.580,202.800 96.800 M201.717 99.065 C 201.849 99.279,201.607 99.707,201.179 100.015 C 200.396 100.580,200.039 102.670,200.807 102.196 C 201.030 102.058,201.123 101.798,201.012 101.619 C 200.901 101.440,201.172 100.835,201.612 100.275 C 202.187 99.544,202.281 99.174,201.945 98.966 C 201.684 98.804,201.583 98.848,201.717 99.065 M264.006 99.100 C 264.024 99.977,264.788 100.559,264.794 99.700 C 264.797 99.205,264.620 98.800,264.400 98.800 C 264.180 98.800,264.003 98.935,264.006 99.100 M132.560 113.960 C 132.606 114.630,132.749 115.283,132.877 115.411 C 133.006 115.539,133.067 115.090,133.014 114.414 C 132.960 113.737,132.818 113.084,132.696 112.963 C 132.575 112.842,132.514 113.290,132.560 113.960 M346.787 113.217 C 346.321 113.511,346.378 113.589,347.067 113.594 C 347.543 113.597,348.024 113.825,348.135 114.100 C 348.262 114.414,348.349 114.432,348.368 114.149 C 348.422 113.390,347.434 112.808,346.787 113.217 M133.360 125.000 C 133.360 125.550,133.504 126.000,133.680 126.000 C 133.856 126.000,134.000 125.550,134.000 125.000 C 134.000 124.450,133.856 124.000,133.680 124.000 C 133.504 124.000,133.360 124.450,133.360 125.000 M267.846 124.624 C 267.530 125.448,267.860 125.900,268.390 125.370 C 268.597 125.163,268.619 124.755,268.439 124.463 C 268.182 124.046,268.055 124.081,267.846 124.624 M364.800 124.948 C 364.800 125.708,366.878 127.282,367.311 126.849 C 367.643 126.517,367.616 126.400,367.206 126.400 C 366.901 126.400,366.235 126.009,365.726 125.530 C 365.217 125.052,364.800 124.790,364.800 124.948 M30.800 130.624 C 30.800 130.993,30.612 131.131,30.338 130.962 C 30.045 130.781,29.985 130.853,30.174 131.158 C 30.400 131.524,30.605 131.528,31.031 131.174 C 31.339 130.918,31.493 130.550,31.372 130.355 C 31.039 129.816,30.800 129.929,30.800 130.624 M135.828 133.155 C 135.707 133.350,135.866 133.723,136.181 133.984 C 136.495 134.245,136.660 134.760,136.546 135.129 C 136.389 135.638,136.456 135.617,136.821 135.044 C 137.215 134.425,137.183 134.222,136.643 133.920 C 136.280 133.717,136.088 133.382,136.215 133.175 C 136.343 132.969,136.357 132.800,136.247 132.800 C 136.137 132.800,135.949 132.960,135.828 133.155 M265.467 133.067 C 265.092 133.442,265.133 134.800,265.520 134.800 C 265.696 134.800,265.840 134.350,265.840 133.800 C 265.840 132.690,265.841 132.692,265.467 133.067 M379.762 135.107 C 380.674 136.176,380.800 136.204,380.800 135.333 C 380.800 134.967,380.682 134.785,380.537 134.930 C 380.392 135.075,379.987 134.973,379.637 134.703 C 379.247 134.403,379.295 134.560,379.762 135.107 M383.600 137.481 C 383.600 137.943,384.735 139.009,384.958 138.757 C 385.034 138.671,384.760 138.254,384.348 137.830 C 383.937 137.407,383.600 137.249,383.600 137.481 M263.252 138.137 C 263.007 138.432,262.895 138.761,263.002 138.869 C 263.109 138.976,262.748 139.486,262.198 140.001 C 261.153 140.983,260.923 141.600,261.600 141.600 C 261.820 141.600,262.000 141.319,262.000 140.976 C 262.000 140.633,262.160 140.451,262.355 140.572 C 262.655 140.758,263.154 139.809,263.346 138.685 C 263.376 138.512,263.670 138.200,264.000 137.992 C 264.330 137.783,264.397 137.609,264.149 137.606 C 263.901 137.603,263.497 137.842,263.252 138.137 M387.078 139.856 C 386.779 140.155,387.106 140.800,387.557 140.800 C 387.727 140.800,387.867 140.530,387.867 140.200 C 387.867 139.573,387.514 139.419,387.078 139.856 M10.196 142.407 C 10.058 142.630,9.749 142.692,9.511 142.545 C 9.245 142.381,9.192 142.463,9.374 142.758 C 9.597 143.118,9.808 143.125,10.218 142.785 C 10.519 142.535,10.981 142.464,11.244 142.627 C 11.548 142.815,11.619 142.754,11.438 142.462 C 11.086 141.891,10.530 141.867,10.196 142.407 M391.020 142.367 C 390.873 142.605,390.917 142.800,391.118 142.800 C 391.319 142.800,391.969 143.250,392.562 143.800 C 393.661 144.818,394.800 145.124,394.800 144.400 C 394.800 144.042,394.461 143.924,393.763 144.039 C 393.632 144.060,393.022 143.596,392.406 143.006 C 391.699 142.328,391.190 142.093,391.020 142.367 M260.124 142.973 C 259.479 143.708,259.953 144.104,260.648 143.410 C 260.951 143.106,261.200 142.754,261.200 142.629 C 261.200 142.226,260.615 142.413,260.124 142.973 M7.500 143.720 C 6.895 143.959,6.400 144.300,6.400 144.477 C 6.400 144.655,6.141 144.800,5.824 144.800 C 5.507 144.800,5.146 144.963,5.023 145.163 C 4.900 145.362,5.162 145.430,5.606 145.314 C 6.049 145.198,6.510 144.945,6.630 144.752 C 6.749 144.558,7.177 144.400,7.581 144.400 C 7.984 144.400,8.418 144.130,8.545 143.800 C 8.671 143.470,8.736 143.219,8.687 143.243 C 8.639 143.266,8.105 143.481,7.500 143.720 M144.277 148.256 C 144.399 148.574,144.670 148.777,144.879 148.707 C 145.532 148.489,145.433 147.881,144.728 147.778 C 144.286 147.713,144.131 147.877,144.277 148.256 M247.606 158.900 C 247.611 159.628,247.686 159.685,248.000 159.200 C 248.501 158.424,248.501 158.000,248.000 158.000 C 247.780 158.000,247.603 158.405,247.606 158.900 M160.484 166.962 C 160.768 167.271,161.180 167.496,161.400 167.462 C 161.620 167.428,161.742 167.670,161.671 168.000 C 161.569 168.480,161.644 168.500,162.050 168.101 C 162.458 167.700,162.406 167.489,161.779 167.014 C 160.722 166.215,159.763 166.176,160.484 166.962 M300.800 175.434 C 299.490 175.970,299.477 175.992,300.600 175.775 C 301.260 175.648,301.971 175.376,302.180 175.172 C 302.659 174.703,302.521 174.729,300.800 175.434 M365.003 177.995 C 364.863 178.222,365.023 178.289,365.378 178.153 C 365.937 177.939,366.008 186.855,366.100 268.258 L 366.202 358.600 366.301 268.100 C 366.403 174.485,366.421 175.701,365.003 177.995 M225.900 178.557 C 224.920 179.301,224.949 180.163,225.933 179.549 C 226.448 179.227,227.079 177.843,226.633 178.013 C 226.615 178.020,226.285 178.265,225.900 178.557 M293.132 179.082 C 292.795 179.488,292.959 179.503,293.955 179.156 C 294.640 178.917,295.200 178.661,295.200 178.586 C 295.200 178.228,293.503 178.635,293.132 179.082 M176.800 180.773 C 177.350 181.237,178.205 181.959,178.700 182.378 C 179.195 182.797,179.594 183.018,179.587 182.870 C 179.569 182.482,178.400 180.987,178.400 181.351 C 178.400 181.518,177.815 181.267,177.100 180.793 C 175.840 179.957,175.831 179.957,176.800 180.773 M33.795 182.475 C 33.685 182.764,33.641 222.510,33.698 270.800 L 33.802 358.600 33.901 270.676 C 33.967 212.188,34.134 182.836,34.400 183.000 C 34.620 183.136,34.800 183.067,34.800 182.847 C 34.800 182.196,34.012 181.904,33.795 182.475 M352.203 184.005 C 352.423 184.360,351.894 184.573,351.100 184.447 C 350.935 184.421,350.800 184.592,350.800 184.827 C 350.800 185.084,351.159 185.145,351.700 184.982 C 352.993 184.591,353.353 184.144,352.606 183.858 C 352.229 183.713,352.061 183.774,352.203 184.005 M182.300 184.815 C 183.103 185.597,183.316 185.569,182.992 184.724 C 182.868 184.399,182.503 184.133,182.183 184.133 C 181.719 184.133,181.743 184.272,182.300 184.815 M40.749 185.735 C 41.380 186.500,42.400 186.623,42.400 185.933 C 42.400 185.677,42.286 185.580,42.147 185.719 C 42.008 185.858,41.513 185.769,41.047 185.520 C 40.284 185.114,40.254 185.135,40.749 185.735 M215.396 186.007 C 215.258 186.230,214.949 186.292,214.711 186.145 C 214.451 185.985,214.391 186.063,214.562 186.338 C 214.740 186.627,214.555 186.800,214.066 186.800 C 213.637 186.800,213.180 187.074,213.052 187.409 C 212.855 187.922,212.958 187.945,213.709 187.550 C 215.059 186.839,216.564 185.600,216.078 185.600 C 215.841 185.600,215.534 185.783,215.396 186.007 M185.600 186.709 C 185.600 187.094,186.867 188.066,187.086 187.848 C 187.222 187.711,187.191 187.600,187.018 187.600 C 186.844 187.600,186.896 187.366,187.134 187.080 C 187.468 186.677,187.343 186.560,186.583 186.560 C 186.042 186.560,185.600 186.627,185.600 186.709 M44.800 187.678 C 44.800 187.902,45.059 187.986,45.375 187.865 C 45.706 187.738,46.036 187.932,46.152 188.322 C 46.311 188.854,46.337 188.836,46.277 188.238 C 46.199 187.463,44.800 186.933,44.800 187.678 M124.533 188.514 C 124.533 188.797,124.853 189.029,125.245 189.029 C 125.779 189.029,125.849 188.901,125.529 188.514 C 125.294 188.231,124.974 188.000,124.818 188.000 C 124.661 188.000,124.533 188.231,124.533 188.514 M210.800 188.400 C 210.470 188.613,210.380 188.793,210.600 188.800 C 210.820 188.807,210.730 188.987,210.400 189.200 C 210.070 189.413,209.997 189.591,210.238 189.594 C 210.479 189.597,211.002 189.240,211.400 188.800 C 212.159 187.961,211.824 187.738,210.800 188.400 M47.600 189.085 C 47.930 189.207,48.386 189.453,48.613 189.631 C 48.841 189.809,49.291 189.768,49.613 189.539 C 50.099 189.196,50.082 189.162,49.513 189.345 C 49.135 189.466,48.719 189.393,48.589 189.183 C 48.459 188.972,48.048 188.814,47.676 188.832 C 47.126 188.857,47.112 188.905,47.600 189.085 M195.120 192.080 C 195.493 192.453,195.707 192.453,196.080 192.080 C 196.453 191.707,196.347 191.600,195.600 191.600 C 194.853 191.600,194.747 191.707,195.120 192.080 M132.800 192.424 C 132.800 192.657,132.965 192.745,133.168 192.620 C 133.370 192.495,133.822 192.679,134.171 193.028 C 134.521 193.378,135.031 193.589,135.304 193.497 C 135.577 193.404,135.224 193.030,134.520 192.664 C 133.019 191.886,132.800 191.855,132.800 192.424 M265.400 192.682 C 264.732 193.044,264.420 193.406,264.696 193.498 C 264.969 193.590,265.479 193.378,265.829 193.028 C 266.178 192.679,266.630 192.495,266.832 192.620 C 267.035 192.745,267.200 192.657,267.200 192.424 C 267.200 191.856,266.826 191.909,265.400 192.682 M148.500 200.100 C 148.591 200.375,149.006 200.666,149.420 200.746 C 150.073 200.873,150.102 200.805,149.638 200.246 C 149.004 199.482,148.262 199.386,148.500 200.100 M250.362 200.246 C 249.898 200.805,249.927 200.873,250.580 200.746 C 250.994 200.666,251.409 200.375,251.500 200.100 C 251.738 199.386,250.996 199.482,250.362 200.246 M74.588 201.220 C 74.440 201.458,74.383 201.686,74.460 201.727 C 74.537 201.767,75.016 202.033,75.524 202.318 C 76.384 202.801,76.419 202.782,76.022 202.041 C 75.462 200.995,74.919 200.684,74.588 201.220 M316.900 201.482 C 316.014 201.653,315.599 202.800,316.424 202.800 C 316.657 202.800,316.736 202.620,316.600 202.400 C 316.381 202.045,317.222 201.805,318.130 201.963 C 318.311 201.994,318.345 201.835,318.206 201.610 C 318.067 201.384,317.918 201.225,317.876 201.254 C 317.834 201.284,317.395 201.387,316.900 201.482 M153.455 202.600 C 153.582 202.930,153.949 203.200,154.271 203.200 C 154.779 203.200,154.778 203.120,154.257 202.600 C 153.927 202.270,153.560 202.000,153.441 202.000 C 153.322 202.000,153.329 202.270,153.455 202.600 M245.684 202.615 C 245.260 203.096,245.270 203.200,245.741 203.200 C 246.057 203.200,246.418 202.930,246.545 202.600 C 246.836 201.841,246.360 201.849,245.684 202.615 M314.100 202.944 C 313.605 203.189,313.214 203.662,313.232 203.995 C 313.253 204.406,313.328 204.439,313.465 204.100 C 313.576 203.825,314.022 203.600,314.457 203.600 C 314.892 203.600,315.145 203.435,315.021 203.234 C 314.897 203.033,315.021 202.777,315.298 202.666 C 315.574 202.554,315.620 202.471,315.400 202.481 C 315.180 202.490,314.595 202.699,314.100 202.944 M311.200 204.153 C 311.200 204.483,311.380 204.864,311.600 205.000 C 311.820 205.136,312.000 204.977,312.000 204.647 C 312.000 204.317,311.820 203.936,311.600 203.800 C 311.380 203.664,311.200 203.823,311.200 204.153 M80.795 204.589 C 81.342 204.886,81.928 205.044,82.098 204.940 C 82.267 204.835,82.514 205.031,82.646 205.375 C 82.948 206.162,83.467 206.189,83.467 205.418 C 83.467 205.097,83.329 204.920,83.161 205.024 C 82.993 205.128,82.740 205.027,82.600 204.800 C 82.460 204.573,82.177 204.491,81.972 204.617 C 81.768 204.744,81.600 204.695,81.600 204.509 C 81.600 204.323,81.195 204.143,80.700 204.109 C 79.824 204.050,79.826 204.062,80.795 204.589 M93.937 210.641 C 94.440 210.993,94.970 211.163,95.114 211.019 C 95.435 210.698,94.421 210.015,93.611 210.006 C 93.231 210.002,93.347 210.228,93.937 210.641 M107.200 216.400 C 106.533 216.614,106.433 216.734,106.900 216.760 C 107.285 216.782,107.600 216.980,107.600 217.200 C 107.600 217.420,108.005 217.595,108.500 217.588 C 109.311 217.577,109.330 217.535,108.692 217.163 C 108.302 216.936,108.088 216.582,108.215 216.375 C 108.343 216.169,108.392 216.018,108.324 216.040 C 108.256 216.062,107.750 216.224,107.200 216.400 M281.762 219.258 C 281.005 220.110,281.006 220.113,281.878 219.656 C 282.850 219.146,283.449 218.400,282.886 218.400 C 282.687 218.400,282.181 218.786,281.762 219.258 M278.750 219.800 C 278.723 219.910,278.678 220.187,278.650 220.415 C 278.623 220.643,278.330 221.000,278.000 221.208 C 277.558 221.488,277.539 221.589,277.929 221.594 C 278.562 221.601,279.600 220.629,279.600 220.029 C 279.600 219.609,278.848 219.406,278.750 219.800 M192.951 222.052 C 193.064 222.640,194.800 223.331,194.800 222.787 C 194.800 222.574,194.455 222.400,194.033 222.400 C 193.612 222.400,193.175 222.216,193.063 221.990 C 192.952 221.764,192.901 221.792,192.951 222.052 M206.800 221.933 C 206.800 222.190,206.440 222.400,206.000 222.400 C 205.560 222.400,205.200 222.580,205.200 222.800 C 205.200 223.359,205.712 223.299,206.623 222.633 C 207.050 222.321,207.264 221.931,207.099 221.766 C 206.935 221.601,206.800 221.677,206.800 221.933 M272.000 223.833 C 270.648 224.584,271.611 224.555,273.054 223.802 C 273.684 223.474,273.930 223.221,273.600 223.242 C 273.270 223.262,272.550 223.528,272.000 223.833 M198.662 225.300 C 198.764 225.465,199.407 225.600,200.090 225.600 C 200.774 225.600,201.214 225.481,201.069 225.336 C 200.699 224.966,198.435 224.933,198.662 225.300 M256.278 231.456 C 255.971 231.762,256.311 232.400,256.781 232.400 C 256.964 232.400,257.218 232.130,257.345 231.800 C 257.573 231.205,256.783 230.950,256.278 231.456 M157.787 240.421 C 157.589 240.742,159.258 241.275,159.549 240.984 C 159.650 240.883,159.513 240.800,159.243 240.800 C 158.973 240.800,158.845 240.650,158.959 240.467 C 159.072 240.283,158.895 240.133,158.565 240.133 C 158.235 240.133,157.885 240.263,157.787 240.421 M238.100 240.812 C 237.605 241.011,237.200 241.270,237.200 241.387 C 237.200 241.775,237.837 241.608,238.624 241.013 C 239.508 240.343,239.385 240.296,238.100 240.812 M235.144 242.424 L 234.200 243.247 235.400 242.545 C 236.979 241.620,237.003 241.600,236.511 241.600 C 236.279 241.600,235.664 241.971,235.144 242.424 M232.977 242.967 C 232.550 243.279,232.336 243.669,232.501 243.834 C 232.665 243.999,232.800 243.913,232.800 243.643 C 232.800 243.373,232.961 243.252,233.158 243.374 C 233.355 243.496,233.619 243.326,233.746 242.998 C 234.029 242.259,233.950 242.256,232.977 242.967 M164.560 243.531 C 165.013 243.985,165.317 244.043,165.625 243.735 C 165.933 243.427,165.752 243.246,164.991 243.100 C 164.018 242.914,163.980 242.952,164.560 243.531 M177.839 249.538 C 177.700 249.761,177.782 250.065,178.020 250.212 C 178.635 250.593,179.032 250.072,178.518 249.558 C 178.231 249.271,178.007 249.264,177.839 249.538 M183.022 252.107 C 183.170 252.496,183.496 252.773,183.746 252.723 C 183.995 252.673,184.650 252.860,185.200 253.139 L 186.200 253.645 185.317 252.872 C 184.831 252.447,184.561 251.948,184.717 251.763 C 184.873 251.578,184.717 251.641,184.370 251.904 C 183.882 252.274,183.631 252.271,183.247 251.890 C 182.856 251.502,182.809 251.547,183.022 252.107 M189.424 255.372 C 189.851 255.687,190.257 255.787,190.326 255.595 C 190.395 255.402,190.755 255.342,191.126 255.460 C 191.702 255.644,191.713 255.613,191.200 255.244 C 190.870 255.006,190.161 254.809,189.624 254.806 C 188.682 254.800,188.675 254.820,189.424 255.372 " stroke="none" fill="#fcd46c" fill-rule="evenodd"></path></g></svg>