<?xml version="1.0" encoding="UTF-8"?>
<!DOCTYPE svg PUBLIC "-//W3C//DTD SVG 1.1//EN" "http://www.w3.org/Graphics/SVG/1.1/DTD/svg11.dtd">
<!-- Creator: CorelDRAW X6 -->
<svg xmlns="http://www.w3.org/2000/svg" xml:space="preserve" width="36px" height="36px" version="1.1" style="shape-rendering:geometricPrecision; text-rendering:geometricPrecision; image-rendering:optimizeQuality; fill-rule:evenodd; clip-rule:evenodd"
viewBox="0 0 36000 36000"
 xmlns:xlink="http://www.w3.org/1999/xlink">
 <defs>
  <style type="text/css">
   <![CDATA[
    .fil0 {fill:#FAD052}
   ]]>
  </style>
 </defs>
 <g id="Слой_x0020_1">
  <metadata id="CorelCorpID_0Corel-Layer"/>
  <path class="fil0" d="M5733 850l1745 0 9711 0 1625 0 9711 0 1743 0 0 1745 0 6394 5232 3488 0 21051 0 1622 -1162 0 -15524 0 -1625 0 -15525 0 -1162 0 0 -1622 0 -21051 5231 -3488 0 -6394 0 -1745zm12289 5702c1368,-1480 4063,-1581 5403,39 1256,1520 895,4535 -991,6463 -1171,1196 -2303,1928 -3141,2359 -725,375 -991,551 -1292,530 -302,21 -568,-155 -1293,-530 -838,-431 -1969,-1163 -3141,-2359 -1905,-1948 -2254,-5006 -952,-6510 1383,-1594 4052,-1413 5364,8l15 -17 0 -14 7 7 6 -7 0 14 15 17zm4409 2846c17,895 -277,1890 -1059,2689 -895,915 -1761,1474 -2400,1804 -1011,522 -854,540 -1825,59 -648,-320 -1566,-891 -2517,-1863 -805,-822 -1100,-1848 -1072,-2761 81,-2576 2462,-3209 4198,-1677l-8 9 19 17c-576,651 -877,1562 -839,2191 88,1465 2153,1465 2242,0 38,-630 -263,-1540 -838,-2191 7,-7 14,-13 21,-19l-6 -6c1778,-1570 4041,-814 4084,1748zm-5096 461c-55,-322 9,-747 300,-1296 124,-236 266,-439 417,-614 151,175 292,377 417,613 294,558 355,988 296,1312 -78,422 -302,667 -552,739 -139,44 -286,30 -420,-37 -213,-106 -394,-345 -458,-717zm-3694 -2413c-981,1222 -685,3611 812,5142 937,957 1841,1542 2511,1888 578,297 790,438 1030,422l0 0 7 0 6 0 0 0c240,16 454,-125 1031,-422 669,-346 1575,-931 2511,-1888 1446,-1479 1772,-3757 908,-5012 -987,-1435 -3216,-1159 -4407,-74 -1154,-1052 -3362,-1361 -4409,-56zm5173 -4851l-1625 0 -9711 0 0 12582 9711 4669 0 -57 812 390 813 -390 0 57 9711 -4669 0 -12582 -9711 0zm-813 19449l-60 30 -15488 -7661 -61 18751 14797 0 1625 0 14797 0 -62 -18751 -15489 7661 -59 -30zm12267 -7705l0 -3993 3481 2319 -3481 1674zm-24535 0l0 -3993 -3479 2319 3479 1674z"/>
 </g>
</svg>
