<?xml version="1.0" encoding="UTF-8"?>
<!DOCTYPE svg PUBLIC "-//W3C//DTD SVG 1.1//EN" "http://www.w3.org/Graphics/SVG/1.1/DTD/svg11.dtd">
<!-- Creator: CorelDRAW X6 -->
<svg xmlns="http://www.w3.org/2000/svg" xml:space="preserve" width="3.3866mm" height="3.3866mm" version="1.1" style="shape-rendering:geometricPrecision; text-rendering:geometricPrecision; image-rendering:optimizeQuality; fill-rule:evenodd; clip-rule:evenodd"
viewBox="0 0 339 339"
 xmlns:xlink="http://www.w3.org/1999/xlink">
 <defs>
  <style type="text/css">
   <![CDATA[
    .fil0 {fill:#434242}
   ]]>
  </style>
 </defs>
 <g id="Слой_x0020_1">
  <metadata id="CorelCorpID_0Corel-Layer"/>
  <path class="fil0" d="M103 56l133 0 31 0 23 0 5 0c6,0 14,3 20,10 -15,12 -44,36 -79,65 -21,17 -35,28 -43,34 -20,15 -23,17 -44,2 -9,-6 -23,-17 -45,-36 -35,-28 -64,-52 -79,-65 6,-8 14,-10 20,-10l5 0 23 0 31 0zm-100 207l0 -5c0,-3 1,-5 1,-5l0 -22 0 -125 0 -22c0,0 0,-2 -1,-5l0 -5c1,-13 8,-34 45,-34l55 0 0 0 0 0 0 0 0 0 0 0 1 0 1 0 1 0 1 0 1 0 1 0 2 0 0 0 2 0 2 0 0 0 2 0 2 0 0 0 2 0 1 0 1 0 3 0 0 0 2 0 2 0 1 0 3 0 0 0 3 0 1 0 2 0 2 0 2 0 2 0 1 0 3 0 0 0 3 0 0 0 3 0 0 0 3 0 1 0 3 0 1 0 3 0 1 0 3 0 1 0 3 0 1 0 3 0 0 0 3 0 0 0 3 0 0 0 3 0 1 0 2 0 2 0 2 0 2 0 1 0 3 0 0 0 3 0 1 0 2 0 2 0 0 0 3 0 1 0 1 0 2 0 0 0 2 0 2 0 0 0 2 0 2 0 0 0 2 0 1 0 1 0 1 0 1 0 1 0 1 0 0 0 0 0 0 0 0 0 0 0 55 0c54,0 44,44 44,44l0 22 0 125 0 22c0,0 10,44 -44,44l-55 0 0 0 0 0 0 0 0 0 0 0 -1 0 -1 0 -1 0 -1 0 -1 0 -1 0 -2 0 0 0 -2 0 -2 0 0 0 -2 0 -2 0 0 0 -2 0 -1 0 -1 0 -3 0 0 0 -2 0 -2 0 -1 0 -3 0 0 0 -3 0 -1 0 -2 0 -2 0 -2 0 -2 0 -1 0 -3 0 0 0 -3 0 0 0 -3 0 0 0 -3 0 -1 0 -3 0 -1 0 -3 0 -1 0 -3 0 -1 0 -3 0 -1 0 -3 0 0 0 -3 0 0 0 -3 0 0 0 -3 0 -1 0 -2 0 -2 0 -2 0 -2 0 -1 0 -3 0 0 0 -3 0 -1 0 -2 0 -2 0 0 0 -3 0 -1 0 -1 0 -2 0 0 0 -2 0 -2 0 0 0 -2 0 -2 0 0 0 -2 0 -1 0 -1 0 -1 0 -1 0 -1 0 -1 0 0 0 0 0 0 0 0 0 0 0 -55 0c-37,0 -44,-21 -45,-34zm317 -180c0,1 0,2 0,3l0 20 0 0 0 0 0 0 0 0 0 1 0 1 0 1 0 0 0 1 0 1 0 1 0 1 0 1 0 1 0 1 0 2 0 0 0 1 0 1 0 0 0 2 0 1 0 2 0 1 0 1 0 2 0 0 0 2 0 1 0 2 0 1 0 1 0 2 0 1 0 2 0 0 0 3 0 0 0 3 0 1 0 2 0 1 0 2 0 1 0 2 0 1 0 2 0 2 0 1 0 2 0 1 0 2 0 1 0 2 0 1 0 2 0 1 0 2 0 1 0 2 0 1 0 2 0 2 0 1 0 2 0 1 0 2 0 1 0 2 0 1 0 3 0 0 0 3 0 0 0 2 0 1 0 2 0 1 0 1 0 2 0 1 0 2 0 0 0 2 0 1 0 1 0 2 0 1 0 2 0 0 0 1 0 1 0 0 0 2 0 1 0 1 0 1 0 1 0 1 0 1 0 1 0 0 0 1 0 1 0 1 0 0 0 0 0 0 0 0 0 20c0,25 -17,29 -25,30l-5 0 -23 0 -31 0 -133 0 -31 0 -23 0 -5 0c-9,-1 -25,-5 -25,-30l0 -20 0 0 0 0 0 0 0 0 0 -1 0 -1 0 -1 0 0 0 -1 0 -1 0 -1 0 -1 0 -1 0 -1 0 -1 0 -2 0 0 0 -1 0 -1 0 0 0 -2 0 -1 0 -2 0 -1 0 -1 0 -2 0 0 0 -2 0 -1 0 -2 0 -1 0 -1 0 -2 0 -1 0 -2 0 0 0 -3 0 0 0 -3 0 -1 0 -2 0 -1 0 -2 0 -1 0 -2 0 -1 0 -2 0 -2 0 -1 0 -2 0 -1 0 -2 0 -1 0 -2 0 -1 0 -2 0 -1 0 -2 0 -1 0 -2 0 -1 0 -2 0 -2 0 -1 0 -2 0 -1 0 -2 0 -1 0 -2 0 -1 0 -3 0 0 0 -3 0 0 0 -2 0 -1 0 -2 0 -1 0 -1 0 -2 0 -1 0 -2 0 0 0 -2 0 -1 0 -1 0 -2 0 -1 0 -2 0 0 0 -1 0 -1 0 0 0 -2 0 -1 0 -1 0 -1 0 -1 0 -1 0 -1 0 -1 0 0 0 -1 0 -1 0 -1 0 0 0 0 0 0 0 0 0 -20c0,-1 0,-2 0,-3l91 77c1,0 6,6 15,12 18,12 31,23 44,24 15,1 29,-11 49,-26 7,-6 12,-10 12,-10l91 -77z"/>
 </g>
</svg>
