<svg xmlns="http://www.w3.org/2000/svg" width="64" height="64" viewBox="0 0 64000 64000" shape-rendering="geometricPrecision" text-rendering="geometricPrecision" image-rendering="optimizeQuality" fill-rule="evenodd" clip-rule="evenodd"><path d="M32000 999c17121 0 31001 13880 31001 31001S49121 63001 32000 63001 999 49121 999 32000 14879 999 32000 999zm-8196 43235h16392c653 0 1187 534 1187 1188 0 653-534 1187-1187 1187H23804c-653 0-1188-534-1188-1187 0-654 535-1188 1188-1188zm-2177-29457c4967 0 8993 4681 8993 10453 0 5773-4026 10453-8993 10453s-8994-4680-8994-10453c0-5772 4027-10453 8994-10453zm-68 9125c2023 0 3664 1942 3664 4337 0 2396-1641 4337-3664 4337s-3664-1941-3664-4337c0-2395 1641-4337 3664-4337zm20882 0c2023 0 3664 1942 3664 4337 0 2396-1641 4337-3664 4337s-3664-1941-3664-4337c0-2395 1641-4337 3664-4337zm-68-9125c4967 0 8994 4681 8994 10453 0 5773-4027 10453-8994 10453s-8993-4680-8993-10453c0-5772 4026-10453 8993-10453zm0 1579c4217 0 7635 3973 7635 8874 0 4900-3418 8874-7635 8874s-7635-3974-7635-8874c0-4901 3418-8874 7635-8874zm-20746 0c4217 0 7635 3973 7635 8874 0 4900-3418 8874-7635 8874s-7635-3974-7635-8874c0-4901 3418-8874 7635-8874zM32000 3137c15940 0 28863 12923 28863 28863S47940 60863 32000 60863 3137 47940 3137 32000 16060 3137 32000 3137z" fill="#d9dada"/></svg>