<?xml version="1.0" encoding="UTF-8"?>
<!DOCTYPE svg PUBLIC "-//W3C//DTD SVG 1.1//EN" "http://www.w3.org/Graphics/SVG/1.1/DTD/svg11.dtd">
<!-- Creator: CorelDRAW X6 -->
<svg xmlns="http://www.w3.org/2000/svg" xml:space="preserve" width="5.08mm" height="5.08mm" version="1.1" style="shape-rendering:geometricPrecision; text-rendering:geometricPrecision; image-rendering:optimizeQuality; fill-rule:evenodd; clip-rule:evenodd"
viewBox="0 0 508 508"
 xmlns:xlink="http://www.w3.org/1999/xlink">
 <defs>
  <style type="text/css">
   <![CDATA[
    .fil0 {fill:#DDDDDD}
   ]]>
  </style>
 </defs>
 <g id="Слой_x0020_1">
  <metadata id="CorelCorpID_0Corel-Layer"/>
  <path class="fil0" d="M380 136c0,0 8,-101 -83,-125 -5,-2 -13,-4 -25,-4l0 0c-6,-1 -12,-1 -18,-1l-4 0 -4 0c-6,0 -12,0 -18,1l0 0c-12,1 -20,2 -25,4 -46,12 -66,44 -76,72 -2,7 -4,14 -5,22 -1,8 -2,16 -2,21 -1,11 -1,22 -1,35l0 10 0 11 0 1 0 21c0,6 5,11 11,11l0 0c6,0 11,-5 11,-11 0,-64 26,-41 55,-89 5,-8 11,-12 16,-14l0 0c0,0 18,-5 25,7 31,52 122,6 122,68 0,11 0,18 1,23l0 5c0,6 5,11 11,11l0 0c6,0 11,-5 11,-11l0 -16 0 -17 0 0 0 -15c0,-7 0,-14 0,-20l0 0zm-6 236c0,0 -31,55 -118,55 -1,0 -2,0 -2,0 -1,0 -2,0 -2,0 -87,0 -118,-55 -118,-55 -33,2 -40,10 -44,20 -18,50 63,99 131,109 19,3 48,3 66,0 68,-10 148,-59 130,-108 -4,-11 -11,-19 -44,-20zm-155 -248c3,0 5,2 8,6 30,47 113,3 113,56 0,29 5,44 16,50 11,5 11,13 9,23 -2,10 -11,25 -32,44 -21,20 -35,26 -22,39 14,14 35,13 31,27 -12,43 -118,46 -162,23 -35,-18 -10,-32 -10,-32 0,0 26,-17 29,-23 3,-7 -1,-18 -29,-47 -28,-29 -23,-42 -23,-68 0,-6 7,-38 16,-50 19,-25 50,-47 55,-46l0 0z"/>
 </g>
</svg>
