<?xml version="1.0" encoding="UTF-8"?>
<!DOCTYPE svg PUBLIC "-//W3C//DTD SVG 1.1//EN" "http://www.w3.org/Graphics/SVG/1.1/DTD/svg11.dtd">
<!-- Creator: CorelDRAW 2017 -->
<svg xmlns="http://www.w3.org/2000/svg" xml:space="preserve" width="2.54mm" height="2.54mm" version="1.1" style="shape-rendering:geometricPrecision; text-rendering:geometricPrecision; image-rendering:optimizeQuality; fill-rule:evenodd; clip-rule:evenodd"
viewBox="0 0 254 254"
 xmlns:xlink="http://www.w3.org/1999/xlink">
 <defs>
  <style type="text/css">
   <![CDATA[
    .fil0 {fill:#FEFEFE}
    .fil1 {fill:#898989}
   ]]>
  </style>
 </defs>
 <g id="Слой_x0020_1">
  <metadata id="CorelCorpID_0Corel-Layer"/>
  <g id="_1043719696">
   <polygon class="fil0" points="2.67,50.96 252.65,50.96 252.65,203.04 2.67,203.04 "/>
   <path class="fil1" d="M1.36 50.96l1.31 0 41.96 0 163.44 0 41.96 0 1.31 0 0 1.48 0 11.92 0 27.39c-24.14,-3.09 -34.86,-16.72 -39.59,-27.39l-170.81 0c-4.73,10.67 -15.44,24.3 -39.58,27.39l0 -27.39 0 -11.92 0 -1.48zm206.71 152.08c0,0 2.33,-35.54 43.27,-40.79l0 39.32c-0.82,0.94 -1.31,1.47 -1.31,1.47l-41.96 0zm-163.44 0c0,0 -2.34,-35.54 -43.27,-40.79l0 39.32c0.82,0.94 1.31,1.47 1.31,1.47l41.96 0z"/>
   <polygon class="fil1" points="1.36,189.64 251.34,189.64 251.34,203.04 1.36,203.04 "/>
   <polygon class="fil1" points="1.36,203.04 1.36,50.96 14.76,50.96 14.76,203.04 "/>
   <polygon class="fil1" points="237.93,203.04 237.93,50.96 251.34,50.96 251.34,203.04 "/>
   <path class="fil1" d="M57.82 94.66l11.66 0 10.48 0 0 10.49 0 54.19 -10.48 0 0 -54.19 -11.66 0 0 -10.49zm42.82 -0.29l38.12 0c1.7,0 3.09,1.39 3.09,3.08l0 59.1c0,1.69 -1.39,3.08 -3.09,3.08l-38.12 0c-1.69,0 -3.08,-1.39 -3.08,-3.08l0 -59.1c0,-1.69 1.39,-3.08 3.08,-3.08zm55.65 0l38.12 0c1.7,0 3.08,1.39 3.08,3.08l0 59.1c0,1.69 -1.38,3.08 -3.08,3.08l-38.12 0c-1.7,0 -3.08,-1.39 -3.08,-3.08l0 -59.1c0,-1.69 1.38,-3.08 3.08,-3.08zm31.88 17.58l0 30.1 0 4.11c0,0.98 -0.8,1.79 -1.78,1.79l-22.07 0c-0.99,0 -1.79,-0.81 -1.79,-1.79l0 -4.11 0 -30.1 0 -4.11c0,-0.98 0.8,-1.78 1.79,-1.78l22.07 0c0.98,0 1.78,0.8 1.78,1.78l0 4.11zm-55.65 0l0 30.1 0 4.11c0,0.98 -0.8,1.79 -1.78,1.79l-22.07 0c-0.98,0 -1.79,-0.81 -1.79,-1.79l0 -4.11 0 -30.1 0 -4.11c0,-0.98 0.81,-1.78 1.79,-1.78l22.07 0c0.98,0 1.78,0.8 1.78,1.78l0 4.11z"/>
  </g>
 </g>
</svg>
