<?xml version="1.0" encoding="UTF-8"?>
<!DOCTYPE svg PUBLIC "-//W3C//DTD SVG 1.1//EN" "http://www.w3.org/Graphics/SVG/1.1/DTD/svg11.dtd">
<!-- Creator: CorelDRAW 2017 -->
<svg xmlns="http://www.w3.org/2000/svg" xml:space="preserve" width="2.54mm" height="2.54mm" version="1.1" style="shape-rendering:geometricPrecision; text-rendering:geometricPrecision; image-rendering:optimizeQuality; fill-rule:evenodd; clip-rule:evenodd"
viewBox="0 0 254 254"
 xmlns:xlink="http://www.w3.org/1999/xlink">
 <defs>
  <style type="text/css">
   <![CDATA[
    .fil0 {fill:#FEFEFE}
    .fil1 {fill:#898989}
   ]]>
  </style>
 </defs>
 <g id="Слой_x0020_1">
  <metadata id="CorelCorpID_0Corel-Layer"/>
  <g id="_1042370912">
   <polygon class="fil0" points="1.24,44.77 229.51,44.77 229.51,187.96 1.24,187.96 "/>
   <path class="fil1" d="M64.78 136.52l20.27 0c1.05,0 1.9,0.86 1.9,1.89l0 5.96c0,1.03 -0.86,1.89 -1.9,1.89l-34.26 0c-1.03,0 -1.89,-0.85 -1.89,-1.89l0 -5.96c0,-0.56 0.25,-1.06 0.64,-1.41l0.02 -0.02 0 0 27.98 -24.89 0 -15.88 -19.71 0 0 5.96c0,1.04 -0.86,1.9 -1.89,1.9l-5.22 0c-1.03,0 -1.89,-0.85 -1.89,-1.9l0 -13.74c0,-1.04 0.85,-1.9 1.89,-1.9l0.92 0 4.3 0 21.6 0 3.15 0 3.21 0 1.42 0c1.05,0 1.9,0.86 1.9,1.9l0 1.6 0 2.14 0 0.01 0 0.04 0 0.05 0 0.08 0 0.1 0 0.12 0 0.13 0 0.16 0 0.17 0 0.19 0 0.21 0 0.23 0 0.24 0 0.25 0 0.16 0 0.11 0 0.28 0 0.3 0 0.31 0 0.32 0 0.33 0 0.25 0 0.09 0 0.35 0 0.37 0 0.37 0 0.37 0 0.39 0 0.39 0 0.4 0 0.4 0 0.41 0 0.42 0 0.41 0 0.42 0 0.43 0 0.42 0 0.42 0 0.43 0 0.43 0 0.42 0 0.42 0 0.43 0 0.41 0 0.42 0 0.41 0 0.41 0 0.4 0 0.4 0 0.39 0 0.38 0 0.37 0 0.37 0 0.36 0 0.35 0 0.33 0 0.33 0 0.32 0 0.3 0 0.29 0 0.28 0 0.26 0 0.25 0 2.13 0 0.22 0 0.2c0,4.12 -22.44,22.54 -22.44,22.54zm-64.78 38.82l0 -25.79 0 -66.38 0 -25.78 0 -11.23 0 -1.39 1.24 0 11.38 0 28.12 0 153.88 0 28.12 0 11.38 0 1.24 0 0 1.39 0 11.23 0 25.78 0 66.38 0 25.79 0 11.23 0 1.39 -40.74 0 -153.88 0 -40.74 0 0 -1.39 0 -11.23zm198.09 0c3.53,-7.95 10.58,-17.65 24.65,-22.79l0 -72.37c-14.07,-5.14 -21.12,-14.84 -24.65,-22.79l-160.82 0c-3.53,7.95 -10.58,17.65 -24.65,22.79l0 72.37c14.07,5.14 21.12,14.84 24.65,22.79l160.82 0zm-180.68 33.89l225.2 0 10.15 0 1.24 0 0 -143.19 -11.39 0 0 130.57 -225.2 0 0 12.62zm82.25 -122.97l35.16 0c1.57,0 2.85,1.28 2.85,2.85l0 54.51c0,1.56 -1.28,2.84 -2.85,2.84l-35.16 0c-1.56,0 -2.84,-1.28 -2.84,-2.84l0 -54.51c0,-1.57 1.28,-2.85 2.84,-2.85zm51.33 0l35.17 0c1.56,0 2.84,1.28 2.84,2.85l0 54.51c0,1.56 -1.28,2.84 -2.84,2.84l-35.17 0c-1.56,0 -2.84,-1.28 -2.84,-2.84l0 -54.51c0,-1.57 1.28,-2.85 2.84,-2.85zm29.41 16.22l0 27.77 0 3.79c0,0.9 -0.74,1.64 -1.65,1.64l-20.36 0c-0.9,0 -1.64,-0.74 -1.64,-1.64l0 -3.79 0 -27.77 0 -3.79c0,-0.91 0.74,-1.65 1.64,-1.65l20.36 0c0.91,0 1.65,0.74 1.65,1.65l0 3.79zm-51.33 0l0 27.77 0 3.79c0,0.9 -0.74,1.64 -1.65,1.64l-20.36 0c-0.9,0 -1.64,-0.74 -1.64,-1.64l0 -3.79 0 -27.77 0 -3.79c0,-0.91 0.74,-1.65 1.64,-1.65l20.36 0c0.91,0 1.65,0.74 1.65,1.65l0 3.79z"/>
  </g>
 </g>
</svg>
