<?xml version="1.0" encoding="UTF-8"?>
<!DOCTYPE svg PUBLIC "-//W3C//DTD SVG 1.1//EN" "http://www.w3.org/Graphics/SVG/1.1/DTD/svg11.dtd">
<!-- Creator: CorelDRAW 2017 -->
<svg xmlns="http://www.w3.org/2000/svg" xml:space="preserve" width="2.54mm" height="2.54mm" version="1.1" style="shape-rendering:geometricPrecision; text-rendering:geometricPrecision; image-rendering:optimizeQuality; fill-rule:evenodd; clip-rule:evenodd"
viewBox="0 0 254 254"
 xmlns:xlink="http://www.w3.org/1999/xlink">
 <defs>
  <style type="text/css">
   <![CDATA[
    .fil1 {fill:#FEFEFE}
    .fil0 {fill:#898989}
   ]]>
  </style>
 </defs>
 <g id="Слой_x0020_1">
  <metadata id="CorelCorpID_0Corel-Layer"/>
  <g id="_1042372864">
   <g>
    <path class="fil0" d="M126.05 216.84l115.4 0c2.24,0 4.08,-1.84 4.08,-4.08l0 -12.96c0,-2.25 -1.84,-4.08 -4.08,-4.08l-115.4 0c-2.24,0 -4.08,1.83 -4.08,4.08l0 12.96c0,2.24 1.84,4.08 4.08,4.08z"/>
    <path class="fil1" d="M126.05 195.43l115.4 0c2.24,0 4.08,-1.84 4.08,-4.08l0 -12.97c0,-2.24 -1.84,-4.08 -4.08,-4.08l-115.4 0c-2.24,0 -4.08,1.84 -4.08,4.08l0 12.97c0,2.24 1.84,4.08 4.08,4.08z"/>
    <path class="fil0" d="M126.05 173.44l115.4 0c2.24,0 4.08,-1.84 4.08,-4.08l0 -12.97c0,-2.24 -1.84,-4.08 -4.08,-4.08l-115.4 0c-2.24,0 -4.08,1.84 -4.08,4.08l0 12.97c0,2.24 1.84,4.08 4.08,4.08z"/>
    <path class="fil1" d="M126.05 152.02l115.4 0c2.24,0 4.08,-1.83 4.08,-4.08l0 -12.96c0,-2.24 -1.84,-4.08 -4.08,-4.08l-115.4 0c-2.24,0 -4.08,1.84 -4.08,4.08l0 12.96c0,2.25 1.84,4.08 4.08,4.08z"/>
    <path class="fil0" d="M126.05 130.61l115.4 0c2.24,0 4.08,-1.84 4.08,-4.08l0 -12.96c0,-2.25 -1.84,-4.08 -4.08,-4.08l-115.4 0c-2.24,0 -4.08,1.83 -4.08,4.08l0 12.96c0,2.24 1.84,4.08 4.08,4.08z"/>
   </g>
   <path class="fil1" d="M105.45 37.16c50.18,0 90.86,40.68 90.86,90.86 0,50.18 -40.68,90.86 -90.86,90.86 -50.18,0 -90.86,-40.68 -90.86,-90.86 0,-50.18 40.68,-90.86 90.86,-90.86z"/>
   <g>
    <g>
     <path class="fil0" d="M99.33 35.12c50.18,0 90.86,40.68 90.86,90.86 0,50.18 -40.68,90.86 -90.86,90.86 -50.18,0 -90.86,-40.68 -90.86,-90.86 0,-50.18 40.68,-90.86 90.86,-90.86z"/>
     <path class="fil1" d="M99.33 53.06c40.27,0 72.92,32.65 72.92,72.92 0,40.27 -32.65,72.92 -72.92,72.92 -40.27,0 -72.92,-32.65 -72.92,-72.92 0,-40.27 32.65,-72.92 72.92,-72.92z"/>
    </g>
    <path class="fil0" d="M64.45 91.78l9.84 0 0 68.4 -9.84 0 0 -68.4zm28.88 0.78l33.57 0c4.02,0 7.31,3.29 7.31,7.31l0 52.22c0,4.02 -3.29,7.31 -7.31,7.31l-33.57 0c-4.02,0 -7.31,-3.29 -7.31,-7.31l0 -52.22c0,-4.02 3.29,-7.31 7.31,-7.31zm6.69 10.14l20.19 0c2.8,0 5.09,2.29 5.09,5.09l0 36.38c0,2.8 -2.29,5.09 -5.09,5.09l-20.19 0c-2.8,0 -5.09,-2.29 -5.09,-5.09l0 -36.38c0,-2.8 2.29,-5.09 5.09,-5.09z"/>
   </g>
  </g>
 </g>
</svg>
