<?xml version="1.0" encoding="UTF-8"?>
<!DOCTYPE svg PUBLIC "-//W3C//DTD SVG 1.1//EN" "http://www.w3.org/Graphics/SVG/1.1/DTD/svg11.dtd">
<!-- Creator: CorelDRAW 2017 -->
<svg xmlns="http://www.w3.org/2000/svg" xml:space="preserve" width="2.54mm" height="2.54mm" version="1.1" style="shape-rendering:geometricPrecision; text-rendering:geometricPrecision; image-rendering:optimizeQuality; fill-rule:evenodd; clip-rule:evenodd"
viewBox="0 0 254 254"
 xmlns:xlink="http://www.w3.org/1999/xlink">
 <defs>
  <style type="text/css">
   <![CDATA[
    .fil0 {fill:#FEFEFE}
    .fil1 {fill:#898989}
   ]]>
  </style>
 </defs>
 <g id="Слой_x0020_1">
  <metadata id="CorelCorpID_0Corel-Layer"/>
  <polygon class="fil0" points="19.59,59.62 234.41,59.62 234.41,194.38 19.59,194.38 "/>
  <path class="fil1" d="M33.26 214.67l211.94 0 9.55 0 1.16 0 0 -134.75 -10.71 0 0 122.88 -211.94 0 0 11.87zm27.47 -103.26l0.15 -0.12 -0.21 0c-1,0 -1.82,-0.82 -1.82,-1.82l0 -5.85c0,-1 0.82,-1.82 1.82,-1.82l0.06 0 10.33 0 0 -5.84 0 -8.68 -18.55 0 0 5.62c0,0.97 -0.81,1.78 -1.78,1.78l-4.91 0c-0.97,0 -1.78,-0.8 -1.78,-1.78l0 -12.94c0,-0.98 0.8,-1.78 1.78,-1.78l0.86 0 4.05 0 20.33 0 2.96 0 3.02 0 1.34 0c0.99,0 1.79,0.81 1.79,1.78l0 1.51 0 2.01 0 0.01 0 0.04 0 0.05 0 0.07 0 0.09 0 0.11 0 0.13 0 0.15 0 0.16 0 0.18 0 0.2 0 0.21 0 0.23 0 0.24 0 0.15 0 0.1 0 0.27 0 0.27 0 0.3 0 0.3 0 0.31 0 0.23 0 0.09 0 0.33 0 0.34 0 0.35 0 0.36 0 0.36 0 0.37 0 0.37 0 0.38 0 0.39 0 0.39 0 0.39 0 0.4 0 0.39 0 0.4 0 0.4 0 0.4 0 0.4 0 0.4 0 0.4 0 0.4 0 0.39 0 0.39 0 0.19 0 0.2 0 0.38 0 0.38 0 0.37 0 0.37 0 0.36 0 0.35 0 0.35 0 0.34 0 0.32 0 0.32 0 0.31 0 0.3 0 0.28 0 0.28 0 0.26 0 0.25 0 0.23 0 9.99 0 0.23 0 0.25 0 0.26 0 0.28 0 0.28 0 0.3 0 0.31 0 0.32 0 0.32 0 0.34 0 0.18 0 0.17 0 0.35 0 0.36 0 0.37 0 0.37 0 0.38 0 0.38 0 0.39 0 0.39 0 0.39 0 0.4 0 0.4 0 0.4 0 0.4 0 0.4 0 0.4 0 0.4 0 0.39 0 0.4 0 0.39 0 0.39 0 0.39 0 0.38 0 0.37 0 0.37 0 0.36 0 0.36 0 0.35 0 0.34 0 0.33 0 0.09 0 0.23 0 0.31 0 0.3 0 0.3 0 0.27 0 0.27 0 0.1 0 0.15 0 0.24 0 0.23 0 0.21 0 0.2 0 0.18 0 0.16 0 0.15 0 0.13 0 0.11 0 0.09 0 0.07 0 0.05 0 0.04 0 0.01 0 2.01 0 1.51c0,0.97 -0.8,1.78 -1.79,1.78l-1.34 0 -3.02 0 -2.96 0 -20.33 0 -4.05 0 -0.86 0c-0.98,0 -1.78,-0.8 -1.78,-1.78l0 -12.94c0,-0.98 0.81,-1.78 1.78,-1.78l4.91 0c0.97,0 1.78,0.81 1.78,1.78l0 5.62 18.55 0 0 -11.26 0 -3.26 -10.33 0zm-62.64 50.8l0 -24.27 0 -62.47 0 -24.27 0 -10.56 0 -1.31 1.16 0 10.71 0 26.47 0 144.81 0 26.47 0 10.71 0 1.16 0 0 1.31 0 10.56 0 24.27 0 62.47 0 24.27 0 10.56 0 1.31 -38.34 0 -144.81 0 -38.34 0 0 -1.31 0 -10.56zm186.42 0c3.32,-7.48 9.96,-16.61 23.2,-21.45l0 -68.11c-13.24,-4.84 -19.88,-13.97 -23.2,-21.45l-151.35 0c-3.32,7.48 -9.96,16.61 -23.2,21.45l0 68.11c13.24,4.84 19.88,13.97 23.2,21.45l151.35 0zm-170.04 31.89l211.94 0 9.55 0 1.16 0 0 -134.75 -10.71 0 0 122.88 -211.94 0 0 11.87zm77.41 -115.72l33.09 0c1.47,0 2.67,1.2 2.67,2.67l0 51.31c0,1.47 -1.2,2.67 -2.67,2.67l-33.09 0c-1.47,0 -2.68,-1.2 -2.68,-2.67l0 -51.31c0,-1.47 1.21,-2.67 2.68,-2.67zm48.3 0l33.1 0c1.47,0 2.67,1.2 2.67,2.67l0 51.31c0,1.47 -1.2,2.67 -2.67,2.67l-33.1 0c-1.47,0 -2.67,-1.2 -2.67,-2.67l0 -51.31c0,-1.47 1.2,-2.67 2.67,-2.67zm27.68 15.26l0 26.13 0 3.57c0,0.85 -0.7,1.55 -1.55,1.55l-19.16 0c-0.85,0 -1.55,-0.7 -1.55,-1.55l0 -3.57 0 -26.13 0 -3.57c0,-0.85 0.7,-1.55 1.55,-1.55l19.16 0c0.85,0 1.55,0.7 1.55,1.55l0 3.57zm-48.31 0l0 26.13 0 3.57c0,0.85 -0.7,1.55 -1.55,1.55l-19.16 0c-0.85,0 -1.55,-0.7 -1.55,-1.55l0 -3.57 0 -26.13 0 -3.57c0,-0.85 0.7,-1.55 1.55,-1.55l19.16 0c0.85,0 1.55,0.7 1.55,1.55l0 3.57z"/>
 </g>
</svg>
