<?xml version="1.0" encoding="UTF-8"?>
<!DOCTYPE svg PUBLIC "-//W3C//DTD SVG 1.1//EN" "http://www.w3.org/Graphics/SVG/1.1/DTD/svg11.dtd">
<!-- Creator: CorelDRAW X6 -->
<svg xmlns="http://www.w3.org/2000/svg" xml:space="preserve" width="30px" height="30px" version="1.1" style="shape-rendering:geometricPrecision; text-rendering:geometricPrecision; image-rendering:optimizeQuality; fill-rule:evenodd; clip-rule:evenodd"
viewBox="0 0 30000 30000"
 xmlns:xlink="http://www.w3.org/1999/xlink">
 <defs>
  <style type="text/css">
   <![CDATA[
    .fil0 {fill:#56698F}
    .fil1 {fill:#FEFEFE}
   ]]>
  </style>
 </defs>
 <g id="Слой_x0020_1">
  <metadata id="CorelCorpID_0Corel-Layer"/>
  <path class="fil0" d="M15000 0c8284,0 15000,6716 15000,15000 0,8284 -6716,15000 -15000,15000 -8284,0 -15000,-6716 -15000,-15000 0,-8284 6716,-15000 15000,-15000z"/>
  <path class="fil1" d="M15000 2500c6904,0 12500,5596 12500,12500 0,6904 -5596,12500 -12500,12500 -6904,0 -12500,-5596 -12500,-12500 0,-6904 5596,-12500 12500,-12500zm0 19466l0 0c252,0 457,204 457,456l0 2437c0,251 -205,457 -457,457l0 0c-252,0 -457,-206 -457,-457l0 -2437c0,-252 205,-456 457,-456zm0 -17282l0 0c252,0 457,206 457,457l0 2436c0,251 -205,457 -457,457l0 0c-252,0 -457,-206 -457,-457l0 -2436c0,-251 205,-457 457,-457zm6966 10316l0 0c0,-252 204,-457 456,-457l2437 0c251,0 457,205 457,457l0 0c0,252 -206,457 -457,457l-2437 0c-252,0 -456,-205 -456,-457zm-17282 0l0 0c0,-252 206,-457 457,-457l2436 0c251,0 457,205 457,457l0 0c0,252 -206,457 -457,457l-2436 0c-251,0 -457,-205 -457,-457zm4532 6483c-812,-116 -583,113 -699,-699l4819 -7318 -27 -26 79 -52 52 -79 26 27 7318 -4819c812,116 583,-113 699,699l-4819 7318 27 26 -79 52 -52 79 -26 -27 -7318 4819zm4872 -5571c503,503 1319,503 1824,0 503,-503 503,-1319 0,-1824 -505,-503 -1321,-503 -1824,0 -503,505 -503,1321 0,1824zm912 -12476c6387,0 11564,5177 11564,11564 0,6387 -5177,11564 -11564,11564 -6387,0 -11564,-5177 -11564,-11564 0,-6387 5177,-11564 11564,-11564z"/>
 </g>
</svg>
