<?xml version="1.0" encoding="UTF-8"?>
<!DOCTYPE svg PUBLIC "-//W3C//DTD SVG 1.1//EN" "http://www.w3.org/Graphics/SVG/1.1/DTD/svg11.dtd">
<!-- Creator: CorelDRAW X6 -->
<svg xmlns="http://www.w3.org/2000/svg" xml:space="preserve" width="30px" height="30px" version="1.1" style="shape-rendering:geometricPrecision; text-rendering:geometricPrecision; image-rendering:optimizeQuality; fill-rule:evenodd; clip-rule:evenodd"
viewBox="0 0 30000 30000"
 xmlns:xlink="http://www.w3.org/1999/xlink">
 <defs>
  <style type="text/css">
   <![CDATA[
    .fil1 {fill:#4c4c4c}
    .fil0 {fill:#4c4c4c}
   ]]>
  </style>
 </defs>
 <g id="Layer_x0020_1">
  <metadata id="CorelCorpID_0Corel-Layer"/>
  <path class="fil0" d="M-2063544 56601l37546 0 0 4222 -37546 0 0 -4222zm0 16662l20884 0 0 4222 -20884 0 0 -4222zm0 -8331l37546 0 0 4222 -37546 0 0 -4222z"/>
  <path class="fil1" d="M3761 241l22479 0c1936,0 3520,1584 3520,3520l0 22479c0,1936 -1584,3520 -3520,3520l-22479 0c-1936,0 -3520,-1584 -3520,-3520l0 -22479c0,-1936 1584,-3520 3520,-3520zm11333 6138c2047,0 3706,1659 3706,3707 0,2047 -1659,3706 -3706,3706l-93 -1 -93 1c-2048,0 -3707,-1659 -3707,-3706 0,-2048 1659,-3707 3707,-3707l90 1 4 0 4 0 90 -1zm-239 5543l0 -14c48,6 96,9 144,13l1 0c48,-4 97,-7 144,-13l0 14c991,-27 1786,-839 1786,-1835 0,-998 -795,-1809 -1786,-1837l0 15c-47,-6 -96,-11 -144,-13l-1 0c-48,2 -96,7 -144,13l0 -15c-990,27 -1785,839 -1785,1837 0,997 795,1808 1785,1835zm289 3308l0 -6c-48,2 -96,5 -144,6 -48,-1 -97,-4 -145,-6l0 6c-1072,-14 -2154,-493 -3820,-1437 0,0 -782,-306 -1224,715 -804,1857 3964,1585 3424,3605 -20,76 -4,-247 0,0 0,0 -568,1325 -1384,1837 -816,510 -1189,849 -1258,1394 -67,544 442,1531 1531,749 605,-436 1311,-1219 1925,-1707 422,-334 710,-482 948,-488l4 0c239,6 527,154 948,488 615,488 1320,1271 1926,1707 1088,782 1598,-204 1530,-749 -67,-544 -442,-883 -1258,-1394 -816,-511 -1383,-1837 -1383,-1837 2,-247 20,76 0,0 -540,-2020 4228,-1748 3423,-3605 -442,-1020 -1224,-715 -1224,-715 -1664,945 -2747,1423 -3820,1437zm-10736 -14139l21184 0c1824,0 3317,1492 3317,3317l0 21184c0,1824 -1493,3317 -3317,3317l-21184 0c-1825,0 -3317,-1493 -3317,-3317l0 -21184c0,-1825 1492,-3317 3317,-3317z"/>
 </g>
</svg>
