<svg xmlns="http://www.w3.org/2000/svg" width="9.599" height="13.119" viewBox="0 0 2540 3471" shape-rendering="geometricPrecision" text-rendering="geometricPrecision" image-rendering="optimizeQuality" fill-rule="evenodd" clip-rule="evenodd"><path d="M206 39h1520l793 794v2410c0 102-84 186-186 186H206c-102 0-186-84-186-186V225c0-102 84-186 186-186z" fill="#df5066"/><path d="M2520 832h-643c-83 0-151-68-151-151V38l793 793z" fill="#c42f45"/><path d="M2129 1514H410v733l1114 1114 71 71h738s186-4 186-218V1918l-390-405z" fill="#d1364d"/><path d="M411 2247v-733h237c85 0 151 22 200 64 49 43 73 100 73 170s-24 127-73 169c-49 43-115 64-200 64h-90v266H411zm147-379h89c41 0 72-11 93-33s32-51 32-85c0-35-11-64-31-87-21-23-52-34-94-34h-89v240zm465 379v-733h212c90 0 164 29 222 86s87 131 87 220v122c0 90-29 163-87 220s-132 85-222 85h-212zm147-113h65c48 0 88-18 117-54 30-36 44-82 44-139v-122c0-56-15-102-44-138-30-36-69-54-117-54h-65v506zm491 113v-733h468v113h-321v202h225v113h-225v304h-147z" fill="#fefefe" fill-rule="nonzero"/></svg>