<?xml version="1.0" encoding="UTF-8"?>
<!DOCTYPE svg PUBLIC "-//W3C//DTD SVG 1.1//EN" "http://www.w3.org/Graphics/SVG/1.1/DTD/svg11.dtd">
<!-- Creator: CorelDRAW X6 -->
<svg xmlns="http://www.w3.org/2000/svg" xml:space="preserve" width="5.08mm" height="5.08mm" version="1.1" style="shape-rendering:geometricPrecision; text-rendering:geometricPrecision; image-rendering:optimizeQuality; fill-rule:evenodd; clip-rule:evenodd"
viewBox="0 0 508 508"
 xmlns:xlink="http://www.w3.org/1999/xlink">
 <defs>
  <style type="text/css">
   <![CDATA[
    .fil0 {fill:#DDDDDD}
   ]]>
  </style>
 </defs>
 <g id="Слой_x0020_1">
  <metadata id="CorelCorpID_0Corel-Layer"/>
  <path class="fil0" d="M9 103l376 0 38 0 0 38 0 245 0 38 0 19 0 38 -38 0 -224 0 -39 0 -75 0 -38 0 0 -38 0 -19 0 -38 0 -245 0 -38zm57 -75l416 0 0 0 17 0 0 17 0 321 -17 0 0 -321 -416 0 0 -17zm379 55l0 321 16 0 0 -321 0 -17 -432 0 0 17 415 0zm-265 115l0 134 97 -66 -97 -68zm-20 226c0,0 0,1 0,1l0 18 224 0 0 -19 -224 0zm-39 19l0 -19 -75 0 0 19 75 0zm263 -301l-338 0 0 245 75 0 263 0 0 -245z"/>
 </g>
</svg>
