<?xml version="1.0" encoding="UTF-8"?>
<!DOCTYPE svg PUBLIC "-//W3C//DTD SVG 1.1//EN" "http://www.w3.org/Graphics/SVG/1.1/DTD/svg11.dtd">
<!-- Creator: CorelDRAW X6 -->
<svg xmlns="http://www.w3.org/2000/svg" xml:space="preserve" width="5.08mm" height="5.08mm" version="1.1" style="shape-rendering:geometricPrecision; text-rendering:geometricPrecision; image-rendering:optimizeQuality; fill-rule:evenodd; clip-rule:evenodd"
viewBox="0 0 508 508"
 xmlns:xlink="http://www.w3.org/1999/xlink">
 <defs>
  <style type="text/css">
   <![CDATA[
    .fil0 {fill:#AFAFAF}
   ]]>
  </style>
 </defs>
 <g id="Слой_x0020_1">
  <metadata id="CorelCorpID_0Corel-Layer"/>
  <path class="fil0" d="M254 4c138,0 250,112 250,250 0,138 -112,250 -250,250 -138,0 -250,-112 -250,-250 0,-138 112,-250 250,-250zm-33 151l1 -1 11 0 42 0 11 0 1 1 0 0 0 0 0 0 0 0 0 0 1 0 0 0 0 1 0 0 0 0 0 0 1 0 0 0 0 0 0 0 0 0 0 1 0 0 0 0 0 0 1 0 0 0 0 0 0 0 0 0 0 0 0 1 0 0 0 0 0 0 0 0 0 0 0 0 0 0 1 0 0 0 0 0 0 0 0 0 0 0 0 0 0 0 0 0 0 0 0 0 0 0 0 0 0 0 0 0 0 0 27 25 0 0 1 0 1 0 2 0 0 0 1 0 0 0 1 0 2 0 1 0 2 0 0 0 0 0 0 0 2 0 1 0 0 0 0 0 2 0 0 0 1 0 0 0 0 0 1 0 0 0 1 0 1 0 0 0 0 0 1 0 0 0 0 0 0 0 14 0 0 0 1 0 0 0 1 0 0 0 1 0 0 0 1 1 0 0 1 0 0 0 1 0 0 0 1 0 0 0 1 0 0 0 1 0 1 0 0 0 1 1 0 0 0 0 1 0 0 0 1 0 1 1 0 0 0 0 1 0 0 0 1 1 0 0 0 0 0 0 1 0 0 1 1 0 0 0 0 0 1 1 0 0 0 0 1 1 0 0 0 0 1 1 0 0 0 0 0 1 0 0 1 0 0 0 0 0 0 1 1 0 0 0 0 1 0 0 0 0 0 0 0 0 0 0 0 1 0 0 1 0 0 0 0 1 0 0 0 0 0 0 0 0 0 1 0 0 0 0 0 0 0 0 0 1 1 0 0 0 0 0 0 0 0 1 0 0 0 0 0 0 0 0 0 0 0 0 0 1 0 0 0 0 0 0 0 0 0 0 0 0 0 0 0 0 0 0 0 0 0 0 0 1 0 0 0 0 0 0 0 0 0 0 0 0 0 0 0 9 0 4 0 99 0 4 0 10 0 0 0 0 0 0 0 0 0 0 0 0 0 0 0 0 0 0 0 0 0 0 0 0 0 0 0 0 0 0 0 0 0 1 0 0 0 0 0 0 0 0 0 0 0 0 0 0 0 0 0 1 0 0 0 0 0 0 0 0 -1 1 0 0 0 0 0 0 0 1 0 0 0 0 0 0 0 0 0 1 0 0 -1 1 0 0 0 0 0 0 0 0 0 1 0 0 0 0 -1 1 0 0 0 0 -1 1 0 0 0 0 0 1 -1 0 0 0 0 0 0 0 0 1 -1 0 0 0 0 1 0 0 -1 0 0 0 -1 1 0 0 0 0 0 0 -1 0 0 1 0 0 -1 0 0 0 -1 0 0 0 0 1 0 0 -1 0 0 0 -1 0 -1 0 0 0 0 1 0 0 -1 0 0 0 -1 0 0 0 -1 0 0 0 -1 0 0 0 -1 1 0 0 -1 0 0 0 -1 0 0 0 -1 0 0 0 -1 0 0 0 -1 0 0 0 -1 0 0 0 -14 0 0 0 0 0 -1 0 0 0 -1 0 -1 0 -1 0 0 0 -1 0 -2 0 0 0 -1 0 -2 0 0 0 -2 0 -1 0 -2 0 -1 0 -1 0 -2 0 -1 0 -2 0 -3 0 -1 0 -2 0 -1 0 -2 0 -2 0 -1 0 -2 0 -1 0 -3 0 -1 0 -3 0 0 0 -4 0 0 0 -3 0 -1 0 -3 0 -1 0 -3 0 0 0 -4 0 0 0 -3 0 -1 0 -3 0 -2 0 -2 0 -2 0 -2 0 -2 0 -2 0 -2 0 -2 0 -2 0 -2 0 -2 0 -2 0 -2 0 -2 0 -2 0 -3 0 -1 0 -3 0 0 0 -4 0 0 0 -3 0 -1 0 -3 0 -1 0 -3 0 0 0 -4 0 0 0 -3 0 -1 0 -3 0 -1 0 -2 0 -1 0 -2 0 -2 0 -1 0 -2 0 -1 0 -3 0 -2 0 -1 0 -2 0 -1 0 -1 0 -2 0 -1 0 -2 0 0 0 -2 0 -1 0 0 0 -2 0 -1 0 0 0 -1 0 -1 0 -1 0 0 0 -1 0 0 0 0 0 -14 0 0 0 -1 0 0 0 -1 0 0 0 -1 0 0 0 -1 0 0 0 -1 0 0 0 -1 0 0 0 -1 -1 0 0 -1 0 0 0 -1 0 0 0 -1 0 0 0 -1 0 0 0 0 -1 0 0 -1 0 -1 0 0 0 -1 0 0 0 0 -1 0 0 -1 0 0 0 -1 0 0 0 0 -1 -1 0 0 0 0 0 0 0 -1 -1 0 0 -1 0 0 0 0 -1 0 0 -1 0 0 -1 0 0 0 0 0 0 -1 0 0 -1 0 0 0 0 -1 -1 0 0 0 0 -1 -1 0 0 0 0 0 -1 0 0 0 0 0 0 0 0 -1 -1 0 0 0 -1 0 0 0 0 0 0 0 0 0 -1 0 0 0 0 0 0 0 -1 -1 0 0 0 0 0 0 0 0 -1 0 0 0 0 0 0 0 0 0 0 0 0 0 0 0 0 0 -1 0 0 0 0 0 0 0 0 0 0 0 0 0 0 0 0 0 0 0 0 0 0 0 0 0 0 0 0 0 0 0 0 0 -10 0 -4 0 -99 0 -4 0 -9 0 0 0 0 0 0 0 0 0 0 0 0 0 0 0 -1 0 0 0 0 0 0 0 0 0 0 0 0 0 0 0 0 0 0 0 0 0 0 0 -1 0 0 0 0 0 0 0 0 0 0 0 0 0 -1 0 0 1 0 0 0 0 0 0 -1 0 0 0 0 0 0 0 0 0 -1 0 0 0 0 0 0 0 0 0 -1 0 0 1 0 0 0 0 -1 0 0 0 0 0 0 0 0 0 0 0 -1 0 0 1 0 0 -1 0 0 0 0 1 0 0 0 0 -1 0 0 0 0 1 -1 0 0 0 0 1 -1 0 0 0 0 1 -1 0 0 0 0 1 0 0 -1 1 0 0 0 0 0 0 0 1 -1 0 0 1 0 0 0 0 0 1 -1 1 0 0 0 1 0 0 0 0 0 1 -1 0 0 1 0 1 0 0 0 1 0 0 0 1 0 0 0 1 0 0 0 1 0 0 0 1 -1 0 0 1 0 0 0 1 0 0 0 1 0 0 0 14 0 0 0 0 0 0 0 1 0 0 0 0 0 1 0 1 0 0 0 1 0 0 0 0 0 1 0 0 0 2 0 0 0 0 0 1 0 2 0 0 0 0 0 0 0 2 0 1 0 2 0 1 0 0 0 1 0 0 0 2 0 1 0 1 0 0 0 27 -25 0 0 0 0 0 0 0 0 0 0 0 0 0 0 0 0 0 0 0 0 0 0 0 0 0 0 0 0 0 0 1 0 0 0 0 0 0 0 0 0 0 0 0 0 0 0 0 -1 0 0 0 0 0 0 0 0 0 0 1 0 0 0 0 0 0 0 0 -1 0 0 0 0 0 0 0 0 1 0 0 0 0 0 0 0 0 -1 0 0 1 0 0 0 0 0 0 0 0 0 0 0zm33 70l0 0 1 0 0 0 1 0 0 0 1 0 0 0 1 0 0 0 1 0 0 0 1 0 0 0 1 1 0 0 1 0 0 0 1 0 0 0 1 0 0 0 1 0 0 0 1 1 0 0 0 0 0 0 1 0 0 0 1 1 0 0 2 0 0 0 1 1 0 0 1 0 0 1 0 0 1 0 0 0 1 1 2 1 0 0 0 0 1 1 0 0 1 0 0 0c1,1 1,1 2,2l0 0 1 1 0 0 1 1 0 0 1 1 0 0c0,0 1,1 1,2l0 0 1 1 0 0 1 0 0 1 0 0 1 2 1 0 0 0 0 1 0 0 0 1 1 1 0 0 0 1 0 0 1 1 0 0 0 1 0 0 1 1 0 0 0 1 0 0 0 1 0 0 1 1 0 0 0 1 0 0 0 1 0 0 0 1 0 0 0 1 0 0 0 1 0 0 1 1 0 0 0 1 0 0 0 1 0 0 0 1 0 0 0 1 0 0 0 0 0 1 0 0 0 1 0 0 0 1 0 0 0 1 0 0 -1 1 0 0 0 1 0 0 0 1 0 0 0 0 0 0 0 1 0 0 0 1 0 0 -1 1 0 0 0 1 0 0 0 1 0 0 -1 1 0 0 0 1 0 0 0 1 0 0 -1 1 0 0 0 0 0 0 -1 1 0 1 0 0 0 1 0 0 -1 1 0 1 0 0 -1 0 0 0 0 1 -1 1 0 0 -1 1 0 0 0 0 0 0 -1 1 0 0 0 1 0 0 -1 0 0 0 -1 1 0 0 0 1 -1 0 -1 1 0 0 0 1 0 0 -1 0 -1 1 -1 0 0 1 -1 0 0 0 -1 1 -1 0 -1 1 0 0 -1 1 -1 0 -1 0 0 0 -1 1 -1 0 -1 0 0 1 -1 0 -1 0 -1 0 -1 1 -1 0 -1 0 -1 0 -1 0 -1 0 -1 0 -1 0 -1 0 -1 0 -1 0 -1 0 -1 0 -1 0 -1 0 -1 0 -1 0 -1 -1 -1 0 -1 0 -1 0 0 -1 -1 0 -1 0 -1 -1 0 0 -1 0 -1 0 -1 -1 0 0 -1 -1 -1 0 -1 -1 0 0 -1 0 0 -1 -1 0 -1 -1 -1 0 0 0 0 -1 0 0 -1 -1 -1 0 0 -1 0 0 -1 -1 0 0 -1 0 0 0 0 -1 0 0 -1 -1 0 0 0 0 0 0 -1 -1 0 0 -1 -1 0 -1 0 0 -1 0 0 0 0 -1 -1 -1 0 0 0 -1 0 0 0 -1 -1 -1 0 0 0 0 0 0 -1 -1 0 0 0 -1 0 0 0 -1 0 0 -1 -1 0 0 0 -1 0 0 0 -1 0 0 0 -1 -1 0 0 -1 0 0 0 -1 0 0 0 0 0 0 0 -1 0 0 0 -1 0 0 -1 -1 0 0 0 -1 0 0 0 -1 0 0 0 -1 0 0 0 -1 0 0 0 0 0 -1 0 0 0 -1 0 0 0 -1 0 0 0 -1 0 0 1 -1 0 0 0 -1 0 0 0 -1 0 0 0 -1 0 0 0 -1 0 0 0 -1 1 0 0 -1 0 0 0 -1 0 0 0 -1 0 0 1 -1 0 0 0 -1 0 0 1 -1 0 0 0 -1 0 0 1 -1 0 -1 0 0 0 -1 0 0 1 0 1 -2 0 0 0 -1 1 0 0 0 1 -1 0 0c0,-1 1,-2 1,-2l0 0 1 -1 0 0 1 -1 0 0 1 -1 0 0c1,-1 1,-1 2,-2l0 0 1 0 0 0 1 -1 0 0 0 0 2 -1 1 -1 0 0 1 0 0 0 0 -1 1 0 0 0 1 -1 0 0 2 0 0 0 1 -1 0 0 1 0 0 0 0 0 0 0 1 -1 0 0 1 0 0 0 1 0 0 0 1 0 0 0 1 0 0 0 1 -1 0 0 1 0 0 0 1 0 0 0 1 0 0 0 1 0 0 0 1 0 0 0 1 0 0 0zm-85 111l170 0 0 0 16 0 0 0 0 0 0 0 0 0 0 0 0 0 0 0 0 0 1 0 0 0 0 0 0 0 0 0 1 0 0 0 0 0 0 0 1 0 0 0 0 0 1 0 0 0 0 0 0 -1 1 0 0 0 0 0 0 0 1 0 0 0 0 0 0 -1 1 0 0 0 0 0 0 0 1 0 0 0 0 -1 0 0 1 0 0 0 0 0 0 0 1 -1 0 0 0 0 0 0 0 0 1 -1 0 0 0 0 0 -1 0 0 1 0 0 0 0 0 0 -1 0 0 1 -1 0 0 0 -1 0 0 1 -1 0 0 0 0 0 -1 0 0 0 0 0 -1 1 -1 0 0 0 -1 0 -1 0 -1 0 0 0 -1 0 -1 0 -1 0 -2 0 0 0 0 0 0 0 0 0 -1 0 0 0 0 0 0 0 0 0 -1 0 0 0 -1 0 0 0 -1 0 0 0 -1 0 0 0 -1 0 -1 0 0 0 -1 0 0 0 -1 0 0 0 -1 0 -1 0 0 0 0 0 0 0 -1 0 -1 0 0 0 -1 0 -1 0 0 0 -2 0 0 0 0 0 -2 0 0 0 -1 0 -1 0 0 0 -1 0 -1 0 0 0 -1 0 0 0 -1 0 -1 0 -1 0 0 0 -1 0 0 0 -1 0 -1 0 0 0 -1 0 -1 0 -1 0 -1 0 -1 0 -1 0 -1 0 0 0 -1 0 -2 0 0 0 -1 0 0 0 -1 0 -1 0 -1 0 -1 0 0 0 -1 0 0 0 -1 0 -2 0 0 0 -2 0 0 0 -1 0 -1 0 -1 0 -1 0 -1 0 -2 0 0 0 -2 0 -1 0 0 0 -1 0 -1 0 0 0 -1 0 0 0 -1 0 -1 0 0 0 -1 0 -1 0 -2 0 -1 0 -1 0 0 0 -1 0 0 0 -1 0 -1 0 0 0 -1 0 -1 0 0 0 -1 0 0 0 -1 0 0 0 -1 0 0 0 0 0 0 0 -2 0 0 0 0 0 -2 0 0 0 -2 0 0 0 -1 0 -1 0 0 0 -1 0 -1 0 -1 0 0 0 -1 0 -1 0 0 0 -2 0 0 0 0 0 -1 0 0 0 0 0 0 0 -1 0 0 0 0 0 -1 0 0 0 0 0 -1 0 0 0 0 0 -1 0 0 0 0 0 0 0 0 0 -1 0 0 0 0 0 -1 0 0 0 0 0 0 0 0 0 -1 0 0 0 0 0 0 0 -2 0 0 0 -1 0 -1 0 -1 0 -1 0 -1 0 0 0 0 0 -1 -1 -1 0 0 0 0 0 -1 0 -1 0 0 0 0 -1 -1 0 0 0 0 0 -1 0 0 -1 0 0 0 0 -1 0 0 0 0 0 0 0 -1 0 0 -1 0 0 0 0 0 0 0 0 -1 0 0 -1 0 0 -1 0 0 0 0 0 0 -1 0 0 0 0 0 0 -1 -1 0 0 0 0 0 -1 0 0 -1 0 0 0 0 -1 0 0 0 0 0 0 0 0 0 0 0 -1 -1 0 0 0 0 0 0 -1 0 0 0 0 0 0 0 -1 0 0 0 0 0 -1 -1 0 0 0 0 0 0 -1 0 0 0 0 0 0 0 0 0 -1 0 0 0 0 0 0 0 0 0 0 0 0 0 0 0 0 0 -16 0 0 0 -170 0 0 0 -16 0 0 0 0 0 0 0 0 0 0 0 0 0 0 0 0 0 -1 0 0 0 0 0 0 0 0 0 -1 0 0 0 0 0 0 0 -1 1 0 0 0 0 -1 0 0 0 0 0 0 0 -1 0 0 0 0 0 0 0 -1 1 0 0 0 0 0 0 0 0 0 0 -1 0 0 0 0 0 0 1 -1 0 0 0 0 0 -1 0 0 1 0 0 0 0 -1 0 0 0 0 0 0 0 0 1 -1 0 0 0 0 1 0 0 0 0 0 0 -1 0 0 0 0 1 0 0 0 0 0 0 0 1 0 0 -1 0 0 0 0 1 0 0 0 0 -1 1 0 0 0 0 0 1 0 1 0 0 0 0 0 1 -1 1 0 0 0 0 0 1 0 1 0 1 0 1 0 1 0 0 0 2 0 0 0 0 0 0 0 1 0 0 0 0 0 0 0 0 0 1 0 0 0 0 0 1 0 0 0 0 0 0 0 0 0 1 0 0 0 0 0 1 0 0 0 0 0 1 0 0 0 0 0 1 0 0 0 0 0 0 0 1 0 0 0 0 0 2 0 0 0 1 0 1 0 0 0 1 0 1 0 1 0 0 0 1 0 1 0 0 0 2 0 0 0 2 0 0 0 0 0 2 0 0 0 0 0 0 0 1 0 0 0 1 0 0 0 1 0 0 0 1 0 1 0 0 0 1 0 1 0 0 0 1 0 0 0 1 0 1 0 2 0 1 0 1 0 0 0 1 0 1 0 0 0 1 0 0 0 1 0 1 0 0 0 1 0 2 0 0 0 2 0 1 0 1 0 1 0 1 0 1 0 0 0 2 0 0 0 2 0 1 0 0 0 1 0 0 0 1 0 1 0 1 0 1 0 0 0 1 0 0 0 2 0 1 0 0 0 1 0 1 0 1 0 1 0 1 0 1 0 1 0 0 0 1 0 1 0 0 0 1 0 0 0 1 0 1 0 1 0 0 0 1 0 0 0 1 0 1 0 0 0 1 0 1 0 0 0 2 0 0 0 0 0 2 0 0 0 1 0 1 0 0 0 1 0 1 0 0 0 0 0 0 0 1 0 1 0 0 0 1 0 0 0 1 0 0 0 1 0 1 0 0 0 1 0 0 0 1 0 0 0 1 0 0 0 1 0 0 0 0 0 0 0 0 0 1 0 0 0 0 0 0 0 0 0 2 0 1 0 1 0 1 0 0 0 1 0 1 0 1 1 0 0 1 0 1 0 0 0 0 0 1 0 0 0 0 1 1 0 0 0 1 0 0 1 1 0 0 0 1 0 0 0 0 1 0 0 0 0 1 0 0 0 0 1 1 0 0 0 0 0 0 0 0 1 1 0 0 0 0 0 0 1 0 0 0 0 1 0 0 1 0 0 0 0 0 0 0 1 0 0 1 0 0 0 0 1 0 0 0 0 0 0 0 1 0 0 1 0 0 0 0 1 0 0 0 0 0 1 0 0 0 0 0 0 0 1 0 0 0 0 0 0 0 0 0 1 0 0 0 0 0 0 0 0 0 0 0 0 0 0 0 0 0 16 0 0 0zm64 -174l0 0 0 0 0 0 0 0 0 0 0 0 0 0 -1 0 0 0 0 0 0 0 0 0 0 0 0 0 0 0 0 0 -1 0 0 0 0 0 0 0 0 0 0 0 0 0 0 0 -1 0 0 0 0 0 0 0 0 0 0 0 -1 1 0 0 0 0 0 0 0 0 0 0 -1 0 0 0 0 0 0 0 0 0 -1 0 0 0 0 0 0 0 0 0 -1 1 0 0 0 0 0 0 0 0 0 0 -1 0 0 0 0 0 0 0 -1 1 0 0 0 0 0 0 0 0 0 0 -1 0 0 0 0 0 0 1 0 0 -1 0 0 0 0 0 0 0 0 0 0 0 -1 0 0 0 0 1 0 0 -1 0 0 0 0 0 0 1 0 0 -1 0 0 0 0 0 0 0 0 0 0 0 -1 1 0 0 0 0 0 0 0 0 0 0 -1 1 0 0 0 0 0 0 -1 0 0 1 0 0 0 0 0 0 0 0 -1 1 0 0 0 0 0 0 0 0 -1 1 0 0 0 0 0 0 -1 1 0 0 0 0 0 0 0 0 0 1 -1 0 0 0 0 0 0 0 -1 1 0 0 0 0 0 0 0 1 -1 0 0 0 0 0 0 0 0 0 -1 1 0 0 0 0 0 0 0 0 0 1 0 0 -1 0 0 0 0 0 0 0 0 0 0 1 0 0 -1 0 0 0 0 0 0 1 0 0 -1 0 0 0 0 0 0 0 0 0 0 0 0 0 0 0 0 1 0 0 0 0 0 0 0 0 0 0 -1 0 0 0 0 0 0 0 0 0 0 0 0 0 0 1 0 0 0 0 0 0 0 0 0 0 0 0 0 0 0 0 0 0 0 0 0 0 -1 0 0 0 0 0 0 0 0 0 0 0 0 0 0 0 0 0 0 0 0 0 0 0 0 0 0 0 0 0 1 0 1 0 3 0 1 0 3 0 0 0 0 0 0 0 4 0 0 0 0 0 3 0 1 0 3 0 1 0 3 0 0 0 4 0 0 0 0 0 0 0 3 0 1 0 3 0 2 0 2 0 2 0 2 0 0 0 2 0 2 0 2 0 2 0 2 0 2 0 2 0 0 0 2 0 2 0 2 0 2 0 3 0 1 0 3 0 0 0 0 0 0 0 4 0 0 0 3 0 1 0 3 0 1 0 3 0 0 0 0 0 4 0 0 0 0 0 0 0 3 0 1 0 3 0 1 0 1 0 0 0 0 0 0 0 0 0 0 0 0 0 0 0 0 0 0 0 0 0 0 0 0 0 0 0 0 0 -1 0 0 0 0 0 0 0 0 0 0 0 0 0 0 0 0 0 0 0 0 0 0 0 0 -1 0 0 0 0 0 0 0 0 0 0 0 0 -1 0 0 0 0 0 0 0 0 0 0 0 0 -1 0 0 0 0 0 0 0 0 0 0 0 0 0 0 -1 0 0 0 0 -1 0 0 0 0 -1 0 0 0 0 -1 0 0 0 0 0 0 0 0 -1 0 0 0 0 -1 0 0 0 0 0 0 0 0 -1 -1 0 0 0 0 0 0 0 0 0 0 -1 -1 0 0 0 0 0 0 -1 -1 0 0 0 0 0 0 -1 0 0 -1 0 0 0 0 0 0 0 0 -1 -1 0 0 0 0 0 0 -1 -1 0 0 0 0 0 0 0 0 -1 -1 0 0 0 0 0 0 0 0 0 -1 -1 0 0 0 0 0 0 0 -1 -1 0 0 0 0 0 0 0 0 0 0 -1 -1 0 0 0 0 0 0 0 0 0 0 -1 0 0 0 0 -1 0 0 0 0 -1 0 0 0 0 -1 0 0 -1 0 0 0 0 0 0 0 0 0 0 0 -1 0 0 0 0 -1 0 0 0 0 -1 0 0 0 0 0 0 0 0 0 0 0 -1 -1 0 0 0 0 0 0 -1 0 0 0 0 0 0 0 0 0 0 0 -1 -1 0 0 0 0 0 0 0 0 -1 0 0 0 0 0 0 0 0 0 -1 0 0 0 0 0 0 0 0 0 0 0 -1 -1 0 0 0 0 0 0 0 0 0 0 -1 0 0 0 0 0 0 0 0 0 0 0 0 0 0 0 -1 0 0 0 0 0 0 0 0 0 0 0 0 0 0 0 0 0 0 0 -1 0 0 0 0 0 0 0 0 0 0 0 0 0 -42 0zm84 182l0 0zm-126 0l0 0zm63 -114l1 0 1 0 1 0 0 0 0 0 1 0 0 0 1 0 1 0 1 1 1 0 0 0 0 0 1 0 1 0 1 1 1 0 0 0 0 0 1 1 0 0 1 0 1 0 0 1 0 0 1 0 1 0 0 0 2 2 0 0 1 0 0 0 0 1 0 0 1 0 0 0 0 1 1 0 0 0 0 0 1 1 0 0 1 1 0 0 0 0 0 0 2 2 0 0 0 0 0 0 1 1 0 0 1 1 0 0c0,1 1,2 2,4l0 0 0 1 0 0 1 1 0 0 0 1 0 0 1 1 0 0 0 1 0 0 0 1 0 0 1 0 0 0 0 2 0 0 0 1 0 0 0 1 0 0 0 1 0 0c1,0 1,1 1,2l0 0 0 1 0 0 0 1 0 0 0 1 0 1 0 0 0 0 0 0 0 1 0 0 0 1 0 0 0 1 0 0 -1 1 0 0 0 1 0 0 0 0 0 0 0 1 0 0 0 1 0 0 0 1 0 0 -1 1 0 0 0 1 0 0 0 0 0 0 -1 1 0 0 0 1 0 0 0 1 0 0 -1 0 0 0 0 1 0 0 0 1 0 0 -1 1 0 0 0 0 0 0 -1 1 0 0 0 1 0 0 0 0 0 0 -1 1 0 0 0 1 0 0 -1 0 0 0 0 1 0 0 -1 0 0 0 -1 1 0 0 0 1 0 0 -1 0 0 0 0 1 0 0 -1 0 0 0 0 1 -1 0 0 0 0 0 -1 1 0 0 0 0 0 0 -1 1 0 0 -1 0 0 0 0 1 0 0 -1 0 0 0 -1 0 -1 1 0 0 0 0 -1 0 -1 1 0 0 -1 0 0 0 0 0 -1 1 -1 0 -1 0 -1 0 0 0 0 1 -1 0 -1 0 -1 0 -1 0 0 0 -1 0 0 0 0 0 -1 0 -1 0 -1 0 -1 0 -1 0 -1 0 0 0 0 0 -1 0 0 0 -1 0 -1 0 -1 0 -1 0 0 -1 0 0 -1 0 -1 0 -1 0 -1 -1 0 0 0 0 -1 0 0 0 -1 -1 -1 0 0 0 0 0 -1 -1 -1 0 0 0 -1 0 0 0 0 -1 0 0 -1 0 0 0 -1 -1 0 0 0 0 0 0 -1 -1 0 0 0 0 0 0 -1 -1 0 0 -1 0 0 0 0 -1 0 0 -1 0 0 0 0 -1 0 0 -1 -1 0 0 -1 0 0 0 0 -1 0 0 -1 0 0 0 0 -1 0 0 -1 -1 0 0 0 0 0 0 0 -1 0 0 -1 -1 0 0 0 0 0 0 -1 -1 0 0 0 -1 0 0 0 -1 0 0 -1 0 0 0 0 -1 0 0 0 -1 0 0 -1 -1 0 0 0 0 0 0 0 -1 0 0 -1 -1 0 0 0 -1 0 0 0 -1 0 0 0 -1 0 0 0 0 0 0 0 -1 0 0 -1 -1 0 0 0 -1 0 0 0 -1 0 0 0 -1 0 0 0 0 0 0 0 -1 0 -1 0 0 0 -1 0 0 0 -1 0 0c0,-1 0,-2 1,-2l0 0 0 -1 0 0 0 -1 0 0 0 -1 0 0 0 -2 0 0 1 0 0 0 0 -1 0 0 0 -1 0 0 1 -1 0 0 0 -1 0 0 1 -1 0 0 0 -1 0 0c1,-2 2,-3 2,-4l0 0 1 -1 0 0 1 -1 0 0 0 0 0 0 2 -2 0 0 0 0 0 0 1 -1 0 0 1 -1 0 0 1 0 0 0 0 -1 0 0 1 0 0 0 0 -1 0 0 1 0 0 0c1,-1 1,-1 2,-2l0 0 1 0 1 0 0 0 0 -1 1 0 1 0 0 0 1 -1 0 0 0 0 1 0 1 -1 1 0 1 0 0 0 0 0 1 0 1 -1 1 0 1 0 0 0 1 0 0 0 0 0 1 0 1 0 1 0zm0 -22l0 0 0 0zm0 0l1 0 0 0 2 0 0 0 1 0 0 0 2 0 0 0 1 0 0 0 2 0 0 0 1 0 0 0 1 1 0 0 2 0 0 0 1 0 0 0 1 1 0 0 2 0 1 0 0 0 1 1 0 0 2 0 1 1 0 0 1 0 0 0 1 1 0 0 2 1 2 1 0 0 1 1 0 0c2,1 3,2 5,3l0 0 1 1 0 0 1 0 1 1 2 2 0 0 2 2 0 0 1 2 1 1 1 1 0 0 1 1 0 0c1,2 2,3 3,5l0 0 1 1 0 0 1 2 1 1 0 0 0 2 0 0 1 1 0 0 0 1 1 1 0 0 0 2 0 0 1 1 0 1 0 0 0 2 0 0 1 1 0 0 0 1 0 0 0 2 0 0 1 1 0 0 0 2 0 0 0 1 0 0 0 1 0 0 0 2 0 0 0 1 0 0 0 2 0 1 0 0 0 2 0 0 0 1 0 0 0 1 0 0 0 2 0 0 0 1 0 0 -1 2 0 0 0 1 0 0 0 1 0 0 -1 2 0 0 0 1 0 0 0 1 0 0 -1 2 0 0 0 1 0 0 -1 1 0 0 0 2 0 0 -1 1 0 0 0 1 0 0 -1 1 -1 1 0 0 0 2 0 0 -1 1 0 0 -1 1 0 0 0 1 0 0 -1 1 0 0 -1 1 0 0 -1 1 0 0 -1 1 0 0 -1 1 0 0 0 1 0 0 -1 1 0 0 -1 1 0 0 -1 1 -1 1 0 0 -1 1 0 0 -1 1 0 0 -1 1 -1 1 -1 0 0 0 -2 1 0 0 -1 1 0 0 -1 1 -1 0 -1 1 0 0 -1 1 -2 0 -1 1 -1 0 -1 1 0 0 -2 0 -1 1 -1 0 0 0 -2 1 -1 0 -1 0 -2 1 -1 0 -1 0 -2 0 -1 1 -2 0 -1 0 -2 0 -1 0 -1 0 -2 0 -1 0 -2 0 -1 -1 -2 0 -1 0 -1 0 -2 -1 -1 0 -1 0 -2 -1 0 0 -1 0 -1 -1 -2 0 0 0 -1 -1 -1 0 -1 -1 -2 0 -1 -1 0 0 -1 -1 -1 0 -1 -1 0 0 -1 -1 0 0 -1 -1 -1 0 -1 0 -1 -1 -1 -1 0 0 -1 -1 0 0 -1 -1 0 0 -1 -1 -1 -1 0 0 -1 -1 0 0 -1 -1 0 0 0 -1 0 0 -1 -1 0 0 -1 -1 0 0 -1 -1 0 0 -1 -1 0 0 -1 -1 0 0 0 -1 0 0 -1 -1 0 0 -1 -1 0 0 0 -2 0 0 -1 -1 -1 -1 0 0 0 -1 0 0 -1 -1 0 0 0 -2 0 0 -1 -1 0 0 0 -1 0 0 -1 -2 0 0 0 -1 0 0 0 -1 0 0 -1 -2 0 0 0 -1 0 0 0 -1 0 0 0 -2 -1 0 0 -1 0 0 0 -2 0 0 0 -1 0 0 0 -1 0 0 0 -2 0 0 0 -1 0 -2 0 0 0 -1 0 0 0 -2 0 0 0 -1 0 0 0 -1 0 0 0 -2 1 0 0 -1 0 0 0 -2 0 0 0 -1 0 0 1 -1 0 0 0 -2 0 0 0 -1 1 -1 0 0 0 -2 0 0 1 -1 0 -1 0 0 1 -1 0 0 0 -2 0 0 1 -1 1 -2 0 0 1 -1 0 0c1,-2 2,-3 3,-5l0 0 1 -1 0 0 1 -1 1 -1 1 -2 0 0 2 -2 0 0 2 -2 1 -1 1 0 0 0 1 -1 0 0c2,-1 3,-2 5,-3l0 0 1 -1 0 0 2 -1 2 -1 0 0 1 -1 0 0 1 0 0 0 1 -1 2 0 0 0 1 -1 0 0 1 0 2 0 0 0 1 -1 0 0 1 0 0 0 2 0 0 0 1 -1 0 0 1 0 0 0 2 0 0 0 1 0 0 0 2 0 0 0 1 0 0 0 2 0 0 0 1 0zm56 56l0 0 0 0zm-112 0l0 0 0 0zm56 -47l1 0 1 0 2 0 0 0 1 0 1 1 1 0 1 0 0 0 1 0 0 0 1 0 1 0 1 1 1 0 1 0 1 1 0 0 1 0 1 0 1 1 1 0 1 1 0 0 1 0 0 0 1 1 1 0 1 1 0 0 1 1 0 0 1 0 1 1 1 0 1 1 1 1 0 1 1 0 1 1 1 1 1 1 0 0 0 0 0 0 1 1 0 0 1 1 0 0 1 1 0 0 0 1 0 0 1 1 0 0 1 1 0 1 0 0 1 1 0 1 1 1 0 0 0 1 0 0 1 1 0 0 0 1 1 1 0 0 0 1 0 0 1 1 0 0 0 1 0 0 0 1 0 0 1 1 0 0 0 1 0 0 0 1 0 0 1 1 0 0 0 1 0 0 0 2 0 0 0 1 0 0 0 1 0 0 0 1 0 0 0 1 0 0 0 1 0 0 0 2 0 1 0 0 0 1 0 0 0 1 0 0 0 1 0 0 0 2 0 0 0 1 0 0 0 1 0 0 0 1 0 0 -1 1 0 0 0 1 0 0 0 1 0 0 -1 2 0 0 0 1 0 0 -1 2 0 0 -1 2 0 1 0 0 -1 1 0 0 0 1 0 0 -1 1 0 1 -1 1 0 0 0 1 -1 1 0 0 -1 0 0 0c-1,2 -2,3 -3,4l0 0 -1 2 0 0 -1 0 0 0 -1 1 0 0 -1 1 0 0 0 1 0 0 -1 0 0 0 -1 1 0 0 -1 1 0 0 -1 0 -1 1 0 0 -1 0 0 0 -1 1 0 0 -1 1 0 0 -1 0 0 0 -1 1 0 0 -1 0 -1 0 0 1 -1 0 0 0 -1 0 0 0 -1 1 0 0 -1 0 0 0 -1 0 0 0 -1 1 0 0 -1 0 -1 0 -1 0 0 0 -1 0 0 0 -1 1 0 0 -1 0 0 0 -1 0 0 0 -1 0 0 0 -2 0 0 0 -1 0 0 0 -1 0 -1 0 0 0 -1 0 0 0 -2 0 0 0 -1 0 0 0 -1 0 0 0 -1 0 0 0 -1 -1 0 0 -1 0 0 0 -1 0 0 0 -2 0 0 0 -1 -1 0 0 -1 0 0 0 -1 0 0 0 -1 -1 0 0 -1 0 0 0 -1 0 0 -1 -1 0 -1 0 0 0 -1 -1 0 0 -1 0 0 0 -1 -1 0 0 -1 -1 0 0 -1 0 0 0 -1 -1 -1 0 0 0 -1 -1 0 0 -1 -1 0 0 -1 0 0 0 0 -1 0 0 -1 -1 0 0 -1 -1 0 0 -1 0 0 0 -1 -2 0 0c-1,-1 -2,-2 -3,-4l0 0 -1 0 0 0 -1 -1 0 -1 0 0 -1 -1 0 -1 -1 -1 0 0 0 -1 0 0 -1 -1 0 0 0 -1 -1 -2 0 0 -1 -2 0 0 0 -1 0 0 -1 -2 0 0 0 -1 0 0 0 -1 0 0 -1 -1 0 0 0 -1 0 0 0 -1 0 0 0 -1 0 0 0 -2 0 0 0 -1 0 0 0 -1 0 0 0 -1 0 0 0 -1 0 -2 0 0 0 -1 0 0 0 -1 0 0 0 -1 0 0 0 -1 0 0 0 -1 0 0 0 -2 0 0 0 -1 0 0 1 -1 0 0 0 -1 0 0 0 -1 0 0 1 -1 0 0 0 -1 0 0 0 -1 0 0 1 -1 0 0 0 -1 0 0 1 -1 0 -1 0 0 1 -1 0 0 0 -1 0 0 1 -1 0 -1 1 -1 0 0 0 -1 1 -1 0 0 1 -1 0 0 0 -1 0 0 1 -1 0 0 1 -1 0 0 1 -1 0 0 0 0 0 0 1 -1 1 -1 1 -1 1 0 0 -1 1 -1 1 -1 1 0 1 -1 1 0 0 0 1 -1 0 0 1 -1 1 0 1 -1 0 0 1 0 0 0 1 -1 1 0 1 -1 1 0 1 0 0 0 1 -1 1 0 1 0 2 -1 0 0 1 0 0 0 1 0 0 0 1 0 1 0 1 -1 1 0 0 0 2 0 1 0 1 0zm0 -201c132,0 238,106 238,238 0,132 -106,238 -238,238 -132,0 -238,-106 -238,-238 0,-132 106,-238 238,-238z"/>
 </g>
</svg>
