<?xml version="1.0" encoding="UTF-8"?>
<!DOCTYPE svg PUBLIC "-//W3C//DTD SVG 1.1//EN" "http://www.w3.org/Graphics/SVG/1.1/DTD/svg11.dtd">
<!-- Creator: CorelDRAW X6 -->
<svg xmlns="http://www.w3.org/2000/svg" xml:space="preserve" width="30px" height="30px" version="1.1" style="shape-rendering:geometricPrecision; text-rendering:geometricPrecision; image-rendering:optimizeQuality; fill-rule:evenodd; clip-rule:evenodd"
viewBox="0 0 30000 30000"
 xmlns:xlink="http://www.w3.org/1999/xlink">
 <defs>
  <style type="text/css">
   <![CDATA[
    .fil1 {fill:#676767}
    .fil0 {fill:#FEFEFE}
   ]]>
  </style>
 </defs>
 <g id="Layer_x0020_1">
  <metadata id="CorelCorpID_0Corel-Layer"/>
  <path class="fil0" d="M-2063544 56601l37546 0 0 4222 -37546 0 0 -4222zm0 16662l20884 0 0 4222 -20884 0 0 -4222zm0 -8331l37546 0 0 4222 -37546 0 0 -4222z"/>
  <path class="fil1" d="M429 371l24964 0 0 57 57 0 0 24964 -57 0 0 58 -24964 0 0 -58 -57 0 0 -24964 57 0 0 -57zm12481 4752c2072,0 3750,1680 3750,3751 0,2070 -1678,3750 -3750,3750 -2072,0 -3750,-1680 -3750,-3750 0,-2072 1678,-3751 3750,-3751zm-8359 16147l16719 0c0,0 -1946,-6241 -8360,-6241 -6412,0 -8359,6241 -8359,6241zm22959 -16719l2061 0 0 57 58 0 0 24964 -58 0 0 58 -24964 0 0 -58 -57 0 0 -2061 2119 0 20841 0 0 -20841 0 -2119zm-4179 -2061l-20842 0 0 20841 20842 0 0 -20841z"/>
 </g>
</svg>
