<?xml version="1.0" encoding="UTF-8"?>
<!DOCTYPE svg PUBLIC "-//W3C//DTD SVG 1.1//EN" "http://www.w3.org/Graphics/SVG/1.1/DTD/svg11.dtd">
<!-- Creator: CorelDRAW X6 -->
<svg xmlns="http://www.w3.org/2000/svg" xml:space="preserve" width="8px" height="11px" version="1.1" style="shape-rendering:geometricPrecision; text-rendering:geometricPrecision; image-rendering:optimizeQuality; fill-rule:evenodd; clip-rule:evenodd"
viewBox="0 0 8000 11000"
 xmlns:xlink="http://www.w3.org/1999/xlink">
 <defs>
  <style type="text/css">
   <![CDATA[
    .fil0 {fill:#A0A0A0}
   ]]>
  </style>
 </defs>
 <g id="Слой_x0020_1">
  <metadata id="CorelCorpID_0Corel-Layer"/>
  <path class="fil0" d="M4000 482c2096,0 3794,1698 3794,3794 0,528 -107,1031 -302,1487l0 1c-286,1122 -3308,4755 -3308,4755l0 -2453c-61,3 -122,4 -184,4 -2096,0 -3794,-1698 -3794,-3794 0,-2096 1698,-3794 3794,-3794zm0 2080c946,0 1714,768 1714,1714 0,946 -768,1714 -1714,1714 -946,0 -1714,-768 -1714,-1714 0,-946 768,-1714 1714,-1714zm0 -1193c1606,0 2907,1302 2907,2907 0,1606 -1301,2907 -2907,2907 -1606,0 -2907,-1301 -2907,-2907 0,-1605 1301,-2907 2907,-2907z"/>
 </g>
</svg>
