<svg xmlns="http://www.w3.org/2000/svg" width="30" height="30" viewBox="0 0 4200 4200" shape-rendering="geometricPrecision" text-rendering="geometricPrecision" image-rendering="optimizeQuality" fill-rule="evenodd" clip-rule="evenodd"><path d="M2084 36c1138 0 2061 922 2061 2061 0 1138-922 2061-2061 2061C946 4158 23 3236 23 2097 23 959 945 36 2084 36zm0 832c56 0 101 45 101 101v1026h1026c56 0 101 45 101 101s-45 101-101 101H2185v1026c0 56-45 101-101 101s-101-45-101-101V2197H957c-56 0-101-45-101-101s45-101 101-101h1026V969c0-56 45-101 101-101zm0-633c1027 0 1861 833 1861 1861 0 1027-833 1861-1861 1861-1027 0-1861-833-1861-1861 0-1027 833-1861 1861-1861z" fill="#676767"/></svg>