<?xml version="1.0" encoding="UTF-8"?>
<!DOCTYPE svg PUBLIC "-//W3C//DTD SVG 1.1//EN" "http://www.w3.org/Graphics/SVG/1.1/DTD/svg11.dtd">
<!-- Creator: CorelDRAW X7 -->
<svg xmlns="http://www.w3.org/2000/svg" xml:space="preserve" width="43.3492mm" height="43.3492mm" version="1.1" style="shape-rendering:geometricPrecision; text-rendering:geometricPrecision; image-rendering:optimizeQuality; fill-rule:evenodd; clip-rule:evenodd"
viewBox="0 0 4335 4335"
 xmlns:xlink="http://www.w3.org/1999/xlink">
 <defs>
  <style type="text/css">
   <![CDATA[
    .fil0 {fill:#8d8d8d}
   ]]>
  </style>
 </defs>
 <g id="Слой_x0020_1">
  <metadata id="CorelCorpID_0Corel-Layer"/>
  <path class="fil0" d="M2226 98c717,0 1299,582 1299,1300 0,259 -75,499 -206,702l1 0 -1094 2142 0 -1545c-718,0 -1300,-581 -1300,-1299 0,-718 582,-1300 1300,-1300zm0 839c254,0 461,206 461,461 0,255 -207,461 -461,461 -255,0 -462,-206 -462,-461 0,-255 207,-461 462,-461zm0 -368c457,0 829,371 829,829 0,458 -372,829 -829,829 -458,0 -829,-371 -829,-829 0,-458 371,-829 829,-829z"/>
 </g>
</svg>
