<?xml version="1.0" encoding="utf-8"?>
<!-- Generator: Adobe Illustrator 22.0.1, SVG Export Plug-In . SVG Version: 6.00 Build 0)  -->
<svg version="1.1" id="Livello_1" xmlns="http://www.w3.org/2000/svg" xmlns:xlink="http://www.w3.org/1999/xlink" x="0px" y="0px"
	 viewBox="0 0 122.9 122.9" style="enable-background:new 0 0 122.9 122.9;" xml:space="preserve">
<style type="text/css">
	.st0{fill:#393939;stroke:#393939;stroke-width:20;}
</style>
<g id="Layer_x0020_1">
	<path class="st0" d="M5.4,55.8l8.8-8.8c0.9-0.9,2.5-0.9,3.4,0c9.9,9.9,19.9,19.7,29.8,29.6C66.1,58,84.6,39.3,103.3,20.7
		c0.9-0.9,2.5-0.9,3.4,0l8.8,8.8c0.9,0.9,0.9,2.5,0,3.4C93.3,55.1,71.3,77.2,49.2,99.4c-0.2,0.2-0.4,0.3-0.7,0.5l0,0l0,0
		c-0.9,0.4-2,0.3-2.7-0.5C32.3,85.9,18.9,72.6,5.4,59.2C4.5,58.3,4.5,56.7,5.4,55.8z"/>
</g>
</svg>
