<svg xmlns="http://www.w3.org/2000/svg" width="12" height="11" fill-rule="evenodd" clip-rule="evenodd" image-rendering="optimizeQuality" shape-rendering="geometricPrecision" text-rendering="geometricPrecision" viewBox="0 0 30000 30000">
    <path fill="#ce5471" d="M12524 1074h17442c0 6617 1114 13001-9404 14132l-1-2c-781 767-1761 1381-2992 1668v3521h4749v2197h-1362v3993h1237v2343H7807v-2343h1237v-3993H7682v-2197h4749v-3521c-1231-287-2211-901-2992-1668l-1 2C-1080 14075 34 7691 34 1074h12490zm10952 2121c-65 2792-136 6205-906 9061 0 0 5149-824 5149-4943V3195h-4243zm-16952 0c65 2792 136 6205 906 9061 0 0-5149-824-5149-4943V3195h4243z"/>
</svg>
