<svg xmlns="http://www.w3.org/2000/svg" width="32" height="32" viewBox="0 0 30000 30000" shape-rendering="geometricPrecision" text-rendering="geometricPrecision" image-rendering="optimizeQuality" fill-rule="evenodd" clip-rule="evenodd"><path d="M-2063544 56601h37546v4222h-37546v-4222zm0 16662h20884v4222h-20884v-4222zm0-8331h37546v4222h-37546v-4222z" fill="#fefefe"/><path d="M4193 281h21614c2152 0 3912 1760 3912 3912v21614c0 2152-1760 3912-3912 3912H4193c-2152 0-3912-1760-3912-3912V4193c0-2152 1760-3912 3912-3912zm15736 17105c0 613-115 1148-347 1615-231 463-544 844-934 1149-465 361-974 621-1527 776-556 156-1261 231-2114 231h-4936V8843h4357c906 0 1592 34 2057 104 469 69 906 213 1316 432 441 237 771 556 989 951 217 398 327 856 327 1376 0 598-150 1134-452 1603-299 469-717 814-1245 1033v67c759 162 1367 487 1824 980 458 494 686 1160 686 1996zm-3964-5065c0-198-51-404-152-613-102-209-260-361-477-455-203-90-443-138-723-146-279-8-693-12-1245-12h-214v2609h389c529 0 899-6 1113-18 211-11 430-67 658-175 246-116 418-274 511-480 93-203 141-441 141-711zm780 5014c0-381-76-678-231-893-155-217-386-378-694-488-189-73-446-113-774-122-331-8-768-12-1320-12h-570v3084h167c804 0 1361-6 1671-18 307-11 621-84 943-222 280-122 485-300 615-534 130-235 195-500 195-796zM4934 1289h20133c2004 0 3645 1641 3645 3645v20133c0 2004-1641 3645-3645 3645H4934c-2004 0-3645-1641-3645-3645V4934c0-2004 1641-3645 3645-3645z" fill="#d5b0be"/></svg>