<?xml version="1.0" encoding="UTF-8"?>
<!DOCTYPE svg PUBLIC "-//W3C//DTD SVG 1.1//EN" "http://www.w3.org/Graphics/SVG/1.1/DTD/svg11.dtd">
<!-- Creator: CorelDRAW X6 -->
<svg xmlns="http://www.w3.org/2000/svg" xml:space="preserve" width="30px" height="30px" version="1.1" style="shape-rendering:geometricPrecision; text-rendering:geometricPrecision; image-rendering:optimizeQuality; fill-rule:evenodd; clip-rule:evenodd"
viewBox="0 0 30000 30000"
 xmlns:xlink="http://www.w3.org/1999/xlink">
 <defs>
  <style type="text/css">
   <![CDATA[
    .fil1 {fill:#2B2A29}
    .fil0 {fill:#FEFEFE}
   ]]>
  </style>
 </defs>
 <g id="Layer_x0020_1">
  <metadata id="CorelCorpID_0Corel-Layer"/>
  <path class="fil0" d="M-2063544 56601l37546 0 0 4222 -37546 0 0 -4222zm0 16662l20884 0 0 4222 -20884 0 0 -4222zm0 -8331l37546 0 0 4222 -37546 0 0 -4222z"/>
  <path class="fil1" d="M2269 280l25462 0c1094,0 1989,895 1989,1989l0 25462c0,1094 -895,1989 -1989,1989l-25462 0c-1094,0 -1989,-895 -1989,-1989l0 -25462c0,-1094 895,-1989 1989,-1989zm9496 6360l8267 8252 0 0 0 200 -8251 8267 -1800 -1796 6554 -6567 -6566 -6554 1796 -1801zm-8474 -4950l23419 0c990,0 1600,612 1600,1600l0 23419c0,989 -612,1600 -1600,1600l-23419 0c-989,0 -1600,-611 -1600,-1600l0 -23419c0,-990 611,-1600 1600,-1600z"/>
 </g>
</svg>
