<?xml version="1.0" encoding="utf-8"?>
<!-- Generator: Adobe Illustrator 22.0.1, SVG Export Plug-In . SVG Version: 6.00 Build 0)  -->
<svg version="1.1" id="Livello_1" xmlns="http://www.w3.org/2000/svg" xmlns:xlink="http://www.w3.org/1999/xlink" x="0px" y="0px"
	 viewBox="0 0 48 48" style="enable-background:new 0 0 48 48;" xml:space="preserve">
<style type="text/css">
	.st0{fill:#cc244c;}
</style>
<g id="Слой_x0020_1">
	<path class="st0" d="M8.2,7.4C7.9,7.2,5,4.2,4.5,3.8C3.9,3.2,3.3,2.5,2,3.2C1,3.7,1,4.5,1,5.9v10.9c0,1.4-0.2,3.4,2,3.4
		c4.1,0.1,8.7,0,12.7,0c1.3,0,1.9-0.2,2.3-1.3c0.5-1.3-0.4-1.9-0.9-2.5c-0.3-0.3-3.4-3.4-3.6-3.7c0.2-0.1,0.3-0.3,0.5-0.4
		c3.1-2.5,6.4-3.8,10.7-3.6c4,0.2,8.1,2.2,10.5,4.9c2.7,3.1,4.3,6.8,4,11.3c-0.2,2.9-1.4,6.2-3.1,8.4c-1.1,1.4-1.6,1.9-2.9,2.9
		c-0.4,0.3-0.7,0.5-1.1,0.8c-5.4,3.4-12.5,3.1-17.5-0.8c-1.1-0.9-1.1-0.9-2-1.9c-0.2-0.2-0.3-0.3-0.4-0.5c-0.1-0.2-0.3-0.4-0.4-0.5
		c-0.5-0.4-1.1-0.2-1.4,0.1c-0.7,0.6-1.3,1.3-1.9,1.9c-0.6,0.7-1.3,1.3-1.9,1.9c-0.3,0.3-0.6,0.7-0.3,1.3c0.3,0.7,2.1,2.3,2.8,3
		c0.6,0.6,1.4,1.1,2.2,1.6c1.5,1,3.2,1.8,5.2,2.6c4,1.5,9,1.7,13.3,0.5c2.1-0.5,3.8-1.3,5.5-2.2c1.8-0.9,3.2-2.1,4.5-3.2
		c4.7-4.3,9.2-13.2,6.5-22.7c-1.2-4.3-3.2-7.4-5.5-9.9c-2-2.2-5.5-4.7-9.4-6C21.8-0.8,13.4,2.4,8.2,7.4z"/>
</g>
</svg>
