<?xml version="1.0" encoding="UTF-8"?>
<!DOCTYPE svg PUBLIC "-//W3C//DTD SVG 1.1//EN" "http://www.w3.org/Graphics/SVG/1.1/DTD/svg11.dtd">
<!-- Creator: CorelDRAW X6 -->
<svg xmlns="http://www.w3.org/2000/svg" xml:space="preserve" width="30px" height="30px" version="1.1" style="shape-rendering:geometricPrecision; text-rendering:geometricPrecision; image-rendering:optimizeQuality; fill-rule:evenodd; clip-rule:evenodd"
viewBox="0 0 30000 30000"
 xmlns:xlink="http://www.w3.org/1999/xlink">
 <defs>
  <style type="text/css">
   <![CDATA[
    .fil1 {fill:#cccccc}
    .fil0 {fill:#cccccc}
   ]]>
  </style>
 </defs>
 <g id="Layer_x0020_1">
  <metadata id="CorelCorpID_0Corel-Layer"/>
  <path class="fil0" d="M-2063544 56601l37546 0 0 4222 -37546 0 0 -4222zm0 16662l20884 0 0 4222 -20884 0 0 -4222zm0 -8331l37546 0 0 4222 -37546 0 0 -4222z"/>
  <path class="fil1" d="M3555 4020c4411,-4548 11674,-4661 16224,-249 3927,3809 4546,9744 1801,14223l8102 7858 -3506 3614 -8101 -7858c-4393,2881 -10344,2444 -14271,-1365 -4550,-4411 -4661,-11674 -249,-16222zm2766 2682c2929,-3021 7754,-3094 10774,-165 3021,2930 3094,7754 165,10774 -2929,3021 -7754,3096 -10774,165 -3021,-2929 -3094,-7753 -165,-10774z"/>
 </g>
</svg>
