<?xml version="1.0" encoding="UTF-8"?>
<!DOCTYPE svg PUBLIC "-//W3C//DTD SVG 1.1//EN" "http://www.w3.org/Graphics/SVG/1.1/DTD/svg11.dtd">
<!-- Creator: CorelDRAW X6 -->
<svg xmlns="http://www.w3.org/2000/svg" xml:space="preserve" width="2.54mm" height="2.54mm" version="1.1" style="shape-rendering:geometricPrecision; text-rendering:geometricPrecision; image-rendering:optimizeQuality; fill-rule:evenodd; clip-rule:evenodd"
viewBox="0 0 25400 25400"
 xmlns:xlink="http://www.w3.org/1999/xlink"
 enable-background="new 0 0 64 64">
 <defs>
  <style type="text/css">
   <![CDATA[
    .fil0 {fill:#D9DADA}
   ]]>
  </style>
 </defs>
 <g id="Слой_x0020_1">
  <metadata id="CorelCorpID_0Corel-Layer"/>
  <g id="share-url.svg">
   <path class="fil0" d="M19777 15911c-1051,0 -1997,442 -2668,1148l-7846 -3841c27,-181 45,-363 45,-551 0,-183 -17,-362 -43,-538l7834 -3799c672,712 1622,1158 2678,1158 2036,0 3686,-1650 3686,-3686 0,-2036 -1650,-3686 -3686,-3686 -2035,0 -3686,1650 -3686,3686 0,183 18,362 43,538l-7834 3799c-672,-712 -1622,-1158 -2678,-1158 -2036,0 -3686,1650 -3686,3686 0,2036 1650,3686 3686,3686 1052,0 1997,-443 2669,-1149l7846 3842c-27,180 -46,363 -46,551 0,2036 1650,3686 3686,3686 2036,0 3686,-1650 3686,-3686 0,-2036 -1650,-3686 -3686,-3686z"/>
  </g>
 </g>
</svg>
