<?xml version="1.0" encoding="UTF-8"?>
<!DOCTYPE svg PUBLIC "-//W3C//DTD SVG 1.1//EN" "http://www.w3.org/Graphics/SVG/1.1/DTD/svg11.dtd">
<!-- Creator: CorelDRAW X6 -->
<svg xmlns="http://www.w3.org/2000/svg" xml:space="preserve" width="2.54mm" height="2.54mm" version="1.1" style="shape-rendering:geometricPrecision; text-rendering:geometricPrecision; image-rendering:optimizeQuality; fill-rule:evenodd; clip-rule:evenodd"
viewBox="0 0 25400 25400"
 xmlns:xlink="http://www.w3.org/1999/xlink"
 enable-background="new 0 0 64 64">
 <defs>
  <style type="text/css">
   <![CDATA[
    .fil0 {fill:#a8a8a8}
   ]]>
  </style>
 </defs>
 <g id="Слой_x0020_1">
  <metadata id="CorelCorpID_0Corel-Layer"/>
  <g id="share-url.svg">
   <path class="fil0" d="M20772 16363c-1199,0 -2278,504 -3043,1310l-8949 -4382c30,-206 52,-414 52,-629 0,-208 -21,-412 -50,-613l8936 -4333c766,812 1850,1321 3055,1321 2321,0 4204,-1882 4204,-4204 0,-2323 -1883,-4205 -4204,-4205 -2322,0 -4205,1882 -4205,4205 0,209 20,412 50,613l-8936 4333c-767,-811 -1850,-1321 -3055,-1321 -2322,0 -4204,1883 -4204,4204 0,2323 1882,4205 4204,4205 1199,0 2278,-505 3044,-1310l8949 4381c-31,206 -52,415 -52,629 0,2322 1883,4204 4204,4204 2322,0 4205,-1882 4205,-4204 0,-2322 -1883,-4204 -4205,-4204z"/>
  </g>
 </g>
</svg>
