<?xml version="1.0" encoding="UTF-8"?>
<!DOCTYPE svg PUBLIC "-//W3C//DTD SVG 1.1//EN" "http://www.w3.org/Graphics/SVG/1.1/DTD/svg11.dtd">
<!-- Creator: CorelDRAW X6 -->
<svg xmlns="http://www.w3.org/2000/svg" xml:space="preserve" width="22px" height="22px" version="1.1" style="shape-rendering:geometricPrecision; text-rendering:geometricPrecision; image-rendering:optimizeQuality; fill-rule:evenodd; clip-rule:evenodd"
viewBox="0 0 22000 22000"
 xmlns:xlink="http://www.w3.org/1999/xlink"
 baseProfile="tiny">
 <defs>
  <style type="text/css">
   <![CDATA[
    .fil0 {fill:#FFD865}
   ]]>
  </style>
 </defs>
 <g id="Слой_x0020_1">
  <metadata id="CorelCorpID_0Corel-Layer"/>
  <g id="if_star_216411.svg">
   <g>
    <g>
     <path class="fil0" d="M7574 7308c0,0 -4106,455 -6845,759 -247,30 -465,195 -547,446 -82,251 0,511 182,676 2035,1857 5092,4637 5092,4637 -3,0 -839,4045 -1396,6744 -46,244 42,503 255,657 212,155 485,157 699,37 2396,-1362 5985,-3410 5985,-3410 0,0 3589,2048 5981,3411 219,119 491,117 703,-38 213,-155 302,-413 253,-656 -555,-2700 -1391,-6745 -1391,-6745 0,0 3057,-2780 5092,-4633 181,-171 262,-431 181,-681 -80,-249 -299,-414 -545,-443 -2739,-306 -6846,-761 -6846,-761 0,0 -1702,-3766 -2837,-6275 -106,-225 -330,-382 -592,-382 -263,0 -488,158 -589,382 -1134,2509 -2835,6275 -2835,6275z"/>
    </g>
   </g>
  </g>
 </g>
</svg>
