<?xml version="1.0" encoding="UTF-8"?>
<!DOCTYPE svg PUBLIC "-//W3C//DTD SVG 1.1//EN" "http://www.w3.org/Graphics/SVG/1.1/DTD/svg11.dtd">
<!-- Creator: CorelDRAW X6 -->
<svg xmlns="http://www.w3.org/2000/svg" xml:space="preserve" width="5.08mm" height="5.08mm" version="1.1" style="shape-rendering:geometricPrecision; text-rendering:geometricPrecision; image-rendering:optimizeQuality; fill-rule:evenodd; clip-rule:evenodd"
viewBox="0 0 508 508"
 xmlns:xlink="http://www.w3.org/1999/xlink">
 <defs>
  <style type="text/css">
   <![CDATA[
    .fil0 {fill:#DDDDDD}
   ]]>
  </style>
 </defs>
 <g id="Слой_x0020_1">
  <metadata id="CorelCorpID_0Corel-Layer"/>
  <path class="fil0" d="M476 154l0 20 -444 0 0 -18c0,-28 10,-52 43,-52l92 0 0 0 0 0 1 0 1 0 1 0 0 0 2 0 2 0 2 0 0 0 2 0 3 0 0 0 3 0 3 0 0 0 3 0 2 0 1 0 4 0 1 0 3 0 3 0 2 0 4 0 0 0 5 0 1 0 3 0 2 0 3 0 3 0 2 0 4 0 1 0 5 0 1 0 5 0 0 0 5 0 0 0 5 0 0 0 5 0 0 0 5 0 1 0 5 0 1 0 4 0 2 0 3 0 3 0 2 0 3 0 1 0 5 0 0 0 4 0 2 0 3 0 3 0 1 0 4 0 1 0 2 0 3 0 0 0 3 0 3 0 0 0 3 0 2 0 0 0 2 0 2 0 2 0 0 0 1 0 1 0 1 0 0 0 0 0 92 0c32,0 43,23 43,50zm-156 124c14,0 26,7 33,18 7,-11 19,-18 33,-18 22,0 40,18 40,40 0,22 -18,40 -40,40 -14,0 -26,-7 -33,-18 -7,11 -19,18 -33,18 -22,0 -40,-18 -40,-40 0,-22 18,-40 40,-40zm156 -60l0 147c0,0 -3,39 -43,39l-92 0 0 0 0 0 -1 0 -1 0 -1 0 0 0 -2 0 -2 0 -2 0 0 0 -2 0 -3 0 0 0 -3 0 -3 0 0 0 -3 0 -2 0 -1 0 -4 0 -1 0 -3 0 -3 0 -2 0 -4 0 0 0 -5 0 -1 0 -3 0 -2 0 -3 0 -3 0 -2 0 -4 0 -1 0 -5 0 -1 0 -5 0 0 0 -5 0 0 0 -5 0 0 0 -5 0 0 0 -5 0 -1 0 -5 0 -1 0 -4 0 -2 0 -3 0 -3 0 -2 0 -3 0 -1 0 -5 0 0 0 -4 0 -2 0 -3 0 -3 0 -1 0 -4 0 -1 0 -2 0 -3 0 0 0 -3 0 -3 0 0 0 -3 0 -2 0 0 0 -2 0 -2 0 -2 0 0 0 -1 0 -1 0 -1 0 0 0 0 0 -92 0c-40,0 -43,-39 -43,-39l0 -147 444 0zm-309 217l174 0 103 0c0,0 61,4 61,-70l0 -15 0 0 0 0 0 0 0 -1 0 -1 0 -1 0 0 0 -1 0 -1 0 -1 0 0 0 -2 0 -2 0 0 0 -2 0 -2 0 0 0 -2 0 -2 0 0 0 -2 0 -1 0 -1 0 -3 0 0 0 -3 0 -1 0 -2 0 -3 0 0 0 -3 0 -1 0 -3 0 -2 0 -2 0 -3 0 -1 0 -3 0 0 0 -4 0 -1 0 -3 0 -1 0 -3 0 -2 0 -2 0 -2 0 -2 0 -3 0 -1 0 -3 0 -1 0 -3 0 -1 0 -3 0 -1 0 -4 0 -1 0 -4 0 -1 0 -4 0 -1 0 -4 0 -1 0 -3 0 -1 0 -3 0 -1 0 -3 0 -1 0 -3 0 -2 0 -2 0 -2 0 -2 0 -3 0 -1 0 -1 0 -2 0 -1 0 -4 0 0 0 -3 0 -1 0 -3 0 -2 0 -2 0 -3 0 -1 0 -3 0 0 0 -3 0 -2 0 -1 0 -3 0 0 0 -3 0 -1 0 -1 0 -2 0 0 0 -2 0 -1 0 -1 0 0 0 -2 0 -2 0 0 0 -2 0 -2 0 0 0 -1 0 -1 0 -1 0 0 0 -1 0 -1 0 -1 0 0 0 0 0 0 0 -15c0,-74 -61,-70 -61,-70l-103 0 -174 0 -103 0c0,0 -61,-4 -61,70l0 15 0 0 0 0 0 0 0 1 0 1 0 1 0 0 0 1 0 1 0 1 0 0 0 2 0 2 0 0 0 2 0 2 0 0 0 1 0 1 0 2 0 0 0 2 0 1 0 1 0 3 0 0 0 3 0 1 0 2 0 3 0 0 0 3 0 1 0 3 0 2 0 2 0 3 0 1 0 3 0 0 0 4 0 1 0 2 0 1 0 1 0 3 0 2 0 2 0 2 0 2 0 3 0 1 0 3 0 1 0 3 0 1 0 3 0 1 0 4 0 1 0 4 0 1 0 4 0 1 0 4 0 1 0 3 0 1 0 3 0 1 0 3 0 1 0 3 0 2 0 2 0 2 0 2 0 3 0 1 0 3 0 1 0 4 0 0 0 3 0 1 0 3 0 2 0 2 0 3 0 1 0 3 0 0 0 3 0 2 0 1 0 3 0 0 0 3 0 1 0 1 0 2 0 0 0 2 0 2 0 0 0 2 0 2 0 0 0 2 0 2 0 0 0 1 0 1 0 1 0 0 0 1 0 1 0 1 0 0 0 0 0 0 0 15c0,74 61,70 61,70l103 0z"/>
 </g>
</svg>
