<?xml version="1.0" encoding="UTF-8"?>
<!DOCTYPE svg PUBLIC "-//W3C//DTD SVG 1.1//EN" "http://www.w3.org/Graphics/SVG/1.1/DTD/svg11.dtd">
<!-- Creator: CorelDRAW X6 -->
<svg xmlns="http://www.w3.org/2000/svg" xml:space="preserve" width="5.0198mm" height="4.8102mm" version="1.1" style="shape-rendering:geometricPrecision; text-rendering:geometricPrecision; image-rendering:optimizeQuality; fill-rule:evenodd; clip-rule:evenodd"
viewBox="0 0 502 481"
 xmlns:xlink="http://www.w3.org/1999/xlink">
 <defs>
  <style type="text/css">
   <![CDATA[
    .fil0 {fill:#DDDDDD}
   ]]>
  </style>
 </defs>
 <g id="Слой_x0020_1">
  <metadata id="CorelCorpID_0Corel-Layer"/>
  <path class="fil0" d="M128 0l184 0 49 0 13 0 4 0c4,0 7,3 7,7l0 14 0 10c11,-5 26,-13 58,-13 103,0 72,216 -96,219 -32,36 -64,52 -75,56l0 74c69,5 110,60 110,65l0 0 -13 0 -97 0 -14 0 -13 0 -14 0 -97 0 -13 0 0 0c0,-6 41,-60 110,-65l0 -74c-11,-5 -43,-21 -75,-56 -168,-3 -199,-219 -96,-219 33,0 47,7 58,13l0 -10 0 -14c0,-4 3,-7 7,-7l4 0zm123 64l17 40 44 4 -33 29 10 43 -38 -22 -38 22 10 -43 -33 -29 44 -4 17 -40zm-133 20l0 86c0,0 -1,12 12,33 -55,-11 -98,-48 -98,-109 0,-23 4,-46 37,-46 34,0 24,25 30,33 3,3 11,3 19,2zm38 365l-38 0 0 32 38 0 190 0 38 0 0 -32 -38 0 -190 0zm229 -365l0 86c0,0 1,12 -12,33 55,-11 98,-48 98,-109 0,-23 -4,-46 -37,-46 -34,0 -24,25 -30,33 -3,3 -11,3 -19,2z"/>
 </g>
</svg>
