<?xml version="1.0" encoding="UTF-8"?>
<!DOCTYPE svg PUBLIC "-//W3C//DTD SVG 1.1//EN" "http://www.w3.org/Graphics/SVG/1.1/DTD/svg11.dtd">
<!-- Creator: CorelDRAW X6 -->
<svg xmlns="http://www.w3.org/2000/svg" xml:space="preserve" width="2.54mm" height="2.54mm" version="1.1" style="shape-rendering:geometricPrecision; text-rendering:geometricPrecision; image-rendering:optimizeQuality; fill-rule:evenodd; clip-rule:evenodd"
viewBox="0 0 254 254"
 xmlns:xlink="http://www.w3.org/1999/xlink">
 <g id="Слой_x0020_1">
  <metadata id="CorelCorpID_0Corel-Layer"/>
  <path class="fil0" d="M91 31c4,-16 19,-28 36,-28l0 0c17,0 32,12 36,28l53 0c7,0 13,6 13,13l0 0c0,8 -6,14 -13,14l-57 0 -64 0 -57 0c-7,0 -13,-6 -13,-14l0 0c0,-7 6,-13 13,-13l53 0zm-10 64l0 0c4,0 7,3 7,7l0 118c0,4 -3,7 -7,7l0 0c-4,0 -7,-3 -7,-7l0 -118c0,-4 3,-7 7,-7zm92 0l0 0c4,0 7,3 7,7l0 118c0,4 -3,7 -7,7l0 0c-4,0 -7,-3 -7,-7l0 -118c0,-4 3,-7 7,-7zm-45 0l0 0c4,0 7,3 7,7l0 118c0,4 -3,7 -7,7l0 0c-4,0 -7,-3 -7,-7l0 -118c0,-4 3,-7 7,-7zm-68 -27l134 0 12 0 0 156c0,0 -2,27 -28,27l-4 0 0 0 0 0 0 0 -1 0 0 0 0 0 -1 0 0 0 0 0 -1 0 -1 0 0 0 -1 0 0 0 -1 0 -1 0 0 0 -1 0 -1 0 0 0 -1 0 0 0 -2 0 0 0 -1 0 -1 0 0 0 -2 0 0 0 -2 0 0 0 -1 0 -1 0 -1 0 -1 0 -1 0 -1 0 0 0 -2 0 0 0 -2 0 0 0 -2 0 0 0 -2 0 0 0 -2 0 0 0 -2 0 0 0 -2 0 0 0 -2 0 0 0 -2 0 0 0 -2 0 0 0 -2 0 0 0 -2 0 0 0 -2 0 0 0 -2 0 0 0 -2 0 0 0 -2 0 0 0 -2 0 0 0 -2 0 0 0 -2 0 0 0 -2 0 0 0 -2 0 0 0 -2 0 0 0 -2 0 0 0 -1 0 -1 0 -1 0 -1 0 -1 0 -1 0 0 0 -2 0 0 0 -2 0 0 0 -1 0 -1 0 0 0 -1 0 -1 0 -1 0 0 0 -1 0 -1 0 0 0 -1 0 -1 0 0 0 -1 0 0 0 -1 0 -1 0 0 0 0 0 -1 0 0 0 0 0 -1 0 0 0 0 0 0 0 -4 0c-26,0 -28,-27 -28,-27l0 -156 12 0z"/>
 </g>
</svg>
