<?xml version="1.0" encoding="UTF-8"?>
<!DOCTYPE svg PUBLIC "-//W3C//DTD SVG 1.1//EN" "http://www.w3.org/Graphics/SVG/1.1/DTD/svg11.dtd">
<!-- Creator: CorelDRAW X6 -->
<svg xmlns="http://www.w3.org/2000/svg" xml:space="preserve" width="11px" height="13px" version="1.1" style="shape-rendering:geometricPrecision; text-rendering:geometricPrecision; image-rendering:optimizeQuality; fill-rule:evenodd; clip-rule:evenodd"
viewBox="0 0 11000 13000"
 xmlns:xlink="http://www.w3.org/1999/xlink">
 <defs>
  <style type="text/css">
   <![CDATA[
    .fil0 {fill:#FEFEFE}
   ]]>
  </style>
 </defs>
 <g id="Слой_x0020_1">
  <metadata id="CorelCorpID_0Corel-Layer"/>
  <path class="fil0" d="M5500 100c-791,791 -4788,5651 -5123,6434l-1 0c-234,548 470,548 470,548l1163 0 2328 0 0 4654c0,1164 0,1164 0,1164l0 0 2327 0 0 0c0,0 0,0 0,-1164l0 -4654 -1 0 2328 0 1163 0c0,0 655,0 492,-491 -165,-493 -4572,-5917 -5146,-6491z"/>
 </g>
</svg>
