<?xml version="1.0" encoding="UTF-8"?>
<!DOCTYPE svg PUBLIC "-//W3C//DTD SVG 1.1//EN" "http://www.w3.org/Graphics/SVG/1.1/DTD/svg11.dtd">
<!-- Creator: CorelDRAW X6 -->
<svg xmlns="http://www.w3.org/2000/svg" xml:space="preserve" width="110px" height="130px" version="1.1" style="shape-rendering:geometricPrecision; text-rendering:geometricPrecision; image-rendering:optimizeQuality; fill-rule:evenodd; clip-rule:evenodd"
viewBox="0 0 110000 130001"
 xmlns:xlink="http://www.w3.org/1999/xlink">
 <defs>
  <style type="text/css">
   <![CDATA[
    .fil0 {fill:#C5C6C6}
   ]]>
  </style>
 </defs>
 <g id="Слой_x0020_1">
  <metadata id="CorelCorpID_0Corel-Layer"/>
  <path class="fil0" d="M55000 999c-7913,7914 -47875,56511 -51235,64341l-1 1c-2348,5478 4692,5479 4692,5479l11636 0 23275 0 0 46544c0,11638 0,11638 0,11638l0 0 23274 0 0 0c0,0 0,0 0,-11638l0 -46544 -8 0 23275 0 11636 0c0,0 6544,0 4911,-4906 -1642,-4939 -45717,-59177 -51455,-64915z"/>
 </g>
</svg>
