<?xml version="1.0" encoding="UTF-8"?>
<!DOCTYPE svg PUBLIC "-//W3C//DTD SVG 1.1//EN" "http://www.w3.org/Graphics/SVG/1.1/DTD/svg11.dtd">
<!-- Creator: CorelDRAW X6 -->
<svg xmlns="http://www.w3.org/2000/svg" xml:space="preserve" width="30px" height="30px" version="1.1" style="shape-rendering:geometricPrecision; text-rendering:geometricPrecision; image-rendering:optimizeQuality; fill-rule:evenodd; clip-rule:evenodd"
viewBox="0 0 30000 30000"
 xmlns:xlink="http://www.w3.org/1999/xlink">
 <defs>
  <style type="text/css">
   <![CDATA[
    .fil1 {fill:#898989}
    .fil0 {fill:#FEFEFE}
   ]]>
  </style>
 </defs>
 <g id="Layer_x0020_1">
  <metadata id="CorelCorpID_0Corel-Layer"/>
  <path class="fil0" d="M-2063544 56601l37546 0 0 4222 -37546 0 0 -4222zm0 16662l20884 0 0 4222 -20884 0 0 -4222zm0 -8331l37546 0 0 4222 -37546 0 0 -4222z"/>
  <path class="fil1" d="M6843 29447l220 0 26 0 21 0 15 0 9 0 2 0 15725 0 4 0 8 0 15 0 21 0 27 0 220 0 -4 -9c970,-63 4032,-535 4032,-4002l-1 -141 1 -177c0,-4444 -3931,-9813 -3931,-9813 0,0 -1328,-1270 -2457,-116 -1114,1137 -3660,1827 -5662,1847l-87 0 -5 0 -89 0 -5 0 -87 0c-2003,-20 -4548,-710 -5662,-1847 -1130,-1154 -2457,116 -2457,116 0,0 -3932,5368 -3932,9813l2 177 -2 141c0,3467 3064,3939 4033,4002l-4 9zm8157 -28894c3908,0 7076,3168 7076,7076 0,3908 -3168,7076 -7076,7076 -3908,0 -7076,-3168 -7076,-7076 0,-3908 3168,-7076 7076,-7076zm4514 5701l-9028 0c-132,435 -203,896 -203,1375 0,2606 2112,4719 4717,4719 2606,0 4717,-2113 4717,-4719 0,-478 -71,-940 -203,-1375z"/>
 </g>
</svg>
