<?xml version="1.0" encoding="UTF-8"?>
<!DOCTYPE svg PUBLIC "-//W3C//DTD SVG 1.1//EN" "http://www.w3.org/Graphics/SVG/1.1/DTD/svg11.dtd">
<!-- Creator: CorelDRAW X6 -->
<svg xmlns="http://www.w3.org/2000/svg" xml:space="preserve" width="30px" height="30px" version="1.1" style="shape-rendering:geometricPrecision; text-rendering:geometricPrecision; image-rendering:optimizeQuality; fill-rule:evenodd; clip-rule:evenodd"
viewBox="0 0 30000 30000"
 xmlns:xlink="http://www.w3.org/1999/xlink">
 <defs>
  <style type="text/css">
   <![CDATA[
    .fil1 {fill:#676767}
    .fil0 {fill:#FEFEFE}
   ]]>
  </style>
 </defs>
 <g id="Layer_x0020_1">
  <metadata id="CorelCorpID_0Corel-Layer"/>
  <path class="fil0" d="M-2063544 56601l37546 0 0 4222 -37546 0 0 -4222zm0 16662l20884 0 0 4222 -20884 0 0 -4222zm0 -8331l37546 0 0 4222 -37546 0 0 -4222z"/>
  <path class="fil1" d="M467 409l24899 0 0 57 57 0 0 24899 -57 0 0 58 -24899 0 0 -58 -57 0 0 -24899 57 0 0 -57zm8327 6203l0 12449 8223 -6281 -8223 -6168zm18685 -2034l2055 0 0 57 58 0 0 24899 -58 0 0 58 -24899 0 0 -58 -57 0 0 -2055 2113 0 20787 0 0 -20787 0 -2113zm-4169 -2056l-20786 0 0 20787 20786 0 0 -20787z"/>
 </g>
</svg>
