<?xml version="1.0" encoding="UTF-8"?>
<!DOCTYPE svg PUBLIC "-//W3C//DTD SVG 1.1//EN" "http://www.w3.org/Graphics/SVG/1.1/DTD/svg11.dtd">
<!-- Creator: CorelDRAW X8 -->
<svg xmlns="http://www.w3.org/2000/svg" xml:space="preserve" width="30px" height="31px" version="1.1" style="shape-rendering:geometricPrecision; text-rendering:geometricPrecision; image-rendering:optimizeQuality; fill-rule:evenodd; clip-rule:evenodd"
viewBox="0 0 30 31"
 xmlns:xlink="http://www.w3.org/1999/xlink">
 <defs>
  <style type="text/css">
   <![CDATA[
    .fil0 {fill:#BFBFBF}
   ]]>
  </style>
 </defs>
 <g id="Слой_x0020_1">
  <metadata id="CorelCorpID_0Corel-Layer"/>
  <path class="fil0" d="M18 2l5 0 0 5 0 3 0 7 0 1c-3,1 -4,3 -4,6 0,0 0,0 0,0l-1 0 0 -4 -13 0 0 5 -5 0 0 -8 0 -7 0 -3 0 -5 5 0 0 5 13 0 0 -5zm7 16c3,0 5,3 5,6 0,2 -2,5 -5,5 -3,0 -5,-3 -5,-5 0,-3 2,-6 5,-6zm-1 3l1 0c1,0 1,0 1,0l0 2 2 0c0,0 0,0 0,0l0 1c0,0 0,0 0,0l-2 0 0 2c0,0 0,0 -1,0l-1 0c0,0 0,0 0,0l0 -2 -2 0c0,0 0,0 0,0l0 -1c0,0 0,0 0,0l2 0 0 -2c0,0 0,0 0,0zm-5 -8l2 0c0,0 1,0 1,0l0 1c0,0 -1,1 -1,1l-2 0c0,0 0,-1 0,-1l0 -1c0,0 0,0 0,0zm0 -9l2 0c0,0 1,0 1,0l0 1c0,0 -1,0 -1,0l-2 0c0,0 0,0 0,0l0 -1c0,0 0,0 0,0zm0 4l2 0c0,0 1,0 1,0l0 2c0,0 -1,0 -1,0l-2 0c0,0 0,0 0,0l0 -2c0,0 0,0 0,0zm-18 14l2 0c1,0 1,0 1,0l0 1c0,1 0,1 -1,1l-2 0c0,0 0,0 0,-1l0 -1c0,0 0,0 0,0zm0 -9l2 0c1,0 1,0 1,0l0 1c0,0 0,1 -1,1l-2 0c0,0 0,-1 0,-1l0 -1c0,0 0,0 0,0zm0 4l2 0c1,0 1,0 1,0l0 2c0,0 0,0 -1,0l-2 0c0,0 0,0 0,0l0 -2c0,0 0,0 0,0zm0 -13l2 0c1,0 1,0 1,0l0 1c0,0 0,0 -1,0l-2 0c0,0 0,0 0,0l0 -1c0,0 0,0 0,0zm0 4l2 0c1,0 1,0 1,0l0 2c0,0 0,0 -1,0l-2 0c0,0 0,0 0,0l0 -2c0,0 0,0 0,0zm5 16l11 0 0 -3 -11 0 0 3zm0 -7l11 0 0 0 0 -6 0 0 -11 0 0 3 0 3zm0 -14l11 0 0 3 -11 0 0 -3zm12 14l0 -7 -13 0 0 7 13 0z"/>
 </g>
</svg>
