<?xml version="1.0" encoding="UTF-8"?>
<!DOCTYPE svg PUBLIC "-//W3C//DTD SVG 1.1//EN" "http://www.w3.org/Graphics/SVG/1.1/DTD/svg11.dtd">
<!-- Creator: CorelDRAW X8 -->
<svg xmlns="http://www.w3.org/2000/svg" xml:space="preserve" width="30px" height="31px" version="1.1" style="shape-rendering:geometricPrecision; text-rendering:geometricPrecision; image-rendering:optimizeQuality; fill-rule:evenodd; clip-rule:evenodd"
viewBox="0 0 30 31"
 xmlns:xlink="http://www.w3.org/1999/xlink">
 <defs>
  <style type="text/css">
   <![CDATA[
    .fil0 {fill:#828282}
   ]]>
  </style>
 </defs>
 <g id="Слой_x0020_1">
  <metadata id="CorelCorpID_0Corel-Layer"/>
  <path class="fil0" d="M19 9l0 7 5 0 0 0 0 0 0 0 0 0 0 -15 -5 0 0 5 -13 0 0 -5 -6 0 0 25 6 0 0 -5 10 0c1,-1 1,-1 1,-1l0 -2 -11 0 0 -9 13 0zm1 -7l3 0 0 2 -3 0 0 -2zm3 13l0 0 -3 0 0 0 0 -3 0 0 3 0 0 0 0 3zm-3 -8l3 0 0 2 -3 0 0 -2zm4 12c3,0 6,2 6,6 0,3 -3,5 -6,5 -3,0 -6,-2 -6,-5 0,-4 3,-6 6,-6zm-1 2l2 0 0 3 2 0 0 1 -2 0 0 3 -2 0 0 -3 -3 0 0 -1 3 0 0 -3zm-16 4l9 0 0 -3 -9 0 0 3zm0 -15l10 0 0 6 -10 0 0 -6zm0 -5l10 0 0 -3 -10 0 0 3zm-5 -3l2 0 0 2 -2 0 0 -2zm0 15l2 0 0 3 -2 0 0 -3zm2 -2l0 0 -2 0 0 0 0 -3 0 0 2 0 0 0 0 3zm-2 7l2 0 0 3 -2 0 0 -3zm0 -15l2 0 0 2 -2 0 0 -2z"/>
 </g>
</svg>
