<?xml version="1.0" encoding="UTF-8"?>
<!DOCTYPE svg PUBLIC "-//W3C//DTD SVG 1.1//EN" "http://www.w3.org/Graphics/SVG/1.1/DTD/svg11.dtd">
<!-- Creator: CorelDRAW X6 -->
<svg xmlns="http://www.w3.org/2000/svg" xml:space="preserve" width="30px" height="30px" version="1.1" style="shape-rendering:geometricPrecision; text-rendering:geometricPrecision; image-rendering:optimizeQuality; fill-rule:evenodd; clip-rule:evenodd"
viewBox="0 0 30000 30000"
 xmlns:xlink="http://www.w3.org/1999/xlink">
 <defs>
  <style type="text/css">
   <![CDATA[
    .fil1 {fill:#4c4c4c}
    .fil0 {fill:#4c4c4c}
   ]]>
  </style>
 </defs>
 <g id="Layer_x0020_1">
  <metadata id="CorelCorpID_0Corel-Layer"/>
  <path class="fil0" d="M-2063544 56601l37546 0 0 4222 -37546 0 0 -4222zm0 16662l20884 0 0 4222 -20884 0 0 -4222zm0 -8331l37546 0 0 4222 -37546 0 0 -4222z"/>
  <path class="fil1" d="M3749 226l22501 0c1938,0 3523,1586 3523,3523l0 22501c0,1938 -1585,3523 -3523,3523l-22501 0c-1937,0 -3523,-1585 -3523,-3523l0 -22501c0,-1937 1586,-3523 3523,-3523zm16980 17675c0,744 -141,1396 -422,1963 -282,562 -663,1026 -1136,1396 -567,441 -1186,757 -1857,945 -676,188 -1537,281 -2571,281l-5471 0 0 -14972 4768 0c1101,0 1936,44 2502,128 568,83 1101,257 1599,524 535,289 937,677 1201,1157 265,483 398,1039 398,1671 0,728 -182,1380 -549,1949 -364,570 -872,989 -1513,1257l0 83c922,196 1661,589 2217,1191 556,600 834,1411 834,2427zm-4819 -6158c0,-240 -61,-490 -185,-744 -123,-254 -315,-439 -580,-553 -247,-110 -539,-168 -879,-178 -339,-11 -844,-14 -1513,-14l-261 0 0 3171 474 0c641,0 1091,-7 1352,-20 257,-14 521,-83 800,-213 299,-141 508,-333 621,-583 113,-248 171,-536 171,-866zm947 6096c0,-463 -92,-823 -281,-1084 -189,-265 -470,-459 -844,-594 -230,-89 -542,-137 -940,-148 -402,-9 -933,-13 -1606,-13l-693 0 0 3748 202 0c978,0 1655,-7 2033,-20 373,-14 755,-104 1146,-272 340,-148 591,-364 749,-648 157,-285 236,-608 236,-969zm-12459 -16761l21206 0c1826,0 3320,1494 3320,3320l0 21206c0,1826 -1494,3320 -3320,3320l-21206 0c-1826,0 -3320,-1494 -3320,-3320l0 -21206c0,-1826 1494,-3320 3320,-3320z"/>
 </g>
</svg>
