<?xml version="1.0" encoding="UTF-8"?>
<!DOCTYPE svg PUBLIC "-//W3C//DTD SVG 1.1//EN" "http://www.w3.org/Graphics/SVG/1.1/DTD/svg11.dtd">
<!-- Creator: CorelDRAW X6 -->
<svg xmlns="http://www.w3.org/2000/svg" xml:space="preserve" width="5.08mm" height="5.08mm" version="1.1" style="shape-rendering:geometricPrecision; text-rendering:geometricPrecision; image-rendering:optimizeQuality; fill-rule:evenodd; clip-rule:evenodd"
viewBox="0 0 508 508"
 xmlns:xlink="http://www.w3.org/1999/xlink">
 <defs>
  <style type="text/css">
   <![CDATA[
    .fil0 {fill:#DDDDDD}
   ]]>
  </style>
 </defs>
 <g id="Слой_x0020_1">
  <metadata id="CorelCorpID_0Corel-Layer"/>
  <path class="fil0" d="M236 111c7,12 25,33 60,44 24,8 41,11 52,14 18,4 20,17 20,21l0 1 0 76c0,16 2,21 -12,32 -13,10 -13,18 1,22 61,16 164,-49 97,-89 -30,-18 -58,-39 -58,-80 0,-42 -38,-149 -134,-149 -2,0 -3,0 -5,0l0 0c-103,0 -139,86 -139,144 0,58 -39,68 -68,78 -29,10 -23,39 3,67 26,28 72,38 92,33 20,-5 35,-23 19,-31 -19,-9 -19,-16 -19,-33 0,-7 0,-17 0,-30 0,-32 14,-48 45,-72 31,-23 25,-34 26,-47 1,-17 12,-13 19,-2zm-17 46c0,0 19,-15 43,0 24,15 47,17 61,20 14,3 27,7 27,26 0,19 0,51 0,51 0,0 -1,21 -20,42 -19,21 -28,29 -28,41 0,12 -2,26 13,35 15,9 39,14 39,14 16,67 -206,67 -189,0 0,0 24,-5 39,-14 15,-9 13,-23 13,-35 0,-12 -9,-20 -28,-41 -19,-21 -20,-42 -20,-42 0,0 0,-24 0,-43 0,-23 51,-55 51,-55zm172 241c-23,82 -237,82 -260,0 -69,4 -5,108 130,108 135,0 199,-104 129,-108z"/>
 </g>
</svg>
