<svg xmlns="http://www.w3.org/2000/svg" width="31.68" height="11.84" fill-rule="evenodd" clip-rule="evenodd" image-rendering="optimizeQuality" shape-rendering="geometricPrecision" text-rendering="geometricPrecision" viewBox="0 0 8382 3133">
    <path fill="#6d8db1" d="M8007 24H449c-182 0-332 150-332 332v2420c0 182 149 332 332 332h7558c183 0 332-149 332-332V356c0-183-150-332-332-332z"/>
    <path fill="#3b6798" d="M4306 24H374C192 24 42 174 42 356v2420c0 182 150 332 332 332h7634c182 0 332-150 332-332V356c0-182-150-332-332-332H4306zm156 2986H409c-150 0-274-124-274-274V396c0-151 124-274 274-274h7564c151 0 274 124 274 274v2340c0 151-124 274-274 274H4462z"/>
    <path fill="#3b6798" fill-rule="nonzero" d="M1132 1078h366c73 0 126 3 162 9s67 19 96 38c28 19 52 45 70 76 19 32 28 67 28 107 0 43-12 82-35 117-23 36-54 62-94 80 56 16 98 44 128 83s45 85 45 138c0 42-10 82-29 122-19 39-46 71-79 95-34 23-75 38-124 43-31 3-105 5-223 6h-312v-915zm185 152v211h121c72 0 116-1 134-3 32-4 56-15 75-33 18-18 27-42 27-71 0-28-8-51-23-69-16-18-39-28-69-32-18-2-71-3-158-3h-106zm0 363v245h171c66 0 109-2 127-6 27-5 50-17 67-37s26-45 26-78c0-28-7-51-20-70s-33-33-58-42-80-13-164-13h-149zm695 60c0-58 14-115 43-169 29-55 69-96 122-125s111-43 176-43c100 0 182 33 246 98s96 148 96 247c0 101-32 184-97 250s-146 99-244 99c-61 0-119-14-174-41-55-28-97-68-126-121s-43-118-43-194zm180 9c0 66 16 116 47 151s70 53 115 53c46 0 84-18 115-53s47-86 47-152c0-65-16-115-47-150s-69-53-115-53-84 17-115 53c-31 35-47 85-47 151zm636-333h169v417l270-417h172v663h-169v-423l-273 423h-169v-663zm418-267h86c-5 56-25 101-60 133s-80 48-135 48-100-16-135-48-55-77-60-133h86c3 29 13 52 31 67s44 23 78 23 60-7 78-23c18-15 28-37 31-67zm293 267h599v142h-212v521h-175v-521h-212v-142zm699 0h169v417l270-417h173v663h-169v-423l-273 423h-169v-663z"/>
    <path fill="#fff" fill-rule="nonzero" d="M1132 1018h366c73 0 126 3 162 9s67 19 96 38c28 19 52 45 70 76 19 32 28 68 28 107 0 43-12 82-35 117-23 36-54 62-94 80 56 16 98 44 128 83s45 85 45 138c0 42-10 82-29 122-19 39-46 71-79 95-34 23-75 38-124 43-31 3-105 5-223 6h-312v-914zm185 152v211h121c72 0 116-1 134-3 32-4 56-14 75-33 18-18 27-42 27-71 0-28-8-51-23-69-16-18-39-28-69-32-18-2-71-3-158-3h-106zm0 363v245h171c66 0 109-2 127-6 27-5 50-17 67-37s26-45 26-78c0-28-7-51-20-70s-33-33-58-42-80-13-164-13h-149zm695 60c0-58 14-115 43-169 29-55 69-96 122-125s111-43 176-43c100 0 182 33 246 98s96 148 96 247c0 101-32 184-97 250s-146 99-244 99c-61 0-119-14-174-41-55-28-97-68-126-121s-43-118-43-194zm180 9c0 66 16 116 47 151s70 53 115 53c46 0 84-18 115-53s47-86 47-152c0-65-16-115-47-150s-69-53-115-53-84 18-115 53-47 85-47 151zm636-333h169v417l270-417h172v663h-169v-423l-273 423h-169v-663zm418-267h86c-5 56-25 101-60 133s-80 48-135 48-100-16-135-48-55-77-60-133h86c3 29 13 52 31 67s44 23 78 23 60-8 78-23 28-38 31-67zm293 267h599v142h-212v521h-175v-521h-212v-142zm699 0h169v417l270-417h173v663h-169v-423l-273 423h-169v-663z"/>
    <path fill="#3b6798" d="M5891 514h1730c118 0 214 96 214 214v1730c0 118-96 214-214 214H5891c-118 0-213-96-213-214V728c0-117 96-214 213-214zm769 665h152s71 5 71 91v236s10 66 66 47c57-20 147-228 174-285s47-88 81-88h275s52 2 29 64c-22 61-226 344-226 344s-34 42 12 93c47 52 211 226 211 226s47 98-44 98h-226s-66 10-123-52c-56-61-125-133-125-133s-12-17-52-17c-39 0-56 59-56 96v51s-3 57-56 57h-133s-128 5-292-130c-165-135-393-616-393-616s-47-81 29-81h214s42 0 69 61 160 267 160 267 49 79 93 42 20-219 20-219-12-66-44-78-56-84 113-74zm-733-620h1657c113 0 205 92 205 205v1657c0 113-92 205-205 205H5927c-113 0-205-92-205-205V764c0-113 92-205 205-205z"/>
    <path fill="#fefefe" d="M5891 462h1730c118 0 214 96 214 214v1730c0 117-96 214-214 214H5891c-118 0-214-96-214-214V676c0-117 96-214 214-214zm97 121h1536c104 0 190 85 190 190v1536c0 104-86 190-190 190H5988c-104 0-190-85-190-190V773c0-104 85-190 190-190z"/>
    <path fill="#fefefe" d="M6660 1125h152s71 5 71 91v236s10 66 66 47c57-20 147-228 174-285s47-88 81-88h275s52 2 29 64c-22 61-226 344-226 344s-34 42 12 93c47 52 211 226 211 226s47 98-44 98h-226s-66 10-123-52c-56-61-125-133-125-133s-12-17-52-17c-39 0-56 59-56 96v52s-3 57-56 57h-133s-128 5-292-130c-165-135-393-616-393-616s-47-81 29-81h214s42 0 69 61 160 268 160 268 49 79 93 42 20-219 20-219-12-66-44-79c-32-12-56-84 113-74z"/>
</svg>
