<?xml version="1.0" encoding="UTF-8"?>
<!DOCTYPE svg PUBLIC "-//W3C//DTD SVG 1.1//EN" "http://www.w3.org/Graphics/SVG/1.1/DTD/svg11.dtd">
<!-- Creator: CorelDRAW X7 -->
<svg xmlns="http://www.w3.org/2000/svg" xml:space="preserve" width="43.3492mm" height="43.3492mm" version="1.1" style="shape-rendering:geometricPrecision; text-rendering:geometricPrecision; image-rendering:optimizeQuality; fill-rule:evenodd; clip-rule:evenodd"
viewBox="0 0 4335 4335"
 xmlns:xlink="http://www.w3.org/1999/xlink">
 <defs>
  <style type="text/css">
   <![CDATA[
    .fil2 {fill:#663333}
    .fil3 {fill:gray}
    .fil0 {fill:#E09E03}
    .fil5 {fill:#F7C98C}
    .fil1 {fill:#F8BB6B}
    .fil4 {fill:white}
   ]]>
  </style>
 </defs>
 <g id="Слой_x0020_1">
  <metadata id="CorelCorpID_0Corel-Layer"/>
  <g id="_914255136">
   <path class="fil0" d="M2167 36c1177,0 2131,954 2131,2130 0,1177 -954,2131 -2131,2131 -1176,0 -2130,-954 -2130,-2131 0,-1176 954,-2130 2130,-2130z"/>
   <path class="fil1" d="M2167 34c1178,0 2134,955 2134,2133 0,1178 -955,2134 -2134,2134 -1177,0 -2133,-955 -2133,-2134 0,-1177 955,-2133 2133,-2133z"/>
   <path class="fil2" d="M3269 1925c0,0 -92,-690 -454,-690 -361,0 -437,420 -437,605 0,185 126,134 227,25 101,-110 201,-194 335,-126 135,67 202,226 202,226 0,0 142,92 126,-42l1 2zm-2202 5c0,0 92,-689 454,-689 361,0 437,419 437,604 0,185 -126,134 -227,25 -101,-110 -201,-193 -335,-126 -135,67 -202,226 -202,226 0,0 -142,92 -126,-42l-1 2z"/>
   <path class="fil2" d="M2168 2318l0 0c863,0 1563,247 1563,551l0 0c0,303 -700,550 -1563,550l0 0c-862,0 -1562,-247 -1562,-550l0 0c0,-304 700,-551 1562,-551z"/>
   <g>
    <path class="fil3" d="M1584 2587l1169 0c155,0 281,127 281,282l0 0c0,155 -127,281 -281,281l-1169 0c-155,0 -281,-127 -281,-281l0 0c0,-156 127,-282 281,-282z"/>
    <path class="fil4" d="M1584 2587l46 0 0 265 -163 0 0 -239c35,-17 75,-26 117,-26zm-151 265l-130 0c6,-93 57,-174 130,-221l0 221zm231 -265l211 0 0 265 -211 0 0 -265zm244 0l244 0 0 265 -244 0 0 -265zm278 0l232 0 0 265 -232 0 0 -265zm266 0l197 0 0 265 -197 0 0 -265zm230 0l71 0c42,0 82,9 118,26l0 239 -189 0 0 -265 0 0zm223 45c73,47 123,128 129,220l-129 0 0 -220zm129 253c-6,92 -56,172 -129,220l0 -220 129 0zm-163 239c-36,17 -76,26 -118,26l-71 0 0 -265 190 0 0 239 -1 0zm-223 26l-197 0 0 -265 197 0 0 265zm-230 0l-233 0 0 -265 233 0 0 265zm-266 0l-244 0 0 -265 244 0 0 265zm-278 0l-211 0 0 -265 211 0 0 265zm-244 0l-46 0c-41,0 -81,-9 -117,-26l0 -239 163 0 0 265zm-197 -44c-73,-47 -124,-128 -130,-221l130 0 0 221z"/>
   </g>
   <path class="fil5" d="M848 701c794,-708 2012,-638 2720,155 152,172 269,363 350,564 -73,-139 -163,-272 -273,-395 -708,-794 -1926,-864 -2720,-155 -622,555 -799,1422 -506,2154 -396,-763 -242,-1724 429,-2324l0 1z"/>
  </g>
 </g>
</svg>
