<?xml version="1.0" encoding="UTF-8"?>
<!DOCTYPE svg PUBLIC "-//W3C//DTD SVG 1.0//EN" "http://www.w3.org/TR/2001/REC-SVG-20010904/DTD/svg10.dtd">
<!-- Creator: CorelDRAW X6 -->
<svg xmlns="http://www.w3.org/2000/svg" xml:space="preserve" width="497px" height="497px" version="1.0" style="shape-rendering:geometricPrecision; text-rendering:geometricPrecision; image-rendering:optimizeQuality; fill-rule:evenodd; clip-rule:evenodd"
viewBox="0 0 497 497"
 xmlns:xlink="http://www.w3.org/1999/xlink">
 <defs>
  <style type="text/css">
   <![CDATA[
    .fil2 {fill:#008DD2}
    .fil3 {fill:#434242}
    .fil4 {fill:#E31E24}
    .fil1 {fill:#FEFEFE}
    .fil5 {fill:#EDA457}
    .fil0 {fill:#F8BB6B}
   ]]>
  </style>
 </defs>
 <g id="Layer_x0020_1">
  <metadata id="CorelCorpID_0Corel-Layer"/>
  <g id="_569582560">
   <g>
    <path class="fil0" d="M248 0c137,0 248,111 248,248 0,137 -111,248 -248,248 -137,0 -248,-111 -248,-248 0,-137 111,-248 248,-248z"/>
    <g>
     <path class="fil1" d="M120 163c42,0 76,34 76,76 0,42 -34,76 -76,76 -42,0 -76,-34 -76,-76 0,-42 34,-76 76,-76zm257 0c42,0 76,34 76,76 0,42 -34,76 -76,76 -42,0 -76,-34 -76,-76 0,-42 34,-76 76,-76z"/>
     <path class="fil2" d="M379 222c10,0 18,8 18,18 0,10 -8,18 -18,18 -10,0 -18,-8 -18,-18 0,-10 8,-18 18,-18zm-261 0c10,0 18,8 18,18 0,10 -8,18 -18,18 -10,0 -18,-8 -18,-18 0,-10 8,-18 18,-18z"/>
    </g>
    <path class="fil3" d="M243 385l11 0 72 0c0,0 20,11 18,25 -1,13 -41,39 -89,42 -2,0 -4,0 -5,0l-1 0 -1 0c-2,0 -4,0 -5,0 -49,-3 -88,-29 -89,-42 -1,-14 18,-25 18,-25l72 0z"/>
    <path class="fil4" d="M317 436c0,0 -9,-5 -24,-10 -11,-4 -25,-7 -43,-7l-1 0 -1 0c-17,0 -32,3 -43,7 -15,5 -24,10 -24,10l1 0c-1,0 -1,1 -1,1 0,0 27,16 67,15 40,0 67,-15 67,-15 0,0 0,0 -1,-1l1 0z"/>
   </g>
   <path class="fil5" d="M274 189l110 -70c8,-5 18,-3 22,5l0 0c5,8 3,18 -5,22l-110 70c-8,5 -18,3 -22,-5l0 0c-5,-8 -3,-18 5,-22zm-51 0l-110 -70c-8,-5 -18,-3 -22,5l0 0c-5,8 -3,18 5,22l110 70c8,5 18,3 22,-5l0 0c5,-8 3,-18 -5,-22z"/>
  </g>
 </g>
</svg>
