<?xml version="1.0" encoding="UTF-8"?>
<!DOCTYPE svg PUBLIC "-//W3C//DTD SVG 1.0//EN" "http://www.w3.org/TR/2001/REC-SVG-20010904/DTD/svg10.dtd">
<!-- Creator: CorelDRAW X6 -->
<svg xmlns="http://www.w3.org/2000/svg" xml:space="preserve" width="494px" height="494px" version="1.0" style="shape-rendering:geometricPrecision; text-rendering:geometricPrecision; image-rendering:optimizeQuality; fill-rule:evenodd; clip-rule:evenodd"
viewBox="0 0 494 494"
 xmlns:xlink="http://www.w3.org/1999/xlink">
 <defs>
  <style type="text/css">
   <![CDATA[
    .fil3 {fill:#009846}
    .fil1 {fill:#434242}
    .fil6 {fill:#66C3D0}
    .fil5 {fill:#EBECEC}
    .fil2 {fill:#FEFEFE}
    .fil4 {fill:#E1AA61}
    .fil7 {fill:#EDA457}
    .fil0 {fill:#F8BB6B}
   ]]>
  </style>
 </defs>
 <g id="Layer_x0020_1">
  <metadata id="CorelCorpID_0Corel-Layer"/>
  <g id="_573957344">
   <path class="fil0" d="M247 0c136,0 247,111 247,247 0,136 -111,247 -247,247 -136,0 -247,-111 -247,-247 0,-136 111,-247 247,-247z"/>
   <path class="fil1" d="M347 318c0,0 1,0 1,0l0 0 0 0c3,0 6,2 9,5 34,41 -48,89 -109,88 -57,-1 -143,-36 -114,-88 4,-6 8,-7 12,-5l201 0z"/>
   <path class="fil2" d="M348 142c24,0 43,19 43,43 0,24 -19,43 -43,43 -24,0 -43,-19 -43,-43 0,-24 19,-43 43,-43zm-202 0c24,0 43,19 43,43 0,24 -19,43 -43,43 -24,0 -43,-19 -43,-43 0,-24 19,-43 43,-43z"/>
   <path class="fil3" d="M150 172c10,0 18,8 18,18 0,10 -8,18 -18,18 -10,0 -18,-8 -18,-18 0,-10 8,-18 18,-18zm194 0c10,0 18,8 18,18 0,10 -8,18 -18,18 -10,0 -18,-8 -18,-18 0,-10 8,-18 18,-18z"/>
   <path class="fil4" d="M147 433l0 9c-64,-35 -166,-116 -101,-259 51,70 -38,144 101,251zm200 0l0 9c64,-35 166,-116 101,-259 -51,70 38,144 -101,251z"/>
   <path class="fil5" d="M195 318l43 0 0 45 -43 0 0 -45zm61 0l43 0 0 45 -43 0 0 -45z"/>
   <path class="fil6" d="M371 220c0,0 0,0 -1,1 -1,0 -1,-1 -1,-1 -15,17 -21,32 -20,42 0,4 0,7 1,11 3,9 11,14 20,13 9,1 17,-3 20,-13 1,-4 1,-8 1,-11 0,-11 -5,-25 -20,-42z"/>
   <path class="fil6" d="M126 226c0,0 0,0 -1,1 -1,0 -1,-1 -1,-1 -15,17 -20,32 -20,42 0,4 0,7 1,11 3,9 11,14 20,13 9,1 17,-3 20,-13 1,-4 1,-8 1,-11 0,-11 -5,-25 -20,-42z"/>
   <path class="fil7" d="M365 66c0,0 -39,12 -119,38 -80,25 -116,-31 -116,-31 0,0 100,-88 235,-6z"/>
  </g>
 </g>
</svg>
