<?xml version="1.0" encoding="UTF-8"?>
<!DOCTYPE svg PUBLIC "-//W3C//DTD SVG 1.1//EN" "http://www.w3.org/Graphics/SVG/1.1/DTD/svg11.dtd">
<!-- Creator: CorelDRAW X7 -->
<svg xmlns="http://www.w3.org/2000/svg" xml:space="preserve" width="43.3492mm" height="43.3492mm" version="1.1" style="shape-rendering:geometricPrecision; text-rendering:geometricPrecision; image-rendering:optimizeQuality; fill-rule:evenodd; clip-rule:evenodd"
viewBox="0 0 4335 4335"
 xmlns:xlink="http://www.w3.org/1999/xlink">
 <defs>
  <style type="text/css">
   <![CDATA[
    .fil2 {fill:#663333}
    .fil0 {fill:#E09E03}
    .fil1 {fill:#F8BB6B}
    .fil3 {fill:#FAC682}
   ]]>
  </style>
 </defs>
 <g id="Слой_x0020_1">
  <metadata id="CorelCorpID_0Corel-Layer"/>
  <path class="fil0" d="M2167 51c1170,0 2117,948 2117,2116 0,1170 -948,2117 -2117,2117 -1169,0 -2116,-948 -2116,-2117 0,-1169 948,-2116 2116,-2116z"/>
  <path class="fil1" d="M2167 68c1160,0 2100,940 2100,2099 0,1160 -940,2100 -2100,2100 -1159,0 -2099,-940 -2099,-2100 0,-1159 940,-2099 2099,-2099z"/>
  <path class="fil2" d="M1326 1112c-155,45 -225,278 -157,522 69,245 251,406 407,362 155,-44 225,-277 156,-522 -68,-244 -250,-406 -406,-362zm1684 0c155,45 225,278 157,522 -69,245 -251,406 -407,362 -155,-44 -225,-277 -156,-522 68,-244 250,-406 406,-362z"/>
  <path class="fil2" d="M984 3280c557,-1019 1810,-1019 2368,0 0,-5 2,16 2,17 2,6 5,21 4,37 8,192 -151,118 -151,118 -748,-340 -1331,-340 -2078,0 0,0 -159,74 -151,-118 -1,-16 2,-31 3,-37 0,-1 3,-22 3,-17z"/>
  <path class="fil3" d="M845 690c819,-730 2074,-658 2805,161 158,177 279,375 362,582 -75,-144 -168,-282 -281,-409 -731,-819 -1987,-891 -2806,-160 -642,572 -824,1468 -522,2222 -408,-787 -250,-1779 443,-2397l-1 1z"/>
 </g>
</svg>
