<?xml version="1.0" encoding="UTF-8"?>
<!DOCTYPE svg PUBLIC "-//W3C//DTD SVG 1.0//EN" "http://www.w3.org/TR/2001/REC-SVG-20010904/DTD/svg10.dtd">
<!-- Creator: CorelDRAW X6 -->
<svg xmlns="http://www.w3.org/2000/svg" xml:space="preserve" width="488px" height="488px" version="1.0" style="shape-rendering:geometricPrecision; text-rendering:geometricPrecision; image-rendering:optimizeQuality; fill-rule:evenodd; clip-rule:evenodd"
viewBox="0 0 488 488"
 xmlns:xlink="http://www.w3.org/1999/xlink">
 <defs>
  <style type="text/css">
   <![CDATA[
    .fil1 {fill:#434242}
    .fil3 {fill:#E31E24}
    .fil2 {fill:#FEFEFE}
    .fil0 {fill:#F8BB6B}
   ]]>
  </style>
 </defs>
 <g id="Layer_x0020_1">
  <metadata id="CorelCorpID_0Corel-Layer"/>
  <g id="_571298616">
   <path class="fil0" d="M244 0c135,0 244,109 244,244 0,135 -109,244 -244,244 -135,0 -244,-109 -244,-244 0,-135 109,-244 244,-244z"/>
   <g>
    <path class="fil1" d="M87 178l315 0c8,0 14,6 14,14l0 0c0,8 -6,14 -14,14l-315 0c-8,0 -14,-6 -14,-14l0 0c0,-8 6,-14 14,-14z"/>
    <path class="fil2" d="M401 206c0,0 -11,58 -69,57 -58,-1 -49,-57 -49,-57l118 0zm-314 0c0,0 11,58 69,57 58,-1 49,-57 49,-57l-118 0z"/>
   </g>
   <path class="fil1" d="M159 225c7,0 12,6 12,12 0,7 -6,12 -12,12 -7,0 -12,-6 -12,-12 0,-7 6,-12 12,-12zm169 0c7,0 12,6 12,12 0,7 -6,12 -12,12 -7,0 -12,-6 -12,-12 0,-7 6,-12 12,-12z"/>
   <path class="fil1" d="M244 333c42,0 77,15 77,34 0,19 -34,34 -77,34 -42,0 -77,-15 -77,-34 0,-19 34,-34 77,-34z"/>
   <path class="fil3" d="M296 392c0,0 -9,-25 -52,-25 -44,0 -44,28 -44,28 0,0 56,17 97,-3z"/>
  </g>
 </g>
</svg>
