<?xml version="1.0" encoding="UTF-8"?>
<!DOCTYPE svg PUBLIC "-//W3C//DTD SVG 1.1//EN" "http://www.w3.org/Graphics/SVG/1.1/DTD/svg11.dtd">
<!-- Creator: CorelDRAW X6 -->
<svg xmlns="http://www.w3.org/2000/svg" xml:space="preserve" width="512px" height="512px" version="1.1" style="shape-rendering:geometricPrecision; text-rendering:geometricPrecision; image-rendering:optimizeQuality; fill-rule:evenodd; clip-rule:evenodd"
viewBox="0 0 512 512"
 xmlns:xlink="http://www.w3.org/1999/xlink">
 <defs>
  <style type="text/css">
   <![CDATA[
    .fil3 {fill:black}
    .fil4 {fill:#1A1A1A}
    .fil0 {fill:#BA7D04}
    .fil1 {fill:#FFB015}
    .fil2 {fill:white}
   ]]>
  </style>
 </defs>
 <g id="Layer_x0020_1">
  <metadata id="CorelCorpID_0Corel-Layer"/>
  <g id="_686333984">
   <g>
    <path class="fil0" d="M277 135l103 -81c0,0 19,-13 34,14 4,6 4,18 3,33 0,-4 -1,-8 -3,-10 -13,-23 -29,-12 -29,-12l-88 70c-39,69 65,75 93,75 -23,0 -160,-2 -113,-88z"/>
    <path class="fil1" d="M317 160l74 -58c0,0 13,-9 24,10 11,19 -15,110 -15,110 0,0 -120,4 -83,-63z"/>
   </g>
   <g>
    <path class="fil0" d="M235 135l-103 -81c0,0 -19,-13 -34,14 -4,6 -4,18 -3,33 0,-4 1,-8 3,-10 13,-23 29,-12 29,-12l88 70c39,69 -65,75 -93,75 23,0 160,-2 113,-88z"/>
    <path class="fil1" d="M195 160l-74 -58c0,0 -13,-9 -24,10 -11,19 15,110 15,110 0,0 120,4 83,-63z"/>
   </g>
   <path class="fil0" d="M142 164c11,0 20,9 20,20 0,11 -9,20 -20,20 -11,0 -20,-9 -20,-20 0,-11 9,-20 20,-20zm229 0c11,0 20,9 20,20 0,11 -9,20 -20,20 -11,0 -20,-9 -20,-20 0,-11 9,-20 20,-20z"/>
   <path class="fil1" d="M248 429l17 0 83 0c0,0 60,-1 60,-60 0,-58 0,-109 0,-109 0,0 0,-119 -140,-119l-1 0 -1 0 -1 0 0 0 0 0 0 0 -1 0 -2 0 -3 0 -3 0 -3 0 -2 0 -4 0c-140,0 -140,119 -140,119 0,0 0,51 0,109 0,58 60,60 60,60l83 0zm-3 -288l1 0 1 0 1 0 0 0 0 0 0 0"/>
   <path class="fil2" d="M184 229c19,0 34,15 34,34 0,19 -15,34 -34,34 -19,0 -34,-15 -34,-34 0,-19 15,-34 34,-34z"/>
   <path class="fil3" d="M184 239c13,0 24,11 24,24 0,13 -11,24 -24,24 -13,0 -24,-11 -24,-24 0,-13 11,-24 24,-24z"/>
   <path class="fil2" d="M190 246c6,0 11,5 11,11 0,6 -5,11 -11,11 -6,0 -11,-5 -11,-11 0,-6 5,-11 11,-11z"/>
   <path class="fil2" d="M328 229c19,0 34,15 34,34 0,19 -15,34 -34,34 -19,0 -34,-15 -34,-34 0,-19 15,-34 34,-34z"/>
   <path class="fil3" d="M328 239c13,0 24,11 24,24 0,13 -11,24 -24,24 -13,0 -24,-11 -24,-24 0,-13 11,-24 24,-24z"/>
   <path class="fil2" d="M333 246c6,0 11,5 11,11 0,6 -5,11 -11,11 -6,0 -11,-5 -11,-11 0,-6 5,-11 11,-11z"/>
   <path class="fil3" d="M12 330l147 0c4,0 7,3 7,7l0 0c0,4 -3,7 -7,7l-147 0c-4,0 -7,-3 -7,-7l0 0c0,-4 3,-7 7,-7zm487 0l-150 0c-4,0 -7,3 -7,7l0 0c0,4 3,7 7,7l150 0c4,0 7,-3 7,-7l0 0c0,-4 -3,-7 -7,-7zm-43 33l-74 0c-4,0 -7,3 -7,7l0 0c0,4 3,7 7,7l74 0c4,0 7,-3 7,-7l0 0c0,-4 -3,-7 -7,-7zm0 -66l-74 0c-4,0 -7,3 -7,7l0 0c0,4 3,7 7,7l74 0c4,0 7,-3 7,-7l0 0c0,-4 -3,-7 -7,-7zm-401 66l74 0c4,0 7,3 7,7l0 0c0,4 -3,7 -7,7l-74 0c-4,0 -7,-3 -7,-7l0 0c0,-4 3,-7 7,-7zm0 -66l74 0c4,0 7,3 7,7l0 0c0,4 -3,7 -7,7l-74 0c-4,0 -7,-3 -7,-7l0 0c0,-4 3,-7 7,-7z"/>
   <path class="fil0" d="M201 429l110 0c0,0 -4,-54 -55,-54 -51,0 -54,54 -54,54z"/>
   <path class="fil4" d="M256 307c24,0 44,5 44,12 0,5 -43,28 -44,28 -1,0 -44,-23 -44,-28 0,-7 20,-12 44,-12z"/>
  </g>
 </g>
</svg>
