<?xml version="1.0" encoding="UTF-8"?>
<!DOCTYPE svg PUBLIC "-//W3C//DTD SVG 1.0//EN" "http://www.w3.org/TR/2001/REC-SVG-20010904/DTD/svg10.dtd">
<!-- Creator: CorelDRAW X6 -->
<svg xmlns="http://www.w3.org/2000/svg" xml:space="preserve" width="485px" height="485px" version="1.0" style="shape-rendering:geometricPrecision; text-rendering:geometricPrecision; image-rendering:optimizeQuality; fill-rule:evenodd; clip-rule:evenodd"
viewBox="0 0 485 485"
 xmlns:xlink="http://www.w3.org/1999/xlink">
 <defs>
  <style type="text/css">
   <![CDATA[
    .fil1 {fill:#434242}
    .fil2 {fill:#FEFEFE}
    .fil3 {fill:#D79C4D}
    .fil0 {fill:#F8BB6B}
   ]]>
  </style>
 </defs>
 <g id="Layer_x0020_1">
  <metadata id="CorelCorpID_0Corel-Layer"/>
  <g id="_569979600">
   <path class="fil0" d="M243 0c134,0 243,109 243,243 0,134 -109,243 -243,243 -134,0 -243,-109 -243,-243 0,-134 109,-243 243,-243z"/>
   <path class="fil1" d="M199 303c3,0 7,1 9,4l34 34 34 -34c3,-3 6,-4 9,-4 3,0 7,1 9,4l43 43c5,5 5,13 0,18l0 0c-5,5 -13,5 -18,0l-35 -35c-52,52 -36,52 -87,0l-35 35c-5,5 -13,5 -18,0l0 0c-5,-5 -5,-13 0,-18l43 -43c3,-3 6,-4 9,-4z"/>
   <g>
    <path class="fil2" d="M119 161c24,0 44,20 44,44 0,24 -20,44 -44,44 -24,0 -44,-20 -44,-44 0,-24 20,-44 44,-44zm247 0c24,0 44,20 44,44 0,24 -20,44 -44,44 -24,0 -44,-20 -44,-44 0,-24 20,-44 44,-44z"/>
    <path class="fil1" d="M128 206c14,0 25,10 28,22 -8,12 -21,20 -37,20 -7,0 -13,-1 -18,-4 -1,-3 -2,-6 -2,-10 0,-16 13,-29 29,-29zm246 42c-3,0 -5,1 -8,1 -19,0 -36,-12 -42,-30 5,-8 14,-13 24,-13 16,0 29,13 29,29 0,5 -1,9 -3,13z"/>
   </g>
   <path class="fil3" d="M243 156l121 -70c7,-4 15,-2 19,5l0 0c4,7 2,15 -5,19l-128 74c-2,1 -5,2 -7,2l0 0c-2,0 -5,-1 -7,-2l-128 -74c-7,-4 -9,-12 -5,-19l0 0c4,-7 12,-9 19,-5l121 70z"/>
  </g>
 </g>
</svg>
