<?xml version="1.0" encoding="utf-8"?>
<!-- Generator: Adobe Illustrator 22.0.1, SVG Export Plug-In . SVG Version: 6.00 Build 0)  -->
<svg version="1.1" id="Livello_1" xmlns="http://www.w3.org/2000/svg" xmlns:xlink="http://www.w3.org/1999/xlink" x="0px" y="0px"
	 viewBox="0 0 122.9 122.9" style="enable-background:new 0 0 122.9 122.9;" xml:space="preserve">
<style type="text/css">
	.st0{fill:#E09E03;}
	.st1{fill:#F8BB6B;}
	.st2{fill:#663333;}
	.st3{fill:#FAC682;}
</style>
<g id="Слой_x0020_1">
	<path class="st0" d="M61.4,1.4c33.2,0,60,26.9,60,60c0,33.2-26.9,60-60,60s-60-26.9-60-60S28.3,1.4,61.4,1.4z"/>
	<path class="st1" d="M61.4,1.9c32.9,0,59.5,26.6,59.5,59.5c0,32.9-26.6,59.5-59.5,59.5C28.6,121,1.9,94.3,1.9,61.4
		C1.9,28.6,28.6,1.9,61.4,1.9z"/>
	<path class="st2" d="M36.6,47.5c-4.4,1.3-6.4,7.9-4.5,14.8c2,6.9,7.1,11.5,11.5,10.3c4.4-1.2,6.4-7.9,4.4-14.8
		C46.2,50.9,41,46.3,36.6,47.5z"/>
	<path class="st2" d="M82.6,88.3c-9.6,17.5-31,17.5-40.6,0C42,88.4,42,88,42,88c0-0.1-0.1-0.4-0.1-0.7c-0.1-3.3,2.6-2,2.6-2
		c12.8,5.8,22.8,5.8,35.6,0c0,0,2.7-1.3,2.6,2c0,0.3,0,0.5-0.1,0.7C82.6,88,82.6,88.4,82.6,88.3z"/>
	<path class="st3" d="M24,19.6c23.2-20.7,58.8-18.7,79.5,4.6c4.5,5,7.9,10.6,10.3,16.5c-2.1-4.1-4.8-8-8-11.6
		C85,5.8,49.4,3.8,26.2,24.5C8,40.7,2.9,66.1,11.4,87.5C-0.1,65.2,4.3,37,24,19.6L24,19.6z"/>
</g>
<g>
	<path class="st2" d="M100.2,64.9c-0.2-0.5-5.3-11.7-15.8-11.7c-10.5,0-15.6,11.2-15.8,11.7c-0.3,0.7-0.1,1.6,0.5,2.1
		c0.6,0.5,1.5,0.5,2.2,0c0,0,4.5-3.2,13.1-3.2c8.6,0,13,3.1,13.1,3.2c0.3,0.2,0.7,0.4,1.1,0.4c0.4,0,0.8-0.1,1.1-0.4
		C100.3,66.5,100.6,65.6,100.2,64.9"/>
	<path class="st2" d="M20.7,46c-0.7,0-1.5-0.2-2.1-0.7c-1.6-1.2-1.9-3.4-0.7-5c11.5-15.4,27-15.6,27.6-15.6c2,0,3.5,1.6,3.5,3.5
		c0,2-1.6,3.5-3.5,3.5c-0.5,0-12.6,0.3-22,12.7C22.9,45.5,21.8,46,20.7,46"/>
	<path class="st2" d="M102.2,53.5c-1.1,0-2.1-0.5-2.8-1.4c-9.2-12.2-24.6-9.3-24.8-9.3c-1.9,0.4-3.8-0.9-4.2-2.8
		c-0.4-1.9,0.9-3.8,2.8-4.2c0.8-0.2,20-3.8,31.8,12c1.2,1.6,0.9,3.8-0.7,5C103.6,53.3,102.9,53.5,102.2,53.5"/>
</g>
</svg>
