<?xml version="1.0" encoding="UTF-8"?>
<!DOCTYPE svg PUBLIC "-//W3C//DTD SVG 1.0//EN" "http://www.w3.org/TR/2001/REC-SVG-20010904/DTD/svg10.dtd">
<!-- Creator: CorelDRAW X6 -->
<svg xmlns="http://www.w3.org/2000/svg" xml:space="preserve" width="479px" height="479px" version="1.0" style="shape-rendering:geometricPrecision; text-rendering:geometricPrecision; image-rendering:optimizeQuality; fill-rule:evenodd; clip-rule:evenodd"
viewBox="0 0 479 479"
 xmlns:xlink="http://www.w3.org/1999/xlink">
 <defs>
  <style type="text/css">
   <![CDATA[
    .fil2 {fill:#434242}
    .fil3 {fill:#E31E24}
    .fil1 {fill:#FEFEFE}
    .fil0 {fill:#F8BB6B}
   ]]>
  </style>
 </defs>
 <g id="Layer_x0020_1">
  <metadata id="CorelCorpID_0Corel-Layer"/>
  <g id="_569604952">
   <path class="fil0" d="M239 0c132,0 239,107 239,239 0,132 -107,239 -239,239 -132,0 -239,-107 -239,-239 0,-132 107,-239 239,-239z"/>
   <g>
    <path class="fil1" d="M146 156c26,0 46,21 46,46 0,26 -21,46 -46,46 -26,0 -46,-21 -46,-46 0,-26 21,-46 46,-46zm188 0c26,0 46,21 46,46 0,26 -21,46 -46,46 -26,0 -46,-21 -46,-46 0,-26 21,-46 46,-46z"/>
    <path class="fil2" d="M145 184c10,0 18,8 18,18 0,10 -8,18 -18,18 -10,0 -18,-8 -18,-18 0,-10 8,-18 18,-18z"/>
    <path class="fil2" d="M333 184c10,0 18,8 18,18 0,10 -8,18 -18,18 -10,0 -18,-8 -18,-18 0,-10 8,-18 18,-18z"/>
    <path class="fil2" d="M170 308l138 0c18,0 33,15 33,33l0 0c0,35 -29,64 -64,64l-77 0c-35,0 -64,-29 -64,-64l0 0c0,-18 15,-33 33,-33z"/>
    <path class="fil3" d="M285 404c0,0 0,0 0,-1l0 0c0,0 0,0 0,-1 -1,-9 -9,-46 -46,-46 -1,0 -2,0 -3,0 -1,0 -2,0 -3,0 -37,0 -44,36 -46,46 0,1 0,1 0,1l0 0c0,1 0,1 0,1 16,0 34,0 49,0 15,0 33,0 49,0z"/>
   </g>
  </g>
 </g>
</svg>
