<?xml version="1.0" encoding="UTF-8"?>
<!DOCTYPE svg PUBLIC "-//W3C//DTD SVG 1.0//EN" "http://www.w3.org/TR/2001/REC-SVG-20010904/DTD/svg10.dtd">
<!-- Creator: CorelDRAW X6 -->
<svg xmlns="http://www.w3.org/2000/svg" xml:space="preserve" width="482px" height="482px" version="1.0" style="shape-rendering:geometricPrecision; text-rendering:geometricPrecision; image-rendering:optimizeQuality; fill-rule:evenodd; clip-rule:evenodd"
viewBox="0 0 482 482"
 xmlns:xlink="http://www.w3.org/1999/xlink">
 <defs>
  <style type="text/css">
   <![CDATA[
    .fil2 {fill:#5B5B5B}
    .fil0 {fill:#61A375}
    .fil1 {fill:#C5C6C6}
   ]]>
  </style>
 </defs>
 <g id="Layer_x0020_1">
  <metadata id="CorelCorpID_0Corel-Layer"/>
  <g id="_572067736">
   <path class="fil0" d="M241 0c133,0 241,108 241,241 0,133 -108,241 -241,241 -133,0 -241,-108 -241,-241 0,-133 108,-241 241,-241z"/>
   <g>
    <path class="fil1" d="M266 185c0,0 4,51 56,58 44,6 84,-43 94,-58l-150 0zm-201 0l150 0c0,0 -4,51 -56,58 -44,6 -84,-43 -94,-58z"/>
    <path class="fil2" d="M51 160l156 0 68 0 156 0c7,0 13,6 13,13l0 0c0,7 -6,13 -13,13l-156 0 -68 0 -156 0c-7,0 -13,-6 -13,-13l0 0c0,-7 6,-13 13,-13z"/>
    <path class="fil2" d="M241 337c-4,0 -8,0 -12,0 -62,0 -94,34 -94,34l212 0c0,0 -33,-34 -94,-34 -4,0 -8,0 -12,0z"/>
   </g>
  </g>
 </g>
</svg>
