<?xml version="1.0" encoding="UTF-8"?>
<!DOCTYPE svg PUBLIC "-//W3C//DTD SVG 1.1//EN" "http://www.w3.org/Graphics/SVG/1.1/DTD/svg11.dtd">
<!-- Creator: CorelDRAW X7 -->
<svg xmlns="http://www.w3.org/2000/svg" xml:space="preserve" width="43.3492mm" height="43.3492mm" version="1.1" style="shape-rendering:geometricPrecision; text-rendering:geometricPrecision; image-rendering:optimizeQuality; fill-rule:evenodd; clip-rule:evenodd"
viewBox="0 0 4335 4335"
 xmlns:xlink="http://www.w3.org/1999/xlink">
 <defs>
  <style type="text/css">
   <![CDATA[
    .fil3 {fill:#F3A3A4}
    .fil2 {fill:#ED6C6F}
    .fil1 {fill:#E63437}
    .fil0 {fill:#E31E24}
   ]]>
  </style>
 </defs>
 <g id="Слой_x0020_1">
  <metadata id="CorelCorpID_0Corel-Layer"/>
  <g id="_914246848">
   <path class="fil0" d="M2167 778c443,-1059 2692,-813 2017,1276 -299,928 -1205,1629 -2015,2115l-2 -190 -1 190c-880,-528 -1794,-1249 -2064,-2280 -505,-1936 1635,-2141 2065,-1111z"/>
   <path class="fil1" d="M2167 1105c21,-43 50,-98 87,-158 143,-348 486,-594 886,-594 253,0 483,98 654,258 218,176 305,417 304,688l0 12c0,38 -2,75 -6,111 -40,413 -258,880 -524,1288 -435,670 -1113,1087 -1355,1221l0 48c0,0 -16,-8 -46,-23 -29,15 -45,23 -45,23l0 -48c-242,-134 -920,-551 -1355,-1221 -266,-408 -484,-875 -524,-1288 -4,-36 -6,-73 -6,-111l0 -12c-1,-271 86,-512 304,-688 171,-160 401,-258 654,-258 400,0 743,246 886,594 37,60 65,115 86,158z"/>
   <path class="fil2" d="M2167 1105c21,-43 50,-98 87,-158 143,-348 486,-594 886,-594 253,0 483,98 654,258 218,176 305,417 304,688l0 12c0,38 -2,75 -6,111 -6,61 -16,123 -29,187 -252,-798 -1456,-994 -1896,-193 -439,-801 -1643,-605 -1895,193 -13,-64 -23,-126 -29,-187 -4,-36 -6,-73 -6,-111l0 -12c-1,-271 86,-512 304,-688 171,-160 401,-258 654,-258 400,0 743,246 886,594 37,60 65,115 86,158z"/>
   <path class="fil3" d="M2167 1105c21,-43 50,-98 87,-158 143,-348 486,-594 886,-594 253,0 483,98 654,258 218,176 305,417 304,688l0 12c0,28 -1,56 -4,83 -18,-232 -108,-437 -300,-591 -171,-161 -401,-259 -654,-259 -400,0 -743,246 -886,594 -37,60 -66,115 -87,158 -21,-43 -49,-98 -86,-158 -143,-348 -486,-594 -886,-594 -253,0 -483,98 -654,259 -192,154 -282,359 -300,591 -3,-27 -4,-55 -4,-83l0 -12c-1,-271 86,-512 304,-688 171,-160 401,-258 654,-258 400,0 743,246 886,594 37,60 65,115 86,158z"/>
  </g>
 </g>
</svg>
