<?xml version="1.0" encoding="UTF-8"?>
<!DOCTYPE svg PUBLIC "-//W3C//DTD SVG 1.1//EN" "http://www.w3.org/Graphics/SVG/1.1/DTD/svg11.dtd">
<!-- Creator: CorelDRAW X7 -->
<svg xmlns="http://www.w3.org/2000/svg" xml:space="preserve" width="43.3492mm" height="43.3492mm" version="1.1" style="shape-rendering:geometricPrecision; text-rendering:geometricPrecision; image-rendering:optimizeQuality; fill-rule:evenodd; clip-rule:evenodd"
viewBox="0 0 4335 4335"
 xmlns:xlink="http://www.w3.org/1999/xlink">
 <defs>
  <style type="text/css">
   <![CDATA[
    .fil9 {fill:#B2B3B3}
    .fil10 {fill:#898989}
    .fil6 {fill:#5B5B5B}
    .fil5 {fill:#D0A170}
    .fil7 {fill:#576991}
    .fil8 {fill:#637AAB}
    .fil3 {fill:#A67B30}
    .fil2 {fill:#BD8D4F}
    .fil1 {fill:#E0A75C}
    .fil11 {fill:#E32554}
    .fil4 {fill:#F7D788}
    .fil0 {fill:#F8BB6B}
   ]]>
  </style>
 </defs>
 <g id="Слой_x0020_1">
  <metadata id="CorelCorpID_0Corel-Layer"/>
  <g id="_909328512">
   <path class="fil0" d="M2620 65c0,0 135,12 259,113 125,102 198,322 96,655 -101,332 -259,598 -265,744 -5,147 57,157 271,157 214,0 908,0 908,0 0,0 6,0 15,2 7,0 14,-1 21,-1l0 0c186,0 339,153 339,339l0 5c0,121 -64,228 -160,288 -32,27 -66,43 -94,51l-81 0 0 0 -4 0 0 0 -955 0c-28,0 -51,23 -51,51l0 0c0,28 23,50 51,50l81 0c11,1 19,1 20,0l0 0 0 0 0 0 858 0 51 0c0,0 9,2 23,6 155,1 281,128 281,282l0 0c0,113 -67,211 -164,256 -30,16 -66,25 -111,26 -2,0 -4,0 -7,0l0 0 -10 0 -10 0 -12 0 -12 0 -12 0 -14 0 -3 0 -271 0 -361 0 -15 0 -16 0 -15 0 -16 0 -14 0 -15 0 -13 0 -13 0 -12 0 -12 0 -11 0 -10 0 -10 0 -9 0 -8 0 -7 0 -6 0 -5 0 -5 0 -3 0 -3 0 -2 0 0 0 -107 0c-28,0 -51,23 -51,51l0 0c0,28 23,51 51,51l30 0c18,6 42,3 59,0l238 0 632 0 132 0c27,6 58,17 87,38 81,45 136,131 136,230l0 0c0,144 -118,262 -262,262l-52 0 -41 0 -227 0 -405 0 -327 0c-28,0 -51,23 -51,51l0 0c0,28 23,51 51,51l327 0 246 0 258 0 90 0c4,2 8,4 12,6l-14 -1c0,0 185,175 24,323 -110,58 -327,119 -754,119 -386,-3 -821,-13 -821,-13 0,0 -277,-6 -485,-45 -209,-39 -361,-113 -497,-113 -135,0 -231,15 -254,-68 -22,-83 0,-1686 0,-1686 0,0 0,-79 40,-115 75,-17 172,-54 264,-135l0 0c96,-65 194,-151 244,-252 101,-209 135,-339 282,-520 146,-180 417,-383 457,-552 39,-170 -57,-717 231,-706z"/>
   <path class="fil1" d="M2499 108c0,0 183,48 166,313 -17,265 -276,350 -276,350l12 -192c0,0 -18,-367 98,-471z"/>
   <path class="fil2" d="M3889 2418l-922 0c-30,0 -54,24 -54,54l0 0c0,29 24,53 54,53l922 0 0 -107zm0 671l0 107 -922 0c-30,0 -54,-24 -54,-53l0 0c0,-30 24,-54 54,-54l922 0zm0 632l0 107 -922 0c-30,0 -54,-24 -54,-53l0 0c0,-30 24,-54 54,-54l922 0z"/>
   <path class="fil3" d="M1170 2223l0 1870 -209 -89 0 -1699c0,0 5,-36 48,-62 0,0 68,6 161,-20z"/>
   <g>
    <path class="fil2" d="M4044 1819c0,0 157,93 157,273 0,181 -162,246 -162,246 0,0 250,-250 5,-519z"/>
    <path class="fil4" d="M3988 1860c0,0 132,78 132,230 0,151 -136,206 -136,206 0,0 210,-210 4,-436z"/>
   </g>
   <g>
    <path class="fil2" d="M4078 2585c0,0 157,78 157,229 0,152 -162,206 -162,206 0,0 250,-209 5,-435z"/>
    <path class="fil4" d="M4022 2620c0,0 132,65 132,192 0,128 -136,173 -136,173 0,0 209,-176 4,-365z"/>
   </g>
   <g>
    <path class="fil2" d="M4075 3238c0,0 157,78 157,230 0,152 -162,207 -162,207 0,0 250,-211 5,-437z"/>
    <path class="fil4" d="M4019 3273c0,0 132,66 132,193 0,128 -136,174 -136,174 0,0 210,-177 4,-367z"/>
   </g>
   <g>
    <path class="fil2" d="M3861 3864c0,0 101,54 117,160 -2,41 -20,85 -65,127 36,-68 60,-175 -52,-287z"/>
    <path class="fil4" d="M3819 3893c0,0 100,54 100,160 0,71 -47,111 -78,130 -6,2 -13,5 -19,7 27,-29 135,-159 -3,-297z"/>
   </g>
   <path class="fil5" d="M2935 969c0,0 -87,131 -166,148 -79,17 0,73 -33,180 -34,108 -245,438 59,438 84,0 145,1 190,3l-158 0c-83,-28 -140,-88 -108,-207 86,-322 118,-314 216,-562z"/>
   <path class="fil6" d="M1009 2243l0 1808 -48 -47c0,0 11,202 -510,202 -286,0 -377,-108 -400,-204l0 -128c3,-14 6,-23 6,-23l0 -1563c0,0 47,-141 436,-141 390,0 516,96 516,96z"/>
   <path class="fil7" d="M97 2279l809 0c22,0 40,18 40,40l0 1736c-35,59 -145,151 -495,151 -265,0 -362,-93 -394,-183l0 -172 0 -1532c0,-22 18,-40 40,-40z"/>
   <path class="fil8" d="M962 4004l0 -1716c0,0 7,-35 0,-70 -66,-28 -208,-71 -469,-71 -347,0 -422,113 -434,137l0 4 0 215c0,0 39,-198 169,-198 130,0 235,0 235,0 0,0 209,-28 209,181 0,668 222,919 222,1523 0,0 13,51 2,100 68,-52 65,-105 65,-105l1 0z"/>
   <g>
    <path class="fil9" d="M501 3675c125,0 226,101 226,226 0,124 -101,226 -226,226 -124,0 -225,-102 -225,-226 0,-125 101,-226 225,-226z"/>
    <path class="fil10" d="M501 3720c100,0 181,81 181,181 0,100 -81,180 -181,180 -99,0 -180,-80 -180,-180 0,-100 81,-181 180,-181z"/>
    <path class="fil11" d="M501 3771c72,0 130,58 130,130 0,72 -58,130 -130,130 -72,0 -130,-58 -130,-130 0,-72 58,-130 130,-130z"/>
    <path class="fil11" d="M501 3771c72,0 130,58 130,130 0,72 -58,130 -130,130 -72,0 -130,-58 -130,-130 0,-72 58,-130 130,-130z"/>
   </g>
  </g>
 </g>
</svg>
