<?xml version="1.0" encoding="UTF-8"?>
<!DOCTYPE svg PUBLIC "-//W3C//DTD SVG 1.0//EN" "http://www.w3.org/TR/2001/REC-SVG-20010904/DTD/svg10.dtd">
<!-- Creator: CorelDRAW X6 -->
<svg xmlns="http://www.w3.org/2000/svg" xml:space="preserve" width="436px" height="491px" version="1.0" style="shape-rendering:geometricPrecision; text-rendering:geometricPrecision; image-rendering:optimizeQuality; fill-rule:evenodd; clip-rule:evenodd"
viewBox="0 0 436 490"
 xmlns:xlink="http://www.w3.org/1999/xlink">
 <defs>
  <style type="text/css">
   <![CDATA[
    .fil1 {fill:#434242}
    .fil5 {fill:#56698F}
    .fil4 {fill:#5B5B5B}
    .fil6 {fill:#78675F}
    .fil0 {fill:#86776F}
    .fil8 {fill:#C5C6C6}
    .fil7 {fill:#D9DADA}
    .fil2 {fill:#E31E24}
    .fil3 {fill:#FEFEFE}
   ]]>
  </style>
 </defs>
 <g id="Layer_x0020_1">
  <metadata id="CorelCorpID_0Corel-Layer"/>
  <g id="_573600784">
   <path class="fil0" d="M218 28c109,0 198,89 198,198 0,109 -89,198 -198,198 -109,0 -198,-89 -198,-198 0,-109 89,-198 198,-198z"/>
   <g>
    <path class="fil1" d="M316 323c0,0 -18,-49 -92,-29 -74,20 -94,33 -103,28 -9,-5 85,122 195,1z"/>
    <path class="fil2" d="M264 363c0,0 -14,-31 -46,-31 -32,0 -50,31 -50,31 0,0 45,27 96,1z"/>
   </g>
   <g>
    <path class="fil3" d="M148 171c15,0 28,12 28,28 0,15 -12,28 -28,28 -15,0 -28,-12 -28,-28 0,-15 12,-28 28,-28zm140 0c15,0 28,12 28,28 0,15 -12,28 -28,28 -15,0 -28,-12 -28,-28 0,-15 12,-28 28,-28z"/>
    <path class="fil4" d="M246 163c0,0 17,-15 44,-14 27,1 48,26 48,26 0,0 9,9 16,-3 7,-12 -23,-41 -60,-44 -38,-4 -74,25 -48,36zm-56 0c0,0 -17,-15 -44,-14 -27,1 -48,26 -48,26 0,0 -9,9 -16,-3 -7,-12 23,-41 60,-44 38,-4 74,25 48,36z"/>
    <path class="fil5" d="M148 191c5,0 9,4 9,9 0,5 -4,9 -9,9 -5,0 -9,-4 -9,-9 0,-5 4,-9 9,-9z"/>
    <path class="fil5" d="M287 191c5,0 9,4 9,9 0,5 -4,9 -9,9 -5,0 -9,-4 -9,-9 0,-5 4,-9 9,-9z"/>
   </g>
   <path class="fil6" d="M407 167c0,0 -63,19 -61,79 1,60 -5,137 -15,144 -10,7 117,-63 76,-223zm-379 0c0,0 63,19 61,79 -1,60 5,137 15,144 10,7 -117,-63 -76,-223z"/>
   <path class="fil7" d="M178 46c0,8 10,32 32,35 21,3 29,-12 65,-48 36,-36 47,-6 47,-6 0,0 3,-34 -68,-26 -71,8 -78,28 -76,45z"/>
   <path class="fil8" d="M386 87c0,0 -42,33 -13,58 28,25 50,94 42,123 -8,29 70,-127 -29,-182zm-335 0c0,0 42,33 13,58 -28,25 -50,94 -42,123 8,29 -70,-127 29,-182z"/>
   <path class="fil8" d="M161 397l4 0 105 0 4 0c12,-2 13,7 13,14 1,4 0,9 -4,16 -15,27 -42,53 -42,53 0,0 -10,11 -23,9 -13,2 -23,-9 -23,-9 0,0 -28,-27 -42,-53 -4,-7 -5,-12 -4,-16 -1,-8 1,-16 13,-14z"/>
  </g>
 </g>
</svg>
