<?xml version="1.0" encoding="UTF-8"?>
<!DOCTYPE svg PUBLIC "-//W3C//DTD SVG 1.0//EN" "http://www.w3.org/TR/2001/REC-SVG-20010904/DTD/svg10.dtd">
<!-- Creator: CorelDRAW X6 -->
<svg xmlns="http://www.w3.org/2000/svg" xml:space="preserve" width="474px" height="474px" version="1.0" style="shape-rendering:geometricPrecision; text-rendering:geometricPrecision; image-rendering:optimizeQuality; fill-rule:evenodd; clip-rule:evenodd"
viewBox="0 0 474 474"
 xmlns:xlink="http://www.w3.org/1999/xlink">
 <defs>
  <style type="text/css">
   <![CDATA[
    .fil1 {fill:#434242}
    .fil4 {fill:#793620}
    .fil3 {fill:#86776F}
    .fil2 {fill:#FEFEFE}
    .fil0 {fill:#F8BB6B}
   ]]>
  </style>
 </defs>
 <g id="Layer_x0020_1">
  <metadata id="CorelCorpID_0Corel-Layer"/>
  <g id="_572495592">
   <path class="fil0" d="M237 0c131,0 237,106 237,237 0,131 -106,237 -237,237 -131,0 -237,-106 -237,-237 0,-131 106,-237 237,-237z"/>
   <path class="fil1" d="M148 62l0 0 323 143c1,8 2,15 2,23l-9 -4 0 0 -19 -9 0 1c0,4 0,8 0,12l0 0 0 0c-3,62 -232,98 -183,-95l-79 -34 0 0 0 0 0 0 0 0 0 0 -57 -25c-1,0 -1,-1 -2,-1l-39 -17c6,-5 12,-10 18,-14l44 20z"/>
   <circle class="fil2" cx="128" cy="207" r="61"/>
   <circle class="fil1" cx="128" cy="207" r="19"/>
   <path class="fil3" d="M296 368l0 0c-4,-51 -115,-51 -118,0l0 0 0 0c2,2 4,3 6,4 19,14 37,18 54,18 16,0 35,-4 54,-18 3,-2 5,-4 6,-4l0 0 0 0z"/>
   <path class="fil4" d="M278 380c0,0 -9,-20 -41,-20 -33,0 -40,20 -40,20 0,0 37,25 82,-1z"/>
  </g>
 </g>
</svg>
