<?xml version="1.0" encoding="UTF-8"?>
<!DOCTYPE svg PUBLIC "-//W3C//DTD SVG 1.1//EN" "http://www.w3.org/Graphics/SVG/1.1/DTD/svg11.dtd">
<!-- Creator: CorelDRAW X7 -->
<svg xmlns="http://www.w3.org/2000/svg" xml:space="preserve" width="43.3492mm" height="43.3492mm" version="1.1" style="shape-rendering:geometricPrecision; text-rendering:geometricPrecision; image-rendering:optimizeQuality; fill-rule:evenodd; clip-rule:evenodd"
viewBox="0 0 4335 4335"
 xmlns:xlink="http://www.w3.org/1999/xlink">
 <defs>
  <style type="text/css">
   <![CDATA[
    .fil5 {fill:#5B5B5B}
    .fil2 {fill:#663333}
    .fil3 {fill:#CCCCCC}
    .fil0 {fill:#E09E03}
    .fil1 {fill:#F8BB6B}
    .fil4 {fill:white}
   ]]>
  </style>
 </defs>
 <g id="Слой_x0020_1">
  <metadata id="CorelCorpID_0Corel-Layer"/>
  <g id="_909330208">
   <path class="fil0" d="M2167 85c1151,0 2083,932 2083,2082 0,1151 -932,2083 -2083,2083 -1150,0 -2082,-932 -2082,-2083 0,-1150 932,-2082 2082,-2082z"/>
   <path class="fil1" d="M2167 68c1160,0 2100,940 2100,2099 0,1160 -940,2100 -2100,2100 -1159,0 -2099,-940 -2099,-2100 0,-1159 940,-2099 2099,-2099z"/>
   <path class="fil2" d="M3888 1056c-10,-31 -136,-171 -425,-254 -288,-83 -563,-4 -563,-4 0,0 -96,-4 -100,-88 -5,-83 52,-74 113,-95 61,-23 391,-86 669,22 278,106 425,270 425,270 0,0 98,171 -118,149l-1 0zm-1744 2288c0,0 293,27 517,-61 223,-87 404,-386 404,-386 0,0 31,-66 112,-62 81,5 134,72 120,151 -13,79 -293,369 -541,443 -247,73 -510,18 -571,2 -61,-18 -87,-96 -41,-86l0 -1zm-1619 -2236c7,-32 123,-179 406,-282 282,-102 562,-42 562,-42 0,0 96,-10 95,-94 -1,-83 -57,-70 -120,-88 -62,-18 -396,-58 -666,67 -271,126 -404,300 -404,300 0,0 -87,177 127,140l0 -1z"/>
   <path class="fil3" d="M3032 949c-387,0 -702,315 -702,702 0,388 315,703 702,703 388,0 703,-315 703,-703 0,-387 -315,-702 -703,-702z"/>
   <path class="fil4" d="M3032 1000c-359,0 -651,292 -651,651 0,359 292,651 651,651 360,0 651,-290 651,-651 0,-359 -291,-651 -651,-651z"/>
   <path class="fil5" d="M3372 1451c-111,0 -201,90 -201,200 0,111 90,200 201,200 110,0 200,-89 200,-200 0,-110 -90,-200 -200,-200z"/>
   <path class="fil5" d="M3372 1488c-90,0 -164,73 -164,163 0,90 73,164 164,164 89,0 163,-73 163,-164 0,-89 -73,-163 -163,-163z"/>
   <path class="fil3" d="M1303 949c-388,0 -703,315 -703,702 0,388 315,703 703,703 387,0 702,-315 702,-703 0,-387 -315,-702 -702,-702z"/>
   <path class="fil4" d="M1303 1000c-360,0 -652,292 -652,651 0,359 292,651 652,651 359,0 651,-290 651,-651 0,-359 -292,-651 -651,-651z"/>
   <path class="fil5" d="M1642 1451c-111,0 -200,90 -200,200 0,111 89,200 200,200 110,0 200,-89 200,-200 0,-110 -90,-200 -200,-200z"/>
   <path class="fil5" d="M1642 1488c-90,0 -164,73 -164,163 0,90 73,164 164,164 89,0 163,-73 163,-164 0,-89 -73,-163 -163,-163z"/>
  </g>
 </g>
</svg>
