<?xml version="1.0" encoding="UTF-8"?>
<!DOCTYPE svg PUBLIC "-//W3C//DTD SVG 1.0//EN" "http://www.w3.org/TR/2001/REC-SVG-20010904/DTD/svg10.dtd">
<!-- Creator: CorelDRAW X6 -->
<svg xmlns="http://www.w3.org/2000/svg" xml:space="preserve" width="482px" height="482px" version="1.0" style="shape-rendering:geometricPrecision; text-rendering:geometricPrecision; image-rendering:optimizeQuality; fill-rule:evenodd; clip-rule:evenodd"
viewBox="0 0 482 482"
 xmlns:xlink="http://www.w3.org/1999/xlink">
 <defs>
  <style type="text/css">
   <![CDATA[
    .fil1 {fill:#434242}
    .fil2 {fill:#E31E24}
    .fil3 {fill:#E1AB62}
    .fil4 {fill:#EDB264}
    .fil0 {fill:#F8BB6B}
   ]]>
  </style>
 </defs>
 <g id="Layer_x0020_1">
  <metadata id="CorelCorpID_0Corel-Layer"/>
  <g id="_572376112">
   <g>
    <path class="fil0" d="M241 0c133,0 241,108 241,241 0,133 -108,241 -241,241 -133,0 -241,-108 -241,-241 0,-133 108,-241 241,-241z"/>
    <path class="fil1" d="M370 135c6,-4 15,-4 20,0l0 0c6,4 6,10 0,13l-78 51 78 52c6,4 6,10 0,13l0 0c-6,4 -15,4 -20,0 -119,-79 -121,-50 0,-130zm-258 0c-6,-4 -15,-4 -20,0l0 0c-6,4 -6,10 0,13l78 51 -78 52c-6,4 -6,10 0,13l0 0c6,4 15,4 20,0 119,-79 121,-50 0,-130z"/>
   </g>
   <path class="fil1" d="M127 365c0,0 23,-58 104,-58 3,0 6,0 10,0 3,0 6,0 10,0 81,0 104,58 104,58 0,0 0,1 -1,2 0,0 1,1 1,1 0,0 0,1 -2,2 -5,13 -25,46 -103,46 -3,0 -6,0 -10,0 -3,0 -6,0 -10,0 -77,0 -98,-33 -103,-46 -1,-1 -2,-2 -2,-2 0,0 0,0 1,-1 0,-1 -1,-2 -1,-2z"/>
   <path class="fil2" d="M241 347c19,0 34,9 34,19 0,11 -15,19 -34,19 -19,0 -34,-9 -34,-19 0,-11 15,-19 34,-19z"/>
   <path class="fil3" d="M456 244c0,0 -51,18 -49,63 1,45 -19,92 -19,92 0,0 93,-86 68,-155zm-430 0c0,0 51,18 49,63 -1,45 19,92 19,92 0,0 -93,-86 -68,-155z"/>
   <path class="fil4" d="M126 106c0,0 0,-1 0,-3 0,-5 3,-15 30,-1 10,5 22,9 34,11 16,2 33,4 51,4 18,0 35,-2 51,-4 12,-2 23,-6 34,-11 27,-14 30,-4 30,1 0,2 0,3 0,3 -121,72 -109,72 -230,0z"/>
  </g>
 </g>
</svg>
