<?xml version="1.0" encoding="UTF-8"?>
<!DOCTYPE svg PUBLIC "-//W3C//DTD SVG 1.0//EN" "http://www.w3.org/TR/2001/REC-SVG-20010904/DTD/svg10.dtd">
<!-- Creator: CorelDRAW X6 -->
<svg xmlns="http://www.w3.org/2000/svg" xml:space="preserve" width="491px" height="491px" version="1.0" style="shape-rendering:geometricPrecision; text-rendering:geometricPrecision; image-rendering:optimizeQuality; fill-rule:evenodd; clip-rule:evenodd"
viewBox="0 0 491 491"
 xmlns:xlink="http://www.w3.org/1999/xlink">
 <defs>
  <style type="text/css">
   <![CDATA[
    .fil4 {fill:#008DD2}
    .fil1 {fill:#E31E24}
    .fil3 {fill:#FEFEFE}
    .fil2 {fill:#D62024}
    .fil5 {fill:#E1AB65}
    .fil0 {fill:#F8BB6B}
   ]]>
  </style>
 </defs>
 <g id="Layer_x0020_1">
  <metadata id="CorelCorpID_0Corel-Layer"/>
  <g id="_573746808">
   <g>
    <path class="fil0" d="M246 0c136,0 246,110 246,246 0,136 -110,246 -246,246 -136,0 -246,-110 -246,-246 0,-136 110,-246 246,-246z"/>
    <g>
     <path class="fil1" d="M153 350c0,0 33,-40 64,-36 15,2 24,5 29,8 5,-2 13,-5 29,-8 31,-4 64,36 64,36 0,0 -21,40 -61,43 -14,1 -25,-1 -32,-4 -7,3 -17,6 -32,4 -39,-3 -61,-43 -61,-43z"/>
     <path class="fil2" d="M338 350c0,0 -21,40 -61,43 -14,1 -25,-1 -32,-4 -7,3 -17,6 -32,4 -39,-3 -61,-43 -61,-43l185 0z"/>
    </g>
   </g>
   <g>
    <g>
     <path class="fil3" d="M274 200c0,0 25,-35 54,-46 29,-11 121,42 121,42 0,0 -59,40 -98,42 -39,1 -78,-38 -78,-38zm-57 0c0,0 -25,-35 -54,-46 -29,-11 -121,42 -121,42 0,0 59,40 98,42 39,1 78,-38 78,-38z"/>
     <path class="fil4" d="M144 188c8,0 15,7 15,15 0,8 -7,15 -15,15 -8,0 -15,-7 -15,-15 0,-8 7,-15 15,-15zm204 0c8,0 15,7 15,15 0,8 -7,15 -15,15 -8,0 -15,-7 -15,-15 0,-8 7,-15 15,-15z"/>
    </g>
    <path class="fil5" d="M450 196c0,0 -58,-26 -90,-25 -32,1 -86,29 -86,29 0,0 2,-39 30,-50 28,-11 84,-11 145,46zm-409 0c0,0 58,-26 90,-25 32,1 86,29 86,29 0,0 -2,-39 -30,-50 -28,-11 -84,-11 -145,46z"/>
   </g>
  </g>
 </g>
</svg>
