<?xml version="1.0" encoding="UTF-8"?>
<!DOCTYPE svg PUBLIC "-//W3C//DTD SVG 1.0//EN" "http://www.w3.org/TR/2001/REC-SVG-20010904/DTD/svg10.dtd">
<!-- Creator: CorelDRAW X6 -->
<svg xmlns="http://www.w3.org/2000/svg" xml:space="preserve" width="474px" height="474px" version="1.0" style="shape-rendering:geometricPrecision; text-rendering:geometricPrecision; image-rendering:optimizeQuality; fill-rule:evenodd; clip-rule:evenodd"
viewBox="0 0 474 474"
 xmlns:xlink="http://www.w3.org/1999/xlink">
 <defs>
  <style type="text/css">
   <![CDATA[
    .fil1 {fill:#434242}
    .fil2 {fill:#E31E24}
    .fil3 {fill:#BE8B49}
    .fil0 {fill:#F8BB6B}
   ]]>
  </style>
 </defs>
 <g id="Layer_x0020_1">
  <metadata id="CorelCorpID_0Corel-Layer"/>
  <g id="_572120432">
   <path class="fil0" d="M237 0c131,0 237,106 237,237 0,131 -106,237 -237,237 -131,0 -237,-106 -237,-237 0,-131 106,-237 237,-237z"/>
   <g>
    <path class="fil1" d="M237 242c24,0 43,32 43,72 0,40 -19,72 -43,72 -24,0 -43,-32 -43,-72 0,-40 19,-72 43,-72z"/>
    <path class="fil2" d="M266 364c0,0 0,-2 -1,-4 0,-1 1,-2 1,-2 0,0 -2,-9 -8,-17 -4,-7 -11,-13 -20,-13 0,0 -1,0 -1,0 0,0 -1,0 -1,0 -10,0 -16,6 -20,13 -6,8 -8,17 -8,17 0,0 0,1 1,2 0,3 -1,4 -1,4 0,0 5,23 28,23 0,0 1,0 1,0 0,0 1,0 1,0 23,0 28,-23 28,-23z"/>
   </g>
   <path class="fil3" d="M279 172c0,0 4,39 34,39 30,0 77,-48 94,-35 18,13 0,-40 -49,-46 -49,-6 -79,43 -79,43zm-85 0c0,0 -4,39 -34,39 -30,0 -77,-48 -94,-35 -18,13 0,-40 49,-46 49,-6 79,43 79,43z"/>
  </g>
 </g>
</svg>
