<?xml version="1.0" encoding="UTF-8"?>
<!DOCTYPE svg PUBLIC "-//W3C//DTD SVG 1.1//EN" "http://www.w3.org/Graphics/SVG/1.1/DTD/svg11.dtd">
<!-- Creator: CorelDRAW X7 -->
<svg xmlns="http://www.w3.org/2000/svg" xml:space="preserve" width="43.3492mm" height="43.3492mm" version="1.1" style="shape-rendering:geometricPrecision; text-rendering:geometricPrecision; image-rendering:optimizeQuality; fill-rule:evenodd; clip-rule:evenodd"
viewBox="0 0 4335 4335"
 xmlns:xlink="http://www.w3.org/1999/xlink">
 <defs>
  <style type="text/css">
   <![CDATA[
    .fil4 {fill:#EBECEC}
    .fil5 {fill:#C5C6C6}
    .fil8 {fill:#86776F}
    .fil12 {fill:#E63437}
    .fil13 {fill:#7D5832}
    .fil11 {fill:#A2D9F7}
    .fil10 {fill:#7FC3E8}
    .fil9 {fill:#008DD2}
    .fil7 {fill:#936B24}
    .fil1 {fill:#9C7138}
    .fil6 {fill:#BD8D4F}
    .fil2 {fill:#E1AA61}
    .fil0 {fill:#F8BB6B}
    .fil3 {fill:#FFD184}
   ]]>
  </style>
 </defs>
 <g id="Слой_x0020_1">
  <metadata id="CorelCorpID_0Corel-Layer"/>
  <g id="_910589568">
   <g>
    <path class="fil0" d="M2167 292c1033,0 1876,843 1876,1875 0,1033 -843,1876 -1876,1876 -1032,0 -1875,-843 -1875,-1876 0,-1032 843,-1875 1875,-1875z"/>
    <path class="fil1" d="M2948 2708c18,5 36,18 55,36 258,312 -365,676 -828,669 -433,-8 -1086,-274 -865,-669 11,-17 22,-28 34,-36l1604 0z"/>
    <path class="fil2" d="M1408 3580l0 68c-486,-266 -1260,-881 -767,-1966 388,531 -288,1093 767,1905l0 -7zm1519 0l0 68c486,-266 1260,-881 766,-1966 -387,531 289,1093 -766,1905l0 -7z"/>
    <path class="fil3" d="M3063 793c0,0 -296,91 -903,289 -607,190 -881,-236 -881,-236 0,0 759,-668 1784,-45l0 -8z"/>
    <path class="fil4" d="M2814 2707l0 183c0,0 -140,144 -452,157l0 1 -43 0 -2 0 -2 0 -4 0 -5 0 -5 0 0 0 -5 0 -6 0 -5 0 -1 0 -6 0 -6 0 -1 0 -6 0 -7 0 -2 0 -5 0 -8 0 -1 0 -7 0 -6 0 -3 0 -9 0 -1 0 -8 0 -5 0 -5 0 -7 0 -3 0 -9 0 -1 0 -10 0 -1 0 -10 0 -1 0 -9 0 -3 0 -7 0 -5 0 -5 0 -8 0 -1 0 -9 0 -3 0 -6 0 -7 0 -1 0 -8 0 -5 0 -2 0 -7 0 -6 0 -1 0 -6 0 -7 0 0 0 -5 0 -6 0 -5 0 0 0 -5 0 -5 0 -4 0 -2 0 -2 0 -43 0 0 -1c-312,-13 -452,-157 -452,-157l0 -183 452 0 389 0 452 0z"/>
    <polygon class="fil5" points="2132,2708 2203,2708 2203,3048 2132,3048 "/>
    <polygon class="fil5" points="1793,2708 1864,2708 1864,3038 1792,3023 "/>
    <polygon class="fil5" points="2474,2708 2545,2708 2545,3022 2469,3037 "/>
    <g>
     <g>
      <path class="fil2" d="M1150 1413c401,0 726,230 726,513 0,284 -325,514 -726,514 -401,0 -726,-230 -726,-514 0,-283 325,-513 726,-513z"/>
      <path class="fil0" d="M1150 1494c337,0 611,194 611,432 0,239 -274,433 -611,433 -337,0 -610,-194 -610,-433 0,-238 273,-432 610,-432z"/>
      <path class="fil6" d="M1150 1772c337,0 611,69 611,154 0,86 -274,155 -611,155 -337,0 -610,-69 -610,-155 0,-85 273,-154 610,-154z"/>
      <path class="fil7" d="M1150 1772c337,0 611,69 611,154 0,3 -1,6 -1,9l-1220 0c0,-3 0,-6 0,-9 0,-85 273,-154 610,-154z"/>
      <path class="fil8" d="M1469 1234c-173,-157 -1341,365 -1163,632 57,86 1086,-512 1163,-632z"/>
      <g>
       <g>
        <path class="fil9" d="M589 1945c0,0 -12,-21 0,0 16,5 32,10 32,10 145,299 243,649 69,956 -179,263 -650,141 -656,-184 10,-344 285,-607 555,-782z"/>
        <g>
         <path class="fil10" d="M569 2029c0,0 -9,-18 0,0 13,3 26,7 26,7 112,250 186,545 42,806 -146,225 -522,128 -522,-146 12,-291 236,-516 454,-667z"/>
         <path class="fil11" d="M571 2032c0,0 -7,-14 0,0 11,2 21,5 21,5 88,199 147,432 33,639 -116,178 -413,101 -413,-116 9,-230 186,-409 359,-528z"/>
        </g>
       </g>
       <g>
        <path class="fil9" d="M1098 1941c0,0 -10,-11 0,0 10,0 21,0 21,0 127,154 235,344 178,548 -66,180 -359,177 -409,-12 -44,-202 78,-395 210,-536z"/>
        <g>
         <path class="fil10" d="M1099 1992c0,0 -8,-9 0,0 8,0 16,1 16,1 101,130 187,291 141,464 -53,152 -286,150 -325,-10 -35,-171 62,-335 168,-455z"/>
         <path class="fil11" d="M1101 1993c0,0 -7,-7 0,0 6,1 12,1 12,1 81,103 149,230 112,368 -42,120 -226,118 -258,-8 -27,-136 50,-266 134,-361z"/>
        </g>
       </g>
      </g>
     </g>
     <g>
      <path class="fil2" d="M3185 1413c-401,0 -726,230 -726,513 0,284 325,514 726,514 401,0 726,-230 726,-514 0,-283 -325,-513 -726,-513z"/>
      <path class="fil0" d="M3185 1494c-337,0 -611,194 -611,432 0,239 274,433 611,433 337,0 610,-194 610,-433 0,-238 -273,-432 -610,-432z"/>
      <path class="fil6" d="M3185 1772c-337,0 -611,69 -611,154 0,86 274,155 611,155 337,0 610,-69 610,-155 0,-85 -273,-154 -610,-154z"/>
      <path class="fil7" d="M3185 1772c-337,0 -611,69 -611,154 0,3 1,6 1,9l1219 0c1,-3 1,-6 1,-9 0,-85 -273,-154 -610,-154z"/>
      <path class="fil8" d="M2866 1234c173,-157 1341,365 1163,632 -57,86 -1086,-512 -1163,-632z"/>
      <g>
       <g>
        <path class="fil9" d="M3746 1945c0,0 12,-21 0,0 -16,5 -33,10 -33,10 -144,299 -242,649 -68,956 179,263 650,141 656,-184 -10,-344 -285,-607 -555,-782z"/>
        <g>
         <path class="fil10" d="M3766 2029c0,0 9,-18 0,0 -13,3 -26,7 -26,7 -112,250 -186,545 -42,806 146,225 522,128 522,-146 -12,-291 -236,-516 -454,-667z"/>
         <path class="fil11" d="M3764 2032c0,0 7,-14 0,0 -11,2 -21,5 -21,5 -88,199 -147,432 -33,639 116,178 413,101 413,-116 -9,-230 -186,-409 -359,-528z"/>
        </g>
       </g>
       <g>
        <path class="fil9" d="M3237 1941c0,0 10,-11 0,0 -11,0 -21,0 -21,0 -127,154 -235,344 -178,548 66,180 359,177 409,-12 44,-202 -78,-395 -210,-536z"/>
        <g>
         <path class="fil10" d="M3236 1992c0,0 8,-9 0,0 -8,0 -16,1 -16,1 -101,130 -187,291 -141,464 52,152 285,150 325,-10 35,-171 -62,-335 -168,-455z"/>
         <path class="fil11" d="M3234 1993c0,0 7,-7 0,0 -6,1 -13,1 -13,1 -80,103 -148,230 -111,368 41,120 226,118 258,-8 27,-136 -50,-266 -134,-361z"/>
        </g>
       </g>
      </g>
     </g>
    </g>
   </g>
   <path class="fil12" d="M2602 3332c0,0 -188,81 -427,81 -239,0 -412,-71 -412,-71 0,0 248,-202 839,-10z"/>
   <path class="fil13" d="M1761 1926l-36 53 -62 32c0,0 -67,-140 -394,-198 -327,-57 -729,113 -729,113 0,0 -7,-23 48,-60 94,-63 307,-154 609,-156 479,-3 564,216 564,216z"/>
   <path class="fil13" d="M2572 1926l36 53 62 32c0,0 67,-140 394,-198 327,-57 729,113 729,113 0,0 7,-23 -48,-60 -94,-63 -307,-154 -609,-156 -479,-3 -564,216 -564,216z"/>
  </g>
 </g>
</svg>
