<?xml version="1.0" encoding="utf-8"?>
<!-- Generator: Adobe Illustrator 22.0.1, SVG Export Plug-In . SVG Version: 6.00 Build 0)  -->
<svg version="1.1" id="Livello_1" xmlns="http://www.w3.org/2000/svg" xmlns:xlink="http://www.w3.org/1999/xlink" x="0px" y="0px"
	 viewBox="0 0 491 491" style="enable-background:new 0 0 491 491;" xml:space="preserve">
<style type="text/css">
	.st0{fill:#F8BB6B;}
	.st1{fill:#434242;}
	.st2{fill:#E31E24;}
	.st3{fill:#292F33;}
</style>
<g id="Layer_x0020_1">
	<g id="_572527240">
		<path class="st0" d="M246,0c136,0,246,110,246,246S382,492,246,492S0,382,0,246S110,0,246,0z"/>
		<g>
			<path class="st1" d="M377,365c0,0-22-60-114-36c-91,24-116,41-128,34c-11-7,106,151,241,2H377z"/>
			<path class="st2" d="M313,415c0,0-18-39-57-39s-62,38-62,38S250,448,313,415z"/>
		</g>
		<path class="st3" d="M6.9,154.3c3.4,3.4,20.4,13.6,23.9,23.8s10.2,68,30.7,85.1c21.1,17.5,100.7,11,115.9,3.4
			c34.1-17,38.3-64.4,44.3-88.5c3.4-13.6,23.9-13.6,23.9-13.6s20.5,0,23.9,13.6c6,24.1,10.2,71.5,44.3,88.5
			c15.3,7.6,94.8,14.1,115.9-3.4c20.4-17,27.2-74.9,30.6-85.1c3.4-10.2,20.4-20.4,23.9-23.8c3.4-3.4,3.4-17,0-20.4
			c-6.8-6.8-87.2-12.9-173.8-3.4c-17.3,1.9-23.9,6.8-64.8,6.8c-40.9,0-47.5-4.9-64.8-6.8c-86.6-9.5-167-3.4-173.8,3.4
			C3.5,137.3,3.5,150.9,6.9,154.3"/>
	</g>
</g>
</svg>
