<?xml version="1.0" encoding="UTF-8"?>
<!DOCTYPE svg PUBLIC "-//W3C//DTD SVG 1.1//EN" "http://www.w3.org/Graphics/SVG/1.1/DTD/svg11.dtd">
<!-- Creator: CorelDRAW X7 -->
<svg xmlns="http://www.w3.org/2000/svg" xml:space="preserve" width="43.3492mm" height="43.3492mm" version="1.1" style="shape-rendering:geometricPrecision; text-rendering:geometricPrecision; image-rendering:optimizeQuality; fill-rule:evenodd; clip-rule:evenodd"
viewBox="0 0 4335 4335"
 xmlns:xlink="http://www.w3.org/1999/xlink">
 <defs>
  <style type="text/css">
   <![CDATA[
    .fil3 {fill:#EBECEC}
    .fil4 {fill:#C5C6C6}
    .fil5 {fill:#E63437}
    .fil11 {fill:#7A5127}
    .fil9 {fill:#936B24}
    .fil2 {fill:#9C7138}
    .fil8 {fill:#A67B30}
    .fil7 {fill:#A67B30}
    .fil1 {fill:#E1AA61}
    .fil0 {fill:#F8BB6B}
    .fil6 {fill:#FCC883}
    .fil10 {fill:#FFD184}
   ]]>
  </style>
 </defs>
 <g id="Слой_x0020_1">
  <metadata id="CorelCorpID_0Corel-Layer"/>
  <g id="_910599936">
   <g>
    <path class="fil0" d="M2167 51c1166,0 2117,951 2117,2116 0,1166 -951,2117 -2117,2117 -1165,0 -2116,-951 -2116,-2117 0,-1165 951,-2116 2116,-2116z"/>
    <path class="fil1" d="M1311 3761l0 78c-549,-300 -1423,-995 -866,-2220 437,600 -326,1234 866,2151l0 -9zm1713 0l0 78c549,-300 1423,-995 866,-2220 -437,600 326,1234 -866,2151l0 -9z"/>
    <g>
     <path class="fil2" d="M3371 2491c28,7 56,28 84,56 397,478 -560,1037 -1271,1026 -665,-12 -1668,-420 -1329,-1026 17,-27 35,-45 52,-56l2464 0z"/>
     <path class="fil3" d="M3016 2491l0 241c0,0 -183,189 -593,206l0 2 -56 0 -4 0 -2 0 -5 0 -7 0 -6 0 -1 0 -6 0 -7 0 -7 0 -1 0 -8 0 -9 0 -1 0 -7 0 -10 0 -2 0 -8 0 -10 0 0 0 -10 0 -8 0 -4 0 -11 0 -2 0 -10 0 -7 0 -6 0 -10 0 -3 0 -12 0 -2 0 -13 0 -1 0 -13 0 -2 0 -12 0 -3 0 -10 0 -6 0 -7 0 -10 0 -2 0 -11 0 -4 0 -8 0 -10 0 0 0 -11 0 -7 0 -2 0 -10 0 -7 0 -2 0 -8 0 -8 0 -1 0 -7 0 -7 0 -7 0 0 0 -6 0 -7 0 -5 0 -2 0 -4 0 -56 0 0 -2c-410,-17 -594,-206 -594,-206l0 -241 594 0 511 0 593 0z"/>
     <polygon class="fil4" points="2121,2493 2214,2493 2214,2940 2121,2940 "/>
     <polygon class="fil4" points="1676,2493 1769,2493 1769,2926 1674,2906 "/>
     <polygon class="fil4" points="2570,2493 2663,2493 2663,2905 2564,2925 "/>
     <path class="fil5" d="M2912 3421c0,0 -270,-202 -765,-202 -496,0 -740,194 -740,194 0,0 740,355 1505,8z"/>
    </g>
    <path class="fil6" d="M3709 1483c0,0 -307,-1157 -1534,-1157 -1227,0 -1549,1157 -1549,1157 0,0 1345,-1675 3083,0z"/>
    <path class="fil7" d="M2167 3843c43,0 77,65 77,145 0,80 -34,145 -77,145 -42,0 -76,-65 -76,-145 0,-80 34,-145 76,-145z"/>
    <g>
     <g>
      <path class="fil8" d="M1161 1608c0,-279 92,-506 206,-506 114,0 207,227 207,506 0,279 -93,506 -207,506 -114,0 -206,-227 -206,-506z"/>
      <path class="fil9" d="M1161 1608c0,-279 92,-506 206,-506 4,0 8,1 11,1l0 1010c-3,1 -7,1 -11,1 -114,0 -206,-227 -206,-506z"/>
      <path class="fil10" d="M1161 1611c0,-308 102,-557 227,-557 126,0 227,249 227,557 0,307 -101,556 -227,556 -125,0 -227,-249 -227,-556zm40 0c0,-290 84,-525 187,-525 104,0 187,235 187,525 0,290 -83,525 -187,525 -103,0 -187,-235 -187,-525z"/>
     </g>
     <g>
      <path class="fil8" d="M3174 1608c0,-279 -92,-506 -206,-506 -114,0 -207,227 -207,506 0,279 93,506 207,506 114,0 206,-227 206,-506z"/>
      <path class="fil9" d="M3174 1608c0,-279 -92,-506 -206,-506 -4,0 -8,1 -11,1l0 1010c3,1 7,1 11,1 114,0 206,-227 206,-506z"/>
      <path class="fil10" d="M3174 1611c0,-308 -102,-557 -227,-557 -126,0 -228,249 -228,557 0,307 102,556 228,556 125,0 227,-249 227,-556zm-40 0c0,-290 -84,-525 -187,-525 -104,0 -188,235 -188,525 0,290 84,525 188,525 103,0 187,-235 187,-525z"/>
     </g>
    </g>
   </g>
   <path class="fil11" d="M2957 1103c172,221 129,1051 -137,858 0,0 12,162 148,153 292,-21 253,-989 -11,-1011z"/>
   <path class="fil11" d="M1380 1103c-172,221 -129,1051 137,858 0,0 -12,162 -148,153 -292,-21 -253,-989 11,-1011z"/>
  </g>
 </g>
</svg>
