<?xml version="1.0" encoding="UTF-8"?>
<!DOCTYPE svg PUBLIC "-//W3C//DTD SVG 1.1//EN" "http://www.w3.org/Graphics/SVG/1.1/DTD/svg11.dtd">
<!-- Creator: CorelDRAW X7 -->
<svg xmlns="http://www.w3.org/2000/svg" xml:space="preserve" width="43.3492mm" height="43.3492mm" version="1.1" style="shape-rendering:geometricPrecision; text-rendering:geometricPrecision; image-rendering:optimizeQuality; fill-rule:evenodd; clip-rule:evenodd"
viewBox="0 0 4335 4335"
 xmlns:xlink="http://www.w3.org/1999/xlink">
 <defs>
  <style type="text/css">
   <![CDATA[
    .fil9 {fill:#916639}
    .fil8 {fill:#916639}
    .fil11 {fill:#7D5832}
    .fil6 {fill:#9C6A14}
    .fil3 {fill:#A67B30}
    .fil7 {fill:#BD8D4F}
    .fil1 {fill:#E1AA61}
    .fil4 {fill:#F7D788}
    .fil0 {fill:#F8BB6B}
    .fil5 {fill:#F8BB6B}
    .fil2 {fill:#FCC883}
    .fil10 {fill:#FFD184}
   ]]>
  </style>
 </defs>
 <g id="Слой_x0020_1">
  <metadata id="CorelCorpID_0Corel-Layer"/>
  <g id="_623443360">
   <path class="fil0" d="M2167 25c1180,0 2143,963 2143,2142 0,1180 -963,2143 -2143,2143 -1179,0 -2142,-963 -2142,-2143 0,-1179 963,-2142 2142,-2142z"/>
   <path class="fil1" d="M1300 3781l0 78c-555,-304 -1439,-1006 -876,-2247 443,607 -329,1249 876,2177l0 -8zm1735 0l0 78c555,-304 1439,-1006 876,-2247 -443,607 329,1249 -876,2177l0 -8z"/>
   <path class="fil2" d="M3728 1475c0,0 -311,-1171 -1553,-1171 -1241,0 -1568,1171 -1568,1171 0,0 1361,-1696 3121,0z"/>
   <path class="fil3" d="M2167 3863c43,0 78,66 78,147 0,81 -35,146 -78,146 -42,0 -77,-65 -77,-146 0,-81 35,-147 77,-147z"/>
   <path class="fil4" d="M3001 1076c320,0 579,259 579,579 0,320 -259,580 -579,580 -320,0 -579,-260 -579,-580 0,-320 259,-579 579,-579z"/>
   <path class="fil5" d="M3001 1076c259,0 469,210 469,469 0,259 -210,469 -469,469 -259,0 -469,-210 -469,-469 0,-259 210,-469 469,-469z"/>
   <path class="fil6" d="M3464 1724c21,-97 29,-260 -22,-399 -81,-141 -229,-239 -401,-249 -304,14 -449,194 -502,344 -15,48 -23,98 -23,151l0 12c1,4 -1,10 2,13 354,287 243,-241 571,-241 343,0 329,268 329,338 0,70 0,19 -2,28 4,0 8,0 12,0 12,0 24,1 36,3z"/>
   <path class="fil7" d="M3167 1349c265,0 251,274 251,344 0,70 0,19 -2,28 4,0 8,0 12,0 19,0 37,2 54,6 17,-49 25,-101 25,-156 0,-258 -197,-471 -450,-494 -58,-3 -118,2 -175,15 -208,57 -362,245 -366,471 30,209 391,272 391,37 0,-159 69,-251 260,-251z"/>
   <path class="fil8" d="M2494 1553c19,82 69,169 201,134 235,-61 46,-462 271,-511 225,-50 418,77 466,179 21,44 18,-6 -24,-76 -87,-116 -222,-194 -376,-203l-6 0c-50,2 -96,6 -139,12 -216,49 -379,237 -393,465z"/>
   <path class="fil4" d="M1334 1076c-320,0 -579,259 -579,579 0,320 259,580 579,580 320,0 579,-260 579,-580 0,-320 -259,-579 -579,-579z"/>
   <path class="fil5" d="M1334 1076c-259,0 -469,210 -469,469 0,259 210,469 469,469 259,0 469,-210 469,-469 0,-259 -210,-469 -469,-469z"/>
   <path class="fil6" d="M871 1724c-21,-97 -29,-260 22,-399 81,-141 229,-239 401,-249 304,14 448,194 502,344 15,48 23,98 23,151l0 12c-1,4 1,10 -2,13 -355,287 -243,-241 -571,-241 -343,0 -329,268 -329,338 0,70 0,19 1,28 -3,0 -7,0 -11,0 -12,0 -24,1 -36,3z"/>
   <path class="fil7" d="M1168 1349c-265,0 -251,274 -251,344 0,70 0,19 1,28 -3,0 -7,0 -11,0 -19,0 -37,2 -54,6 -17,-49 -26,-101 -26,-156 0,-258 198,-471 451,-494 58,-3 118,2 175,15 208,57 362,245 366,471 -30,209 -391,272 -391,37 0,-159 -69,-251 -260,-251z"/>
   <path class="fil9" d="M1841 1553c-19,82 -69,169 -201,134 -235,-61 -46,-462 -271,-511 -225,-50 -418,77 -466,179 -21,44 -18,-6 24,-76 87,-116 222,-194 376,-203l6 0c50,2 96,6 139,12 216,49 379,237 393,465z"/>
   <path class="fil10" d="M3493 2854c0,0 -86,-134 -187,-62 -101,72 -273,335 -1041,335 -35,0 -68,1 -98,3 -30,-2 -62,-3 -97,-3 -768,0 -940,-263 -1041,-335 -101,-72 -187,62 -187,62 420,735 1046,805 1325,795 280,10 906,-60 1326,-795z"/>
   <path class="fil10" d="M3412 2781c0,0 -314,514 -1288,514 -974,0 -1201,-514 -1201,-514l-51 36c0,0 347,626 1262,626 914,0 1325,-629 1325,-629l-47 -33z"/>
   <path class="fil3" d="M3456 2824c0,0 -84,-120 -182,-56 -98,64 -265,298 -1011,298 -35,0 -66,1 -96,3 -29,-2 -60,-3 -95,-3 -746,0 -913,-234 -1011,-298 -98,-64 -182,56 -182,56 409,652 1016,714 1288,705 273,9 880,-53 1289,-705z"/>
   <path class="fil11" d="M3377 2759c0,0 -305,456 -1252,456 -946,0 -1167,-456 -1167,-456l-49 32c0,0 337,555 1226,555 888,0 1288,-558 1288,-558l-46 -29z"/>
  </g>
 </g>
</svg>
