<?xml version="1.0" encoding="UTF-8"?>
<!DOCTYPE svg PUBLIC "-//W3C//DTD SVG 1.0//EN" "http://www.w3.org/TR/2001/REC-SVG-20010904/DTD/svg10.dtd">
<!-- Creator: CorelDRAW X6 -->
<svg xmlns="http://www.w3.org/2000/svg" xml:space="preserve" width="491px" height="491px" version="1.0" style="shape-rendering:geometricPrecision; text-rendering:geometricPrecision; image-rendering:optimizeQuality; fill-rule:evenodd; clip-rule:evenodd"
viewBox="0 0 491 491"
 xmlns:xlink="http://www.w3.org/1999/xlink">
 <defs>
  <style type="text/css">
   <![CDATA[
    .fil4 {fill:#434242}
    .fil3 {fill:#56698F}
    .fil2 {fill:#5B5B5B}
    .fil5 {fill:#E31E24}
    .fil1 {fill:#FEFEFE}
    .fil0 {fill:#F8BB6B}
   ]]>
  </style>
 </defs>
 <g id="Layer_x0020_1">
  <metadata id="CorelCorpID_0Corel-Layer"/>
  <g id="_572527240">
   <path class="fil0" d="M246 0c136,0 246,110 246,246 0,136 -110,246 -246,246 -136,0 -246,-110 -246,-246 0,-136 110,-246 246,-246z"/>
   <g>
    <path class="fil1" d="M159 177c19,0 34,15 34,34 0,19 -15,34 -34,34 -19,0 -34,-15 -34,-34 0,-19 15,-34 34,-34zm174 0c19,0 34,15 34,34 0,19 -15,34 -34,34 -19,0 -34,-15 -34,-34 0,-19 15,-34 34,-34z"/>
    <path class="fil2" d="M280 167c0,0 21,-19 55,-18 34,1 60,32 60,32 0,0 12,12 20,-4 8,-15 -28,-50 -75,-55 -47,-5 -91,30 -60,45zm-70 0c0,0 -21,-19 -55,-18 -34,1 -60,32 -60,32 0,0 -12,12 -20,-4 -8,-15 28,-50 75,-55 47,-5 91,30 60,45z"/>
    <path class="fil3" d="M159 202c6,0 11,5 11,11 0,6 -5,11 -11,11 -6,0 -11,-5 -11,-11 0,-6 5,-11 11,-11z"/>
    <path class="fil3" d="M331 202c6,0 11,5 11,11 0,6 -5,11 -11,11 -6,0 -11,-5 -11,-11 0,-6 5,-11 11,-11z"/>
   </g>
   <g>
    <path class="fil4" d="M377 365c0,0 -22,-60 -114,-36 -91,24 -116,41 -128,34 -11,-7 106,151 241,2z"/>
    <path class="fil5" d="M313 415c0,0 -18,-39 -57,-39 -39,0 -62,38 -62,38 0,0 56,34 119,1z"/>
   </g>
  </g>
 </g>
</svg>
