<svg xmlns="http://www.w3.org/2000/svg" width="9.6" height="9.6" fill-rule="evenodd" clip-rule="evenodd" image-rendering="optimizeQuality" shape-rendering="geometricPrecision" text-rendering="geometricPrecision" viewBox="0 0 254 254">
    <path fill="#b2b3b3" d="M127 2c69 0 125 56 125 125s-56 125-125 125S2 196 2 127 58 2 127 2zm0 169c7 0 12 6 12 12 0 7-5 13-12 13s-12-6-12-13c0-6 5-12 12-12zm0-118c7 0 12 5 12 12v80c0 7-5 12-12 12s-12-5-12-12V65c0-7 5-12 12-12zm0-27c56 0 101 45 101 101s-45 101-101 101S26 183 26 127 71 26 127 26z"/>
</svg>
