<svg xmlns="http://www.w3.org/2000/svg" width="9.6" height="9.6" fill-rule="evenodd" clip-rule="evenodd" image-rendering="optimizeQuality" shape-rendering="geometricPrecision" text-rendering="geometricPrecision" viewBox="0 0 254 254">
    <path fill="#b9193d" d="M94 140l8 8c6 5 14 5 19 0s5-13 0-18c-10-10-17-17-17-30-1-9 3-17 10-24l8-8 20-20 8-8c14-14 37-14 51 0l13 13c14 14 14 37 0 51l-8 8-3 3-3 2-9 10c-5 4-5 12 0 16 5 5 12 5 17 0l9-9 3-3 14-14c21-21 21-56 0-77l-20-20c-21-21-56-21-77 0L94 63c-21 21-21 56 0 77zm66-26l-8-8c-6-5-14-5-19 0s-5 13 0 18c10 10 17 17 17 30 1 9-3 17-10 24l-8 8-20 20-8 8c-14 14-37 14-51 0l-13-13c-14-14-14-37 0-51l8-8 3-3 3-2 9-10c5-4 5-12 0-16-5-5-12-5-17 0l-9 9-3 3-14 14c-21 21-21 56 0 77l20 20c21 21 56 21 77 0l43-43c21-21 21-56 0-77z"/>
</svg>
