<svg xmlns="http://www.w3.org/2000/svg" width="36" height="36" fill-rule="evenodd" clip-rule="evenodd" image-rendering="optimizeQuality" shape-rendering="geometricPrecision" text-rendering="geometricPrecision" viewBox="0 0 36000 36000">
    <defs>
        <linearGradient id="a" x1="499.61" x2="35500.4" y1="26912.6" y2="26912.6" gradientUnits="userSpaceOnUse">
            <stop offset="0" stop-color="#cc244c"/>
            <stop offset=".32" stop-color="#7e2a3e"/>
            <stop offset="1" stop-color="#303030"/>
        </linearGradient>
    </defs>
    <path fill="#cc244c" d="M18000 128c4603 0 8791 1778 11915 4684v2904c-2843-3413-7126-5588-11915-5588-8559 0-15500 6941-15500 15500l6 417H506l-6-417C500 7963 8335 128 18000 128z"/>
    <path fill="url(#a)" d="M18000 35871c9665 0 17500-7835 17500-17500l-6-417h-2000l6 417c0 8559-6941 15499-15500 15499S2500 26930 2500 18371l6-417H506l-6 417c0 9665 7835 17500 17500 17500z"/>
    <path fill="#cc244c" d="M29714 3265c1872 0 3390 1517 3390 3389s-1518 3390-3390 3390-3390-1518-3390-3390 1518-3389 3390-3389z"/>
</svg>
