<?xml version="1.0" encoding="UTF-8"?>
<!DOCTYPE svg PUBLIC "-//W3C//DTD SVG 1.1//EN" "http://www.w3.org/Graphics/SVG/1.1/DTD/svg11.dtd">
<!-- Creator: CorelDRAW 2017 -->
<svg xmlns="http://www.w3.org/2000/svg" xml:space="preserve" width="2.4552mm" height="2.4552mm" version="1.1" style="shape-rendering:geometricPrecision; text-rendering:geometricPrecision; image-rendering:optimizeQuality; fill-rule:evenodd; clip-rule:evenodd"
viewBox="0 0 2455 2455"
 xmlns:xlink="http://www.w3.org/1999/xlink"
 enable-background="new 0 0 512 512">
 <defs>
  <style type="text/css">
   <![CDATA[
    .fil3 {fill:#D9DADA}
    .fil0 {fill:#C5C6C6}
    .fil4 {fill:#B2B3B3}
    .fil2 {fill:#B2B3B3}
    .fil1 {fill:url(#id0)}
   ]]>
  </style>
  <linearGradient id="id0" gradientUnits="userSpaceOnUse" x1="1228" y1="2382" x2="1228" y2="73">
   <stop offset="0" style="stop-opacity:1; stop-color:#ECEAEA"/>
   <stop offset="1" style="stop-opacity:1; stop-color:#FDFDFD"/>
  </linearGradient>
 </defs>
 <g id="Слой_x0020_1">
  <metadata id="CorelCorpID_0Corel-Layer"/>
  <g id="_1086184096">
   <path class="fil0" d="M73 0l2309 0c40,0 73,33 73,73l0 2309c0,40 -33,73 -73,73l-2309 0c-40,0 -73,-33 -73,-73l0 -2309c0,-40 33,-73 73,-73z"/>
   <path class="fil1" d="M73 2314l0 -2172c0,-38 31,-69 69,-69l2172 0c38,0 69,31 69,69l0 2172c0,38 -31,69 -69,69l-2172 0c-38,0 -69,-31 -69,-69z"/>
   <g>
    <path class="fil2" d="M1228 566c177,0 320,143 320,320 0,177 -143,320 -320,320 -177,0 -320,-143 -320,-320 0,-177 143,-320 320,-320z"/>
    <path class="fil3" d="M1228 610c153,0 277,124 277,277 0,153 -124,277 -277,277 -153,0 -277,-124 -277,-277 0,-153 124,-277 277,-277z"/>
   </g>
   <g>
    <path class="fil4" d="M1220 1889l5 0 5 0 5 0 417 0c433,0 220,-573 -422,-607l0 -1 -2 0 0 1 -1 0 -1 0 0 -1 -2 0 0 1c-643,34 -855,607 -422,607l417 0z"/>
    <path class="fil3" d="M759 1850l942 0 24 0c0,0 113,-18 113,-127 0,-212 -325,-377 -594,-380 -279,-4 -622,161 -622,380 0,109 113,127 113,127l24 0z"/>
   </g>
  </g>
 </g>
</svg>
