<svg xmlns="http://www.w3.org/2000/svg" width="30" height="30" fill-rule="evenodd" class="mdl-js" clip-rule="evenodd" image-rendering="optimizeQuality" shape-rendering="geometricPrecision" text-rendering="geometricPrecision" viewBox="0 0 30000 30000"><path fill="#fefefe" d="M-2063544 56601h37546v4222h-37546v-4222zm0 16662h20884v4222h-20884v-4222zm0-8331h37546v4222h-37546v-4222z"/>
    <path fill="#898989" d="M3555 4020C7966-528 15229-641 19779 3771c3927 3809 4546 9744 1801 14223l8102 7858-3506 3614-8101-7858c-4393 2881-10344 2444-14271-1365C-746 15832-857 8569 3555 4021zm2766 2682c2929-3021 7754-3094 10774-165 3021 2930 3094 7754 165 10774-2929 3021-7754 3096-10774 165-3021-2929-3094-7753-165-10774z"/>
</svg>
