<svg xmlns="http://www.w3.org/2000/svg" width="32" height="32" fill-rule="evenodd" clip-rule="evenodd" image-rendering="optimizeQuality" shape-rendering="geometricPrecision" text-rendering="geometricPrecision" version="1" viewBox="0 0 30000 30000">
    <path fill="#fefefe" d="M-2063544 56601h37546v4222h-37546v-4222zm0 16662h20884v4222h-20884v-4222zm0-8331h37546v4222h-37546v-4222z"/>
    <path fill="#dddddd" d="M4187 272h21626a3926 3926 0 0 1 3915 3915v21626a3926 3926 0 0 1-3915 3915H4187a3926 3926 0 0 1-3915-3915V4187A3926 3926 0 0 1 4187 272zm8996 22093h2623v-7415h2876v-2673h-2825V9553h2774V6728h-3430s-2068-151-2068 2170v3379h-1817v2724h1866v7364zM4927 1281h20145a3657 3657 0 0 1 3647 3647v20145a3657 3657 0 0 1-3647 3647H4927a3657 3657 0 0 1-3647-3647V4928a3657 3657 0 0 1 3647-3647z"/>
</svg>
