<svg xmlns="http://www.w3.org/2000/svg" width="32" height="32" fill-rule="evenodd" clip-rule="evenodd" image-rendering="optimizeQuality" shape-rendering="geometricPrecision" text-rendering="geometricPrecision" version="1" viewBox="0 0 30000 30000">
    <path fill="#fefefe" d="M-2063544 56601h37546v4222h-37546v-4222zm0 16662h20884v4222h-20884v-4222zm0-8331h37546v4222h-37546v-4222z"/>
    <path fill="#dddddd" d="M4193 281h21614a3923 3923 0 0 1 3912 3912v21614a3923 3923 0 0 1-3912 3912H4193a3923 3923 0 0 1-3912-3912V4193A3923 3923 0 0 1 4193 281zm15736 17105c0 613-115 1148-347 1615a3318 3318 0 0 1-934 1149 4417 4417 0 0 1-1527 776c-556 156-1261 231-2114 231h-4936V8843h4357c906 0 1592 34 2057 104 469 69 906 213 1316 432 441 237 771 556 989 951 217 398 327 856 327 1376 0 598-150 1134-452 1603a2640 2640 0 0 1-1245 1033v67c759 162 1367 487 1824 980 458 494 686 1160 686 1996zm-3964-5065c0-198-51-404-152-613a921 921 0 0 0-477-455c-203-90-443-138-723-146-279-8-693-12-1245-12h-214v2609h389c529 0 899-6 1113-18 211-11 430-67 658-175 246-116 418-274 511-480 93-203 141-441 141-711zm780 5014c0-381-76-678-231-893-155-217-386-378-694-488-189-73-446-113-774-122-331-8-768-12-1320-12h-570v3084h167c804 0 1361-6 1671-18 307-11 621-84 943-222 280-122 485-300 615-534 130-235 195-500 195-796zM4934 1289h20133a3657 3657 0 0 1 3645 3645v20133a3657 3657 0 0 1-3645 3645H4934a3657 3657 0 0 1-3645-3645V4934a3657 3657 0 0 1 3645-3645z"/>
</svg>

