<svg xmlns="http://www.w3.org/2000/svg" xml:space="preserve" width="32px" height="32px" version="1.1" style="shape-rendering:geometricPrecision; text-rendering:geometricPrecision; image-rendering:optimizeQuality; fill-rule:evenodd; clip-rule:evenodd"
viewBox="0 0 30000 30000"
 xmlns:xlink="http://www.w3.org/1999/xlink">
 <defs>
  <style type="text/css">
   <![CDATA[
    .fil1 {fill:#2B2A29}
    .fil0 {fill:#FEFEFE}
   ]]>
  </style>
 </defs>
 <g id="Layer_x0020_1">
  <metadata id="CorelCorpID_0Corel-Layer"/>
  <path class="fil0" d="M-2063544 56601l37546 0 0 4222 -37546 0 0 -4222zm0 16662l20884 0 0 4222 -20884 0 0 -4222zm0 -8331l37546 0 0 4222 -37546 0 0 -4222z"/>
  <path class="fil1" d="M4193 281l21614 0c2152,0 3912,1760 3912,3912l0 21614c0,2152 -1760,3912 -3912,3912l-21614 0c-2152,0 -3912,-1760 -3912,-3912l0 -21614c0,-2152 1760,-3912 3912,-3912zm15736 17105c0,613 -115,1148 -347,1615 -231,463 -544,844 -934,1149 -465,361 -974,621 -1527,776 -556,156 -1261,231 -2114,231l-4936 0 0 -12314 4357 0c906,0 1592,34 2057,104 469,69 906,213 1316,432 441,237 771,556 989,951 217,398 327,856 327,1376 0,598 -150,1134 -452,1603 -299,469 -717,814 -1245,1033l0 67c759,162 1367,487 1824,980 458,494 686,1160 686,1996zm-3964 -5065c0,-198 -51,-404 -152,-613 -102,-209 -260,-361 -477,-455 -203,-90 -443,-138 -723,-146 -279,-8 -693,-12 -1245,-12l-214 0 0 2609 389 0c529,0 899,-6 1113,-18 211,-11 430,-67 658,-175 246,-116 418,-274 511,-480 93,-203 141,-441 141,-711zm780 5014c0,-381 -76,-678 -231,-893 -155,-217 -386,-378 -694,-488 -189,-73 -446,-113 -774,-122 -331,-8 -768,-12 -1320,-12l-570 0 0 3084 167 0c804,0 1361,-6 1671,-18 307,-11 621,-84 943,-222 280,-122 485,-300 615,-534 130,-235 195,-500 195,-796zm-11811 -16046l20133 0c2004,0 3645,1641 3645,3645l0 20133c0,2004 -1641,3645 -3645,3645l-20133 0c-2004,0 -3645,-1641 -3645,-3645l0 -20133c0,-2004 1641,-3645 3645,-3645z"/>
 </g>
</svg>
