<svg xmlns="http://www.w3.org/2000/svg" xml:space="preserve" width="32px" height="32px" version="1.1" style="shape-rendering:geometricPrecision; text-rendering:geometricPrecision; image-rendering:optimizeQuality; fill-rule:evenodd; clip-rule:evenodd"
viewBox="0 0 32000 32000"
 xmlns:xlink="http://www.w3.org/1999/xlink">
 <defs>
  <style type="text/css">
   <![CDATA[
    .fil0 {fill:#2B2A29}
   ]]>
  </style>
 </defs>
 <g id="Слой_x0020_1">
  <metadata id="CorelCorpID_0Corel-Layer"/>
  <path class="fil0" d="M4422 498l23155 0c2159,0 3925,1766 3925,3925l0 23155c0,2159 -1766,3925 -3925,3925l-23155 0c-2159,0 -3925,-1766 -3925,-3925l0 -23155c0,-2159 1766,-3925 3925,-3925zm19427 15306c0,4233 -3448,7654 -7710,7654 -1345,0 -2606,-337 -3727,-953l-4262 1345 1402 -4093c-700,-1149 -1094,-2494 -1094,-3953 -27,-4232 3421,-7653 7681,-7653 4262,0 7710,3421 7710,7653zm-7710 -6420c-3560,0 -6475,2888 -6475,6420 0,1402 449,2720 1233,3757l-812 2383 2494 -786c1037,673 2243,1066 3560,1066 3560,0 6477,-2887 6477,-6420 0,-3532 -2917,-6420 -6477,-6420zm3897 8187c-55,-84 -168,-112 -364,-224 -197,-84 -1122,-562 -1290,-617 -169,-57 -308,-85 -420,84 -112,196 -476,616 -588,729 -113,112 -225,140 -422,55 -196,-84 -784,-280 -1513,-925 -561,-504 -953,-1121 -1037,-1290 -112,-196 0,-280 84,-392 84,-84 196,-224 280,-336 85,-113 112,-196 196,-309 56,-112 28,-224 -27,-336 -57,-84 -421,-1009 -590,-1401 -168,-365 -308,-308 -420,-308 -113,0 -225,-29 -364,-29 -112,0 -337,56 -504,225 -169,196 -674,645 -674,1569 0,925 674,1823 786,1935 84,112 1317,2074 3223,2831 1934,756 1934,505 2270,476 337,-28 1122,-448 1262,-896 140,-393 140,-786 112,-841zm-14682 -15825l21291 0c1985,0 3609,1624 3609,3609l0 21291c0,1985 -1624,3609 -3609,3609l-21291 0c-1985,0 -3609,-1624 -3609,-3609l0 -21291c0,-1985 1624,-3609 3609,-3609z"/>
 </g>
</svg>
