<svg xmlns="http://www.w3.org/2000/svg" width="32" height="32" fill-rule="evenodd" clip-rule="evenodd" image-rendering="optimizeQuality" shape-rendering="geometricPrecision" text-rendering="geometricPrecision" version="1" viewBox="0 0 32000 32000">
    <path fill="#dddddd" d="M4422 498h23155a3936 3936 0 0 1 3925 3925v23155a3936 3936 0 0 1-3925 3925H4422a3936 3936 0 0 1-3925-3925V4423A3936 3936 0 0 1 4422 498zm19427 15306c0 4233-3448 7654-7710 7654a7684 7684 0 0 1-3727-953l-4262 1345 1402-4093a7544 7544 0 0 1-1094-3953c-27-4232 3421-7653 7681-7653 4262 0 7710 3421 7710 7653zm-7710-6420c-3560 0-6475 2888-6475 6420 0 1402 449 2720 1233 3757l-812 2383 2494-786a6484 6484 0 0 0 3560 1066c3560 0 6477-2887 6477-6420 0-3532-2917-6420-6477-6420zm3897 8187c-55-84-168-112-364-224-197-84-1122-562-1290-617-169-57-308-85-420 84-112 196-476 616-588 729-113 112-225 140-422 55-196-84-784-280-1513-925-561-504-953-1121-1037-1290-112-196 0-280 84-392 84-84 196-224 280-336 85-113 112-196 196-309 56-112 28-224-27-336-57-84-421-1009-590-1401-168-365-308-308-420-308-113 0-225-29-364-29-112 0-337 56-504 225-169 196-674 645-674 1569 0 925 674 1823 786 1935 84 112 1317 2074 3223 2831 1934 756 1934 505 2270 476 337-28 1122-448 1262-896 140-393 140-786 112-841zM5354 1746h21291a3620 3620 0 0 1 3609 3609v21291a3620 3620 0 0 1-3609 3609H5354a3620 3620 0 0 1-3609-3609V5355a3620 3620 0 0 1 3609-3609z"/>
</svg>
