<svg xmlns="http://www.w3.org/2000/svg" width="30" height="30" fill-rule="evenodd" clip-rule="evenodd" image-rendering="optimizeQuality" shape-rendering="geometricPrecision" text-rendering="geometricPrecision" version="1" viewBox="0 0 30000 30000">
    <path fill="#fefefe" d="M-2063544 56601h37546v4222h-37546v-4222zm0 16662h20884v4222h-20884v-4222zm0-8331h37546v4222h-37546v-4222z"/>
    <path fill="#b2b3b3" d="M29591 15139c-1049 1333-6804 8153-14678 8153-7861 0-13470-6801-14505-8147v-291c1035-1346 6644-8147 14505-8147 7873 0 13629 6820 14678 8153v279zm-14591-3679c344 0 674 48 989 139a2017 2017 0 1 0 2534 3054 3540 3540 0 1 1-3523-3194zm0-2383a5923 5923 0 1 1 0 11846 5923 5923 0 0 1 0-11846z"/>
</svg>
