<svg xmlns="http://www.w3.org/2000/svg" width="30" height="30" fill-rule="evenodd" clip-rule="evenodd" image-rendering="optimizeQuality" shape-rendering="geometricPrecision" text-rendering="geometricPrecision" version="1" viewBox="0 0 30000 30000">
    <path fill="#afafaf" d="M7838 1993h32l133 2h33l131 6c2958 119 5805 1999 6833 4621 1029-2622 3875-4501 6834-4621l131-6h32l133-2h33l283 7h26l67 3 184 11c2266 151 3943 1157 5054 2621a7246 7246 0 0 1 1675 4647l-8 349c76 2029-428 4136-1487 5870a7835 7835 0 0 0-11052 10912c-752 618-1399 1153-1890 1576h-649c-2622-2275-9258-7726-12203-12299-1140-1770-1685-3957-1606-6059l-9-349c0-1765 630-3386 1675-4647 1112-1461 2788-2472 5054-2621l185-11 68-3h26l282-7zm15047 13426a6294 6294 0 0 1 6295 6294 6296 6296 0 1 1-6295-6294zm-371 1992h741c342 0 621 280 621 621v2657h2657c343 0 622 278 622 620v810c0 341-280 618-622 618h-2657v2658c0 342-279 621-621 621h-741a621 621 0 0 1-619-621v-2658h-2658a621 621 0 0 1-622-618v-810c0-342 280-620 622-620h2658v-2657c0-341 278-621 619-621z"/>
</svg>
