<svg xmlns="http://www.w3.org/2000/svg" width="10" height="10" fill-rule="evenodd" clip-rule="evenodd" image-rendering="optimizeQuality" shape-rendering="geometricPrecision" text-rendering="geometricPrecision" version="1" viewBox="0 0 254 254">
    <path fill="#c5c6c6" d="M91 31c4-16 19-28 36-28s32 12 36 28h53c7 0 13 6 13 13 0 8-6 14-13 14H38c-7 0-13-6-13-14 0-7 6-13 13-13h53zM81 95c4 0 7 3 7 7v118c0 4-3 7-7 7s-7-3-7-7V102c0-4 3-7 7-7zm92 0c4 0 7 3 7 7v118c0 4-3 7-7 7s-7-3-7-7V102c0-4 3-7 7-7zm-45 0c4 0 7 3 7 7v118c0 4-3 7-7 7s-7-3-7-7V102c0-4 3-7 7-7zM60 68h146v156s-2 27-28 27H76c-26 0-28-27-28-27V68h12z"/>
</svg>
