<svg xmlns="http://www.w3.org/2000/svg" fill-rule="evenodd" clip-rule="evenodd" image-rendering="optimizeQuality" shape-rendering="geometricPrecision" text-rendering="geometricPrecision" version="1" viewBox="0 0 508 508">
    <path fill="#c5c6c6" d="M476 154v20H32v-18c0-28 10-52 43-52h355c32 0 43 23 43 50zM320 278c14 0 26 7 33 18 7-11 19-18 33-18 22 0 40 18 40 40s-18 40-40 40c-14 0-26-7-33-18-7 11-19 18-33 18-22 0-40-18-40-40s18-40 40-40zm156-60v147s-3 39-43 39H78c-40 0-43-39-43-39V218h444zM167 435h277s61 4 61-70V140c0-74-61-70-61-70H64S3 66 3 140v225c0 74 61 70 61 70h103z" class="fil0"/>
</svg>
