<svg xmlns="http://www.w3.org/2000/svg" width="30" height="30" fill-rule="evenodd" clip-rule="evenodd" image-rendering="optimizeQuality" shape-rendering="geometricPrecision" text-rendering="geometricPrecision" version="1" viewBox="0 0 30000 30000">
    <path fill="#009846" d="M15000 309c8113 0 14691 6578 14691 14691s-6578 14691-14691 14691S309 23113 309 15000 6887 309 15000 309z"/>
    <path fill="#fefefe" d="M15000 8272c3860 0 6989 2771 6989 6188 0 3418-3129 6188-6989 6188-402 0-795-29-1178-87l-8-2-26-3-31-5c-776-114-1183 7-1371 104l-1369 947h-1c-725 383-786-221-790-378v-1426c0-596-354-1099-559-1337l-138-150h-1c-950-1057-1517-2396-1517-3851 0-3417 3129-6188 6989-6188zm-2604 5608a686 686 0 1 1 0 1372 686 686 0 0 1 0-1372zm2604 0a686 686 0 1 1 0 1372 686 686 0 0 1 0-1372zm2604 0a687 687 0 1 1 0 1374 687 687 0 0 1 0-1374z"/>
</svg>
