<svg xmlns="http://www.w3.org/2000/svg" fill-rule="evenodd" clip-rule="evenodd" image-rendering="optimizeQuality" shape-rendering="geometricPrecision" text-rendering="geometricPrecision" version="1" viewBox="0 0 508 508">
    <path fill="#c5c6c6" id="Слой_x0020_1" d="M236 111c7 12 25 33 60 44 24 8 41 11 52 14 18 4 20 17 20 21v77c0 16 2 21-12 32-13 10-13 18 1 22 61 16 164-49 97-89-30-18-58-39-58-80 0-42-38-149-134-149h-5C154 3 118 89 118 147s-39 68-68 78-23 39 3 67 72 38 92 33 35-23 19-31c-19-9-19-16-19-33v-30c0-32 14-48 45-72 31-23 25-34 26-47 1-17 12-13 19-2zm-17 46s19-15 43 0 47 17 61 20 27 7 27 26v51s-1 21-20 42-28 29-28 41-2 26 13 35 39 14 39 14c16 67-206 67-189 0 0 0 24-5 39-14s13-23 13-35-9-20-28-41-20-42-20-42v-43c0-23 51-55 51-55zm172 241c-23 82-237 82-260 0-69 4-5 108 130 108s199-104 129-108z" class="fil0"/>
</svg>
