<svg xmlns="http://www.w3.org/2000/svg" fill-rule="evenodd" clip-rule="evenodd" image-rendering="optimizeQuality" shape-rendering="geometricPrecision" text-rendering="geometricPrecision" version="1" viewBox="0 0 508 508">
    <path fill="#c84260" id="Слой_x0020_1" d="M380 136s8-101-83-125c-5-2-13-4-25-4l-18-1h-8l-18 1c-12 1-20 2-25 4-46 12-66 44-76 72l-5 22-2 21-1 35v43c0 6 5 11 11 11s11-5 11-11c0-64 26-41 55-89 5-8 11-12 16-14 0 0 18-5 25 7 31 52 122 6 122 68l1 23v5c0 6 5 11 11 11s11-5 11-11v-48-20zm-6 236s-31 55-118 55h-4c-87 0-118-55-118-55-33 2-40 10-44 20-18 50 63 99 131 109 19 3 48 3 66 0 68-10 148-59 130-108-4-11-11-19-44-20zM219 124c3 0 5 2 8 6 30 47 113 3 113 56 0 29 5 44 16 50 11 5 11 13 9 23s-11 25-32 44c-21 20-35 26-22 39 14 14 35 13 31 27-12 43-118 46-162 23-35-18-10-32-10-32s26-17 29-23c3-7-1-18-29-47s-23-42-23-68c0-6 7-38 16-50 19-25 50-47 55-46z" class="fil0"/>
</svg>
