<svg xmlns="http://www.w3.org/2000/svg" fill-rule="evenodd" clip-rule="evenodd" image-rendering="optimizeQuality" shape-rendering="geometricPrecision" text-rendering="geometricPrecision" version="1" viewBox="0 0 339 339">
    <path fill="#727272" d="M240 135c12 0 21 9 21 21s-10 21-21 21c-12 0-21-10-21-21 0-12 9-21 21-21zM170 3c91 0 164 69 164 153 0 27-7 52-20 74 0 0-19 31-19 54v35s1 16-15 17-61-27-104-27h-6C79 309 6 240 6 156 6 71 80 3 170 3zm71 299c22 11 38 17 38-2l1-16a208 208 0 0 1 17-63c12-19 18-42 18-66 0-75-65-136-146-136C89 19 23 80 23 155s65 136 146 136h4s45 1 67 11zM100 135c12 0 21 9 21 21s-9 21-21 21-21-10-21-21c0-12 10-21 21-21zm70 0c12 0 21 9 21 21s-10 21-21 21c-12 0-21-10-21-21 0-12 9-21 21-21z" class="fil0"/>
</svg>
