<svg xmlns="http://www.w3.org/2000/svg" fill-rule="evenodd" clip-rule="evenodd" image-rendering="optimizeQuality" shape-rendering="geometricPrecision" text-rendering="geometricPrecision" version="1" viewBox="0 0 339 339">
    <path fill="#727272" d="M103 56h192c6 0 14 3 20 10a7993 7993 0 0 0-122 99c-20 15-23 17-44 2A3000 3000 0 0 1 25 66c6-8 14-10 20-10h59zM3 263v-5l1-5V84l-1-5v-5c1-13 8-34 45-34h239c54 0 44 44 44 44v169s10 44-44 44H48c-37 0-44-21-45-34zM320 83v172c0 25-17 29-25 30H44c-9-1-25-5-25-30V86v-3l91 77 15 12c18 12 31 23 44 24 15 1 29-11 49-26l12-10 91-77z" class="fil0"/>
</svg>
