<?xml version="1.0" encoding="UTF-8"?>
<!DOCTYPE svg PUBLIC "-//W3C//DTD SVG 1.1//EN" "http://www.w3.org/Graphics/SVG/1.1/DTD/svg11.dtd">
<!-- Creator: CorelDRAW X6 -->
<svg xmlns="http://www.w3.org/2000/svg" xml:space="preserve" width="2.54mm" height="2.54mm" version="1.1" style="shape-rendering:geometricPrecision; text-rendering:geometricPrecision; image-rendering:optimizeQuality; fill-rule:evenodd; clip-rule:evenodd"
viewBox="0 0 254 254"
 xmlns:xlink="http://www.w3.org/1999/xlink">
 <defs>
  <style type="text/css">
   <![CDATA[
    .fil0 {fill:#CC244C}
   ]]>
  </style>
 </defs>
 <g id="Слой_x0020_1">
  <metadata id="CorelCorpID_0Corel-Layer"/>
  <path class="fil0" d="M127 0c15,0 27,13 27,28 0,15 -12,27 -27,27 -15,0 -27,-12 -27,-27 0,-15 12,-28 27,-28zm3 72c0,0 17,-2 40,-13 23,-10 48,-17 50,-6 2,10 -50,23 -55,59 -3,27 15,67 24,96 3,12 12,58 -11,42 -13,-8 -19,-48 -36,-65 -6,-6 -11,-9 -15,-11 -4,2 -9,5 -15,11 -17,17 -23,57 -36,65 -23,16 -14,-29 -11,-41 8,-28 27,-69 24,-97 -5,-36 -57,-49 -55,-59 2,-11 27,-4 50,6 24,11 40,13 40,13 1,0 2,0 3,0 1,0 2,0 3,0z"/>
 </g>
</svg>
