<?xml version="1.0" encoding="UTF-8"?>
<!DOCTYPE svg PUBLIC "-//W3C//DTD SVG 1.1//EN" "http://www.w3.org/Graphics/SVG/1.1/DTD/svg11.dtd">
<!-- Creator: CorelDRAW X6 -->
<svg xmlns="http://www.w3.org/2000/svg" xml:space="preserve" width="2.54mm" height="2.54mm" version="1.1" style="shape-rendering:geometricPrecision; text-rendering:geometricPrecision; image-rendering:optimizeQuality; fill-rule:evenodd; clip-rule:evenodd"
viewBox="0 0 254 254"
 xmlns:xlink="http://www.w3.org/1999/xlink">
 <defs>
  <style type="text/css">
   <![CDATA[
    .fil0 {fill:#ADADAD}
   ]]>
  </style>
 </defs>
 <g id="Слой_x0020_1">
  <metadata id="CorelCorpID_0Corel-Layer"/>
  <path class="fil0" d="M125 35l4 0 3 0 108 0c3,0 6,3 6,6l0 172c0,3 -3,6 -6,6l-73 0 -1 0 0 0 0 0 -1 0 -33 0 -3 0 -4 0 -3 0 -33 0 -1 0 0 0 0 0 -1 0 -73 0c-3,0 -6,-3 -6,-6l0 -172c0,-3 3,-6 6,-6l108 0 3 0zm0 144l4 0 24 0c20,0 19,-13 18,-16l0 -1 0 0 0 0 0 0 0 0 0 0 0 0 0 0 0 0 0 0c-1,-4 -4,-11 -12,-15 -12,-6 -22,-6 -22,-6 0,0 -6,-9 0,-12 7,-4 13,-10 13,-22 0,-12 -3,-30 -23,-32 -20,2 -23,20 -23,32 0,12 6,18 13,22 6,3 0,12 0,12 0,0 -10,0 -22,6 -8,4 -11,11 -12,15l0 0 0 0 0 0 0 0 0 0 0 0 0 0 0 0 0 0 0 1c-1,3 -2,16 18,16l24 0zm-83 1l-19 0 0 19 19 0 0 -19zm-19 -62l0 18 0 0 19 0 0 0 0 -18 0 0 -19 0 0 0zm19 31l-19 0 0 19 19 0 0 -19zm0 -63l-19 0 0 19 19 0 0 -19zm0 -31l-19 0 0 19 19 0 0 -19zm170 125l19 0 0 19 -19 0 0 -19zm19 -62l0 18 0 0 -19 0 0 0 0 -18 0 0 19 0 0 0zm-19 31l19 0 0 19 -19 0 0 -19zm0 -63l19 0 0 19 -19 0 0 -19zm0 -31l19 0 0 19 -19 0 0 -19z"/>
 </g>
</svg>
