<?xml version="1.0" encoding="UTF-8"?>
<!DOCTYPE svg PUBLIC "-//W3C//DTD SVG 1.1//EN" "http://www.w3.org/Graphics/SVG/1.1/DTD/svg11.dtd">
<!-- Creator: CorelDRAW X6 -->
<svg xmlns="http://www.w3.org/2000/svg" xml:space="preserve" width="2.54mm" height="2.54mm" version="1.1" style="shape-rendering:geometricPrecision; text-rendering:geometricPrecision; image-rendering:optimizeQuality; fill-rule:evenodd; clip-rule:evenodd"
viewBox="0 0 254 254"
 xmlns:xlink="http://www.w3.org/1999/xlink">
 <defs>
  <style type="text/css">
   <![CDATA[
    .fil0 {fill:#CC244C}
   ]]>
  </style>
 </defs>
 <g id="Слой_x0020_1">
  <metadata id="CorelCorpID_0Corel-Layer"/>
  <path class="fil0" d="M14 33l224 0c7,0 13,5 13,13l0 0c0,7 -6,13 -13,13l0 0 0 136 2 0c7,0 13,6 13,13l0 0c0,8 -6,13 -13,13l-224 0c-7,0 -13,-5 -13,-13l0 0c0,-6 5,-12 12,-13l0 -136 -1 0c-7,0 -13,-6 -13,-13l0 0c0,-8 6,-13 13,-13zm92 44c11,0 19,9 19,20 0,11 -8,20 -19,20 -11,0 -19,-9 -19,-20 0,-11 8,-20 19,-20zm113 94c-19,-15 -60,-60 -60,-60l-51 50 -20 -17 -55 46 0 -131 186 0 0 112zm-170 24l36 -31 22 16 50 -49 62 61 0 3 -170 0z"/>
 </g>
</svg>
