<?xml version="1.0" encoding="UTF-8"?>
<!DOCTYPE svg PUBLIC "-//W3C//DTD SVG 1.1//EN" "http://www.w3.org/Graphics/SVG/1.1/DTD/svg11.dtd">
<!-- Creator: CorelDRAW X6 -->
<svg xmlns="http://www.w3.org/2000/svg" xml:space="preserve" width="2.54mm" height="2.54mm" version="1.1" style="shape-rendering:geometricPrecision; text-rendering:geometricPrecision; image-rendering:optimizeQuality; fill-rule:evenodd; clip-rule:evenodd"
viewBox="0 0 254 254"
 xmlns:xlink="http://www.w3.org/1999/xlink">
 <defs>
  <style type="text/css">
   <![CDATA[
    .fil0 {fill:#CC244C}
   ]]>
  </style>
 </defs>
 <g id="Слой_x0020_1">
  <metadata id="CorelCorpID_0Corel-Layer"/>
  <path class="fil0" d="M65 236l0 0 -9 -3c-8,-3 -9,18 -9,18l5 0 0 1 33 0c0,0 0,-57 0,-67 0,-16 13,-19 13,-1 0,10 0,67 0,67l6 0 27 0 7 0c0,0 0,-21 -9,-18 -9,3 -9,3 -9,3l0 -81 0 -60 0 -1c7,-7 15,-10 15,-10 0,0 24,-4 43,-6l0 5 25 0 0 -8c7,-2 6,-8 6,-10l-6 0 -25 0 -31 0 0 0 -27 0 0 -6c-1,1 -8,4 -14,2 -6,-2 -4,-12 -4,-12 0,0 10,-4 12,-12 3,-8 0,-15 0,-15 0,0 0,-20 -22,-20 -22,0 -24,12 -24,18 0,7 0,17 0,17 0,0 18,18 12,22 -6,4 -35,8 -35,29 0,20 0,63 0,63 0,0 2,8 10,6 6,-1 9,-26 10,-39l0 118z"/>
 </g>
</svg>
