<?xml version="1.0" encoding="UTF-8"?>
<!DOCTYPE svg PUBLIC "-//W3C//DTD SVG 1.1//EN" "http://www.w3.org/Graphics/SVG/1.1/DTD/svg11.dtd">
<!-- Creator: CorelDRAW X6 -->
<svg xmlns="http://www.w3.org/2000/svg" xml:space="preserve" width="2.54mm" height="2.54mm" version="1.1" style="shape-rendering:geometricPrecision; text-rendering:geometricPrecision; image-rendering:optimizeQuality; fill-rule:evenodd; clip-rule:evenodd"
viewBox="0 0 254 254"
 xmlns:xlink="http://www.w3.org/1999/xlink">
 <defs>
  <style type="text/css">
   <![CDATA[
    .fil0 {fill:#CC244C}
   ]]>
  </style>
 </defs>
 <g id="Слой_x0020_1">
  <metadata id="CorelCorpID_0Corel-Layer"/>
  <path class="fil0" d="M188 176c1,-2 2,-2 4,-4 36,-38 53,3 24,4 -9,1 -20,0 -28,0zm-165 -11c0,-18 26,-8 39,6 2,2 3,3 4,5 -9,0 -18,1 -27,0 -7,0 -16,-4 -16,-11l0 0zm49 -34l110 0c0,11 -6,22 -17,22l-76 0c-11,0 -17,-11 -17,-22zm-56 -4c0,-8 8,-18 23,-11l20 16c3,4 -1,6 -4,7 -6,1 -19,1 -26,1 -6,0 -13,-7 -13,-13l0 0zm209 13c-7,0 -26,1 -30,-4 -6,-6 18,-19 22,-21 24,-10 26,25 8,25l0 0zm-140 -78l84 0c10,0 16,8 21,13 4,5 14,13 17,18l-160 0c3,-5 12,-13 17,-18 5,-5 11,-13 21,-13l0 0zm-41 13c-3,-7 -1,-8 -12,-8 -23,0 -20,19 -3,23 -4,6 -11,10 -16,17 -10,19 -7,30 -7,55 0,5 1,10 3,14 4,7 5,3 4,14 0,18 13,17 26,17 12,0 18,-5 18,-16l140 0c0,17 13,16 25,16 13,0 19,-4 19,-17 -1,-11 0,-7 3,-14 6,-10 4,-30 4,-44 0,-24 -18,-35 -23,-42 15,-4 24,-23 -7,-23 -6,0 -6,4 -8,8 -15,-9 -19,-28 -46,-28 -19,0 -76,-2 -89,3 -7,2 -7,3 -12,7 -6,5 -13,14 -19,18l0 0z"/>
 </g>
</svg>
