<?xml version="1.0" encoding="UTF-8"?>
<!DOCTYPE svg PUBLIC "-//W3C//DTD SVG 1.1//EN" "http://www.w3.org/Graphics/SVG/1.1/DTD/svg11.dtd">
<!-- Creator: CorelDRAW X6 -->
<svg xmlns="http://www.w3.org/2000/svg" xml:space="preserve" width="2.54mm" height="2.54mm" version="1.1" style="shape-rendering:geometricPrecision; text-rendering:geometricPrecision; image-rendering:optimizeQuality; fill-rule:evenodd; clip-rule:evenodd"
viewBox="0 0 254 254"
 xmlns:xlink="http://www.w3.org/1999/xlink">
 <defs>
  <style type="text/css">
   <![CDATA[
    .fil0 {fill:#ADADAD}
   ]]>
  </style>
 </defs>
 <g id="Слой_x0020_1">
  <metadata id="CorelCorpID_0Corel-Layer"/>
  <path class="fil0" d="M153 22c33,0 61,27 61,61 0,27 -17,49 -40,58 -26,10 5,47 1,72 -2,9 -13,20 -22,19 -10,1 -21,-10 -23,-19 -4,-27 26,-64 3,-72 -25,-8 -42,-31 -42,-58 0,-34 28,-61 62,-61zm71 166c5,-13 9,-18 22,-22l0 -1 0 -1 0 -1c-13,-4 -17,-9 -22,-21l0 0 -2 0 0 0c-4,12 -9,17 -21,21l0 1 0 1 0 1c12,4 17,9 21,22l0 0 2 0 0 0zm-162 -30c3,-9 7,-13 16,-16l0 -1 0 -1 0 0c-9,-3 -13,-7 -16,-16l0 0 -1 0 -1 0c-3,9 -6,13 -15,16l0 0 0 1 0 1c9,3 12,7 15,16l1 0 1 0 0 0zm-25 -45c5,-16 11,-22 26,-27l0 -1 0 -1 0 -1c-15,-5 -21,-11 -26,-27l0 0 -2 0 -1 0c-5,16 -11,22 -26,27l0 1 0 1 0 1c15,5 21,11 26,27l1 0 2 0 0 0zm142 -57c3,3 6,7 7,11l-50 48c-4,-2 -7,-4 -10,-7l53 -52zm10 20c1,5 1,11 -1,17l-26 25c-6,1 -12,1 -17,0l44 -42zm-36 -38c24,0 44,20 44,45 0,25 -20,45 -44,45 -25,0 -45,-20 -45,-45 0,-25 20,-45 45,-45z"/>
 </g>
</svg>
