<?xml version="1.0" encoding="UTF-8"?>
<!DOCTYPE svg PUBLIC "-//W3C//DTD SVG 1.1//EN" "http://www.w3.org/Graphics/SVG/1.1/DTD/svg11.dtd">
<!-- Creator: CorelDRAW X6 -->
<svg xmlns="http://www.w3.org/2000/svg" xml:space="preserve" width="2.54mm" height="2.54mm" version="1.1" style="shape-rendering:geometricPrecision; text-rendering:geometricPrecision; image-rendering:optimizeQuality; fill-rule:evenodd; clip-rule:evenodd"
viewBox="0 0 254 254"
 xmlns:xlink="http://www.w3.org/1999/xlink">
 <defs>
  <style type="text/css">
   <![CDATA[
    .fil0 {fill:#CC244C}
   ]]>
  </style>
 </defs>
 <g id="Слой_x0020_1">
  <metadata id="CorelCorpID_0Corel-Layer"/>
  <path class="fil0" d="M24 49l1 0 15 0c0,0 18,3 21,14 3,11 20,92 20,92 0,0 3,18 27,18 24,0 96,0 96,0 0,0 15,2 24,-14 8,-17 18,-60 18,-60 0,0 -1,-15 -9,-17 -8,-3 -5,-2 -8,-2l0 0c-1,0 -2,0 -4,0l-122 0c-4,-18 -8,-34 -8,-34 0,0 -2,-16 -20,-21l-61 0c-4,1 -6,1 -6,7l0 0c0,9 7,17 16,17l0 0zm116 104l3 0 1 0c2,0 2,0 2,0l19 0c0,0 1,0 2,0l2 0 3 0 23 0c0,0 8,2 12,-8 4,-10 4,-30 4,-30 0,0 -1,-9 -5,-10 -4,-2 -2,-1 -3,-1l0 0c-1,0 -2,0 -2,0l-22 0c0,0 0,0 0,0l-1 0 0 0c0,0 -1,0 -2,0l-4 0 -3 0 -26 0 -3 0 -5 0c0,0 -1,0 -2,0l0 0 0 0c0,0 0,0 -1,0l-21 0c-1,0 -1,0 -2,0l0 0c-1,0 0,-1 -4,1 -4,1 -4,10 -4,10 0,0 0,20 4,30 4,10 12,8 12,8l23 0zm-31 30c12,0 23,10 23,23 0,12 -11,23 -23,23 -13,0 -23,-11 -23,-23 0,-13 10,-23 23,-23zm95 0c12,0 23,10 23,23 0,12 -11,23 -23,23 -13,0 -23,-11 -23,-23 0,-13 10,-23 23,-23z"/>
 </g>
</svg>
