<?xml version="1.0" encoding="UTF-8"?>
<!DOCTYPE svg PUBLIC "-//W3C//DTD SVG 1.1//EN" "http://www.w3.org/Graphics/SVG/1.1/DTD/svg11.dtd">
<!-- Creator: CorelDRAW X6 -->
<svg xmlns="http://www.w3.org/2000/svg" xml:space="preserve" width="2.54mm" height="2.54mm" version="1.1" style="shape-rendering:geometricPrecision; text-rendering:geometricPrecision; image-rendering:optimizeQuality; fill-rule:evenodd; clip-rule:evenodd"
viewBox="0 0 254 254"
 xmlns:xlink="http://www.w3.org/1999/xlink">
 <defs>
  <style type="text/css">
   <![CDATA[
    .fil0 {fill:#ADADAD}
   ]]>
  </style>
 </defs>
 <g id="Слой_x0020_1">
  <metadata id="CorelCorpID_0Corel-Layer"/>
  <path class="fil0" d="M104 43l46 0 0 0c0,0 13,-3 13,11l0 12 -72 0 0 -12c0,-14 13,-11 13,-11l0 0zm21 98l0 0 1 0 0 0 0 0 0 0 1 0 0 0 0 0 0 0 1 0 0 0 0 0 0 0 1 0 0 0c13,0 14,13 14,13l0 3 0 10c0,5 109,-26 109,-38 0,0 0,-13 0,-38 0,-25 -29,-25 -29,-25l-41 0 0 -19c0,0 4,-21 -21,-21l-8 0 0 0 0 0 0 0 0 0 0 0 0 0 0 0 -1 0 0 0 -1 0 0 0 0 0 0 0 -1 0 0 0 -1 0 0 0 0 0 -1 0 0 0 0 0 -1 0 -1 0 0 0 -1 0 0 0 -1 0 0 0 0 0 -1 0 -1 0 0 0 -1 0 0 0 -1 0 0 0 -1 0 0 0 -1 0 -1 0 0 0 -1 0 0 0 -1 0 0 0 -1 0 -1 0 0 0 -1 0 -1 0 0 0 -1 0 0 0 -1 0 0 0 -1 0 -1 0 0 0 -1 0 -1 0 0 0 -1 0 0 0 -1 0 0 0 -1 0 -1 0 0 0 -1 0 -1 0 0 0 -1 0 0 0 -1 0 0 0 -1 0 -1 0 0 0 -1 0 0 0 -1 0 0 0 -1 0 0 0 -1 0 -1 0 0 0 0 0 -1 0 0 0 -1 0 0 0 -1 0 0 0 -1 0 0 0 -1 0 0 0 0 0 -1 0 0 0 -1 0 0 0 0 0 0 0 -1 0 0 0 -1 0 0 0 0 0 0 0 0 0 0 0 0 0 0 0 -8 0c-25,0 -21,21 -21,21l0 19 -41 0c0,0 -29,0 -29,25 0,25 0,38 0,38 0,12 109,43 109,38l0 -10 0 -3c0,0 2,-13 14,-13zm-119 4l0 9 0 42 0 8c0,0 0,24 21,24l35 0 2 0 2 0 3 0 3 0 2 0 3 0 3 0 3 0 2 0 3 0 3 0 3 0 2 0 3 0 0 0 3 0 3 0 2 0 3 0 3 0 2 0 3 0 2 0 3 0 2 0 2 0 0 0 2 0 2 0 3 0 2 0 3 0 2 0 3 0 3 0 2 0 3 0 3 0 0 0 3 0 2 0 3 0 3 0 3 0 3 0 2 0 3 0 3 0 2 0 3 0 3 0 2 0 2 0 35 0c21,0 21,-24 21,-24l0 -8 0 -42 0 -9c-90,34 -105,30 -105,30l0 5 0 4c0,2 -1,4 -3,4l-4 0 -18 0 -4 0c-2,0 -3,-2 -3,-4l0 -4 0 -5c0,0 -15,4 -105,-30z"/>
 </g>
</svg>
