<?xml version="1.0" encoding="UTF-8"?>
<!DOCTYPE svg PUBLIC "-//W3C//DTD SVG 1.1//EN" "http://www.w3.org/Graphics/SVG/1.1/DTD/svg11.dtd">
<!-- Creator: CorelDRAW X6 -->
<svg xmlns="http://www.w3.org/2000/svg" xml:space="preserve" width="2.54mm" height="2.54mm" version="1.1" style="shape-rendering:geometricPrecision; text-rendering:geometricPrecision; image-rendering:optimizeQuality; fill-rule:evenodd; clip-rule:evenodd"
viewBox="0 0 254 254"
 xmlns:xlink="http://www.w3.org/1999/xlink">
 <defs>
  <style type="text/css">
   <![CDATA[
    .fil0 {fill:#ADADAD}
   ]]>
  </style>
 </defs>
 <g id="Слой_x0020_1">
  <metadata id="CorelCorpID_0Corel-Layer"/>
  <path class="fil0" d="M16 99l74 0c0,0 11,-3 11,-11 0,-8 0,-68 0,-68 -43,-10 -87,37 -85,79zm39 92c10,0 19,7 21,17l17 0 0 -20c-49,-5 -79,-40 -77,-80l154 0c0,0 9,-17 19,-17 9,0 40,0 40,0 14,2 10,23 0,23 -8,0 -38,0 -38,0 0,0 -11,4 -13,15 -2,10 -19,58 -71,60l0 19 17 0c3,-10 11,-17 22,-17 12,0 22,10 22,22 0,12 -10,22 -22,22 -10,0 -18,-6 -21,-15l-50 0c-2,9 -11,15 -20,15 -12,0 -22,-10 -22,-22 0,-12 10,-22 22,-22zm91 14c4,0 8,3 8,8 0,5 -4,9 -8,9 -5,0 -9,-4 -9,-9 0,-5 4,-8 9,-8zm0 -7c8,0 15,7 15,15 0,8 -7,15 -15,15 -8,0 -15,-7 -15,-15 0,-8 7,-15 15,-15zm-91 7c4,0 8,3 8,8 0,5 -4,9 -8,9 -5,0 -9,-4 -9,-9 0,-5 4,-8 9,-8zm0 -7c6,0 12,5 14,11l0 9c-2,6 -8,10 -14,10 -9,0 -15,-7 -15,-15 0,-8 6,-15 15,-15z"/>
 </g>
</svg>
