<?xml version="1.0" encoding="UTF-8"?>
<!DOCTYPE svg PUBLIC "-//W3C//DTD SVG 1.1//EN" "http://www.w3.org/Graphics/SVG/1.1/DTD/svg11.dtd">
<!-- Creator: CorelDRAW X6 -->
<svg xmlns="http://www.w3.org/2000/svg" xml:space="preserve" width="2.54mm" height="2.54mm" version="1.1" style="shape-rendering:geometricPrecision; text-rendering:geometricPrecision; image-rendering:optimizeQuality; fill-rule:evenodd; clip-rule:evenodd"
viewBox="0 0 254 254"
 xmlns:xlink="http://www.w3.org/1999/xlink">
 <defs>
  <style type="text/css">
   <![CDATA[
    .fil0 {fill:#CC244C}
   ]]>
  </style>
 </defs>
 <g id="Слой_x0020_1">
  <metadata id="CorelCorpID_0Corel-Layer"/>
  <path class="fil0" d="M186 182l45 25c0,0 15,5 15,-12l0 -17 0 0 0 0 0 -1 0 0 0 0 0 0 0 0 0 -1 0 0 0 -1 0 0 0 0 0 -1 0 0 0 -1 0 0 0 0 0 -1 0 -1 0 0 0 -1 0 0 0 -1 0 0 0 -1 0 -1 0 0 0 -1 0 0 0 -1 0 -1 0 0 0 -1 0 0 0 -1 0 0 0 -2 0 0 0 -1 0 0 0 -1 0 0 0 -1 0 -1 0 0 0 -1 0 -1 0 0 0 -1 0 -1 0 0 0 -1 0 -1 0 0 0 -1 0 0 0 -1 0 0 0 -2 0 0 0 -1 0 0 0 -1 0 0 0 -1 0 -1 0 0 0 -1 0 0 0 -1 0 -1 0 0 0 -1 0 0 0 -1 0 0 0 -1 0 0 0 -1 0 0 0 -1 0 0 0 -1 0 0 0 0 0 -1 0 0 0 -1 0 0 0 0 0 0 0 0 0 -1 0 0 0 0 0 -17c0,-17 -15,-12 -15,-12l-45 25 0 -18c0,-5 -4,-9 -9,-9l-17 0c8,-6 13,-15 13,-25 0,-17 -14,-31 -31,-31 -17,0 -30,14 -30,31 0,10 5,19 13,25l-50 0c8,-6 13,-15 13,-25 0,-17 -13,-31 -30,-31 -17,0 -31,14 -31,31 0,10 5,19 13,25l-22 0c-5,0 -10,4 -10,9l0 95c0,5 5,9 10,9l159 0c5,0 9,-4 9,-9l0 -21zm-128 -123c8,0 15,6 15,15 0,8 -7,14 -15,14 -8,0 -15,-6 -15,-14 0,-9 7,-15 15,-15zm84 0c8,0 15,6 15,15 0,8 -7,14 -15,14 -8,0 -15,-6 -15,-14 0,-9 7,-15 15,-15z"/>
 </g>
</svg>
