<?xml version="1.0" encoding="UTF-8"?>
<!DOCTYPE svg PUBLIC "-//W3C//DTD SVG 1.1//EN" "http://www.w3.org/Graphics/SVG/1.1/DTD/svg11.dtd">
<!-- Creator: CorelDRAW X6 -->
<svg xmlns="http://www.w3.org/2000/svg" xml:space="preserve" width="2.54mm" height="2.54mm" version="1.1" style="shape-rendering:geometricPrecision; text-rendering:geometricPrecision; image-rendering:optimizeQuality; fill-rule:evenodd; clip-rule:evenodd"
viewBox="0 0 254 254"
 xmlns:xlink="http://www.w3.org/1999/xlink">
 <defs>
  <style type="text/css">
   <![CDATA[
    .fil0 {fill:#ADADAD}
   ]]>
  </style>
 </defs>
 <g id="Слой_x0020_1">
  <metadata id="CorelCorpID_0Corel-Layer"/>
  <path class="fil0" d="M128 9l0 0c3,0 6,3 6,7l0 18 4 0 116 46c0,0 0,25 -28,25 -28,0 -24,-9 -33,-14l-4 0c-1,12 -15,21 -32,21 -14,0 -26,-6 -30,-16 -3,10 -15,16 -30,16 -15,0 -28,-8 -30,-19l-5 0c-6,5 -5,12 -30,12 -28,0 -28,-25 -28,-25l117 -46 1 0 0 -18c0,-4 2,-7 6,-7zm-9 110l5 0 0 -3c0,-2 2,-4 4,-4l0 0c2,0 3,2 3,4l0 3 4 0 0 84 -6 0c0,0 -1,0 -1,0l0 0c-1,0 -1,0 -1,0l-8 0 0 -84zm37 110l0 12c0,2 -2,4 -4,4l-11 0c-2,0 -3,-2 -3,-4l0 -12 -108 0 0 12c0,2 -1,4 -3,4l-11 0c-2,0 -3,-2 -3,-4l0 -12 -7 0c-3,0 -6,-3 -6,-6l0 0c0,-1 0,-2 0,-2 0,-1 0,-2 0,-2l0 0c0,-4 3,-7 6,-7l151 0c0,0 0,0 0,0l39 -47c3,-3 7,-3 10,-1l0 0c3,3 4,7 1,10 -1,2 -41,55 -45,55l-6 0z"/>
 </g>
</svg>
