<?xml version="1.0" encoding="UTF-8"?>
<!DOCTYPE svg PUBLIC "-//W3C//DTD SVG 1.1//EN" "http://www.w3.org/Graphics/SVG/1.1/DTD/svg11.dtd">
<!-- Creator: CorelDRAW X6 -->
<svg xmlns="http://www.w3.org/2000/svg" xml:space="preserve" width="2.54mm" height="2.54mm" version="1.1" style="shape-rendering:geometricPrecision; text-rendering:geometricPrecision; image-rendering:optimizeQuality; fill-rule:evenodd; clip-rule:evenodd"
viewBox="0 0 254 254"
 xmlns:xlink="http://www.w3.org/1999/xlink">
 <defs>
  <style type="text/css">
   <![CDATA[
    .fil0 {fill:#CC244C}
   ]]>
  </style>
 </defs>
 <g id="Слой_x0020_1">
  <metadata id="CorelCorpID_0Corel-Layer"/>
  <path class="fil0" d="M29 198l1 0 1 0 0 0 1 0 1 0 0 0 1 0 0 0 1 0 0 0 1 0 0 0 1 0 0 0 1 0 0 0 0 0 1 0 0 0 0 0 1 0 0 0 0 0 1 0 0 0 0 0 0 0 1 0 0 0 0 0 0 0 0 0 1 0 0 0 0 0 0 0 0 0 0 0 0 0 0 0 0 0 1 0 0 0 0 0 0 0 0 36 42 -36 112 0c4,0 7,-3 7,-7l0 -14 0 0 0 0 0 -1 0 -1 0 -2 0 -1 0 -1 0 -2 0 -1 0 -1 0 -2 0 -2 0 -1 0 -2 0 -2 0 -2 0 -2 0 -1 0 -2 0 -2 0 -2 0 -2 0 -3 0 -2 0 -2 0 -2 0 -2 0 -2 0 -2 0 -2 0 -3 0 -2 0 -2 0 -2 0 -2 0 -2 0 -2 0 -2 0 -2 0 -2 0 -2 0 -2 0 -2 0 -2 0 -1 0 -2 0 -2 0 -1 0 -2 0 -1 0 -2 0 -1 0 -1 0 -1 0 -1 0 -1 0 -1 0 -1 0 -1 0 0 0 -1 0 0 0 0 0 -1 0 0c0,0 0,0 0,-1l0 -5c0,-4 -3,-7 -7,-7l-7 0 -8 0 -139 0 -2 0 -3 0 -1 0 -2 0 -2 0 -1 0 -1 0 -2 0 0 0 -1 0 -1 0 0 0 0 0c0,0 -2,-1 -5,0l-11 0c-4,0 -8,3 -8,7l0 119c0,4 4,7 8,7l17 0zm193 -177l10 0 0 0c0,0 16,0 18,15l0 11 0 10 0 17 0 20 0 46 0 21c0,4 -4,8 -8,8l-20 0c-1,0 -2,0 -2,0 0,0 0,-86 0,-104 0,-18 -16,-16 -16,-16l-49 0 -98 0 -17 0 0 -21c0,-4 3,-7 7,-7l32 0c4,-1 7,0 7,0l69 0 67 0 0 0zm-160 87l95 0c4,0 8,4 8,8l0 0c0,5 -4,8 -8,8l-95 0c-5,0 -8,-3 -8,-8l0 0c0,-4 3,-8 8,-8zm0 34l95 0c4,0 8,4 8,8l0 0c0,5 -4,8 -8,8l-95 0c-5,0 -8,-3 -8,-8l0 0c0,-4 3,-8 8,-8z"/>
 </g>
</svg>
