<?xml version="1.0" encoding="UTF-8"?>
<!DOCTYPE svg PUBLIC "-//W3C//DTD SVG 1.1//EN" "http://www.w3.org/Graphics/SVG/1.1/DTD/svg11.dtd">
<!-- Creator: CorelDRAW X6 -->
<svg xmlns="http://www.w3.org/2000/svg" xml:space="preserve" width="2.54mm" height="2.54mm" version="1.1" style="shape-rendering:geometricPrecision; text-rendering:geometricPrecision; image-rendering:optimizeQuality; fill-rule:evenodd; clip-rule:evenodd"
viewBox="0 0 254 254"
 xmlns:xlink="http://www.w3.org/1999/xlink">
 <defs>
  <style type="text/css">
   <![CDATA[
    .fil0 {fill:#CC244C}
   ]]>
  </style>
 </defs>
 <g id="Слой_x0020_1">
  <metadata id="CorelCorpID_0Corel-Layer"/>
  <path class="fil0" d="M100 254l54 0 12 0 0 -20c44,-18 64,-41 79,-85 0,0 9,-27 -16,-27l-55 0 -1 0 0 0 0 0 -1 0 -1 0 0 0 -1 0 -1 0 -1 0 0 0 -1 0 -2 0 -1 0 0 0 -2 0 -1 0 -1 0 -2 0 0 0 -2 0 -1 0 -1 0 -2 0 0 0 -3 0 -1 0 -1 0 -2 0 -1 0 -2 0 0 0 -3 0 0 0 -3 0 0 0 -3 0 0 0 -3 0 0 0 -3 0 0 0 -3 0 0 0 -3 0 0 0 -3 0 0 0 -3 0 0 0 -3 0 0 0 -2 0 -1 0 -2 0 -1 0 -1 0 -3 0 0 0 -2 0 -1 0 -1 0 -2 0 0 0 -2 0 -1 0 -1 0 -2 0 0 0 -1 0 -2 0 -1 0 0 0 -1 0 -1 0 -1 0 0 0 -1 0 -1 0 0 0 0 0 -1 0 -55 0c-25,0 -16,27 -16,27 15,44 35,67 79,85l0 20 12 0zm32 -148l42 0c0,0 16,-34 -4,-47 -19,-12 -22,-40 -9,-49 12,-10 4,-10 4,-10 0,0 -40,14 -46,39 -5,25 25,29 13,67zm-48 0l33 0c0,0 12,-26 -3,-36 -15,-10 -17,-31 -8,-38 10,-8 4,-8 4,-8 0,0 -31,11 -36,30 -4,19 20,22 10,52z"/>
 </g>
</svg>
