<?xml version="1.0" encoding="UTF-8"?>
<!DOCTYPE svg PUBLIC "-//W3C//DTD SVG 1.1//EN" "http://www.w3.org/Graphics/SVG/1.1/DTD/svg11.dtd">
<!-- Creator: CorelDRAW X6 -->
<svg xmlns="http://www.w3.org/2000/svg" xml:space="preserve" width="2.54mm" height="2.54mm" version="1.1" style="shape-rendering:geometricPrecision; text-rendering:geometricPrecision; image-rendering:optimizeQuality; fill-rule:evenodd; clip-rule:evenodd"
viewBox="0 0 254 254"
 xmlns:xlink="http://www.w3.org/1999/xlink">
 <defs>
  <style type="text/css">
   <![CDATA[
    .fil0 {fill:#ADADAD}
   ]]>
  </style>
 </defs>
 <g id="Слой_x0020_1">
  <metadata id="CorelCorpID_0Corel-Layer"/>
  <path class="fil0" d="M0 243l72 0 150 0 32 0 0 -15 -38 0 0 -4 0 0 0 -104 0 0 38 0 0 -17 -125 -89 0 -3 -2 1 -2 -1 0 3 -58 41 0 -20 -27 0 0 40 -40 28 0 17 38 0 0 104 0 4 -38 0 0 15zm150 -24l34 0 0 -73 -34 0 0 36 7 0 0 13 -7 0 0 24zm-62 -76l0 -2 -30 0 0 59 29 0 0 -57 1 0zm6 -2l0 2 0 57 0 0 17 0 0 -59 -17 0zm50 -1l6 0 34 0 6 0 0 6 0 73 0 5 0 1 -46 0 0 -1 0 -5 0 -73 0 -6z"/>
 </g>
</svg>
