<?xml version="1.0" encoding="UTF-8"?>
<!DOCTYPE svg PUBLIC "-//W3C//DTD SVG 1.1//EN" "http://www.w3.org/Graphics/SVG/1.1/DTD/svg11.dtd">
<!-- Creator: CorelDRAW X6 -->
<svg xmlns="http://www.w3.org/2000/svg" xml:space="preserve" width="2.54mm" height="2.54mm" version="1.1" style="shape-rendering:geometricPrecision; text-rendering:geometricPrecision; image-rendering:optimizeQuality; fill-rule:evenodd; clip-rule:evenodd"
viewBox="0 0 254 254"
 xmlns:xlink="http://www.w3.org/1999/xlink">
 <defs>
  <style type="text/css">
   <![CDATA[
    .fil0 {fill:#ADADAD}
   ]]>
  </style>
 </defs>
 <g id="Слой_x0020_1">
  <metadata id="CorelCorpID_0Corel-Layer"/>
  <path class="fil0" d="M175 125l0 80 -96 0 0 -80 44 -1 0 11c-11,2 -20,12 -20,24 0,13 11,24 24,24 13,0 24,-11 24,-24 0,-12 -9,-22 -20,-24l0 -11 44 1zm0 88l50 0 0 -8 0 -8 -13 -4 -7 -70 20 0c0,0 -10,-25 -7,-26 3,-1 -14,0 -14,0l-3 -15 34 0 0 -14 19 0 -7 -27c0,0 -3,3 -97,4l-2 0 -1 0 -3 0 0 0 -3 0 -1 0 -3 0 -1 0 -2 0 -2 0 -2 0 -2 0 -2 0 -2 0 -2 0 -2 0 -2 0 -1 0 -3 0 -1 0 -3 0 0 0 -3 0 -1 0 -2 0c-94,-1 -97,-4 -97,-4l-7 27 19 0 0 14 34 0 -3 15c0,0 -17,-1 -14,0 3,1 -7,26 -7,26l20 0 -7 70 -13 4 0 8 0 8 50 0 96 0zm-48 -62c5,0 8,4 8,8 0,5 -3,8 -8,8 -5,0 -8,-3 -8,-8 0,-4 3,-8 8,-8zm0 -9c9,0 17,8 17,17 0,9 -8,17 -17,17 -9,0 -17,-8 -17,-17 0,-9 8,-17 17,-17zm-18 -58l36 0 32 0 -4 14 -92 0 -4 -14 32 0z"/>
 </g>
</svg>
