<?xml version="1.0" encoding="UTF-8"?>
<!DOCTYPE svg PUBLIC "-//W3C//DTD SVG 1.1//EN" "http://www.w3.org/Graphics/SVG/1.1/DTD/svg11.dtd">
<!-- Creator: CorelDRAW X6 -->
<svg xmlns="http://www.w3.org/2000/svg" xml:space="preserve" width="2.54mm" height="2.54mm" version="1.1" style="shape-rendering:geometricPrecision; text-rendering:geometricPrecision; image-rendering:optimizeQuality; fill-rule:evenodd; clip-rule:evenodd"
viewBox="0 0 254 254"
 xmlns:xlink="http://www.w3.org/1999/xlink">
 <defs>
  <style type="text/css">
   <![CDATA[
    .fil0 {fill:#CC244C}
   ]]>
  </style>
 </defs>
 <g id="Слой_x0020_1">
  <metadata id="CorelCorpID_0Corel-Layer"/>
  <path class="fil0" d="M140 13c5,1 -6,-2 -4,3 3,5 8,7 8,7 0,0 4,0 9,11 5,11 5,18 3,20 -2,4 -15,18 -17,21 -3,2 -6,-3 -6,-6 0,-2 4,-2 4,-6 0,-4 3,-14 -3,-18 -7,-3 -12,-3 -16,-1 -3,1 -5,1 -3,7 2,7 0,6 3,9 2,4 3,5 3,8 0,4 -2,8 -2,8 0,0 -14,-4 -18,-13 -4,-9 -5,-15 -5,-15 0,0 12,-18 12,-23 0,-5 0,0 0,0 0,0 6,-2 9,-5 2,-3 1,-7 1,-7 0,0 -5,-4 -13,5 -8,8 -18,31 -18,36 0,4 8,17 13,22 4,6 13,17 15,23 3,7 3,17 3,17l-2 6c0,0 3,1 0,0 -7,-2 -37,-12 -39,-15 0,0 -7,-3 -8,13 -1,17 9,35 33,43 6,2 11,3 15,4 1,3 3,7 5,11 -2,5 -4,9 -4,9 -2,3 -6,12 -8,19 -1,8 0,9 -5,10 -6,1 -5,4 -5,7 0,4 -1,6 -4,10 -2,4 0,5 3,5 3,0 6,-2 10,-7 4,-5 14,-30 19,-38 2,5 4,11 6,14 2,4 7,16 7,16 0,0 2,4 2,8 1,5 2,11 6,11 3,0 2,-8 2,-15 0,-8 -4,-11 -4,-11 -1,-1 -9,-33 -9,-33 0,-4 -2,-9 -2,-14 7,0 12,0 23,-4 12,-5 20,-12 23,-18 3,-7 5,-12 2,-13 -9,-3 -42,0 -39,-14 2,-7 4,-18 4,-24 0,-6 -3,-10 -1,-13 1,-4 19,-25 20,-32 0,-6 -13,-22 -13,-26 -1,-3 -3,-12 -16,-13l1 1z"/>
 </g>
</svg>
