<?xml version="1.0" encoding="UTF-8"?>
<!DOCTYPE svg PUBLIC "-//W3C//DTD SVG 1.1//EN" "http://www.w3.org/Graphics/SVG/1.1/DTD/svg11.dtd">
<!-- Creator: CorelDRAW 2017 -->
<svg xmlns="http://www.w3.org/2000/svg" xml:space="preserve" width="2.54mm" height="2.54mm" version="1.1" style="shape-rendering:geometricPrecision; text-rendering:geometricPrecision; image-rendering:optimizeQuality; fill-rule:evenodd; clip-rule:evenodd"
viewBox="0 0 2540 2540"
 xmlns:xlink="http://www.w3.org/1999/xlink">
 <defs>
  <style type="text/css">
   <![CDATA[
    .fil0 {fill:#CC244C}
   ]]>
  </style>
 </defs>
 <g id="Слой_x0020_1">
  <metadata id="CorelCorpID_0Corel-Layer"/>
  <path class="fil0" d="M641 42l1259 0c69,0 126,57 126,126l0 2204c0,69 -57,126 -126,126l-1259 0c-69,0 -126,-57 -126,-126l0 -2204c0,-69 57,-126 126,-126zm624 1539l0 -6c-46,-24 -229,-130 -356,-330 -147,-231 11,-420 168,-420 126,0 178,81 194,113 16,-32 68,-113 194,-113 157,0 315,189 168,420 -127,200 -310,306 -356,330l0 6 -5 -3 -6 3zm6 525c75,0 136,61 136,136 0,75 -61,136 -136,136 -75,0 -136,-61 -136,-136 0,-75 61,-136 136,-136zm-223 -1922l68 0 309 0 68 0c31,0 57,26 57,57l0 0c0,31 -26,57 -57,57l-68 0 -309 0 -68 0c-31,0 -57,-26 -57,-57l0 0c0,-31 26,-57 57,-57zm824 247l0 1574 -1202 0 0 -1574 1202 0z"/>
 </g>
</svg>
