<?xml version="1.0" encoding="UTF-8"?>
<!DOCTYPE svg PUBLIC "-//W3C//DTD SVG 1.1//EN" "http://www.w3.org/Graphics/SVG/1.1/DTD/svg11.dtd">
<!-- Creator: CorelDRAW X6 -->
<svg xmlns="http://www.w3.org/2000/svg" xml:space="preserve" width="2.54mm" height="2.54mm" version="1.1" style="shape-rendering:geometricPrecision; text-rendering:geometricPrecision; image-rendering:optimizeQuality; fill-rule:evenodd; clip-rule:evenodd"
viewBox="0 0 254 254"
 xmlns:xlink="http://www.w3.org/1999/xlink">
 <defs>
  <style type="text/css">
   <![CDATA[
    .fil0 {fill:#CC244C}
   ]]>
  </style>
 </defs>
 <g id="Слой_x0020_1">
  <metadata id="CorelCorpID_0Corel-Layer"/>
  <path class="fil0" d="M119 1l16 0 0 19c20,4 35,21 35,41 0,10 -3,18 -8,25l27 49 -13 9 -27 -47c-6,4 -13,6 -21,6 -4,0 -7,0 -10,-1l0 0 -41 74c14,7 29,10 46,10 40,0 74,-21 93,-52 4,3 7,6 11,9 -21,35 -60,58 -104,58 -19,0 -37,-5 -53,-12l-28 48 -13 3 -2 2 -19 7 4 -21 82 -141c-5,-7 -8,-16 -8,-26 0,-20 14,-37 33,-41l0 -19zm8 46c8,0 15,6 15,14 0,9 -7,15 -15,15 -8,0 -15,-6 -15,-15 0,-8 7,-14 15,-14zm92 138l27 51 0 17 -19 -11 -24 -47 16 -10zm-64 -125l0 0 0 1 0 0 0 0 0 0 0 1 0 0 0 0 0 0 0 1 0 0 0 0 0 0 0 0 0 0 0 1 0 0 0 0 0 0 0 0 0 1 0 0c-1,14 -13,25 -28,25 -16,0 -28,-13 -28,-29 0,-15 12,-28 28,-28 15,0 28,12 28,27z"/>
 </g>
</svg>
