<?xml version="1.0" encoding="UTF-8"?>
<!DOCTYPE svg PUBLIC "-//W3C//DTD SVG 1.1//EN" "http://www.w3.org/Graphics/SVG/1.1/DTD/svg11.dtd">
<!-- Creator: CorelDRAW X6 -->
<svg xmlns="http://www.w3.org/2000/svg" xml:space="preserve" width="2.54mm" height="2.54mm" version="1.1" style="shape-rendering:geometricPrecision; text-rendering:geometricPrecision; image-rendering:optimizeQuality; fill-rule:evenodd; clip-rule:evenodd"
viewBox="0 0 254 254"
 xmlns:xlink="http://www.w3.org/1999/xlink">
 <defs>
  <style type="text/css">
   <![CDATA[
    .fil0 {fill:#ADADAD}
   ]]>
  </style>
 </defs>
 <g id="Слой_x0020_1">
  <metadata id="CorelCorpID_0Corel-Layer"/>
  <path class="fil0" d="M49 95l0 0 1 0c10,0 19,3 26,9 2,-22 7,-80 7,-80 0,0 17,5 17,5 0,0 5,-17 0,0 -4,16 -7,59 -8,74l1 0c24,-64 68,-41 68,-41 0,0 11,-8 42,-4 32,4 43,66 43,66 0,0 -54,8 -70,-11 -15,-20 -15,-39 -35,-39 -13,0 -27,14 -34,22 3,-1 7,-1 10,-1l1 0 0 0c23,0 41,18 41,39 0,2 0,4 0,5 1,10 1,36 -18,62 -20,30 -41,39 -57,25 -17,14 -38,5 -58,-25 -19,-26 -19,-52 -18,-62 0,-1 0,-3 0,-5 0,-21 18,-39 41,-39z"/>
 </g>
</svg>
