<?xml version="1.0" encoding="UTF-8"?>
<!DOCTYPE svg PUBLIC "-//W3C//DTD SVG 1.1//EN" "http://www.w3.org/Graphics/SVG/1.1/DTD/svg11.dtd">
<!-- Creator: CorelDRAW 2017 -->
<svg xmlns="http://www.w3.org/2000/svg" xml:space="preserve" width="2.54mm" height="2.54mm" version="1.1" style="shape-rendering:geometricPrecision; text-rendering:geometricPrecision; image-rendering:optimizeQuality; fill-rule:evenodd; clip-rule:evenodd"
viewBox="0 0 2540 2540"
 xmlns:xlink="http://www.w3.org/1999/xlink">
 <defs>
  <style type="text/css">
   <![CDATA[
    .fil0 {fill:#ADADAD}
   ]]>
  </style>
 </defs>
 <g id="Слой_x0020_1">
  <metadata id="CorelCorpID_0Corel-Layer"/>
  <path class="fil0" d="M95 1045l0 -320c0,0 -15,-91 61,-91l1039 0 1 0 2 0 4 0 5 0 0 0 6 0 8 0 3 0 7 0 10 0 1 0 12 0 2 0 11 0 4 0 11 0 2 0 12 0 1 0 10 0 7 0 3 0 8 0 6 0 0 0 5 0 4 0 2 0 1 0 488 0 0 1274 -488 0 -1 0 -2 0 -4 0 -5 0 0 0 -6 0 -8 0 -3 0 -7 0 -10 0 -1 0 -12 0 -2 0 -11 0 -4 0 -11 0 -2 0 -12 0 -1 0 -10 0 -7 0 -3 0 -8 0 -6 0 0 0 -5 0 -4 0 -2 0 -1 0 -1039 0c-76,0 -61,-91 -61,-91l0 -320c157,-46 191,-133 194,-220 3,-91 -31,-183 -194,-231zm989 -148l108 264 285 21 -218 185 68 277 -243 -150 -243 150 68 -277 -218 -185 285 -21 108 -264zm870 -263l429 0c76,0 61,91 61,91l0 320c-165,49 -222,143 -217,235 5,86 62,171 217,216l0 320c0,0 15,91 -61,91l-429 0 0 -1274z"/>
 </g>
</svg>
