<?xml version="1.0" encoding="UTF-8"?>
<!DOCTYPE svg PUBLIC "-//W3C//DTD SVG 1.1//EN" "http://www.w3.org/Graphics/SVG/1.1/DTD/svg11.dtd">
<!-- Creator: CorelDRAW X6 -->
<svg xmlns="http://www.w3.org/2000/svg" xml:space="preserve" width="2.54mm" height="2.54mm" version="1.1" style="shape-rendering:geometricPrecision; text-rendering:geometricPrecision; image-rendering:optimizeQuality; fill-rule:evenodd; clip-rule:evenodd"
viewBox="0 0 254 254"
 xmlns:xlink="http://www.w3.org/1999/xlink">
 <defs>
  <style type="text/css">
   <![CDATA[
    .fil0 {fill:#CC244C}
   ]]>
  </style>
 </defs>
 <g id="Слой_x0020_1">
  <metadata id="CorelCorpID_0Corel-Layer"/>
  <path class="fil0" d="M127 32l0 0c-6,6 -41,42 -41,91 0,48 35,73 41,76l0 0c0,0 0,0 0,0 0,0 0,0 0,0l0 0c6,-3 41,-28 41,-76 0,-49 -35,-85 -41,-91l0 0c0,0 0,0 0,0 0,0 0,0 0,0zm-12 181c0,0 -44,-8 -64,-29 -19,-21 -22,-27 -22,-27l-29 15c0,0 6,30 48,45 43,14 67,-4 67,-4zm-37 -122c0,0 -8,18 -4,46 4,28 21,45 21,45l17 17c0,0 -23,4 -56,-26 -34,-31 -24,-95 -24,-95 0,0 36,-1 46,13zm61 122c0,0 44,-8 64,-29 19,-21 22,-27 22,-27l29 15c0,0 -6,30 -48,45 -42,14 -67,-4 -67,-4zm37 -122c0,0 8,18 4,46 -4,28 -21,45 -21,45l-17 17c0,0 23,4 56,-26 34,-31 24,-95 24,-95 0,0 -36,-1 -46,13z"/>
 </g>
</svg>
