<?xml version="1.0" encoding="UTF-8"?>
<!DOCTYPE svg PUBLIC "-//W3C//DTD SVG 1.1//EN" "http://www.w3.org/Graphics/SVG/1.1/DTD/svg11.dtd">
<!-- Creator: CorelDRAW X6 -->
<svg xmlns="http://www.w3.org/2000/svg" xml:space="preserve" width="2.54mm" height="2.54mm" version="1.1" style="shape-rendering:geometricPrecision; text-rendering:geometricPrecision; image-rendering:optimizeQuality; fill-rule:evenodd; clip-rule:evenodd"
viewBox="0 0 254 254"
 xmlns:xlink="http://www.w3.org/1999/xlink">
 <defs>
  <style type="text/css">
   <![CDATA[
    .fil0 {fill:#CC244C}
   ]]>
  </style>
 </defs>
 <g id="Слой_x0020_1">
  <metadata id="CorelCorpID_0Corel-Layer"/>
  <path class="fil0" d="M5 5l244 0 0 129 -244 0 0 -129zm122 34l0 1 0 -1 0 1 9 19 21 3 -14 13 3 20 -19 -12 0 0 0 0 -19 12 3 -20 -14 -13 21 -3 9 -19 0 -1zm-31 210l62 0 0 -23c0,0 -4,-18 -32,-18 -27,0 -30,20 -30,20l0 21zm-89 0l62 0 0 -23c0,0 -4,-18 -32,-18 -27,0 -30,20 -30,20l0 21zm180 0l62 0 0 -23c0,0 -5,-18 -32,-18 -27,0 -30,20 -30,20l0 21zm30 -92c10,0 18,8 18,19 0,10 -8,18 -18,18 -10,0 -18,-8 -18,-18 0,-11 8,-19 18,-19zm-179 0c10,0 18,8 18,19 0,10 -8,18 -18,18 -10,0 -18,-8 -18,-18 0,-11 8,-19 18,-19zm89 0c10,0 18,8 18,19 0,10 -8,18 -18,18 -10,0 -18,-8 -18,-18 0,-11 8,-19 18,-19zm0 -136c27,0 49,22 49,49 0,27 -22,48 -49,48 -27,0 -48,-21 -48,-48 0,-27 21,-49 48,-49z"/>
 </g>
</svg>
