<?xml version="1.0" encoding="UTF-8"?>
<!DOCTYPE svg PUBLIC "-//W3C//DTD SVG 1.1//EN" "http://www.w3.org/Graphics/SVG/1.1/DTD/svg11.dtd">
<!-- Creator: CorelDRAW X6 -->
<svg xmlns="http://www.w3.org/2000/svg" xml:space="preserve" width="2.54mm" height="2.54mm" version="1.1" style="shape-rendering:geometricPrecision; text-rendering:geometricPrecision; image-rendering:optimizeQuality; fill-rule:evenodd; clip-rule:evenodd"
viewBox="0 0 254 254"
 xmlns:xlink="http://www.w3.org/1999/xlink">
 <defs>
  <style type="text/css">
   <![CDATA[
    .fil0 {fill:#ADADAD}
   ]]>
  </style>
 </defs>
 <g id="Слой_x0020_1">
  <metadata id="CorelCorpID_0Corel-Layer"/>
  <path class="fil0" d="M158 4c0,0 -1,22 -13,29 -13,8 3,8 -2,23 -4,13 -13,17 -16,18 -3,-1 -12,-5 -16,-18 -5,-15 11,-15 -2,-23 -12,-7 -13,-29 -13,-29 2,11 -41,17 -54,28 -12,10 -7,44 -7,44l27 8 11 -17c0,0 7,32 12,52 5,19 0,21 -12,38 -12,17 -17,53 -17,53l0 40 70 0 2 0 70 0 0 -40c0,0 -5,-36 -17,-53 -12,-17 -17,-19 -12,-38 5,-20 12,-52 12,-52l11 17 27 -8c0,0 5,-34 -7,-44 -13,-11 -56,-17 -54,-28z"/>
 </g>
</svg>
