<?xml version="1.0" encoding="UTF-8"?>
<!DOCTYPE svg PUBLIC "-//W3C//DTD SVG 1.1//EN" "http://www.w3.org/Graphics/SVG/1.1/DTD/svg11.dtd">
<!-- Creator: CorelDRAW X6 -->
<svg xmlns="http://www.w3.org/2000/svg" xml:space="preserve" width="2.54mm" height="2.54mm" version="1.1" style="shape-rendering:geometricPrecision; text-rendering:geometricPrecision; image-rendering:optimizeQuality; fill-rule:evenodd; clip-rule:evenodd"
viewBox="0 0 254 254"
 xmlns:xlink="http://www.w3.org/1999/xlink">
 <defs>
  <style type="text/css">
   <![CDATA[
    .fil0 {fill:#CC244C}
   ]]>
  </style>
 </defs>
 <g id="Слой_x0020_1">
  <metadata id="CorelCorpID_0Corel-Layer"/>
  <path class="fil0" d="M45 63l79 0 0 23 -30 0 11 39 64 30 18 -104 -30 0 0 -22 42 0c0,0 13,0 17,-8 3,-8 8,-17 8,-17l18 7c0,0 -6,22 -10,28 -3,6 -11,11 -20,12l-20 113c13,6 30,15 30,31 0,20 -14,23 -19,23l-2 0 -129 0 -12 0c0,0 -48,-5 -48,-50 0,-45 35,-55 48,-55 14,0 19,1 19,1l-9 -28 -25 0 0 -23zm-32 165l218 0 0 22 -218 0 0 -22zm49 -80c8,0 15,6 15,15 0,8 -7,15 -15,15 -9,0 -16,-7 -16,-15 0,-9 7,-15 16,-15zm0 -15c16,0 30,13 30,30 0,17 -14,30 -30,30 -17,0 -30,-13 -30,-30 0,-17 13,-30 30,-30z"/>
 </g>
</svg>
