<?xml version="1.0" encoding="UTF-8"?>
<!DOCTYPE svg PUBLIC "-//W3C//DTD SVG 1.1//EN" "http://www.w3.org/Graphics/SVG/1.1/DTD/svg11.dtd">
<!-- Creator: CorelDRAW X6 -->
<svg xmlns="http://www.w3.org/2000/svg" xml:space="preserve" width="2.54mm" height="2.54mm" version="1.1" style="shape-rendering:geometricPrecision; text-rendering:geometricPrecision; image-rendering:optimizeQuality; fill-rule:evenodd; clip-rule:evenodd"
viewBox="0 0 254 254"
 xmlns:xlink="http://www.w3.org/1999/xlink">
 <defs>
  <style type="text/css">
   <![CDATA[
    .fil0 {fill:#9D9E9E}
   ]]>
  </style>
 </defs>
 <g id="Слой_x0020_1">
  <metadata id="CorelCorpID_0Corel-Layer"/>
  <path class="fil0" d="M252 203l-96 0c0,-28 4,-37 -19,-55 0,0 24,0 24,-10l0 -9 -27 0 0 -8c5,-2 12,-8 12,-17 0,-14 0,-27 0,-27 1,-13 18,-26 35,-26 18,-1 35,13 35,28 0,21 0,23 0,23 3,9 7,22 18,22 0,-1 0,7 0,7l0 0 2 -2 -35 0 0 10c0,0 3,2 21,8 17,5 33,19 30,56zm-144 -114c0,2 0,5 0,8 0,29 -13,18 -14,42 0,0 4,2 21,8 18,5 33,19 30,56l-70 0 -3 0 -70 0 0 -18c0,0 3,-29 22,-36 20,-6 29,-10 29,-10 0,-22 -13,-8 -15,-38 -2,1 -3,1 -4,1 -4,1 -5,-7 -5,-21 0,-14 16,-18 21,-23 5,-5 26,-12 46,-2 19,11 19,32 19,32l-7 1z"/>
 </g>
</svg>
