<?xml version="1.0" encoding="UTF-8"?>
<!DOCTYPE svg PUBLIC "-//W3C//DTD SVG 1.1//EN" "http://www.w3.org/Graphics/SVG/1.1/DTD/svg11.dtd">
<!-- Creator: CorelDRAW X6 -->
<svg xmlns="http://www.w3.org/2000/svg" xml:space="preserve" width="2.54mm" height="2.54mm" version="1.1" style="shape-rendering:geometricPrecision; text-rendering:geometricPrecision; image-rendering:optimizeQuality; fill-rule:evenodd; clip-rule:evenodd"
viewBox="0 0 254 254"
 xmlns:xlink="http://www.w3.org/1999/xlink">
 <defs>
  <style type="text/css">
   <![CDATA[
    .fil0 {fill:#CC244C}
   ]]>
  </style>
 </defs>
 <g id="Слой_x0020_1">
  <metadata id="CorelCorpID_0Corel-Layer"/>
  <path class="fil0" d="M96 36c31,0 58,15 75,38l-75 54 75 54c-16,23 -44,38 -75,38 -50,0 -92,-41 -92,-92 0,-51 42,-92 92,-92zm66 74c8,0 14,7 14,15 0,7 -6,14 -14,14 -8,0 -14,-7 -14,-14 0,-8 6,-15 14,-15zm76 0c8,0 14,7 14,15 0,7 -6,14 -14,14 -8,0 -14,-7 -14,-14 0,-8 6,-15 14,-15zm-38 0c7,0 14,7 14,15 0,7 -7,14 -14,14 -8,0 -14,-7 -14,-14 0,-8 6,-15 14,-15zm-123 -43c9,0 16,7 16,16 0,9 -7,17 -16,17 -9,0 -16,-8 -16,-17 0,-9 7,-16 16,-16z"/>
 </g>
</svg>
