<?xml version="1.0" encoding="UTF-8"?>
<!DOCTYPE svg PUBLIC "-//W3C//DTD SVG 1.1//EN" "http://www.w3.org/Graphics/SVG/1.1/DTD/svg11.dtd">
<!-- Creator: CorelDRAW X6 -->
<svg xmlns="http://www.w3.org/2000/svg" xml:space="preserve" width="2.54mm" height="2.54mm" version="1.1" style="shape-rendering:geometricPrecision; text-rendering:geometricPrecision; image-rendering:optimizeQuality; fill-rule:evenodd; clip-rule:evenodd"
viewBox="0 0 254 254"
 xmlns:xlink="http://www.w3.org/1999/xlink">
 <defs>
  <style type="text/css">
   <![CDATA[
    .fil0 {fill:#CC244C}
   ]]>
  </style>
 </defs>
 <g id="Слой_x0020_1">
  <metadata id="CorelCorpID_0Corel-Layer"/>
  <path class="fil0" d="M116 11l22 0 0 105 105 0 0 22 -105 0 0 105 -22 0 0 -105 -105 0 0 -22 105 0 0 -105zm-101 163l14 -15 26 26 25 -26 15 15 -26 25 26 26 -15 14 -25 -25 -26 25 -14 -14 25 -26 -25 -25zm144 -145l15 -14 25 25 26 -25 14 14 -25 26 25 25 -14 15 -26 -26 -25 26 -15 -15 26 -25 -26 -26zm40 126c-24,0 -44,20 -44,44 0,24 20,44 44,44 24,0 44,-20 44,-44 0,-24 -20,-44 -44,-44zm0 19c-14,0 -25,11 -25,25 0,14 11,26 25,26 14,0 26,-12 26,-26 0,-14 -12,-25 -26,-25zm-144 -163c-24,0 -44,20 -44,44 0,24 20,44 44,44 24,0 44,-20 44,-44 0,-24 -20,-44 -44,-44zm0 18c-14,0 -26,12 -26,26 0,14 12,25 26,25 14,0 25,-11 25,-25 0,-14 -11,-26 -25,-26z"/>
 </g>
</svg>
