<?xml version="1.0" encoding="UTF-8"?>
<!DOCTYPE svg PUBLIC "-//W3C//DTD SVG 1.1//EN" "http://www.w3.org/Graphics/SVG/1.1/DTD/svg11.dtd">
<!-- Creator: CorelDRAW X6 -->
<svg xmlns="http://www.w3.org/2000/svg" xml:space="preserve" width="2.54mm" height="2.54mm" version="1.1" style="shape-rendering:geometricPrecision; text-rendering:geometricPrecision; image-rendering:optimizeQuality; fill-rule:evenodd; clip-rule:evenodd"
viewBox="0 0 254 254"
 xmlns:xlink="http://www.w3.org/1999/xlink">
 <defs>
  <style type="text/css">
   <![CDATA[
    .fil0 {fill:#CC244C}
   ]]>
  </style>
 </defs>
 <g id="Слой_x0020_1">
  <metadata id="CorelCorpID_0Corel-Layer"/>
  <path class="fil0" d="M177 43c-18,2 -25,8 -49,8 -25,0 -34,-8 -49,-8 -34,-1 -47,31 -55,59 -7,24 -19,73 -10,98 8,19 24,11 35,1 12,-10 18,-23 29,-28 12,-5 38,-4 53,-4 15,0 41,-1 52,5 10,6 16,19 29,29 12,11 28,14 33,-6 8,-27 -4,-74 -11,-98 -6,-20 -15,-42 -34,-52 -6,-3 -15,-5 -23,-4zm23 57c-13,3 -9,23 5,20 4,-1 9,-6 7,-12 -1,-5 -6,-9 -12,-8zm-45 0c-13,5 -7,23 6,20 4,-1 8,-6 7,-13 -2,-4 -7,-8 -13,-7zm23 23c-14,3 -8,23 4,20 5,-2 9,-7 8,-13 -1,-4 -6,-9 -12,-7zm0 -45c-13,3 -9,23 4,20 5,-1 9,-6 8,-13 -1,-4 -6,-8 -12,-7zm-120 12c-10,1 -19,11 -17,24 2,10 12,19 25,17 10,-2 18,-12 16,-24 -1,-11 -11,-19 -24,-17z"/>
 </g>
</svg>
