<?xml version="1.0" encoding="UTF-8"?>
<!DOCTYPE svg PUBLIC "-//W3C//DTD SVG 1.1//EN" "http://www.w3.org/Graphics/SVG/1.1/DTD/svg11.dtd">
<!-- Creator: CorelDRAW X6 -->
<svg xmlns="http://www.w3.org/2000/svg" xml:space="preserve" width="2.54mm" height="2.54mm" version="1.1" style="shape-rendering:geometricPrecision; text-rendering:geometricPrecision; image-rendering:optimizeQuality; fill-rule:evenodd; clip-rule:evenodd"
viewBox="0 0 254 254"
 xmlns:xlink="http://www.w3.org/1999/xlink">
 <defs>
  <style type="text/css">
   <![CDATA[
    .fil0 {fill:#CC244C}
   ]]>
  </style>
 </defs>
 <g id="Слой_x0020_1">
  <metadata id="CorelCorpID_0Corel-Layer"/>
  <path class="fil0" d="M127 231l0 -1 0 1 0 -1c7,-3 94,-48 115,-101 22,-54 -8,-88 -29,-99 -18,-10 -73,-12 -86,28 -13,-40 -68,-38 -86,-28 -21,11 -51,45 -29,99 21,53 108,98 115,101l0 1zm-56 -109l22 0 20 38c0,0 9,5 12,-5 3,-10 11,-51 11,-51l17 37c6,9 9,-21 34,-21l8 0 11 0c4,0 7,-2 7,-6l0 0c0,-3 -3,-6 -7,-6l-11 0 -8 0c-21,0 -17,0 -31,15l-17 -41c0,0 -5,-10 -11,6 -6,16 -10,50 -10,50l-12 -21c0,0 -5,-7 -15,-7l-22 0 -1 0 0 0 -1 0 -1 0 0 0 -1 0 -1 0 0 0 -1 0 -1 0 0 0 -1 0 0 0 -1 0 -1 0 0 0 -1 0 0 0 0 0 -1 0 0 0 -1 0 0 0 0 0 0 0 -1 0 0 0 0 0 0 0 0 0 0 0 0 0 0 0 0 0 -6 0c-3,0 -6,3 -6,6l0 0c0,3 3,6 6,6l20 0c1,0 1,0 2,0z"/>
 </g>
</svg>
