<?xml version="1.0" encoding="UTF-8"?>
<!DOCTYPE svg PUBLIC "-//W3C//DTD SVG 1.1//EN" "http://www.w3.org/Graphics/SVG/1.1/DTD/svg11.dtd">
<!-- Creator: CorelDRAW X6 -->
<svg xmlns="http://www.w3.org/2000/svg" xml:space="preserve" width="2.54mm" height="2.54mm" version="1.1" style="shape-rendering:geometricPrecision; text-rendering:geometricPrecision; image-rendering:optimizeQuality; fill-rule:evenodd; clip-rule:evenodd"
viewBox="0 0 254 254"
 xmlns:xlink="http://www.w3.org/1999/xlink">
 <defs>
  <style type="text/css">
   <![CDATA[
    .fil0 {fill:#ADADAD}
   ]]>
  </style>
 </defs>
 <g id="Слой_x0020_1">
  <metadata id="CorelCorpID_0Corel-Layer"/>
  <path class="fil0" d="M127 17l0 0c-1,0 -2,0 -4,0 -88,0 -82,39 -82,39l10 42c15,5 21,20 23,36l0 0 53 0 0 0 53 0 0 0c2,-16 8,-31 23,-36l10 -42c0,0 6,-39 -82,-39 -2,0 -3,0 -4,0zm0 64l0 0 0 0 0 0 0 0 0 0c-4,0 -7,-3 -7,-7 0,-3 3,-6 7,-7l0 0 0 0 0 0 0 0 0 0c4,1 7,4 7,7 0,4 -3,7 -7,7zm0 61l52 0c0,0 -1,-3 -1,5l1 0c0,2 0,-7 -1,4 0,12 -25,14 -25,14l-26 0 0 0 -26 0c0,0 -25,-2 -25,-14 -1,-11 -1,-2 -1,-4l1 0c0,-8 -1,-5 -1,-5l52 0 0 0zm0 32l26 0c23,0 34,-12 36,-34l0 0 0 -5c0,-1 0,-2 0,-3 0,-18 12,-23 19,-25 2,0 4,0 6,0l0 0c7,-1 16,0 22,1 0,0 1,1 1,1 8,2 13,8 13,16l0 13c0,9 -8,16 -17,16l-13 0 0 37c0,18 -18,24 -18,24l-6 22 -15 0 -10 -24 -32 0 -12 0 0 0 -12 0 -32 0 -10 24 -15 0 -6 -22c0,0 -18,-6 -18,-24l0 -37 -13 0c-9,0 -17,-7 -17,-16l0 -13c0,-8 5,-14 13,-16 0,0 1,-1 1,-1 6,-1 15,-2 22,-1l0 0c2,0 4,0 6,0 7,2 19,7 19,25 0,1 0,2 0,3l0 5 0 0c2,22 13,34 36,34l26 0 0 0zm18 -87c-4,0 -7,3 -7,7 0,4 3,7 7,7 4,0 7,-3 7,-7 0,-4 -3,-7 -7,-7zm0 -40c-4,0 -7,3 -7,7 0,3 3,7 7,7 4,0 7,-4 7,-7 0,-4 -3,-7 -7,-7zm22 20c-4,0 -7,4 -7,7 0,4 3,7 7,7 4,0 7,-3 7,-7 0,-3 -3,-7 -7,-7zm-58 20c4,0 7,3 7,7 0,4 -3,7 -7,7 -4,0 -7,-3 -7,-7 0,-4 3,-7 7,-7zm0 -40c4,0 7,3 7,7 0,3 -3,7 -7,7 -4,0 -7,-4 -7,-7 0,-4 3,-7 7,-7zm-22 20c4,0 7,4 7,7 0,4 -3,7 -7,7 -4,0 -7,-3 -7,-7 0,-3 3,-7 7,-7z"/>
 </g>
</svg>
