<?xml version="1.0" encoding="UTF-8"?>
<!DOCTYPE svg PUBLIC "-//W3C//DTD SVG 1.1//EN" "http://www.w3.org/Graphics/SVG/1.1/DTD/svg11.dtd">
<!-- Creator: CorelDRAW X6 -->
<svg xmlns="http://www.w3.org/2000/svg" xml:space="preserve" width="2.54mm" height="2.54mm" version="1.1" style="shape-rendering:geometricPrecision; text-rendering:geometricPrecision; image-rendering:optimizeQuality; fill-rule:evenodd; clip-rule:evenodd"
viewBox="0 0 254 254"
 xmlns:xlink="http://www.w3.org/1999/xlink">
 <defs>
  <style type="text/css">
   <![CDATA[
    .fil0 {fill:#ADADAD}
   ]]>
  </style>
 </defs>
 <g id="Слой_x0020_1">
  <metadata id="CorelCorpID_0Corel-Layer"/>
  <path class="fil0" d="M160 62l10 -19c0,0 12,2 18,-14 6,-16 -4,-24 -16,-28 -12,-3 -26,2 -26,18 0,16 2,18 2,18l-7 15c-12,-5 -25,-7 -38,-7 -57,0 -102,47 -102,104 0,58 45,105 102,105 57,0 103,-47 103,-105 0,-19 -5,-36 -14,-51l31 -31c0,0 18,3 26,-8 8,-12 6,-26 -6,-36 -12,-10 -32,-4 -34,12 -2,16 -2,18 -2,18l-26 28c-6,-7 -13,-13 -21,-19zm-57 86c11,9 26,23 36,40 6,9 11,18 15,27 -10,9 -22,15 -36,17 -5,-18 -14,-50 -15,-83l0 -1zm62 57l1 -8c-2,-4 -4,-7 -6,-10 -22,-31 -48,-53 -56,-60 0,-9 2,-18 3,-27 15,9 36,25 53,45 8,10 15,21 21,31 -3,11 -9,20 -16,29zm21 -61c-1,-1 -2,-2 -3,-3 -28,-31 -60,-53 -71,-60 1,-6 3,-11 4,-15 38,6 67,39 70,78zm-93 89c-6,-16 -12,-39 -12,-70 0,-43 9,-81 13,-97 -9,1 -17,3 -26,7 -5,16 -11,44 -10,73 1,35 11,69 16,82 6,2 12,4 19,5zm-49 -24c-3,-14 -6,-31 -6,-51 0,-26 4,-51 7,-69 -15,15 -25,37 -25,60 0,23 10,44 24,60z"/>
 </g>
</svg>
