<?xml version="1.0" encoding="UTF-8"?>
<!DOCTYPE svg PUBLIC "-//W3C//DTD SVG 1.1//EN" "http://www.w3.org/Graphics/SVG/1.1/DTD/svg11.dtd">
<!-- Creator: CorelDRAW X6 -->
<svg xmlns="http://www.w3.org/2000/svg" xml:space="preserve" width="2.54mm" height="2.54mm" version="1.1" style="shape-rendering:geometricPrecision; text-rendering:geometricPrecision; image-rendering:optimizeQuality; fill-rule:evenodd; clip-rule:evenodd"
viewBox="0 0 254 254"
 xmlns:xlink="http://www.w3.org/1999/xlink">
 <defs>
  <style type="text/css">
   <![CDATA[
    .fil0 {fill:#CC244C;fill-rule:nonzero}
   ]]>
  </style>
 </defs>
 <g id="Слой_x0020_1">
  <metadata id="CorelCorpID_0Corel-Layer"/>
  <path class="fil0" d="M145 194l-29 0 -12 -31 -55 0 -11 31 -30 0 53 -136 30 0 54 136zm-50 -54l-19 -51 -19 51 38 0zm84 -14l-23 -5c2,-9 7,-16 13,-21 7,-5 17,-7 29,-7 12,0 21,1 26,4 6,3 10,6 13,11 2,4 3,12 3,23l0 31c0,8 0,15 1,19 1,4 2,8 5,13l-26 0c-1,-2 -2,-4 -3,-8 0,-1 -1,-2 -1,-3 -4,5 -9,8 -14,10 -5,2 -11,3 -16,3 -10,0 -18,-2 -24,-8 -6,-5 -9,-12 -9,-21 0,-5 1,-10 4,-15 3,-4 6,-7 11,-10 5,-2 12,-4 21,-6 12,-2 21,-4 25,-6l0 -3c0,-5 -1,-9 -3,-11 -3,-2 -8,-3 -15,-3 -4,0 -8,1 -10,3 -3,2 -5,5 -7,10zm35 21c-3,1 -8,2 -16,4 -7,1 -12,3 -14,4 -3,3 -5,6 -5,9 0,4 1,7 4,10 3,3 6,4 11,4 4,0 9,-2 13,-5 3,-2 5,-5 6,-8 1,-3 1,-7 1,-13l0 -5z"/>
 </g>
</svg>
