<?xml version="1.0" encoding="UTF-8"?>
<!DOCTYPE svg PUBLIC "-//W3C//DTD SVG 1.1//EN" "http://www.w3.org/Graphics/SVG/1.1/DTD/svg11.dtd">
<!-- Creator: CorelDRAW X6 -->
<svg xmlns="http://www.w3.org/2000/svg" xml:space="preserve" width="2.54mm" height="2.54mm" version="1.1" style="shape-rendering:geometricPrecision; text-rendering:geometricPrecision; image-rendering:optimizeQuality; fill-rule:evenodd; clip-rule:evenodd"
viewBox="0 0 254 254"
 xmlns:xlink="http://www.w3.org/1999/xlink">
 <defs>
  <style type="text/css">
   <![CDATA[
    .fil0 {fill:#CC244C}
   ]]>
  </style>
 </defs>
 <g id="Слой_x0020_1">
  <metadata id="CorelCorpID_0Corel-Layer"/>
  <path class="fil0" d="M8 239l8 0 35 -42c0,0 13,2 42,-2 19,-3 36,-14 46,-22 10,-1 19,-1 19,-1l-1 -5 -15 -16c0,0 56,-1 78,-29 22,-28 34,-73 34,-73 0,0 -35,-28 -81,-26 -46,1 -62,40 -62,40l-6 -21c0,0 -34,6 -52,37 -18,31 -21,72 -21,72l-12 -4 5 25c0,0 1,12 -2,29l-15 38zm56 -74c4,0 118,-97 118,-97 0,0 -110,63 -118,97z"/>
 </g>
</svg>
