<?xml version="1.0" encoding="UTF-8"?>
<!DOCTYPE svg PUBLIC "-//W3C//DTD SVG 1.1//EN" "http://www.w3.org/Graphics/SVG/1.1/DTD/svg11.dtd">
<!-- Creator: CorelDRAW X6 -->
<svg xmlns="http://www.w3.org/2000/svg" xml:space="preserve" width="2.54mm" height="2.54mm" version="1.1" style="shape-rendering:geometricPrecision; text-rendering:geometricPrecision; image-rendering:optimizeQuality; fill-rule:evenodd; clip-rule:evenodd"
viewBox="0 0 254 254"
 xmlns:xlink="http://www.w3.org/1999/xlink">
 <defs>
  <style type="text/css">
   <![CDATA[
    .fil0 {fill:#ADADAD}
   ]]>
  </style>
 </defs>
 <g id="Слой_x0020_1">
  <metadata id="CorelCorpID_0Corel-Layer"/>
  <path class="fil0" d="M140 99l69 0c2,0 4,2 4,5l0 140c0,2 -2,4 -4,4l-69 0c-2,0 -4,-2 -4,-4l0 -140c0,-3 2,-5 4,-5zm-84 -52l0 0c0,-6 6,-11 13,-19 8,-10 18,-25 26,-24 8,2 10,19 10,19l0 64c-37,0 -6,0 -30,0l-19 0 0 0 0 -40zm10 203l31 0 9 0c0,0 16,-2 16,-20l0 -62 -81 0 0 62c0,18 15,20 15,20l10 0zm54 -90l-8 -21 -62 0 -7 21 77 0zm-9 -28l0 -20c0,0 1,-16 -13,-16 -6,0 -13,0 -19,0l-1 0 0 0 0 0 0 0 0 0 0 0 0 0 -1 0 0 0 0 0 0 0 0 0 0 0 -1 0 0 0 0 0 0 0 0 0 0 0 0 0 0 0 0 0 -1 0 0 0 0 0 0 0 0 0 0 0 0 0 0 0 0 0 0 0 -11 0c-14,0 -12,16 -12,16l0 20 59 0zm51 74l0 0c3,0 6,3 6,6l0 7c0,4 -3,7 -6,7l0 0c-3,0 -6,-3 -6,-7l0 -7c0,-3 3,-6 6,-6zm0 -59l0 0c3,0 6,3 6,6l0 39c0,4 -3,7 -6,7l0 0c-3,0 -6,-3 -6,-7l0 -39c0,-3 3,-6 6,-6z"/>
 </g>
</svg>
