<?xml version="1.0" encoding="UTF-8"?>
<!DOCTYPE svg PUBLIC "-//W3C//DTD SVG 1.1//EN" "http://www.w3.org/Graphics/SVG/1.1/DTD/svg11.dtd">
<!-- Creator: CorelDRAW X6 -->
<svg xmlns="http://www.w3.org/2000/svg" xml:space="preserve" width="2.54mm" height="2.54mm" version="1.1" style="shape-rendering:geometricPrecision; text-rendering:geometricPrecision; image-rendering:optimizeQuality; fill-rule:evenodd; clip-rule:evenodd"
viewBox="0 0 254 254"
 xmlns:xlink="http://www.w3.org/1999/xlink">
 <defs>
  <style type="text/css">
   <![CDATA[
    .fil0 {fill:#CC244C}
   ]]>
  </style>
 </defs>
 <g id="Слой_x0020_1">
  <metadata id="CorelCorpID_0Corel-Layer"/>
  <path class="fil0" d="M32 135c1,1 0,69 0,80 0,7 -1,22 2,26 4,7 14,5 17,-1 1,-3 2,-21 2,-26l3 -38c0,-4 2,-8 6,-6 4,2 3,6 4,10 1,12 1,27 2,38 1,7 0,20 4,24 5,6 15,4 17,-4 1,-3 0,-71 0,-81 0,-8 0,-19 0,-27 3,2 4,7 7,9l20 15c11,8 11,9 22,0 3,-2 7,-5 10,-7 4,-3 6,-5 10,-7 3,-3 4,-8 7,-10 0,8 0,43 0,54 0,7 -1,51 0,54 2,7 11,10 17,5 4,-5 3,-17 4,-24 1,-12 1,-26 2,-38 1,-5 0,-9 4,-11 4,-2 6,2 6,6l3 38c0,5 1,22 2,25 3,7 13,9 17,2 3,-4 2,-19 2,-25 0,-12 -1,-80 0,-82l9 35c1,6 3,11 11,10 6,0 9,-6 8,-13 -3,-11 -6,-23 -9,-34 -5,-21 -5,-35 -21,-44 -6,-3 -10,-4 -18,-4 -16,0 -25,-1 -35,8 -8,6 -16,25 -22,32 -1,2 -16,14 -18,15 -2,-1 -17,-13 -18,-14 -5,-7 -14,-27 -21,-33 -11,-9 -19,-8 -36,-8 -8,0 -11,0 -17,4 -13,6 -15,14 -18,26l-13 52c-3,13 10,16 16,11 2,-3 2,-5 3,-8 2,-6 3,-12 4,-17 1,-4 4,-15 5,-17zm159 -126c-10,1 -14,4 -19,9 -17,19 -2,49 24,47 15,-1 27,-14 26,-31 -2,-14 -16,-28 -31,-25zm-135 0c-14,2 -26,15 -23,32 2,15 15,27 33,24 13,-2 26,-16 23,-32 -3,-14 -16,-27 -33,-24z"/>
 </g>
</svg>
