<?xml version="1.0" encoding="UTF-8"?>
<!DOCTYPE svg PUBLIC "-//W3C//DTD SVG 1.1//EN" "http://www.w3.org/Graphics/SVG/1.1/DTD/svg11.dtd">
<!-- Creator: CorelDRAW X6 -->
<svg xmlns="http://www.w3.org/2000/svg" xml:space="preserve" width="2.54mm" height="2.54mm" version="1.1" style="shape-rendering:geometricPrecision; text-rendering:geometricPrecision; image-rendering:optimizeQuality; fill-rule:evenodd; clip-rule:evenodd"
viewBox="0 0 254 254"
 xmlns:xlink="http://www.w3.org/1999/xlink">
 <defs>
  <style type="text/css">
   <![CDATA[
    .fil0 {fill:#CC244C}
   ]]>
  </style>
 </defs>
 <g id="Слой_x0020_1">
  <metadata id="CorelCorpID_0Corel-Layer"/>
  <path class="fil0" d="M254 214l0 16 -254 0 0 -16 127 2 127 -2zm-63 -31l-12 0 0 15 12 0 27 0 12 0 0 -15 -12 0 0 -20 0 -44 12 0 0 -16 -51 0 0 16 12 0 0 44 0 20zm-78 0l-12 0 0 15 12 0 28 0 12 0 0 -15 -12 0 0 -20 0 -44 12 0 0 -16 -52 0 0 16 12 0 0 44 0 20zm-77 0l-12 0 0 15 12 0 28 0 11 0 0 -15 -11 0 0 -20 0 -44 11 0 0 -16 -51 0 0 16 12 0 0 44 0 20zm218 55l0 16 -4 0 -246 0 -4 0 0 -16 254 0zm0 -151l0 0 -254 0 0 0 0 -23 0 0 127 -64 0 0 0 0 127 64 0 0 0 23z"/>
 </g>
</svg>
