<?xml version="1.0" encoding="UTF-8"?>
<!DOCTYPE svg PUBLIC "-//W3C//DTD SVG 1.1//EN" "http://www.w3.org/Graphics/SVG/1.1/DTD/svg11.dtd">
<!-- Creator: CorelDRAW X6 -->
<svg xmlns="http://www.w3.org/2000/svg" xml:space="preserve" width="2.54mm" height="2.54mm" version="1.1" style="shape-rendering:geometricPrecision; text-rendering:geometricPrecision; image-rendering:optimizeQuality; fill-rule:evenodd; clip-rule:evenodd"
viewBox="0 0 254 254"
 xmlns:xlink="http://www.w3.org/1999/xlink">
 <defs>
  <style type="text/css">
   <![CDATA[
    .fil0 {fill:#CC244C}
   ]]>
  </style>
 </defs>
 <g id="Слой_x0020_1">
  <metadata id="CorelCorpID_0Corel-Layer"/>
  <path class="fil0" d="M233 4l0 30c0,0 -5,27 -30,27 -24,0 -32,0 -32,0 0,0 -13,3 -13,22 0,18 0,68 0,87 0,18 -24,42 -46,42 -22,0 -2,0 -2,0 -1,0 -1,0 -2,0 -27,0 -49,-22 -49,-49 0,-26 22,-48 49,-48 12,0 22,4 31,11l0 -84c0,0 -3,-38 27,-38 4,0 8,0 12,0l55 0zm-193 160c0,-41 32,-64 70,-68l0 -18c-41,3 -79,27 -86,70 -3,16 -3,16 -3,16l19 0zm139 -1c0,41 -32,64 -70,68l0 19c41,-4 79,-28 86,-70 3,-17 3,-17 3,-17l-19 0zm-23 -120c0,0 -1,-18 14,-18 15,0 44,0 44,0l0 6c0,0 0,11 -11,11 -10,0 -47,1 -47,1zm-48 108c7,0 13,5 13,12 0,7 -6,13 -13,13 -7,0 -13,-6 -13,-13 0,-7 6,-12 13,-12zm0 -13c14,0 25,11 25,25 0,14 -11,26 -25,26 -14,0 -25,-12 -25,-26 0,-14 11,-25 25,-25z"/>
 </g>
</svg>
