<?xml version="1.0" encoding="UTF-8"?>
<!DOCTYPE svg PUBLIC "-//W3C//DTD SVG 1.1//EN" "http://www.w3.org/Graphics/SVG/1.1/DTD/svg11.dtd">
<!-- Creator: CorelDRAW X6 -->
<svg xmlns="http://www.w3.org/2000/svg" xml:space="preserve" width="2.54mm" height="2.54mm" version="1.1" style="shape-rendering:geometricPrecision; text-rendering:geometricPrecision; image-rendering:optimizeQuality; fill-rule:evenodd; clip-rule:evenodd"
viewBox="0 0 254 254"
 xmlns:xlink="http://www.w3.org/1999/xlink">
 <defs>
  <style type="text/css">
   <![CDATA[
    .fil0 {fill:#CC244C}
   ]]>
  </style>
 </defs>
 <g id="Слой_x0020_1">
  <metadata id="CorelCorpID_0Corel-Layer"/>
  <path class="fil0" d="M144 226c27,0 25,-28 25,-28 0,0 -3,-28 -20,-41 -17,-13 -45,-15 -41,-29 5,-14 36,-21 24,-64 -9,-34 -34,-36 -43,-35 -10,-1 -35,1 -44,35 -12,43 19,50 24,64 4,14 -24,16 -41,29 -17,13 -19,41 -19,41 0,0 -3,28 24,28 38,0 73,0 111,0zm65 -166l0 0c-2,-2 -5,-3 -8,-3 -3,0 -5,1 -8,3l0 0c0,1 -1,2 -1,3l-32 32c-4,4 -4,10 0,14l0 0c4,4 10,4 14,0l17 -16 0 63c0,5 5,10 10,10l0 0c6,0 11,-5 11,-10l0 -63 16 16c4,4 10,4 15,0l0 0c4,-4 4,-10 0,-14l-32 -32c-1,-1 -2,-2 -2,-3z"/>
 </g>
</svg>
