<?xml version="1.0" encoding="UTF-8"?>
<!DOCTYPE svg PUBLIC "-//W3C//DTD SVG 1.1//EN" "http://www.w3.org/Graphics/SVG/1.1/DTD/svg11.dtd">
<!-- Creator: CorelDRAW X6 -->
<svg xmlns="http://www.w3.org/2000/svg" xml:space="preserve" width="2.54mm" height="2.54mm" version="1.1" style="shape-rendering:geometricPrecision; text-rendering:geometricPrecision; image-rendering:optimizeQuality; fill-rule:evenodd; clip-rule:evenodd"
viewBox="0 0 254 254"
 xmlns:xlink="http://www.w3.org/1999/xlink">
 <defs>
  <style type="text/css">
   <![CDATA[
    .fil0 {fill:#D9DADA}
   ]]>
  </style>
 </defs>
 <g id="Слой_x0020_1">
  <metadata id="CorelCorpID_0Corel-Layer"/>
  <path class="fil0" d="M127 50c-16,-18 -40,-28 -65,-24 -39,6 -66,44 -60,84 7,52 77,97 124,118l0 1c1,0 1,-1 1,-1 0,0 0,1 1,1l0 -1c47,-21 117,-66 124,-118 6,-40 -21,-78 -60,-84 -25,-4 -49,6 -65,24l0 0zm21 102c0,6 4,12 7,12 4,1 22,2 22,-14 -1,-16 -8,-18 -10,-18 -2,1 -5,-4 -2,-9 3,-4 20,6 20,22 0,17 -11,29 -27,30 -16,0 -19,0 -19,0l-34 0 -9 0c0,0 -1,-4 1,-7 2,-3 10,-1 10,-1 0,0 -3,-10 1,-14 4,-4 10,-1 10,-1 0,0 1,-7 -5,-13 -6,-6 -12,-12 -13,0 -2,12 -5,21 -7,25 -3,4 -9,11 -11,11 -2,0 -12,0 -12,0 0,0 -2,-5 1,-7 2,-2 8,-1 8,-1 0,0 9,-11 10,-18 1,-8 3,-24 5,-29 1,-5 -1,-10 -3,-10 -1,0 -2,6 -6,7 -4,1 -5,-3 -6,-4 -1,-2 -6,-3 -5,-7 1,-4 5,-12 5,-12 0,0 0,-11 -2,-14 -2,-4 -6,-10 -6,-10 0,0 -1,-2 5,-1 6,1 22,8 23,10 0,0 7,8 19,17 13,10 31,24 30,56l0 0z"/>
 </g>
</svg>
