<?xml version="1.0" encoding="UTF-8"?>
<!DOCTYPE svg PUBLIC "-//W3C//DTD SVG 1.1//EN" "http://www.w3.org/Graphics/SVG/1.1/DTD/svg11.dtd">
<!-- Creator: CorelDRAW X6 -->
<svg xmlns="http://www.w3.org/2000/svg" xml:space="preserve" width="2.54mm" height="2.54mm" version="1.1" style="shape-rendering:geometricPrecision; text-rendering:geometricPrecision; image-rendering:optimizeQuality; fill-rule:evenodd; clip-rule:evenodd"
viewBox="0 0 254 254"
 xmlns:xlink="http://www.w3.org/1999/xlink">
 <defs>
  <style type="text/css">
   <![CDATA[
    .fil0 {fill:#ADADAD}
   ]]>
  </style>
 </defs>
 <g id="Слой_x0020_1">
  <metadata id="CorelCorpID_0Corel-Layer"/>
  <path class="fil0" d="M86 35l82 0 54 0c15,0 28,12 28,28l0 128c0,16 -13,28 -28,28l-54 0 -82 0 -54 0c-15,0 -28,-12 -28,-28l0 -128c0,-16 13,-28 28,-28l54 0zm103 156l27 0 -51 -85 -15 26 0 0c0,0 -26,36 -42,59l9 0 72 0zm-119 -126c-5,28 6,41 35,41 -7,16 -38,20 -49,5 -12,-18 -6,-38 14,-46zm-16 126c12,-15 28,-41 28,-41l25 23 -12 18 -41 0zm32 12l15 0 96 0 13 0c13,0 23,-10 23,-23l0 -106c0,-13 -10,-23 -23,-23l-42 0 -82 0 -42 0c-13,0 -23,10 -23,23l0 106c0,13 10,23 22,23l0 0 1 0 42 0z"/>
 </g>
</svg>
