<?xml version="1.0" encoding="UTF-8"?>
<!DOCTYPE svg PUBLIC "-//W3C//DTD SVG 1.1//EN" "http://www.w3.org/Graphics/SVG/1.1/DTD/svg11.dtd">
<!-- Creator: CorelDRAW X6 -->
<svg xmlns="http://www.w3.org/2000/svg" xml:space="preserve" width="2.54mm" height="2.54mm" version="1.1" style="shape-rendering:geometricPrecision; text-rendering:geometricPrecision; image-rendering:optimizeQuality; fill-rule:evenodd; clip-rule:evenodd"
viewBox="0 0 254 254"
 xmlns:xlink="http://www.w3.org/1999/xlink">
 <defs>
  <style type="text/css">
   <![CDATA[
    .fil0 {fill:#ADADAD}
   ]]>
  </style>
 </defs>
 <g id="Слой_x0020_1">
  <metadata id="CorelCorpID_0Corel-Layer"/>
  <path class="fil0" d="M132 34l-12 0 -18 0 -33 30 -45 0c-9,0 -17,7 -17,17l0 116c0,9 8,17 17,17l96 0 12 0 95 0c10,0 17,-8 17,-17l0 -116c0,-10 -7,-17 -17,-17l-45 0 -33 -30 -17 0zm-30 34l50 0 -17 -17 -16 0 -17 17zm30 118l0 -1c-2,1 -4,1 -6,1l0 0c-2,0 -4,0 -6,-1l0 1c-22,-3 -39,-22 -39,-45 0,-22 17,-41 39,-44l0 1c2,-1 4,-1 6,-1l0 0c2,0 4,0 6,1l0 -1c22,3 39,22 39,44 0,23 -17,42 -39,45zm-6 -76l0 0c18,0 32,14 32,31 0,18 -14,32 -32,32l0 0 -1 0c-17,0 -31,-14 -31,-32 0,-17 14,-31 31,-31l1 0z"/>
 </g>
</svg>
