<?xml version="1.0" encoding="UTF-8"?>
<!DOCTYPE svg PUBLIC "-//W3C//DTD SVG 1.1//EN" "http://www.w3.org/Graphics/SVG/1.1/DTD/svg11.dtd">
<!-- Creator: CorelDRAW X6 -->
<svg xmlns="http://www.w3.org/2000/svg" xml:space="preserve" width="2.54mm" height="2.54mm" version="1.1" style="shape-rendering:geometricPrecision; text-rendering:geometricPrecision; image-rendering:optimizeQuality; fill-rule:evenodd; clip-rule:evenodd"
viewBox="0 0 254 254"
 xmlns:xlink="http://www.w3.org/1999/xlink">
 <defs>
  <style type="text/css">
   <![CDATA[
    .fil0 {fill:#ADADAD}
   ]]>
  </style>
 </defs>
 <g id="Слой_x0020_1">
  <metadata id="CorelCorpID_0Corel-Layer"/>
  <path class="fil0" d="M167 213c0,-26 0,-31 0,-31l15 0 0 -24 -49 0 0 -14c8,2 22,4 31,-6 13,-15 18,-31 18,-31 0,0 -35,-6 -49,16l0 -33c9,-2 24,-8 24,-30 0,-31 -31,-57 -31,-57 0,0 -53,67 -4,86l0 27c-13,-25 -50,-18 -50,-18 0,0 5,16 18,31 9,11 25,7 32,5l0 24 -9 0 0 0 -41 0 0 24 15 0c0,0 0,5 0,31 0,13 6,22 15,28l0 10 50 0 0 -11c9,-5 15,-15 15,-27z"/>
 </g>
</svg>
