<?xml version="1.0" encoding="UTF-8"?>
<!DOCTYPE svg PUBLIC "-//W3C//DTD SVG 1.1//EN" "http://www.w3.org/Graphics/SVG/1.1/DTD/svg11.dtd">
<!-- Creator: CorelDRAW X6 -->
<svg xmlns="http://www.w3.org/2000/svg" xml:space="preserve" width="2.54mm" height="2.54mm" version="1.1" style="shape-rendering:geometricPrecision; text-rendering:geometricPrecision; image-rendering:optimizeQuality; fill-rule:evenodd; clip-rule:evenodd"
viewBox="0 0 254 254"
 xmlns:xlink="http://www.w3.org/1999/xlink">
 <defs>
  <style type="text/css">
   <![CDATA[
    .fil0 {fill:#ADADAD}
   ]]>
  </style>
 </defs>
 <g id="Слой_x0020_1">
  <metadata id="CorelCorpID_0Corel-Layer"/>
  <path class="fil0" d="M123 246l73 0c0,0 -14,-45 -5,-72 10,-27 35,-36 35,-73 0,-36 -15,-93 -85,-93 -70,0 -86,43 -86,62 0,20 -15,41 -22,51 -7,10 -9,12 4,19 13,7 14,9 11,19 -2,9 7,15 5,25 -3,10 1,18 21,21 19,3 43,-3 49,41zm43 -178l0 7 0 14c0,0 1,-1 2,-1 3,-3 6,-5 11,-5 8,0 14,7 14,15 0,8 -6,15 -14,15 -3,0 -6,-1 -8,-2 -3,-1 -5,-3 -5,-3l0 23 -4 0 -2 0 -12 0c0,-1 0,-1 0,-2 2,-2 2,-4 2,-7 0,-8 -6,-15 -14,-15 -8,0 -15,7 -15,15 0,3 1,6 3,9l-12 0 -2 0 -4 0 0 -23c0,0 -2,1 -3,2 -3,2 -6,3 -9,3 -8,0 -15,-7 -15,-15 0,-8 7,-15 15,-15 5,0 9,2 12,6l0 -13 0 -8 0 -3 21 0c0,0 -1,0 -1,-1 -3,-3 -5,-7 -5,-11 0,-8 7,-15 15,-15 8,0 14,7 14,15 0,2 0,5 -2,7 0,3 -2,5 -2,5l20 0 0 3z"/>
 </g>
</svg>
