<?xml version="1.0" encoding="UTF-8"?>
<!DOCTYPE svg PUBLIC "-//W3C//DTD SVG 1.1//EN" "http://www.w3.org/Graphics/SVG/1.1/DTD/svg11.dtd">
<!-- Creator: CorelDRAW X6 -->
<svg xmlns="http://www.w3.org/2000/svg" xml:space="preserve" width="2.54mm" height="2.54mm" version="1.1" style="shape-rendering:geometricPrecision; text-rendering:geometricPrecision; image-rendering:optimizeQuality; fill-rule:evenodd; clip-rule:evenodd"
viewBox="0 0 254 254"
 xmlns:xlink="http://www.w3.org/1999/xlink">
 <defs>
  <style type="text/css">
   <![CDATA[
    .fil0 {fill:#ADADAD}
   ]]>
  </style>
 </defs>
 <g id="Слой_x0020_1">
  <metadata id="CorelCorpID_0Corel-Layer"/>
  <path class="fil0" d="M221 11l-13 0 -142 0c-2,0 -3,0 -4,0l-2 0 0 0c-22,2 -27,25 -27,25 0,0 0,146 0,180 0,33 35,27 35,27l129 0 11 0 13 0 0 -13 -13 0 0 -30 13 0 0 -189zm-24 219l-127 0c-8,0 -27,1 -23,-16 3,-10 10,-13 14,-14l5 0 131 0 0 30zm-131 -204l142 0 0 160 -11 0 -131 0 0 -160zm27 29l88 0 0 15 -88 0 0 -15zm0 59l27 0 0 15 -27 0 0 -15zm0 -30l58 0 0 15 -58 0 0 -15z"/>
 </g>
</svg>
