<?xml version="1.0" encoding="UTF-8"?>
<!DOCTYPE svg PUBLIC "-//W3C//DTD SVG 1.1//EN" "http://www.w3.org/Graphics/SVG/1.1/DTD/svg11.dtd">
<!-- Creator: CorelDRAW X6 -->
<svg xmlns="http://www.w3.org/2000/svg" xml:space="preserve" width="2.54mm" height="2.54mm" version="1.1" style="shape-rendering:geometricPrecision; text-rendering:geometricPrecision; image-rendering:optimizeQuality; fill-rule:evenodd; clip-rule:evenodd"
viewBox="0 0 254 254"
 xmlns:xlink="http://www.w3.org/1999/xlink">
 <defs>
  <style type="text/css">
   <![CDATA[
    .fil0 {fill:#CC244C}
   ]]>
  </style>
 </defs>
 <g id="Слой_x0020_1">
  <metadata id="CorelCorpID_0Corel-Layer"/>
  <path class="fil0" d="M38 249l179 0 12 0 0 -27c0,-5 -5,-10 -11,-10l-9 0 -30 0 0 -2 0 -16c50,-17 45,-96 -2,-123 -14,-8 -38,-12 -48,-14l0 -10 -9 -8 0 -17 9 0 0 -17 -54 0 0 15 11 0 0 19 -11 13 0 48 13 8 0 26 29 0 0 -26 41 0c23,21 9,53 -2,53l-96 0 0 17 69 0 0 9 0 25 -71 0c0,0 -2,0 -4,0l-18 0c-6,0 -11,5 -11,10l0 27 13 0 0 0z"/>
 </g>
</svg>
