<?xml version="1.0" encoding="UTF-8"?>
<!DOCTYPE svg PUBLIC "-//W3C//DTD SVG 1.1//EN" "http://www.w3.org/Graphics/SVG/1.1/DTD/svg11.dtd">
<!-- Creator: CorelDRAW X6 -->
<svg xmlns="http://www.w3.org/2000/svg" xml:space="preserve" width="2.54mm" height="2.54mm" version="1.1" style="shape-rendering:geometricPrecision; text-rendering:geometricPrecision; image-rendering:optimizeQuality; fill-rule:evenodd; clip-rule:evenodd"
viewBox="0 0 254 254"
 xmlns:xlink="http://www.w3.org/1999/xlink">
 <defs>
  <style type="text/css">
   <![CDATA[
    .fil0 {fill:#CC244C}
   ]]>
  </style>
 </defs>
 <g id="Слой_x0020_1">
  <metadata id="CorelCorpID_0Corel-Layer"/>
  <path class="fil0" d="M102 49c16,0 31,6 42,16l49 -51 -32 0c-4,0 -7,-3 -7,-6l0 0c0,-4 3,-7 6,-7 16,0 33,-2 48,-2l0 0c2,0 4,1 5,2 2,2 3,3 3,5l0 0c0,15 -1,32 0,48 0,4 -3,7 -7,7l0 0c-3,0 -6,-3 -6,-7l-1 -31 -49 51c8,11 13,24 13,39 0,34 -26,61 -58,64l0 34 3 0 19 0c3,0 7,3 7,7l0 0c0,4 -4,7 -7,7l-19 0 -3 0 0 24c0,3 -3,6 -7,6l0 0c-4,0 -7,-3 -7,-6l0 -24 -3 0 -19 0c-4,0 -7,-3 -7,-7l0 0c0,-4 3,-7 7,-7l19 0 3 0 0 -34c-31,-4 -56,-31 -56,-64 0,-35 29,-64 64,-64zm-16 41c7,0 12,4 16,9 4,-5 9,-9 16,-9 11,0 20,9 20,20 0,5 -3,10 -6,14 -1,1 -2,1 -3,2l-28 23 -25 -22c-2,-2 -4,-3 -5,-5l0 0c-3,-3 -5,-7 -5,-12 0,-11 9,-20 20,-20zm8 73l14 0 0 1c25,-3 45,-25 45,-51 0,-28 -23,-51 -51,-51 -28,0 -51,23 -51,51 0,26 19,47 43,50z"/>
 </g>
</svg>
