<?xml version="1.0" encoding="UTF-8"?>
<!DOCTYPE svg PUBLIC "-//W3C//DTD SVG 1.1//EN" "http://www.w3.org/Graphics/SVG/1.1/DTD/svg11.dtd">
<!-- Creator: CorelDRAW X6 -->
<svg xmlns="http://www.w3.org/2000/svg" xml:space="preserve" width="2.54mm" height="2.54mm" version="1.1" style="shape-rendering:geometricPrecision; text-rendering:geometricPrecision; image-rendering:optimizeQuality; fill-rule:evenodd; clip-rule:evenodd"
viewBox="0 0 254 254"
 xmlns:xlink="http://www.w3.org/1999/xlink">
 <defs>
  <style type="text/css">
   <![CDATA[
    .fil0 {fill:#ADADAD}
   ]]>
  </style>
 </defs>
 <g id="Слой_x0020_1">
  <metadata id="CorelCorpID_0Corel-Layer"/>
  <path class="fil0" d="M54 201l132 0 3 0 -13 16 0 22c0,0 -3,8 -10,10 -5,1 -29,1 -46,0 -17,1 -41,1 -46,0 -7,-2 -9,-10 -9,-10l0 -22 -14 -16 3 0zm64 -145l0 0c4,0 6,2 6,5l0 21c0,3 -2,5 -6,5l0 0c-3,0 -5,-2 -5,-5l0 -21c0,-3 2,-5 5,-5zm52 22l0 0c3,0 6,3 6,6l0 20c0,3 -3,6 -6,6l0 0c-3,0 -6,-3 -6,-6l0 -20c0,-3 3,-6 6,-6zm-26 -17l0 0c3,0 6,2 6,5l0 21c0,3 -3,5 -6,5l0 0c-3,0 -5,-2 -5,-5l0 -21c0,-3 2,-5 5,-5zm-51 0l0 0c3,0 5,2 5,5l0 21c0,3 -2,5 -5,5l0 0c-4,0 -6,-2 -6,-5l0 -21c0,-3 2,-5 6,-5zm-26 17l0 0c3,0 5,3 5,6l0 20c0,3 -2,6 -5,6l0 0c-4,0 -6,-3 -6,-6l0 -20c0,-3 2,-6 6,-6zm52 76l66 0c0,0 1,-12 -13,-18 -8,-3 -19,-6 -26,-9 -1,-14 -12,-26 -27,-26 -14,0 -26,12 -26,26 -8,3 -18,6 -26,9 -15,6 -14,18 -14,18l66 0 0 0 0 0zm82 5l16 0c2,-3 4,-7 6,-11 0,0 3,-9 -6,-12 -10,-2 -21,-4 -21,-17 0,-13 0,-37 -29,-62 -28,-24 -71,-17 -85,-9 -14,8 -24,20 -24,20 0,0 -19,7 -26,-5 -7,-11 0,-21 6,-29 6,-8 30,-30 82,-30 53,0 86,33 101,60 15,26 15,58 10,83 -5,26 -16,42 -16,42l0 0c-5,8 -21,8 -21,8 -52,0 -103,1 -155,1 -11,0 -19,-9 -19,-19l0 -1c0,-9 7,-17 16,-19l-1 0 4 0 0 0 1 0 2 0 1 0 2 0 2 0 2 0 2 0 2 0 3 0 2 0 3 0 3 0 3 0 3 0 3 0 3 0 3 0 3 0 3 0 3 0 109 0c1,0 3,0 4,0z"/>
 </g>
</svg>
