<?xml version="1.0" encoding="UTF-8"?>
<!DOCTYPE svg PUBLIC "-//W3C//DTD SVG 1.1//EN" "http://www.w3.org/Graphics/SVG/1.1/DTD/svg11.dtd">
<!-- Creator: CorelDRAW X6 -->
<svg xmlns="http://www.w3.org/2000/svg" xml:space="preserve" width="2.54mm" height="2.54mm" version="1.1" style="shape-rendering:geometricPrecision; text-rendering:geometricPrecision; image-rendering:optimizeQuality; fill-rule:evenodd; clip-rule:evenodd"
viewBox="0 0 254 254"
 xmlns:xlink="http://www.w3.org/1999/xlink">
 <defs>
  <style type="text/css">
   <![CDATA[
    .fil0 {fill:#ADADAD}
   ]]>
  </style>
 </defs>
 <g id="Слой_x0020_1">
  <metadata id="CorelCorpID_0Corel-Layer"/>
  <path class="fil0" d="M40 146l0 -78 88 0 -35 -28 32 -32 -85 0 -10 0 0 134 -28 32 66 0 -28 -28zm144 -29c36,0 64,29 64,65 0,36 -29,64 -64,64 -36,0 -65,-29 -65,-64 0,-36 29,-65 65,-65zm9 16c13,3 24,10 31,20l-2 11 -17 9 0 0 -19 -16 1 -22 6 -2zm34 25c3,5 5,10 5,16l-6 -8 1 -8zm6 24l0 0c0,12 -5,24 -13,33l-13 2 -10 -19 9 -18 0 0 18 -9 9 11zm-19 38c-3,3 -7,5 -11,7l2 -5 9 -2zm-16 9c-5,1 -9,2 -14,2 -5,0 -9,-1 -14,-2l-4 -11 8 -14 0 -1 20 0 8 15 -2 4 -2 7zm-33 -2c-4,-2 -8,-4 -11,-7l8 2 3 5zm-18 -12c-8,-9 -12,-21 -12,-33l0 -1 9 -10 17 9 0 0 10 18 -11 19 -13 -2zm-12 -42c1,-5 3,-10 5,-14l1 7 0 0 -6 7zm8 -19c8,-11 19,-18 31,-21l6 2 1 22 -19 16 0 0 -17 -9 -2 -10zm21 23l11 21 18 0 11 -21 -20 -18 -20 17 0 1z"/>
 </g>
</svg>
