<?xml version="1.0" encoding="UTF-8"?>
<!DOCTYPE svg PUBLIC "-//W3C//DTD SVG 1.1//EN" "http://www.w3.org/Graphics/SVG/1.1/DTD/svg11.dtd">
<!-- Creator: CorelDRAW X6 -->
<svg xmlns="http://www.w3.org/2000/svg" xml:space="preserve" width="2.54mm" height="2.54mm" version="1.1" style="shape-rendering:geometricPrecision; text-rendering:geometricPrecision; image-rendering:optimizeQuality; fill-rule:evenodd; clip-rule:evenodd"
viewBox="0 0 254 254"
 xmlns:xlink="http://www.w3.org/1999/xlink">
 <defs>
  <style type="text/css">
   <![CDATA[
    .fil0 {fill:#CC244C}
   ]]>
  </style>
 </defs>
 <g id="Слой_x0020_1">
  <metadata id="CorelCorpID_0Corel-Layer"/>
  <path class="fil0" d="M73 70l107 0 0 -34c0,0 -1,-32 29,-32 30,0 29,18 29,23 0,6 -4,18 -15,18 -11,0 -11,-11 -6,-14 6,-2 6,-11 -5,-12 -11,-1 -18,10 -18,18 0,8 0,135 0,135 0,0 -6,11 -14,1l0 -38 -107 0 0 38c0,0 -5,11 -14,1l0 -138c0,0 -1,-32 29,-32 31,0 29,18 29,24 0,5 -4,18 -15,18 -11,0 -11,-11 -5,-14 5,-3 5,-11 -6,-12 -11,-2 -18,9 -18,18l0 32zm154 111c0,0 -14,-3 -25,7 -11,10 -21,12 -33,8 -12,-4 -25,-23 -51,-19 -26,4 -37,21 -52,19 -16,-1 -13,-15 -32,-16 -19,-2 -18,5 -18,11 0,5 8,3 12,3 5,0 11,0 18,8 7,8 25,12 39,4 14,-8 33,-21 45,-15 13,5 32,25 51,20 20,-4 24,-13 35,-15 11,-1 11,-1 11,-1 0,0 7,-8 0,-14zm0 38c0,0 -14,-3 -25,7 -11,10 -21,13 -33,8 -12,-4 -25,-23 -51,-19 -26,4 -37,21 -52,19 -16,-1 -13,-15 -32,-16 -19,-2 -18,5 -18,11 0,5 8,3 12,3 5,0 11,0 18,8 7,8 25,12 39,4 14,-8 33,-21 45,-15 13,5 32,25 51,21 20,-5 24,-14 35,-16 11,-1 11,-1 11,-1 0,0 7,-8 0,-14zm-154 -97l107 0 0 -38 -107 0 0 38z"/>
 </g>
</svg>
