<?xml version="1.0" encoding="UTF-8"?>
<!DOCTYPE svg PUBLIC "-//W3C//DTD SVG 1.1//EN" "http://www.w3.org/Graphics/SVG/1.1/DTD/svg11.dtd">
<!-- Creator: CorelDRAW X6 -->
<svg xmlns="http://www.w3.org/2000/svg" xml:space="preserve" width="2.54mm" height="2.54mm" version="1.1" style="shape-rendering:geometricPrecision; text-rendering:geometricPrecision; image-rendering:optimizeQuality; fill-rule:evenodd; clip-rule:evenodd"
viewBox="0 0 254 254"
 xmlns:xlink="http://www.w3.org/1999/xlink">
 <defs>
  <style type="text/css">
   <![CDATA[
    .fil0 {fill:#CC244C}
   ]]>
  </style>
 </defs>
 <g id="Слой_x0020_1">
  <metadata id="CorelCorpID_0Corel-Layer"/>
  <path class="fil0" d="M83 13l0 0c4,0 8,4 8,8l0 28 72 0 0 -28c0,-4 4,-8 8,-8l0 0c5,0 9,4 9,8l0 28 2 0c13,0 23,10 23,23l0 2 28 0c5,0 8,4 8,9l0 0c0,4 -3,8 -8,8l-28 0 0 72 28 0c5,0 8,4 8,8l0 0c0,5 -3,9 -8,9l-28 0 0 2c0,13 -10,23 -23,23l-2 0 0 28c0,5 -4,8 -9,8l0 0c-4,0 -8,-3 -8,-8l0 -28 -72 0 0 28c0,5 -4,8 -8,8l0 0c-5,0 -9,-3 -9,-8l0 -28 -2 0c-13,0 -23,-10 -23,-23l0 -2 -28 0c-4,0 -8,-4 -8,-9l0 0c0,-4 4,-8 8,-8l28 0 0 -72 -28 0c-4,0 -8,-4 -8,-8l0 0c0,-5 4,-9 8,-9l28 0 0 -2c0,-13 10,-23 23,-23l2 0 0 -28c0,-4 4,-8 9,-8zm27 80l34 0c9,0 17,8 17,17l0 34c0,9 -8,17 -17,17l-34 0c-9,0 -17,-8 -17,-17l0 -34c0,-9 8,-17 17,-17zm-17 -15l68 0c8,0 15,7 15,15l0 68c0,8 -7,15 -15,15l-68 0c-8,0 -15,-7 -15,-15l0 -68c0,-8 7,-15 15,-15z"/>
 </g>
</svg>
