<?xml version="1.0" encoding="UTF-8"?>
<!DOCTYPE svg PUBLIC "-//W3C//DTD SVG 1.1//EN" "http://www.w3.org/Graphics/SVG/1.1/DTD/svg11.dtd">
<!-- Creator: CorelDRAW X6 -->
<svg xmlns="http://www.w3.org/2000/svg" xml:space="preserve" width="2.54mm" height="2.54mm" version="1.1" style="shape-rendering:geometricPrecision; text-rendering:geometricPrecision; image-rendering:optimizeQuality; fill-rule:evenodd; clip-rule:evenodd"
viewBox="0 0 254 254"
 xmlns:xlink="http://www.w3.org/1999/xlink">
 <defs>
  <style type="text/css">
   <![CDATA[
    .fil0 {fill:#ADADAD}
   ]]>
  </style>
 </defs>
 <g id="Слой_x0020_1">
  <metadata id="CorelCorpID_0Corel-Layer"/>
  <path class="fil0" d="M128 186c-7,0 -32,-15 -38,-19 -3,-2 -6,-4 -8,-6 -3,-2 -6,-3 -7,-7 -2,-19 -2,-35 0,-53 1,-5 1,-4 6,-8 3,-2 6,-4 9,-6 5,-4 31,-19 38,-19 13,6 25,11 36,19 4,2 6,4 9,6 5,4 5,3 6,8 2,17 2,34 0,52 0,4 0,4 -2,5 -18,13 -27,19 -49,28zm0 -24c0,0 32,-24 36,-35 4,-10 0,-24 -13,-28 -11,-2 -20,2 -24,7 -4,-5 -13,-9 -24,-7 -12,4 -17,18 -13,28 4,11 37,35 37,35 0,0 -1,5 0,0 0,5 1,0 1,0zm2 69c8,-1 13,-4 18,-8 2,-2 10,-10 11,-13 -6,-2 -11,-2 -17,-4 -5,-1 -11,-3 -15,-4 -4,0 -11,3 -16,4 -5,2 -10,3 -16,4 1,3 10,12 13,15 7,4 13,6 22,6zm-49 -156c3,0 9,-5 12,-7 4,-2 9,-4 13,-7 -3,-2 -15,-3 -19,-3 -2,5 -6,12 -6,17zm68 -13l18 10c2,1 5,3 6,4 0,-5 -4,-14 -6,-18 -3,0 -7,1 -10,1 -1,0 -3,1 -4,1 -1,0 -2,0 -2,0 -1,1 0,0 -1,1 -1,0 -1,0 -1,1zm0 131c4,1 14,3 18,3 2,-5 6,-12 6,-18 -1,1 -15,10 -22,13 0,0 -1,1 -1,1 -1,0 -1,0 -1,1zm-62 3c4,0 16,-2 19,-3 -4,-3 -9,-5 -13,-7 -3,-2 -10,-7 -12,-8 0,5 4,14 6,18zm96 0c15,-1 28,-6 33,-16 6,-9 6,-19 3,-30 -1,-3 -3,-7 -4,-9 -2,0 -9,10 -10,11 -4,4 -8,7 -12,11 -2,2 -3,10 -5,16 -1,6 -4,12 -5,17zm32 -83c4,-12 10,-25 2,-39 -6,-10 -19,-15 -34,-16l5 16c1,3 2,6 2,9 2,11 2,6 14,19 2,1 4,3 5,5 1,1 2,2 3,3 2,3 1,2 3,3zm-21 29c2,-1 11,-12 13,-15 -2,-3 -10,-13 -13,-15 1,11 1,20 0,30zm-147 -15c2,3 11,14 13,15l-1 -16 1 -14c-2,1 -11,12 -13,15zm24 69l-5 -16c-6,-24 1,-9 -16,-28l-9 -10c-2,-2 0,-1 -2,-1 -5,12 -10,25 -2,39 6,10 19,16 34,16zm-31 -83c5,-7 14,-16 21,-22 2,-2 3,-11 5,-17l5 -16c-15,1 -28,6 -34,16 -3,6 -5,12 -4,20 1,4 2,8 3,10 0,2 1,3 1,5 1,2 1,3 3,4zm89 -61c5,-3 25,-6 30,-8 -1,-3 -9,-11 -11,-13 -5,-4 -10,-7 -17,-8 -10,-1 -16,1 -22,6 -4,3 -12,10 -14,15 1,1 14,3 17,4 4,1 13,5 17,4zm-2 -44c-18,1 -30,10 -40,23 -3,4 -6,8 -8,12 -12,2 -19,0 -33,6 -10,4 -16,10 -21,18 -6,9 -7,20 -5,32 0,5 2,10 4,15 1,2 6,13 6,13 0,0 -5,11 -6,13 -6,16 -8,33 1,47 8,13 20,19 36,22 6,1 12,1 18,2 6,9 9,16 20,24 8,6 17,10 28,10 1,1 4,1 5,0 12,1 28,-13 35,-22 3,-4 6,-8 8,-12 6,-1 12,-1 18,-2 16,-3 28,-9 36,-22 9,-14 7,-31 1,-47 0,-2 -6,-13 -6,-13 0,0 5,-11 6,-13 14,-35 0,-62 -37,-69 -6,-1 -12,-1 -18,-2 -6,-9 -8,-14 -18,-23 -7,-6 -17,-11 -30,-12z"/>
 </g>
</svg>
