<?xml version="1.0" encoding="UTF-8"?>
<!DOCTYPE svg PUBLIC "-//W3C//DTD SVG 1.1//EN" "http://www.w3.org/Graphics/SVG/1.1/DTD/svg11.dtd">
<!-- Creator: CorelDRAW X6 -->
<svg xmlns="http://www.w3.org/2000/svg" xml:space="preserve" width="2.54mm" height="2.54mm" version="1.1" style="shape-rendering:geometricPrecision; text-rendering:geometricPrecision; image-rendering:optimizeQuality; fill-rule:evenodd; clip-rule:evenodd"
viewBox="0 0 254 254"
 xmlns:xlink="http://www.w3.org/1999/xlink">
 <defs>
  <style type="text/css">
   <![CDATA[
    .fil0 {fill:#CC244C}
   ]]>
  </style>
 </defs>
 <g id="Слой_x0020_1">
  <metadata id="CorelCorpID_0Corel-Layer"/>
  <path class="fil0" d="M199 255l0 0c-13,-1 -9,-16 -9,-16l-7 -121 -9 -9 -2 -25 27 0 0 0 27 0 -2 25 -9 9 -7 121c0,0 3,15 -9,16l0 0 0 0 0 0zm-86 -190c17,0 32,4 45,11 1,4 1,8 1,11 -13,-8 -29,-13 -46,-13 -47,0 -85,38 -85,86 0,47 38,85 85,85 24,0 46,-10 62,-26l0 13c-17,14 -38,23 -62,23 -52,0 -95,-43 -95,-95 0,-53 43,-95 95,-95zm0 21c18,0 34,7 47,17 1,17 13,33 13,33l1 64c-13,20 -35,33 -61,33 -40,0 -73,-33 -73,-73 0,-41 33,-74 73,-74zm58 -9l58 0c0,0 15,-36 0,-52 -14,-16 -31,-26 -31,-26 0,0 -57,21 -27,78z"/>
 </g>
</svg>
