<?xml version="1.0" encoding="UTF-8"?>
<!DOCTYPE svg PUBLIC "-//W3C//DTD SVG 1.1//EN" "http://www.w3.org/Graphics/SVG/1.1/DTD/svg11.dtd">
<!-- Creator: CorelDRAW X6 -->
<svg xmlns="http://www.w3.org/2000/svg" xml:space="preserve" width="2.54mm" height="2.54mm" version="1.1" style="shape-rendering:geometricPrecision; text-rendering:geometricPrecision; image-rendering:optimizeQuality; fill-rule:evenodd; clip-rule:evenodd"
viewBox="0 0 254 254"
 xmlns:xlink="http://www.w3.org/1999/xlink">
 <defs>
  <style type="text/css">
   <![CDATA[
    .fil0 {fill:#ADADAD}
   ]]>
  </style>
 </defs>
 <g id="Слой_x0020_1">
  <metadata id="CorelCorpID_0Corel-Layer"/>
  <path class="fil0" d="M125 244c7,-4 16,-11 21,-25 10,-26 23,-29 35,-29 12,0 16,0 16,0l7 54 10 0 6 -54c0,0 23,-4 23,-28 0,-23 -21,-52 -21,-52 0,0 -16,27 -55,27 -39,0 -42,-4 -42,-4 0,0 -10,2 -14,16 -4,13 -35,44 -70,50 -33,6 -38,23 -19,45l103 0zm8 -241l13 0c0,0 28,3 38,16 9,13 10,36 10,36l-23 10 -10 -3c0,0 -21,28 -20,42 1,14 -1,-4 0,0 -12,4 -39,29 -79,61l-26 0c0,0 19,-36 21,-61 2,-25 -21,-42 -21,-42l-9 3 -24 -10c0,0 2,-23 11,-36 9,-13 37,-16 37,-16l14 0c2,31 23,44 34,48 10,-4 31,-17 34,-48z"/>
 </g>
</svg>
