<?xml version="1.0" encoding="UTF-8"?>
<!DOCTYPE svg PUBLIC "-//W3C//DTD SVG 1.1//EN" "http://www.w3.org/Graphics/SVG/1.1/DTD/svg11.dtd">
<!-- Creator: CorelDRAW X6 -->
<svg xmlns="http://www.w3.org/2000/svg" xml:space="preserve" width="2.54mm" height="2.54mm" version="1.1" style="shape-rendering:geometricPrecision; text-rendering:geometricPrecision; image-rendering:optimizeQuality; fill-rule:evenodd; clip-rule:evenodd"
viewBox="0 0 254 254"
 xmlns:xlink="http://www.w3.org/1999/xlink">
 <defs>
  <style type="text/css">
   <![CDATA[
    .fil0 {fill:#ADADAD}
   ]]>
  </style>
 </defs>
 <g id="Слой_x0020_1">
  <metadata id="CorelCorpID_0Corel-Layer"/>
  <path class="fil0" d="M57 247l69 0 2 0 69 0 11 0c0,0 20,-1 20,-24 0,-17 3,-51 -20,-59 -10,-4 -24,-2 -24,-2 -24,47 -90,47 -114,0 0,0 -14,-2 -24,2 -23,8 -20,42 -20,59 0,23 20,24 20,24l11 0zm69 -240l0 0c-1,0 -1,0 -1,0 -1,0 -3,0 -4,0 -54,0 -45,66 -63,88 -9,11 -22,12 -9,23 14,10 55,6 57,17 1,10 -5,13 -14,17 -8,3 -12,7 -2,20 14,18 60,18 74,0 10,-13 6,-17 -2,-20 -9,-4 -15,-7 -14,-17 2,-11 43,-7 57,-17 13,-11 0,-12 -9,-23 -18,-22 -9,-88 -63,-88 -1,0 -3,0 -4,0 0,0 0,0 -1,0l0 0c0,0 -1,0 -1,0 0,0 -1,0 -1,0z"/>
 </g>
</svg>
