<?xml version="1.0" encoding="UTF-8"?>
<!DOCTYPE svg PUBLIC "-//W3C//DTD SVG 1.1//EN" "http://www.w3.org/Graphics/SVG/1.1/DTD/svg11.dtd">
<!-- Creator: CorelDRAW X6 -->
<svg xmlns="http://www.w3.org/2000/svg" xml:space="preserve" width="2.54mm" height="2.54mm" version="1.1" style="shape-rendering:geometricPrecision; text-rendering:geometricPrecision; image-rendering:optimizeQuality; fill-rule:evenodd; clip-rule:evenodd"
viewBox="0 0 254 254"
 xmlns:xlink="http://www.w3.org/1999/xlink">
 <defs>
  <style type="text/css">
   <![CDATA[
    .fil0 {fill:#ADADAD}
   ]]>
  </style>
 </defs>
 <g id="Слой_x0020_1">
  <metadata id="CorelCorpID_0Corel-Layer"/>
  <path class="fil0" d="M127 5c22,0 40,18 40,40 0,23 -18,41 -40,41 -22,0 -40,-18 -40,-41 0,-22 18,-40 40,-40zm72 219l-45 0 0 10c-3,3 -3,8 4,14 0,0 14,2 36,0 22,-3 50,-23 49,-48 0,-24 -23,-30 -39,-23 -15,7 -51,12 -51,12 13,-11 30,-28 37,-46 10,5 20,11 30,15 30,14 34,3 34,3l-75 -63 0 1 -1 -1c-18,-12 -36,-2 -40,3 -8,9 -14,9 -22,0 -4,-5 -22,-15 -40,-3l-1 1 0 -1 -75 63c0,0 4,11 34,-3 10,-4 20,-10 30,-15 7,18 24,35 37,46 0,0 -36,-5 -51,-12 -16,-7 -39,-1 -39,23 -1,25 27,45 49,48 22,2 36,0 36,0 3,-3 4,-5 5,-7l1 0 0 0c0,-2 0,-4 0,-5l0 -12 -47 0c-7,-1 -12,-4 -14,-7 -4,-6 -6,-14 1,-12 8,2 20,9 45,9 27,0 53,0 80,0 25,0 37,-7 45,-9 7,-2 5,6 1,12 -2,3 -7,6 -14,7z"/>
 </g>
</svg>
