<svg xmlns="http://www.w3.org/2000/svg" xml:space="preserve" width="512px" height="512px" version="1.1" style="shape-rendering:geometricPrecision; text-rendering:geometricPrecision; image-rendering:optimizeQuality; fill-rule:evenodd; clip-rule:evenodd"
viewBox="0 0 512000 512000"
 xmlns:xlink="http://www.w3.org/1999/xlink"
 enable-background="new 0 0 512 512">
 <defs>
  <style type="text/css">
   <![CDATA[
    .fil0 {fill:#C5C6C6}
    .fil5 {fill:#B1392F}
    .fil4 {fill:#B6B5AC}
    .fil6 {fill:#BEBDB3}
    .fil9 {fill:#C2C0B6}
    .fil8 {fill:#C4C2B8}
    .fil7 {fill:#C7C5BB}
    .fil10 {fill:#D4D0BD}
    .fil1 {fill:#E65A4D}
    .fil3 {fill:#E6E3D6}
    .fil2 {fill:#F6F4EC}
   ]]>
  </style>
 </defs>
 <g id="Слой_x0020_1">
  <metadata id="CorelCorpID_0Corel-Layer"/>
  <path class="fil0" d="M90345 2000l331310 0c48601,0 88345,39744 88345,88345l0 331310c0,48601 -39744,88345 -88345,88345l-331310 0c-48601,0 -88345,-39744 -88345,-88345l0 -331310c0,-48601 39744,-88345 88345,-88345z"/>
  <path class="fil1" d="M391384 138153c2988,-1793 6043,-797 8964,0 11354,3120 19386,13544 19586,25428 67,2988 -66,5975 -66,8896 -864,0 -1395,531 -2059,997 -8366,5975 -16864,11950 -25163,17993 -3387,2456 -7105,4382 -9959,7501 -1196,0 -2059,797 -2921,1395 -27620,19055 -55239,38043 -82792,57098 -13677,9428 -27355,18989 -41032,28482 -398,0 -797,0 -1128,0 -597,-465 -1129,-1063 -1727,-1461 -33661,-23436 -67323,-46873 -100984,-70310 -6905,-4781 -13810,-9627 -20714,-14408 -798,-530 -1528,-1659 -2523,-1062 -930,531 -332,1792 -466,2789 -66,330 0,664 0,995 0,55438 0,110877 0,166316 0,1194 68,2456 134,3650 0,665 -67,1263 -67,1926 -12616,1527 -24101,-199 -32001,-11619 -2856,-4182 -4516,-8831 -4516,-14009 0,-61946 -66,-123824 68,-185769 0,-12614 10224,-23769 22773,-25562 1991,-265 3983,-530 5709,798 398,398 730,796 1195,1128 43885,32533 87772,65064 131658,97664 1726,1261 2855,1195 4580,-67 35057,-25894 70178,-51720 105233,-77547 9297,-7101 18725,-14204 28218,-21242z"/>
  <path class="fil2" d="M391384 138153c-9493,7038 -18921,14141 -28416,21179 -35055,25894 -70178,51655 -105233,77547 -1727,1261 -2789,1328 -4581,67 -43819,-32599 -87706,-65066 -131591,-97664 -465,-332 -797,-730 -1195,-1129 797,-1328 2191,-864 3319,-864 88104,0 176274,0 264378,0 1128,0 2456,-464 3319,864z"/>
  <path class="fil3" d="M128400 372322c-66,-1195 -132,-2457 -132,-3652 0,-55438 0,-110877 0,-166315 0,-332 -66,-663 0,-995 132,-930 -465,-2191 465,-2789 996,-598 1793,530 2523,1062 6905,4781 13810,9627 20715,14408 33661,23437 67323,46874 100984,70310 598,466 1195,997 1726,1461 -266,266 -598,466 -864,730 -198,200 -464,466 -663,665 -531,0 -1063,132 -1328,664 -200,200 -465,465 -664,664 -67,133 -199,199 -266,332 133,-67 199,-199 331,-266 200,-199 466,-465 665,-664 530,0 1062,-132 1328,-665 198,-198 464,-464 663,-664 664,0 1328,-66 1993,-66 9228,6441 18523,12814 27752,19253 27487,19055 54974,38044 82394,57231 4913,3453 10291,6440 14673,10624 -1195,1128 -2656,398 -3984,598 67,-1528 -1261,-1926 -2258,-2591 -5046,-3518 -10225,-6904 -15137,-10556 -8233,-6042 -16599,-11818 -24964,-17660 -6972,-4847 -13877,-9893 -21047,-14473 -6241,-3984 -12018,-8764 -18258,-12815 -7038,-4515 -13677,-9560 -20648,-14142 -5777,-3784 -11420,-7834 -17063,-11818 -1128,-797 -2124,-1128 -3319,-332 -2391,1726 -5445,2855 -7436,4714 -5710,5245 -12682,8631 -18657,13411 -7635,6043 -15867,11420 -24034,16798 -13544,8963 -26690,18657 -40167,27686 -8034,5378 -16002,10823 -23703,16732 -2125,1593 -4979,2323 -6307,4979 -1328,-132 -2789,398 -4050,-465 23769,-16598 47537,-33130 71240,-49728 3120,-2191 6639,-3918 9229,-6839 464,-133 1062,-199 995,-863 0,-67 -132,-200 -199,-200 -664,-66 -796,466 -930,930 -2389,132 -3850,1991 -5643,3187 -25296,17461 -50659,34790 -75955,52119zm114197 -77681c199,-198 465,-464 664,-664 531,0 1063,-132 1328,-663 199,-200 465,-466 664,-665 530,0 1063,-133 1328,-664 66,-133 199,-200 265,-332 -132,67 -199,199 -331,266 -531,0 -1062,132 -1328,665 -200,198 -465,464 -664,663 -531,0 -1063,133 -1327,664 -201,266 -400,465 -599,730 -132,67 -266,134 -332,267 132,-67 266,-133 332,-267zm-8631 5910c-531,0 -1063,133 -1327,664 -398,67 -930,67 -996,665 0,132 266,398 398,398 531,-67 598,-531 664,-929 530,-68 996,-134 1261,-798 266,-132 531,-398 730,-597 531,0 1063,-133 1328,-664 200,-200 465,-465 664,-665 531,0 1063,-132 1327,-664 68,-132 200,-199 267,-332 -133,66 -199,200 -332,266 -531,0 -1063,132 -1327,664 -200,199 -466,465 -665,665 -531,0 -1062,132 -1328,664 -265,265 -464,464 -664,663zm-8631 6042c-530,0 -1063,132 -1328,663 -531,68 -1063,133 -995,864 0,67 132,199 198,199 731,67 797,-465 864,-995 531,-68 995,-201 1261,-731 266,-133 465,-398 730,-598 531,0 1063,-132 1327,-664 200,-199 466,-465 665,-665 531,0 1062,-132 1328,-663 66,-133 198,-200 266,-332 -134,66 -200,199 -332,265 -532,0 -1063,133 -1328,664 -199,200 -465,466 -665,665 -530,0 -1062,132 -1327,664 -266,198 -464,398 -664,664zm-6640 4713c531,-67 1063,-133 997,-863 0,-67 -134,-200 -200,-200 -730,-66 -797,466 -863,996 -531,0 -996,132 -1328,665 -929,66 -1593,530 -1991,1328 -466,132 -1063,132 -997,863 0,66 133,198 199,198 664,68 798,-464 864,-995 929,0 1859,-66 1991,-1328 598,-66 1063,-199 1328,-664zm21778 -15734c-67,199 -199,398 -267,530 200,67 399,266 532,200 132,-66 199,-332 265,-531 -199,-67 -398,-133 -530,-199zm-18657 13742c-67,-198 -132,-464 -265,-464 -133,-68 -466,66 -532,198 -198,266 -66,598 266,598 198,1 332,-199 531,-332zm27619 -18921c68,-199 133,-398 266,-531 -198,-67 -398,-265 -530,-199 -132,67 -200,332 -266,531 132,65 332,132 530,199zm-36250 24831c-132,-199 -266,-399 -332,-465 -132,0 -465,132 -465,266 -133,331 67,597 399,531 132,0 266,-200 398,-332z"/>
  <path class="fil4" d="M380695 373716c-4382,-4250 -9693,-7170 -14673,-10623 -27419,-19122 -54906,-38175 -82394,-57230 -9228,-6441 -18523,-12815 -27752,-19255 0,-199 -66,-465 -66,-663 13676,-9494 27354,-18989 41030,-28484 27620,-19054 55239,-38043 82793,-57097 864,-598 1726,-1395 2921,-1395 0,58426 0,116853 0,175345 -531,-200 -1195,-398 -1859,-598z"/>
  <path class="fil3" d="M128467 374378c1261,-2657 1432,-717 3556,-2311 7702,-5843 23664,-14086 31698,-19464 13478,-9096 26624,-18723 40169,-27685 8166,-5379 16399,-10757 24034,-16799 6041,-4780 12946,-8167 18655,-13412 2059,-1859 5047,-2987 7437,-4714 1129,-863 2125,-530 3320,332 5643,3984 11286,8034 17062,11818 6972,4582 13611,9694 20648,14143 6241,3983 12018,8764 18259,12814 7170,4581 14075,9627 21046,14473 8366,5843 16798,11620 24964,17661 4979,3652 10091,7037 15138,10556 928,665 2323,1063 2257,2590 -80998,-66 -167243,-2 -248243,-2z"/>
  <path class="fil5" d="M382688 374314c0,-58426 0,-116853 0,-175345 2855,-3120 6573,-5046 9959,-7502 8364,-6108 16798,-12018 25163,-17993 597,-464 1194,-996 2058,-996 67,1128 133,2191 133,3320 0,56500 0,113067 66,169568 0,3850 -132,7701 -1063,11552 -1659,7105 -5907,12018 -12813,14474 -7636,2656 -15537,3387 -23503,2922z"/>
  <path class="fil6" d="M210132 317282c-2590,2921 -6109,4647 -9229,6838 -23703,16598 -47471,33196 -71240,49728 -465,133 -863,266 -1328,400 0,-665 67,-1263 67,-1926 25363,-17329 50657,-34658 76020,-51986 1792,-1195 3187,-3120 5644,-3187l66 133z"/>
  <path class="fil7" d="M255876 285945c0,198 0,464 67,663 -665,0 -1327,68 -1992,68 0,0 0,0 0,0 266,-267 597,-466 863,-731 266,0 664,0 1062,0z"/>
  <path class="fil6" d="M215310 313166c398,-798 1062,-1262 1991,-1328l66 66c-132,1263 -1062,1328 -1991,1328l-66 -66z"/>
  <path class="fil8" d="M240473 295572c199,66 398,132 530,199 -66,199 -132,465 -265,531 -133,66 -332,-133 -532,-200 68,-132 134,-331 267,-530z"/>
  <path class="fil6" d="M218630 311173c66,-530 198,-996 863,-996 66,0 199,133 199,200 0,730 -531,730 -996,863 -1,66 -66,-67 -66,-67z"/>
  <path class="fil6" d="M221816 309314c-132,132 -331,332 -465,266 -332,0 -464,-331 -266,-598 68,-132 398,-198 532,-198 66,66 66,398 199,530z"/>
  <path class="fil7" d="M249435 290393c-198,-67 -398,-133 -530,-266 66,-199 132,-465 266,-530 132,-68 332,132 530,198 -133,200 -198,399 -266,598z"/>
  <path class="fil6" d="M224074 307323c-68,530 -200,995 -864,995 -67,0 -199,-132 -199,-199 0,-730 531,-730 995,-864 1,1 68,68 68,68z"/>
  <path class="fil9" d="M232705 301347c-67,466 -133,864 -665,930 -132,0 -398,-266 -398,-398 66,-532 530,-598 996,-664 0,66 67,132 67,132z"/>
  <path class="fil6" d="M215442 313298c-132,531 -198,995 -863,995 -67,0 -199,-132 -199,-198 -67,-730 531,-730 996,-863 -66,-66 66,66 66,66z"/>
  <path class="fil6" d="M213185 315224c-132,132 -266,332 -398,332 -399,66 -532,-200 -399,-531 67,-133 332,-266 465,-266 66,66 200,332 332,465z"/>
  <path class="fil6" d="M209998 317149c133,-531 199,-996 930,-929 66,0 198,132 198,199 68,730 -530,730 -995,864 1,-1 -133,-134 -133,-134z"/>
  <path class="fil8" d="M244589 293314c-267,531 -797,664 -1328,664 0,0 -67,-67 -67,-67 334,-464 798,-597 1395,-597l0 0z"/>
  <path class="fil6" d="M217367 311838c267,-532 797,-665 1328,-665 0,0 67,67 67,67 -266,531 -797,664 -1327,664 0,66 -68,-66 -68,-66z"/>
  <path class="fil9" d="M236622 298625c265,-530 797,-664 1327,-664l66 66c-330,466 -796,598 -1393,598l0 0z"/>
  <path class="fil9" d="M235958 299290c-266,530 -796,664 -1328,664l0 0c266,-532 730,-664 1328,-664 0,0 0,0 0,0z"/>
  <path class="fil6" d="M227991 304600c266,-530 796,-664 1328,-664l66 67c-332,465 -796,597 -1394,597 0,0 0,0 0,0z"/>
  <path class="fil6" d="M227326 305265c-265,530 -796,664 -1327,664l0 -1c265,-597 730,-663 1327,-663l0 0z"/>
  <path class="fil6" d="M225335 306593c-266,530 -797,663 -1328,663 0,0 -66,-66 -66,-66 331,-465 796,-597 1394,-597 0,0 0,0 0,0z"/>
  <path class="fil7" d="M253220 287338c-266,532 -796,665 -1328,665 0,0 -66,-67 -66,-67 332,-465 797,-598 1394,-598 0,0 0,0 0,0z"/>
  <path class="fil8" d="M245253 292650c266,-531 796,-664 1328,-664l0 0c-265,531 -730,664 -1328,664 0,0 0,0 0,0z"/>
  <path class="fil9" d="M233966 300617c-265,531 -797,664 -1327,664 0,0 -67,-66 -67,-66 331,-465 797,-598 1394,-598 0,-66 0,0 0,0z"/>
  <path class="fil6" d="M227326 305265c200,-199 466,-465 665,-665 0,0 66,67 66,67 -265,199 -465,399 -731,598 0,0 0,0 0,0z"/>
  <path class="fil9" d="M234630 299954c-199,199 -465,465 -665,663 0,0 -66,-66 -66,-66 267,-199 466,-398 731,-597 0,0 0,0 0,0z"/>
  <path class="fil8" d="M242597 294641c199,-198 465,-464 664,-664 0,0 67,68 67,68 -266,198 -465,398 -731,596l0 0z"/>
  <path class="fil9" d="M237950 297962c133,-67 199,-199 332,-267 -133,68 -199,200 -332,267 0,0 0,0 0,0z"/>
  <path class="fil8" d="M246581 291986c132,-66 199,-198 332,-266 -133,68 -199,200 -332,266 0,0 0,0 0,0z"/>
  <path class="fil7" d="M251228 288666c-132,67 -199,199 -332,266 133,-67 200,-199 332,-266 0,0 0,0 0,0z"/>
  <path class="fil7" d="M251228 288666c200,-199 466,-464 664,-664 0,0 67,66 67,66 -265,200 -465,399 -731,598 0,0 0,0 0,0z"/>
  <path class="fil8" d="M244589 293314c199,-199 465,-465 664,-664 0,0 66,66 66,66 -265,199 -464,399 -730,598 0,0 0,0 0,0z"/>
  <path class="fil7" d="M253885 286675c-200,199 -466,465 -665,663 0,0 -66,-66 -66,-66 265,-199 465,-398 731,-597 0,0 0,0 0,0z"/>
  <path class="fil8" d="M242597 294641c-132,67 -200,200 -332,267 132,-67 200,-200 332,-267 0,0 0,0 0,0z"/>
  <path class="fil6" d="M229319 303938c132,-68 198,-200 332,-266 -134,66 -200,198 -332,266 0,0 0,0 0,0z"/>
  <path class="fil9" d="M236622 298625c-200,200 -466,465 -664,665 0,0 -68,-67 -68,-67 267,-199 467,-398 732,-598 0,0 0,0 0,0z"/>
  <path class="fil6" d="M225999 305928c-199,199 -464,465 -664,665 0,0 -66,-68 -66,-68 266,-198 464,-398 730,-597 0,0 0,0 0,0z"/>
  <polygon class="fil3" points="128334,374248 382688,374314 128866,198702 "/>
  <polygon class="fil10" points="128309,370498 128334,374248 255810,285945 252741,284005 "/>
 </g>
</svg>
